<?xml version="1.0" encoding="utf-8"?>
<svg xmlns="http://www.w3.org/2000/svg" xmlns:xlink="http://www.w3.org/1999/xlink" width="528" height="336" viewBox="0 0 2112 1344">
<defs>
  <clipPath id="clip210">
    <rect x="0" y="0" width="2112" height="1344"/>
  </clipPath>
</defs>
<path clip-path="url(#clip210)" d="M0 1344 L2112 1344 L2112 0 L0 0  Z" fill="#ffffff" fill-rule="evenodd" fill-opacity="1"/>
<defs>
  <clipPath id="clip211">
    <rect x="422" y="0" width="1479" height="1344"/>
  </clipPath>
</defs>
<path clip-path="url(#clip210)" d="M153.718 1234.58 L2064.76 1234.58 L2064.76 47.2441 L153.718 47.2441  Z" fill="#ffffff" fill-rule="evenodd" fill-opacity="1"/>
<defs>
  <clipPath id="clip212">
    <rect x="153" y="47" width="1912" height="1188"/>
  </clipPath>
</defs>
<polyline clip-path="url(#clip212)" style="stroke:#000000; stroke-linecap:round; stroke-linejoin:round; stroke-width:2; stroke-opacity:0.1; fill:none" points="207.802,1234.58 207.802,47.2441 "/>
<polyline clip-path="url(#clip212)" style="stroke:#000000; stroke-linecap:round; stroke-linejoin:round; stroke-width:2; stroke-opacity:0.1; fill:none" points="658.97,1234.58 658.97,47.2441 "/>
<polyline clip-path="url(#clip212)" style="stroke:#000000; stroke-linecap:round; stroke-linejoin:round; stroke-width:2; stroke-opacity:0.1; fill:none" points="1110.14,1234.58 1110.14,47.2441 "/>
<polyline clip-path="url(#clip212)" style="stroke:#000000; stroke-linecap:round; stroke-linejoin:round; stroke-width:2; stroke-opacity:0.1; fill:none" points="1561.31,1234.58 1561.31,47.2441 "/>
<polyline clip-path="url(#clip212)" style="stroke:#000000; stroke-linecap:round; stroke-linejoin:round; stroke-width:2; stroke-opacity:0.1; fill:none" points="2012.47,1234.58 2012.47,47.2441 "/>
<polyline clip-path="url(#clip210)" style="stroke:#000000; stroke-linecap:round; stroke-linejoin:round; stroke-width:4; stroke-opacity:1; fill:none" points="153.718,1234.58 2064.76,1234.58 "/>
<polyline clip-path="url(#clip210)" style="stroke:#000000; stroke-linecap:round; stroke-linejoin:round; stroke-width:4; stroke-opacity:1; fill:none" points="207.802,1234.58 207.802,1215.68 "/>
<polyline clip-path="url(#clip210)" style="stroke:#000000; stroke-linecap:round; stroke-linejoin:round; stroke-width:4; stroke-opacity:1; fill:none" points="658.97,1234.58 658.97,1215.68 "/>
<polyline clip-path="url(#clip210)" style="stroke:#000000; stroke-linecap:round; stroke-linejoin:round; stroke-width:4; stroke-opacity:1; fill:none" points="1110.14,1234.58 1110.14,1215.68 "/>
<polyline clip-path="url(#clip210)" style="stroke:#000000; stroke-linecap:round; stroke-linejoin:round; stroke-width:4; stroke-opacity:1; fill:none" points="1561.31,1234.58 1561.31,1215.68 "/>
<polyline clip-path="url(#clip210)" style="stroke:#000000; stroke-linecap:round; stroke-linejoin:round; stroke-width:4; stroke-opacity:1; fill:none" points="2012.47,1234.58 2012.47,1215.68 "/>
<path clip-path="url(#clip210)" d="M207.802 1263.19 Q204.191 1263.19 202.363 1266.76 Q200.557 1270.3 200.557 1277.43 Q200.557 1284.54 202.363 1288.1 Q204.191 1291.64 207.802 1291.64 Q211.437 1291.64 213.242 1288.1 Q215.071 1284.54 215.071 1277.43 Q215.071 1270.3 213.242 1266.76 Q211.437 1263.19 207.802 1263.19 M207.802 1259.49 Q213.613 1259.49 216.668 1264.1 Q219.747 1268.68 219.747 1277.43 Q219.747 1286.16 216.668 1290.76 Q213.613 1295.35 207.802 1295.35 Q201.992 1295.35 198.914 1290.76 Q195.858 1286.16 195.858 1277.43 Q195.858 1268.68 198.914 1264.1 Q201.992 1259.49 207.802 1259.49 Z" fill="#000000" fill-rule="nonzero" fill-opacity="1" /><path clip-path="url(#clip210)" d="M556.021 1306.4 L572.34 1306.4 L572.34 1310.33 L550.396 1310.33 L550.396 1306.4 Q553.058 1303.65 557.641 1299.02 Q562.247 1294.36 563.428 1293.02 Q565.673 1290.5 566.553 1288.76 Q567.456 1287 567.456 1285.31 Q567.456 1282.56 565.511 1280.82 Q563.59 1279.08 560.488 1279.08 Q558.289 1279.08 555.835 1279.85 Q553.405 1280.61 550.627 1282.16 L550.627 1277.44 Q553.451 1276.31 555.905 1275.73 Q558.359 1275.15 560.396 1275.15 Q565.766 1275.15 568.96 1277.83 Q572.155 1280.52 572.155 1285.01 Q572.155 1287.14 571.345 1289.06 Q570.558 1290.96 568.451 1293.55 Q567.872 1294.22 564.771 1297.44 Q561.669 1300.64 556.021 1306.4 Z" fill="#000000" fill-rule="nonzero" fill-opacity="1" /><path clip-path="url(#clip210)" d="M582.155 1304.46 L587.039 1304.46 L587.039 1310.33 L582.155 1310.33 L582.155 1304.46 Z" fill="#000000" fill-rule="nonzero" fill-opacity="1" /><path clip-path="url(#clip210)" d="M597.27 1275.77 L615.627 1275.77 L615.627 1279.71 L601.553 1279.71 L601.553 1288.18 Q602.571 1287.83 603.59 1287.67 Q604.608 1287.49 605.627 1287.49 Q611.414 1287.49 614.793 1290.66 Q618.173 1293.83 618.173 1299.25 Q618.173 1304.83 614.701 1307.93 Q611.229 1311.01 604.909 1311.01 Q602.733 1311.01 600.465 1310.64 Q598.219 1310.27 595.812 1309.52 L595.812 1304.83 Q597.895 1305.96 600.118 1306.52 Q602.34 1307.07 604.817 1307.07 Q608.821 1307.07 611.159 1304.96 Q613.497 1302.86 613.497 1299.25 Q613.497 1295.64 611.159 1293.53 Q608.821 1291.42 604.817 1291.42 Q602.942 1291.42 601.067 1291.84 Q599.215 1292.26 597.27 1293.14 L597.27 1275.77 Z" fill="#000000" fill-rule="nonzero" fill-opacity="1" /><path clip-path="url(#clip210)" d="M637.386 1278.85 Q633.775 1278.85 631.946 1282.42 Q630.141 1285.96 630.141 1293.09 Q630.141 1300.2 631.946 1303.76 Q633.775 1307.3 637.386 1307.3 Q641.02 1307.3 642.826 1303.76 Q644.654 1300.2 644.654 1293.09 Q644.654 1285.96 642.826 1282.42 Q641.02 1278.85 637.386 1278.85 M637.386 1275.15 Q643.196 1275.15 646.252 1279.76 Q649.33 1284.34 649.33 1293.09 Q649.33 1301.82 646.252 1306.42 Q643.196 1311.01 637.386 1311.01 Q631.576 1311.01 628.497 1306.42 Q625.442 1301.82 625.442 1293.09 Q625.442 1284.34 628.497 1279.76 Q631.576 1275.15 637.386 1275.15 Z" fill="#000000" fill-rule="nonzero" fill-opacity="1" /><path clip-path="url(#clip210)" d="M685.719 1284.87 L675.14 1295.5 L685.719 1306.08 L682.964 1308.88 L672.339 1298.25 L661.714 1308.88 L658.983 1306.08 L669.539 1295.5 L658.983 1284.87 L661.714 1282.07 L672.339 1292.7 L682.964 1282.07 L685.719 1284.87 Z" fill="#000000" fill-rule="nonzero" fill-opacity="1" /><path clip-path="url(#clip210)" d="M698.08 1306.4 L705.719 1306.4 L705.719 1280.03 L697.409 1281.7 L697.409 1277.44 L705.673 1275.77 L710.348 1275.77 L710.348 1306.4 L717.987 1306.4 L717.987 1310.33 L698.08 1310.33 L698.08 1306.4 Z" fill="#000000" fill-rule="nonzero" fill-opacity="1" /><path clip-path="url(#clip210)" d="M737.432 1278.85 Q733.821 1278.85 731.992 1282.42 Q730.186 1285.96 730.186 1293.09 Q730.186 1300.2 731.992 1303.76 Q733.821 1307.3 737.432 1307.3 Q741.066 1307.3 742.871 1303.76 Q744.7 1300.2 744.7 1293.09 Q744.7 1285.96 742.871 1282.42 Q741.066 1278.85 737.432 1278.85 M737.432 1275.15 Q743.242 1275.15 746.297 1279.76 Q749.376 1284.34 749.376 1293.09 Q749.376 1301.82 746.297 1306.42 Q743.242 1311.01 737.432 1311.01 Q731.622 1311.01 728.543 1306.42 Q725.487 1301.82 725.487 1293.09 Q725.487 1284.34 728.543 1279.76 Q731.622 1275.15 737.432 1275.15 Z" fill="#000000" fill-rule="nonzero" fill-opacity="1" /><path clip-path="url(#clip210)" d="M750.561 1254.84 L765.476 1254.84 L765.476 1258.04 L754.04 1258.04 L754.04 1264.93 Q754.868 1264.64 755.695 1264.51 Q756.523 1264.36 757.351 1264.36 Q762.052 1264.36 764.798 1266.94 Q767.544 1269.51 767.544 1273.92 Q767.544 1278.45 764.723 1280.97 Q761.902 1283.47 756.768 1283.47 Q755 1283.47 753.156 1283.17 Q751.332 1282.87 749.376 1282.27 L749.376 1278.45 Q751.069 1279.37 752.874 1279.82 Q754.68 1280.27 756.692 1280.27 Q759.946 1280.27 761.846 1278.56 Q763.745 1276.85 763.745 1273.92 Q763.745 1270.98 761.846 1269.27 Q759.946 1267.56 756.692 1267.56 Q755.169 1267.56 753.645 1267.9 Q752.141 1268.24 750.561 1268.95 L750.561 1254.84 Z" fill="#000000" fill-rule="nonzero" fill-opacity="1" /><path clip-path="url(#clip210)" d="M1003.11 1275.77 L1021.47 1275.77 L1021.47 1279.71 L1007.4 1279.71 L1007.4 1288.18 Q1008.42 1287.83 1009.43 1287.67 Q1010.45 1287.49 1011.47 1287.49 Q1017.26 1287.49 1020.64 1290.66 Q1024.02 1293.83 1024.02 1299.25 Q1024.02 1304.83 1020.54 1307.93 Q1017.07 1311.01 1010.75 1311.01 Q1008.58 1311.01 1006.31 1310.64 Q1004.06 1310.27 1001.66 1309.52 L1001.66 1304.83 Q1003.74 1305.96 1005.96 1306.52 Q1008.18 1307.07 1010.66 1307.07 Q1014.67 1307.07 1017 1304.96 Q1019.34 1302.86 1019.34 1299.25 Q1019.34 1295.64 1017 1293.53 Q1014.67 1291.42 1010.66 1291.42 Q1008.79 1291.42 1006.91 1291.84 Q1005.06 1292.26 1003.11 1293.14 L1003.11 1275.77 Z" fill="#000000" fill-rule="nonzero" fill-opacity="1" /><path clip-path="url(#clip210)" d="M1033.23 1304.46 L1038.11 1304.46 L1038.11 1310.33 L1033.23 1310.33 L1033.23 1304.46 Z" fill="#000000" fill-rule="nonzero" fill-opacity="1" /><path clip-path="url(#clip210)" d="M1058.3 1278.85 Q1054.69 1278.85 1052.86 1282.42 Q1051.05 1285.96 1051.05 1293.09 Q1051.05 1300.2 1052.86 1303.76 Q1054.69 1307.3 1058.3 1307.3 Q1061.93 1307.3 1063.74 1303.76 Q1065.57 1300.2 1065.57 1293.09 Q1065.57 1285.96 1063.74 1282.42 Q1061.93 1278.85 1058.3 1278.85 M1058.3 1275.15 Q1064.11 1275.15 1067.16 1279.76 Q1070.24 1284.34 1070.24 1293.09 Q1070.24 1301.82 1067.16 1306.42 Q1064.11 1311.01 1058.3 1311.01 Q1052.49 1311.01 1049.41 1306.42 Q1046.35 1301.82 1046.35 1293.09 Q1046.35 1284.34 1049.41 1279.76 Q1052.49 1275.15 1058.3 1275.15 Z" fill="#000000" fill-rule="nonzero" fill-opacity="1" /><path clip-path="url(#clip210)" d="M1088.46 1278.85 Q1084.85 1278.85 1083.02 1282.42 Q1081.22 1285.96 1081.22 1293.09 Q1081.22 1300.2 1083.02 1303.76 Q1084.85 1307.3 1088.46 1307.3 Q1092.1 1307.3 1093.9 1303.76 Q1095.73 1300.2 1095.73 1293.09 Q1095.73 1285.96 1093.9 1282.42 Q1092.1 1278.85 1088.46 1278.85 M1088.46 1275.15 Q1094.27 1275.15 1097.33 1279.76 Q1100.41 1284.34 1100.41 1293.09 Q1100.41 1301.82 1097.33 1306.42 Q1094.27 1311.01 1088.46 1311.01 Q1082.65 1311.01 1079.57 1306.42 Q1076.52 1301.82 1076.52 1293.09 Q1076.52 1284.34 1079.57 1279.76 Q1082.65 1275.15 1088.46 1275.15 Z" fill="#000000" fill-rule="nonzero" fill-opacity="1" /><path clip-path="url(#clip210)" d="M1136.79 1284.87 L1126.22 1295.5 L1136.79 1306.08 L1134.04 1308.88 L1123.41 1298.25 L1112.79 1308.88 L1110.06 1306.08 L1120.61 1295.5 L1110.06 1284.87 L1112.79 1282.07 L1123.41 1292.7 L1134.04 1282.07 L1136.79 1284.87 Z" fill="#000000" fill-rule="nonzero" fill-opacity="1" /><path clip-path="url(#clip210)" d="M1149.16 1306.4 L1156.79 1306.4 L1156.79 1280.03 L1148.48 1281.7 L1148.48 1277.44 L1156.75 1275.77 L1161.42 1275.77 L1161.42 1306.4 L1169.06 1306.4 L1169.06 1310.33 L1149.16 1310.33 L1149.16 1306.4 Z" fill="#000000" fill-rule="nonzero" fill-opacity="1" /><path clip-path="url(#clip210)" d="M1188.51 1278.85 Q1184.9 1278.85 1183.07 1282.42 Q1181.26 1285.96 1181.26 1293.09 Q1181.26 1300.2 1183.07 1303.76 Q1184.9 1307.3 1188.51 1307.3 Q1192.14 1307.3 1193.95 1303.76 Q1195.78 1300.2 1195.78 1293.09 Q1195.78 1285.96 1193.95 1282.42 Q1192.14 1278.85 1188.51 1278.85 M1188.51 1275.15 Q1194.32 1275.15 1197.37 1279.76 Q1200.45 1284.34 1200.45 1293.09 Q1200.45 1301.82 1197.37 1306.42 Q1194.32 1311.01 1188.51 1311.01 Q1182.7 1311.01 1179.62 1306.42 Q1176.56 1301.82 1176.56 1293.09 Q1176.56 1284.34 1179.62 1279.76 Q1182.7 1275.15 1188.51 1275.15 Z" fill="#000000" fill-rule="nonzero" fill-opacity="1" /><path clip-path="url(#clip210)" d="M1201.64 1254.84 L1216.55 1254.84 L1216.55 1258.04 L1205.12 1258.04 L1205.12 1264.93 Q1205.94 1264.64 1206.77 1264.51 Q1207.6 1264.36 1208.43 1264.36 Q1213.13 1264.36 1215.87 1266.94 Q1218.62 1269.51 1218.62 1273.92 Q1218.62 1278.45 1215.8 1280.97 Q1212.98 1283.47 1207.84 1283.47 Q1206.07 1283.47 1204.23 1283.17 Q1202.41 1282.87 1200.45 1282.27 L1200.45 1278.45 Q1202.14 1279.37 1203.95 1279.82 Q1205.75 1280.27 1207.77 1280.27 Q1211.02 1280.27 1212.92 1278.56 Q1214.82 1276.85 1214.82 1273.92 Q1214.82 1270.98 1212.92 1269.27 Q1211.02 1267.56 1207.77 1267.56 Q1206.24 1267.56 1204.72 1267.9 Q1203.22 1268.24 1201.64 1268.95 L1201.64 1254.84 Z" fill="#000000" fill-rule="nonzero" fill-opacity="1" /><path clip-path="url(#clip210)" d="M1452.94 1275.77 L1475.16 1275.77 L1475.16 1277.77 L1462.62 1310.33 L1457.73 1310.33 L1469.54 1279.71 L1452.94 1279.71 L1452.94 1275.77 Z" fill="#000000" fill-rule="nonzero" fill-opacity="1" /><path clip-path="url(#clip210)" d="M1484.28 1304.46 L1489.17 1304.46 L1489.17 1310.33 L1484.28 1310.33 L1484.28 1304.46 Z" fill="#000000" fill-rule="nonzero" fill-opacity="1" /><path clip-path="url(#clip210)" d="M1499.4 1275.77 L1517.75 1275.77 L1517.75 1279.71 L1503.68 1279.71 L1503.68 1288.18 Q1504.7 1287.83 1505.72 1287.67 Q1506.74 1287.49 1507.75 1287.49 Q1513.54 1287.49 1516.92 1290.66 Q1520.3 1293.83 1520.3 1299.25 Q1520.3 1304.83 1516.83 1307.93 Q1513.36 1311.01 1507.04 1311.01 Q1504.86 1311.01 1502.59 1310.64 Q1500.35 1310.27 1497.94 1309.52 L1497.94 1304.83 Q1500.02 1305.96 1502.24 1306.52 Q1504.47 1307.07 1506.94 1307.07 Q1510.95 1307.07 1513.29 1304.96 Q1515.62 1302.86 1515.62 1299.25 Q1515.62 1295.64 1513.29 1293.53 Q1510.95 1291.42 1506.94 1291.42 Q1505.07 1291.42 1503.19 1291.84 Q1501.34 1292.26 1499.4 1293.14 L1499.4 1275.77 Z" fill="#000000" fill-rule="nonzero" fill-opacity="1" /><path clip-path="url(#clip210)" d="M1539.51 1278.85 Q1535.9 1278.85 1534.07 1282.42 Q1532.27 1285.96 1532.27 1293.09 Q1532.27 1300.2 1534.07 1303.76 Q1535.9 1307.3 1539.51 1307.3 Q1543.15 1307.3 1544.95 1303.76 Q1546.78 1300.2 1546.78 1293.09 Q1546.78 1285.96 1544.95 1282.42 Q1543.15 1278.85 1539.51 1278.85 M1539.51 1275.15 Q1545.32 1275.15 1548.38 1279.76 Q1551.46 1284.34 1551.46 1293.09 Q1551.46 1301.82 1548.38 1306.42 Q1545.32 1311.01 1539.51 1311.01 Q1533.7 1311.01 1530.62 1306.42 Q1527.57 1301.82 1527.57 1293.09 Q1527.57 1284.34 1530.62 1279.76 Q1533.7 1275.15 1539.51 1275.15 Z" fill="#000000" fill-rule="nonzero" fill-opacity="1" /><path clip-path="url(#clip210)" d="M1587.85 1284.87 L1577.27 1295.5 L1587.85 1306.08 L1585.09 1308.88 L1574.47 1298.25 L1563.84 1308.88 L1561.11 1306.08 L1571.67 1295.5 L1561.11 1284.87 L1563.84 1282.07 L1574.47 1292.7 L1585.09 1282.07 L1587.85 1284.87 Z" fill="#000000" fill-rule="nonzero" fill-opacity="1" /><path clip-path="url(#clip210)" d="M1600.21 1306.4 L1607.85 1306.4 L1607.85 1280.03 L1599.54 1281.7 L1599.54 1277.44 L1607.8 1275.77 L1612.48 1275.77 L1612.48 1306.4 L1620.11 1306.4 L1620.11 1310.33 L1600.21 1310.33 L1600.21 1306.4 Z" fill="#000000" fill-rule="nonzero" fill-opacity="1" /><path clip-path="url(#clip210)" d="M1639.56 1278.85 Q1635.95 1278.85 1634.12 1282.42 Q1632.31 1285.96 1632.31 1293.09 Q1632.31 1300.2 1634.12 1303.76 Q1635.95 1307.3 1639.56 1307.3 Q1643.19 1307.3 1645 1303.76 Q1646.83 1300.2 1646.83 1293.09 Q1646.83 1285.96 1645 1282.42 Q1643.19 1278.85 1639.56 1278.85 M1639.56 1275.15 Q1645.37 1275.15 1648.42 1279.76 Q1651.5 1284.34 1651.5 1293.09 Q1651.5 1301.82 1648.42 1306.42 Q1645.37 1311.01 1639.56 1311.01 Q1633.75 1311.01 1630.67 1306.42 Q1627.61 1301.82 1627.61 1293.09 Q1627.61 1284.34 1630.67 1279.76 Q1633.75 1275.15 1639.56 1275.15 Z" fill="#000000" fill-rule="nonzero" fill-opacity="1" /><path clip-path="url(#clip210)" d="M1652.69 1254.84 L1667.6 1254.84 L1667.6 1258.04 L1656.17 1258.04 L1656.17 1264.93 Q1656.99 1264.64 1657.82 1264.51 Q1658.65 1264.36 1659.48 1264.36 Q1664.18 1264.36 1666.93 1266.94 Q1669.67 1269.51 1669.67 1273.92 Q1669.67 1278.45 1666.85 1280.97 Q1664.03 1283.47 1658.89 1283.47 Q1657.13 1283.47 1655.28 1283.17 Q1653.46 1282.87 1651.5 1282.27 L1651.5 1278.45 Q1653.2 1279.37 1655 1279.82 Q1656.81 1280.27 1658.82 1280.27 Q1662.07 1280.27 1663.97 1278.56 Q1665.87 1276.85 1665.87 1273.92 Q1665.87 1270.98 1663.97 1269.27 Q1662.07 1267.56 1658.82 1267.56 Q1657.3 1267.56 1655.77 1267.9 Q1654.27 1268.24 1652.69 1268.95 L1652.69 1254.84 Z" fill="#000000" fill-rule="nonzero" fill-opacity="1" /><path clip-path="url(#clip210)" d="M1904.83 1306.4 L1912.47 1306.4 L1912.47 1280.03 L1904.16 1281.7 L1904.16 1277.44 L1912.42 1275.77 L1917.09 1275.77 L1917.09 1306.4 L1924.73 1306.4 L1924.73 1310.33 L1904.83 1310.33 L1904.83 1306.4 Z" fill="#000000" fill-rule="nonzero" fill-opacity="1" /><path clip-path="url(#clip210)" d="M1934.18 1304.46 L1939.06 1304.46 L1939.06 1310.33 L1934.18 1310.33 L1934.18 1304.46 Z" fill="#000000" fill-rule="nonzero" fill-opacity="1" /><path clip-path="url(#clip210)" d="M1959.25 1278.85 Q1955.64 1278.85 1953.81 1282.42 Q1952 1285.96 1952 1293.09 Q1952 1300.2 1953.81 1303.76 Q1955.64 1307.3 1959.25 1307.3 Q1962.88 1307.3 1964.69 1303.76 Q1966.52 1300.2 1966.52 1293.09 Q1966.52 1285.96 1964.69 1282.42 Q1962.88 1278.85 1959.25 1278.85 M1959.25 1275.15 Q1965.06 1275.15 1968.11 1279.76 Q1971.19 1284.34 1971.19 1293.09 Q1971.19 1301.82 1968.11 1306.42 Q1965.06 1311.01 1959.25 1311.01 Q1953.44 1311.01 1950.36 1306.42 Q1947.3 1301.82 1947.3 1293.09 Q1947.3 1284.34 1950.36 1279.76 Q1953.44 1275.15 1959.25 1275.15 Z" fill="#000000" fill-rule="nonzero" fill-opacity="1" /><path clip-path="url(#clip210)" d="M1989.41 1278.85 Q1985.8 1278.85 1983.97 1282.42 Q1982.16 1285.96 1982.16 1293.09 Q1982.16 1300.2 1983.97 1303.76 Q1985.8 1307.3 1989.41 1307.3 Q1993.04 1307.3 1994.85 1303.76 Q1996.68 1300.2 1996.68 1293.09 Q1996.68 1285.96 1994.85 1282.42 Q1993.04 1278.85 1989.41 1278.85 M1989.41 1275.15 Q1995.22 1275.15 1998.28 1279.76 Q2001.35 1284.34 2001.35 1293.09 Q2001.35 1301.82 1998.28 1306.42 Q1995.22 1311.01 1989.41 1311.01 Q1983.6 1311.01 1980.52 1306.42 Q1977.47 1301.82 1977.47 1293.09 Q1977.47 1284.34 1980.52 1279.76 Q1983.6 1275.15 1989.41 1275.15 Z" fill="#000000" fill-rule="nonzero" fill-opacity="1" /><path clip-path="url(#clip210)" d="M2037.74 1284.87 L2027.16 1295.5 L2037.74 1306.08 L2034.99 1308.88 L2024.36 1298.25 L2013.74 1308.88 L2011.01 1306.08 L2021.56 1295.5 L2011.01 1284.87 L2013.74 1282.07 L2024.36 1292.7 L2034.99 1282.07 L2037.74 1284.87 Z" fill="#000000" fill-rule="nonzero" fill-opacity="1" /><path clip-path="url(#clip210)" d="M2050.1 1306.4 L2057.74 1306.4 L2057.74 1280.03 L2049.43 1281.7 L2049.43 1277.44 L2057.7 1275.77 L2062.37 1275.77 L2062.37 1306.4 L2070.01 1306.4 L2070.01 1310.33 L2050.1 1310.33 L2050.1 1306.4 Z" fill="#000000" fill-rule="nonzero" fill-opacity="1" /><path clip-path="url(#clip210)" d="M2089.46 1278.85 Q2085.84 1278.85 2084.02 1282.42 Q2082.21 1285.96 2082.21 1293.09 Q2082.21 1300.2 2084.02 1303.76 Q2085.84 1307.3 2089.46 1307.3 Q2093.09 1307.3 2094.89 1303.76 Q2096.72 1300.2 2096.72 1293.09 Q2096.72 1285.96 2094.89 1282.42 Q2093.09 1278.85 2089.46 1278.85 M2089.46 1275.15 Q2095.27 1275.15 2098.32 1279.76 Q2101.4 1284.34 2101.4 1293.09 Q2101.4 1301.82 2098.32 1306.42 Q2095.27 1311.01 2089.46 1311.01 Q2083.65 1311.01 2080.57 1306.42 Q2077.51 1301.82 2077.51 1293.09 Q2077.51 1284.34 2080.57 1279.76 Q2083.65 1275.15 2089.46 1275.15 Z" fill="#000000" fill-rule="nonzero" fill-opacity="1" /><path clip-path="url(#clip210)" d="M2111.42 1267.37 Q2108.87 1267.37 2107.36 1269.12 Q2105.88 1270.87 2105.88 1273.92 Q2105.88 1276.94 2107.36 1278.71 Q2108.87 1280.46 2111.42 1280.46 Q2113.98 1280.46 2115.47 1278.71 Q2116.97 1276.94 2116.97 1273.92 Q2116.97 1270.87 2115.47 1269.12 Q2113.98 1267.37 2111.42 1267.37 M2118.97 1255.47 L2118.97 1258.93 Q2117.54 1258.25 2116.07 1257.89 Q2114.62 1257.53 2113.19 1257.53 Q2109.43 1257.53 2107.44 1260.07 Q2105.46 1262.61 2105.18 1267.75 Q2106.29 1266.11 2107.96 1265.25 Q2109.64 1264.36 2111.65 1264.36 Q2115.88 1264.36 2118.33 1266.94 Q2120.79 1269.5 2120.79 1273.92 Q2120.79 1278.24 2118.23 1280.86 Q2115.67 1283.47 2111.42 1283.47 Q2106.55 1283.47 2103.98 1279.75 Q2101.4 1276 2101.4 1268.91 Q2101.4 1262.25 2104.56 1258.31 Q2107.72 1254.34 2113.04 1254.34 Q2114.47 1254.34 2115.92 1254.62 Q2117.39 1254.9 2118.97 1255.47 Z" fill="#000000" fill-rule="nonzero" fill-opacity="1" /><polyline clip-path="url(#clip212)" style="stroke:#000000; stroke-linecap:round; stroke-linejoin:round; stroke-width:2; stroke-opacity:0.1; fill:none" points="153.718,1201.01 2064.76,1201.01 "/>
<polyline clip-path="url(#clip212)" style="stroke:#000000; stroke-linecap:round; stroke-linejoin:round; stroke-width:2; stroke-opacity:0.1; fill:none" points="153.718,1013.57 2064.76,1013.57 "/>
<polyline clip-path="url(#clip212)" style="stroke:#000000; stroke-linecap:round; stroke-linejoin:round; stroke-width:2; stroke-opacity:0.1; fill:none" points="153.718,826.132 2064.76,826.132 "/>
<polyline clip-path="url(#clip212)" style="stroke:#000000; stroke-linecap:round; stroke-linejoin:round; stroke-width:2; stroke-opacity:0.1; fill:none" points="153.718,638.692 2064.76,638.692 "/>
<polyline clip-path="url(#clip212)" style="stroke:#000000; stroke-linecap:round; stroke-linejoin:round; stroke-width:2; stroke-opacity:0.1; fill:none" points="153.718,451.253 2064.76,451.253 "/>
<polyline clip-path="url(#clip212)" style="stroke:#000000; stroke-linecap:round; stroke-linejoin:round; stroke-width:2; stroke-opacity:0.1; fill:none" points="153.718,263.814 2064.76,263.814 "/>
<polyline clip-path="url(#clip212)" style="stroke:#000000; stroke-linecap:round; stroke-linejoin:round; stroke-width:2; stroke-opacity:0.1; fill:none" points="153.718,76.375 2064.76,76.375 "/>
<polyline clip-path="url(#clip210)" style="stroke:#000000; stroke-linecap:round; stroke-linejoin:round; stroke-width:4; stroke-opacity:1; fill:none" points="153.718,1234.58 153.718,47.2441 "/>
<polyline clip-path="url(#clip210)" style="stroke:#000000; stroke-linecap:round; stroke-linejoin:round; stroke-width:4; stroke-opacity:1; fill:none" points="153.718,1201.01 172.616,1201.01 "/>
<polyline clip-path="url(#clip210)" style="stroke:#000000; stroke-linecap:round; stroke-linejoin:round; stroke-width:4; stroke-opacity:1; fill:none" points="153.718,1013.57 172.616,1013.57 "/>
<polyline clip-path="url(#clip210)" style="stroke:#000000; stroke-linecap:round; stroke-linejoin:round; stroke-width:4; stroke-opacity:1; fill:none" points="153.718,826.132 172.616,826.132 "/>
<polyline clip-path="url(#clip210)" style="stroke:#000000; stroke-linecap:round; stroke-linejoin:round; stroke-width:4; stroke-opacity:1; fill:none" points="153.718,638.692 172.616,638.692 "/>
<polyline clip-path="url(#clip210)" style="stroke:#000000; stroke-linecap:round; stroke-linejoin:round; stroke-width:4; stroke-opacity:1; fill:none" points="153.718,451.253 172.616,451.253 "/>
<polyline clip-path="url(#clip210)" style="stroke:#000000; stroke-linecap:round; stroke-linejoin:round; stroke-width:4; stroke-opacity:1; fill:none" points="153.718,263.814 172.616,263.814 "/>
<polyline clip-path="url(#clip210)" style="stroke:#000000; stroke-linecap:round; stroke-linejoin:round; stroke-width:4; stroke-opacity:1; fill:none" points="153.718,76.375 172.616,76.375 "/>
<path clip-path="url(#clip210)" d="M66.0895 1186.81 Q62.4784 1186.81 60.6497 1190.37 Q58.8441 1193.91 58.8441 1201.04 Q58.8441 1208.15 60.6497 1211.72 Q62.4784 1215.26 66.0895 1215.26 Q69.7237 1215.26 71.5292 1211.72 Q73.3579 1208.15 73.3579 1201.04 Q73.3579 1193.91 71.5292 1190.37 Q69.7237 1186.81 66.0895 1186.81 M66.0895 1183.1 Q71.8996 1183.1 74.9552 1187.71 Q78.0338 1192.29 78.0338 1201.04 Q78.0338 1209.77 74.9552 1214.38 Q71.8996 1218.96 66.0895 1218.96 Q60.2793 1218.96 57.2006 1214.38 Q54.1451 1209.77 54.1451 1201.04 Q54.1451 1192.29 57.2006 1187.71 Q60.2793 1183.1 66.0895 1183.1 Z" fill="#000000" fill-rule="nonzero" fill-opacity="1" /><path clip-path="url(#clip210)" d="M86.2514 1212.41 L91.1356 1212.41 L91.1356 1218.29 L86.2514 1218.29 L86.2514 1212.41 Z" fill="#000000" fill-rule="nonzero" fill-opacity="1" /><path clip-path="url(#clip210)" d="M102.131 1214.35 L109.77 1214.35 L109.77 1187.99 L101.46 1189.66 L101.46 1185.4 L109.723 1183.73 L114.399 1183.73 L114.399 1214.35 L122.038 1214.35 L122.038 1218.29 L102.131 1218.29 L102.131 1214.35 Z" fill="#000000" fill-rule="nonzero" fill-opacity="1" /><path clip-path="url(#clip210)" d="M66.4598 999.369 Q62.8487 999.369 61.02 1002.93 Q59.2145 1006.48 59.2145 1013.61 Q59.2145 1020.71 61.02 1024.28 Q62.8487 1027.82 66.4598 1027.82 Q70.0941 1027.82 71.8996 1024.28 Q73.7283 1020.71 73.7283 1013.61 Q73.7283 1006.48 71.8996 1002.93 Q70.0941 999.369 66.4598 999.369 M66.4598 995.666 Q72.27 995.666 75.3255 1000.27 Q78.4042 1004.86 78.4042 1013.61 Q78.4042 1022.33 75.3255 1026.94 Q72.27 1031.52 66.4598 1031.52 Q60.6497 1031.52 57.571 1026.94 Q54.5154 1022.33 54.5154 1013.61 Q54.5154 1004.86 57.571 1000.27 Q60.6497 995.666 66.4598 995.666 Z" fill="#000000" fill-rule="nonzero" fill-opacity="1" /><path clip-path="url(#clip210)" d="M86.6218 1024.97 L91.506 1024.97 L91.506 1030.85 L86.6218 1030.85 L86.6218 1024.97 Z" fill="#000000" fill-rule="nonzero" fill-opacity="1" /><path clip-path="url(#clip210)" d="M105.719 1026.92 L122.038 1026.92 L122.038 1030.85 L100.094 1030.85 L100.094 1026.92 Q102.756 1024.16 107.339 1019.53 Q111.946 1014.88 113.126 1013.54 Q115.372 1011.01 116.251 1009.28 Q117.154 1007.52 117.154 1005.83 Q117.154 1003.07 115.21 1001.34 Q113.288 999.601 110.186 999.601 Q107.987 999.601 105.534 1000.36 Q103.103 1001.13 100.325 1002.68 L100.325 997.957 Q103.149 996.823 105.603 996.244 Q108.057 995.666 110.094 995.666 Q115.464 995.666 118.659 998.351 Q121.853 1001.04 121.853 1005.53 Q121.853 1007.66 121.043 1009.58 Q120.256 1011.48 118.149 1014.07 Q117.571 1014.74 114.469 1017.96 Q111.367 1021.15 105.719 1026.92 Z" fill="#000000" fill-rule="nonzero" fill-opacity="1" /><path clip-path="url(#clip210)" d="M65.5108 811.93 Q61.8997 811.93 60.071 815.495 Q58.2654 819.037 58.2654 826.166 Q58.2654 833.273 60.071 836.837 Q61.8997 840.379 65.5108 840.379 Q69.145 840.379 70.9505 836.837 Q72.7792 833.273 72.7792 826.166 Q72.7792 819.037 70.9505 815.495 Q69.145 811.93 65.5108 811.93 M65.5108 808.227 Q71.3209 808.227 74.3765 812.833 Q77.4551 817.416 77.4551 826.166 Q77.4551 834.893 74.3765 839.5 Q71.3209 844.083 65.5108 844.083 Q59.7006 844.083 56.6219 839.5 Q53.5664 834.893 53.5664 826.166 Q53.5664 817.416 56.6219 812.833 Q59.7006 808.227 65.5108 808.227 Z" fill="#000000" fill-rule="nonzero" fill-opacity="1" /><path clip-path="url(#clip210)" d="M85.6727 837.532 L90.5569 837.532 L90.5569 843.412 L85.6727 843.412 L85.6727 837.532 Z" fill="#000000" fill-rule="nonzero" fill-opacity="1" /><path clip-path="url(#clip210)" d="M114.909 824.777 Q118.265 825.495 120.14 827.763 Q122.038 830.032 122.038 833.365 Q122.038 838.481 118.52 841.282 Q115.001 844.083 108.52 844.083 Q106.344 844.083 104.029 843.643 Q101.737 843.226 99.2837 842.37 L99.2837 837.856 Q101.228 838.99 103.543 839.569 Q105.858 840.148 108.381 840.148 Q112.779 840.148 115.071 838.412 Q117.385 836.675 117.385 833.365 Q117.385 830.31 115.233 828.597 Q113.103 826.861 109.284 826.861 L105.256 826.861 L105.256 823.018 L109.469 823.018 Q112.918 823.018 114.747 821.652 Q116.575 820.263 116.575 817.671 Q116.575 815.009 114.677 813.597 Q112.802 812.162 109.284 812.162 Q107.362 812.162 105.163 812.578 Q102.964 812.995 100.325 813.875 L100.325 809.708 Q102.987 808.967 105.302 808.597 Q107.64 808.227 109.7 808.227 Q115.024 808.227 118.126 810.657 Q121.228 813.064 121.228 817.185 Q121.228 820.055 119.585 822.046 Q117.941 824.013 114.909 824.777 Z" fill="#000000" fill-rule="nonzero" fill-opacity="1" /><path clip-path="url(#clip210)" d="M64.3765 624.491 Q60.7654 624.491 58.9367 628.056 Q57.1312 631.598 57.1312 638.727 Q57.1312 645.834 58.9367 649.398 Q60.7654 652.94 64.3765 652.94 Q68.0107 652.94 69.8163 649.398 Q71.645 645.834 71.645 638.727 Q71.645 631.598 69.8163 628.056 Q68.0107 624.491 64.3765 624.491 M64.3765 620.787 Q70.1867 620.787 73.2422 625.394 Q76.3209 629.977 76.3209 638.727 Q76.3209 647.454 73.2422 652.06 Q70.1867 656.644 64.3765 656.644 Q58.5664 656.644 55.4877 652.06 Q52.4321 647.454 52.4321 638.727 Q52.4321 629.977 55.4877 625.394 Q58.5664 620.787 64.3765 620.787 Z" fill="#000000" fill-rule="nonzero" fill-opacity="1" /><path clip-path="url(#clip210)" d="M84.5384 650.093 L89.4227 650.093 L89.4227 655.972 L84.5384 655.972 L84.5384 650.093 Z" fill="#000000" fill-rule="nonzero" fill-opacity="1" /><path clip-path="url(#clip210)" d="M112.455 625.486 L100.649 643.935 L112.455 643.935 L112.455 625.486 M111.228 621.412 L117.108 621.412 L117.108 643.935 L122.038 643.935 L122.038 647.824 L117.108 647.824 L117.108 655.972 L112.455 655.972 L112.455 647.824 L96.8532 647.824 L96.8532 643.31 L111.228 621.412 Z" fill="#000000" fill-rule="nonzero" fill-opacity="1" /><path clip-path="url(#clip210)" d="M65.858 437.052 Q62.2469 437.052 60.4182 440.617 Q58.6126 444.158 58.6126 451.288 Q58.6126 458.394 60.4182 461.959 Q62.2469 465.501 65.858 465.501 Q69.4922 465.501 71.2978 461.959 Q73.1265 458.394 73.1265 451.288 Q73.1265 444.158 71.2978 440.617 Q69.4922 437.052 65.858 437.052 M65.858 433.348 Q71.6681 433.348 74.7237 437.955 Q77.8024 442.538 77.8024 451.288 Q77.8024 460.015 74.7237 464.621 Q71.6681 469.205 65.858 469.205 Q60.0478 469.205 56.9691 464.621 Q53.9136 460.015 53.9136 451.288 Q53.9136 442.538 56.9691 437.955 Q60.0478 433.348 65.858 433.348 Z" fill="#000000" fill-rule="nonzero" fill-opacity="1" /><path clip-path="url(#clip210)" d="M86.0199 462.654 L90.9041 462.654 L90.9041 468.533 L86.0199 468.533 L86.0199 462.654 Z" fill="#000000" fill-rule="nonzero" fill-opacity="1" /><path clip-path="url(#clip210)" d="M101.136 433.973 L119.492 433.973 L119.492 437.908 L105.418 437.908 L105.418 446.381 Q106.436 446.033 107.455 445.871 Q108.473 445.686 109.492 445.686 Q115.279 445.686 118.659 448.857 Q122.038 452.029 122.038 457.445 Q122.038 463.024 118.566 466.126 Q115.094 469.205 108.774 469.205 Q106.599 469.205 104.33 468.834 Q102.085 468.464 99.6772 467.723 L99.6772 463.024 Q101.761 464.158 103.983 464.714 Q106.205 465.269 108.682 465.269 Q112.686 465.269 115.024 463.163 Q117.362 461.056 117.362 457.445 Q117.362 453.834 115.024 451.728 Q112.686 449.621 108.682 449.621 Q106.807 449.621 104.932 450.038 Q103.08 450.455 101.136 451.334 L101.136 433.973 Z" fill="#000000" fill-rule="nonzero" fill-opacity="1" /><path clip-path="url(#clip210)" d="M64.7006 249.613 Q61.0895 249.613 59.2608 253.178 Q57.4552 256.719 57.4552 263.849 Q57.4552 270.955 59.2608 274.52 Q61.0895 278.062 64.7006 278.062 Q68.3348 278.062 70.1404 274.52 Q71.9691 270.955 71.9691 263.849 Q71.9691 256.719 70.1404 253.178 Q68.3348 249.613 64.7006 249.613 M64.7006 245.909 Q70.5107 245.909 73.5663 250.516 Q76.645 255.099 76.645 263.849 Q76.645 272.576 73.5663 277.182 Q70.5107 281.765 64.7006 281.765 Q58.8904 281.765 55.8117 277.182 Q52.7562 272.576 52.7562 263.849 Q52.7562 255.099 55.8117 250.516 Q58.8904 245.909 64.7006 245.909 Z" fill="#000000" fill-rule="nonzero" fill-opacity="1" /><path clip-path="url(#clip210)" d="M84.8625 275.215 L89.7467 275.215 L89.7467 281.094 L84.8625 281.094 L84.8625 275.215 Z" fill="#000000" fill-rule="nonzero" fill-opacity="1" /><path clip-path="url(#clip210)" d="M110.511 261.951 Q107.362 261.951 105.511 264.104 Q103.682 266.256 103.682 270.006 Q103.682 273.733 105.511 275.909 Q107.362 278.062 110.511 278.062 Q113.659 278.062 115.487 275.909 Q117.339 273.733 117.339 270.006 Q117.339 266.256 115.487 264.104 Q113.659 261.951 110.511 261.951 M119.793 247.298 L119.793 251.557 Q118.034 250.724 116.228 250.284 Q114.446 249.844 112.686 249.844 Q108.057 249.844 105.603 252.969 Q103.173 256.094 102.825 262.414 Q104.191 260.4 106.251 259.335 Q108.311 258.247 110.788 258.247 Q115.997 258.247 119.006 261.418 Q122.038 264.566 122.038 270.006 Q122.038 275.33 118.89 278.548 Q115.742 281.765 110.511 281.765 Q104.515 281.765 101.344 277.182 Q98.1726 272.576 98.1726 263.849 Q98.1726 255.654 102.061 250.793 Q105.95 245.909 112.501 245.909 Q114.26 245.909 116.043 246.256 Q117.848 246.604 119.793 247.298 Z" fill="#000000" fill-rule="nonzero" fill-opacity="1" /><path clip-path="url(#clip210)" d="M65.7654 62.1737 Q62.1543 62.1737 60.3256 65.7385 Q58.5201 69.2802 58.5201 76.4098 Q58.5201 83.5162 60.3256 87.081 Q62.1543 90.6227 65.7654 90.6227 Q69.3996 90.6227 71.2052 87.081 Q73.0339 83.5162 73.0339 76.4098 Q73.0339 69.2802 71.2052 65.7385 Q69.3996 62.1737 65.7654 62.1737 M65.7654 58.47 Q71.5755 58.47 74.6311 63.0765 Q77.7098 67.6598 77.7098 76.4098 Q77.7098 85.1366 74.6311 89.743 Q71.5755 94.3263 65.7654 94.3263 Q59.9552 94.3263 56.8765 89.743 Q53.821 85.1366 53.821 76.4098 Q53.821 67.6598 56.8765 63.0765 Q59.9552 58.47 65.7654 58.47 Z" fill="#000000" fill-rule="nonzero" fill-opacity="1" /><path clip-path="url(#clip210)" d="M85.9273 87.7754 L90.8115 87.7754 L90.8115 93.655 L85.9273 93.655 L85.9273 87.7754 Z" fill="#000000" fill-rule="nonzero" fill-opacity="1" /><path clip-path="url(#clip210)" d="M99.8161 59.095 L122.038 59.095 L122.038 61.0858 L109.492 93.655 L104.608 93.655 L116.413 63.0302 L99.8161 63.0302 L99.8161 59.095 Z" fill="#000000" fill-rule="nonzero" fill-opacity="1" /><polyline clip-path="url(#clip212)" style="stroke:#000000; stroke-linecap:round; stroke-linejoin:round; stroke-width:4; stroke-opacity:1; fill:none" points="207.804,1200.97 209.609,1200.69 211.414,1200.12 213.218,1199.83 215.023,1199.36 216.828,1198.54 218.632,1197.91 220.437,1197.37 222.242,1196.4 224.046,1195.95 225.851,1195.24 227.656,1194.75 229.46,1194.04 231.265,1193.52 233.07,1193.38 234.874,1192.55 236.679,1192 238.484,1191.46 240.288,1191.19 242.093,1190.48 243.898,1190.09 245.702,1189.6 247.507,1189.24 249.312,1188.5 251.116,1187.82 252.921,1187.27 254.726,1186.76 256.53,1186.11 258.335,1185.48 260.14,1185.06 261.944,1184.6 263.749,1183.75 265.554,1183.22 267.358,1182.55 269.163,1182.16 270.968,1181.57 272.772,1180.62 274.577,1180.05 276.382,1179.38 278.186,1178.84 279.991,1178.39 281.796,1177.67 283.6,1176.95 285.405,1176.68 287.21,1176.44 289.014,1175.76 290.819,1175.56 292.624,1175.09 294.428,1174.49 296.233,1174.38 298.038,1173.81 299.842,1173.19 301.647,1172.51 303.452,1171.93 305.256,1171.42 307.061,1171.13 308.866,1170.78 310.67,1170.21 312.475,1169.4 314.28,1168.69 316.084,1168.06 317.889,1167.29 319.694,1166.78 321.498,1166.13 323.303,1166.08 325.108,1165.28 326.912,1164.33 328.717,1163.91 330.522,1163.06 332.326,1162.78 334.131,1162.27 335.936,1161.55 337.74,1160.85 339.545,1160.01 341.35,1159.28 343.154,1158.84 344.959,1158.55 346.764,1157.94 348.568,1157.04 350.373,1156.45 352.178,1155.59 353.983,1154.85 355.787,1154.28 357.592,1153.5 359.397,1152.76 361.201,1152.09 363.006,1151.38 364.811,1150.66 366.615,1149.87 368.42,1148.7 370.225,1147.99 372.029,1147.43 373.834,1146.53 375.639,1146.12 377.443,1145.62 379.248,1144.86 381.053,1144.22 382.857,1143.58 384.662,1142.97 386.467,1142.36 388.271,1142.13 390.076,1141.59 391.881,1141.12 393.685,1140.41 395.49,1139.93 397.295,1138.84 399.099,1138.25 400.904,1137.11 402.709,1136.15 404.513,1135.57 406.318,1134.86 408.123,1133.9 409.927,1133.59 411.732,1132.8 413.537,1132.11 415.341,1131.4 417.146,1130.53 418.951,1130.2 420.755,1129.63 422.56,1129 424.365,1128.47 426.169,1127.86 427.974,1127.36 429.779,1126.73 431.583,1125.96 433.388,1125.55 435.193,1124.45 436.997,1123.81 438.802,1123.05 440.607,1122.15 442.411,1121.24 444.216,1120.23 446.021,1119.13 447.825,1118.48 449.63,1117.87 451.435,1117.49 453.239,1117.03 455.044,1116.1 456.849,1115.33 458.653,1114.35 460.458,1113.82 462.263,1113.33 464.067,1112.62 465.872,1111.72 467.677,1111.31 469.481,1110.51 471.286,1109.85 473.091,1109.05 474.895,1108.62 476.7,1107.54 478.505,1107.19 480.309,1106.23 482.114,1105.29 483.919,1104.53 485.723,1104.37 487.528,1103.61 489.333,1103.06 491.137,1102.2 492.942,1101.36 494.747,1100.53 496.551,1100.03 498.356,1099.13 500.161,1098.4 501.965,1097.92 503.77,1097.34 505.575,1096.87 507.379,1095.95 509.184,1095.12 510.989,1093.9 512.794,1093.62 514.598,1092.68 516.403,1091.78 518.208,1090.97 520.012,1089.88 521.817,1089.39 523.622,1088.6 525.426,1087.76 527.231,1086.67 529.036,1085.85 530.84,1085.12 532.645,1084.43 534.45,1083.53 536.254,1082.56 538.059,1081.64 539.864,1080.6 541.668,1079.14 543.473,1078.56 545.278,1077.85 547.082,1076.76 548.887,1076 550.692,1075.38 552.496,1074.6 554.301,1073.85 556.106,1072.66 557.91,1072.01 559.715,1071.11 561.52,1070.34 563.324,1069.2 565.129,1068.3 566.934,1067.71 568.738,1067.17 570.543,1066.26 572.348,1065.39 574.152,1064.54 575.957,1063.34 577.762,1062.38 579.566,1061.42 581.371,1060.45 583.176,1059.73 584.98,1058.76 586.785,1057.74 588.59,1056.58 590.394,1055.97 592.199,1055.03 594.004,1054.31 595.808,1053.41 597.613,1052.72 599.418,1051.83 601.222,1050.95 603.027,1050.12 604.832,1049.37 606.636,1048.37 608.441,1047.79 610.246,1046.64 612.05,1045.54 613.855,1044.51 615.66,1043.68 617.464,1042.79 619.269,1042.36 621.074,1041.42 622.878,1040.98 624.683,1040.42 626.488,1039.09 628.292,1038.26 630.097,1037.57 631.902,1037.13 633.706,1036.18 635.511,1035.42 637.316,1034.81 639.12,1033.91 640.925,1033.29 642.73,1032.43 644.534,1031.77 646.339,1030.94 648.144,1030.09 649.948,1029.07 651.753,1028.48 653.558,1027.66 655.362,1027.16 657.167,1026.19 658.972,1025.22 660.776,1024.2 662.581,1023.26 664.386,1022.48 666.19,1021.55 667.995,1020.85 669.8,1020.12 671.604,1019.55 673.409,1018.17 675.214,1016.73 677.019,1015.42 678.823,1013.94 680.628,1012.96 682.433,1012.2 684.237,1010.9 686.042,1010.4 687.847,1009.44 689.651,1008.17 691.456,1007.62 693.261,1006.12 695.065,1005.21 696.87,1003.93 698.675,1002.77 700.479,1002.06 702.284,1001.22 704.089,1000.78 705.893,999.719 707.698,998.664 709.503,997.789 711.307,997.079 713.112,995.99 714.917,995.094 716.721,994.506 718.526,993.519 720.331,992.325 722.135,991.149 723.94,989.946 725.745,988.835 727.549,987.942 729.354,987.244 731.159,986.49 732.963,985.587 734.768,984.603 736.573,983.908 738.377,983.252 740.182,982.632 741.987,981.104 743.791,980.169 745.596,979.448 747.401,978.388 749.205,977.078 751.01,975.91 752.815,974.928 754.619,973.784 756.424,972.58 758.229,971.569 760.033,970.285 761.838,969.571 763.643,968.519 765.447,967.386 767.252,966.535 769.057,965.499 770.861,964.12 772.666,963.124 774.471,962.243 776.275,961.097 778.08,960.507 779.885,959.347 781.689,958.317 783.494,957.487 785.299,956.536 787.103,955.588 788.908,954.653 790.713,953.294 792.517,952.058 794.322,951.202 796.127,950.096 797.931,949.254 799.736,947.952 801.541,946.741 803.345,945.698 805.15,944.425 806.955,943.057 808.759,942.167 810.564,941.369 812.369,940.104 814.173,938.779 815.978,938.311 817.783,936.984 819.587,936.176 821.392,935.509 823.197,934.375 825.001,933.646 826.806,932.639 828.611,931.503 830.415,930.89 832.22,929.504 834.025,928.138 835.83,926.898 837.634,925.64 839.439,924.322 841.244,923.411 843.048,922.45 844.853,921.784 846.658,920.059 848.462,918.693 850.267,917.582 852.072,916.984 853.876,916.02 855.681,914.931 857.486,913.471 859.29,912.565 861.095,911.359 862.9,910.207 864.704,909.495 866.509,907.893 868.314,907.305 870.118,906.731 871.923,905.729 873.728,904.465 875.532,903.4 877.337,902.449 879.142,901.504 880.946,900.277 882.751,899.249 884.556,897.774 886.36,896.506 888.165,895.162 889.97,894.195 891.774,893.618 893.579,893.16 895.384,892.036 897.188,890.826 898.993,889.78 900.798,888.927 902.602,887.973 904.407,886.986 906.212,886.047 908.016,885.024 909.821,883.745 911.626,882.438 913.43,881.186 915.235,879.988 917.04,878.818 918.844,877.541 920.649,876.305 922.454,875.332 924.258,874.154 926.063,873.157 927.868,872.879 929.672,871.917 931.477,870.606 933.282,869.878 935.086,868.352 936.891,866.848 938.696,865.577 940.5,864.426 942.305,863.188 944.11,862.551 945.914,861.357 947.719,860.083 949.524,859.111 951.328,857.508 953.133,856.098 954.938,855.125 956.742,853.713 958.547,852.929 960.352,851.672 962.156,849.743 963.961,848.772 965.766,847.205 967.57,845.986 969.375,845.121 971.18,844.05 972.984,843.008 974.789,841.617 976.594,840.686 978.398,839.506 980.203,838.515 982.008,837.475 983.812,836.934 985.617,835.489 987.422,834.105 989.226,833.083 991.031,832.446 992.836,831.264 994.64,829.84 996.445,829.064 998.25,827.91 1000.05,827.037 1001.86,825.944 1003.66,825.198 1005.47,823.425 1007.27,822.76 1009.08,821.99 1010.88,820.711 1012.69,819.46 1014.49,818.068 1016.3,816.988 1018.1,815.691 1019.91,814.512 1021.71,813.822 1023.52,812.731 1025.32,811.497 1027.12,810.456 1028.93,809.345 1030.73,807.994 1032.54,807.071 1034.34,806.172 1036.15,805.131 1037.95,804.248 1039.76,802.657 1041.56,801.378 1043.37,800.373 1045.17,799.191 1046.98,797.687 1048.78,796.444 1050.59,794.966 1052.39,794.012 1054.19,792.82 1056,791.762 1057.8,790.236 1059.61,788.833 1061.41,787.85 1063.22,787.303 1065.02,786.122 1066.83,784.679 1068.63,783.409 1070.44,782.514 1072.24,781.212 1074.05,780.493 1075.85,779.301 1077.66,778.411 1079.46,777.307 1081.26,776.312 1083.07,775.277 1084.87,774.053 1086.68,772.785 1088.48,771.625 1090.29,770.062 1092.09,768.928 1093.9,767.11 1095.7,765.447 1097.51,764.376 1099.31,763.357 1101.12,762.141 1102.92,761.011 1104.73,759.558 1106.53,758.564 1108.33,757.059 1110.14,755.682 1111.94,754.368 1113.75,753.009 1115.55,751.353 1117.36,750.124 1119.16,748.142 1120.97,746.738 1122.77,745.387 1124.58,744.125 1126.38,743.075 1128.19,741.396 1129.99,739.358 1131.8,737.997 1133.6,736.691 1135.4,735.131 1137.21,733.461 1139.01,731.904 1140.82,730.971 1142.62,729.79 1144.43,728.557 1146.23,726.908 1148.04,725.692 1149.84,724.625 1151.65,723.21 1153.45,721.806 1155.26,720.115 1157.06,719.242 1158.87,717.697 1160.67,716.259 1162.47,714.549 1164.28,713.288 1166.08,712.204 1167.89,710.809 1169.69,709.466 1171.5,707.937 1173.3,706.948 1175.11,705.769 1176.91,704.501 1178.72,703.082 1180.52,702.019 1182.33,700.443 1184.13,699.154 1185.94,698.086 1187.74,696.788 1189.54,695.574 1191.35,694.406 1193.15,693.49 1194.96,692.252 1196.76,690.825 1198.57,689.175 1200.37,687.412 1202.18,685.753 1203.98,684.151 1205.79,683.229 1207.59,681.824 1209.4,680.164 1211.2,678.84 1213.01,677.912 1214.81,676.389 1216.61,674.727 1218.42,673.76 1220.22,672.611 1222.03,671.687 1223.83,670.196 1225.64,668.816 1227.44,667.831 1229.25,666.8 1231.05,665.202 1232.86,663.725 1234.66,662.377 1236.47,661.001 1238.27,659.481 1240.08,657.977 1241.88,656.444 1243.69,654.847 1245.49,653.151 1247.29,651.462 1249.1,650.26 1250.9,648.882 1252.71,647.438 1254.51,646.14 1256.32,645.025 1258.12,643.573 1259.93,642.429 1261.73,640.614 1263.54,639.121 1265.34,637.197 1267.15,636.19 1268.95,635.016 1270.76,633.695 1272.56,632.482 1274.36,630.741 1276.17,629.541 1277.97,628.509 1279.78,627.104 1281.58,625.953 1283.39,624.451 1285.19,622.777 1287,621.348 1288.8,619.616 1290.61,618.045 1292.41,616.638 1294.22,615.683 1296.02,614.549 1297.83,612.816 1299.63,611.339 1301.43,610.01 1303.24,608.764 1305.04,607.565 1306.85,606.486 1308.65,605.248 1310.46,603.672 1312.26,602.263 1314.07,600.468 1315.87,598.865 1317.68,597.373 1319.48,596.299 1321.29,594.851 1323.09,593.155 1324.9,591.864 1326.7,590.213 1328.5,588.944 1330.31,587.483 1332.11,585.712 1333.92,584.407 1335.72,582.882 1337.53,581.071 1339.33,579.677 1341.14,578.162 1342.94,576.461 1344.75,574.826 1346.55,573.997 1348.36,572.28 1350.16,571.17 1351.97,569.953 1353.77,568.419 1355.57,567.397 1357.38,566.294 1359.18,564.728 1360.99,563.17 1362.79,562.552 1364.6,561.243 1366.4,560.073 1368.21,559.077 1370.01,557.997 1371.82,556.902 1373.62,555.297 1375.43,553.857 1377.23,552.194 1379.04,550.799 1380.84,548.933 1382.64,547.701 1384.45,546.282 1386.25,544.81 1388.06,543.371 1389.86,542.074 1391.67,540.328 1393.47,538.478 1395.28,536.999 1397.08,536.345 1398.89,534.756 1400.69,533.278 1402.5,531.607 1404.3,530.485 1406.11,529.374 1407.91,527.772 1409.71,526.259 1411.52,525.093 1413.32,523.888 1415.13,522.512 1416.93,521.152 1418.74,519.929 1420.54,518.735 1422.35,516.986 1424.15,515.524 1425.96,514.464 1427.76,513.136 1429.57,511.547 1431.37,509.771 1433.18,508.142 1434.98,506.952 1436.78,505.225 1438.59,504.024 1440.39,502.554 1442.2,501.02 1444,500.134 1445.81,498.838 1447.61,497.764 1449.42,496.369 1451.22,495.48 1453.03,494.244 1454.83,492.863 1456.64,491.064 1458.44,489.165 1460.25,487.992 1462.05,486.615 1463.85,485.273 1465.66,483.59 1467.46,482.041 1469.27,480.41 1471.07,478.617 1472.88,476.864 1474.68,475.626 1476.49,474.56 1478.29,473.117 1480.1,471.345 1481.9,470.419 1483.71,469.066 1485.51,467.679 1487.32,466.149 1489.12,464.664 1490.92,463.436 1492.73,462.429 1494.53,461.047 1496.34,459.5 1498.14,458.15 1499.95,456.879 1501.75,456.026 1503.56,454.591 1505.36,453.117 1507.17,452.214 1508.97,450.376 1510.78,448.72 1512.58,447.314 1514.39,446.094 1516.19,444.705 1517.99,443.307 1519.8,442.083 1521.6,440.492 1523.41,438.459 1525.21,436.972 1527.02,435.087 1528.82,433.714 1530.63,432.461 1532.43,430.6 1534.24,429.113 1536.04,427.551 1537.85,426.56 1539.65,425.154 1541.46,423.502 1543.26,422.313 1545.06,420.51 1546.87,419.527 1548.67,417.969 1550.48,416.367 1552.28,415.042 1554.09,413.426 1555.89,411.779 1557.7,410.32 1559.5,409.008 1561.31,407.668 1563.11,406.388 1564.92,404.812 1566.72,403.278 1568.53,401.968 1570.33,400.675 1572.14,399.348 1573.94,398.225 1575.74,397.219 1577.55,395.969 1579.35,394.776 1581.16,392.995 1582.96,391.379 1584.77,390.303 1586.57,389.015 1588.38,387.756 1590.18,386.479 1591.99,384.927 1593.79,383.366 1595.6,381.66 1597.4,380.025 1599.21,378.685 1601.01,377.265 1602.81,375.53 1604.62,373.599 1606.42,372.559 1608.23,371.338 1610.03,370.157 1611.84,368.808 1613.64,367.526 1615.45,366.272 1617.25,364.754 1619.06,363.196 1620.86,361.745 1622.67,360.202 1624.47,358.05 1626.28,356.789 1628.08,355.536 1629.88,354.166 1631.69,353.251 1633.49,351.282 1635.3,349.917 1637.1,348.591 1638.91,347.14 1640.71,345.215 1642.52,343.974 1644.32,342.515 1646.13,341.436 1647.93,341.281 1649.74,339.946 1651.54,338.771 1653.35,337.571 1655.15,335.937 1656.95,334.08 1658.76,332.453 1660.56,331.476 1662.37,330.145 1664.17,328.638 1665.98,327.4 1667.78,326.501 1669.59,325.171 1671.39,324.161 1673.2,322.876 1675,321.364 1676.81,320.163 1678.61,318.862 1680.42,317.742 1682.22,316.243 1684.02,315.041 1685.83,313.619 1687.63,312.34 1689.44,310.14 1691.24,308.628 1693.05,307.719 1694.85,306.667 1696.66,304.783 1698.46,303.433 1700.27,301.523 1702.07,300.371 1703.88,298.987 1705.68,297.178 1707.49,296.428 1709.29,295.404 1711.09,294.024 1712.9,292.447 1714.7,291.132 1716.51,289.912 1718.31,288.36 1720.12,287.576 1721.92,286.642 1723.73,284.832 1725.53,283.745 1727.34,281.967 1729.14,280.884 1730.95,279.707 1732.75,278.818 1734.56,277.114 1736.36,275.37 1738.16,274.631 1739.97,273.391 1741.77,272.313 1743.58,270.635 1745.38,269.418 1747.19,268.536 1748.99,267.003 1750.8,265.38 1752.6,263.984 1754.41,263.191 1756.21,261.595 1758.02,260.454 1759.82,258.789 1761.63,257.362 1763.43,255.931 1765.23,254.754 1767.04,253.103 1768.84,251.401 1770.65,250.279 1772.45,249.306 1774.26,247.817 1776.06,246.755 1777.87,245.296 1779.67,243.71 1781.48,242.372 1783.28,241.22 1785.09,239.741 1786.89,238.598 1788.7,237.259 1790.5,236.04 1792.3,234.63 1794.11,233.28 1795.91,232.087 1797.72,231.081 1799.52,229.737 1801.33,227.897 1803.13,226.659 1804.94,225.145 1806.74,223.672 1808.55,222.328 1810.35,220.718 1812.16,218.629 1813.96,217.521 1815.77,216.351 1817.57,215.462 1819.37,214.088 1821.18,212.437 1822.98,211.44 1824.79,209.921 1826.59,208.579 1828.4,207.099 1830.2,205.697 1832.01,204.449 1833.81,203.109 1835.62,202.027 1837.42,200.436 1839.23,199.073 1841.03,197.754 1842.84,196.256 1844.64,194.879 1846.44,193.321 1848.25,191.874 1850.05,190.476 1851.86,188.789 1853.66,187.49 1855.47,186.457 1857.27,184.847 1859.08,183.423 1860.88,181.966 1862.69,180.653 1864.49,179.265 1866.3,177.919 1868.1,176.926 1869.91,175.452 1871.71,173.708 1873.51,172.391 1875.32,171.521 1877.12,170.282 1878.93,168.784 1880.73,167.554 1882.54,166.623 1884.34,165.872 1886.15,164.778 1887.95,163.835 1889.76,162.637 1891.56,161.566 1893.37,160.808 1895.17,159.522 1896.98,158.115 1898.78,157.01 1900.59,155.861 1902.39,154.81 1904.19,153.689 1906,152.769 1907.8,152.142 1909.61,151.223 1911.41,150.107 1913.22,148.699 1915.02,147.36 1916.83,146.38 1918.63,145.166 1920.44,143.723 1922.24,142.079 1924.05,140.934 1925.85,139.876 1927.66,138.701 1929.46,137.346 1931.26,136.343 1933.07,134.932 1934.87,133.671 1936.68,132.72 1938.48,131.192 1940.29,129.618 1942.09,127.866 1943.9,126.83 1945.7,125.34 1947.51,123.675 1949.31,122.417 1951.12,120.869 1952.92,119.528 1954.73,118.836 1956.53,117.617 1958.33,116.502 1960.14,114.725 1961.94,113.555 1963.75,112.555 1965.55,111.667 1967.36,110.575 1969.16,109.32 1970.97,108.204 1972.77,106.991 1974.58,105.11 1976.38,103.806 1978.19,102.58 1979.99,101.001 1981.8,99.4838 1983.6,98.14 1985.4,97.0445 1987.21,96.5531 1989.01,95.2379 1990.82,94.0237 1992.62,93.0095 1994.43,91.7562 1996.23,90.7742 1998.04,89.7585 1999.84,88.5459 2001.65,87.616 2003.45,86.2918 2005.26,84.8334 2007.06,83.7424 2008.87,82.3953 2010.67,80.8479 "/>
</svg>
