<?xml version="1.0" encoding="utf-8"?>
<svg xmlns="http://www.w3.org/2000/svg" xmlns:xlink="http://www.w3.org/1999/xlink" width="528" height="336" viewBox="0 0 2112 1344">
<defs>
  <clipPath id="clip820">
    <rect x="0" y="0" width="2112" height="1344"/>
  </clipPath>
</defs>
<path clip-path="url(#clip820)" d="M0 1344 L2112 1344 L2112 0 L0 0  Z" fill="#ffffff" fill-rule="evenodd" fill-opacity="1"/>
<defs>
  <clipPath id="clip821">
    <rect x="422" y="0" width="1479" height="1344"/>
  </clipPath>
</defs>
<path clip-path="url(#clip820)" d="M153.718 1222.85 L2064.76 1222.85 L2064.76 47.2441 L153.718 47.2441  Z" fill="#ffffff" fill-rule="evenodd" fill-opacity="1"/>
<defs>
  <clipPath id="clip822">
    <rect x="153" y="47" width="1912" height="1177"/>
  </clipPath>
</defs>
<polyline clip-path="url(#clip822)" style="stroke:#000000; stroke-linecap:round; stroke-linejoin:round; stroke-width:2; stroke-opacity:0.1; fill:none" points="207.802,1222.85 207.802,47.2441 "/>
<polyline clip-path="url(#clip822)" style="stroke:#000000; stroke-linecap:round; stroke-linejoin:round; stroke-width:2; stroke-opacity:0.1; fill:none" points="658.97,1222.85 658.97,47.2441 "/>
<polyline clip-path="url(#clip822)" style="stroke:#000000; stroke-linecap:round; stroke-linejoin:round; stroke-width:2; stroke-opacity:0.1; fill:none" points="1110.14,1222.85 1110.14,47.2441 "/>
<polyline clip-path="url(#clip822)" style="stroke:#000000; stroke-linecap:round; stroke-linejoin:round; stroke-width:2; stroke-opacity:0.1; fill:none" points="1561.31,1222.85 1561.31,47.2441 "/>
<polyline clip-path="url(#clip822)" style="stroke:#000000; stroke-linecap:round; stroke-linejoin:round; stroke-width:2; stroke-opacity:0.1; fill:none" points="2012.47,1222.85 2012.47,47.2441 "/>
<polyline clip-path="url(#clip820)" style="stroke:#000000; stroke-linecap:round; stroke-linejoin:round; stroke-width:4; stroke-opacity:1; fill:none" points="153.718,1222.85 2064.76,1222.85 "/>
<polyline clip-path="url(#clip820)" style="stroke:#000000; stroke-linecap:round; stroke-linejoin:round; stroke-width:4; stroke-opacity:1; fill:none" points="207.802,1222.85 207.802,1203.96 "/>
<polyline clip-path="url(#clip820)" style="stroke:#000000; stroke-linecap:round; stroke-linejoin:round; stroke-width:4; stroke-opacity:1; fill:none" points="658.97,1222.85 658.97,1203.96 "/>
<polyline clip-path="url(#clip820)" style="stroke:#000000; stroke-linecap:round; stroke-linejoin:round; stroke-width:4; stroke-opacity:1; fill:none" points="1110.14,1222.85 1110.14,1203.96 "/>
<polyline clip-path="url(#clip820)" style="stroke:#000000; stroke-linecap:round; stroke-linejoin:round; stroke-width:4; stroke-opacity:1; fill:none" points="1561.31,1222.85 1561.31,1203.96 "/>
<polyline clip-path="url(#clip820)" style="stroke:#000000; stroke-linecap:round; stroke-linejoin:round; stroke-width:4; stroke-opacity:1; fill:none" points="2012.47,1222.85 2012.47,1203.96 "/>
<path clip-path="url(#clip820)" d="M207.802 1251.47 Q204.191 1251.47 202.363 1255.03 Q200.557 1258.58 200.557 1265.7 Q200.557 1272.81 202.363 1276.38 Q204.191 1279.92 207.802 1279.92 Q211.437 1279.92 213.242 1276.38 Q215.071 1272.81 215.071 1265.7 Q215.071 1258.58 213.242 1255.03 Q211.437 1251.47 207.802 1251.47 M207.802 1247.76 Q213.613 1247.76 216.668 1252.37 Q219.747 1256.95 219.747 1265.7 Q219.747 1274.43 216.668 1279.04 Q213.613 1283.62 207.802 1283.62 Q201.992 1283.62 198.914 1279.04 Q195.858 1274.43 195.858 1265.7 Q195.858 1256.95 198.914 1252.37 Q201.992 1247.76 207.802 1247.76 Z" fill="#000000" fill-rule="nonzero" fill-opacity="1" /><path clip-path="url(#clip820)" d="M556.021 1294.67 L572.34 1294.67 L572.34 1298.61 L550.396 1298.61 L550.396 1294.67 Q553.058 1291.92 557.641 1287.29 Q562.247 1282.64 563.428 1281.3 Q565.673 1278.77 566.553 1277.04 Q567.456 1275.28 567.456 1273.59 Q567.456 1270.83 565.511 1269.1 Q563.59 1267.36 560.488 1267.36 Q558.289 1267.36 555.835 1268.12 Q553.405 1268.89 550.627 1270.44 L550.627 1265.72 Q553.451 1264.58 555.905 1264 Q558.359 1263.42 560.396 1263.42 Q565.766 1263.42 568.96 1266.11 Q572.155 1268.8 572.155 1273.29 Q572.155 1275.42 571.345 1277.34 Q570.558 1279.24 568.451 1281.83 Q567.872 1282.5 564.771 1285.72 Q561.669 1288.91 556.021 1294.67 Z" fill="#000000" fill-rule="nonzero" fill-opacity="1" /><path clip-path="url(#clip820)" d="M582.155 1292.73 L587.039 1292.73 L587.039 1298.61 L582.155 1298.61 L582.155 1292.73 Z" fill="#000000" fill-rule="nonzero" fill-opacity="1" /><path clip-path="url(#clip820)" d="M597.27 1264.05 L615.627 1264.05 L615.627 1267.99 L601.553 1267.99 L601.553 1276.46 Q602.571 1276.11 603.59 1275.95 Q604.608 1275.76 605.627 1275.76 Q611.414 1275.76 614.793 1278.93 Q618.173 1282.11 618.173 1287.52 Q618.173 1293.1 614.701 1296.2 Q611.229 1299.28 604.909 1299.28 Q602.733 1299.28 600.465 1298.91 Q598.219 1298.54 595.812 1297.8 L595.812 1293.1 Q597.895 1294.23 600.118 1294.79 Q602.34 1295.35 604.817 1295.35 Q608.821 1295.35 611.159 1293.24 Q613.497 1291.13 613.497 1287.52 Q613.497 1283.91 611.159 1281.8 Q608.821 1279.7 604.817 1279.7 Q602.942 1279.7 601.067 1280.11 Q599.215 1280.53 597.27 1281.41 L597.27 1264.05 Z" fill="#000000" fill-rule="nonzero" fill-opacity="1" /><path clip-path="url(#clip820)" d="M637.386 1267.13 Q633.775 1267.13 631.946 1270.69 Q630.141 1274.24 630.141 1281.36 Q630.141 1288.47 631.946 1292.04 Q633.775 1295.58 637.386 1295.58 Q641.02 1295.58 642.826 1292.04 Q644.654 1288.47 644.654 1281.36 Q644.654 1274.24 642.826 1270.69 Q641.02 1267.13 637.386 1267.13 M637.386 1263.42 Q643.196 1263.42 646.252 1268.03 Q649.33 1272.61 649.33 1281.36 Q649.33 1290.09 646.252 1294.7 Q643.196 1299.28 637.386 1299.28 Q631.576 1299.28 628.497 1294.7 Q625.442 1290.09 625.442 1281.36 Q625.442 1272.61 628.497 1268.03 Q631.576 1263.42 637.386 1263.42 Z" fill="#000000" fill-rule="nonzero" fill-opacity="1" /><path clip-path="url(#clip820)" d="M685.719 1273.15 L675.14 1283.77 L685.719 1294.35 L682.964 1297.15 L672.339 1286.53 L661.714 1297.15 L658.983 1294.35 L669.539 1283.77 L658.983 1273.15 L661.714 1270.35 L672.339 1280.97 L682.964 1270.35 L685.719 1273.15 Z" fill="#000000" fill-rule="nonzero" fill-opacity="1" /><path clip-path="url(#clip820)" d="M698.08 1294.67 L705.719 1294.67 L705.719 1268.31 L697.409 1269.98 L697.409 1265.72 L705.673 1264.05 L710.348 1264.05 L710.348 1294.67 L717.987 1294.67 L717.987 1298.61 L698.08 1298.61 L698.08 1294.67 Z" fill="#000000" fill-rule="nonzero" fill-opacity="1" /><path clip-path="url(#clip820)" d="M737.432 1267.13 Q733.821 1267.13 731.992 1270.69 Q730.186 1274.24 730.186 1281.36 Q730.186 1288.47 731.992 1292.04 Q733.821 1295.58 737.432 1295.58 Q741.066 1295.58 742.871 1292.04 Q744.7 1288.47 744.7 1281.36 Q744.7 1274.24 742.871 1270.69 Q741.066 1267.13 737.432 1267.13 M737.432 1263.42 Q743.242 1263.42 746.297 1268.03 Q749.376 1272.61 749.376 1281.36 Q749.376 1290.09 746.297 1294.7 Q743.242 1299.28 737.432 1299.28 Q731.622 1299.28 728.543 1294.7 Q725.487 1290.09 725.487 1281.36 Q725.487 1272.61 728.543 1268.03 Q731.622 1263.42 737.432 1263.42 Z" fill="#000000" fill-rule="nonzero" fill-opacity="1" /><path clip-path="url(#clip820)" d="M750.561 1243.12 L765.476 1243.12 L765.476 1246.32 L754.04 1246.32 L754.04 1253.2 Q754.868 1252.92 755.695 1252.79 Q756.523 1252.64 757.351 1252.64 Q762.052 1252.64 764.798 1255.21 Q767.544 1257.79 767.544 1262.19 Q767.544 1266.72 764.723 1269.24 Q761.902 1271.74 756.768 1271.74 Q755 1271.74 753.156 1271.44 Q751.332 1271.14 749.376 1270.54 L749.376 1266.72 Q751.069 1267.64 752.874 1268.1 Q754.68 1268.55 756.692 1268.55 Q759.946 1268.55 761.846 1266.84 Q763.745 1265.12 763.745 1262.19 Q763.745 1259.26 761.846 1257.55 Q759.946 1255.83 756.692 1255.83 Q755.169 1255.83 753.645 1256.17 Q752.141 1256.51 750.561 1257.23 L750.561 1243.12 Z" fill="#000000" fill-rule="nonzero" fill-opacity="1" /><path clip-path="url(#clip820)" d="M1003.11 1264.05 L1021.47 1264.05 L1021.47 1267.99 L1007.4 1267.99 L1007.4 1276.46 Q1008.42 1276.11 1009.43 1275.95 Q1010.45 1275.76 1011.47 1275.76 Q1017.26 1275.76 1020.64 1278.93 Q1024.02 1282.11 1024.02 1287.52 Q1024.02 1293.1 1020.54 1296.2 Q1017.07 1299.28 1010.75 1299.28 Q1008.58 1299.28 1006.31 1298.91 Q1004.06 1298.54 1001.66 1297.8 L1001.66 1293.1 Q1003.74 1294.23 1005.96 1294.79 Q1008.18 1295.35 1010.66 1295.35 Q1014.67 1295.35 1017 1293.24 Q1019.34 1291.13 1019.34 1287.52 Q1019.34 1283.91 1017 1281.8 Q1014.67 1279.7 1010.66 1279.7 Q1008.79 1279.7 1006.91 1280.11 Q1005.06 1280.53 1003.11 1281.41 L1003.11 1264.05 Z" fill="#000000" fill-rule="nonzero" fill-opacity="1" /><path clip-path="url(#clip820)" d="M1033.23 1292.73 L1038.11 1292.73 L1038.11 1298.61 L1033.23 1298.61 L1033.23 1292.73 Z" fill="#000000" fill-rule="nonzero" fill-opacity="1" /><path clip-path="url(#clip820)" d="M1058.3 1267.13 Q1054.69 1267.13 1052.86 1270.69 Q1051.05 1274.24 1051.05 1281.36 Q1051.05 1288.47 1052.86 1292.04 Q1054.69 1295.58 1058.3 1295.58 Q1061.93 1295.58 1063.74 1292.04 Q1065.57 1288.47 1065.57 1281.36 Q1065.57 1274.24 1063.74 1270.69 Q1061.93 1267.13 1058.3 1267.13 M1058.3 1263.42 Q1064.11 1263.42 1067.16 1268.03 Q1070.24 1272.61 1070.24 1281.36 Q1070.24 1290.09 1067.16 1294.7 Q1064.11 1299.28 1058.3 1299.28 Q1052.49 1299.28 1049.41 1294.7 Q1046.35 1290.09 1046.35 1281.36 Q1046.35 1272.61 1049.41 1268.03 Q1052.49 1263.42 1058.3 1263.42 Z" fill="#000000" fill-rule="nonzero" fill-opacity="1" /><path clip-path="url(#clip820)" d="M1088.46 1267.13 Q1084.85 1267.13 1083.02 1270.69 Q1081.22 1274.24 1081.22 1281.36 Q1081.22 1288.47 1083.02 1292.04 Q1084.85 1295.58 1088.46 1295.58 Q1092.1 1295.58 1093.9 1292.04 Q1095.73 1288.47 1095.73 1281.36 Q1095.73 1274.24 1093.9 1270.69 Q1092.1 1267.13 1088.46 1267.13 M1088.46 1263.42 Q1094.27 1263.42 1097.33 1268.03 Q1100.41 1272.61 1100.41 1281.36 Q1100.41 1290.09 1097.33 1294.7 Q1094.27 1299.28 1088.46 1299.28 Q1082.65 1299.28 1079.57 1294.7 Q1076.52 1290.09 1076.52 1281.36 Q1076.52 1272.61 1079.57 1268.03 Q1082.65 1263.42 1088.46 1263.42 Z" fill="#000000" fill-rule="nonzero" fill-opacity="1" /><path clip-path="url(#clip820)" d="M1136.79 1273.15 L1126.22 1283.77 L1136.79 1294.35 L1134.04 1297.15 L1123.41 1286.53 L1112.79 1297.15 L1110.06 1294.35 L1120.61 1283.77 L1110.06 1273.15 L1112.79 1270.35 L1123.41 1280.97 L1134.04 1270.35 L1136.79 1273.15 Z" fill="#000000" fill-rule="nonzero" fill-opacity="1" /><path clip-path="url(#clip820)" d="M1149.16 1294.67 L1156.79 1294.67 L1156.79 1268.31 L1148.48 1269.98 L1148.48 1265.72 L1156.75 1264.05 L1161.42 1264.05 L1161.42 1294.67 L1169.06 1294.67 L1169.06 1298.61 L1149.16 1298.61 L1149.16 1294.67 Z" fill="#000000" fill-rule="nonzero" fill-opacity="1" /><path clip-path="url(#clip820)" d="M1188.51 1267.13 Q1184.9 1267.13 1183.07 1270.69 Q1181.26 1274.24 1181.26 1281.36 Q1181.26 1288.47 1183.07 1292.04 Q1184.9 1295.58 1188.51 1295.58 Q1192.14 1295.58 1193.95 1292.04 Q1195.78 1288.47 1195.78 1281.36 Q1195.78 1274.24 1193.95 1270.69 Q1192.14 1267.13 1188.51 1267.13 M1188.51 1263.42 Q1194.32 1263.42 1197.37 1268.03 Q1200.45 1272.61 1200.45 1281.36 Q1200.45 1290.09 1197.37 1294.7 Q1194.32 1299.28 1188.51 1299.28 Q1182.7 1299.28 1179.62 1294.7 Q1176.56 1290.09 1176.56 1281.36 Q1176.56 1272.61 1179.62 1268.03 Q1182.7 1263.42 1188.51 1263.42 Z" fill="#000000" fill-rule="nonzero" fill-opacity="1" /><path clip-path="url(#clip820)" d="M1201.64 1243.12 L1216.55 1243.12 L1216.55 1246.32 L1205.12 1246.32 L1205.12 1253.2 Q1205.94 1252.92 1206.77 1252.79 Q1207.6 1252.64 1208.43 1252.64 Q1213.13 1252.64 1215.87 1255.21 Q1218.62 1257.79 1218.62 1262.19 Q1218.62 1266.72 1215.8 1269.24 Q1212.98 1271.74 1207.84 1271.74 Q1206.07 1271.74 1204.23 1271.44 Q1202.41 1271.14 1200.45 1270.54 L1200.45 1266.72 Q1202.14 1267.64 1203.95 1268.1 Q1205.75 1268.55 1207.77 1268.55 Q1211.02 1268.55 1212.92 1266.84 Q1214.82 1265.12 1214.82 1262.19 Q1214.82 1259.26 1212.92 1257.55 Q1211.02 1255.83 1207.77 1255.83 Q1206.24 1255.83 1204.72 1256.17 Q1203.22 1256.51 1201.64 1257.23 L1201.64 1243.12 Z" fill="#000000" fill-rule="nonzero" fill-opacity="1" /><path clip-path="url(#clip820)" d="M1452.94 1264.05 L1475.16 1264.05 L1475.16 1266.04 L1462.62 1298.61 L1457.73 1298.61 L1469.54 1267.99 L1452.94 1267.99 L1452.94 1264.05 Z" fill="#000000" fill-rule="nonzero" fill-opacity="1" /><path clip-path="url(#clip820)" d="M1484.28 1292.73 L1489.17 1292.73 L1489.17 1298.61 L1484.28 1298.61 L1484.28 1292.73 Z" fill="#000000" fill-rule="nonzero" fill-opacity="1" /><path clip-path="url(#clip820)" d="M1499.4 1264.05 L1517.75 1264.05 L1517.75 1267.99 L1503.68 1267.99 L1503.68 1276.46 Q1504.7 1276.11 1505.72 1275.95 Q1506.74 1275.76 1507.75 1275.76 Q1513.54 1275.76 1516.92 1278.93 Q1520.3 1282.11 1520.3 1287.52 Q1520.3 1293.1 1516.83 1296.2 Q1513.36 1299.28 1507.04 1299.28 Q1504.86 1299.28 1502.59 1298.91 Q1500.35 1298.54 1497.94 1297.8 L1497.94 1293.1 Q1500.02 1294.23 1502.24 1294.79 Q1504.47 1295.35 1506.94 1295.35 Q1510.95 1295.35 1513.29 1293.24 Q1515.62 1291.13 1515.62 1287.52 Q1515.62 1283.91 1513.29 1281.8 Q1510.95 1279.7 1506.94 1279.7 Q1505.07 1279.7 1503.19 1280.11 Q1501.34 1280.53 1499.4 1281.41 L1499.4 1264.05 Z" fill="#000000" fill-rule="nonzero" fill-opacity="1" /><path clip-path="url(#clip820)" d="M1539.51 1267.13 Q1535.9 1267.13 1534.07 1270.69 Q1532.27 1274.24 1532.27 1281.36 Q1532.27 1288.47 1534.07 1292.04 Q1535.9 1295.58 1539.51 1295.58 Q1543.15 1295.58 1544.95 1292.04 Q1546.78 1288.47 1546.78 1281.36 Q1546.78 1274.24 1544.95 1270.69 Q1543.15 1267.13 1539.51 1267.13 M1539.51 1263.42 Q1545.32 1263.42 1548.38 1268.03 Q1551.46 1272.61 1551.46 1281.36 Q1551.46 1290.09 1548.38 1294.7 Q1545.32 1299.28 1539.51 1299.28 Q1533.7 1299.28 1530.62 1294.7 Q1527.57 1290.09 1527.57 1281.36 Q1527.57 1272.61 1530.62 1268.03 Q1533.7 1263.42 1539.51 1263.42 Z" fill="#000000" fill-rule="nonzero" fill-opacity="1" /><path clip-path="url(#clip820)" d="M1587.85 1273.15 L1577.27 1283.77 L1587.85 1294.35 L1585.09 1297.15 L1574.47 1286.53 L1563.84 1297.15 L1561.11 1294.35 L1571.67 1283.77 L1561.11 1273.15 L1563.84 1270.35 L1574.47 1280.97 L1585.09 1270.35 L1587.85 1273.15 Z" fill="#000000" fill-rule="nonzero" fill-opacity="1" /><path clip-path="url(#clip820)" d="M1600.21 1294.67 L1607.85 1294.67 L1607.85 1268.31 L1599.54 1269.98 L1599.54 1265.72 L1607.8 1264.05 L1612.48 1264.05 L1612.48 1294.67 L1620.11 1294.67 L1620.11 1298.61 L1600.21 1298.61 L1600.21 1294.67 Z" fill="#000000" fill-rule="nonzero" fill-opacity="1" /><path clip-path="url(#clip820)" d="M1639.56 1267.13 Q1635.95 1267.13 1634.12 1270.69 Q1632.31 1274.24 1632.31 1281.36 Q1632.31 1288.47 1634.12 1292.04 Q1635.95 1295.58 1639.56 1295.58 Q1643.19 1295.58 1645 1292.04 Q1646.83 1288.47 1646.83 1281.36 Q1646.83 1274.24 1645 1270.69 Q1643.19 1267.13 1639.56 1267.13 M1639.56 1263.42 Q1645.37 1263.42 1648.42 1268.03 Q1651.5 1272.61 1651.5 1281.36 Q1651.5 1290.09 1648.42 1294.7 Q1645.37 1299.28 1639.56 1299.28 Q1633.75 1299.28 1630.67 1294.7 Q1627.61 1290.09 1627.61 1281.36 Q1627.61 1272.61 1630.67 1268.03 Q1633.75 1263.42 1639.56 1263.42 Z" fill="#000000" fill-rule="nonzero" fill-opacity="1" /><path clip-path="url(#clip820)" d="M1652.69 1243.12 L1667.6 1243.12 L1667.6 1246.32 L1656.17 1246.32 L1656.17 1253.2 Q1656.99 1252.92 1657.82 1252.79 Q1658.65 1252.64 1659.48 1252.64 Q1664.18 1252.64 1666.93 1255.21 Q1669.67 1257.79 1669.67 1262.19 Q1669.67 1266.72 1666.85 1269.24 Q1664.03 1271.74 1658.89 1271.74 Q1657.13 1271.74 1655.28 1271.44 Q1653.46 1271.14 1651.5 1270.54 L1651.5 1266.72 Q1653.2 1267.64 1655 1268.1 Q1656.81 1268.55 1658.82 1268.55 Q1662.07 1268.55 1663.97 1266.84 Q1665.87 1265.12 1665.87 1262.19 Q1665.87 1259.26 1663.97 1257.55 Q1662.07 1255.83 1658.82 1255.83 Q1657.3 1255.83 1655.77 1256.17 Q1654.27 1256.51 1652.69 1257.23 L1652.69 1243.12 Z" fill="#000000" fill-rule="nonzero" fill-opacity="1" /><path clip-path="url(#clip820)" d="M1904.83 1294.67 L1912.47 1294.67 L1912.47 1268.31 L1904.16 1269.98 L1904.16 1265.72 L1912.42 1264.05 L1917.09 1264.05 L1917.09 1294.67 L1924.73 1294.67 L1924.73 1298.61 L1904.83 1298.61 L1904.83 1294.67 Z" fill="#000000" fill-rule="nonzero" fill-opacity="1" /><path clip-path="url(#clip820)" d="M1934.18 1292.73 L1939.06 1292.73 L1939.06 1298.61 L1934.18 1298.61 L1934.18 1292.73 Z" fill="#000000" fill-rule="nonzero" fill-opacity="1" /><path clip-path="url(#clip820)" d="M1959.25 1267.13 Q1955.64 1267.13 1953.81 1270.69 Q1952 1274.24 1952 1281.36 Q1952 1288.47 1953.81 1292.04 Q1955.64 1295.58 1959.25 1295.58 Q1962.88 1295.58 1964.69 1292.04 Q1966.52 1288.47 1966.52 1281.36 Q1966.52 1274.24 1964.69 1270.69 Q1962.88 1267.13 1959.25 1267.13 M1959.25 1263.42 Q1965.06 1263.42 1968.11 1268.03 Q1971.19 1272.61 1971.19 1281.36 Q1971.19 1290.09 1968.11 1294.7 Q1965.06 1299.28 1959.25 1299.28 Q1953.44 1299.28 1950.36 1294.7 Q1947.3 1290.09 1947.3 1281.36 Q1947.3 1272.61 1950.36 1268.03 Q1953.44 1263.42 1959.25 1263.42 Z" fill="#000000" fill-rule="nonzero" fill-opacity="1" /><path clip-path="url(#clip820)" d="M1989.41 1267.13 Q1985.8 1267.13 1983.97 1270.69 Q1982.16 1274.24 1982.16 1281.36 Q1982.16 1288.47 1983.97 1292.04 Q1985.8 1295.58 1989.41 1295.58 Q1993.04 1295.58 1994.85 1292.04 Q1996.68 1288.47 1996.68 1281.36 Q1996.68 1274.24 1994.85 1270.69 Q1993.04 1267.13 1989.41 1267.13 M1989.41 1263.42 Q1995.22 1263.42 1998.28 1268.03 Q2001.35 1272.61 2001.35 1281.36 Q2001.35 1290.09 1998.28 1294.7 Q1995.22 1299.28 1989.41 1299.28 Q1983.6 1299.28 1980.52 1294.7 Q1977.47 1290.09 1977.47 1281.36 Q1977.47 1272.61 1980.52 1268.03 Q1983.6 1263.42 1989.41 1263.42 Z" fill="#000000" fill-rule="nonzero" fill-opacity="1" /><path clip-path="url(#clip820)" d="M2037.74 1273.15 L2027.16 1283.77 L2037.74 1294.35 L2034.99 1297.15 L2024.36 1286.53 L2013.74 1297.15 L2011.01 1294.35 L2021.56 1283.77 L2011.01 1273.15 L2013.74 1270.35 L2024.36 1280.97 L2034.99 1270.35 L2037.74 1273.15 Z" fill="#000000" fill-rule="nonzero" fill-opacity="1" /><path clip-path="url(#clip820)" d="M2050.1 1294.67 L2057.74 1294.67 L2057.74 1268.31 L2049.43 1269.98 L2049.43 1265.72 L2057.7 1264.05 L2062.37 1264.05 L2062.37 1294.67 L2070.01 1294.67 L2070.01 1298.61 L2050.1 1298.61 L2050.1 1294.67 Z" fill="#000000" fill-rule="nonzero" fill-opacity="1" /><path clip-path="url(#clip820)" d="M2089.46 1267.13 Q2085.84 1267.13 2084.02 1270.69 Q2082.21 1274.24 2082.21 1281.36 Q2082.21 1288.47 2084.02 1292.04 Q2085.84 1295.58 2089.46 1295.58 Q2093.09 1295.58 2094.89 1292.04 Q2096.72 1288.47 2096.72 1281.36 Q2096.72 1274.24 2094.89 1270.69 Q2093.09 1267.13 2089.46 1267.13 M2089.46 1263.42 Q2095.27 1263.42 2098.32 1268.03 Q2101.4 1272.61 2101.4 1281.36 Q2101.4 1290.09 2098.32 1294.7 Q2095.27 1299.28 2089.46 1299.28 Q2083.65 1299.28 2080.57 1294.7 Q2077.51 1290.09 2077.51 1281.36 Q2077.51 1272.61 2080.57 1268.03 Q2083.65 1263.42 2089.46 1263.42 Z" fill="#000000" fill-rule="nonzero" fill-opacity="1" /><path clip-path="url(#clip820)" d="M2111.42 1255.65 Q2108.87 1255.65 2107.36 1257.39 Q2105.88 1259.14 2105.88 1262.19 Q2105.88 1265.22 2107.36 1266.99 Q2108.87 1268.74 2111.42 1268.74 Q2113.98 1268.74 2115.47 1266.99 Q2116.97 1265.22 2116.97 1262.19 Q2116.97 1259.14 2115.47 1257.39 Q2113.98 1255.65 2111.42 1255.65 M2118.97 1243.74 L2118.97 1247.2 Q2117.54 1246.52 2116.07 1246.17 Q2114.62 1245.81 2113.19 1245.81 Q2109.43 1245.81 2107.44 1248.35 Q2105.46 1250.89 2105.18 1256.02 Q2106.29 1254.39 2107.96 1253.52 Q2109.64 1252.64 2111.65 1252.64 Q2115.88 1252.64 2118.33 1255.21 Q2120.79 1257.77 2120.79 1262.19 Q2120.79 1266.52 2118.23 1269.13 Q2115.67 1271.74 2111.42 1271.74 Q2106.55 1271.74 2103.98 1268.02 Q2101.4 1264.28 2101.4 1257.19 Q2101.4 1250.53 2104.56 1246.58 Q2107.72 1242.61 2113.04 1242.61 Q2114.47 1242.61 2115.92 1242.89 Q2117.39 1243.18 2118.97 1243.74 Z" fill="#000000" fill-rule="nonzero" fill-opacity="1" /><polyline clip-path="url(#clip822)" style="stroke:#000000; stroke-linecap:round; stroke-linejoin:round; stroke-width:2; stroke-opacity:0.1; fill:none" points="153.718,1189.62 2064.76,1189.62 "/>
<polyline clip-path="url(#clip822)" style="stroke:#000000; stroke-linecap:round; stroke-linejoin:round; stroke-width:2; stroke-opacity:0.1; fill:none" points="153.718,1004.03 2064.76,1004.03 "/>
<polyline clip-path="url(#clip822)" style="stroke:#000000; stroke-linecap:round; stroke-linejoin:round; stroke-width:2; stroke-opacity:0.1; fill:none" points="153.718,818.44 2064.76,818.44 "/>
<polyline clip-path="url(#clip822)" style="stroke:#000000; stroke-linecap:round; stroke-linejoin:round; stroke-width:2; stroke-opacity:0.1; fill:none" points="153.718,632.852 2064.76,632.852 "/>
<polyline clip-path="url(#clip822)" style="stroke:#000000; stroke-linecap:round; stroke-linejoin:round; stroke-width:2; stroke-opacity:0.1; fill:none" points="153.718,447.264 2064.76,447.264 "/>
<polyline clip-path="url(#clip822)" style="stroke:#000000; stroke-linecap:round; stroke-linejoin:round; stroke-width:2; stroke-opacity:0.1; fill:none" points="153.718,261.676 2064.76,261.676 "/>
<polyline clip-path="url(#clip822)" style="stroke:#000000; stroke-linecap:round; stroke-linejoin:round; stroke-width:2; stroke-opacity:0.1; fill:none" points="153.718,76.0874 2064.76,76.0874 "/>
<polyline clip-path="url(#clip820)" style="stroke:#000000; stroke-linecap:round; stroke-linejoin:round; stroke-width:4; stroke-opacity:1; fill:none" points="153.718,1222.85 153.718,47.2441 "/>
<polyline clip-path="url(#clip820)" style="stroke:#000000; stroke-linecap:round; stroke-linejoin:round; stroke-width:4; stroke-opacity:1; fill:none" points="153.718,1189.62 172.616,1189.62 "/>
<polyline clip-path="url(#clip820)" style="stroke:#000000; stroke-linecap:round; stroke-linejoin:round; stroke-width:4; stroke-opacity:1; fill:none" points="153.718,1004.03 172.616,1004.03 "/>
<polyline clip-path="url(#clip820)" style="stroke:#000000; stroke-linecap:round; stroke-linejoin:round; stroke-width:4; stroke-opacity:1; fill:none" points="153.718,818.44 172.616,818.44 "/>
<polyline clip-path="url(#clip820)" style="stroke:#000000; stroke-linecap:round; stroke-linejoin:round; stroke-width:4; stroke-opacity:1; fill:none" points="153.718,632.852 172.616,632.852 "/>
<polyline clip-path="url(#clip820)" style="stroke:#000000; stroke-linecap:round; stroke-linejoin:round; stroke-width:4; stroke-opacity:1; fill:none" points="153.718,447.264 172.616,447.264 "/>
<polyline clip-path="url(#clip820)" style="stroke:#000000; stroke-linecap:round; stroke-linejoin:round; stroke-width:4; stroke-opacity:1; fill:none" points="153.718,261.676 172.616,261.676 "/>
<polyline clip-path="url(#clip820)" style="stroke:#000000; stroke-linecap:round; stroke-linejoin:round; stroke-width:4; stroke-opacity:1; fill:none" points="153.718,76.0874 172.616,76.0874 "/>
<path clip-path="url(#clip820)" d="M66.0895 1175.42 Q62.4784 1175.42 60.6497 1178.98 Q58.8441 1182.52 58.8441 1189.65 Q58.8441 1196.76 60.6497 1200.32 Q62.4784 1203.86 66.0895 1203.86 Q69.7237 1203.86 71.5292 1200.32 Q73.3579 1196.76 73.3579 1189.65 Q73.3579 1182.52 71.5292 1178.98 Q69.7237 1175.42 66.0895 1175.42 M66.0895 1171.71 Q71.8996 1171.71 74.9552 1176.32 Q78.0338 1180.9 78.0338 1189.65 Q78.0338 1198.38 74.9552 1202.98 Q71.8996 1207.57 66.0895 1207.57 Q60.2793 1207.57 57.2006 1202.98 Q54.1451 1198.38 54.1451 1189.65 Q54.1451 1180.9 57.2006 1176.32 Q60.2793 1171.71 66.0895 1171.71 Z" fill="#000000" fill-rule="nonzero" fill-opacity="1" /><path clip-path="url(#clip820)" d="M86.2514 1201.02 L91.1356 1201.02 L91.1356 1206.9 L86.2514 1206.9 L86.2514 1201.02 Z" fill="#000000" fill-rule="nonzero" fill-opacity="1" /><path clip-path="url(#clip820)" d="M102.131 1202.96 L109.77 1202.96 L109.77 1176.6 L101.46 1178.26 L101.46 1174 L109.723 1172.34 L114.399 1172.34 L114.399 1202.96 L122.038 1202.96 L122.038 1206.9 L102.131 1206.9 L102.131 1202.96 Z" fill="#000000" fill-rule="nonzero" fill-opacity="1" /><path clip-path="url(#clip820)" d="M66.4598 989.827 Q62.8487 989.827 61.02 993.392 Q59.2145 996.933 59.2145 1004.06 Q59.2145 1011.17 61.02 1014.73 Q62.8487 1018.28 66.4598 1018.28 Q70.0941 1018.28 71.8996 1014.73 Q73.7283 1011.17 73.7283 1004.06 Q73.7283 996.933 71.8996 993.392 Q70.0941 989.827 66.4598 989.827 M66.4598 986.123 Q72.27 986.123 75.3255 990.73 Q78.4042 995.313 78.4042 1004.06 Q78.4042 1012.79 75.3255 1017.4 Q72.27 1021.98 66.4598 1021.98 Q60.6497 1021.98 57.571 1017.4 Q54.5154 1012.79 54.5154 1004.06 Q54.5154 995.313 57.571 990.73 Q60.6497 986.123 66.4598 986.123 Z" fill="#000000" fill-rule="nonzero" fill-opacity="1" /><path clip-path="url(#clip820)" d="M86.6218 1015.43 L91.506 1015.43 L91.506 1021.31 L86.6218 1021.31 L86.6218 1015.43 Z" fill="#000000" fill-rule="nonzero" fill-opacity="1" /><path clip-path="url(#clip820)" d="M105.719 1017.37 L122.038 1017.37 L122.038 1021.31 L100.094 1021.31 L100.094 1017.37 Q102.756 1014.62 107.339 1009.99 Q111.946 1005.34 113.126 1003.99 Q115.372 1001.47 116.251 999.734 Q117.154 997.975 117.154 996.285 Q117.154 993.531 115.21 991.794 Q113.288 990.058 110.186 990.058 Q107.987 990.058 105.534 990.822 Q103.103 991.586 100.325 993.137 L100.325 988.415 Q103.149 987.281 105.603 986.702 Q108.057 986.123 110.094 986.123 Q115.464 986.123 118.659 988.808 Q121.853 991.494 121.853 995.984 Q121.853 998.114 121.043 1000.04 Q120.256 1001.93 118.149 1004.53 Q117.571 1005.2 114.469 1008.41 Q111.367 1011.61 105.719 1017.37 Z" fill="#000000" fill-rule="nonzero" fill-opacity="1" /><path clip-path="url(#clip820)" d="M65.5108 804.239 Q61.8997 804.239 60.071 807.804 Q58.2654 811.345 58.2654 818.475 Q58.2654 825.581 60.071 829.146 Q61.8997 832.688 65.5108 832.688 Q69.145 832.688 70.9505 829.146 Q72.7792 825.581 72.7792 818.475 Q72.7792 811.345 70.9505 807.804 Q69.145 804.239 65.5108 804.239 M65.5108 800.535 Q71.3209 800.535 74.3765 805.142 Q77.4551 809.725 77.4551 818.475 Q77.4551 827.202 74.3765 831.808 Q71.3209 836.391 65.5108 836.391 Q59.7006 836.391 56.6219 831.808 Q53.5664 827.202 53.5664 818.475 Q53.5664 809.725 56.6219 805.142 Q59.7006 800.535 65.5108 800.535 Z" fill="#000000" fill-rule="nonzero" fill-opacity="1" /><path clip-path="url(#clip820)" d="M85.6727 829.84 L90.5569 829.84 L90.5569 835.72 L85.6727 835.72 L85.6727 829.84 Z" fill="#000000" fill-rule="nonzero" fill-opacity="1" /><path clip-path="url(#clip820)" d="M114.909 817.086 Q118.265 817.803 120.14 820.072 Q122.038 822.34 122.038 825.674 Q122.038 830.79 118.52 833.59 Q115.001 836.391 108.52 836.391 Q106.344 836.391 104.029 835.952 Q101.737 835.535 99.2837 834.678 L99.2837 830.165 Q101.228 831.299 103.543 831.877 Q105.858 832.456 108.381 832.456 Q112.779 832.456 115.071 830.72 Q117.385 828.984 117.385 825.674 Q117.385 822.618 115.233 820.905 Q113.103 819.169 109.284 819.169 L105.256 819.169 L105.256 815.327 L109.469 815.327 Q112.918 815.327 114.747 813.961 Q116.575 812.572 116.575 809.979 Q116.575 807.317 114.677 805.905 Q112.802 804.47 109.284 804.47 Q107.362 804.47 105.163 804.887 Q102.964 805.304 100.325 806.183 L100.325 802.017 Q102.987 801.276 105.302 800.905 Q107.64 800.535 109.7 800.535 Q115.024 800.535 118.126 802.966 Q121.228 805.373 121.228 809.493 Q121.228 812.364 119.585 814.354 Q117.941 816.322 114.909 817.086 Z" fill="#000000" fill-rule="nonzero" fill-opacity="1" /><path clip-path="url(#clip820)" d="M64.3765 618.651 Q60.7654 618.651 58.9367 622.215 Q57.1312 625.757 57.1312 632.887 Q57.1312 639.993 58.9367 643.558 Q60.7654 647.099 64.3765 647.099 Q68.0107 647.099 69.8163 643.558 Q71.645 639.993 71.645 632.887 Q71.645 625.757 69.8163 622.215 Q68.0107 618.651 64.3765 618.651 M64.3765 614.947 Q70.1867 614.947 73.2422 619.553 Q76.3209 624.137 76.3209 632.887 Q76.3209 641.613 73.2422 646.22 Q70.1867 650.803 64.3765 650.803 Q58.5664 650.803 55.4877 646.22 Q52.4321 641.613 52.4321 632.887 Q52.4321 624.137 55.4877 619.553 Q58.5664 614.947 64.3765 614.947 Z" fill="#000000" fill-rule="nonzero" fill-opacity="1" /><path clip-path="url(#clip820)" d="M84.5384 644.252 L89.4227 644.252 L89.4227 650.132 L84.5384 650.132 L84.5384 644.252 Z" fill="#000000" fill-rule="nonzero" fill-opacity="1" /><path clip-path="url(#clip820)" d="M112.455 619.646 L100.649 638.095 L112.455 638.095 L112.455 619.646 M111.228 615.572 L117.108 615.572 L117.108 638.095 L122.038 638.095 L122.038 641.984 L117.108 641.984 L117.108 650.132 L112.455 650.132 L112.455 641.984 L96.8532 641.984 L96.8532 637.47 L111.228 615.572 Z" fill="#000000" fill-rule="nonzero" fill-opacity="1" /><path clip-path="url(#clip820)" d="M65.858 433.062 Q62.2469 433.062 60.4182 436.627 Q58.6126 440.169 58.6126 447.298 Q58.6126 454.405 60.4182 457.97 Q62.2469 461.511 65.858 461.511 Q69.4922 461.511 71.2978 457.97 Q73.1265 454.405 73.1265 447.298 Q73.1265 440.169 71.2978 436.627 Q69.4922 433.062 65.858 433.062 M65.858 429.359 Q71.6681 429.359 74.7237 433.965 Q77.8024 438.548 77.8024 447.298 Q77.8024 456.025 74.7237 460.632 Q71.6681 465.215 65.858 465.215 Q60.0478 465.215 56.9691 460.632 Q53.9136 456.025 53.9136 447.298 Q53.9136 438.548 56.9691 433.965 Q60.0478 429.359 65.858 429.359 Z" fill="#000000" fill-rule="nonzero" fill-opacity="1" /><path clip-path="url(#clip820)" d="M86.0199 458.664 L90.9041 458.664 L90.9041 464.544 L86.0199 464.544 L86.0199 458.664 Z" fill="#000000" fill-rule="nonzero" fill-opacity="1" /><path clip-path="url(#clip820)" d="M101.136 429.984 L119.492 429.984 L119.492 433.919 L105.418 433.919 L105.418 442.391 Q106.436 442.044 107.455 441.882 Q108.473 441.697 109.492 441.697 Q115.279 441.697 118.659 444.868 Q122.038 448.039 122.038 453.456 Q122.038 459.034 118.566 462.136 Q115.094 465.215 108.774 465.215 Q106.599 465.215 104.33 464.845 Q102.085 464.474 99.6772 463.734 L99.6772 459.034 Q101.761 460.169 103.983 460.724 Q106.205 461.28 108.682 461.28 Q112.686 461.28 115.024 459.173 Q117.362 457.067 117.362 453.456 Q117.362 449.845 115.024 447.738 Q112.686 445.632 108.682 445.632 Q106.807 445.632 104.932 446.048 Q103.08 446.465 101.136 447.345 L101.136 429.984 Z" fill="#000000" fill-rule="nonzero" fill-opacity="1" /><path clip-path="url(#clip820)" d="M64.7006 247.474 Q61.0895 247.474 59.2608 251.039 Q57.4552 254.581 57.4552 261.71 Q57.4552 268.817 59.2608 272.382 Q61.0895 275.923 64.7006 275.923 Q68.3348 275.923 70.1404 272.382 Q71.9691 268.817 71.9691 261.71 Q71.9691 254.581 70.1404 251.039 Q68.3348 247.474 64.7006 247.474 M64.7006 243.771 Q70.5107 243.771 73.5663 248.377 Q76.645 252.96 76.645 261.71 Q76.645 270.437 73.5663 275.044 Q70.5107 279.627 64.7006 279.627 Q58.8904 279.627 55.8117 275.044 Q52.7562 270.437 52.7562 261.71 Q52.7562 252.96 55.8117 248.377 Q58.8904 243.771 64.7006 243.771 Z" fill="#000000" fill-rule="nonzero" fill-opacity="1" /><path clip-path="url(#clip820)" d="M84.8625 273.076 L89.7467 273.076 L89.7467 278.956 L84.8625 278.956 L84.8625 273.076 Z" fill="#000000" fill-rule="nonzero" fill-opacity="1" /><path clip-path="url(#clip820)" d="M110.511 259.812 Q107.362 259.812 105.511 261.965 Q103.682 264.118 103.682 267.868 Q103.682 271.594 105.511 273.77 Q107.362 275.923 110.511 275.923 Q113.659 275.923 115.487 273.77 Q117.339 271.594 117.339 267.868 Q117.339 264.118 115.487 261.965 Q113.659 259.812 110.511 259.812 M119.793 245.159 L119.793 249.419 Q118.034 248.585 116.228 248.146 Q114.446 247.706 112.686 247.706 Q108.057 247.706 105.603 250.831 Q103.173 253.956 102.825 260.275 Q104.191 258.261 106.251 257.196 Q108.311 256.108 110.788 256.108 Q115.997 256.108 119.006 259.28 Q122.038 262.428 122.038 267.868 Q122.038 273.192 118.89 276.409 Q115.742 279.627 110.511 279.627 Q104.515 279.627 101.344 275.044 Q98.1726 270.437 98.1726 261.71 Q98.1726 253.516 102.061 248.655 Q105.95 243.771 112.501 243.771 Q114.26 243.771 116.043 244.118 Q117.848 244.465 119.793 245.159 Z" fill="#000000" fill-rule="nonzero" fill-opacity="1" /><path clip-path="url(#clip820)" d="M65.7654 61.8861 Q62.1543 61.8861 60.3256 65.4509 Q58.5201 68.9925 58.5201 76.1221 Q58.5201 83.2285 60.3256 86.7933 Q62.1543 90.335 65.7654 90.335 Q69.3996 90.335 71.2052 86.7933 Q73.0339 83.2285 73.0339 76.1221 Q73.0339 68.9925 71.2052 65.4509 Q69.3996 61.8861 65.7654 61.8861 M65.7654 58.1824 Q71.5755 58.1824 74.6311 62.7888 Q77.7098 67.3721 77.7098 76.1221 Q77.7098 84.8489 74.6311 89.4554 Q71.5755 94.0387 65.7654 94.0387 Q59.9552 94.0387 56.8765 89.4554 Q53.821 84.8489 53.821 76.1221 Q53.821 67.3721 56.8765 62.7888 Q59.9552 58.1824 65.7654 58.1824 Z" fill="#000000" fill-rule="nonzero" fill-opacity="1" /><path clip-path="url(#clip820)" d="M85.9273 87.4878 L90.8115 87.4878 L90.8115 93.3674 L85.9273 93.3674 L85.9273 87.4878 Z" fill="#000000" fill-rule="nonzero" fill-opacity="1" /><path clip-path="url(#clip820)" d="M99.8161 58.8074 L122.038 58.8074 L122.038 60.7981 L109.492 93.3674 L104.608 93.3674 L116.413 62.7425 L99.8161 62.7425 L99.8161 58.8074 Z" fill="#000000" fill-rule="nonzero" fill-opacity="1" /><polyline clip-path="url(#clip822)" style="stroke:#000000; stroke-linecap:round; stroke-linejoin:round; stroke-width:4; stroke-opacity:1; fill:none" points="207.804,1189.58 209.609,1189.3 211.414,1188.73 213.218,1188.45 215.023,1187.98 216.828,1187.17 218.632,1186.55 220.437,1186.02 222.242,1185.05 224.046,1184.6 225.851,1183.9 227.656,1183.42 229.46,1182.71 231.265,1182.21 233.07,1182.06 234.874,1181.24 236.679,1180.69 238.484,1180.16 240.288,1179.9 242.093,1179.19 243.898,1178.8 245.702,1178.32 247.507,1177.97 249.312,1177.23 251.116,1176.56 252.921,1176.01 254.726,1175.5 256.53,1174.87 258.335,1174.24 260.14,1173.82 261.944,1173.37 263.749,1172.53 265.554,1172 267.358,1171.34 269.163,1170.96 270.968,1170.37 272.772,1169.43 274.577,1168.86 276.382,1168.2 278.186,1167.67 279.991,1167.22 281.796,1166.51 283.6,1165.8 285.405,1165.53 287.21,1165.29 289.014,1164.62 290.819,1164.42 292.624,1163.95 294.428,1163.36 296.233,1163.25 298.038,1162.68 299.842,1162.07 301.647,1161.4 303.452,1160.83 305.256,1160.32 307.061,1160.03 308.866,1159.68 310.67,1159.12 312.475,1158.32 314.28,1157.62 316.084,1156.99 317.889,1156.23 319.694,1155.73 321.498,1155.09 323.303,1155.03 325.108,1154.24 326.912,1153.3 328.717,1152.88 330.522,1152.04 332.326,1151.77 334.131,1151.26 335.936,1150.55 337.74,1149.86 339.545,1149.02 341.35,1148.29 343.154,1147.87 344.959,1147.57 346.764,1146.97 348.568,1146.08 350.373,1145.5 352.178,1144.64 353.983,1143.91 355.787,1143.35 357.592,1142.58 359.397,1141.84 361.201,1141.18 363.006,1140.48 364.811,1139.76 366.615,1138.98 368.42,1137.82 370.225,1137.12 372.029,1136.57 373.834,1135.67 375.639,1135.27 377.443,1134.77 379.248,1134.02 381.053,1133.39 382.857,1132.75 384.662,1132.15 386.467,1131.55 388.271,1131.32 390.076,1130.78 391.881,1130.32 393.685,1129.62 395.49,1129.14 397.295,1128.06 399.099,1127.48 400.904,1126.35 402.709,1125.4 404.513,1124.83 406.318,1124.12 408.123,1123.17 409.927,1122.86 411.732,1122.08 413.537,1121.39 415.341,1120.69 417.146,1119.83 418.951,1119.51 420.755,1118.94 422.56,1118.32 424.365,1117.79 426.169,1117.19 427.974,1116.69 429.779,1116.07 431.583,1115.31 433.388,1114.9 435.193,1113.82 436.997,1113.18 438.802,1112.43 440.607,1111.54 442.411,1110.64 444.216,1109.63 446.021,1108.55 447.825,1107.9 449.63,1107.3 451.435,1106.92 453.239,1106.47 455.044,1105.55 456.849,1104.79 458.653,1103.82 460.458,1103.29 462.263,1102.81 464.067,1102.1 465.872,1101.21 467.677,1100.81 469.481,1100.01 471.286,1099.36 473.091,1098.57 474.895,1098.14 476.7,1097.07 478.505,1096.73 480.309,1095.77 482.114,1094.84 483.919,1094.09 485.723,1093.93 487.528,1093.18 489.333,1092.63 491.137,1091.78 492.942,1090.95 494.747,1090.13 496.551,1089.63 498.356,1088.74 500.161,1088.02 501.965,1087.54 503.77,1086.97 505.575,1086.5 507.379,1085.59 509.184,1084.78 510.989,1083.56 512.794,1083.28 514.598,1082.35 516.403,1081.46 518.208,1080.66 520.012,1079.58 521.817,1079.1 523.622,1078.31 525.426,1077.49 527.231,1076.41 529.036,1075.6 530.84,1074.87 532.645,1074.19 534.45,1073.29 536.254,1072.33 538.059,1071.43 539.864,1070.39 541.668,1068.95 543.473,1068.38 545.278,1067.68 547.082,1066.6 548.887,1065.84 550.692,1065.23 552.496,1064.46 554.301,1063.71 556.106,1062.54 557.91,1061.89 559.715,1061 561.52,1060.23 563.324,1059.11 565.129,1058.22 566.934,1057.63 568.738,1057.09 570.543,1056.2 572.348,1055.33 574.152,1054.5 575.957,1053.3 577.762,1052.36 579.566,1051.4 581.371,1050.45 583.176,1049.74 584.98,1048.77 586.785,1047.76 588.59,1046.61 590.394,1046.01 592.199,1045.08 594.004,1044.37 595.808,1043.48 597.613,1042.79 599.418,1041.91 601.222,1041.04 603.027,1040.22 604.832,1039.47 606.636,1038.49 608.441,1037.91 610.246,1036.77 612.05,1035.68 613.855,1034.67 615.66,1033.84 617.464,1032.96 619.269,1032.53 621.074,1031.6 622.878,1031.17 624.683,1030.62 626.488,1029.3 628.292,1028.48 630.097,1027.79 631.902,1027.36 633.706,1026.41 635.511,1025.66 637.316,1025.06 639.12,1024.17 640.925,1023.56 642.73,1022.7 644.534,1022.05 646.339,1021.23 648.144,1020.38 649.948,1019.38 651.753,1018.79 653.558,1017.98 655.362,1017.48 657.167,1016.52 658.972,1015.56 660.776,1014.55 662.581,1013.63 664.386,1012.85 666.19,1011.92 667.995,1011.23 669.8,1010.51 671.604,1009.95 673.409,1008.58 675.214,1007.16 677.019,1005.86 678.823,1004.4 680.628,1003.42 682.433,1002.67 684.237,1001.38 686.042,1000.89 687.847,999.943 689.651,998.686 691.456,998.14 693.261,996.649 695.065,995.753 696.87,994.487 698.675,993.339 700.479,992.634 702.284,991.802 704.089,991.36 705.893,990.313 707.698,989.269 709.503,988.402 711.307,987.7 713.112,986.621 714.917,985.734 716.721,985.152 718.526,984.174 720.331,982.992 722.135,981.828 723.94,980.637 725.745,979.537 727.549,978.652 729.354,977.962 731.159,977.215 732.963,976.321 734.768,975.346 736.573,974.658 738.377,974.009 740.182,973.395 741.987,971.882 743.791,970.957 745.596,970.243 747.401,969.193 749.205,967.896 751.01,966.739 752.815,965.767 754.619,964.634 756.424,963.442 758.229,962.441 760.033,961.17 761.838,960.463 763.643,959.422 765.447,958.3 767.252,957.457 769.057,956.432 770.861,955.066 772.666,954.08 774.471,953.207 776.275,952.073 778.08,951.489 779.885,950.34 781.689,949.32 783.494,948.499 785.299,947.556 787.103,946.618 788.908,945.693 790.713,944.347 792.517,943.123 794.322,942.276 796.127,941.18 797.931,940.347 799.736,939.058 801.541,937.858 803.345,936.825 805.15,935.565 806.955,934.211 808.759,933.33 810.564,932.539 812.369,931.287 814.173,929.975 815.978,929.512 817.783,928.198 819.587,927.398 821.392,926.737 823.197,925.614 825.001,924.893 826.806,923.895 828.611,922.771 830.415,922.165 832.22,920.792 834.025,919.439 835.83,918.212 837.634,916.966 839.439,915.661 841.244,914.759 843.048,913.807 844.853,913.148 846.658,911.44 848.462,910.088 850.267,908.988 852.072,908.395 853.876,907.441 855.681,906.363 857.486,904.917 859.29,904.02 861.095,902.825 862.9,901.685 864.704,900.98 866.509,899.394 868.314,898.812 870.118,898.243 871.923,897.252 873.728,896 875.532,894.945 877.337,894.004 879.142,893.068 880.946,891.854 882.751,890.836 884.556,889.375 886.36,888.12 888.165,886.788 889.97,885.832 891.774,885.26 893.579,884.806 895.384,883.694 897.188,882.496 898.993,881.46 900.798,880.615 902.602,879.671 904.407,878.694 906.212,877.764 908.016,876.751 909.821,875.484 911.626,874.191 913.43,872.951 915.235,871.765 917.04,870.606 918.844,869.342 920.649,868.118 922.454,867.155 924.258,865.988 926.063,865.001 927.868,864.726 929.672,863.774 931.477,862.476 933.282,861.755 935.086,860.243 936.891,858.754 938.696,857.496 940.5,856.356 942.305,855.13 944.11,854.5 945.914,853.318 947.719,852.056 949.524,851.094 951.328,849.507 953.133,848.111 954.938,847.148 956.742,845.749 958.547,844.973 960.352,843.728 962.156,841.818 963.961,840.857 965.766,839.306 967.57,838.098 969.375,837.242 971.18,836.182 972.984,835.15 974.789,833.773 976.594,832.85 978.398,831.682 980.203,830.701 982.008,829.671 983.812,829.136 985.617,827.705 987.422,826.335 989.226,825.323 991.031,824.692 992.836,823.522 994.64,822.112 996.445,821.343 998.25,820.201 1000.05,819.337 1001.86,818.254 1003.66,817.516 1005.47,815.76 1007.27,815.102 1009.08,814.34 1010.88,813.073 1012.69,811.834 1014.49,810.456 1016.3,809.387 1018.1,808.102 1019.91,806.936 1021.71,806.252 1023.52,805.172 1025.32,803.95 1027.12,802.919 1028.93,801.819 1030.73,800.482 1032.54,799.568 1034.34,798.677 1036.15,797.647 1037.95,796.772 1039.76,795.197 1041.56,793.931 1043.37,792.936 1045.17,791.765 1046.98,790.276 1048.78,789.046 1050.59,787.582 1052.39,786.637 1054.19,785.457 1056,784.41 1057.8,782.899 1059.61,781.51 1061.41,780.536 1063.22,779.995 1065.02,778.826 1066.83,777.397 1068.63,776.14 1070.44,775.253 1072.24,773.964 1074.05,773.252 1075.85,772.072 1077.66,771.191 1079.46,770.097 1081.26,769.113 1083.07,768.088 1084.87,766.875 1086.68,765.62 1088.48,764.472 1090.29,762.924 1092.09,761.801 1093.9,760.001 1095.7,758.355 1097.51,757.294 1099.31,756.285 1101.12,755.081 1102.92,753.963 1104.73,752.524 1106.53,751.539 1108.33,750.049 1110.14,748.687 1111.94,747.386 1113.75,746.039 1115.55,744.4 1117.36,743.183 1119.16,741.22 1120.97,739.83 1122.77,738.492 1124.58,737.244 1126.38,736.204 1128.19,734.541 1129.99,732.523 1131.8,731.176 1133.6,729.883 1135.4,728.338 1137.21,726.684 1139.01,725.143 1140.82,724.22 1142.62,723.05 1144.43,721.829 1146.23,720.196 1148.04,718.992 1149.84,717.936 1151.65,716.535 1153.45,715.145 1155.26,713.471 1157.06,712.606 1158.87,711.076 1160.67,709.652 1162.47,707.959 1164.28,706.711 1166.08,705.638 1167.89,704.256 1169.69,702.927 1171.5,701.413 1173.3,700.433 1175.11,699.266 1176.91,698.011 1178.72,696.606 1180.52,695.553 1182.33,693.993 1184.13,692.717 1185.94,691.659 1187.74,690.374 1189.54,689.172 1191.35,688.015 1193.15,687.108 1194.96,685.883 1196.76,684.469 1198.57,682.836 1200.37,681.09 1202.18,679.448 1203.98,677.861 1205.79,676.949 1207.59,675.557 1209.4,673.914 1211.2,672.603 1213.01,671.684 1214.81,670.176 1216.61,668.53 1218.42,667.573 1220.22,666.435 1222.03,665.521 1223.83,664.044 1225.64,662.678 1227.44,661.703 1229.25,660.681 1231.05,659.1 1232.86,657.637 1234.66,656.303 1236.47,654.94 1238.27,653.435 1240.08,651.946 1241.88,650.428 1243.69,648.847 1245.49,647.167 1247.29,645.495 1249.1,644.305 1250.9,642.941 1252.71,641.511 1254.51,640.226 1256.32,639.122 1258.12,637.685 1259.93,636.551 1261.73,634.754 1263.54,633.276 1265.34,631.371 1267.15,630.375 1268.95,629.212 1270.76,627.904 1272.56,626.703 1274.36,624.979 1276.17,623.79 1277.97,622.769 1279.78,621.378 1281.58,620.238 1283.39,618.751 1285.19,617.094 1287,615.678 1288.8,613.964 1290.61,612.408 1292.41,611.015 1294.22,610.07 1296.02,608.947 1297.83,607.231 1299.63,605.769 1301.43,604.453 1303.24,603.219 1305.04,602.032 1306.85,600.964 1308.65,599.738 1310.46,598.177 1312.26,596.783 1314.07,595.005 1315.87,593.418 1317.68,591.941 1319.48,590.877 1321.29,589.443 1323.09,587.764 1324.9,586.486 1326.7,584.852 1328.5,583.595 1330.31,582.148 1332.11,580.395 1333.92,579.103 1335.72,577.593 1337.53,575.8 1339.33,574.42 1341.14,572.92 1342.94,571.235 1344.75,569.617 1346.55,568.796 1348.36,567.095 1350.16,565.996 1351.97,564.791 1353.77,563.272 1355.57,562.261 1357.38,561.168 1359.18,559.618 1360.99,558.076 1362.79,557.464 1364.6,556.167 1366.4,555.009 1368.21,554.023 1370.01,552.954 1371.82,551.869 1373.62,550.28 1375.43,548.855 1377.23,547.208 1379.04,545.826 1380.84,543.979 1382.64,542.759 1384.45,541.354 1386.25,539.897 1388.06,538.472 1389.86,537.188 1391.67,535.459 1393.47,533.627 1395.28,532.163 1397.08,531.515 1398.89,529.942 1400.69,528.478 1402.5,526.824 1404.3,525.713 1406.11,524.613 1407.91,523.027 1409.71,521.528 1411.52,520.374 1413.32,519.181 1415.13,517.819 1416.93,516.472 1418.74,515.261 1420.54,514.079 1422.35,512.347 1424.15,510.9 1425.96,509.85 1427.76,508.535 1429.57,506.962 1431.37,505.204 1433.18,503.591 1434.98,502.412 1436.78,500.702 1438.59,499.513 1440.39,498.058 1442.2,496.539 1444,495.661 1445.81,494.378 1447.61,493.315 1449.42,491.934 1451.22,491.054 1453.03,489.829 1454.83,488.463 1456.64,486.682 1458.44,484.801 1460.25,483.64 1462.05,482.276 1463.85,480.947 1465.66,479.281 1467.46,477.747 1469.27,476.132 1471.07,474.358 1472.88,472.622 1474.68,471.396 1476.49,470.34 1478.29,468.912 1480.1,467.157 1481.9,466.24 1483.71,464.9 1485.51,463.527 1487.32,462.012 1489.12,460.542 1490.92,459.326 1492.73,458.33 1494.53,456.961 1496.34,455.429 1498.14,454.092 1499.95,452.834 1501.75,451.989 1503.56,450.568 1505.36,449.109 1507.17,448.214 1508.97,446.395 1510.78,444.755 1512.58,443.364 1514.39,442.156 1516.19,440.78 1517.99,439.396 1519.8,438.184 1521.6,436.608 1523.41,434.596 1525.21,433.123 1527.02,431.257 1528.82,429.897 1530.63,428.657 1532.43,426.815 1534.24,425.342 1536.04,423.795 1537.85,422.815 1539.65,421.422 1541.46,419.786 1543.26,418.609 1545.06,416.824 1546.87,415.851 1548.67,414.308 1550.48,412.722 1552.28,411.41 1554.09,409.81 1555.89,408.179 1557.7,406.735 1559.5,405.436 1561.31,404.109 1563.11,402.841 1564.92,401.281 1566.72,399.762 1568.53,398.465 1570.33,397.185 1572.14,395.871 1573.94,394.759 1575.74,393.763 1577.55,392.526 1579.35,391.344 1581.16,389.58 1582.96,387.98 1584.77,386.915 1586.57,385.64 1588.38,384.394 1590.18,383.129 1591.99,381.592 1593.79,380.046 1595.6,378.358 1597.4,376.738 1599.21,375.412 1601.01,374.006 1602.81,372.288 1604.62,370.376 1606.42,369.346 1608.23,368.138 1610.03,366.968 1611.84,365.633 1613.64,364.364 1615.45,363.121 1617.25,361.619 1619.06,360.076 1620.86,358.639 1622.67,357.112 1624.47,354.98 1626.28,353.733 1628.08,352.492 1629.88,351.136 1631.69,350.229 1633.49,348.28 1635.3,346.928 1637.1,345.615 1638.91,344.179 1640.71,342.272 1642.52,341.044 1644.32,339.599 1646.13,338.53 1647.93,338.377 1649.74,337.056 1651.54,335.892 1653.35,334.704 1655.15,333.086 1656.95,331.247 1658.76,329.637 1660.56,328.669 1662.37,327.351 1664.17,325.859 1665.98,324.633 1667.78,323.743 1669.59,322.426 1671.39,321.427 1673.2,320.155 1675,318.657 1676.81,317.468 1678.61,316.179 1680.42,315.07 1682.22,313.587 1684.02,312.396 1685.83,310.988 1687.63,309.722 1689.44,307.544 1691.24,306.047 1693.05,305.147 1694.85,304.105 1696.66,302.24 1698.46,300.904 1700.27,299.012 1702.07,297.872 1703.88,296.501 1705.68,294.71 1707.49,293.967 1709.29,292.953 1711.09,291.588 1712.9,290.025 1714.7,288.724 1716.51,287.515 1718.31,285.979 1720.12,285.202 1721.92,284.278 1723.73,282.486 1725.53,281.41 1727.34,279.65 1729.14,278.577 1730.95,277.412 1732.75,276.531 1734.56,274.844 1736.36,273.118 1738.16,272.386 1739.97,271.158 1741.77,270.091 1743.58,268.429 1745.38,267.224 1747.19,266.35 1748.99,264.833 1750.8,263.226 1752.6,261.843 1754.41,261.058 1756.21,259.478 1758.02,258.349 1759.82,256.7 1761.63,255.287 1763.43,253.871 1765.23,252.705 1767.04,251.071 1768.84,249.385 1770.65,248.274 1772.45,247.311 1774.26,245.837 1776.06,244.785 1777.87,243.34 1779.67,241.77 1781.48,240.445 1783.28,239.304 1785.09,237.84 1786.89,236.708 1788.7,235.383 1790.5,234.176 1792.3,232.78 1794.11,231.443 1795.91,230.262 1797.72,229.265 1799.52,227.935 1801.33,226.113 1803.13,224.888 1804.94,223.388 1806.74,221.93 1808.55,220.599 1810.35,219.005 1812.16,216.937 1813.96,215.84 1815.77,214.681 1817.57,213.801 1819.37,212.44 1821.18,210.806 1822.98,209.818 1824.79,208.314 1826.59,206.986 1828.4,205.521 1830.2,204.132 1832.01,202.897 1833.81,201.57 1835.62,200.498 1837.42,198.923 1839.23,197.574 1841.03,196.268 1842.84,194.785 1844.64,193.421 1846.44,191.879 1848.25,190.446 1850.05,189.062 1851.86,187.391 1853.66,186.105 1855.47,185.083 1857.27,183.488 1859.08,182.079 1860.88,180.636 1862.69,179.336 1864.49,177.961 1866.3,176.629 1868.1,175.646 1869.91,174.186 1871.71,172.459 1873.51,171.155 1875.32,170.294 1877.12,169.067 1878.93,167.584 1880.73,166.366 1882.54,165.444 1884.34,164.7 1886.15,163.618 1887.95,162.683 1889.76,161.497 1891.56,160.437 1893.37,159.687 1895.17,158.413 1896.98,157.021 1898.78,155.926 1900.59,154.788 1902.39,153.748 1904.19,152.638 1906,151.727 1907.8,151.106 1909.61,150.196 1911.41,149.091 1913.22,147.697 1915.02,146.371 1916.83,145.401 1918.63,144.199 1920.44,142.77 1922.24,141.143 1924.05,140.008 1925.85,138.962 1927.66,137.798 1929.46,136.457 1931.26,135.463 1933.07,134.066 1934.87,132.818 1936.68,131.876 1938.48,130.363 1940.29,128.804 1942.09,127.07 1943.9,126.044 1945.7,124.569 1947.51,122.921 1949.31,121.674 1951.12,120.142 1952.92,118.815 1954.73,118.129 1956.53,116.922 1958.33,115.818 1960.14,114.058 1961.94,112.9 1963.75,111.91 1965.55,111.031 1967.36,109.949 1969.16,108.707 1970.97,107.602 1972.77,106.401 1974.58,104.538 1976.38,103.247 1978.19,102.034 1979.99,100.47 1981.8,98.9679 1983.6,97.6374 1985.4,96.5527 1987.21,96.0662 1989.01,94.764 1990.82,93.5617 1992.62,92.5575 1994.43,91.3166 1996.23,90.3444 1998.04,89.3387 1999.84,88.1381 2001.65,87.2173 2003.45,85.9062 2005.26,84.4623 2007.06,83.382 2008.87,82.0482 2010.67,80.5161 "/>
</svg>
