<?xml version="1.0" encoding="utf-8"?>
<svg xmlns="http://www.w3.org/2000/svg" xmlns:xlink="http://www.w3.org/1999/xlink" width="300" height="300" viewBox="0 0 1200 1200">
<defs>
  <clipPath id="clip750">
    <rect x="0" y="0" width="1200" height="1200"/>
  </clipPath>
</defs>
<path clip-path="url(#clip750)" d="M0 1200 L1200 1200 L1200 0 L0 0  Z" fill="#ffffff" fill-rule="evenodd" fill-opacity="1"/>
<defs>
  <clipPath id="clip751">
    <rect x="240" y="120" width="841" height="841"/>
  </clipPath>
</defs>
<path clip-path="url(#clip750)" d="M181.936 1073.17 L1152.76 1073.17 L1152.76 47.2441 L181.936 47.2441  Z" fill="#ffffff" fill-rule="evenodd" fill-opacity="1"/>
<defs>
  <clipPath id="clip752">
    <rect x="181" y="47" width="972" height="1027"/>
  </clipPath>
</defs>
<polyline clip-path="url(#clip752)" style="stroke:#000000; stroke-linecap:round; stroke-linejoin:round; stroke-width:2; stroke-opacity:0.1; fill:none" points="330.828,1073.17 330.828,47.2441 "/>
<polyline clip-path="url(#clip752)" style="stroke:#000000; stroke-linecap:round; stroke-linejoin:round; stroke-width:2; stroke-opacity:0.1; fill:none" points="515.812,1073.17 515.812,47.2441 "/>
<polyline clip-path="url(#clip752)" style="stroke:#000000; stroke-linecap:round; stroke-linejoin:round; stroke-width:2; stroke-opacity:0.1; fill:none" points="700.797,1073.17 700.797,47.2441 "/>
<polyline clip-path="url(#clip752)" style="stroke:#000000; stroke-linecap:round; stroke-linejoin:round; stroke-width:2; stroke-opacity:0.1; fill:none" points="885.781,1073.17 885.781,47.2441 "/>
<polyline clip-path="url(#clip752)" style="stroke:#000000; stroke-linecap:round; stroke-linejoin:round; stroke-width:2; stroke-opacity:0.1; fill:none" points="1070.76,1073.17 1070.76,47.2441 "/>
<polyline clip-path="url(#clip750)" style="stroke:#000000; stroke-linecap:round; stroke-linejoin:round; stroke-width:4; stroke-opacity:1; fill:none" points="181.936,1073.17 1152.76,1073.17 "/>
<polyline clip-path="url(#clip750)" style="stroke:#000000; stroke-linecap:round; stroke-linejoin:round; stroke-width:4; stroke-opacity:1; fill:none" points="330.828,1073.17 330.828,1054.27 "/>
<polyline clip-path="url(#clip750)" style="stroke:#000000; stroke-linecap:round; stroke-linejoin:round; stroke-width:4; stroke-opacity:1; fill:none" points="515.812,1073.17 515.812,1054.27 "/>
<polyline clip-path="url(#clip750)" style="stroke:#000000; stroke-linecap:round; stroke-linejoin:round; stroke-width:4; stroke-opacity:1; fill:none" points="700.797,1073.17 700.797,1054.27 "/>
<polyline clip-path="url(#clip750)" style="stroke:#000000; stroke-linecap:round; stroke-linejoin:round; stroke-width:4; stroke-opacity:1; fill:none" points="885.781,1073.17 885.781,1054.27 "/>
<polyline clip-path="url(#clip750)" style="stroke:#000000; stroke-linecap:round; stroke-linejoin:round; stroke-width:4; stroke-opacity:1; fill:none" points="1070.76,1073.17 1070.76,1054.27 "/>
<path clip-path="url(#clip750)" d="M300.585 1109.14 L330.261 1109.14 L330.261 1113.07 L300.585 1113.07 L300.585 1109.14 Z" fill="#000000" fill-rule="nonzero" fill-opacity="1" /><path clip-path="url(#clip750)" d="M341.164 1122.03 L348.803 1122.03 L348.803 1095.67 L340.493 1097.33 L340.493 1093.07 L348.756 1091.41 L353.432 1091.41 L353.432 1122.03 L361.071 1122.03 L361.071 1125.97 L341.164 1125.97 L341.164 1122.03 Z" fill="#000000" fill-rule="nonzero" fill-opacity="1" /><path clip-path="url(#clip750)" d="M515.812 1094.49 Q512.201 1094.49 510.373 1098.05 Q508.567 1101.59 508.567 1108.72 Q508.567 1115.83 510.373 1119.39 Q512.201 1122.94 515.812 1122.94 Q519.447 1122.94 521.252 1119.39 Q523.081 1115.83 523.081 1108.72 Q523.081 1101.59 521.252 1098.05 Q519.447 1094.49 515.812 1094.49 M515.812 1090.78 Q521.623 1090.78 524.678 1095.39 Q527.757 1099.97 527.757 1108.72 Q527.757 1117.45 524.678 1122.06 Q521.623 1126.64 515.812 1126.64 Q510.002 1126.64 506.924 1122.06 Q503.868 1117.45 503.868 1108.72 Q503.868 1099.97 506.924 1095.39 Q510.002 1090.78 515.812 1090.78 Z" fill="#000000" fill-rule="nonzero" fill-opacity="1" /><path clip-path="url(#clip750)" d="M691.179 1122.03 L698.817 1122.03 L698.817 1095.67 L690.507 1097.33 L690.507 1093.07 L698.771 1091.41 L703.447 1091.41 L703.447 1122.03 L711.086 1122.03 L711.086 1125.97 L691.179 1125.97 L691.179 1122.03 Z" fill="#000000" fill-rule="nonzero" fill-opacity="1" /><path clip-path="url(#clip750)" d="M880.433 1122.03 L896.753 1122.03 L896.753 1125.97 L874.808 1125.97 L874.808 1122.03 Q877.471 1119.28 882.054 1114.65 Q886.66 1110 887.841 1108.65 Q890.086 1106.13 890.966 1104.39 Q891.869 1102.63 891.869 1100.94 Q891.869 1098.19 889.924 1096.45 Q888.003 1094.72 884.901 1094.72 Q882.702 1094.72 880.248 1095.48 Q877.818 1096.25 875.04 1097.8 L875.04 1093.07 Q877.864 1091.94 880.318 1091.36 Q882.771 1090.78 884.808 1090.78 Q890.179 1090.78 893.373 1093.47 Q896.568 1096.15 896.568 1100.64 Q896.568 1102.77 895.757 1104.69 Q894.97 1106.59 892.864 1109.19 Q892.285 1109.86 889.183 1113.07 Q886.082 1116.27 880.433 1122.03 Z" fill="#000000" fill-rule="nonzero" fill-opacity="1" /><path clip-path="url(#clip750)" d="M1075.01 1107.33 Q1078.37 1108.05 1080.24 1110.32 Q1082.14 1112.59 1082.14 1115.92 Q1082.14 1121.04 1078.62 1123.84 Q1075.11 1126.64 1068.62 1126.64 Q1066.45 1126.64 1064.13 1126.2 Q1061.84 1125.78 1059.39 1124.93 L1059.39 1120.41 Q1061.33 1121.55 1063.65 1122.13 Q1065.96 1122.7 1068.48 1122.7 Q1072.88 1122.7 1075.17 1120.97 Q1077.49 1119.23 1077.49 1115.92 Q1077.49 1112.87 1075.34 1111.15 Q1073.21 1109.42 1069.39 1109.42 L1065.36 1109.42 L1065.36 1105.57 L1069.57 1105.57 Q1073.02 1105.57 1074.85 1104.21 Q1076.68 1102.82 1076.68 1100.23 Q1076.68 1097.57 1074.78 1096.15 Q1072.91 1094.72 1069.39 1094.72 Q1067.47 1094.72 1065.27 1095.13 Q1063.07 1095.55 1060.43 1096.43 L1060.43 1092.26 Q1063.09 1091.52 1065.41 1091.15 Q1067.74 1090.78 1069.8 1090.78 Q1075.13 1090.78 1078.23 1093.21 Q1081.33 1095.62 1081.33 1099.74 Q1081.33 1102.61 1079.69 1104.6 Q1078.04 1106.57 1075.01 1107.33 Z" fill="#000000" fill-rule="nonzero" fill-opacity="1" /><polyline clip-path="url(#clip752)" style="stroke:#000000; stroke-linecap:round; stroke-linejoin:round; stroke-width:2; stroke-opacity:0.1; fill:none" points="181.936,1050 1152.76,1050 "/>
<polyline clip-path="url(#clip752)" style="stroke:#000000; stroke-linecap:round; stroke-linejoin:round; stroke-width:2; stroke-opacity:0.1; fill:none" points="181.936,885.662 1152.76,885.662 "/>
<polyline clip-path="url(#clip752)" style="stroke:#000000; stroke-linecap:round; stroke-linejoin:round; stroke-width:2; stroke-opacity:0.1; fill:none" points="181.936,721.321 1152.76,721.321 "/>
<polyline clip-path="url(#clip752)" style="stroke:#000000; stroke-linecap:round; stroke-linejoin:round; stroke-width:2; stroke-opacity:0.1; fill:none" points="181.936,556.98 1152.76,556.98 "/>
<polyline clip-path="url(#clip752)" style="stroke:#000000; stroke-linecap:round; stroke-linejoin:round; stroke-width:2; stroke-opacity:0.1; fill:none" points="181.936,392.639 1152.76,392.639 "/>
<polyline clip-path="url(#clip752)" style="stroke:#000000; stroke-linecap:round; stroke-linejoin:round; stroke-width:2; stroke-opacity:0.1; fill:none" points="181.936,228.298 1152.76,228.298 "/>
<polyline clip-path="url(#clip752)" style="stroke:#000000; stroke-linecap:round; stroke-linejoin:round; stroke-width:2; stroke-opacity:0.1; fill:none" points="181.936,63.9573 1152.76,63.9573 "/>
<polyline clip-path="url(#clip750)" style="stroke:#000000; stroke-linecap:round; stroke-linejoin:round; stroke-width:4; stroke-opacity:1; fill:none" points="181.936,1073.17 181.936,47.2441 "/>
<polyline clip-path="url(#clip750)" style="stroke:#000000; stroke-linecap:round; stroke-linejoin:round; stroke-width:4; stroke-opacity:1; fill:none" points="181.936,1050 200.834,1050 "/>
<polyline clip-path="url(#clip750)" style="stroke:#000000; stroke-linecap:round; stroke-linejoin:round; stroke-width:4; stroke-opacity:1; fill:none" points="181.936,885.662 200.834,885.662 "/>
<polyline clip-path="url(#clip750)" style="stroke:#000000; stroke-linecap:round; stroke-linejoin:round; stroke-width:4; stroke-opacity:1; fill:none" points="181.936,721.321 200.834,721.321 "/>
<polyline clip-path="url(#clip750)" style="stroke:#000000; stroke-linecap:round; stroke-linejoin:round; stroke-width:4; stroke-opacity:1; fill:none" points="181.936,556.98 200.834,556.98 "/>
<polyline clip-path="url(#clip750)" style="stroke:#000000; stroke-linecap:round; stroke-linejoin:round; stroke-width:4; stroke-opacity:1; fill:none" points="181.936,392.639 200.834,392.639 "/>
<polyline clip-path="url(#clip750)" style="stroke:#000000; stroke-linecap:round; stroke-linejoin:round; stroke-width:4; stroke-opacity:1; fill:none" points="181.936,228.298 200.834,228.298 "/>
<polyline clip-path="url(#clip750)" style="stroke:#000000; stroke-linecap:round; stroke-linejoin:round; stroke-width:4; stroke-opacity:1; fill:none" points="181.936,63.9573 200.834,63.9573 "/>
<path clip-path="url(#clip750)" d="M57.9875 1050.45 L87.6633 1050.45 L87.6633 1054.39 L57.9875 1054.39 L57.9875 1050.45 Z" fill="#000000" fill-rule="nonzero" fill-opacity="1" /><path clip-path="url(#clip750)" d="M98.566 1063.35 L106.205 1063.35 L106.205 1036.98 L97.8947 1038.65 L97.8947 1034.39 L106.159 1032.72 L110.834 1032.72 L110.834 1063.35 L118.473 1063.35 L118.473 1067.28 L98.566 1067.28 L98.566 1063.35 Z" fill="#000000" fill-rule="nonzero" fill-opacity="1" /><path clip-path="url(#clip750)" d="M127.918 1061.4 L132.802 1061.4 L132.802 1067.28 L127.918 1067.28 L127.918 1061.4 Z" fill="#000000" fill-rule="nonzero" fill-opacity="1" /><path clip-path="url(#clip750)" d="M143.033 1032.72 L161.39 1032.72 L161.39 1036.66 L147.316 1036.66 L147.316 1045.13 Q148.334 1044.78 149.353 1044.62 Q150.371 1044.44 151.39 1044.44 Q157.177 1044.44 160.556 1047.61 Q163.936 1050.78 163.936 1056.19 Q163.936 1061.77 160.464 1064.88 Q156.992 1067.95 150.672 1067.95 Q148.496 1067.95 146.228 1067.58 Q143.982 1067.21 141.575 1066.47 L141.575 1061.77 Q143.658 1062.91 145.881 1063.46 Q148.103 1064.02 150.58 1064.02 Q154.584 1064.02 156.922 1061.91 Q159.26 1059.81 159.26 1056.19 Q159.26 1052.58 156.922 1050.48 Q154.584 1048.37 150.58 1048.37 Q148.705 1048.37 146.83 1048.79 Q144.978 1049.2 143.033 1050.08 L143.033 1032.72 Z" fill="#000000" fill-rule="nonzero" fill-opacity="1" /><path clip-path="url(#clip750)" d="M56.9921 886.113 L86.6679 886.113 L86.6679 890.048 L56.9921 890.048 L56.9921 886.113 Z" fill="#000000" fill-rule="nonzero" fill-opacity="1" /><path clip-path="url(#clip750)" d="M97.5706 899.006 L105.209 899.006 L105.209 872.641 L96.8993 874.308 L96.8993 870.048 L105.163 868.382 L109.839 868.382 L109.839 899.006 L117.478 899.006 L117.478 902.942 L97.5706 902.942 L97.5706 899.006 Z" fill="#000000" fill-rule="nonzero" fill-opacity="1" /><path clip-path="url(#clip750)" d="M126.922 897.062 L131.807 897.062 L131.807 902.942 L126.922 902.942 L126.922 897.062 Z" fill="#000000" fill-rule="nonzero" fill-opacity="1" /><path clip-path="url(#clip750)" d="M151.992 871.46 Q148.381 871.46 146.552 875.025 Q144.746 878.567 144.746 885.696 Q144.746 892.803 146.552 896.368 Q148.381 899.909 151.992 899.909 Q155.626 899.909 157.431 896.368 Q159.26 892.803 159.26 885.696 Q159.26 878.567 157.431 875.025 Q155.626 871.46 151.992 871.46 M151.992 867.757 Q157.802 867.757 160.857 872.363 Q163.936 876.946 163.936 885.696 Q163.936 894.423 160.857 899.03 Q157.802 903.613 151.992 903.613 Q146.181 903.613 143.103 899.03 Q140.047 894.423 140.047 885.696 Q140.047 876.946 143.103 872.363 Q146.181 867.757 151.992 867.757 Z" fill="#000000" fill-rule="nonzero" fill-opacity="1" /><path clip-path="url(#clip750)" d="M57.9875 721.772 L87.6633 721.772 L87.6633 725.707 L57.9875 725.707 L57.9875 721.772 Z" fill="#000000" fill-rule="nonzero" fill-opacity="1" /><path clip-path="url(#clip750)" d="M107.756 707.119 Q104.145 707.119 102.316 710.684 Q100.51 714.226 100.51 721.356 Q100.51 728.462 102.316 732.027 Q104.145 735.568 107.756 735.568 Q111.39 735.568 113.196 732.027 Q115.024 728.462 115.024 721.356 Q115.024 714.226 113.196 710.684 Q111.39 707.119 107.756 707.119 M107.756 703.416 Q113.566 703.416 116.621 708.022 Q119.7 712.606 119.7 721.356 Q119.7 730.082 116.621 734.689 Q113.566 739.272 107.756 739.272 Q101.946 739.272 98.8669 734.689 Q95.8114 730.082 95.8114 721.356 Q95.8114 712.606 98.8669 708.022 Q101.946 703.416 107.756 703.416 Z" fill="#000000" fill-rule="nonzero" fill-opacity="1" /><path clip-path="url(#clip750)" d="M127.918 732.721 L132.802 732.721 L132.802 738.601 L127.918 738.601 L127.918 732.721 Z" fill="#000000" fill-rule="nonzero" fill-opacity="1" /><path clip-path="url(#clip750)" d="M143.033 704.041 L161.39 704.041 L161.39 707.976 L147.316 707.976 L147.316 716.448 Q148.334 716.101 149.353 715.939 Q150.371 715.754 151.39 715.754 Q157.177 715.754 160.556 718.925 Q163.936 722.096 163.936 727.513 Q163.936 733.092 160.464 736.193 Q156.992 739.272 150.672 739.272 Q148.496 739.272 146.228 738.902 Q143.982 738.531 141.575 737.791 L141.575 733.092 Q143.658 734.226 145.881 734.781 Q148.103 735.337 150.58 735.337 Q154.584 735.337 156.922 733.23 Q159.26 731.124 159.26 727.513 Q159.26 723.902 156.922 721.795 Q154.584 719.689 150.58 719.689 Q148.705 719.689 146.83 720.106 Q144.978 720.522 143.033 721.402 L143.033 704.041 Z" fill="#000000" fill-rule="nonzero" fill-opacity="1" /><path clip-path="url(#clip750)" d="M106.76 542.779 Q103.149 542.779 101.321 546.343 Q99.515 549.885 99.515 557.015 Q99.515 564.121 101.321 567.686 Q103.149 571.228 106.76 571.228 Q110.395 571.228 112.2 567.686 Q114.029 564.121 114.029 557.015 Q114.029 549.885 112.2 546.343 Q110.395 542.779 106.76 542.779 M106.76 539.075 Q112.571 539.075 115.626 543.681 Q118.705 548.265 118.705 557.015 Q118.705 565.741 115.626 570.348 Q112.571 574.931 106.76 574.931 Q100.95 574.931 97.8715 570.348 Q94.816 565.741 94.816 557.015 Q94.816 548.265 97.8715 543.681 Q100.95 539.075 106.76 539.075 Z" fill="#000000" fill-rule="nonzero" fill-opacity="1" /><path clip-path="url(#clip750)" d="M126.922 568.38 L131.807 568.38 L131.807 574.26 L126.922 574.26 L126.922 568.38 Z" fill="#000000" fill-rule="nonzero" fill-opacity="1" /><path clip-path="url(#clip750)" d="M151.992 542.779 Q148.381 542.779 146.552 546.343 Q144.746 549.885 144.746 557.015 Q144.746 564.121 146.552 567.686 Q148.381 571.228 151.992 571.228 Q155.626 571.228 157.431 567.686 Q159.26 564.121 159.26 557.015 Q159.26 549.885 157.431 546.343 Q155.626 542.779 151.992 542.779 M151.992 539.075 Q157.802 539.075 160.857 543.681 Q163.936 548.265 163.936 557.015 Q163.936 565.741 160.857 570.348 Q157.802 574.931 151.992 574.931 Q146.181 574.931 143.103 570.348 Q140.047 565.741 140.047 557.015 Q140.047 548.265 143.103 543.681 Q146.181 539.075 151.992 539.075 Z" fill="#000000" fill-rule="nonzero" fill-opacity="1" /><path clip-path="url(#clip750)" d="M107.756 378.438 Q104.145 378.438 102.316 382.003 Q100.51 385.544 100.51 392.674 Q100.51 399.78 102.316 403.345 Q104.145 406.887 107.756 406.887 Q111.39 406.887 113.196 403.345 Q115.024 399.78 115.024 392.674 Q115.024 385.544 113.196 382.003 Q111.39 378.438 107.756 378.438 M107.756 374.734 Q113.566 374.734 116.621 379.341 Q119.7 383.924 119.7 392.674 Q119.7 401.401 116.621 406.007 Q113.566 410.59 107.756 410.59 Q101.946 410.59 98.8669 406.007 Q95.8114 401.401 95.8114 392.674 Q95.8114 383.924 98.8669 379.341 Q101.946 374.734 107.756 374.734 Z" fill="#000000" fill-rule="nonzero" fill-opacity="1" /><path clip-path="url(#clip750)" d="M127.918 404.039 L132.802 404.039 L132.802 409.919 L127.918 409.919 L127.918 404.039 Z" fill="#000000" fill-rule="nonzero" fill-opacity="1" /><path clip-path="url(#clip750)" d="M143.033 375.359 L161.39 375.359 L161.39 379.294 L147.316 379.294 L147.316 387.766 Q148.334 387.419 149.353 387.257 Q150.371 387.072 151.39 387.072 Q157.177 387.072 160.556 390.243 Q163.936 393.415 163.936 398.831 Q163.936 404.41 160.464 407.512 Q156.992 410.59 150.672 410.59 Q148.496 410.59 146.228 410.22 Q143.982 409.85 141.575 409.109 L141.575 404.41 Q143.658 405.544 145.881 406.1 Q148.103 406.655 150.58 406.655 Q154.584 406.655 156.922 404.549 Q159.26 402.442 159.26 398.831 Q159.26 395.22 156.922 393.114 Q154.584 391.007 150.58 391.007 Q148.705 391.007 146.83 391.424 Q144.978 391.84 143.033 392.72 L143.033 375.359 Z" fill="#000000" fill-rule="nonzero" fill-opacity="1" /><path clip-path="url(#clip750)" d="M97.5706 241.643 L105.209 241.643 L105.209 215.277 L96.8993 216.944 L96.8993 212.685 L105.163 211.018 L109.839 211.018 L109.839 241.643 L117.478 241.643 L117.478 245.578 L97.5706 245.578 L97.5706 241.643 Z" fill="#000000" fill-rule="nonzero" fill-opacity="1" /><path clip-path="url(#clip750)" d="M126.922 239.699 L131.807 239.699 L131.807 245.578 L126.922 245.578 L126.922 239.699 Z" fill="#000000" fill-rule="nonzero" fill-opacity="1" /><path clip-path="url(#clip750)" d="M151.992 214.097 Q148.381 214.097 146.552 217.662 Q144.746 221.203 144.746 228.333 Q144.746 235.439 146.552 239.004 Q148.381 242.546 151.992 242.546 Q155.626 242.546 157.431 239.004 Q159.26 235.439 159.26 228.333 Q159.26 221.203 157.431 217.662 Q155.626 214.097 151.992 214.097 M151.992 210.393 Q157.802 210.393 160.857 215 Q163.936 219.583 163.936 228.333 Q163.936 237.06 160.857 241.666 Q157.802 246.249 151.992 246.249 Q146.181 246.249 143.103 241.666 Q140.047 237.06 140.047 228.333 Q140.047 219.583 143.103 215 Q146.181 210.393 151.992 210.393 Z" fill="#000000" fill-rule="nonzero" fill-opacity="1" /><path clip-path="url(#clip750)" d="M98.566 77.3022 L106.205 77.3022 L106.205 50.9366 L97.8947 52.6032 L97.8947 48.344 L106.159 46.6773 L110.834 46.6773 L110.834 77.3022 L118.473 77.3022 L118.473 81.2373 L98.566 81.2373 L98.566 77.3022 Z" fill="#000000" fill-rule="nonzero" fill-opacity="1" /><path clip-path="url(#clip750)" d="M127.918 75.3577 L132.802 75.3577 L132.802 81.2373 L127.918 81.2373 L127.918 75.3577 Z" fill="#000000" fill-rule="nonzero" fill-opacity="1" /><path clip-path="url(#clip750)" d="M143.033 46.6773 L161.39 46.6773 L161.39 50.6125 L147.316 50.6125 L147.316 59.0847 Q148.334 58.7375 149.353 58.5754 Q150.371 58.3902 151.39 58.3902 Q157.177 58.3902 160.556 61.5615 Q163.936 64.7328 163.936 70.1494 Q163.936 75.7281 160.464 78.8299 Q156.992 81.9086 150.672 81.9086 Q148.496 81.9086 146.228 81.5383 Q143.982 81.1679 141.575 80.4272 L141.575 75.7281 Q143.658 76.8624 145.881 77.4179 Q148.103 77.9735 150.58 77.9735 Q154.584 77.9735 156.922 75.867 Q159.26 73.7605 159.26 70.1494 Q159.26 66.5383 156.922 64.4319 Q154.584 62.3254 150.58 62.3254 Q148.705 62.3254 146.83 62.7421 Q144.978 63.1587 143.033 64.0384 L143.033 46.6773 Z" fill="#000000" fill-rule="nonzero" fill-opacity="1" /><polyline clip-path="url(#clip752)" style="stroke:#000000; stroke-linecap:round; stroke-linejoin:round; stroke-width:4; stroke-opacity:1; fill:none" points="1107.81,1033.34 1125.28,1044.13 "/>
<polyline clip-path="url(#clip752)" style="stroke:#000000; stroke-linecap:round; stroke-linejoin:round; stroke-width:4; stroke-opacity:1; fill:none" points="1114.69,1027.02 1125.28,1044.13 1105.24,1042.33 "/>
<polyline clip-path="url(#clip752)" style="stroke:#000000; stroke-linecap:round; stroke-linejoin:round; stroke-width:4; stroke-opacity:1; fill:none" points="1125.28,1044.13 1107.81,1033.34 "/>
<circle clip-path="url(#clip752)" cx="1107.81" cy="1033.34" r="14.4" fill="#e26f46" fill-rule="evenodd" fill-opacity="1" stroke="#000000" stroke-opacity="1" stroke-width="2.4"/>
<polyline clip-path="url(#clip752)" style="stroke:#000000; stroke-linecap:round; stroke-linejoin:round; stroke-width:4; stroke-opacity:1; fill:none" points="649.934,164.354 663.35,141.725 "/>
<polyline clip-path="url(#clip752)" style="stroke:#000000; stroke-linecap:round; stroke-linejoin:round; stroke-width:4; stroke-opacity:1; fill:none" points="646.429,152.619 663.35,141.725 661.912,161.799 "/>
<polyline clip-path="url(#clip752)" style="stroke:#000000; stroke-linecap:round; stroke-linejoin:round; stroke-width:4; stroke-opacity:1; fill:none" points="663.35,141.725 649.934,164.354 "/>
<circle clip-path="url(#clip752)" cx="649.934" cy="164.354" r="14.4" fill="#c271d2" fill-rule="evenodd" fill-opacity="1" stroke="#000000" stroke-opacity="1" stroke-width="2.4"/>
<polyline clip-path="url(#clip752)" style="stroke:#000000; stroke-linecap:round; stroke-linejoin:round; stroke-width:4; stroke-opacity:1; fill:none" points="631.084,822.878 634.877,790.708 "/>
<polyline clip-path="url(#clip752)" style="stroke:#000000; stroke-linecap:round; stroke-linejoin:round; stroke-width:4; stroke-opacity:1; fill:none" points="623.831,807.531 634.877,790.708 641.708,809.638 "/>
<polyline clip-path="url(#clip752)" style="stroke:#000000; stroke-linecap:round; stroke-linejoin:round; stroke-width:4; stroke-opacity:1; fill:none" points="634.877,790.708 631.084,822.878 "/>
<circle clip-path="url(#clip752)" cx="634.877" cy="790.708" r="14.4" fill="#00a9ad" fill-rule="evenodd" fill-opacity="1" stroke="#000000" stroke-opacity="1" stroke-width="2.4"/>
<polyline clip-path="url(#clip752)" style="stroke:#000000; stroke-linecap:round; stroke-linejoin:round; stroke-width:4; stroke-opacity:1; fill:none" points="533.505,290.541 535.52,323.214 "/>
<polyline clip-path="url(#clip752)" style="stroke:#000000; stroke-linecap:round; stroke-linejoin:round; stroke-width:4; stroke-opacity:1; fill:none" points="543.395,304.694 535.52,323.214 525.429,305.802 "/>
<polyline clip-path="url(#clip752)" style="stroke:#000000; stroke-linecap:round; stroke-linejoin:round; stroke-width:4; stroke-opacity:1; fill:none" points="535.52,323.214 533.505,290.541 "/>
<circle clip-path="url(#clip752)" cx="535.52" cy="323.214" r="14.4" fill="#c68125" fill-rule="evenodd" fill-opacity="1" stroke="#000000" stroke-opacity="1" stroke-width="2.4"/>
<polyline clip-path="url(#clip752)" style="stroke:#000000; stroke-linecap:round; stroke-linejoin:round; stroke-width:4; stroke-opacity:1; fill:none" points="559.205,193.828 561.979,161.331 "/>
<polyline clip-path="url(#clip752)" style="stroke:#000000; stroke-linecap:round; stroke-linejoin:round; stroke-width:4; stroke-opacity:1; fill:none" points="551.481,178.501 561.979,161.331 569.416,180.031 "/>
<polyline clip-path="url(#clip752)" style="stroke:#000000; stroke-linecap:round; stroke-linejoin:round; stroke-width:4; stroke-opacity:1; fill:none" points="561.979,161.331 559.205,193.828 "/>
<circle clip-path="url(#clip752)" cx="559.205" cy="193.828" r="14.4" fill="#8e971d" fill-rule="evenodd" fill-opacity="1" stroke="#000000" stroke-opacity="1" stroke-width="2.4"/>
<polyline clip-path="url(#clip752)" style="stroke:#000000; stroke-linecap:round; stroke-linejoin:round; stroke-width:4; stroke-opacity:1; fill:none" points="470.855,97.803 484.835,76.2797 "/>
<polyline clip-path="url(#clip752)" style="stroke:#000000; stroke-linecap:round; stroke-linejoin:round; stroke-width:4; stroke-opacity:1; fill:none" points="467.483,86.4722 484.835,76.2797 482.578,96.2773 "/>
<polyline clip-path="url(#clip752)" style="stroke:#000000; stroke-linecap:round; stroke-linejoin:round; stroke-width:4; stroke-opacity:1; fill:none" points="484.835,76.2797 470.855,97.803 "/>
<circle clip-path="url(#clip752)" cx="470.855" cy="97.803" r="14.4" fill="#9b7fe8" fill-rule="evenodd" fill-opacity="1" stroke="#000000" stroke-opacity="1" stroke-width="2.4"/>
<polyline clip-path="url(#clip752)" style="stroke:#000000; stroke-linecap:round; stroke-linejoin:round; stroke-width:4; stroke-opacity:1; fill:none" points="604.575,765.287 606.767,732.65 "/>
<polyline clip-path="url(#clip752)" style="stroke:#000000; stroke-linecap:round; stroke-linejoin:round; stroke-width:4; stroke-opacity:1; fill:none" points="596.581,750.007 606.767,732.65 614.54,751.213 "/>
<polyline clip-path="url(#clip752)" style="stroke:#000000; stroke-linecap:round; stroke-linejoin:round; stroke-width:4; stroke-opacity:1; fill:none" points="606.767,732.65 604.575,765.287 "/>
<circle clip-path="url(#clip752)" cx="606.767" cy="732.65" r="14.4" fill="#f05f73" fill-rule="evenodd" fill-opacity="1" stroke="#000000" stroke-opacity="1" stroke-width="2.4"/>
<polyline clip-path="url(#clip752)" style="stroke:#000000; stroke-linecap:round; stroke-linejoin:round; stroke-width:4; stroke-opacity:1; fill:none" points="731.319,624.981 746.47,643.838 "/>
<polyline clip-path="url(#clip752)" style="stroke:#000000; stroke-linecap:round; stroke-linejoin:round; stroke-width:4; stroke-opacity:1; fill:none" points="742.212,624.169 746.47,643.838 728.18,635.444 "/>
<polyline clip-path="url(#clip752)" style="stroke:#000000; stroke-linecap:round; stroke-linejoin:round; stroke-width:4; stroke-opacity:1; fill:none" points="746.47,643.838 731.319,624.981 "/>
<circle clip-path="url(#clip752)" cx="731.319" cy="624.981" r="14.4" fill="#6b9e32" fill-rule="evenodd" fill-opacity="1" stroke="#000000" stroke-opacity="1" stroke-width="2.4"/>
<polyline clip-path="url(#clip752)" style="stroke:#000000; stroke-linecap:round; stroke-linejoin:round; stroke-width:4; stroke-opacity:1; fill:none" points="209.412,741.555 227.252,750.246 "/>
<polyline clip-path="url(#clip752)" style="stroke:#000000; stroke-linecap:round; stroke-linejoin:round; stroke-width:4; stroke-opacity:1; fill:none" points="215.012,734.272 227.252,750.246 207.128,750.453 "/>
<polyline clip-path="url(#clip752)" style="stroke:#000000; stroke-linecap:round; stroke-linejoin:round; stroke-width:4; stroke-opacity:1; fill:none" points="227.252,750.246 209.412,741.555 "/>
<circle clip-path="url(#clip752)" cx="227.252" cy="750.246" r="14.4" fill="#e26f46" fill-rule="evenodd" fill-opacity="1" stroke="#000000" stroke-opacity="1" stroke-width="2.4"/>
<polyline clip-path="url(#clip752)" style="stroke:#000000; stroke-linecap:round; stroke-linejoin:round; stroke-width:4; stroke-opacity:1; fill:none" points="620.249,790.104 631.124,816.692 "/>
<polyline clip-path="url(#clip752)" style="stroke:#000000; stroke-linecap:round; stroke-linejoin:round; stroke-width:4; stroke-opacity:1; fill:none" points="632.64,796.625 631.124,816.692 615.98,803.439 "/>
<polyline clip-path="url(#clip752)" style="stroke:#000000; stroke-linecap:round; stroke-linejoin:round; stroke-width:4; stroke-opacity:1; fill:none" points="631.124,816.692 620.249,790.104 "/>
<circle clip-path="url(#clip752)" cx="620.249" cy="790.104" r="14.4" fill="#c271d2" fill-rule="evenodd" fill-opacity="1" stroke="#000000" stroke-opacity="1" stroke-width="2.4"/>
</svg>
