<?xml version="1.0" encoding="utf-8"?>
<svg xmlns="http://www.w3.org/2000/svg" xmlns:xlink="http://www.w3.org/1999/xlink" width="300" height="300" viewBox="0 0 1200 1200">
<defs>
  <clipPath id="clip510">
    <rect x="0" y="0" width="1200" height="1200"/>
  </clipPath>
</defs>
<path clip-path="url(#clip510)" d="M0 1200 L1200 1200 L1200 0 L0 0  Z" fill="#ffffff" fill-rule="evenodd" fill-opacity="1"/>
<defs>
  <clipPath id="clip511">
    <rect x="240" y="120" width="841" height="841"/>
  </clipPath>
</defs>
<path clip-path="url(#clip510)" d="M174.274 1073.17 L1152.76 1073.17 L1152.76 47.2441 L174.274 47.2441  Z" fill="#ffffff" fill-rule="evenodd" fill-opacity="1"/>
<defs>
  <clipPath id="clip512">
    <rect x="174" y="47" width="979" height="1027"/>
  </clipPath>
</defs>
<polyline clip-path="url(#clip512)" style="stroke:#000000; stroke-linecap:round; stroke-linejoin:round; stroke-width:2; stroke-opacity:0.1; fill:none" points="392.55,1073.17 392.55,47.2441 "/>
<polyline clip-path="url(#clip512)" style="stroke:#000000; stroke-linecap:round; stroke-linejoin:round; stroke-width:2; stroke-opacity:0.1; fill:none" points="632.137,1073.17 632.137,47.2441 "/>
<polyline clip-path="url(#clip512)" style="stroke:#000000; stroke-linecap:round; stroke-linejoin:round; stroke-width:2; stroke-opacity:0.1; fill:none" points="871.723,1073.17 871.723,47.2441 "/>
<polyline clip-path="url(#clip512)" style="stroke:#000000; stroke-linecap:round; stroke-linejoin:round; stroke-width:2; stroke-opacity:0.1; fill:none" points="1111.31,1073.17 1111.31,47.2441 "/>
<polyline clip-path="url(#clip510)" style="stroke:#000000; stroke-linecap:round; stroke-linejoin:round; stroke-width:4; stroke-opacity:1; fill:none" points="174.274,1073.17 1152.76,1073.17 "/>
<polyline clip-path="url(#clip510)" style="stroke:#000000; stroke-linecap:round; stroke-linejoin:round; stroke-width:4; stroke-opacity:1; fill:none" points="392.55,1073.17 392.55,1054.27 "/>
<polyline clip-path="url(#clip510)" style="stroke:#000000; stroke-linecap:round; stroke-linejoin:round; stroke-width:4; stroke-opacity:1; fill:none" points="632.137,1073.17 632.137,1054.27 "/>
<polyline clip-path="url(#clip510)" style="stroke:#000000; stroke-linecap:round; stroke-linejoin:round; stroke-width:4; stroke-opacity:1; fill:none" points="871.723,1073.17 871.723,1054.27 "/>
<polyline clip-path="url(#clip510)" style="stroke:#000000; stroke-linecap:round; stroke-linejoin:round; stroke-width:4; stroke-opacity:1; fill:none" points="1111.31,1073.17 1111.31,1054.27 "/>
<path clip-path="url(#clip510)" d="M370.733 1094.49 Q367.122 1094.49 365.294 1098.05 Q363.488 1101.59 363.488 1108.72 Q363.488 1115.83 365.294 1119.39 Q367.122 1122.94 370.733 1122.94 Q374.368 1122.94 376.173 1119.39 Q378.002 1115.83 378.002 1108.72 Q378.002 1101.59 376.173 1098.05 Q374.368 1094.49 370.733 1094.49 M370.733 1090.78 Q376.544 1090.78 379.599 1095.39 Q382.678 1099.97 382.678 1108.72 Q382.678 1117.45 379.599 1122.06 Q376.544 1126.64 370.733 1126.64 Q364.923 1126.64 361.845 1122.06 Q358.789 1117.45 358.789 1108.72 Q358.789 1099.97 361.845 1095.39 Q364.923 1090.78 370.733 1090.78 Z" fill="#000000" fill-rule="nonzero" fill-opacity="1" /><path clip-path="url(#clip510)" d="M390.895 1120.09 L395.78 1120.09 L395.78 1125.97 L390.895 1125.97 L390.895 1120.09 Z" fill="#000000" fill-rule="nonzero" fill-opacity="1" /><path clip-path="url(#clip510)" d="M409.992 1122.03 L426.312 1122.03 L426.312 1125.97 L404.367 1125.97 L404.367 1122.03 Q407.029 1119.28 411.613 1114.65 Q416.219 1110 417.4 1108.65 Q419.645 1106.13 420.525 1104.39 Q421.428 1102.63 421.428 1100.94 Q421.428 1098.19 419.483 1096.45 Q417.562 1094.72 414.46 1094.72 Q412.261 1094.72 409.807 1095.48 Q407.377 1096.25 404.599 1097.8 L404.599 1093.07 Q407.423 1091.94 409.877 1091.36 Q412.33 1090.78 414.367 1090.78 Q419.738 1090.78 422.932 1093.47 Q426.127 1096.15 426.127 1100.64 Q426.127 1102.77 425.316 1104.69 Q424.529 1106.59 422.423 1109.19 Q421.844 1109.86 418.742 1113.07 Q415.641 1116.27 409.992 1122.03 Z" fill="#000000" fill-rule="nonzero" fill-opacity="1" /><path clip-path="url(#clip510)" d="M609.278 1094.49 Q605.667 1094.49 603.838 1098.05 Q602.033 1101.59 602.033 1108.72 Q602.033 1115.83 603.838 1119.39 Q605.667 1122.94 609.278 1122.94 Q612.912 1122.94 614.718 1119.39 Q616.546 1115.83 616.546 1108.72 Q616.546 1101.59 614.718 1098.05 Q612.912 1094.49 609.278 1094.49 M609.278 1090.78 Q615.088 1090.78 618.144 1095.39 Q621.222 1099.97 621.222 1108.72 Q621.222 1117.45 618.144 1122.06 Q615.088 1126.64 609.278 1126.64 Q603.468 1126.64 600.389 1122.06 Q597.334 1117.45 597.334 1108.72 Q597.334 1099.97 600.389 1095.39 Q603.468 1090.78 609.278 1090.78 Z" fill="#000000" fill-rule="nonzero" fill-opacity="1" /><path clip-path="url(#clip510)" d="M629.44 1120.09 L634.324 1120.09 L634.324 1125.97 L629.44 1125.97 L629.44 1120.09 Z" fill="#000000" fill-rule="nonzero" fill-opacity="1" /><path clip-path="url(#clip510)" d="M657.356 1095.48 L645.551 1113.93 L657.356 1113.93 L657.356 1095.48 M656.13 1091.41 L662.009 1091.41 L662.009 1113.93 L666.94 1113.93 L666.94 1117.82 L662.009 1117.82 L662.009 1125.97 L657.356 1125.97 L657.356 1117.82 L641.755 1117.82 L641.755 1113.31 L656.13 1091.41 Z" fill="#000000" fill-rule="nonzero" fill-opacity="1" /><path clip-path="url(#clip510)" d="M849.026 1094.49 Q845.415 1094.49 843.587 1098.05 Q841.781 1101.59 841.781 1108.72 Q841.781 1115.83 843.587 1119.39 Q845.415 1122.94 849.026 1122.94 Q852.661 1122.94 854.466 1119.39 Q856.295 1115.83 856.295 1108.72 Q856.295 1101.59 854.466 1098.05 Q852.661 1094.49 849.026 1094.49 M849.026 1090.78 Q854.836 1090.78 857.892 1095.39 Q860.971 1099.97 860.971 1108.72 Q860.971 1117.45 857.892 1122.06 Q854.836 1126.64 849.026 1126.64 Q843.216 1126.64 840.137 1122.06 Q837.082 1117.45 837.082 1108.72 Q837.082 1099.97 840.137 1095.39 Q843.216 1090.78 849.026 1090.78 Z" fill="#000000" fill-rule="nonzero" fill-opacity="1" /><path clip-path="url(#clip510)" d="M869.188 1120.09 L874.072 1120.09 L874.072 1125.97 L869.188 1125.97 L869.188 1120.09 Z" fill="#000000" fill-rule="nonzero" fill-opacity="1" /><path clip-path="url(#clip510)" d="M894.836 1106.82 Q891.688 1106.82 889.836 1108.98 Q888.008 1111.13 888.008 1114.88 Q888.008 1118.61 889.836 1120.78 Q891.688 1122.94 894.836 1122.94 Q897.984 1122.94 899.813 1120.78 Q901.665 1118.61 901.665 1114.88 Q901.665 1111.13 899.813 1108.98 Q897.984 1106.82 894.836 1106.82 M904.119 1092.17 L904.119 1096.43 Q902.359 1095.6 900.554 1095.16 Q898.771 1094.72 897.012 1094.72 Q892.383 1094.72 889.929 1097.84 Q887.498 1100.97 887.151 1107.29 Q888.517 1105.27 890.577 1104.21 Q892.637 1103.12 895.114 1103.12 Q900.322 1103.12 903.332 1106.29 Q906.364 1109.44 906.364 1114.88 Q906.364 1120.2 903.216 1123.42 Q900.068 1126.64 894.836 1126.64 Q888.841 1126.64 885.67 1122.06 Q882.498 1117.45 882.498 1108.72 Q882.498 1100.53 886.387 1095.67 Q890.276 1090.78 896.827 1090.78 Q898.586 1090.78 900.369 1091.13 Q902.174 1091.48 904.119 1092.17 Z" fill="#000000" fill-rule="nonzero" fill-opacity="1" /><path clip-path="url(#clip510)" d="M1088.74 1094.49 Q1085.13 1094.49 1083.3 1098.05 Q1081.49 1101.59 1081.49 1108.72 Q1081.49 1115.83 1083.3 1119.39 Q1085.13 1122.94 1088.74 1122.94 Q1092.37 1122.94 1094.18 1119.39 Q1096.01 1115.83 1096.01 1108.72 Q1096.01 1101.59 1094.18 1098.05 Q1092.37 1094.49 1088.74 1094.49 M1088.74 1090.78 Q1094.55 1090.78 1097.61 1095.39 Q1100.68 1099.97 1100.68 1108.72 Q1100.68 1117.45 1097.61 1122.06 Q1094.55 1126.64 1088.74 1126.64 Q1082.93 1126.64 1079.85 1122.06 Q1076.8 1117.45 1076.8 1108.72 Q1076.8 1099.97 1079.85 1095.39 Q1082.93 1090.78 1088.74 1090.78 Z" fill="#000000" fill-rule="nonzero" fill-opacity="1" /><path clip-path="url(#clip510)" d="M1108.9 1120.09 L1113.79 1120.09 L1113.79 1125.97 L1108.9 1125.97 L1108.9 1120.09 Z" fill="#000000" fill-rule="nonzero" fill-opacity="1" /><path clip-path="url(#clip510)" d="M1133.97 1109.56 Q1130.64 1109.56 1128.72 1111.34 Q1126.82 1113.12 1126.82 1116.25 Q1126.82 1119.37 1128.72 1121.15 Q1130.64 1122.94 1133.97 1122.94 Q1137.3 1122.94 1139.23 1121.15 Q1141.15 1119.35 1141.15 1116.25 Q1141.15 1113.12 1139.23 1111.34 Q1137.33 1109.56 1133.97 1109.56 M1129.3 1107.57 Q1126.29 1106.82 1124.6 1104.76 Q1122.93 1102.7 1122.93 1099.74 Q1122.93 1095.6 1125.87 1093.19 Q1128.83 1090.78 1133.97 1090.78 Q1139.13 1090.78 1142.07 1093.19 Q1145.01 1095.6 1145.01 1099.74 Q1145.01 1102.7 1143.32 1104.76 Q1141.66 1106.82 1138.67 1107.57 Q1142.05 1108.35 1143.92 1110.64 Q1145.82 1112.94 1145.82 1116.25 Q1145.82 1121.27 1142.74 1123.95 Q1139.69 1126.64 1133.97 1126.64 Q1128.25 1126.64 1125.17 1123.95 Q1122.12 1121.27 1122.12 1116.25 Q1122.12 1112.94 1124.02 1110.64 Q1125.92 1108.35 1129.3 1107.57 M1127.58 1100.18 Q1127.58 1102.87 1129.25 1104.37 Q1130.94 1105.88 1133.97 1105.88 Q1136.98 1105.88 1138.67 1104.37 Q1140.38 1102.87 1140.38 1100.18 Q1140.38 1097.5 1138.67 1095.99 Q1136.98 1094.49 1133.97 1094.49 Q1130.94 1094.49 1129.25 1095.99 Q1127.58 1097.5 1127.58 1100.18 Z" fill="#000000" fill-rule="nonzero" fill-opacity="1" /><polyline clip-path="url(#clip512)" style="stroke:#000000; stroke-linecap:round; stroke-linejoin:round; stroke-width:2; stroke-opacity:0.1; fill:none" points="174.274,1062.28 1152.76,1062.28 "/>
<polyline clip-path="url(#clip512)" style="stroke:#000000; stroke-linecap:round; stroke-linejoin:round; stroke-width:2; stroke-opacity:0.1; fill:none" points="174.274,818.005 1152.76,818.005 "/>
<polyline clip-path="url(#clip512)" style="stroke:#000000; stroke-linecap:round; stroke-linejoin:round; stroke-width:2; stroke-opacity:0.1; fill:none" points="174.274,573.73 1152.76,573.73 "/>
<polyline clip-path="url(#clip512)" style="stroke:#000000; stroke-linecap:round; stroke-linejoin:round; stroke-width:2; stroke-opacity:0.1; fill:none" points="174.274,329.456 1152.76,329.456 "/>
<polyline clip-path="url(#clip512)" style="stroke:#000000; stroke-linecap:round; stroke-linejoin:round; stroke-width:2; stroke-opacity:0.1; fill:none" points="174.274,85.1819 1152.76,85.1819 "/>
<polyline clip-path="url(#clip510)" style="stroke:#000000; stroke-linecap:round; stroke-linejoin:round; stroke-width:4; stroke-opacity:1; fill:none" points="174.274,1073.17 174.274,47.2441 "/>
<polyline clip-path="url(#clip510)" style="stroke:#000000; stroke-linecap:round; stroke-linejoin:round; stroke-width:4; stroke-opacity:1; fill:none" points="174.274,1062.28 193.172,1062.28 "/>
<polyline clip-path="url(#clip510)" style="stroke:#000000; stroke-linecap:round; stroke-linejoin:round; stroke-width:4; stroke-opacity:1; fill:none" points="174.274,818.005 193.172,818.005 "/>
<polyline clip-path="url(#clip510)" style="stroke:#000000; stroke-linecap:round; stroke-linejoin:round; stroke-width:4; stroke-opacity:1; fill:none" points="174.274,573.73 193.172,573.73 "/>
<polyline clip-path="url(#clip510)" style="stroke:#000000; stroke-linecap:round; stroke-linejoin:round; stroke-width:4; stroke-opacity:1; fill:none" points="174.274,329.456 193.172,329.456 "/>
<polyline clip-path="url(#clip510)" style="stroke:#000000; stroke-linecap:round; stroke-linejoin:round; stroke-width:4; stroke-opacity:1; fill:none" points="174.274,85.1819 193.172,85.1819 "/>
<path clip-path="url(#clip510)" d="M68.9365 1048.08 Q65.3254 1048.08 63.4967 1051.64 Q61.6912 1055.18 61.6912 1062.31 Q61.6912 1069.42 63.4967 1072.98 Q65.3254 1076.53 68.9365 1076.53 Q72.5707 1076.53 74.3763 1072.98 Q76.205 1069.42 76.205 1062.31 Q76.205 1055.18 74.3763 1051.64 Q72.5707 1048.08 68.9365 1048.08 M68.9365 1044.37 Q74.7467 1044.37 77.8022 1048.98 Q80.8809 1053.56 80.8809 1062.31 Q80.8809 1071.04 77.8022 1075.65 Q74.7467 1080.23 68.9365 1080.23 Q63.1264 1080.23 60.0477 1075.65 Q56.9921 1071.04 56.9921 1062.31 Q56.9921 1053.56 60.0477 1048.98 Q63.1264 1044.37 68.9365 1044.37 Z" fill="#000000" fill-rule="nonzero" fill-opacity="1" /><path clip-path="url(#clip510)" d="M89.0984 1073.68 L93.9827 1073.68 L93.9827 1079.56 L89.0984 1079.56 L89.0984 1073.68 Z" fill="#000000" fill-rule="nonzero" fill-opacity="1" /><path clip-path="url(#clip510)" d="M114.168 1048.08 Q110.557 1048.08 108.728 1051.64 Q106.922 1055.18 106.922 1062.31 Q106.922 1069.42 108.728 1072.98 Q110.557 1076.53 114.168 1076.53 Q117.802 1076.53 119.608 1072.98 Q121.436 1069.42 121.436 1062.31 Q121.436 1055.18 119.608 1051.64 Q117.802 1048.08 114.168 1048.08 M114.168 1044.37 Q119.978 1044.37 123.033 1048.98 Q126.112 1053.56 126.112 1062.31 Q126.112 1071.04 123.033 1075.65 Q119.978 1080.23 114.168 1080.23 Q108.358 1080.23 105.279 1075.65 Q102.223 1071.04 102.223 1062.31 Q102.223 1053.56 105.279 1048.98 Q108.358 1044.37 114.168 1044.37 Z" fill="#000000" fill-rule="nonzero" fill-opacity="1" /><path clip-path="url(#clip510)" d="M144.33 1048.08 Q140.719 1048.08 138.89 1051.64 Q137.084 1055.18 137.084 1062.31 Q137.084 1069.42 138.89 1072.98 Q140.719 1076.53 144.33 1076.53 Q147.964 1076.53 149.769 1072.98 Q151.598 1069.42 151.598 1062.31 Q151.598 1055.18 149.769 1051.64 Q147.964 1048.08 144.33 1048.08 M144.33 1044.37 Q150.14 1044.37 153.195 1048.98 Q156.274 1053.56 156.274 1062.31 Q156.274 1071.04 153.195 1075.65 Q150.14 1080.23 144.33 1080.23 Q138.519 1080.23 135.441 1075.65 Q132.385 1071.04 132.385 1062.31 Q132.385 1053.56 135.441 1048.98 Q138.519 1044.37 144.33 1044.37 Z" fill="#000000" fill-rule="nonzero" fill-opacity="1" /><path clip-path="url(#clip510)" d="M69.9319 803.803 Q66.3208 803.803 64.4921 807.368 Q62.6865 810.91 62.6865 818.039 Q62.6865 825.146 64.4921 828.711 Q66.3208 832.252 69.9319 832.252 Q73.5661 832.252 75.3717 828.711 Q77.2004 825.146 77.2004 818.039 Q77.2004 810.91 75.3717 807.368 Q73.5661 803.803 69.9319 803.803 M69.9319 800.1 Q75.742 800.1 78.7976 804.706 Q81.8763 809.289 81.8763 818.039 Q81.8763 826.766 78.7976 831.373 Q75.742 835.956 69.9319 835.956 Q64.1217 835.956 61.043 831.373 Q57.9875 826.766 57.9875 818.039 Q57.9875 809.289 61.043 804.706 Q64.1217 800.1 69.9319 800.1 Z" fill="#000000" fill-rule="nonzero" fill-opacity="1" /><path clip-path="url(#clip510)" d="M90.0938 829.405 L94.978 829.405 L94.978 835.285 L90.0938 835.285 L90.0938 829.405 Z" fill="#000000" fill-rule="nonzero" fill-opacity="1" /><path clip-path="url(#clip510)" d="M109.191 831.35 L125.51 831.35 L125.51 835.285 L103.566 835.285 L103.566 831.35 Q106.228 828.595 110.811 823.965 Q115.418 819.313 116.598 817.97 Q118.844 815.447 119.723 813.711 Q120.626 811.951 120.626 810.262 Q120.626 807.507 118.682 805.771 Q116.76 804.035 113.658 804.035 Q111.459 804.035 109.006 804.799 Q106.575 805.563 103.797 807.114 L103.797 802.391 Q106.621 801.257 109.075 800.678 Q111.529 800.1 113.566 800.1 Q118.936 800.1 122.131 802.785 Q125.325 805.47 125.325 809.961 Q125.325 812.09 124.515 814.012 Q123.728 815.91 121.621 818.502 Q121.043 819.174 117.941 822.391 Q114.839 825.586 109.191 831.35 Z" fill="#000000" fill-rule="nonzero" fill-opacity="1" /><path clip-path="url(#clip510)" d="M135.371 800.725 L153.728 800.725 L153.728 804.66 L139.654 804.66 L139.654 813.132 Q140.672 812.785 141.691 812.623 Q142.709 812.438 143.728 812.438 Q149.515 812.438 152.894 815.609 Q156.274 818.78 156.274 824.197 Q156.274 829.775 152.802 832.877 Q149.33 835.956 143.01 835.956 Q140.834 835.956 138.566 835.586 Q136.32 835.215 133.913 834.474 L133.913 829.775 Q135.996 830.91 138.219 831.465 Q140.441 832.021 142.918 832.021 Q146.922 832.021 149.26 829.914 Q151.598 827.808 151.598 824.197 Q151.598 820.586 149.26 818.479 Q146.922 816.373 142.918 816.373 Q141.043 816.373 139.168 816.789 Q137.316 817.206 135.371 818.086 L135.371 800.725 Z" fill="#000000" fill-rule="nonzero" fill-opacity="1" /><path clip-path="url(#clip510)" d="M68.9365 559.529 Q65.3254 559.529 63.4967 563.094 Q61.6912 566.636 61.6912 573.765 Q61.6912 580.872 63.4967 584.436 Q65.3254 587.978 68.9365 587.978 Q72.5707 587.978 74.3763 584.436 Q76.205 580.872 76.205 573.765 Q76.205 566.636 74.3763 563.094 Q72.5707 559.529 68.9365 559.529 M68.9365 555.825 Q74.7467 555.825 77.8022 560.432 Q80.8809 565.015 80.8809 573.765 Q80.8809 582.492 77.8022 587.098 Q74.7467 591.682 68.9365 591.682 Q63.1264 591.682 60.0477 587.098 Q56.9921 582.492 56.9921 573.765 Q56.9921 565.015 60.0477 560.432 Q63.1264 555.825 68.9365 555.825 Z" fill="#000000" fill-rule="nonzero" fill-opacity="1" /><path clip-path="url(#clip510)" d="M89.0984 585.131 L93.9827 585.131 L93.9827 591.01 L89.0984 591.01 L89.0984 585.131 Z" fill="#000000" fill-rule="nonzero" fill-opacity="1" /><path clip-path="url(#clip510)" d="M104.214 556.45 L122.57 556.45 L122.57 560.386 L108.496 560.386 L108.496 568.858 Q109.515 568.511 110.534 568.349 Q111.552 568.163 112.571 568.163 Q118.358 568.163 121.737 571.335 Q125.117 574.506 125.117 579.923 Q125.117 585.501 121.645 588.603 Q118.172 591.682 111.853 591.682 Q109.677 591.682 107.409 591.311 Q105.163 590.941 102.756 590.2 L102.756 585.501 Q104.839 586.635 107.061 587.191 Q109.284 587.747 111.76 587.747 Q115.765 587.747 118.103 585.64 Q120.441 583.534 120.441 579.923 Q120.441 576.311 118.103 574.205 Q115.765 572.098 111.76 572.098 Q109.885 572.098 108.01 572.515 Q106.159 572.932 104.214 573.811 L104.214 556.45 Z" fill="#000000" fill-rule="nonzero" fill-opacity="1" /><path clip-path="url(#clip510)" d="M144.33 559.529 Q140.719 559.529 138.89 563.094 Q137.084 566.636 137.084 573.765 Q137.084 580.872 138.89 584.436 Q140.719 587.978 144.33 587.978 Q147.964 587.978 149.769 584.436 Q151.598 580.872 151.598 573.765 Q151.598 566.636 149.769 563.094 Q147.964 559.529 144.33 559.529 M144.33 555.825 Q150.14 555.825 153.195 560.432 Q156.274 565.015 156.274 573.765 Q156.274 582.492 153.195 587.098 Q150.14 591.682 144.33 591.682 Q138.519 591.682 135.441 587.098 Q132.385 582.492 132.385 573.765 Q132.385 565.015 135.441 560.432 Q138.519 555.825 144.33 555.825 Z" fill="#000000" fill-rule="nonzero" fill-opacity="1" /><path clip-path="url(#clip510)" d="M69.9319 315.255 Q66.3208 315.255 64.4921 318.82 Q62.6865 322.361 62.6865 329.491 Q62.6865 336.597 64.4921 340.162 Q66.3208 343.704 69.9319 343.704 Q73.5661 343.704 75.3717 340.162 Q77.2004 336.597 77.2004 329.491 Q77.2004 322.361 75.3717 318.82 Q73.5661 315.255 69.9319 315.255 M69.9319 311.551 Q75.742 311.551 78.7976 316.158 Q81.8763 320.741 81.8763 329.491 Q81.8763 338.218 78.7976 342.824 Q75.742 347.407 69.9319 347.407 Q64.1217 347.407 61.043 342.824 Q57.9875 338.218 57.9875 329.491 Q57.9875 320.741 61.043 316.158 Q64.1217 311.551 69.9319 311.551 Z" fill="#000000" fill-rule="nonzero" fill-opacity="1" /><path clip-path="url(#clip510)" d="M90.0938 340.857 L94.978 340.857 L94.978 346.736 L90.0938 346.736 L90.0938 340.857 Z" fill="#000000" fill-rule="nonzero" fill-opacity="1" /><path clip-path="url(#clip510)" d="M103.983 312.176 L126.205 312.176 L126.205 314.167 L113.658 346.736 L108.774 346.736 L120.58 316.111 L103.983 316.111 L103.983 312.176 Z" fill="#000000" fill-rule="nonzero" fill-opacity="1" /><path clip-path="url(#clip510)" d="M135.371 312.176 L153.728 312.176 L153.728 316.111 L139.654 316.111 L139.654 324.583 Q140.672 324.236 141.691 324.074 Q142.709 323.889 143.728 323.889 Q149.515 323.889 152.894 327.06 Q156.274 330.232 156.274 335.648 Q156.274 341.227 152.802 344.329 Q149.33 347.407 143.01 347.407 Q140.834 347.407 138.566 347.037 Q136.32 346.667 133.913 345.926 L133.913 341.227 Q135.996 342.361 138.219 342.917 Q140.441 343.472 142.918 343.472 Q146.922 343.472 149.26 341.366 Q151.598 339.259 151.598 335.648 Q151.598 332.037 149.26 329.931 Q146.922 327.824 142.918 327.824 Q141.043 327.824 139.168 328.241 Q137.316 328.658 135.371 329.537 L135.371 312.176 Z" fill="#000000" fill-rule="nonzero" fill-opacity="1" /><path clip-path="url(#clip510)" d="M59.7467 98.5267 L67.3856 98.5267 L67.3856 72.1611 L59.0754 73.8278 L59.0754 69.5685 L67.3393 67.9019 L72.0152 67.9019 L72.0152 98.5267 L79.654 98.5267 L79.654 102.462 L59.7467 102.462 L59.7467 98.5267 Z" fill="#000000" fill-rule="nonzero" fill-opacity="1" /><path clip-path="url(#clip510)" d="M89.0984 96.5823 L93.9827 96.5823 L93.9827 102.462 L89.0984 102.462 L89.0984 96.5823 Z" fill="#000000" fill-rule="nonzero" fill-opacity="1" /><path clip-path="url(#clip510)" d="M114.168 70.9806 Q110.557 70.9806 108.728 74.5454 Q106.922 78.087 106.922 85.2166 Q106.922 92.3231 108.728 95.8879 Q110.557 99.4295 114.168 99.4295 Q117.802 99.4295 119.608 95.8879 Q121.436 92.3231 121.436 85.2166 Q121.436 78.087 119.608 74.5454 Q117.802 70.9806 114.168 70.9806 M114.168 67.2769 Q119.978 67.2769 123.033 71.8834 Q126.112 76.4667 126.112 85.2166 Q126.112 93.9434 123.033 98.5499 Q119.978 103.133 114.168 103.133 Q108.358 103.133 105.279 98.5499 Q102.223 93.9434 102.223 85.2166 Q102.223 76.4667 105.279 71.8834 Q108.358 67.2769 114.168 67.2769 Z" fill="#000000" fill-rule="nonzero" fill-opacity="1" /><path clip-path="url(#clip510)" d="M144.33 70.9806 Q140.719 70.9806 138.89 74.5454 Q137.084 78.087 137.084 85.2166 Q137.084 92.3231 138.89 95.8879 Q140.719 99.4295 144.33 99.4295 Q147.964 99.4295 149.769 95.8879 Q151.598 92.3231 151.598 85.2166 Q151.598 78.087 149.769 74.5454 Q147.964 70.9806 144.33 70.9806 M144.33 67.2769 Q150.14 67.2769 153.195 71.8834 Q156.274 76.4667 156.274 85.2166 Q156.274 93.9434 153.195 98.5499 Q150.14 103.133 144.33 103.133 Q138.519 103.133 135.441 98.5499 Q132.385 93.9434 132.385 85.2166 Q132.385 76.4667 135.441 71.8834 Q138.519 67.2769 144.33 67.2769 Z" fill="#000000" fill-rule="nonzero" fill-opacity="1" /><polyline clip-path="url(#clip512)" style="stroke:#000000; stroke-linecap:round; stroke-linejoin:round; stroke-width:4; stroke-opacity:1; fill:none" points="777.342,488.912 894.476,468.438 "/>
<polyline clip-path="url(#clip512)" style="stroke:#000000; stroke-linecap:round; stroke-linejoin:round; stroke-width:4; stroke-opacity:1; fill:none" points="875.196,462.672 894.476,468.438 878.295,480.403 "/>
<polyline clip-path="url(#clip512)" style="stroke:#000000; stroke-linecap:round; stroke-linejoin:round; stroke-width:4; stroke-opacity:1; fill:none" points="894.476,468.438 777.342,488.912 "/>
<circle clip-path="url(#clip512)" cx="777.342" cy="488.912" r="14.4" fill="#e26f46" fill-rule="evenodd" fill-opacity="1" stroke="#000000" stroke-opacity="1" stroke-width="2.4"/>
<polyline clip-path="url(#clip512)" style="stroke:#000000; stroke-linecap:round; stroke-linejoin:round; stroke-width:4; stroke-opacity:1; fill:none" points="782.672,680.636 788.417,583.039 "/>
<polyline clip-path="url(#clip512)" style="stroke:#000000; stroke-linecap:round; stroke-linejoin:round; stroke-width:4; stroke-opacity:1; fill:none" points="778.375,600.479 788.417,583.039 796.344,601.537 "/>
<polyline clip-path="url(#clip512)" style="stroke:#000000; stroke-linecap:round; stroke-linejoin:round; stroke-width:4; stroke-opacity:1; fill:none" points="788.417,583.039 782.672,680.636 "/>
<circle clip-path="url(#clip512)" cx="782.672" cy="680.636" r="14.4" fill="#c271d2" fill-rule="evenodd" fill-opacity="1" stroke="#000000" stroke-opacity="1" stroke-width="2.4"/>
<polyline clip-path="url(#clip512)" style="stroke:#000000; stroke-linecap:round; stroke-linejoin:round; stroke-width:4; stroke-opacity:1; fill:none" points="848.435,742.536 912.304,659.872 "/>
<polyline clip-path="url(#clip512)" style="stroke:#000000; stroke-linecap:round; stroke-linejoin:round; stroke-width:4; stroke-opacity:1; fill:none" points="894.177,668.613 912.304,659.872 908.421,679.618 "/>
<polyline clip-path="url(#clip512)" style="stroke:#000000; stroke-linecap:round; stroke-linejoin:round; stroke-width:4; stroke-opacity:1; fill:none" points="912.304,659.872 848.435,742.536 "/>
<circle clip-path="url(#clip512)" cx="848.435" cy="742.536" r="14.4" fill="#00a9ad" fill-rule="evenodd" fill-opacity="1" stroke="#000000" stroke-opacity="1" stroke-width="2.4"/>
<polyline clip-path="url(#clip512)" style="stroke:#000000; stroke-linecap:round; stroke-linejoin:round; stroke-width:4; stroke-opacity:1; fill:none" points="201.967,607.732 317.268,581.227 "/>
<polyline clip-path="url(#clip512)" style="stroke:#000000; stroke-linecap:round; stroke-linejoin:round; stroke-width:4; stroke-opacity:1; fill:none" points="297.71,576.488 317.268,581.227 301.742,594.031 "/>
<polyline clip-path="url(#clip512)" style="stroke:#000000; stroke-linecap:round; stroke-linejoin:round; stroke-width:4; stroke-opacity:1; fill:none" points="317.268,581.227 201.967,607.732 "/>
<circle clip-path="url(#clip512)" cx="201.967" cy="607.732" r="14.4" fill="#c68125" fill-rule="evenodd" fill-opacity="1" stroke="#000000" stroke-opacity="1" stroke-width="2.4"/>
<polyline clip-path="url(#clip512)" style="stroke:#000000; stroke-linecap:round; stroke-linejoin:round; stroke-width:4; stroke-opacity:1; fill:none" points="1015.6,501.797 1125.06,462.108 "/>
<polyline clip-path="url(#clip512)" style="stroke:#000000; stroke-linecap:round; stroke-linejoin:round; stroke-width:4; stroke-opacity:1; fill:none" points="1105.07,459.783 1125.06,462.108 1111.21,476.705 "/>
<polyline clip-path="url(#clip512)" style="stroke:#000000; stroke-linecap:round; stroke-linejoin:round; stroke-width:4; stroke-opacity:1; fill:none" points="1125.06,462.108 1015.6,501.797 "/>
<circle clip-path="url(#clip512)" cx="1015.6" cy="501.797" r="14.4" fill="#8e971d" fill-rule="evenodd" fill-opacity="1" stroke="#000000" stroke-opacity="1" stroke-width="2.4"/>
<polyline clip-path="url(#clip512)" style="stroke:#000000; stroke-linecap:round; stroke-linejoin:round; stroke-width:4; stroke-opacity:1; fill:none" points="484.309,101.367 600.086,76.2797 "/>
<polyline clip-path="url(#clip512)" style="stroke:#000000; stroke-linecap:round; stroke-linejoin:round; stroke-width:4; stroke-opacity:1; fill:none" points="580.589,71.2957 600.086,76.2797 584.4,88.8874 "/>
<polyline clip-path="url(#clip512)" style="stroke:#000000; stroke-linecap:round; stroke-linejoin:round; stroke-width:4; stroke-opacity:1; fill:none" points="600.086,76.2797 484.309,101.367 "/>
<circle clip-path="url(#clip512)" cx="484.309" cy="101.367" r="14.4" fill="#9b7fe8" fill-rule="evenodd" fill-opacity="1" stroke="#000000" stroke-opacity="1" stroke-width="2.4"/>
<polyline clip-path="url(#clip512)" style="stroke:#000000; stroke-linecap:round; stroke-linejoin:round; stroke-width:4; stroke-opacity:1; fill:none" points="609.315,933.357 641.789,839.306 "/>
<polyline clip-path="url(#clip512)" style="stroke:#000000; stroke-linecap:round; stroke-linejoin:round; stroke-width:4; stroke-opacity:1; fill:none" points="627.407,853.383 641.789,839.306 644.421,859.258 "/>
<polyline clip-path="url(#clip512)" style="stroke:#000000; stroke-linecap:round; stroke-linejoin:round; stroke-width:4; stroke-opacity:1; fill:none" points="641.789,839.306 609.315,933.357 "/>
<circle clip-path="url(#clip512)" cx="609.315" cy="933.357" r="14.4" fill="#f05f73" fill-rule="evenodd" fill-opacity="1" stroke="#000000" stroke-opacity="1" stroke-width="2.4"/>
<polyline clip-path="url(#clip512)" style="stroke:#000000; stroke-linecap:round; stroke-linejoin:round; stroke-width:4; stroke-opacity:1; fill:none" points="708.337,364.987 817.996,325.656 "/>
<polyline clip-path="url(#clip512)" style="stroke:#000000; stroke-linecap:round; stroke-linejoin:round; stroke-width:4; stroke-opacity:1; fill:none" points="798.015,323.262 817.996,325.656 804.091,340.205 "/>
<polyline clip-path="url(#clip512)" style="stroke:#000000; stroke-linecap:round; stroke-linejoin:round; stroke-width:4; stroke-opacity:1; fill:none" points="817.996,325.656 708.337,364.987 "/>
<circle clip-path="url(#clip512)" cx="708.337" cy="364.987" r="14.4" fill="#6b9e32" fill-rule="evenodd" fill-opacity="1" stroke="#000000" stroke-opacity="1" stroke-width="2.4"/>
<polyline clip-path="url(#clip512)" style="stroke:#000000; stroke-linecap:round; stroke-linejoin:round; stroke-width:4; stroke-opacity:1; fill:none" points="850.055,757.965 911.105,673.896 "/>
<polyline clip-path="url(#clip512)" style="stroke:#000000; stroke-linecap:round; stroke-linejoin:round; stroke-width:4; stroke-opacity:1; fill:none" points="893.246,683.172 911.105,673.896 907.811,693.749 "/>
<polyline clip-path="url(#clip512)" style="stroke:#000000; stroke-linecap:round; stroke-linejoin:round; stroke-width:4; stroke-opacity:1; fill:none" points="911.105,673.896 850.055,757.965 "/>
<circle clip-path="url(#clip512)" cx="850.055" cy="757.965" r="14.4" fill="#e26f46" fill-rule="evenodd" fill-opacity="1" stroke="#000000" stroke-opacity="1" stroke-width="2.4"/>
<polyline clip-path="url(#clip512)" style="stroke:#000000; stroke-linecap:round; stroke-linejoin:round; stroke-width:4; stroke-opacity:1; fill:none" points="616.192,1044.13 625.621,946.726 "/>
<polyline clip-path="url(#clip512)" style="stroke:#000000; stroke-linecap:round; stroke-linejoin:round; stroke-width:4; stroke-opacity:1; fill:none" points="614.929,963.775 625.621,946.726 632.845,965.509 "/>
<polyline clip-path="url(#clip512)" style="stroke:#000000; stroke-linecap:round; stroke-linejoin:round; stroke-width:4; stroke-opacity:1; fill:none" points="625.621,946.726 616.192,1044.13 "/>
<circle clip-path="url(#clip512)" cx="616.192" cy="1044.13" r="14.4" fill="#c271d2" fill-rule="evenodd" fill-opacity="1" stroke="#000000" stroke-opacity="1" stroke-width="2.4"/>
</svg>
