<?xml version="1.0" encoding="utf-8"?>
<svg xmlns="http://www.w3.org/2000/svg" xmlns:xlink="http://www.w3.org/1999/xlink" width="300" height="300" viewBox="0 0 1200 1200">
<defs>
  <clipPath id="clip090">
    <rect x="0" y="0" width="1200" height="1200"/>
  </clipPath>
</defs>
<path clip-path="url(#clip090)" d="M0 1200 L1200 1200 L1200 0 L0 0  Z" fill="#ffffff" fill-rule="evenodd" fill-opacity="1"/>
<defs>
  <clipPath id="clip091">
    <rect x="240" y="120" width="841" height="841"/>
  </clipPath>
</defs>
<path clip-path="url(#clip090)" d="M136.057 1073.17 L1152.76 1073.17 L1152.76 47.2441 L136.057 47.2441  Z" fill="#ffffff" fill-rule="evenodd" fill-opacity="1"/>
<defs>
  <clipPath id="clip092">
    <rect x="136" y="47" width="1018" height="1027"/>
  </clipPath>
</defs>
<polyline clip-path="url(#clip092)" style="stroke:#000000; stroke-linecap:round; stroke-linejoin:round; stroke-width:2; stroke-opacity:0.1; fill:none" points="159.21,1073.17 159.21,47.2441 "/>
<polyline clip-path="url(#clip092)" style="stroke:#000000; stroke-linecap:round; stroke-linejoin:round; stroke-width:2; stroke-opacity:0.1; fill:none" points="367.971,1073.17 367.971,47.2441 "/>
<polyline clip-path="url(#clip092)" style="stroke:#000000; stroke-linecap:round; stroke-linejoin:round; stroke-width:2; stroke-opacity:0.1; fill:none" points="576.731,1073.17 576.731,47.2441 "/>
<polyline clip-path="url(#clip092)" style="stroke:#000000; stroke-linecap:round; stroke-linejoin:round; stroke-width:2; stroke-opacity:0.1; fill:none" points="785.492,1073.17 785.492,47.2441 "/>
<polyline clip-path="url(#clip092)" style="stroke:#000000; stroke-linecap:round; stroke-linejoin:round; stroke-width:2; stroke-opacity:0.1; fill:none" points="994.252,1073.17 994.252,47.2441 "/>
<polyline clip-path="url(#clip090)" style="stroke:#000000; stroke-linecap:round; stroke-linejoin:round; stroke-width:4; stroke-opacity:1; fill:none" points="136.057,1073.17 1152.76,1073.17 "/>
<polyline clip-path="url(#clip090)" style="stroke:#000000; stroke-linecap:round; stroke-linejoin:round; stroke-width:4; stroke-opacity:1; fill:none" points="159.21,1073.17 159.21,1054.27 "/>
<polyline clip-path="url(#clip090)" style="stroke:#000000; stroke-linecap:round; stroke-linejoin:round; stroke-width:4; stroke-opacity:1; fill:none" points="367.971,1073.17 367.971,1054.27 "/>
<polyline clip-path="url(#clip090)" style="stroke:#000000; stroke-linecap:round; stroke-linejoin:round; stroke-width:4; stroke-opacity:1; fill:none" points="576.731,1073.17 576.731,1054.27 "/>
<polyline clip-path="url(#clip090)" style="stroke:#000000; stroke-linecap:round; stroke-linejoin:round; stroke-width:4; stroke-opacity:1; fill:none" points="785.492,1073.17 785.492,1054.27 "/>
<polyline clip-path="url(#clip090)" style="stroke:#000000; stroke-linecap:round; stroke-linejoin:round; stroke-width:4; stroke-opacity:1; fill:none" points="994.252,1073.17 994.252,1054.27 "/>
<path clip-path="url(#clip090)" d="M128.111 1109.14 L157.787 1109.14 L157.787 1113.07 L128.111 1113.07 L128.111 1109.14 Z" fill="#000000" fill-rule="nonzero" fill-opacity="1" /><path clip-path="url(#clip090)" d="M180.726 1095.48 L168.921 1113.93 L180.726 1113.93 L180.726 1095.48 M179.5 1091.41 L185.379 1091.41 L185.379 1113.93 L190.31 1113.93 L190.31 1117.82 L185.379 1117.82 L185.379 1125.97 L180.726 1125.97 L180.726 1117.82 L165.125 1117.82 L165.125 1113.31 L179.5 1091.41 Z" fill="#000000" fill-rule="nonzero" fill-opacity="1" /><path clip-path="url(#clip090)" d="M337.913 1109.14 L367.589 1109.14 L367.589 1113.07 L337.913 1113.07 L337.913 1109.14 Z" fill="#000000" fill-rule="nonzero" fill-opacity="1" /><path clip-path="url(#clip090)" d="M381.709 1122.03 L398.029 1122.03 L398.029 1125.97 L376.084 1125.97 L376.084 1122.03 Q378.746 1119.28 383.33 1114.65 Q387.936 1110 389.117 1108.65 Q391.362 1106.13 392.241 1104.39 Q393.144 1102.63 393.144 1100.94 Q393.144 1098.19 391.2 1096.45 Q389.279 1094.72 386.177 1094.72 Q383.978 1094.72 381.524 1095.48 Q379.093 1096.25 376.316 1097.8 L376.316 1093.07 Q379.14 1091.94 381.593 1091.36 Q384.047 1090.78 386.084 1090.78 Q391.454 1090.78 394.649 1093.47 Q397.843 1096.15 397.843 1100.64 Q397.843 1102.77 397.033 1104.69 Q396.246 1106.59 394.14 1109.19 Q393.561 1109.86 390.459 1113.07 Q387.357 1116.27 381.709 1122.03 Z" fill="#000000" fill-rule="nonzero" fill-opacity="1" /><path clip-path="url(#clip090)" d="M576.731 1094.49 Q573.12 1094.49 571.291 1098.05 Q569.486 1101.59 569.486 1108.72 Q569.486 1115.83 571.291 1119.39 Q573.12 1122.94 576.731 1122.94 Q580.366 1122.94 582.171 1119.39 Q584 1115.83 584 1108.72 Q584 1101.59 582.171 1098.05 Q580.366 1094.49 576.731 1094.49 M576.731 1090.78 Q582.541 1090.78 585.597 1095.39 Q588.676 1099.97 588.676 1108.72 Q588.676 1117.45 585.597 1122.06 Q582.541 1126.64 576.731 1126.64 Q570.921 1126.64 567.842 1122.06 Q564.787 1117.45 564.787 1108.72 Q564.787 1099.97 567.842 1095.39 Q570.921 1090.78 576.731 1090.78 Z" fill="#000000" fill-rule="nonzero" fill-opacity="1" /><path clip-path="url(#clip090)" d="M780.145 1122.03 L796.464 1122.03 L796.464 1125.97 L774.52 1125.97 L774.52 1122.03 Q777.182 1119.28 781.765 1114.65 Q786.371 1110 787.552 1108.65 Q789.797 1106.13 790.677 1104.39 Q791.58 1102.63 791.58 1100.94 Q791.58 1098.19 789.635 1096.45 Q787.714 1094.72 784.612 1094.72 Q782.413 1094.72 779.959 1095.48 Q777.529 1096.25 774.751 1097.8 L774.751 1093.07 Q777.575 1091.94 780.029 1091.36 Q782.482 1090.78 784.52 1090.78 Q789.89 1090.78 793.084 1093.47 Q796.279 1096.15 796.279 1100.64 Q796.279 1102.77 795.469 1104.69 Q794.682 1106.59 792.575 1109.19 Q791.996 1109.86 788.894 1113.07 Q785.793 1116.27 780.145 1122.03 Z" fill="#000000" fill-rule="nonzero" fill-opacity="1" /><path clip-path="url(#clip090)" d="M997.261 1095.48 L985.456 1113.93 L997.261 1113.93 L997.261 1095.48 M996.035 1091.41 L1001.91 1091.41 L1001.91 1113.93 L1006.84 1113.93 L1006.84 1117.82 L1001.91 1117.82 L1001.91 1125.97 L997.261 1125.97 L997.261 1117.82 L981.66 1117.82 L981.66 1113.31 L996.035 1091.41 Z" fill="#000000" fill-rule="nonzero" fill-opacity="1" /><polyline clip-path="url(#clip092)" style="stroke:#000000; stroke-linecap:round; stroke-linejoin:round; stroke-width:2; stroke-opacity:0.1; fill:none" points="136.057,1046.39 1152.76,1046.39 "/>
<polyline clip-path="url(#clip092)" style="stroke:#000000; stroke-linecap:round; stroke-linejoin:round; stroke-width:2; stroke-opacity:0.1; fill:none" points="136.057,884.713 1152.76,884.713 "/>
<polyline clip-path="url(#clip092)" style="stroke:#000000; stroke-linecap:round; stroke-linejoin:round; stroke-width:2; stroke-opacity:0.1; fill:none" points="136.057,723.038 1152.76,723.038 "/>
<polyline clip-path="url(#clip092)" style="stroke:#000000; stroke-linecap:round; stroke-linejoin:round; stroke-width:2; stroke-opacity:0.1; fill:none" points="136.057,561.362 1152.76,561.362 "/>
<polyline clip-path="url(#clip092)" style="stroke:#000000; stroke-linecap:round; stroke-linejoin:round; stroke-width:2; stroke-opacity:0.1; fill:none" points="136.057,399.686 1152.76,399.686 "/>
<polyline clip-path="url(#clip092)" style="stroke:#000000; stroke-linecap:round; stroke-linejoin:round; stroke-width:2; stroke-opacity:0.1; fill:none" points="136.057,238.01 1152.76,238.01 "/>
<polyline clip-path="url(#clip092)" style="stroke:#000000; stroke-linecap:round; stroke-linejoin:round; stroke-width:2; stroke-opacity:0.1; fill:none" points="136.057,76.3345 1152.76,76.3345 "/>
<polyline clip-path="url(#clip090)" style="stroke:#000000; stroke-linecap:round; stroke-linejoin:round; stroke-width:4; stroke-opacity:1; fill:none" points="136.057,1073.17 136.057,47.2441 "/>
<polyline clip-path="url(#clip090)" style="stroke:#000000; stroke-linecap:round; stroke-linejoin:round; stroke-width:4; stroke-opacity:1; fill:none" points="136.057,1046.39 154.954,1046.39 "/>
<polyline clip-path="url(#clip090)" style="stroke:#000000; stroke-linecap:round; stroke-linejoin:round; stroke-width:4; stroke-opacity:1; fill:none" points="136.057,884.713 154.954,884.713 "/>
<polyline clip-path="url(#clip090)" style="stroke:#000000; stroke-linecap:round; stroke-linejoin:round; stroke-width:4; stroke-opacity:1; fill:none" points="136.057,723.038 154.954,723.038 "/>
<polyline clip-path="url(#clip090)" style="stroke:#000000; stroke-linecap:round; stroke-linejoin:round; stroke-width:4; stroke-opacity:1; fill:none" points="136.057,561.362 154.954,561.362 "/>
<polyline clip-path="url(#clip090)" style="stroke:#000000; stroke-linecap:round; stroke-linejoin:round; stroke-width:4; stroke-opacity:1; fill:none" points="136.057,399.686 154.954,399.686 "/>
<polyline clip-path="url(#clip090)" style="stroke:#000000; stroke-linecap:round; stroke-linejoin:round; stroke-width:4; stroke-opacity:1; fill:none" points="136.057,238.01 154.954,238.01 "/>
<polyline clip-path="url(#clip090)" style="stroke:#000000; stroke-linecap:round; stroke-linejoin:round; stroke-width:4; stroke-opacity:1; fill:none" points="136.057,76.3345 154.954,76.3345 "/>
<path clip-path="url(#clip090)" d="M56.9921 1046.84 L86.6679 1046.84 L86.6679 1050.78 L56.9921 1050.78 L56.9921 1046.84 Z" fill="#000000" fill-rule="nonzero" fill-opacity="1" /><path clip-path="url(#clip090)" d="M110.927 1045.04 Q114.283 1045.75 116.158 1048.02 Q118.057 1050.29 118.057 1053.62 Q118.057 1058.74 114.538 1061.54 Q111.02 1064.34 104.538 1064.34 Q102.362 1064.34 100.047 1063.9 Q97.7558 1063.48 95.3021 1062.63 L95.3021 1058.11 Q97.2465 1059.25 99.5613 1059.83 Q101.876 1060.41 104.399 1060.41 Q108.797 1060.41 111.089 1058.67 Q113.404 1056.93 113.404 1053.62 Q113.404 1050.57 111.251 1048.85 Q109.121 1047.12 105.302 1047.12 L101.274 1047.12 L101.274 1043.28 L105.487 1043.28 Q108.936 1043.28 110.765 1041.91 Q112.594 1040.52 112.594 1037.93 Q112.594 1035.27 110.696 1033.85 Q108.821 1032.42 105.302 1032.42 Q103.381 1032.42 101.182 1032.84 Q98.9826 1033.25 96.3438 1034.13 L96.3438 1029.97 Q99.0058 1029.23 101.321 1028.85 Q103.659 1028.48 105.719 1028.48 Q111.043 1028.48 114.145 1030.91 Q117.246 1033.32 117.246 1037.44 Q117.246 1040.31 115.603 1042.3 Q113.959 1044.27 110.927 1045.04 Z" fill="#000000" fill-rule="nonzero" fill-opacity="1" /><path clip-path="url(#clip090)" d="M57.9412 885.165 L87.617 885.165 L87.617 889.1 L57.9412 889.1 L57.9412 885.165 Z" fill="#000000" fill-rule="nonzero" fill-opacity="1" /><path clip-path="url(#clip090)" d="M101.737 898.058 L118.057 898.058 L118.057 901.993 L96.1123 901.993 L96.1123 898.058 Q98.7743 895.304 103.358 890.674 Q107.964 886.021 109.145 884.679 Q111.39 882.156 112.27 880.42 Q113.172 878.66 113.172 876.97 Q113.172 874.216 111.228 872.48 Q109.307 870.744 106.205 870.744 Q104.006 870.744 101.552 871.508 Q99.1215 872.271 96.3438 873.822 L96.3438 869.1 Q99.1678 867.966 101.622 867.387 Q104.075 866.808 106.112 866.808 Q111.483 866.808 114.677 869.494 Q117.871 872.179 117.871 876.67 Q117.871 878.799 117.061 880.72 Q116.274 882.619 114.168 885.211 Q113.589 885.882 110.487 889.1 Q107.385 892.294 101.737 898.058 Z" fill="#000000" fill-rule="nonzero" fill-opacity="1" /><path clip-path="url(#clip090)" d="M57.5708 723.489 L87.2466 723.489 L87.2466 727.424 L57.5708 727.424 L57.5708 723.489 Z" fill="#000000" fill-rule="nonzero" fill-opacity="1" /><path clip-path="url(#clip090)" d="M98.1493 736.383 L105.788 736.383 L105.788 710.017 L97.478 711.684 L97.478 707.424 L105.742 705.758 L110.418 705.758 L110.418 736.383 L118.057 736.383 L118.057 740.318 L98.1493 740.318 L98.1493 736.383 Z" fill="#000000" fill-rule="nonzero" fill-opacity="1" /><path clip-path="url(#clip090)" d="M106.112 547.161 Q102.501 547.161 100.672 550.725 Q98.8669 554.267 98.8669 561.397 Q98.8669 568.503 100.672 572.068 Q102.501 575.609 106.112 575.609 Q109.746 575.609 111.552 572.068 Q113.381 568.503 113.381 561.397 Q113.381 554.267 111.552 550.725 Q109.746 547.161 106.112 547.161 M106.112 543.457 Q111.922 543.457 114.978 548.063 Q118.057 552.647 118.057 561.397 Q118.057 570.123 114.978 574.73 Q111.922 579.313 106.112 579.313 Q100.302 579.313 97.2234 574.73 Q94.1679 570.123 94.1679 561.397 Q94.1679 552.647 97.2234 548.063 Q100.302 543.457 106.112 543.457 Z" fill="#000000" fill-rule="nonzero" fill-opacity="1" /><path clip-path="url(#clip090)" d="M98.1493 413.031 L105.788 413.031 L105.788 386.665 L97.478 388.332 L97.478 384.073 L105.742 382.406 L110.418 382.406 L110.418 413.031 L118.057 413.031 L118.057 416.966 L98.1493 416.966 L98.1493 413.031 Z" fill="#000000" fill-rule="nonzero" fill-opacity="1" /><path clip-path="url(#clip090)" d="M101.737 251.355 L118.057 251.355 L118.057 255.29 L96.1123 255.29 L96.1123 251.355 Q98.7743 248.601 103.358 243.971 Q107.964 239.318 109.145 237.976 Q111.39 235.452 112.27 233.716 Q113.172 231.957 113.172 230.267 Q113.172 227.513 111.228 225.777 Q109.307 224.04 106.205 224.04 Q104.006 224.04 101.552 224.804 Q99.1215 225.568 96.3438 227.119 L96.3438 222.397 Q99.1678 221.263 101.622 220.684 Q104.075 220.105 106.112 220.105 Q111.483 220.105 114.677 222.79 Q117.871 225.476 117.871 229.966 Q117.871 232.096 117.061 234.017 Q116.274 235.915 114.168 238.508 Q113.589 239.179 110.487 242.397 Q107.385 245.591 101.737 251.355 Z" fill="#000000" fill-rule="nonzero" fill-opacity="1" /><path clip-path="url(#clip090)" d="M110.927 74.9804 Q114.283 75.6979 116.158 77.9664 Q118.057 80.235 118.057 83.5683 Q118.057 88.684 114.538 91.4849 Q111.02 94.2858 104.538 94.2858 Q102.362 94.2858 100.047 93.846 Q97.7558 93.4293 95.3021 92.5728 L95.3021 88.059 Q97.2465 89.1932 99.5613 89.7719 Q101.876 90.3506 104.399 90.3506 Q108.797 90.3506 111.089 88.6145 Q113.404 86.8784 113.404 83.5683 Q113.404 80.5127 111.251 78.7998 Q109.121 77.0637 105.302 77.0637 L101.274 77.0637 L101.274 73.2211 L105.487 73.2211 Q108.936 73.2211 110.765 71.8554 Q112.594 70.4665 112.594 67.8739 Q112.594 65.2119 110.696 63.7999 Q108.821 62.3647 105.302 62.3647 Q103.381 62.3647 101.182 62.7813 Q98.9826 63.198 96.3438 64.0776 L96.3438 59.911 Q99.0058 59.1703 101.321 58.7999 Q103.659 58.4295 105.719 58.4295 Q111.043 58.4295 114.145 60.8601 Q117.246 63.2675 117.246 67.3878 Q117.246 70.2582 115.603 72.2489 Q113.959 74.2165 110.927 74.9804 Z" fill="#000000" fill-rule="nonzero" fill-opacity="1" /><polyline clip-path="url(#clip092)" style="stroke:#000000; stroke-linecap:round; stroke-linejoin:round; stroke-width:4; stroke-opacity:1; fill:none" points="1060.46,876.25 1123.98,910.436 "/>
<polyline clip-path="url(#clip092)" style="stroke:#000000; stroke-linecap:round; stroke-linejoin:round; stroke-width:4; stroke-opacity:1; fill:none" points="1112.4,893.98 1123.98,910.436 1103.87,909.83 "/>
<polyline clip-path="url(#clip092)" style="stroke:#000000; stroke-linecap:round; stroke-linejoin:round; stroke-width:4; stroke-opacity:1; fill:none" points="1123.98,910.436 1060.46,876.25 "/>
<circle clip-path="url(#clip092)" cx="1060.46" cy="876.25" r="14.4" fill="#e26f46" fill-rule="evenodd" fill-opacity="1" stroke="#000000" stroke-opacity="1" stroke-width="2.4"/>
<polyline clip-path="url(#clip092)" style="stroke:#000000; stroke-linecap:round; stroke-linejoin:round; stroke-width:4; stroke-opacity:1; fill:none" points="738.613,241.487 787.382,169.781 "/>
<polyline clip-path="url(#clip092)" style="stroke:#000000; stroke-linecap:round; stroke-linejoin:round; stroke-width:4; stroke-opacity:1; fill:none" points="769.817,179.603 787.382,169.781 784.701,189.726 "/>
<polyline clip-path="url(#clip092)" style="stroke:#000000; stroke-linecap:round; stroke-linejoin:round; stroke-width:4; stroke-opacity:1; fill:none" points="787.382,169.781 738.613,241.487 "/>
<circle clip-path="url(#clip092)" cx="738.613" cy="241.487" r="14.4" fill="#c271d2" fill-rule="evenodd" fill-opacity="1" stroke="#000000" stroke-opacity="1" stroke-width="2.4"/>
<polyline clip-path="url(#clip092)" style="stroke:#000000; stroke-linecap:round; stroke-linejoin:round; stroke-width:4; stroke-opacity:1; fill:none" points="603.615,974.321 617.401,872.381 "/>
<polyline clip-path="url(#clip092)" style="stroke:#000000; stroke-linecap:round; stroke-linejoin:round; stroke-width:4; stroke-opacity:1; fill:none" points="614.946,957.69 603.615,974.321 597.109,955.277 "/>
<polyline clip-path="url(#clip092)" style="stroke:#000000; stroke-linecap:round; stroke-linejoin:round; stroke-width:4; stroke-opacity:1; fill:none" points="603.615,974.321 617.401,872.381 "/>
<circle clip-path="url(#clip092)" cx="617.401" cy="872.381" r="14.4" fill="#00a9ad" fill-rule="evenodd" fill-opacity="1" stroke="#000000" stroke-opacity="1" stroke-width="2.4"/>
<polyline clip-path="url(#clip092)" style="stroke:#000000; stroke-linecap:round; stroke-linejoin:round; stroke-width:4; stroke-opacity:1; fill:none" points="565.67,132.8 572.993,236.333 "/>
<polyline clip-path="url(#clip092)" style="stroke:#000000; stroke-linecap:round; stroke-linejoin:round; stroke-width:4; stroke-opacity:1; fill:none" points="557.962,151.391 565.67,132.8 575.917,150.121 "/>
<polyline clip-path="url(#clip092)" style="stroke:#000000; stroke-linecap:round; stroke-linejoin:round; stroke-width:4; stroke-opacity:1; fill:none" points="565.67,132.8 572.993,236.333 "/>
<circle clip-path="url(#clip092)" cx="572.993" cy="236.333" r="14.4" fill="#c68125" fill-rule="evenodd" fill-opacity="1" stroke="#000000" stroke-opacity="1" stroke-width="2.4"/>
<polyline clip-path="url(#clip092)" style="stroke:#000000; stroke-linecap:round; stroke-linejoin:round; stroke-width:4; stroke-opacity:1; fill:none" points="618.705,204.118 628.787,101.143 "/>
<polyline clip-path="url(#clip092)" style="stroke:#000000; stroke-linecap:round; stroke-linejoin:round; stroke-width:4; stroke-opacity:1; fill:none" points="618.076,118.18 628.787,101.143 635.99,119.934 "/>
<polyline clip-path="url(#clip092)" style="stroke:#000000; stroke-linecap:round; stroke-linejoin:round; stroke-width:4; stroke-opacity:1; fill:none" points="628.787,101.143 618.705,204.118 "/>
<circle clip-path="url(#clip092)" cx="618.705" cy="204.118" r="14.4" fill="#8e971d" fill-rule="evenodd" fill-opacity="1" stroke="#000000" stroke-opacity="1" stroke-width="2.4"/>
<polyline clip-path="url(#clip092)" style="stroke:#000000; stroke-linecap:round; stroke-linejoin:round; stroke-width:4; stroke-opacity:1; fill:none" points="693.693,144.482 744.512,76.2797 "/>
<polyline clip-path="url(#clip092)" style="stroke:#000000; stroke-linecap:round; stroke-linejoin:round; stroke-width:4; stroke-opacity:1; fill:none" points="726.541,85.3359 744.512,76.2797 740.974,96.0908 "/>
<polyline clip-path="url(#clip092)" style="stroke:#000000; stroke-linecap:round; stroke-linejoin:round; stroke-width:4; stroke-opacity:1; fill:none" points="744.512,76.2797 693.693,144.482 "/>
<circle clip-path="url(#clip092)" cx="693.693" cy="144.482" r="14.4" fill="#9b7fe8" fill-rule="evenodd" fill-opacity="1" stroke="#000000" stroke-opacity="1" stroke-width="2.4"/>
<polyline clip-path="url(#clip092)" style="stroke:#000000; stroke-linecap:round; stroke-linejoin:round; stroke-width:4; stroke-opacity:1; fill:none" points="597.509,1044.13 605.479,940.714 "/>
<polyline clip-path="url(#clip092)" style="stroke:#000000; stroke-linecap:round; stroke-linejoin:round; stroke-width:4; stroke-opacity:1; fill:none" points="607.866,1026.88 597.509,1044.13 589.919,1025.49 "/>
<polyline clip-path="url(#clip092)" style="stroke:#000000; stroke-linecap:round; stroke-linejoin:round; stroke-width:4; stroke-opacity:1; fill:none" points="597.509,1044.13 605.479,940.714 "/>
<circle clip-path="url(#clip092)" cx="605.479" cy="940.714" r="14.4" fill="#f05f73" fill-rule="evenodd" fill-opacity="1" stroke="#000000" stroke-opacity="1" stroke-width="2.4"/>
<polyline clip-path="url(#clip092)" style="stroke:#000000; stroke-linecap:round; stroke-linejoin:round; stroke-width:4; stroke-opacity:1; fill:none" points="904.192,818.156 959.267,877.909 "/>
<polyline clip-path="url(#clip092)" style="stroke:#000000; stroke-linecap:round; stroke-linejoin:round; stroke-width:4; stroke-opacity:1; fill:none" points="953.686,858.574 959.267,877.909 940.45,870.773 "/>
<polyline clip-path="url(#clip092)" style="stroke:#000000; stroke-linecap:round; stroke-linejoin:round; stroke-width:4; stroke-opacity:1; fill:none" points="959.267,877.909 904.192,818.156 "/>
<circle clip-path="url(#clip092)" cx="904.192" cy="818.156" r="14.4" fill="#6b9e32" fill-rule="evenodd" fill-opacity="1" stroke="#000000" stroke-opacity="1" stroke-width="2.4"/>
<polyline clip-path="url(#clip092)" style="stroke:#000000; stroke-linecap:round; stroke-linejoin:round; stroke-width:4; stroke-opacity:1; fill:none" points="164.831,550.642 229.68,578.184 "/>
<polyline clip-path="url(#clip092)" style="stroke:#000000; stroke-linecap:round; stroke-linejoin:round; stroke-width:4; stroke-opacity:1; fill:none" points="177.881,565.962 164.831,550.642 184.917,549.395 "/>
<polyline clip-path="url(#clip092)" style="stroke:#000000; stroke-linecap:round; stroke-linejoin:round; stroke-width:4; stroke-opacity:1; fill:none" points="164.831,550.642 229.68,578.184 "/>
<circle clip-path="url(#clip092)" cx="229.68" cy="578.184" r="14.4" fill="#e26f46" fill-rule="evenodd" fill-opacity="1" stroke="#000000" stroke-opacity="1" stroke-width="2.4"/>
<polyline clip-path="url(#clip092)" style="stroke:#000000; stroke-linecap:round; stroke-linejoin:round; stroke-width:4; stroke-opacity:1; fill:none" points="686.258,783.865 725.79,868.117 "/>
<polyline clip-path="url(#clip092)" style="stroke:#000000; stroke-linecap:round; stroke-linejoin:round; stroke-width:4; stroke-opacity:1; fill:none" points="726.291,847.998 725.79,868.117 709.996,855.644 "/>
<polyline clip-path="url(#clip092)" style="stroke:#000000; stroke-linecap:round; stroke-linejoin:round; stroke-width:4; stroke-opacity:1; fill:none" points="725.79,868.117 686.258,783.865 "/>
<circle clip-path="url(#clip092)" cx="686.258" cy="783.865" r="14.4" fill="#c271d2" fill-rule="evenodd" fill-opacity="1" stroke="#000000" stroke-opacity="1" stroke-width="2.4"/>
</svg>
