<?xml version="1.0" encoding="utf-8"?>
<svg xmlns="http://www.w3.org/2000/svg" xmlns:xlink="http://www.w3.org/1999/xlink" width="300" height="300" viewBox="0 0 1200 1200">
<defs>
  <clipPath id="clip690">
    <rect x="0" y="0" width="1200" height="1200"/>
  </clipPath>
</defs>
<path clip-path="url(#clip690)" d="M0 1200 L1200 1200 L1200 0 L0 0  Z" fill="#ffffff" fill-rule="evenodd" fill-opacity="1"/>
<defs>
  <clipPath id="clip691">
    <rect x="240" y="120" width="841" height="841"/>
  </clipPath>
</defs>
<path clip-path="url(#clip690)" d="M181.936 1073.17 L1152.76 1073.17 L1152.76 47.2441 L181.936 47.2441  Z" fill="#ffffff" fill-rule="evenodd" fill-opacity="1"/>
<defs>
  <clipPath id="clip692">
    <rect x="181" y="47" width="972" height="1027"/>
  </clipPath>
</defs>
<polyline clip-path="url(#clip692)" style="stroke:#000000; stroke-linecap:round; stroke-linejoin:round; stroke-width:2; stroke-opacity:0.1; fill:none" points="303.863,1073.17 303.863,47.2441 "/>
<polyline clip-path="url(#clip692)" style="stroke:#000000; stroke-linecap:round; stroke-linejoin:round; stroke-width:2; stroke-opacity:0.1; fill:none" points="434.273,1073.17 434.273,47.2441 "/>
<polyline clip-path="url(#clip692)" style="stroke:#000000; stroke-linecap:round; stroke-linejoin:round; stroke-width:2; stroke-opacity:0.1; fill:none" points="564.683,1073.17 564.683,47.2441 "/>
<polyline clip-path="url(#clip692)" style="stroke:#000000; stroke-linecap:round; stroke-linejoin:round; stroke-width:2; stroke-opacity:0.1; fill:none" points="695.093,1073.17 695.093,47.2441 "/>
<polyline clip-path="url(#clip692)" style="stroke:#000000; stroke-linecap:round; stroke-linejoin:round; stroke-width:2; stroke-opacity:0.1; fill:none" points="825.504,1073.17 825.504,47.2441 "/>
<polyline clip-path="url(#clip692)" style="stroke:#000000; stroke-linecap:round; stroke-linejoin:round; stroke-width:2; stroke-opacity:0.1; fill:none" points="955.914,1073.17 955.914,47.2441 "/>
<polyline clip-path="url(#clip692)" style="stroke:#000000; stroke-linecap:round; stroke-linejoin:round; stroke-width:2; stroke-opacity:0.1; fill:none" points="1086.32,1073.17 1086.32,47.2441 "/>
<polyline clip-path="url(#clip690)" style="stroke:#000000; stroke-linecap:round; stroke-linejoin:round; stroke-width:4; stroke-opacity:1; fill:none" points="181.936,1073.17 1152.76,1073.17 "/>
<polyline clip-path="url(#clip690)" style="stroke:#000000; stroke-linecap:round; stroke-linejoin:round; stroke-width:4; stroke-opacity:1; fill:none" points="303.863,1073.17 303.863,1054.27 "/>
<polyline clip-path="url(#clip690)" style="stroke:#000000; stroke-linecap:round; stroke-linejoin:round; stroke-width:4; stroke-opacity:1; fill:none" points="434.273,1073.17 434.273,1054.27 "/>
<polyline clip-path="url(#clip690)" style="stroke:#000000; stroke-linecap:round; stroke-linejoin:round; stroke-width:4; stroke-opacity:1; fill:none" points="564.683,1073.17 564.683,1054.27 "/>
<polyline clip-path="url(#clip690)" style="stroke:#000000; stroke-linecap:round; stroke-linejoin:round; stroke-width:4; stroke-opacity:1; fill:none" points="695.093,1073.17 695.093,1054.27 "/>
<polyline clip-path="url(#clip690)" style="stroke:#000000; stroke-linecap:round; stroke-linejoin:round; stroke-width:4; stroke-opacity:1; fill:none" points="825.504,1073.17 825.504,1054.27 "/>
<polyline clip-path="url(#clip690)" style="stroke:#000000; stroke-linecap:round; stroke-linejoin:round; stroke-width:4; stroke-opacity:1; fill:none" points="955.914,1073.17 955.914,1054.27 "/>
<polyline clip-path="url(#clip690)" style="stroke:#000000; stroke-linecap:round; stroke-linejoin:round; stroke-width:4; stroke-opacity:1; fill:none" points="1086.32,1073.17 1086.32,1054.27 "/>
<path clip-path="url(#clip690)" d="M250.888 1109.14 L280.564 1109.14 L280.564 1113.07 L250.888 1113.07 L250.888 1109.14 Z" fill="#000000" fill-rule="nonzero" fill-opacity="1" /><path clip-path="url(#clip690)" d="M300.657 1094.49 Q297.045 1094.49 295.217 1098.05 Q293.411 1101.59 293.411 1108.72 Q293.411 1115.83 295.217 1119.39 Q297.045 1122.94 300.657 1122.94 Q304.291 1122.94 306.096 1119.39 Q307.925 1115.83 307.925 1108.72 Q307.925 1101.59 306.096 1098.05 Q304.291 1094.49 300.657 1094.49 M300.657 1090.78 Q306.467 1090.78 309.522 1095.39 Q312.601 1099.97 312.601 1108.72 Q312.601 1117.45 309.522 1122.06 Q306.467 1126.64 300.657 1126.64 Q294.846 1126.64 291.768 1122.06 Q288.712 1117.45 288.712 1108.72 Q288.712 1099.97 291.768 1095.39 Q294.846 1090.78 300.657 1090.78 Z" fill="#000000" fill-rule="nonzero" fill-opacity="1" /><path clip-path="url(#clip690)" d="M320.818 1120.09 L325.703 1120.09 L325.703 1125.97 L320.818 1125.97 L320.818 1120.09 Z" fill="#000000" fill-rule="nonzero" fill-opacity="1" /><path clip-path="url(#clip690)" d="M335.934 1091.41 L354.29 1091.41 L354.29 1095.34 L340.216 1095.34 L340.216 1103.82 Q341.235 1103.47 342.254 1103.31 Q343.272 1103.12 344.291 1103.12 Q350.078 1103.12 353.457 1106.29 Q356.837 1109.46 356.837 1114.88 Q356.837 1120.46 353.365 1123.56 Q349.892 1126.64 343.573 1126.64 Q341.397 1126.64 339.129 1126.27 Q336.883 1125.9 334.476 1125.16 L334.476 1120.46 Q336.559 1121.59 338.781 1122.15 Q341.004 1122.7 343.48 1122.7 Q347.485 1122.7 349.823 1120.6 Q352.161 1118.49 352.161 1114.88 Q352.161 1111.27 349.823 1109.16 Q347.485 1107.06 343.48 1107.06 Q341.605 1107.06 339.73 1107.47 Q337.879 1107.89 335.934 1108.77 L335.934 1091.41 Z" fill="#000000" fill-rule="nonzero" fill-opacity="1" /><path clip-path="url(#clip690)" d="M411.657 1094.49 Q408.046 1094.49 406.217 1098.05 Q404.412 1101.59 404.412 1108.72 Q404.412 1115.83 406.217 1119.39 Q408.046 1122.94 411.657 1122.94 Q415.291 1122.94 417.097 1119.39 Q418.926 1115.83 418.926 1108.72 Q418.926 1101.59 417.097 1098.05 Q415.291 1094.49 411.657 1094.49 M411.657 1090.78 Q417.467 1090.78 420.523 1095.39 Q423.602 1099.97 423.602 1108.72 Q423.602 1117.45 420.523 1122.06 Q417.467 1126.64 411.657 1126.64 Q405.847 1126.64 402.768 1122.06 Q399.713 1117.45 399.713 1108.72 Q399.713 1099.97 402.768 1095.39 Q405.847 1090.78 411.657 1090.78 Z" fill="#000000" fill-rule="nonzero" fill-opacity="1" /><path clip-path="url(#clip690)" d="M431.819 1120.09 L436.703 1120.09 L436.703 1125.97 L431.819 1125.97 L431.819 1120.09 Z" fill="#000000" fill-rule="nonzero" fill-opacity="1" /><path clip-path="url(#clip690)" d="M456.888 1094.49 Q453.277 1094.49 451.449 1098.05 Q449.643 1101.59 449.643 1108.72 Q449.643 1115.83 451.449 1119.39 Q453.277 1122.94 456.888 1122.94 Q460.523 1122.94 462.328 1119.39 Q464.157 1115.83 464.157 1108.72 Q464.157 1101.59 462.328 1098.05 Q460.523 1094.49 456.888 1094.49 M456.888 1090.78 Q462.699 1090.78 465.754 1095.39 Q468.833 1099.97 468.833 1108.72 Q468.833 1117.45 465.754 1122.06 Q462.699 1126.64 456.888 1126.64 Q451.078 1126.64 448 1122.06 Q444.944 1117.45 444.944 1108.72 Q444.944 1099.97 448 1095.39 Q451.078 1090.78 456.888 1090.78 Z" fill="#000000" fill-rule="nonzero" fill-opacity="1" /><path clip-path="url(#clip690)" d="M542.565 1094.49 Q538.954 1094.49 537.125 1098.05 Q535.32 1101.59 535.32 1108.72 Q535.32 1115.83 537.125 1119.39 Q538.954 1122.94 542.565 1122.94 Q546.199 1122.94 548.005 1119.39 Q549.834 1115.83 549.834 1108.72 Q549.834 1101.59 548.005 1098.05 Q546.199 1094.49 542.565 1094.49 M542.565 1090.78 Q548.375 1090.78 551.431 1095.39 Q554.51 1099.97 554.51 1108.72 Q554.51 1117.45 551.431 1122.06 Q548.375 1126.64 542.565 1126.64 Q536.755 1126.64 533.676 1122.06 Q530.621 1117.45 530.621 1108.72 Q530.621 1099.97 533.676 1095.39 Q536.755 1090.78 542.565 1090.78 Z" fill="#000000" fill-rule="nonzero" fill-opacity="1" /><path clip-path="url(#clip690)" d="M562.727 1120.09 L567.611 1120.09 L567.611 1125.97 L562.727 1125.97 L562.727 1120.09 Z" fill="#000000" fill-rule="nonzero" fill-opacity="1" /><path clip-path="url(#clip690)" d="M577.843 1091.41 L596.199 1091.41 L596.199 1095.34 L582.125 1095.34 L582.125 1103.82 Q583.144 1103.47 584.162 1103.31 Q585.181 1103.12 586.199 1103.12 Q591.986 1103.12 595.366 1106.29 Q598.745 1109.46 598.745 1114.88 Q598.745 1120.46 595.273 1123.56 Q591.801 1126.64 585.482 1126.64 Q583.306 1126.64 581.037 1126.27 Q578.792 1125.9 576.384 1125.16 L576.384 1120.46 Q578.468 1121.59 580.69 1122.15 Q582.912 1122.7 585.389 1122.7 Q589.394 1122.7 591.732 1120.6 Q594.07 1118.49 594.07 1114.88 Q594.07 1111.27 591.732 1109.16 Q589.394 1107.06 585.389 1107.06 Q583.514 1107.06 581.639 1107.47 Q579.787 1107.89 577.843 1108.77 L577.843 1091.41 Z" fill="#000000" fill-rule="nonzero" fill-opacity="1" /><path clip-path="url(#clip690)" d="M662.246 1122.03 L669.885 1122.03 L669.885 1095.67 L661.575 1097.33 L661.575 1093.07 L669.839 1091.41 L674.515 1091.41 L674.515 1122.03 L682.154 1122.03 L682.154 1125.97 L662.246 1125.97 L662.246 1122.03 Z" fill="#000000" fill-rule="nonzero" fill-opacity="1" /><path clip-path="url(#clip690)" d="M691.598 1120.09 L696.482 1120.09 L696.482 1125.97 L691.598 1125.97 L691.598 1120.09 Z" fill="#000000" fill-rule="nonzero" fill-opacity="1" /><path clip-path="url(#clip690)" d="M716.667 1094.49 Q713.056 1094.49 711.228 1098.05 Q709.422 1101.59 709.422 1108.72 Q709.422 1115.83 711.228 1119.39 Q713.056 1122.94 716.667 1122.94 Q720.302 1122.94 722.107 1119.39 Q723.936 1115.83 723.936 1108.72 Q723.936 1101.59 722.107 1098.05 Q720.302 1094.49 716.667 1094.49 M716.667 1090.78 Q722.478 1090.78 725.533 1095.39 Q728.612 1099.97 728.612 1108.72 Q728.612 1117.45 725.533 1122.06 Q722.478 1126.64 716.667 1126.64 Q710.857 1126.64 707.779 1122.06 Q704.723 1117.45 704.723 1108.72 Q704.723 1099.97 707.779 1095.39 Q710.857 1090.78 716.667 1090.78 Z" fill="#000000" fill-rule="nonzero" fill-opacity="1" /><path clip-path="url(#clip690)" d="M793.154 1122.03 L800.793 1122.03 L800.793 1095.67 L792.483 1097.33 L792.483 1093.07 L800.747 1091.41 L805.423 1091.41 L805.423 1122.03 L813.062 1122.03 L813.062 1125.97 L793.154 1125.97 L793.154 1122.03 Z" fill="#000000" fill-rule="nonzero" fill-opacity="1" /><path clip-path="url(#clip690)" d="M822.506 1120.09 L827.39 1120.09 L827.39 1125.97 L822.506 1125.97 L822.506 1120.09 Z" fill="#000000" fill-rule="nonzero" fill-opacity="1" /><path clip-path="url(#clip690)" d="M837.622 1091.41 L855.978 1091.41 L855.978 1095.34 L841.904 1095.34 L841.904 1103.82 Q842.923 1103.47 843.941 1103.31 Q844.96 1103.12 845.978 1103.12 Q851.765 1103.12 855.145 1106.29 Q858.524 1109.46 858.524 1114.88 Q858.524 1120.46 855.052 1123.56 Q851.58 1126.64 845.261 1126.64 Q843.085 1126.64 840.816 1126.27 Q838.571 1125.9 836.163 1125.16 L836.163 1120.46 Q838.247 1121.59 840.469 1122.15 Q842.691 1122.7 845.168 1122.7 Q849.173 1122.7 851.511 1120.6 Q853.849 1118.49 853.849 1114.88 Q853.849 1111.27 851.511 1109.16 Q849.173 1107.06 845.168 1107.06 Q843.293 1107.06 841.418 1107.47 Q839.566 1107.89 837.622 1108.77 L837.622 1091.41 Z" fill="#000000" fill-rule="nonzero" fill-opacity="1" /><path clip-path="url(#clip690)" d="M927.153 1122.03 L943.472 1122.03 L943.472 1125.97 L921.528 1125.97 L921.528 1122.03 Q924.19 1119.28 928.773 1114.65 Q933.38 1110 934.56 1108.65 Q936.805 1106.13 937.685 1104.39 Q938.588 1102.63 938.588 1100.94 Q938.588 1098.19 936.643 1096.45 Q934.722 1094.72 931.62 1094.72 Q929.421 1094.72 926.968 1095.48 Q924.537 1096.25 921.759 1097.8 L921.759 1093.07 Q924.583 1091.94 927.037 1091.36 Q929.491 1090.78 931.528 1090.78 Q936.898 1090.78 940.092 1093.47 Q943.287 1096.15 943.287 1100.64 Q943.287 1102.77 942.477 1104.69 Q941.69 1106.59 939.583 1109.19 Q939.004 1109.86 935.903 1113.07 Q932.801 1116.27 927.153 1122.03 Z" fill="#000000" fill-rule="nonzero" fill-opacity="1" /><path clip-path="url(#clip690)" d="M953.287 1120.09 L958.171 1120.09 L958.171 1125.97 L953.287 1125.97 L953.287 1120.09 Z" fill="#000000" fill-rule="nonzero" fill-opacity="1" /><path clip-path="url(#clip690)" d="M978.356 1094.49 Q974.745 1094.49 972.916 1098.05 Q971.111 1101.59 971.111 1108.72 Q971.111 1115.83 972.916 1119.39 Q974.745 1122.94 978.356 1122.94 Q981.99 1122.94 983.796 1119.39 Q985.625 1115.83 985.625 1108.72 Q985.625 1101.59 983.796 1098.05 Q981.99 1094.49 978.356 1094.49 M978.356 1090.78 Q984.166 1090.78 987.222 1095.39 Q990.301 1099.97 990.301 1108.72 Q990.301 1117.45 987.222 1122.06 Q984.166 1126.64 978.356 1126.64 Q972.546 1126.64 969.467 1122.06 Q966.412 1117.45 966.412 1108.72 Q966.412 1099.97 969.467 1095.39 Q972.546 1090.78 978.356 1090.78 Z" fill="#000000" fill-rule="nonzero" fill-opacity="1" /><path clip-path="url(#clip690)" d="M1058.06 1122.03 L1074.38 1122.03 L1074.38 1125.97 L1052.44 1125.97 L1052.44 1122.03 Q1055.1 1119.28 1059.68 1114.65 Q1064.29 1110 1065.47 1108.65 Q1067.71 1106.13 1068.59 1104.39 Q1069.5 1102.63 1069.5 1100.94 Q1069.5 1098.19 1067.55 1096.45 Q1065.63 1094.72 1062.53 1094.72 Q1060.33 1094.72 1057.88 1095.48 Q1055.44 1096.25 1052.67 1097.8 L1052.67 1093.07 Q1055.49 1091.94 1057.94 1091.36 Q1060.4 1090.78 1062.44 1090.78 Q1067.81 1090.78 1071 1093.47 Q1074.19 1096.15 1074.19 1100.64 Q1074.19 1102.77 1073.38 1104.69 Q1072.6 1106.59 1070.49 1109.19 Q1069.91 1109.86 1066.81 1113.07 Q1063.71 1116.27 1058.06 1122.03 Z" fill="#000000" fill-rule="nonzero" fill-opacity="1" /><path clip-path="url(#clip690)" d="M1084.19 1120.09 L1089.08 1120.09 L1089.08 1125.97 L1084.19 1125.97 L1084.19 1120.09 Z" fill="#000000" fill-rule="nonzero" fill-opacity="1" /><path clip-path="url(#clip690)" d="M1099.31 1091.41 L1117.67 1091.41 L1117.67 1095.34 L1103.59 1095.34 L1103.59 1103.82 Q1104.61 1103.47 1105.63 1103.31 Q1106.65 1103.12 1107.67 1103.12 Q1113.45 1103.12 1116.83 1106.29 Q1120.21 1109.46 1120.21 1114.88 Q1120.21 1120.46 1116.74 1123.56 Q1113.27 1126.64 1106.95 1126.64 Q1104.77 1126.64 1102.5 1126.27 Q1100.26 1125.9 1097.85 1125.16 L1097.85 1120.46 Q1099.94 1121.59 1102.16 1122.15 Q1104.38 1122.7 1106.86 1122.7 Q1110.86 1122.7 1113.2 1120.6 Q1115.54 1118.49 1115.54 1114.88 Q1115.54 1111.27 1113.2 1109.16 Q1110.86 1107.06 1106.86 1107.06 Q1104.98 1107.06 1103.11 1107.47 Q1101.25 1107.89 1099.31 1108.77 L1099.31 1091.41 Z" fill="#000000" fill-rule="nonzero" fill-opacity="1" /><polyline clip-path="url(#clip692)" style="stroke:#000000; stroke-linecap:round; stroke-linejoin:round; stroke-width:2; stroke-opacity:0.1; fill:none" points="181.936,930.094 1152.76,930.094 "/>
<polyline clip-path="url(#clip692)" style="stroke:#000000; stroke-linecap:round; stroke-linejoin:round; stroke-width:2; stroke-opacity:0.1; fill:none" points="181.936,708.996 1152.76,708.996 "/>
<polyline clip-path="url(#clip692)" style="stroke:#000000; stroke-linecap:round; stroke-linejoin:round; stroke-width:2; stroke-opacity:0.1; fill:none" points="181.936,487.898 1152.76,487.898 "/>
<polyline clip-path="url(#clip692)" style="stroke:#000000; stroke-linecap:round; stroke-linejoin:round; stroke-width:2; stroke-opacity:0.1; fill:none" points="181.936,266.8 1152.76,266.8 "/>
<polyline clip-path="url(#clip690)" style="stroke:#000000; stroke-linecap:round; stroke-linejoin:round; stroke-width:4; stroke-opacity:1; fill:none" points="181.936,1073.17 181.936,47.2441 "/>
<polyline clip-path="url(#clip690)" style="stroke:#000000; stroke-linecap:round; stroke-linejoin:round; stroke-width:4; stroke-opacity:1; fill:none" points="181.936,930.094 200.834,930.094 "/>
<polyline clip-path="url(#clip690)" style="stroke:#000000; stroke-linecap:round; stroke-linejoin:round; stroke-width:4; stroke-opacity:1; fill:none" points="181.936,708.996 200.834,708.996 "/>
<polyline clip-path="url(#clip690)" style="stroke:#000000; stroke-linecap:round; stroke-linejoin:round; stroke-width:4; stroke-opacity:1; fill:none" points="181.936,487.898 200.834,487.898 "/>
<polyline clip-path="url(#clip690)" style="stroke:#000000; stroke-linecap:round; stroke-linejoin:round; stroke-width:4; stroke-opacity:1; fill:none" points="181.936,266.8 200.834,266.8 "/>
<path clip-path="url(#clip690)" d="M56.9921 930.546 L86.6679 930.546 L86.6679 934.481 L56.9921 934.481 L56.9921 930.546 Z" fill="#000000" fill-rule="nonzero" fill-opacity="1" /><path clip-path="url(#clip690)" d="M97.5706 943.439 L105.209 943.439 L105.209 917.073 L96.8993 918.74 L96.8993 914.481 L105.163 912.814 L109.839 912.814 L109.839 943.439 L117.478 943.439 L117.478 947.374 L97.5706 947.374 L97.5706 943.439 Z" fill="#000000" fill-rule="nonzero" fill-opacity="1" /><path clip-path="url(#clip690)" d="M126.922 941.495 L131.807 941.495 L131.807 947.374 L126.922 947.374 L126.922 941.495 Z" fill="#000000" fill-rule="nonzero" fill-opacity="1" /><path clip-path="url(#clip690)" d="M151.992 915.893 Q148.381 915.893 146.552 919.458 Q144.746 922.999 144.746 930.129 Q144.746 937.235 146.552 940.8 Q148.381 944.342 151.992 944.342 Q155.626 944.342 157.431 940.8 Q159.26 937.235 159.26 930.129 Q159.26 922.999 157.431 919.458 Q155.626 915.893 151.992 915.893 M151.992 912.189 Q157.802 912.189 160.857 916.796 Q163.936 921.379 163.936 930.129 Q163.936 938.856 160.857 943.462 Q157.802 948.045 151.992 948.045 Q146.181 948.045 143.103 943.462 Q140.047 938.856 140.047 930.129 Q140.047 921.379 143.103 916.796 Q146.181 912.189 151.992 912.189 Z" fill="#000000" fill-rule="nonzero" fill-opacity="1" /><path clip-path="url(#clip690)" d="M57.9875 709.448 L87.6633 709.448 L87.6633 713.383 L57.9875 713.383 L57.9875 709.448 Z" fill="#000000" fill-rule="nonzero" fill-opacity="1" /><path clip-path="url(#clip690)" d="M107.756 694.795 Q104.145 694.795 102.316 698.36 Q100.51 701.901 100.51 709.031 Q100.51 716.137 102.316 719.702 Q104.145 723.244 107.756 723.244 Q111.39 723.244 113.196 719.702 Q115.024 716.137 115.024 709.031 Q115.024 701.901 113.196 698.36 Q111.39 694.795 107.756 694.795 M107.756 691.091 Q113.566 691.091 116.621 695.698 Q119.7 700.281 119.7 709.031 Q119.7 717.758 116.621 722.364 Q113.566 726.947 107.756 726.947 Q101.946 726.947 98.8669 722.364 Q95.8114 717.758 95.8114 709.031 Q95.8114 700.281 98.8669 695.698 Q101.946 691.091 107.756 691.091 Z" fill="#000000" fill-rule="nonzero" fill-opacity="1" /><path clip-path="url(#clip690)" d="M127.918 720.397 L132.802 720.397 L132.802 726.276 L127.918 726.276 L127.918 720.397 Z" fill="#000000" fill-rule="nonzero" fill-opacity="1" /><path clip-path="url(#clip690)" d="M143.033 691.716 L161.39 691.716 L161.39 695.651 L147.316 695.651 L147.316 704.124 Q148.334 703.776 149.353 703.614 Q150.371 703.429 151.39 703.429 Q157.177 703.429 160.556 706.6 Q163.936 709.772 163.936 715.188 Q163.936 720.767 160.464 723.869 Q156.992 726.947 150.672 726.947 Q148.496 726.947 146.228 726.577 Q143.982 726.207 141.575 725.466 L141.575 720.767 Q143.658 721.901 145.881 722.457 Q148.103 723.012 150.58 723.012 Q154.584 723.012 156.922 720.906 Q159.26 718.799 159.26 715.188 Q159.26 711.577 156.922 709.471 Q154.584 707.364 150.58 707.364 Q148.705 707.364 146.83 707.781 Q144.978 708.198 143.033 709.077 L143.033 691.716 Z" fill="#000000" fill-rule="nonzero" fill-opacity="1" /><path clip-path="url(#clip690)" d="M106.76 473.697 Q103.149 473.697 101.321 477.262 Q99.515 480.803 99.515 487.933 Q99.515 495.039 101.321 498.604 Q103.149 502.146 106.76 502.146 Q110.395 502.146 112.2 498.604 Q114.029 495.039 114.029 487.933 Q114.029 480.803 112.2 477.262 Q110.395 473.697 106.76 473.697 M106.76 469.993 Q112.571 469.993 115.626 474.6 Q118.705 479.183 118.705 487.933 Q118.705 496.66 115.626 501.266 Q112.571 505.849 106.76 505.849 Q100.95 505.849 97.8715 501.266 Q94.816 496.66 94.816 487.933 Q94.816 479.183 97.8715 474.6 Q100.95 469.993 106.76 469.993 Z" fill="#000000" fill-rule="nonzero" fill-opacity="1" /><path clip-path="url(#clip690)" d="M126.922 499.299 L131.807 499.299 L131.807 505.178 L126.922 505.178 L126.922 499.299 Z" fill="#000000" fill-rule="nonzero" fill-opacity="1" /><path clip-path="url(#clip690)" d="M151.992 473.697 Q148.381 473.697 146.552 477.262 Q144.746 480.803 144.746 487.933 Q144.746 495.039 146.552 498.604 Q148.381 502.146 151.992 502.146 Q155.626 502.146 157.431 498.604 Q159.26 495.039 159.26 487.933 Q159.26 480.803 157.431 477.262 Q155.626 473.697 151.992 473.697 M151.992 469.993 Q157.802 469.993 160.857 474.6 Q163.936 479.183 163.936 487.933 Q163.936 496.66 160.857 501.266 Q157.802 505.849 151.992 505.849 Q146.181 505.849 143.103 501.266 Q140.047 496.66 140.047 487.933 Q140.047 479.183 143.103 474.6 Q146.181 469.993 151.992 469.993 Z" fill="#000000" fill-rule="nonzero" fill-opacity="1" /><path clip-path="url(#clip690)" d="M107.756 252.599 Q104.145 252.599 102.316 256.164 Q100.51 259.705 100.51 266.835 Q100.51 273.941 102.316 277.506 Q104.145 281.048 107.756 281.048 Q111.39 281.048 113.196 277.506 Q115.024 273.941 115.024 266.835 Q115.024 259.705 113.196 256.164 Q111.39 252.599 107.756 252.599 M107.756 248.895 Q113.566 248.895 116.621 253.502 Q119.7 258.085 119.7 266.835 Q119.7 275.562 116.621 280.168 Q113.566 284.752 107.756 284.752 Q101.946 284.752 98.8669 280.168 Q95.8114 275.562 95.8114 266.835 Q95.8114 258.085 98.8669 253.502 Q101.946 248.895 107.756 248.895 Z" fill="#000000" fill-rule="nonzero" fill-opacity="1" /><path clip-path="url(#clip690)" d="M127.918 278.201 L132.802 278.201 L132.802 284.08 L127.918 284.08 L127.918 278.201 Z" fill="#000000" fill-rule="nonzero" fill-opacity="1" /><path clip-path="url(#clip690)" d="M143.033 249.52 L161.39 249.52 L161.39 253.455 L147.316 253.455 L147.316 261.928 Q148.334 261.58 149.353 261.418 Q150.371 261.233 151.39 261.233 Q157.177 261.233 160.556 264.404 Q163.936 267.576 163.936 272.992 Q163.936 278.571 160.464 281.673 Q156.992 284.752 150.672 284.752 Q148.496 284.752 146.228 284.381 Q143.982 284.011 141.575 283.27 L141.575 278.571 Q143.658 279.705 145.881 280.261 Q148.103 280.816 150.58 280.816 Q154.584 280.816 156.922 278.71 Q159.26 276.603 159.26 272.992 Q159.26 269.381 156.922 267.275 Q154.584 265.168 150.58 265.168 Q148.705 265.168 146.83 265.585 Q144.978 266.002 143.033 266.881 L143.033 249.52 Z" fill="#000000" fill-rule="nonzero" fill-opacity="1" /><polyline clip-path="url(#clip692)" style="stroke:#000000; stroke-linecap:round; stroke-linejoin:round; stroke-width:4; stroke-opacity:1; fill:none" points="1100.64,1029.62 1125.28,1044.13 "/>
<polyline clip-path="url(#clip692)" style="stroke:#000000; stroke-linecap:round; stroke-linejoin:round; stroke-width:4; stroke-opacity:1; fill:none" points="1114.34,1027.24 1125.28,1044.13 1105.2,1042.75 "/>
<polyline clip-path="url(#clip692)" style="stroke:#000000; stroke-linecap:round; stroke-linejoin:round; stroke-width:4; stroke-opacity:1; fill:none" points="1125.28,1044.13 1100.64,1029.62 "/>
<circle clip-path="url(#clip692)" cx="1100.64" cy="1029.62" r="14.4" fill="#e26f46" fill-rule="evenodd" fill-opacity="1" stroke="#000000" stroke-opacity="1" stroke-width="2.4"/>
<polyline clip-path="url(#clip692)" style="stroke:#000000; stroke-linecap:round; stroke-linejoin:round; stroke-width:4; stroke-opacity:1; fill:none" points="526.451,115.671 545.367,85.2275 "/>
<polyline clip-path="url(#clip692)" style="stroke:#000000; stroke-linecap:round; stroke-linejoin:round; stroke-width:4; stroke-opacity:1; fill:none" points="528.223,95.7666 545.367,85.2275 543.512,105.266 "/>
<polyline clip-path="url(#clip692)" style="stroke:#000000; stroke-linecap:round; stroke-linejoin:round; stroke-width:4; stroke-opacity:1; fill:none" points="545.367,85.2275 526.451,115.671 "/>
<circle clip-path="url(#clip692)" cx="526.451" cy="115.671" r="14.4" fill="#c271d2" fill-rule="evenodd" fill-opacity="1" stroke="#000000" stroke-opacity="1" stroke-width="2.4"/>
<polyline clip-path="url(#clip692)" style="stroke:#000000; stroke-linecap:round; stroke-linejoin:round; stroke-width:4; stroke-opacity:1; fill:none" points="626.615,604.332 631.963,561.051 "/>
<polyline clip-path="url(#clip692)" style="stroke:#000000; stroke-linecap:round; stroke-linejoin:round; stroke-width:4; stroke-opacity:1; fill:none" points="620.824,577.812 631.963,561.051 638.688,580.019 "/>
<polyline clip-path="url(#clip692)" style="stroke:#000000; stroke-linecap:round; stroke-linejoin:round; stroke-width:4; stroke-opacity:1; fill:none" points="631.963,561.051 626.615,604.332 "/>
<circle clip-path="url(#clip692)" cx="631.963" cy="561.051" r="14.4" fill="#00a9ad" fill-rule="evenodd" fill-opacity="1" stroke="#000000" stroke-opacity="1" stroke-width="2.4"/>
<polyline clip-path="url(#clip692)" style="stroke:#000000; stroke-linecap:round; stroke-linejoin:round; stroke-width:4; stroke-opacity:1; fill:none" points="475.927,387.957 478.767,431.913 "/>
<polyline clip-path="url(#clip692)" style="stroke:#000000; stroke-linecap:round; stroke-linejoin:round; stroke-width:4; stroke-opacity:1; fill:none" points="486.588,413.37 478.767,431.913 468.625,414.531 "/>
<polyline clip-path="url(#clip692)" style="stroke:#000000; stroke-linecap:round; stroke-linejoin:round; stroke-width:4; stroke-opacity:1; fill:none" points="478.767,431.913 475.927,387.957 "/>
<circle clip-path="url(#clip692)" cx="478.767" cy="431.913" r="14.4" fill="#c68125" fill-rule="evenodd" fill-opacity="1" stroke="#000000" stroke-opacity="1" stroke-width="2.4"/>
<polyline clip-path="url(#clip692)" style="stroke:#000000; stroke-linecap:round; stroke-linejoin:round; stroke-width:4; stroke-opacity:1; fill:none" points="475.791,219.161 479.702,175.441 "/>
<polyline clip-path="url(#clip692)" style="stroke:#000000; stroke-linecap:round; stroke-linejoin:round; stroke-width:4; stroke-opacity:1; fill:none" points="469.134,192.568 479.702,175.441 487.062,194.171 "/>
<polyline clip-path="url(#clip692)" style="stroke:#000000; stroke-linecap:round; stroke-linejoin:round; stroke-width:4; stroke-opacity:1; fill:none" points="479.702,175.441 475.791,219.161 "/>
<circle clip-path="url(#clip692)" cx="475.791" cy="219.161" r="14.4" fill="#8e971d" fill-rule="evenodd" fill-opacity="1" stroke="#000000" stroke-opacity="1" stroke-width="2.4"/>
<polyline clip-path="url(#clip692)" style="stroke:#000000; stroke-linecap:round; stroke-linejoin:round; stroke-width:4; stroke-opacity:1; fill:none" points="210.844,105.236 230.556,76.2797 "/>
<polyline clip-path="url(#clip692)" style="stroke:#000000; stroke-linecap:round; stroke-linejoin:round; stroke-width:4; stroke-opacity:1; fill:none" points="212.987,86.0946 230.556,76.2797 227.866,96.2238 "/>
<polyline clip-path="url(#clip692)" style="stroke:#000000; stroke-linecap:round; stroke-linejoin:round; stroke-width:4; stroke-opacity:1; fill:none" points="230.556,76.2797 210.844,105.236 "/>
<circle clip-path="url(#clip692)" cx="210.844" cy="105.236" r="14.4" fill="#9b7fe8" fill-rule="evenodd" fill-opacity="1" stroke="#000000" stroke-opacity="1" stroke-width="2.4"/>
<polyline clip-path="url(#clip692)" style="stroke:#000000; stroke-linecap:round; stroke-linejoin:round; stroke-width:4; stroke-opacity:1; fill:none" points="584.808,407.599 587.9,363.691 "/>
<polyline clip-path="url(#clip692)" style="stroke:#000000; stroke-linecap:round; stroke-linejoin:round; stroke-width:4; stroke-opacity:1; fill:none" points="577.658,381.014 587.9,363.691 595.613,382.278 "/>
<polyline clip-path="url(#clip692)" style="stroke:#000000; stroke-linecap:round; stroke-linejoin:round; stroke-width:4; stroke-opacity:1; fill:none" points="587.9,363.691 584.808,407.599 "/>
<circle clip-path="url(#clip692)" cx="587.9" cy="363.691" r="14.4" fill="#f05f73" fill-rule="evenodd" fill-opacity="1" stroke="#000000" stroke-opacity="1" stroke-width="2.4"/>
<polyline clip-path="url(#clip692)" style="stroke:#000000; stroke-linecap:round; stroke-linejoin:round; stroke-width:4; stroke-opacity:1; fill:none" points="506.655,304.496 528.017,329.865 "/>
<polyline clip-path="url(#clip692)" style="stroke:#000000; stroke-linecap:round; stroke-linejoin:round; stroke-width:4; stroke-opacity:1; fill:none" points="523.308,310.299 528.017,329.865 509.539,321.893 "/>
<polyline clip-path="url(#clip692)" style="stroke:#000000; stroke-linecap:round; stroke-linejoin:round; stroke-width:4; stroke-opacity:1; fill:none" points="528.017,329.865 506.655,304.496 "/>
<circle clip-path="url(#clip692)" cx="506.655" cy="304.496" r="14.4" fill="#6b9e32" fill-rule="evenodd" fill-opacity="1" stroke="#000000" stroke-opacity="1" stroke-width="2.4"/>
<polyline clip-path="url(#clip692)" style="stroke:#000000; stroke-linecap:round; stroke-linejoin:round; stroke-width:4; stroke-opacity:1; fill:none" points="209.412,832.519 234.566,844.213 "/>
<polyline clip-path="url(#clip692)" style="stroke:#000000; stroke-linecap:round; stroke-linejoin:round; stroke-width:4; stroke-opacity:1; fill:none" points="222.037,828.464 234.566,844.213 214.449,844.786 "/>
<polyline clip-path="url(#clip692)" style="stroke:#000000; stroke-linecap:round; stroke-linejoin:round; stroke-width:4; stroke-opacity:1; fill:none" points="234.566,844.213 209.412,832.519 "/>
<circle clip-path="url(#clip692)" cx="234.566" cy="844.213" r="14.4" fill="#e26f46" fill-rule="evenodd" fill-opacity="1" stroke="#000000" stroke-opacity="1" stroke-width="2.4"/>
<polyline clip-path="url(#clip692)" style="stroke:#000000; stroke-linecap:round; stroke-linejoin:round; stroke-width:4; stroke-opacity:1; fill:none" points="524.632,668.818 539.966,704.588 "/>
<polyline clip-path="url(#clip692)" style="stroke:#000000; stroke-linecap:round; stroke-linejoin:round; stroke-width:4; stroke-opacity:1; fill:none" points="541.146,684.498 539.966,704.588 524.602,691.59 "/>
<polyline clip-path="url(#clip692)" style="stroke:#000000; stroke-linecap:round; stroke-linejoin:round; stroke-width:4; stroke-opacity:1; fill:none" points="539.966,704.588 524.632,668.818 "/>
<circle clip-path="url(#clip692)" cx="524.632" cy="668.818" r="14.4" fill="#c271d2" fill-rule="evenodd" fill-opacity="1" stroke="#000000" stroke-opacity="1" stroke-width="2.4"/>
</svg>
