<?xml version="1.0" encoding="utf-8"?>
<svg xmlns="http://www.w3.org/2000/svg" xmlns:xlink="http://www.w3.org/1999/xlink" width="300" height="300" viewBox="0 0 1200 1200">
<defs>
  <clipPath id="clip630">
    <rect x="0" y="0" width="1200" height="1200"/>
  </clipPath>
</defs>
<path clip-path="url(#clip630)" d="M0 1200 L1200 1200 L1200 0 L0 0  Z" fill="#ffffff" fill-rule="evenodd" fill-opacity="1"/>
<defs>
  <clipPath id="clip631">
    <rect x="240" y="120" width="841" height="841"/>
  </clipPath>
</defs>
<path clip-path="url(#clip630)" d="M212.098 1073.17 L1152.76 1073.17 L1152.76 47.2441 L212.098 47.2441  Z" fill="#ffffff" fill-rule="evenodd" fill-opacity="1"/>
<defs>
  <clipPath id="clip632">
    <rect x="212" y="47" width="942" height="1027"/>
  </clipPath>
</defs>
<polyline clip-path="url(#clip632)" style="stroke:#000000; stroke-linecap:round; stroke-linejoin:round; stroke-width:2; stroke-opacity:0.1; fill:none" points="300.139,1073.17 300.139,47.2441 "/>
<polyline clip-path="url(#clip632)" style="stroke:#000000; stroke-linecap:round; stroke-linejoin:round; stroke-width:2; stroke-opacity:0.1; fill:none" points="437.079,1073.17 437.079,47.2441 "/>
<polyline clip-path="url(#clip632)" style="stroke:#000000; stroke-linecap:round; stroke-linejoin:round; stroke-width:2; stroke-opacity:0.1; fill:none" points="574.018,1073.17 574.018,47.2441 "/>
<polyline clip-path="url(#clip632)" style="stroke:#000000; stroke-linecap:round; stroke-linejoin:round; stroke-width:2; stroke-opacity:0.1; fill:none" points="710.958,1073.17 710.958,47.2441 "/>
<polyline clip-path="url(#clip632)" style="stroke:#000000; stroke-linecap:round; stroke-linejoin:round; stroke-width:2; stroke-opacity:0.1; fill:none" points="847.898,1073.17 847.898,47.2441 "/>
<polyline clip-path="url(#clip632)" style="stroke:#000000; stroke-linecap:round; stroke-linejoin:round; stroke-width:2; stroke-opacity:0.1; fill:none" points="984.837,1073.17 984.837,47.2441 "/>
<polyline clip-path="url(#clip632)" style="stroke:#000000; stroke-linecap:round; stroke-linejoin:round; stroke-width:2; stroke-opacity:0.1; fill:none" points="1121.78,1073.17 1121.78,47.2441 "/>
<polyline clip-path="url(#clip630)" style="stroke:#000000; stroke-linecap:round; stroke-linejoin:round; stroke-width:4; stroke-opacity:1; fill:none" points="212.098,1073.17 1152.76,1073.17 "/>
<polyline clip-path="url(#clip630)" style="stroke:#000000; stroke-linecap:round; stroke-linejoin:round; stroke-width:4; stroke-opacity:1; fill:none" points="300.139,1073.17 300.139,1054.27 "/>
<polyline clip-path="url(#clip630)" style="stroke:#000000; stroke-linecap:round; stroke-linejoin:round; stroke-width:4; stroke-opacity:1; fill:none" points="437.079,1073.17 437.079,1054.27 "/>
<polyline clip-path="url(#clip630)" style="stroke:#000000; stroke-linecap:round; stroke-linejoin:round; stroke-width:4; stroke-opacity:1; fill:none" points="574.018,1073.17 574.018,1054.27 "/>
<polyline clip-path="url(#clip630)" style="stroke:#000000; stroke-linecap:round; stroke-linejoin:round; stroke-width:4; stroke-opacity:1; fill:none" points="710.958,1073.17 710.958,1054.27 "/>
<polyline clip-path="url(#clip630)" style="stroke:#000000; stroke-linecap:round; stroke-linejoin:round; stroke-width:4; stroke-opacity:1; fill:none" points="847.898,1073.17 847.898,1054.27 "/>
<polyline clip-path="url(#clip630)" style="stroke:#000000; stroke-linecap:round; stroke-linejoin:round; stroke-width:4; stroke-opacity:1; fill:none" points="984.837,1073.17 984.837,1054.27 "/>
<polyline clip-path="url(#clip630)" style="stroke:#000000; stroke-linecap:round; stroke-linejoin:round; stroke-width:4; stroke-opacity:1; fill:none" points="1121.78,1073.17 1121.78,1054.27 "/>
<path clip-path="url(#clip630)" d="M232.084 1109.14 L261.76 1109.14 L261.76 1113.07 L232.084 1113.07 L232.084 1109.14 Z" fill="#000000" fill-rule="nonzero" fill-opacity="1" /><path clip-path="url(#clip630)" d="M281.852 1094.49 Q278.241 1094.49 276.413 1098.05 Q274.607 1101.59 274.607 1108.72 Q274.607 1115.83 276.413 1119.39 Q278.241 1122.94 281.852 1122.94 Q285.487 1122.94 287.292 1119.39 Q289.121 1115.83 289.121 1108.72 Q289.121 1101.59 287.292 1098.05 Q285.487 1094.49 281.852 1094.49 M281.852 1090.78 Q287.663 1090.78 290.718 1095.39 Q293.797 1099.97 293.797 1108.72 Q293.797 1117.45 290.718 1122.06 Q287.663 1126.64 281.852 1126.64 Q276.042 1126.64 272.964 1122.06 Q269.908 1117.45 269.908 1108.72 Q269.908 1099.97 272.964 1095.39 Q276.042 1090.78 281.852 1090.78 Z" fill="#000000" fill-rule="nonzero" fill-opacity="1" /><path clip-path="url(#clip630)" d="M302.014 1120.09 L306.899 1120.09 L306.899 1125.97 L302.014 1125.97 L302.014 1120.09 Z" fill="#000000" fill-rule="nonzero" fill-opacity="1" /><path clip-path="url(#clip630)" d="M315.903 1091.41 L338.125 1091.41 L338.125 1093.4 L325.579 1125.97 L320.695 1125.97 L332.5 1095.34 L315.903 1095.34 L315.903 1091.41 Z" fill="#000000" fill-rule="nonzero" fill-opacity="1" /><path clip-path="url(#clip630)" d="M347.292 1091.41 L365.648 1091.41 L365.648 1095.34 L351.574 1095.34 L351.574 1103.82 Q352.593 1103.47 353.611 1103.31 Q354.63 1103.12 355.648 1103.12 Q361.435 1103.12 364.815 1106.29 Q368.195 1109.46 368.195 1114.88 Q368.195 1120.46 364.722 1123.56 Q361.25 1126.64 354.931 1126.64 Q352.755 1126.64 350.486 1126.27 Q348.241 1125.9 345.834 1125.16 L345.834 1120.46 Q347.917 1121.59 350.139 1122.15 Q352.361 1122.7 354.838 1122.7 Q358.843 1122.7 361.181 1120.6 Q363.519 1118.49 363.519 1114.88 Q363.519 1111.27 361.181 1109.16 Q358.843 1107.06 354.838 1107.06 Q352.963 1107.06 351.088 1107.47 Q349.236 1107.89 347.292 1108.77 L347.292 1091.41 Z" fill="#000000" fill-rule="nonzero" fill-opacity="1" /><path clip-path="url(#clip630)" d="M368.526 1109.14 L398.202 1109.14 L398.202 1113.07 L368.526 1113.07 L368.526 1109.14 Z" fill="#000000" fill-rule="nonzero" fill-opacity="1" /><path clip-path="url(#clip630)" d="M418.294 1094.49 Q414.683 1094.49 412.855 1098.05 Q411.049 1101.59 411.049 1108.72 Q411.049 1115.83 412.855 1119.39 Q414.683 1122.94 418.294 1122.94 Q421.929 1122.94 423.734 1119.39 Q425.563 1115.83 425.563 1108.72 Q425.563 1101.59 423.734 1098.05 Q421.929 1094.49 418.294 1094.49 M418.294 1090.78 Q424.104 1090.78 427.16 1095.39 Q430.239 1099.97 430.239 1108.72 Q430.239 1117.45 427.16 1122.06 Q424.104 1126.64 418.294 1126.64 Q412.484 1126.64 409.405 1122.06 Q406.35 1117.45 406.35 1108.72 Q406.35 1099.97 409.405 1095.39 Q412.484 1090.78 418.294 1090.78 Z" fill="#000000" fill-rule="nonzero" fill-opacity="1" /><path clip-path="url(#clip630)" d="M438.456 1120.09 L443.34 1120.09 L443.34 1125.97 L438.456 1125.97 L438.456 1120.09 Z" fill="#000000" fill-rule="nonzero" fill-opacity="1" /><path clip-path="url(#clip630)" d="M453.572 1091.41 L471.928 1091.41 L471.928 1095.34 L457.854 1095.34 L457.854 1103.82 Q458.873 1103.47 459.891 1103.31 Q460.91 1103.12 461.928 1103.12 Q467.715 1103.12 471.095 1106.29 Q474.475 1109.46 474.475 1114.88 Q474.475 1120.46 471.002 1123.56 Q467.53 1126.64 461.211 1126.64 Q459.035 1126.64 456.766 1126.27 Q454.521 1125.9 452.114 1125.16 L452.114 1120.46 Q454.197 1121.59 456.419 1122.15 Q458.641 1122.7 461.118 1122.7 Q465.123 1122.7 467.461 1120.6 Q469.799 1118.49 469.799 1114.88 Q469.799 1111.27 467.461 1109.16 Q465.123 1107.06 461.118 1107.06 Q459.243 1107.06 457.368 1107.47 Q455.516 1107.89 453.572 1108.77 L453.572 1091.41 Z" fill="#000000" fill-rule="nonzero" fill-opacity="1" /><path clip-path="url(#clip630)" d="M493.687 1094.49 Q490.076 1094.49 488.248 1098.05 Q486.442 1101.59 486.442 1108.72 Q486.442 1115.83 488.248 1119.39 Q490.076 1122.94 493.687 1122.94 Q497.322 1122.94 499.127 1119.39 Q500.956 1115.83 500.956 1108.72 Q500.956 1101.59 499.127 1098.05 Q497.322 1094.49 493.687 1094.49 M493.687 1090.78 Q499.498 1090.78 502.553 1095.39 Q505.632 1099.97 505.632 1108.72 Q505.632 1117.45 502.553 1122.06 Q499.498 1126.64 493.687 1126.64 Q487.877 1126.64 484.799 1122.06 Q481.743 1117.45 481.743 1108.72 Q481.743 1099.97 484.799 1095.39 Q487.877 1090.78 493.687 1090.78 Z" fill="#000000" fill-rule="nonzero" fill-opacity="1" /><path clip-path="url(#clip630)" d="M505.963 1109.14 L535.639 1109.14 L535.639 1113.07 L505.963 1113.07 L505.963 1109.14 Z" fill="#000000" fill-rule="nonzero" fill-opacity="1" /><path clip-path="url(#clip630)" d="M555.732 1094.49 Q552.12 1094.49 550.292 1098.05 Q548.486 1101.59 548.486 1108.72 Q548.486 1115.83 550.292 1119.39 Q552.12 1122.94 555.732 1122.94 Q559.366 1122.94 561.171 1119.39 Q563 1115.83 563 1108.72 Q563 1101.59 561.171 1098.05 Q559.366 1094.49 555.732 1094.49 M555.732 1090.78 Q561.542 1090.78 564.597 1095.39 Q567.676 1099.97 567.676 1108.72 Q567.676 1117.45 564.597 1122.06 Q561.542 1126.64 555.732 1126.64 Q549.921 1126.64 546.843 1122.06 Q543.787 1117.45 543.787 1108.72 Q543.787 1099.97 546.843 1095.39 Q549.921 1090.78 555.732 1090.78 Z" fill="#000000" fill-rule="nonzero" fill-opacity="1" /><path clip-path="url(#clip630)" d="M575.893 1120.09 L580.778 1120.09 L580.778 1125.97 L575.893 1125.97 L575.893 1120.09 Z" fill="#000000" fill-rule="nonzero" fill-opacity="1" /><path clip-path="url(#clip630)" d="M594.991 1122.03 L611.31 1122.03 L611.31 1125.97 L589.366 1125.97 L589.366 1122.03 Q592.028 1119.28 596.611 1114.65 Q601.217 1110 602.398 1108.65 Q604.643 1106.13 605.523 1104.39 Q606.426 1102.63 606.426 1100.94 Q606.426 1098.19 604.481 1096.45 Q602.56 1094.72 599.458 1094.72 Q597.259 1094.72 594.805 1095.48 Q592.375 1096.25 589.597 1097.8 L589.597 1093.07 Q592.421 1091.94 594.875 1091.36 Q597.329 1090.78 599.366 1090.78 Q604.736 1090.78 607.93 1093.47 Q611.125 1096.15 611.125 1100.64 Q611.125 1102.77 610.315 1104.69 Q609.528 1106.59 607.421 1109.19 Q606.842 1109.86 603.741 1113.07 Q600.639 1116.27 594.991 1122.03 Z" fill="#000000" fill-rule="nonzero" fill-opacity="1" /><path clip-path="url(#clip630)" d="M621.171 1091.41 L639.527 1091.41 L639.527 1095.34 L625.453 1095.34 L625.453 1103.82 Q626.472 1103.47 627.49 1103.31 Q628.509 1103.12 629.527 1103.12 Q635.314 1103.12 638.694 1106.29 Q642.074 1109.46 642.074 1114.88 Q642.074 1120.46 638.601 1123.56 Q635.129 1126.64 628.81 1126.64 Q626.634 1126.64 624.365 1126.27 Q622.12 1125.9 619.713 1125.16 L619.713 1120.46 Q621.796 1121.59 624.018 1122.15 Q626.24 1122.7 628.717 1122.7 Q632.722 1122.7 635.06 1120.6 Q637.398 1118.49 637.398 1114.88 Q637.398 1111.27 635.06 1109.16 Q632.722 1107.06 628.717 1107.06 Q626.842 1107.06 624.967 1107.47 Q623.115 1107.89 621.171 1108.77 L621.171 1091.41 Z" fill="#000000" fill-rule="nonzero" fill-opacity="1" /><path clip-path="url(#clip630)" d="M673.261 1094.49 Q669.65 1094.49 667.822 1098.05 Q666.016 1101.59 666.016 1108.72 Q666.016 1115.83 667.822 1119.39 Q669.65 1122.94 673.261 1122.94 Q676.896 1122.94 678.701 1119.39 Q680.53 1115.83 680.53 1108.72 Q680.53 1101.59 678.701 1098.05 Q676.896 1094.49 673.261 1094.49 M673.261 1090.78 Q679.072 1090.78 682.127 1095.39 Q685.206 1099.97 685.206 1108.72 Q685.206 1117.45 682.127 1122.06 Q679.072 1126.64 673.261 1126.64 Q667.451 1126.64 664.373 1122.06 Q661.317 1117.45 661.317 1108.72 Q661.317 1099.97 664.373 1095.39 Q667.451 1090.78 673.261 1090.78 Z" fill="#000000" fill-rule="nonzero" fill-opacity="1" /><path clip-path="url(#clip630)" d="M693.423 1120.09 L698.308 1120.09 L698.308 1125.97 L693.423 1125.97 L693.423 1120.09 Z" fill="#000000" fill-rule="nonzero" fill-opacity="1" /><path clip-path="url(#clip630)" d="M718.493 1094.49 Q714.882 1094.49 713.053 1098.05 Q711.247 1101.59 711.247 1108.72 Q711.247 1115.83 713.053 1119.39 Q714.882 1122.94 718.493 1122.94 Q722.127 1122.94 723.933 1119.39 Q725.761 1115.83 725.761 1108.72 Q725.761 1101.59 723.933 1098.05 Q722.127 1094.49 718.493 1094.49 M718.493 1090.78 Q724.303 1090.78 727.358 1095.39 Q730.437 1099.97 730.437 1108.72 Q730.437 1117.45 727.358 1122.06 Q724.303 1126.64 718.493 1126.64 Q712.683 1126.64 709.604 1122.06 Q706.548 1117.45 706.548 1108.72 Q706.548 1099.97 709.604 1095.39 Q712.683 1090.78 718.493 1090.78 Z" fill="#000000" fill-rule="nonzero" fill-opacity="1" /><path clip-path="url(#clip630)" d="M748.655 1094.49 Q745.044 1094.49 743.215 1098.05 Q741.409 1101.59 741.409 1108.72 Q741.409 1115.83 743.215 1119.39 Q745.044 1122.94 748.655 1122.94 Q752.289 1122.94 754.094 1119.39 Q755.923 1115.83 755.923 1108.72 Q755.923 1101.59 754.094 1098.05 Q752.289 1094.49 748.655 1094.49 M748.655 1090.78 Q754.465 1090.78 757.52 1095.39 Q760.599 1099.97 760.599 1108.72 Q760.599 1117.45 757.52 1122.06 Q754.465 1126.64 748.655 1126.64 Q742.844 1126.64 739.766 1122.06 Q736.71 1117.45 736.71 1108.72 Q736.71 1099.97 739.766 1095.39 Q742.844 1090.78 748.655 1090.78 Z" fill="#000000" fill-rule="nonzero" fill-opacity="1" /><path clip-path="url(#clip630)" d="M810.699 1094.49 Q807.088 1094.49 805.259 1098.05 Q803.453 1101.59 803.453 1108.72 Q803.453 1115.83 805.259 1119.39 Q807.088 1122.94 810.699 1122.94 Q814.333 1122.94 816.139 1119.39 Q817.967 1115.83 817.967 1108.72 Q817.967 1101.59 816.139 1098.05 Q814.333 1094.49 810.699 1094.49 M810.699 1090.78 Q816.509 1090.78 819.564 1095.39 Q822.643 1099.97 822.643 1108.72 Q822.643 1117.45 819.564 1122.06 Q816.509 1126.64 810.699 1126.64 Q804.889 1126.64 801.81 1122.06 Q798.754 1117.45 798.754 1108.72 Q798.754 1099.97 801.81 1095.39 Q804.889 1090.78 810.699 1090.78 Z" fill="#000000" fill-rule="nonzero" fill-opacity="1" /><path clip-path="url(#clip630)" d="M830.861 1120.09 L835.745 1120.09 L835.745 1125.97 L830.861 1125.97 L830.861 1120.09 Z" fill="#000000" fill-rule="nonzero" fill-opacity="1" /><path clip-path="url(#clip630)" d="M849.958 1122.03 L866.277 1122.03 L866.277 1125.97 L844.333 1125.97 L844.333 1122.03 Q846.995 1119.28 851.578 1114.65 Q856.185 1110 857.365 1108.65 Q859.61 1106.13 860.49 1104.39 Q861.393 1102.63 861.393 1100.94 Q861.393 1098.19 859.448 1096.45 Q857.527 1094.72 854.425 1094.72 Q852.226 1094.72 849.773 1095.48 Q847.342 1096.25 844.564 1097.8 L844.564 1093.07 Q847.388 1091.94 849.842 1091.36 Q852.296 1090.78 854.333 1090.78 Q859.703 1090.78 862.898 1093.47 Q866.092 1096.15 866.092 1100.64 Q866.092 1102.77 865.282 1104.69 Q864.495 1106.59 862.388 1109.19 Q861.81 1109.86 858.708 1113.07 Q855.606 1116.27 849.958 1122.03 Z" fill="#000000" fill-rule="nonzero" fill-opacity="1" /><path clip-path="url(#clip630)" d="M876.138 1091.41 L894.495 1091.41 L894.495 1095.34 L880.421 1095.34 L880.421 1103.82 Q881.439 1103.47 882.458 1103.31 Q883.476 1103.12 884.495 1103.12 Q890.282 1103.12 893.661 1106.29 Q897.041 1109.46 897.041 1114.88 Q897.041 1120.46 893.569 1123.56 Q890.096 1126.64 883.777 1126.64 Q881.601 1126.64 879.333 1126.27 Q877.087 1125.9 874.68 1125.16 L874.68 1120.46 Q876.763 1121.59 878.985 1122.15 Q881.208 1122.7 883.684 1122.7 Q887.689 1122.7 890.027 1120.6 Q892.365 1118.49 892.365 1114.88 Q892.365 1111.27 890.027 1109.16 Q887.689 1107.06 883.684 1107.06 Q881.809 1107.06 879.934 1107.47 Q878.083 1107.89 876.138 1108.77 L876.138 1091.41 Z" fill="#000000" fill-rule="nonzero" fill-opacity="1" /><path clip-path="url(#clip630)" d="M947.141 1094.49 Q943.529 1094.49 941.701 1098.05 Q939.895 1101.59 939.895 1108.72 Q939.895 1115.83 941.701 1119.39 Q943.529 1122.94 947.141 1122.94 Q950.775 1122.94 952.58 1119.39 Q954.409 1115.83 954.409 1108.72 Q954.409 1101.59 952.58 1098.05 Q950.775 1094.49 947.141 1094.49 M947.141 1090.78 Q952.951 1090.78 956.006 1095.39 Q959.085 1099.97 959.085 1108.72 Q959.085 1117.45 956.006 1122.06 Q952.951 1126.64 947.141 1126.64 Q941.33 1126.64 938.252 1122.06 Q935.196 1117.45 935.196 1108.72 Q935.196 1099.97 938.252 1095.39 Q941.33 1090.78 947.141 1090.78 Z" fill="#000000" fill-rule="nonzero" fill-opacity="1" /><path clip-path="url(#clip630)" d="M967.303 1120.09 L972.187 1120.09 L972.187 1125.97 L967.303 1125.97 L967.303 1120.09 Z" fill="#000000" fill-rule="nonzero" fill-opacity="1" /><path clip-path="url(#clip630)" d="M982.418 1091.41 L1000.77 1091.41 L1000.77 1095.34 L986.701 1095.34 L986.701 1103.82 Q987.719 1103.47 988.738 1103.31 Q989.756 1103.12 990.775 1103.12 Q996.562 1103.12 999.941 1106.29 Q1003.32 1109.46 1003.32 1114.88 Q1003.32 1120.46 999.849 1123.56 Q996.376 1126.64 990.057 1126.64 Q987.881 1126.64 985.613 1126.27 Q983.367 1125.9 980.96 1125.16 L980.96 1120.46 Q983.043 1121.59 985.265 1122.15 Q987.488 1122.7 989.964 1122.7 Q993.969 1122.7 996.307 1120.6 Q998.645 1118.49 998.645 1114.88 Q998.645 1111.27 996.307 1109.16 Q993.969 1107.06 989.964 1107.06 Q988.089 1107.06 986.214 1107.47 Q984.363 1107.89 982.418 1108.77 L982.418 1091.41 Z" fill="#000000" fill-rule="nonzero" fill-opacity="1" /><path clip-path="url(#clip630)" d="M1022.53 1094.49 Q1018.92 1094.49 1017.09 1098.05 Q1015.29 1101.59 1015.29 1108.72 Q1015.29 1115.83 1017.09 1119.39 Q1018.92 1122.94 1022.53 1122.94 Q1026.17 1122.94 1027.97 1119.39 Q1029.8 1115.83 1029.8 1108.72 Q1029.8 1101.59 1027.97 1098.05 Q1026.17 1094.49 1022.53 1094.49 M1022.53 1090.78 Q1028.34 1090.78 1031.4 1095.39 Q1034.48 1099.97 1034.48 1108.72 Q1034.48 1117.45 1031.4 1122.06 Q1028.34 1126.64 1022.53 1126.64 Q1016.72 1126.64 1013.64 1122.06 Q1010.59 1117.45 1010.59 1108.72 Q1010.59 1099.97 1013.64 1095.39 Q1016.72 1090.78 1022.53 1090.78 Z" fill="#000000" fill-rule="nonzero" fill-opacity="1" /><path clip-path="url(#clip630)" d="M1084.58 1094.49 Q1080.97 1094.49 1079.14 1098.05 Q1077.33 1101.59 1077.33 1108.72 Q1077.33 1115.83 1079.14 1119.39 Q1080.97 1122.94 1084.58 1122.94 Q1088.21 1122.94 1090.02 1119.39 Q1091.85 1115.83 1091.85 1108.72 Q1091.85 1101.59 1090.02 1098.05 Q1088.21 1094.49 1084.58 1094.49 M1084.58 1090.78 Q1090.39 1090.78 1093.44 1095.39 Q1096.52 1099.97 1096.52 1108.72 Q1096.52 1117.45 1093.44 1122.06 Q1090.39 1126.64 1084.58 1126.64 Q1078.77 1126.64 1075.69 1122.06 Q1072.63 1117.45 1072.63 1108.72 Q1072.63 1099.97 1075.69 1095.39 Q1078.77 1090.78 1084.58 1090.78 Z" fill="#000000" fill-rule="nonzero" fill-opacity="1" /><path clip-path="url(#clip630)" d="M1104.74 1120.09 L1109.62 1120.09 L1109.62 1125.97 L1104.74 1125.97 L1104.74 1120.09 Z" fill="#000000" fill-rule="nonzero" fill-opacity="1" /><path clip-path="url(#clip630)" d="M1118.63 1091.41 L1140.85 1091.41 L1140.85 1093.4 L1128.3 1125.97 L1123.42 1125.97 L1135.23 1095.34 L1118.63 1095.34 L1118.63 1091.41 Z" fill="#000000" fill-rule="nonzero" fill-opacity="1" /><path clip-path="url(#clip630)" d="M1150.02 1091.41 L1168.37 1091.41 L1168.37 1095.34 L1154.3 1095.34 L1154.3 1103.82 Q1155.32 1103.47 1156.34 1103.31 Q1157.36 1103.12 1158.37 1103.12 Q1164.16 1103.12 1167.54 1106.29 Q1170.92 1109.46 1170.92 1114.88 Q1170.92 1120.46 1167.45 1123.56 Q1163.98 1126.64 1157.66 1126.64 Q1155.48 1126.64 1153.21 1126.27 Q1150.97 1125.9 1148.56 1125.16 L1148.56 1120.46 Q1150.64 1121.59 1152.86 1122.15 Q1155.09 1122.7 1157.56 1122.7 Q1161.57 1122.7 1163.91 1120.6 Q1166.24 1118.49 1166.24 1114.88 Q1166.24 1111.27 1163.91 1109.16 Q1161.57 1107.06 1157.56 1107.06 Q1155.69 1107.06 1153.81 1107.47 Q1151.96 1107.89 1150.02 1108.77 L1150.02 1091.41 Z" fill="#000000" fill-rule="nonzero" fill-opacity="1" /><polyline clip-path="url(#clip632)" style="stroke:#000000; stroke-linecap:round; stroke-linejoin:round; stroke-width:2; stroke-opacity:0.1; fill:none" points="212.098,1013.04 1152.76,1013.04 "/>
<polyline clip-path="url(#clip632)" style="stroke:#000000; stroke-linecap:round; stroke-linejoin:round; stroke-width:2; stroke-opacity:0.1; fill:none" points="212.098,873.714 1152.76,873.714 "/>
<polyline clip-path="url(#clip632)" style="stroke:#000000; stroke-linecap:round; stroke-linejoin:round; stroke-width:2; stroke-opacity:0.1; fill:none" points="212.098,734.385 1152.76,734.385 "/>
<polyline clip-path="url(#clip632)" style="stroke:#000000; stroke-linecap:round; stroke-linejoin:round; stroke-width:2; stroke-opacity:0.1; fill:none" points="212.098,595.057 1152.76,595.057 "/>
<polyline clip-path="url(#clip632)" style="stroke:#000000; stroke-linecap:round; stroke-linejoin:round; stroke-width:2; stroke-opacity:0.1; fill:none" points="212.098,455.728 1152.76,455.728 "/>
<polyline clip-path="url(#clip632)" style="stroke:#000000; stroke-linecap:round; stroke-linejoin:round; stroke-width:2; stroke-opacity:0.1; fill:none" points="212.098,316.399 1152.76,316.399 "/>
<polyline clip-path="url(#clip632)" style="stroke:#000000; stroke-linecap:round; stroke-linejoin:round; stroke-width:2; stroke-opacity:0.1; fill:none" points="212.098,177.071 1152.76,177.071 "/>
<polyline clip-path="url(#clip630)" style="stroke:#000000; stroke-linecap:round; stroke-linejoin:round; stroke-width:4; stroke-opacity:1; fill:none" points="212.098,1073.17 212.098,47.2441 "/>
<polyline clip-path="url(#clip630)" style="stroke:#000000; stroke-linecap:round; stroke-linejoin:round; stroke-width:4; stroke-opacity:1; fill:none" points="212.098,1013.04 230.996,1013.04 "/>
<polyline clip-path="url(#clip630)" style="stroke:#000000; stroke-linecap:round; stroke-linejoin:round; stroke-width:4; stroke-opacity:1; fill:none" points="212.098,873.714 230.996,873.714 "/>
<polyline clip-path="url(#clip630)" style="stroke:#000000; stroke-linecap:round; stroke-linejoin:round; stroke-width:4; stroke-opacity:1; fill:none" points="212.098,734.385 230.996,734.385 "/>
<polyline clip-path="url(#clip630)" style="stroke:#000000; stroke-linecap:round; stroke-linejoin:round; stroke-width:4; stroke-opacity:1; fill:none" points="212.098,595.057 230.996,595.057 "/>
<polyline clip-path="url(#clip630)" style="stroke:#000000; stroke-linecap:round; stroke-linejoin:round; stroke-width:4; stroke-opacity:1; fill:none" points="212.098,455.728 230.996,455.728 "/>
<polyline clip-path="url(#clip630)" style="stroke:#000000; stroke-linecap:round; stroke-linejoin:round; stroke-width:4; stroke-opacity:1; fill:none" points="212.098,316.399 230.996,316.399 "/>
<polyline clip-path="url(#clip630)" style="stroke:#000000; stroke-linecap:round; stroke-linejoin:round; stroke-width:4; stroke-opacity:1; fill:none" points="212.098,177.071 230.996,177.071 "/>
<path clip-path="url(#clip630)" d="M57.9875 1013.49 L87.6633 1013.49 L87.6633 1017.43 L57.9875 1017.43 L57.9875 1013.49 Z" fill="#000000" fill-rule="nonzero" fill-opacity="1" /><path clip-path="url(#clip630)" d="M107.756 998.841 Q104.145 998.841 102.316 1002.41 Q100.51 1005.95 100.51 1013.08 Q100.51 1020.18 102.316 1023.75 Q104.145 1027.29 107.756 1027.29 Q111.39 1027.29 113.196 1023.75 Q115.024 1020.18 115.024 1013.08 Q115.024 1005.95 113.196 1002.41 Q111.39 998.841 107.756 998.841 M107.756 995.138 Q113.566 995.138 116.621 999.744 Q119.7 1004.33 119.7 1013.08 Q119.7 1021.8 116.621 1026.41 Q113.566 1030.99 107.756 1030.99 Q101.946 1030.99 98.8669 1026.41 Q95.8114 1021.8 95.8114 1013.08 Q95.8114 1004.33 98.8669 999.744 Q101.946 995.138 107.756 995.138 Z" fill="#000000" fill-rule="nonzero" fill-opacity="1" /><path clip-path="url(#clip630)" d="M127.918 1024.44 L132.802 1024.44 L132.802 1030.32 L127.918 1030.32 L127.918 1024.44 Z" fill="#000000" fill-rule="nonzero" fill-opacity="1" /><path clip-path="url(#clip630)" d="M141.806 995.763 L164.029 995.763 L164.029 997.753 L151.482 1030.32 L146.598 1030.32 L158.404 999.698 L141.806 999.698 L141.806 995.763 Z" fill="#000000" fill-rule="nonzero" fill-opacity="1" /><path clip-path="url(#clip630)" d="M173.195 995.763 L191.552 995.763 L191.552 999.698 L177.478 999.698 L177.478 1008.17 Q178.496 1007.82 179.515 1007.66 Q180.533 1007.48 181.552 1007.48 Q187.339 1007.48 190.718 1010.65 Q194.098 1013.82 194.098 1019.23 Q194.098 1024.81 190.626 1027.92 Q187.153 1030.99 180.834 1030.99 Q178.658 1030.99 176.39 1030.62 Q174.144 1030.25 171.737 1029.51 L171.737 1024.81 Q173.82 1025.95 176.042 1026.5 Q178.265 1027.06 180.741 1027.06 Q184.746 1027.06 187.084 1024.95 Q189.422 1022.85 189.422 1019.23 Q189.422 1015.62 187.084 1013.52 Q184.746 1011.41 180.741 1011.41 Q178.866 1011.41 176.991 1011.83 Q175.14 1012.24 173.195 1013.12 L173.195 995.763 Z" fill="#000000" fill-rule="nonzero" fill-opacity="1" /><path clip-path="url(#clip630)" d="M56.9921 874.165 L86.6679 874.165 L86.6679 878.101 L56.9921 878.101 L56.9921 874.165 Z" fill="#000000" fill-rule="nonzero" fill-opacity="1" /><path clip-path="url(#clip630)" d="M106.76 859.513 Q103.149 859.513 101.321 863.077 Q99.515 866.619 99.515 873.749 Q99.515 880.855 101.321 884.42 Q103.149 887.962 106.76 887.962 Q110.395 887.962 112.2 884.42 Q114.029 880.855 114.029 873.749 Q114.029 866.619 112.2 863.077 Q110.395 859.513 106.76 859.513 M106.76 855.809 Q112.571 855.809 115.626 860.415 Q118.705 864.999 118.705 873.749 Q118.705 882.476 115.626 887.082 Q112.571 891.665 106.76 891.665 Q100.95 891.665 97.8715 887.082 Q94.816 882.476 94.816 873.749 Q94.816 864.999 97.8715 860.415 Q100.95 855.809 106.76 855.809 Z" fill="#000000" fill-rule="nonzero" fill-opacity="1" /><path clip-path="url(#clip630)" d="M126.922 885.114 L131.807 885.114 L131.807 890.994 L126.922 890.994 L126.922 885.114 Z" fill="#000000" fill-rule="nonzero" fill-opacity="1" /><path clip-path="url(#clip630)" d="M142.038 856.434 L160.394 856.434 L160.394 860.369 L146.32 860.369 L146.32 868.841 Q147.339 868.494 148.357 868.332 Q149.376 868.147 150.394 868.147 Q156.181 868.147 159.561 871.318 Q162.941 874.489 162.941 879.906 Q162.941 885.485 159.468 888.587 Q155.996 891.665 149.677 891.665 Q147.501 891.665 145.232 891.295 Q142.987 890.925 140.58 890.184 L140.58 885.485 Q142.663 886.619 144.885 887.175 Q147.107 887.73 149.584 887.73 Q153.589 887.73 155.927 885.624 Q158.265 883.517 158.265 879.906 Q158.265 876.295 155.927 874.189 Q153.589 872.082 149.584 872.082 Q147.709 872.082 145.834 872.499 Q143.982 872.915 142.038 873.795 L142.038 856.434 Z" fill="#000000" fill-rule="nonzero" fill-opacity="1" /><path clip-path="url(#clip630)" d="M182.153 859.513 Q178.542 859.513 176.714 863.077 Q174.908 866.619 174.908 873.749 Q174.908 880.855 176.714 884.42 Q178.542 887.962 182.153 887.962 Q185.788 887.962 187.593 884.42 Q189.422 880.855 189.422 873.749 Q189.422 866.619 187.593 863.077 Q185.788 859.513 182.153 859.513 M182.153 855.809 Q187.964 855.809 191.019 860.415 Q194.098 864.999 194.098 873.749 Q194.098 882.476 191.019 887.082 Q187.964 891.665 182.153 891.665 Q176.343 891.665 173.265 887.082 Q170.209 882.476 170.209 873.749 Q170.209 864.999 173.265 860.415 Q176.343 855.809 182.153 855.809 Z" fill="#000000" fill-rule="nonzero" fill-opacity="1" /><path clip-path="url(#clip630)" d="M57.9875 734.837 L87.6633 734.837 L87.6633 738.772 L57.9875 738.772 L57.9875 734.837 Z" fill="#000000" fill-rule="nonzero" fill-opacity="1" /><path clip-path="url(#clip630)" d="M107.756 720.184 Q104.145 720.184 102.316 723.749 Q100.51 727.29 100.51 734.42 Q100.51 741.526 102.316 745.091 Q104.145 748.633 107.756 748.633 Q111.39 748.633 113.196 745.091 Q115.024 741.526 115.024 734.42 Q115.024 727.29 113.196 723.749 Q111.39 720.184 107.756 720.184 M107.756 716.48 Q113.566 716.48 116.621 721.087 Q119.7 725.67 119.7 734.42 Q119.7 743.147 116.621 747.753 Q113.566 752.337 107.756 752.337 Q101.946 752.337 98.8669 747.753 Q95.8114 743.147 95.8114 734.42 Q95.8114 725.67 98.8669 721.087 Q101.946 716.48 107.756 716.48 Z" fill="#000000" fill-rule="nonzero" fill-opacity="1" /><path clip-path="url(#clip630)" d="M127.918 745.786 L132.802 745.786 L132.802 751.665 L127.918 751.665 L127.918 745.786 Z" fill="#000000" fill-rule="nonzero" fill-opacity="1" /><path clip-path="url(#clip630)" d="M147.015 747.73 L163.334 747.73 L163.334 751.665 L141.39 751.665 L141.39 747.73 Q144.052 744.976 148.635 740.346 Q153.242 735.693 154.422 734.351 Q156.668 731.827 157.547 730.091 Q158.45 728.332 158.45 726.642 Q158.45 723.888 156.505 722.152 Q154.584 720.415 151.482 720.415 Q149.283 720.415 146.83 721.179 Q144.399 721.943 141.621 723.494 L141.621 718.772 Q144.445 717.638 146.899 717.059 Q149.353 716.48 151.39 716.48 Q156.76 716.48 159.955 719.165 Q163.149 721.851 163.149 726.341 Q163.149 728.471 162.339 730.392 Q161.552 732.29 159.445 734.883 Q158.867 735.554 155.765 738.772 Q152.663 741.966 147.015 747.73 Z" fill="#000000" fill-rule="nonzero" fill-opacity="1" /><path clip-path="url(#clip630)" d="M173.195 717.105 L191.552 717.105 L191.552 721.04 L177.478 721.04 L177.478 729.513 Q178.496 729.165 179.515 729.003 Q180.533 728.818 181.552 728.818 Q187.339 728.818 190.718 731.99 Q194.098 735.161 194.098 740.577 Q194.098 746.156 190.626 749.258 Q187.153 752.337 180.834 752.337 Q178.658 752.337 176.39 751.966 Q174.144 751.596 171.737 750.855 L171.737 746.156 Q173.82 747.29 176.042 747.846 Q178.265 748.401 180.741 748.401 Q184.746 748.401 187.084 746.295 Q189.422 744.189 189.422 740.577 Q189.422 736.966 187.084 734.86 Q184.746 732.753 180.741 732.753 Q178.866 732.753 176.991 733.17 Q175.14 733.587 173.195 734.466 L173.195 717.105 Z" fill="#000000" fill-rule="nonzero" fill-opacity="1" /><path clip-path="url(#clip630)" d="M106.76 580.855 Q103.149 580.855 101.321 584.42 Q99.515 587.962 99.515 595.091 Q99.515 602.198 101.321 605.763 Q103.149 609.304 106.76 609.304 Q110.395 609.304 112.2 605.763 Q114.029 602.198 114.029 595.091 Q114.029 587.962 112.2 584.42 Q110.395 580.855 106.76 580.855 M106.76 577.152 Q112.571 577.152 115.626 581.758 Q118.705 586.341 118.705 595.091 Q118.705 603.818 115.626 608.425 Q112.571 613.008 106.76 613.008 Q100.95 613.008 97.8715 608.425 Q94.816 603.818 94.816 595.091 Q94.816 586.341 97.8715 581.758 Q100.95 577.152 106.76 577.152 Z" fill="#000000" fill-rule="nonzero" fill-opacity="1" /><path clip-path="url(#clip630)" d="M126.922 606.457 L131.807 606.457 L131.807 612.337 L126.922 612.337 L126.922 606.457 Z" fill="#000000" fill-rule="nonzero" fill-opacity="1" /><path clip-path="url(#clip630)" d="M151.992 580.855 Q148.381 580.855 146.552 584.42 Q144.746 587.962 144.746 595.091 Q144.746 602.198 146.552 605.763 Q148.381 609.304 151.992 609.304 Q155.626 609.304 157.431 605.763 Q159.26 602.198 159.26 595.091 Q159.26 587.962 157.431 584.42 Q155.626 580.855 151.992 580.855 M151.992 577.152 Q157.802 577.152 160.857 581.758 Q163.936 586.341 163.936 595.091 Q163.936 603.818 160.857 608.425 Q157.802 613.008 151.992 613.008 Q146.181 613.008 143.103 608.425 Q140.047 603.818 140.047 595.091 Q140.047 586.341 143.103 581.758 Q146.181 577.152 151.992 577.152 Z" fill="#000000" fill-rule="nonzero" fill-opacity="1" /><path clip-path="url(#clip630)" d="M182.153 580.855 Q178.542 580.855 176.714 584.42 Q174.908 587.962 174.908 595.091 Q174.908 602.198 176.714 605.763 Q178.542 609.304 182.153 609.304 Q185.788 609.304 187.593 605.763 Q189.422 602.198 189.422 595.091 Q189.422 587.962 187.593 584.42 Q185.788 580.855 182.153 580.855 M182.153 577.152 Q187.964 577.152 191.019 581.758 Q194.098 586.341 194.098 595.091 Q194.098 603.818 191.019 608.425 Q187.964 613.008 182.153 613.008 Q176.343 613.008 173.265 608.425 Q170.209 603.818 170.209 595.091 Q170.209 586.341 173.265 581.758 Q176.343 577.152 182.153 577.152 Z" fill="#000000" fill-rule="nonzero" fill-opacity="1" /><path clip-path="url(#clip630)" d="M107.756 441.527 Q104.145 441.527 102.316 445.091 Q100.51 448.633 100.51 455.763 Q100.51 462.869 102.316 466.434 Q104.145 469.976 107.756 469.976 Q111.39 469.976 113.196 466.434 Q115.024 462.869 115.024 455.763 Q115.024 448.633 113.196 445.091 Q111.39 441.527 107.756 441.527 M107.756 437.823 Q113.566 437.823 116.621 442.429 Q119.7 447.013 119.7 455.763 Q119.7 464.489 116.621 469.096 Q113.566 473.679 107.756 473.679 Q101.946 473.679 98.8669 469.096 Q95.8114 464.489 95.8114 455.763 Q95.8114 447.013 98.8669 442.429 Q101.946 437.823 107.756 437.823 Z" fill="#000000" fill-rule="nonzero" fill-opacity="1" /><path clip-path="url(#clip630)" d="M127.918 467.128 L132.802 467.128 L132.802 473.008 L127.918 473.008 L127.918 467.128 Z" fill="#000000" fill-rule="nonzero" fill-opacity="1" /><path clip-path="url(#clip630)" d="M147.015 469.073 L163.334 469.073 L163.334 473.008 L141.39 473.008 L141.39 469.073 Q144.052 466.318 148.635 461.689 Q153.242 457.036 154.422 455.693 Q156.668 453.17 157.547 451.434 Q158.45 449.675 158.45 447.985 Q158.45 445.23 156.505 443.494 Q154.584 441.758 151.482 441.758 Q149.283 441.758 146.83 442.522 Q144.399 443.286 141.621 444.837 L141.621 440.115 Q144.445 438.98 146.899 438.402 Q149.353 437.823 151.39 437.823 Q156.76 437.823 159.955 440.508 Q163.149 443.193 163.149 447.684 Q163.149 449.814 162.339 451.735 Q161.552 453.633 159.445 456.226 Q158.867 456.897 155.765 460.115 Q152.663 463.309 147.015 469.073 Z" fill="#000000" fill-rule="nonzero" fill-opacity="1" /><path clip-path="url(#clip630)" d="M173.195 438.448 L191.552 438.448 L191.552 442.383 L177.478 442.383 L177.478 450.855 Q178.496 450.508 179.515 450.346 Q180.533 450.161 181.552 450.161 Q187.339 450.161 190.718 453.332 Q194.098 456.503 194.098 461.92 Q194.098 467.499 190.626 470.601 Q187.153 473.679 180.834 473.679 Q178.658 473.679 176.39 473.309 Q174.144 472.939 171.737 472.198 L171.737 467.499 Q173.82 468.633 176.042 469.189 Q178.265 469.744 180.741 469.744 Q184.746 469.744 187.084 467.638 Q189.422 465.531 189.422 461.92 Q189.422 458.309 187.084 456.203 Q184.746 454.096 180.741 454.096 Q178.866 454.096 176.991 454.513 Q175.14 454.929 173.195 455.809 L173.195 438.448 Z" fill="#000000" fill-rule="nonzero" fill-opacity="1" /><path clip-path="url(#clip630)" d="M106.76 302.198 Q103.149 302.198 101.321 305.763 Q99.515 309.304 99.515 316.434 Q99.515 323.54 101.321 327.105 Q103.149 330.647 106.76 330.647 Q110.395 330.647 112.2 327.105 Q114.029 323.54 114.029 316.434 Q114.029 309.304 112.2 305.763 Q110.395 302.198 106.76 302.198 M106.76 298.494 Q112.571 298.494 115.626 303.101 Q118.705 307.684 118.705 316.434 Q118.705 325.161 115.626 329.767 Q112.571 334.351 106.76 334.351 Q100.95 334.351 97.8715 329.767 Q94.816 325.161 94.816 316.434 Q94.816 307.684 97.8715 303.101 Q100.95 298.494 106.76 298.494 Z" fill="#000000" fill-rule="nonzero" fill-opacity="1" /><path clip-path="url(#clip630)" d="M126.922 327.8 L131.807 327.8 L131.807 333.679 L126.922 333.679 L126.922 327.8 Z" fill="#000000" fill-rule="nonzero" fill-opacity="1" /><path clip-path="url(#clip630)" d="M142.038 299.119 L160.394 299.119 L160.394 303.054 L146.32 303.054 L146.32 311.527 Q147.339 311.179 148.357 311.017 Q149.376 310.832 150.394 310.832 Q156.181 310.832 159.561 314.003 Q162.941 317.175 162.941 322.591 Q162.941 328.17 159.468 331.272 Q155.996 334.351 149.677 334.351 Q147.501 334.351 145.232 333.98 Q142.987 333.61 140.58 332.869 L140.58 328.17 Q142.663 329.304 144.885 329.86 Q147.107 330.415 149.584 330.415 Q153.589 330.415 155.927 328.309 Q158.265 326.202 158.265 322.591 Q158.265 318.98 155.927 316.874 Q153.589 314.767 149.584 314.767 Q147.709 314.767 145.834 315.184 Q143.982 315.601 142.038 316.48 L142.038 299.119 Z" fill="#000000" fill-rule="nonzero" fill-opacity="1" /><path clip-path="url(#clip630)" d="M182.153 302.198 Q178.542 302.198 176.714 305.763 Q174.908 309.304 174.908 316.434 Q174.908 323.54 176.714 327.105 Q178.542 330.647 182.153 330.647 Q185.788 330.647 187.593 327.105 Q189.422 323.54 189.422 316.434 Q189.422 309.304 187.593 305.763 Q185.788 302.198 182.153 302.198 M182.153 298.494 Q187.964 298.494 191.019 303.101 Q194.098 307.684 194.098 316.434 Q194.098 325.161 191.019 329.767 Q187.964 334.351 182.153 334.351 Q176.343 334.351 173.265 329.767 Q170.209 325.161 170.209 316.434 Q170.209 307.684 173.265 303.101 Q176.343 298.494 182.153 298.494 Z" fill="#000000" fill-rule="nonzero" fill-opacity="1" /><path clip-path="url(#clip630)" d="M107.756 162.869 Q104.145 162.869 102.316 166.434 Q100.51 169.976 100.51 177.105 Q100.51 184.212 102.316 187.777 Q104.145 191.318 107.756 191.318 Q111.39 191.318 113.196 187.777 Q115.024 184.212 115.024 177.105 Q115.024 169.976 113.196 166.434 Q111.39 162.869 107.756 162.869 M107.756 159.166 Q113.566 159.166 116.621 163.772 Q119.7 168.355 119.7 177.105 Q119.7 185.832 116.621 190.439 Q113.566 195.022 107.756 195.022 Q101.946 195.022 98.8669 190.439 Q95.8114 185.832 95.8114 177.105 Q95.8114 168.355 98.8669 163.772 Q101.946 159.166 107.756 159.166 Z" fill="#000000" fill-rule="nonzero" fill-opacity="1" /><path clip-path="url(#clip630)" d="M127.918 188.471 L132.802 188.471 L132.802 194.351 L127.918 194.351 L127.918 188.471 Z" fill="#000000" fill-rule="nonzero" fill-opacity="1" /><path clip-path="url(#clip630)" d="M141.806 159.791 L164.029 159.791 L164.029 161.781 L151.482 194.351 L146.598 194.351 L158.404 163.726 L141.806 163.726 L141.806 159.791 Z" fill="#000000" fill-rule="nonzero" fill-opacity="1" /><path clip-path="url(#clip630)" d="M173.195 159.791 L191.552 159.791 L191.552 163.726 L177.478 163.726 L177.478 172.198 Q178.496 171.851 179.515 171.689 Q180.533 171.504 181.552 171.504 Q187.339 171.504 190.718 174.675 Q194.098 177.846 194.098 183.263 Q194.098 188.841 190.626 191.943 Q187.153 195.022 180.834 195.022 Q178.658 195.022 176.39 194.652 Q174.144 194.281 171.737 193.54 L171.737 188.841 Q173.82 189.976 176.042 190.531 Q178.265 191.087 180.741 191.087 Q184.746 191.087 187.084 188.98 Q189.422 186.874 189.422 183.263 Q189.422 179.652 187.084 177.545 Q184.746 175.439 180.741 175.439 Q178.866 175.439 176.991 175.855 Q175.14 176.272 173.195 177.152 L173.195 159.791 Z" fill="#000000" fill-rule="nonzero" fill-opacity="1" /><polyline clip-path="url(#clip632)" style="stroke:#000000; stroke-linecap:round; stroke-linejoin:round; stroke-width:4; stroke-opacity:1; fill:none" points="1049.95,902.872 1101.69,921.165 "/>
<polyline clip-path="url(#clip632)" style="stroke:#000000; stroke-linecap:round; stroke-linejoin:round; stroke-width:4; stroke-opacity:1; fill:none" points="1087.72,906.68 1101.69,921.165 1081.72,923.65 "/>
<polyline clip-path="url(#clip632)" style="stroke:#000000; stroke-linecap:round; stroke-linejoin:round; stroke-width:4; stroke-opacity:1; fill:none" points="1101.69,921.165 1049.95,902.872 "/>
<circle clip-path="url(#clip632)" cx="1049.95" cy="902.872" r="14.4" fill="#e26f46" fill-rule="evenodd" fill-opacity="1" stroke="#000000" stroke-opacity="1" stroke-width="2.4"/>
<polyline clip-path="url(#clip632)" style="stroke:#000000; stroke-linecap:round; stroke-linejoin:round; stroke-width:4; stroke-opacity:1; fill:none" points="904.544,125.926 944.27,87.5569 "/>
<polyline clip-path="url(#clip632)" style="stroke:#000000; stroke-linecap:round; stroke-linejoin:round; stroke-width:4; stroke-opacity:1; fill:none" points="925.071,93.5882 944.27,87.5569 937.576,106.535 "/>
<polyline clip-path="url(#clip632)" style="stroke:#000000; stroke-linecap:round; stroke-linejoin:round; stroke-width:4; stroke-opacity:1; fill:none" points="944.27,87.5569 904.544,125.926 "/>
<circle clip-path="url(#clip632)" cx="904.544" cy="125.926" r="14.4" fill="#c271d2" fill-rule="evenodd" fill-opacity="1" stroke="#000000" stroke-opacity="1" stroke-width="2.4"/>
<polyline clip-path="url(#clip632)" style="stroke:#000000; stroke-linecap:round; stroke-linejoin:round; stroke-width:4; stroke-opacity:1; fill:none" points="1114.9,741.802 1126.13,687.254 "/>
<polyline clip-path="url(#clip632)" style="stroke:#000000; stroke-linecap:round; stroke-linejoin:round; stroke-width:4; stroke-opacity:1; fill:none" points="1113.69,703.07 1126.13,687.254 1131.32,706.699 "/>
<polyline clip-path="url(#clip632)" style="stroke:#000000; stroke-linecap:round; stroke-linejoin:round; stroke-width:4; stroke-opacity:1; fill:none" points="1126.13,687.254 1114.9,741.802 "/>
<circle clip-path="url(#clip632)" cx="1126.13" cy="687.254" r="14.4" fill="#00a9ad" fill-rule="evenodd" fill-opacity="1" stroke="#000000" stroke-opacity="1" stroke-width="2.4"/>
<polyline clip-path="url(#clip632)" style="stroke:#000000; stroke-linecap:round; stroke-linejoin:round; stroke-width:4; stroke-opacity:1; fill:none" points="798.437,469.097 804.403,524.497 "/>
<polyline clip-path="url(#clip632)" style="stroke:#000000; stroke-linecap:round; stroke-linejoin:round; stroke-width:4; stroke-opacity:1; fill:none" points="811.424,505.637 804.403,524.497 793.527,507.564 "/>
<polyline clip-path="url(#clip632)" style="stroke:#000000; stroke-linecap:round; stroke-linejoin:round; stroke-width:4; stroke-opacity:1; fill:none" points="804.403,524.497 798.437,469.097 "/>
<circle clip-path="url(#clip632)" cx="804.403" cy="524.497" r="14.4" fill="#c68125" fill-rule="evenodd" fill-opacity="1" stroke="#000000" stroke-opacity="1" stroke-width="2.4"/>
<polyline clip-path="url(#clip632)" style="stroke:#000000; stroke-linecap:round; stroke-linejoin:round; stroke-width:4; stroke-opacity:1; fill:none" points="798.152,256.358 806.365,201.256 "/>
<polyline clip-path="url(#clip632)" style="stroke:#000000; stroke-linecap:round; stroke-linejoin:round; stroke-width:4; stroke-opacity:1; fill:none" points="794.81,217.733 806.365,201.256 812.613,220.386 "/>
<polyline clip-path="url(#clip632)" style="stroke:#000000; stroke-linecap:round; stroke-linejoin:round; stroke-width:4; stroke-opacity:1; fill:none" points="806.365,201.256 798.152,256.358 "/>
<circle clip-path="url(#clip632)" cx="798.152" cy="256.358" r="14.4" fill="#8e971d" fill-rule="evenodd" fill-opacity="1" stroke="#000000" stroke-opacity="1" stroke-width="2.4"/>
<polyline clip-path="url(#clip632)" style="stroke:#000000; stroke-linecap:round; stroke-linejoin:round; stroke-width:4; stroke-opacity:1; fill:none" points="241.727,112.775 283.125,76.2797 "/>
<polyline clip-path="url(#clip632)" style="stroke:#000000; stroke-linecap:round; stroke-linejoin:round; stroke-width:4; stroke-opacity:1; fill:none" points="263.671,81.4317 283.125,76.2797 275.574,94.9341 "/>
<polyline clip-path="url(#clip632)" style="stroke:#000000; stroke-linecap:round; stroke-linejoin:round; stroke-width:4; stroke-opacity:1; fill:none" points="283.125,76.2797 241.727,112.775 "/>
<circle clip-path="url(#clip632)" cx="241.727" cy="112.775" r="14.4" fill="#9b7fe8" fill-rule="evenodd" fill-opacity="1" stroke="#000000" stroke-opacity="1" stroke-width="2.4"/>
<polyline clip-path="url(#clip632)" style="stroke:#000000; stroke-linecap:round; stroke-linejoin:round; stroke-width:4; stroke-opacity:1; fill:none" points="1027.1,493.852 1033.6,438.514 "/>
<polyline clip-path="url(#clip632)" style="stroke:#000000; stroke-linecap:round; stroke-linejoin:round; stroke-width:4; stroke-opacity:1; fill:none" points="1022.56,455.342 1033.6,438.514 1040.44,457.44 "/>
<polyline clip-path="url(#clip632)" style="stroke:#000000; stroke-linecap:round; stroke-linejoin:round; stroke-width:4; stroke-opacity:1; fill:none" points="1033.6,438.514 1027.1,493.852 "/>
<circle clip-path="url(#clip632)" cx="1033.6" cy="438.514" r="14.4" fill="#f05f73" fill-rule="evenodd" fill-opacity="1" stroke="#000000" stroke-opacity="1" stroke-width="2.4"/>
<polyline clip-path="url(#clip632)" style="stroke:#000000; stroke-linecap:round; stroke-linejoin:round; stroke-width:4; stroke-opacity:1; fill:none" points="862.97,363.908 907.834,395.882 "/>
<polyline clip-path="url(#clip632)" style="stroke:#000000; stroke-linecap:round; stroke-linejoin:round; stroke-width:4; stroke-opacity:1; fill:none" points="898.399,378.106 907.834,395.882 887.952,392.765 "/>
<polyline clip-path="url(#clip632)" style="stroke:#000000; stroke-linecap:round; stroke-linejoin:round; stroke-width:4; stroke-opacity:1; fill:none" points="907.834,395.882 862.97,363.908 "/>
<circle clip-path="url(#clip632)" cx="862.97" cy="363.908" r="14.4" fill="#6b9e32" fill-rule="evenodd" fill-opacity="1" stroke="#000000" stroke-opacity="1" stroke-width="2.4"/>
<polyline clip-path="url(#clip632)" style="stroke:#000000; stroke-linecap:round; stroke-linejoin:round; stroke-width:4; stroke-opacity:1; fill:none" points="238.72,1029.39 291.546,1044.13 "/>
<polyline clip-path="url(#clip632)" style="stroke:#000000; stroke-linecap:round; stroke-linejoin:round; stroke-width:4; stroke-opacity:1; fill:none" points="276.627,1030.63 291.546,1044.13 271.79,1047.96 "/>
<polyline clip-path="url(#clip632)" style="stroke:#000000; stroke-linecap:round; stroke-linejoin:round; stroke-width:4; stroke-opacity:1; fill:none" points="291.546,1044.13 238.72,1029.39 "/>
<circle clip-path="url(#clip632)" cx="291.546" cy="1044.13" r="14.4" fill="#e26f46" fill-rule="evenodd" fill-opacity="1" stroke="#000000" stroke-opacity="1" stroke-width="2.4"/>
<polyline clip-path="url(#clip632)" style="stroke:#000000; stroke-linecap:round; stroke-linejoin:round; stroke-width:4; stroke-opacity:1; fill:none" points="900.724,823.076 932.928,868.159 "/>
<polyline clip-path="url(#clip632)" style="stroke:#000000; stroke-linecap:round; stroke-linejoin:round; stroke-width:4; stroke-opacity:1; fill:none" points="929.789,848.28 932.928,868.159 915.142,858.743 "/>
<polyline clip-path="url(#clip632)" style="stroke:#000000; stroke-linecap:round; stroke-linejoin:round; stroke-width:4; stroke-opacity:1; fill:none" points="932.928,868.159 900.724,823.076 "/>
<circle clip-path="url(#clip632)" cx="900.724" cy="823.076" r="14.4" fill="#c271d2" fill-rule="evenodd" fill-opacity="1" stroke="#000000" stroke-opacity="1" stroke-width="2.4"/>
</svg>
