<?xml version="1.0" encoding="utf-8"?>
<svg xmlns="http://www.w3.org/2000/svg" xmlns:xlink="http://www.w3.org/1999/xlink" width="300" height="300" viewBox="0 0 1200 1200">
<defs>
  <clipPath id="clip810">
    <rect x="0" y="0" width="1200" height="1200"/>
  </clipPath>
</defs>
<path clip-path="url(#clip810)" d="M0 1200 L1200 1200 L1200 0 L0 0  Z" fill="#ffffff" fill-rule="evenodd" fill-opacity="1"/>
<defs>
  <clipPath id="clip811">
    <rect x="240" y="120" width="841" height="841"/>
  </clipPath>
</defs>
<path clip-path="url(#clip810)" d="M135.478 1073.17 L1152.76 1073.17 L1152.76 47.2441 L135.478 47.2441  Z" fill="#ffffff" fill-rule="evenodd" fill-opacity="1"/>
<defs>
  <clipPath id="clip812">
    <rect x="135" y="47" width="1018" height="1027"/>
  </clipPath>
</defs>
<polyline clip-path="url(#clip812)" style="stroke:#000000; stroke-linecap:round; stroke-linejoin:round; stroke-width:2; stroke-opacity:0.1; fill:none" points="331.633,1073.17 331.633,47.2441 "/>
<polyline clip-path="url(#clip812)" style="stroke:#000000; stroke-linecap:round; stroke-linejoin:round; stroke-width:2; stroke-opacity:0.1; fill:none" points="567.137,1073.17 567.137,47.2441 "/>
<polyline clip-path="url(#clip812)" style="stroke:#000000; stroke-linecap:round; stroke-linejoin:round; stroke-width:2; stroke-opacity:0.1; fill:none" points="802.642,1073.17 802.642,47.2441 "/>
<polyline clip-path="url(#clip812)" style="stroke:#000000; stroke-linecap:round; stroke-linejoin:round; stroke-width:2; stroke-opacity:0.1; fill:none" points="1038.15,1073.17 1038.15,47.2441 "/>
<polyline clip-path="url(#clip810)" style="stroke:#000000; stroke-linecap:round; stroke-linejoin:round; stroke-width:4; stroke-opacity:1; fill:none" points="135.478,1073.17 1152.76,1073.17 "/>
<polyline clip-path="url(#clip810)" style="stroke:#000000; stroke-linecap:round; stroke-linejoin:round; stroke-width:4; stroke-opacity:1; fill:none" points="331.633,1073.17 331.633,1054.27 "/>
<polyline clip-path="url(#clip810)" style="stroke:#000000; stroke-linecap:round; stroke-linejoin:round; stroke-width:4; stroke-opacity:1; fill:none" points="567.137,1073.17 567.137,1054.27 "/>
<polyline clip-path="url(#clip810)" style="stroke:#000000; stroke-linecap:round; stroke-linejoin:round; stroke-width:4; stroke-opacity:1; fill:none" points="802.642,1073.17 802.642,1054.27 "/>
<polyline clip-path="url(#clip810)" style="stroke:#000000; stroke-linecap:round; stroke-linejoin:round; stroke-width:4; stroke-opacity:1; fill:none" points="1038.15,1073.17 1038.15,1054.27 "/>
<path clip-path="url(#clip810)" d="M301.575 1109.14 L331.251 1109.14 L331.251 1113.07 L301.575 1113.07 L301.575 1109.14 Z" fill="#000000" fill-rule="nonzero" fill-opacity="1" /><path clip-path="url(#clip810)" d="M345.371 1122.03 L361.69 1122.03 L361.69 1125.97 L339.746 1125.97 L339.746 1122.03 Q342.408 1119.28 346.991 1114.65 Q351.598 1110 352.778 1108.65 Q355.024 1106.13 355.903 1104.39 Q356.806 1102.63 356.806 1100.94 Q356.806 1098.19 354.862 1096.45 Q352.94 1094.72 349.839 1094.72 Q347.639 1094.72 345.186 1095.48 Q342.755 1096.25 339.977 1097.8 L339.977 1093.07 Q342.802 1091.94 345.255 1091.36 Q347.709 1090.78 349.746 1090.78 Q355.116 1090.78 358.311 1093.47 Q361.505 1096.15 361.505 1100.64 Q361.505 1102.77 360.695 1104.69 Q359.908 1106.59 357.801 1109.19 Q357.223 1109.86 354.121 1113.07 Q351.019 1116.27 345.371 1122.03 Z" fill="#000000" fill-rule="nonzero" fill-opacity="1" /><path clip-path="url(#clip810)" d="M567.137 1094.49 Q563.526 1094.49 561.698 1098.05 Q559.892 1101.59 559.892 1108.72 Q559.892 1115.83 561.698 1119.39 Q563.526 1122.94 567.137 1122.94 Q570.772 1122.94 572.577 1119.39 Q574.406 1115.83 574.406 1108.72 Q574.406 1101.59 572.577 1098.05 Q570.772 1094.49 567.137 1094.49 M567.137 1090.78 Q572.948 1090.78 576.003 1095.39 Q579.082 1099.97 579.082 1108.72 Q579.082 1117.45 576.003 1122.06 Q572.948 1126.64 567.137 1126.64 Q561.327 1126.64 558.249 1122.06 Q555.193 1117.45 555.193 1108.72 Q555.193 1099.97 558.249 1095.39 Q561.327 1090.78 567.137 1090.78 Z" fill="#000000" fill-rule="nonzero" fill-opacity="1" /><path clip-path="url(#clip810)" d="M797.295 1122.03 L813.614 1122.03 L813.614 1125.97 L791.67 1125.97 L791.67 1122.03 Q794.332 1119.28 798.915 1114.65 Q803.522 1110 804.702 1108.65 Q806.948 1106.13 807.827 1104.39 Q808.73 1102.63 808.73 1100.94 Q808.73 1098.19 806.786 1096.45 Q804.865 1094.72 801.763 1094.72 Q799.564 1094.72 797.11 1095.48 Q794.679 1096.25 791.902 1097.8 L791.902 1093.07 Q794.726 1091.94 797.179 1091.36 Q799.633 1090.78 801.67 1090.78 Q807.04 1090.78 810.235 1093.47 Q813.429 1096.15 813.429 1100.64 Q813.429 1102.77 812.619 1104.69 Q811.832 1106.59 809.726 1109.19 Q809.147 1109.86 806.045 1113.07 Q802.943 1116.27 797.295 1122.03 Z" fill="#000000" fill-rule="nonzero" fill-opacity="1" /><path clip-path="url(#clip810)" d="M1041.16 1095.48 L1029.35 1113.93 L1041.16 1113.93 L1041.16 1095.48 M1039.93 1091.41 L1045.81 1091.41 L1045.81 1113.93 L1050.74 1113.93 L1050.74 1117.82 L1045.81 1117.82 L1045.81 1125.97 L1041.16 1125.97 L1041.16 1117.82 L1025.55 1117.82 L1025.55 1113.31 L1039.93 1091.41 Z" fill="#000000" fill-rule="nonzero" fill-opacity="1" /><polyline clip-path="url(#clip812)" style="stroke:#000000; stroke-linecap:round; stroke-linejoin:round; stroke-width:2; stroke-opacity:0.1; fill:none" points="135.478,959.383 1152.76,959.383 "/>
<polyline clip-path="url(#clip812)" style="stroke:#000000; stroke-linecap:round; stroke-linejoin:round; stroke-width:2; stroke-opacity:0.1; fill:none" points="135.478,769.222 1152.76,769.222 "/>
<polyline clip-path="url(#clip812)" style="stroke:#000000; stroke-linecap:round; stroke-linejoin:round; stroke-width:2; stroke-opacity:0.1; fill:none" points="135.478,579.061 1152.76,579.061 "/>
<polyline clip-path="url(#clip812)" style="stroke:#000000; stroke-linecap:round; stroke-linejoin:round; stroke-width:2; stroke-opacity:0.1; fill:none" points="135.478,388.9 1152.76,388.9 "/>
<polyline clip-path="url(#clip812)" style="stroke:#000000; stroke-linecap:round; stroke-linejoin:round; stroke-width:2; stroke-opacity:0.1; fill:none" points="135.478,198.738 1152.76,198.738 "/>
<polyline clip-path="url(#clip810)" style="stroke:#000000; stroke-linecap:round; stroke-linejoin:round; stroke-width:4; stroke-opacity:1; fill:none" points="135.478,1073.17 135.478,47.2441 "/>
<polyline clip-path="url(#clip810)" style="stroke:#000000; stroke-linecap:round; stroke-linejoin:round; stroke-width:4; stroke-opacity:1; fill:none" points="135.478,959.383 154.376,959.383 "/>
<polyline clip-path="url(#clip810)" style="stroke:#000000; stroke-linecap:round; stroke-linejoin:round; stroke-width:4; stroke-opacity:1; fill:none" points="135.478,769.222 154.376,769.222 "/>
<polyline clip-path="url(#clip810)" style="stroke:#000000; stroke-linecap:round; stroke-linejoin:round; stroke-width:4; stroke-opacity:1; fill:none" points="135.478,579.061 154.376,579.061 "/>
<polyline clip-path="url(#clip810)" style="stroke:#000000; stroke-linecap:round; stroke-linejoin:round; stroke-width:4; stroke-opacity:1; fill:none" points="135.478,388.9 154.376,388.9 "/>
<polyline clip-path="url(#clip810)" style="stroke:#000000; stroke-linecap:round; stroke-linejoin:round; stroke-width:4; stroke-opacity:1; fill:none" points="135.478,198.738 154.376,198.738 "/>
<path clip-path="url(#clip810)" d="M57.3625 959.834 L87.0383 959.834 L87.0383 963.769 L57.3625 963.769 L57.3625 959.834 Z" fill="#000000" fill-rule="nonzero" fill-opacity="1" /><path clip-path="url(#clip810)" d="M101.159 972.728 L117.478 972.728 L117.478 976.663 L95.5336 976.663 L95.5336 972.728 Q98.1956 969.973 102.779 965.343 Q107.385 960.691 108.566 959.348 Q110.811 956.825 111.691 955.089 Q112.594 953.33 112.594 951.64 Q112.594 948.885 110.649 947.149 Q108.728 945.413 105.626 945.413 Q103.427 945.413 100.973 946.177 Q98.5428 946.941 95.7651 948.492 L95.7651 943.77 Q98.5891 942.635 101.043 942.057 Q103.497 941.478 105.534 941.478 Q110.904 941.478 114.098 944.163 Q117.293 946.848 117.293 951.339 Q117.293 953.469 116.483 955.39 Q115.696 957.288 113.589 959.881 Q113.01 960.552 109.909 963.769 Q106.807 966.964 101.159 972.728 Z" fill="#000000" fill-rule="nonzero" fill-opacity="1" /><path clip-path="url(#clip810)" d="M56.9921 769.673 L86.6679 769.673 L86.6679 773.608 L56.9921 773.608 L56.9921 769.673 Z" fill="#000000" fill-rule="nonzero" fill-opacity="1" /><path clip-path="url(#clip810)" d="M97.5706 782.567 L105.209 782.567 L105.209 756.201 L96.8993 757.868 L96.8993 753.608 L105.163 751.942 L109.839 751.942 L109.839 782.567 L117.478 782.567 L117.478 786.502 L97.5706 786.502 L97.5706 782.567 Z" fill="#000000" fill-rule="nonzero" fill-opacity="1" /><path clip-path="url(#clip810)" d="M105.534 564.859 Q101.922 564.859 100.094 568.424 Q98.2882 571.966 98.2882 579.095 Q98.2882 586.202 100.094 589.767 Q101.922 593.308 105.534 593.308 Q109.168 593.308 110.973 589.767 Q112.802 586.202 112.802 579.095 Q112.802 571.966 110.973 568.424 Q109.168 564.859 105.534 564.859 M105.534 561.156 Q111.344 561.156 114.399 565.762 Q117.478 570.345 117.478 579.095 Q117.478 587.822 114.399 592.429 Q111.344 597.012 105.534 597.012 Q99.7234 597.012 96.6447 592.429 Q93.5892 587.822 93.5892 579.095 Q93.5892 570.345 96.6447 565.762 Q99.7234 561.156 105.534 561.156 Z" fill="#000000" fill-rule="nonzero" fill-opacity="1" /><path clip-path="url(#clip810)" d="M97.5706 402.244 L105.209 402.244 L105.209 375.879 L96.8993 377.545 L96.8993 373.286 L105.163 371.62 L109.839 371.62 L109.839 402.244 L117.478 402.244 L117.478 406.18 L97.5706 406.18 L97.5706 402.244 Z" fill="#000000" fill-rule="nonzero" fill-opacity="1" /><path clip-path="url(#clip810)" d="M101.159 212.083 L117.478 212.083 L117.478 216.018 L95.5336 216.018 L95.5336 212.083 Q98.1956 209.329 102.779 204.699 Q107.385 200.046 108.566 198.704 Q110.811 196.181 111.691 194.444 Q112.594 192.685 112.594 190.995 Q112.594 188.241 110.649 186.505 Q108.728 184.769 105.626 184.769 Q103.427 184.769 100.973 185.532 Q98.5428 186.296 95.7651 187.847 L95.7651 183.125 Q98.5891 181.991 101.043 181.412 Q103.497 180.833 105.534 180.833 Q110.904 180.833 114.098 183.519 Q117.293 186.204 117.293 190.695 Q117.293 192.824 116.483 194.745 Q115.696 196.644 113.589 199.236 Q113.01 199.907 109.909 203.125 Q106.807 206.319 101.159 212.083 Z" fill="#000000" fill-rule="nonzero" fill-opacity="1" /><polyline clip-path="url(#clip812)" style="stroke:#000000; stroke-linecap:round; stroke-linejoin:round; stroke-width:4; stroke-opacity:1; fill:none" points="1112.84,949.428 1123.97,955.669 "/>
<polyline clip-path="url(#clip812)" style="stroke:#000000; stroke-linecap:round; stroke-linejoin:round; stroke-width:4; stroke-opacity:1; fill:none" points="1112.67,939.012 1123.97,955.669 1103.86,954.709 "/>
<polyline clip-path="url(#clip812)" style="stroke:#000000; stroke-linecap:round; stroke-linejoin:round; stroke-width:4; stroke-opacity:1; fill:none" points="1123.97,955.669 1112.84,949.428 "/>
<circle clip-path="url(#clip812)" cx="1112.84" cy="949.428" r="14.4" fill="#e26f46" fill-rule="evenodd" fill-opacity="1" stroke="#000000" stroke-opacity="1" stroke-width="2.4"/>
<polyline clip-path="url(#clip812)" style="stroke:#000000; stroke-linecap:round; stroke-linejoin:round; stroke-width:4; stroke-opacity:1; fill:none" points="749.758,202.827 758.299,189.735 "/>
<polyline clip-path="url(#clip812)" style="stroke:#000000; stroke-linecap:round; stroke-linejoin:round; stroke-width:4; stroke-opacity:1; fill:none" points="740.926,199.894 758.299,189.735 756.002,209.729 "/>
<polyline clip-path="url(#clip812)" style="stroke:#000000; stroke-linecap:round; stroke-linejoin:round; stroke-width:4; stroke-opacity:1; fill:none" points="758.299,189.735 749.758,202.827 "/>
<circle clip-path="url(#clip812)" cx="749.758" cy="202.827" r="14.4" fill="#c271d2" fill-rule="evenodd" fill-opacity="1" stroke="#000000" stroke-opacity="1" stroke-width="2.4"/>
<polyline clip-path="url(#clip812)" style="stroke:#000000; stroke-linecap:round; stroke-linejoin:round; stroke-width:4; stroke-opacity:1; fill:none" points="610.604,963.49 613.018,944.878 "/>
<polyline clip-path="url(#clip812)" style="stroke:#000000; stroke-linecap:round; stroke-linejoin:round; stroke-width:4; stroke-opacity:1; fill:none" points="601.777,961.571 613.018,944.878 619.628,963.886 "/>
<polyline clip-path="url(#clip812)" style="stroke:#000000; stroke-linecap:round; stroke-linejoin:round; stroke-width:4; stroke-opacity:1; fill:none" points="613.018,944.878 610.604,963.49 "/>
<circle clip-path="url(#clip812)" cx="613.018" cy="944.878" r="14.4" fill="#00a9ad" fill-rule="evenodd" fill-opacity="1" stroke="#000000" stroke-opacity="1" stroke-width="2.4"/>
<polyline clip-path="url(#clip812)" style="stroke:#000000; stroke-linecap:round; stroke-linejoin:round; stroke-width:4; stroke-opacity:1; fill:none" points="561.638,177.863 562.921,196.766 "/>
<polyline clip-path="url(#clip812)" style="stroke:#000000; stroke-linecap:round; stroke-linejoin:round; stroke-width:4; stroke-opacity:1; fill:none" points="570.682,178.198 562.921,196.766 552.723,179.416 "/>
<polyline clip-path="url(#clip812)" style="stroke:#000000; stroke-linecap:round; stroke-linejoin:round; stroke-width:4; stroke-opacity:1; fill:none" points="562.921,196.766 561.638,177.863 "/>
<circle clip-path="url(#clip812)" cx="562.921" cy="196.766" r="14.4" fill="#c68125" fill-rule="evenodd" fill-opacity="1" stroke="#000000" stroke-opacity="1" stroke-width="2.4"/>
<polyline clip-path="url(#clip812)" style="stroke:#000000; stroke-linecap:round; stroke-linejoin:round; stroke-width:4; stroke-opacity:1; fill:none" points="614.488,158.875 616.254,140.073 "/>
<polyline clip-path="url(#clip812)" style="stroke:#000000; stroke-linecap:round; stroke-linejoin:round; stroke-width:4; stroke-opacity:1; fill:none" points="605.61,157.153 616.254,140.073 623.531,158.836 "/>
<polyline clip-path="url(#clip812)" style="stroke:#000000; stroke-linecap:round; stroke-linejoin:round; stroke-width:4; stroke-opacity:1; fill:none" points="616.254,140.073 614.488,158.875 "/>
<circle clip-path="url(#clip812)" cx="614.488" cy="158.875" r="14.4" fill="#8e971d" fill-rule="evenodd" fill-opacity="1" stroke="#000000" stroke-opacity="1" stroke-width="2.4"/>
<polyline clip-path="url(#clip812)" style="stroke:#000000; stroke-linecap:round; stroke-linejoin:round; stroke-width:4; stroke-opacity:1; fill:none" points="699.083,88.7321 707.982,76.2797 "/>
<polyline clip-path="url(#clip812)" style="stroke:#000000; stroke-linecap:round; stroke-linejoin:round; stroke-width:4; stroke-opacity:1; fill:none" points="690.194,85.6912 707.982,76.2797 704.838,96.1572 "/>
<polyline clip-path="url(#clip812)" style="stroke:#000000; stroke-linecap:round; stroke-linejoin:round; stroke-width:4; stroke-opacity:1; fill:none" points="707.982,76.2797 699.083,88.7321 "/>
<circle clip-path="url(#clip812)" cx="699.083" cy="88.7321" r="14.4" fill="#9b7fe8" fill-rule="evenodd" fill-opacity="1" stroke="#000000" stroke-opacity="1" stroke-width="2.4"/>
<polyline clip-path="url(#clip812)" style="stroke:#000000; stroke-linecap:round; stroke-linejoin:round; stroke-width:4; stroke-opacity:1; fill:none" points="598.172,1044.13 599.568,1025.25 "/>
<polyline clip-path="url(#clip812)" style="stroke:#000000; stroke-linecap:round; stroke-linejoin:round; stroke-width:4; stroke-opacity:1; fill:none" points="589.266,1042.54 599.568,1025.25 607.217,1043.86 "/>
<polyline clip-path="url(#clip812)" style="stroke:#000000; stroke-linecap:round; stroke-linejoin:round; stroke-width:4; stroke-opacity:1; fill:none" points="599.568,1025.25 598.172,1044.13 "/>
<circle clip-path="url(#clip812)" cx="599.568" cy="1025.25" r="14.4" fill="#f05f73" fill-rule="evenodd" fill-opacity="1" stroke="#000000" stroke-opacity="1" stroke-width="2.4"/>
<polyline clip-path="url(#clip812)" style="stroke:#000000; stroke-linecap:round; stroke-linejoin:round; stroke-width:4; stroke-opacity:1; fill:none" points="936.55,881.099 946.194,892.008 "/>
<polyline clip-path="url(#clip812)" style="stroke:#000000; stroke-linecap:round; stroke-linejoin:round; stroke-width:4; stroke-opacity:1; fill:none" points="941.015,872.562 946.194,892.008 927.529,884.483 "/>
<polyline clip-path="url(#clip812)" style="stroke:#000000; stroke-linecap:round; stroke-linejoin:round; stroke-width:4; stroke-opacity:1; fill:none" points="946.194,892.008 936.55,881.099 "/>
<circle clip-path="url(#clip812)" cx="936.55" cy="881.099" r="14.4" fill="#6b9e32" fill-rule="evenodd" fill-opacity="1" stroke="#000000" stroke-opacity="1" stroke-width="2.4"/>
<polyline clip-path="url(#clip812)" style="stroke:#000000; stroke-linecap:round; stroke-linejoin:round; stroke-width:4; stroke-opacity:1; fill:none" points="164.269,593.818 175.625,598.847 "/>
<polyline clip-path="url(#clip812)" style="stroke:#000000; stroke-linecap:round; stroke-linejoin:round; stroke-width:4; stroke-opacity:1; fill:none" points="162.81,583.329 175.625,598.847 155.522,599.788 "/>
<polyline clip-path="url(#clip812)" style="stroke:#000000; stroke-linecap:round; stroke-linejoin:round; stroke-width:4; stroke-opacity:1; fill:none" points="175.625,598.847 164.269,593.818 "/>
<circle clip-path="url(#clip812)" cx="175.625" cy="598.847" r="14.4" fill="#e26f46" fill-rule="evenodd" fill-opacity="1" stroke="#000000" stroke-opacity="1" stroke-width="2.4"/>
<polyline clip-path="url(#clip812)" style="stroke:#000000; stroke-linecap:round; stroke-linejoin:round; stroke-width:4; stroke-opacity:1; fill:none" points="690.695,840.766 697.618,856.149 "/>
<polyline clip-path="url(#clip812)" style="stroke:#000000; stroke-linecap:round; stroke-linejoin:round; stroke-width:4; stroke-opacity:1; fill:none" points="698.438,836.041 697.618,856.149 682.024,843.428 "/>
<polyline clip-path="url(#clip812)" style="stroke:#000000; stroke-linecap:round; stroke-linejoin:round; stroke-width:4; stroke-opacity:1; fill:none" points="697.618,856.149 690.695,840.766 "/>
<circle clip-path="url(#clip812)" cx="690.695" cy="840.766" r="14.4" fill="#c271d2" fill-rule="evenodd" fill-opacity="1" stroke="#000000" stroke-opacity="1" stroke-width="2.4"/>
</svg>
