<?xml version="1.0" encoding="utf-8"?>
<svg xmlns="http://www.w3.org/2000/svg" xmlns:xlink="http://www.w3.org/1999/xlink" width="528" height="336" viewBox="0 0 2112 1344">
<defs>
  <clipPath id="clip190">
    <rect x="0" y="0" width="2112" height="1344"/>
  </clipPath>
</defs>
<path clip-path="url(#clip190)" d="M0 1344 L2112 1344 L2112 0 L0 0  Z" fill="#ffffff" fill-rule="evenodd" fill-opacity="1"/>
<defs>
  <clipPath id="clip191">
    <rect x="422" y="0" width="1479" height="1344"/>
  </clipPath>
</defs>
<path clip-path="url(#clip190)" d="M153.718 1222.85 L2064.76 1222.85 L2064.76 47.2441 L153.718 47.2441  Z" fill="#ffffff" fill-rule="evenodd" fill-opacity="1"/>
<defs>
  <clipPath id="clip192">
    <rect x="153" y="47" width="1912" height="1177"/>
  </clipPath>
</defs>
<polyline clip-path="url(#clip192)" style="stroke:#000000; stroke-linecap:round; stroke-linejoin:round; stroke-width:2; stroke-opacity:0.1; fill:none" points="207.786,1222.85 207.786,47.2441 "/>
<polyline clip-path="url(#clip192)" style="stroke:#000000; stroke-linecap:round; stroke-linejoin:round; stroke-width:2; stroke-opacity:0.1; fill:none" points="658.954,1222.85 658.954,47.2441 "/>
<polyline clip-path="url(#clip192)" style="stroke:#000000; stroke-linecap:round; stroke-linejoin:round; stroke-width:2; stroke-opacity:0.1; fill:none" points="1110.12,1222.85 1110.12,47.2441 "/>
<polyline clip-path="url(#clip192)" style="stroke:#000000; stroke-linecap:round; stroke-linejoin:round; stroke-width:2; stroke-opacity:0.1; fill:none" points="1561.29,1222.85 1561.29,47.2441 "/>
<polyline clip-path="url(#clip192)" style="stroke:#000000; stroke-linecap:round; stroke-linejoin:round; stroke-width:2; stroke-opacity:0.1; fill:none" points="2012.46,1222.85 2012.46,47.2441 "/>
<polyline clip-path="url(#clip190)" style="stroke:#000000; stroke-linecap:round; stroke-linejoin:round; stroke-width:4; stroke-opacity:1; fill:none" points="153.718,1222.85 2064.76,1222.85 "/>
<polyline clip-path="url(#clip190)" style="stroke:#000000; stroke-linecap:round; stroke-linejoin:round; stroke-width:4; stroke-opacity:1; fill:none" points="207.786,1222.85 207.786,1203.96 "/>
<polyline clip-path="url(#clip190)" style="stroke:#000000; stroke-linecap:round; stroke-linejoin:round; stroke-width:4; stroke-opacity:1; fill:none" points="658.954,1222.85 658.954,1203.96 "/>
<polyline clip-path="url(#clip190)" style="stroke:#000000; stroke-linecap:round; stroke-linejoin:round; stroke-width:4; stroke-opacity:1; fill:none" points="1110.12,1222.85 1110.12,1203.96 "/>
<polyline clip-path="url(#clip190)" style="stroke:#000000; stroke-linecap:round; stroke-linejoin:round; stroke-width:4; stroke-opacity:1; fill:none" points="1561.29,1222.85 1561.29,1203.96 "/>
<polyline clip-path="url(#clip190)" style="stroke:#000000; stroke-linecap:round; stroke-linejoin:round; stroke-width:4; stroke-opacity:1; fill:none" points="2012.46,1222.85 2012.46,1203.96 "/>
<path clip-path="url(#clip190)" d="M207.786 1251.47 Q204.175 1251.47 202.346 1255.03 Q200.541 1258.58 200.541 1265.7 Q200.541 1272.81 202.346 1276.38 Q204.175 1279.92 207.786 1279.92 Q211.42 1279.92 213.226 1276.38 Q215.055 1272.81 215.055 1265.7 Q215.055 1258.58 213.226 1255.03 Q211.42 1251.47 207.786 1251.47 M207.786 1247.76 Q213.596 1247.76 216.652 1252.37 Q219.731 1256.95 219.731 1265.7 Q219.731 1274.43 216.652 1279.04 Q213.596 1283.62 207.786 1283.62 Q201.976 1283.62 198.897 1279.04 Q195.842 1274.43 195.842 1265.7 Q195.842 1256.95 198.897 1252.37 Q201.976 1247.76 207.786 1247.76 Z" fill="#000000" fill-rule="nonzero" fill-opacity="1" /><path clip-path="url(#clip190)" d="M554.857 1294.67 L571.176 1294.67 L571.176 1298.61 L549.232 1298.61 L549.232 1294.67 Q551.894 1291.92 556.477 1287.29 Q561.084 1282.64 562.264 1281.3 Q564.51 1278.77 565.389 1277.04 Q566.292 1275.28 566.292 1273.59 Q566.292 1270.83 564.348 1269.1 Q562.426 1267.36 559.325 1267.36 Q557.126 1267.36 554.672 1268.12 Q552.241 1268.89 549.464 1270.44 L549.464 1265.72 Q552.288 1264.58 554.741 1264 Q557.195 1263.42 559.232 1263.42 Q564.602 1263.42 567.797 1266.11 Q570.991 1268.8 570.991 1273.29 Q570.991 1275.42 570.181 1277.34 Q569.394 1279.24 567.288 1281.83 Q566.709 1282.5 563.607 1285.72 Q560.505 1288.91 554.857 1294.67 Z" fill="#000000" fill-rule="nonzero" fill-opacity="1" /><path clip-path="url(#clip190)" d="M580.991 1292.73 L585.875 1292.73 L585.875 1298.61 L580.991 1298.61 L580.991 1292.73 Z" fill="#000000" fill-rule="nonzero" fill-opacity="1" /><path clip-path="url(#clip190)" d="M596.107 1264.05 L614.463 1264.05 L614.463 1267.99 L600.389 1267.99 L600.389 1276.46 Q601.408 1276.11 602.426 1275.95 Q603.445 1275.76 604.463 1275.76 Q610.25 1275.76 613.63 1278.93 Q617.01 1282.11 617.01 1287.52 Q617.01 1293.1 613.537 1296.2 Q610.065 1299.28 603.746 1299.28 Q601.57 1299.28 599.301 1298.91 Q597.056 1298.54 594.649 1297.8 L594.649 1293.1 Q596.732 1294.23 598.954 1294.79 Q601.176 1295.35 603.653 1295.35 Q607.658 1295.35 609.996 1293.24 Q612.334 1291.13 612.334 1287.52 Q612.334 1283.91 609.996 1281.8 Q607.658 1279.7 603.653 1279.7 Q601.778 1279.7 599.903 1280.11 Q598.051 1280.53 596.107 1281.41 L596.107 1264.05 Z" fill="#000000" fill-rule="nonzero" fill-opacity="1" /><path clip-path="url(#clip190)" d="M636.222 1267.13 Q632.611 1267.13 630.783 1270.69 Q628.977 1274.24 628.977 1281.36 Q628.977 1288.47 630.783 1292.04 Q632.611 1295.58 636.222 1295.58 Q639.857 1295.58 641.662 1292.04 Q643.491 1288.47 643.491 1281.36 Q643.491 1274.24 641.662 1270.69 Q639.857 1267.13 636.222 1267.13 M636.222 1263.42 Q642.033 1263.42 645.088 1268.03 Q648.167 1272.61 648.167 1281.36 Q648.167 1290.09 645.088 1294.7 Q642.033 1299.28 636.222 1299.28 Q630.412 1299.28 627.334 1294.7 Q624.278 1290.09 624.278 1281.36 Q624.278 1272.61 627.334 1268.03 Q630.412 1263.42 636.222 1263.42 Z" fill="#000000" fill-rule="nonzero" fill-opacity="1" /><path clip-path="url(#clip190)" d="M684.555 1273.15 L673.977 1283.77 L684.555 1294.35 L681.801 1297.15 L671.176 1286.53 L660.551 1297.15 L657.82 1294.35 L668.375 1283.77 L657.82 1273.15 L660.551 1270.35 L671.176 1280.97 L681.801 1270.35 L684.555 1273.15 Z" fill="#000000" fill-rule="nonzero" fill-opacity="1" /><path clip-path="url(#clip190)" d="M696.917 1294.67 L704.555 1294.67 L704.555 1268.31 L696.245 1269.98 L696.245 1265.72 L704.509 1264.05 L709.185 1264.05 L709.185 1294.67 L716.824 1294.67 L716.824 1298.61 L696.917 1298.61 L696.917 1294.67 Z" fill="#000000" fill-rule="nonzero" fill-opacity="1" /><path clip-path="url(#clip190)" d="M736.268 1267.13 Q732.657 1267.13 730.828 1270.69 Q729.023 1274.24 729.023 1281.36 Q729.023 1288.47 730.828 1292.04 Q732.657 1295.58 736.268 1295.58 Q739.902 1295.58 741.708 1292.04 Q743.537 1288.47 743.537 1281.36 Q743.537 1274.24 741.708 1270.69 Q739.902 1267.13 736.268 1267.13 M736.268 1263.42 Q742.078 1263.42 745.134 1268.03 Q748.213 1272.61 748.213 1281.36 Q748.213 1290.09 745.134 1294.7 Q742.078 1299.28 736.268 1299.28 Q730.458 1299.28 727.379 1294.7 Q724.324 1290.09 724.324 1281.36 Q724.324 1272.61 727.379 1268.03 Q730.458 1263.42 736.268 1263.42 Z" fill="#000000" fill-rule="nonzero" fill-opacity="1" /><path clip-path="url(#clip190)" d="M760.889 1246.43 L751.297 1261.42 L760.889 1261.42 L760.889 1246.43 M759.892 1243.12 L764.669 1243.12 L764.669 1261.42 L768.675 1261.42 L768.675 1264.58 L764.669 1264.58 L764.669 1271.2 L760.889 1271.2 L760.889 1264.58 L748.213 1264.58 L748.213 1260.91 L759.892 1243.12 Z" fill="#000000" fill-rule="nonzero" fill-opacity="1" /><path clip-path="url(#clip190)" d="M1001.95 1264.05 L1020.31 1264.05 L1020.31 1267.99 L1006.23 1267.99 L1006.23 1276.46 Q1007.25 1276.11 1008.27 1275.95 Q1009.29 1275.76 1010.31 1275.76 Q1016.09 1275.76 1019.47 1278.93 Q1022.85 1282.11 1022.85 1287.52 Q1022.85 1293.1 1019.38 1296.2 Q1015.91 1299.28 1009.59 1299.28 Q1007.41 1299.28 1005.15 1298.91 Q1002.9 1298.54 1000.49 1297.8 L1000.49 1293.1 Q1002.58 1294.23 1004.8 1294.79 Q1007.02 1295.35 1009.5 1295.35 Q1013.5 1295.35 1015.84 1293.24 Q1018.18 1291.13 1018.18 1287.52 Q1018.18 1283.91 1015.84 1281.8 Q1013.5 1279.7 1009.5 1279.7 Q1007.62 1279.7 1005.75 1280.11 Q1003.9 1280.53 1001.95 1281.41 L1001.95 1264.05 Z" fill="#000000" fill-rule="nonzero" fill-opacity="1" /><path clip-path="url(#clip190)" d="M1032.07 1292.73 L1036.95 1292.73 L1036.95 1298.61 L1032.07 1298.61 L1032.07 1292.73 Z" fill="#000000" fill-rule="nonzero" fill-opacity="1" /><path clip-path="url(#clip190)" d="M1057.14 1267.13 Q1053.52 1267.13 1051.7 1270.69 Q1049.89 1274.24 1049.89 1281.36 Q1049.89 1288.47 1051.7 1292.04 Q1053.52 1295.58 1057.14 1295.58 Q1060.77 1295.58 1062.58 1292.04 Q1064.4 1288.47 1064.4 1281.36 Q1064.4 1274.24 1062.58 1270.69 Q1060.77 1267.13 1057.14 1267.13 M1057.14 1263.42 Q1062.95 1263.42 1066 1268.03 Q1069.08 1272.61 1069.08 1281.36 Q1069.08 1290.09 1066 1294.7 Q1062.95 1299.28 1057.14 1299.28 Q1051.33 1299.28 1048.25 1294.7 Q1045.19 1290.09 1045.19 1281.36 Q1045.19 1272.61 1048.25 1268.03 Q1051.33 1263.42 1057.14 1263.42 Z" fill="#000000" fill-rule="nonzero" fill-opacity="1" /><path clip-path="url(#clip190)" d="M1087.3 1267.13 Q1083.69 1267.13 1081.86 1270.69 Q1080.05 1274.24 1080.05 1281.36 Q1080.05 1288.47 1081.86 1292.04 Q1083.69 1295.58 1087.3 1295.58 Q1090.93 1295.58 1092.74 1292.04 Q1094.57 1288.47 1094.57 1281.36 Q1094.57 1274.24 1092.74 1270.69 Q1090.93 1267.13 1087.3 1267.13 M1087.3 1263.42 Q1093.11 1263.42 1096.16 1268.03 Q1099.24 1272.61 1099.24 1281.36 Q1099.24 1290.09 1096.16 1294.7 Q1093.11 1299.28 1087.3 1299.28 Q1081.49 1299.28 1078.41 1294.7 Q1075.35 1290.09 1075.35 1281.36 Q1075.35 1272.61 1078.41 1268.03 Q1081.49 1263.42 1087.3 1263.42 Z" fill="#000000" fill-rule="nonzero" fill-opacity="1" /><path clip-path="url(#clip190)" d="M1135.63 1273.15 L1125.05 1283.77 L1135.63 1294.35 L1132.88 1297.15 L1122.25 1286.53 L1111.63 1297.15 L1108.89 1294.35 L1119.45 1283.77 L1108.89 1273.15 L1111.63 1270.35 L1122.25 1280.97 L1132.88 1270.35 L1135.63 1273.15 Z" fill="#000000" fill-rule="nonzero" fill-opacity="1" /><path clip-path="url(#clip190)" d="M1147.99 1294.67 L1155.63 1294.67 L1155.63 1268.31 L1147.32 1269.98 L1147.32 1265.72 L1155.58 1264.05 L1160.26 1264.05 L1160.26 1294.67 L1167.9 1294.67 L1167.9 1298.61 L1147.99 1298.61 L1147.99 1294.67 Z" fill="#000000" fill-rule="nonzero" fill-opacity="1" /><path clip-path="url(#clip190)" d="M1187.34 1267.13 Q1183.73 1267.13 1181.9 1270.69 Q1180.1 1274.24 1180.1 1281.36 Q1180.1 1288.47 1181.9 1292.04 Q1183.73 1295.58 1187.34 1295.58 Q1190.98 1295.58 1192.78 1292.04 Q1194.61 1288.47 1194.61 1281.36 Q1194.61 1274.24 1192.78 1270.69 Q1190.98 1267.13 1187.34 1267.13 M1187.34 1263.42 Q1193.15 1263.42 1196.21 1268.03 Q1199.29 1272.61 1199.29 1281.36 Q1199.29 1290.09 1196.21 1294.7 Q1193.15 1299.28 1187.34 1299.28 Q1181.53 1299.28 1178.45 1294.7 Q1175.4 1290.09 1175.4 1281.36 Q1175.4 1272.61 1178.45 1268.03 Q1181.53 1263.42 1187.34 1263.42 Z" fill="#000000" fill-rule="nonzero" fill-opacity="1" /><path clip-path="url(#clip190)" d="M1211.96 1246.43 L1202.37 1261.42 L1211.96 1261.42 L1211.96 1246.43 M1210.97 1243.12 L1215.74 1243.12 L1215.74 1261.42 L1219.75 1261.42 L1219.75 1264.58 L1215.74 1264.58 L1215.74 1271.2 L1211.96 1271.2 L1211.96 1264.58 L1199.29 1264.58 L1199.29 1260.91 L1210.97 1243.12 Z" fill="#000000" fill-rule="nonzero" fill-opacity="1" /><path clip-path="url(#clip190)" d="M1451.78 1264.05 L1474 1264.05 L1474 1266.04 L1461.45 1298.61 L1456.57 1298.61 L1468.37 1267.99 L1451.78 1267.99 L1451.78 1264.05 Z" fill="#000000" fill-rule="nonzero" fill-opacity="1" /><path clip-path="url(#clip190)" d="M1483.12 1292.73 L1488 1292.73 L1488 1298.61 L1483.12 1298.61 L1483.12 1292.73 Z" fill="#000000" fill-rule="nonzero" fill-opacity="1" /><path clip-path="url(#clip190)" d="M1498.23 1264.05 L1516.59 1264.05 L1516.59 1267.99 L1502.52 1267.99 L1502.52 1276.46 Q1503.53 1276.11 1504.55 1275.95 Q1505.57 1275.76 1506.59 1275.76 Q1512.38 1275.76 1515.76 1278.93 Q1519.14 1282.11 1519.14 1287.52 Q1519.14 1293.1 1515.66 1296.2 Q1512.19 1299.28 1505.87 1299.28 Q1503.7 1299.28 1501.43 1298.91 Q1499.18 1298.54 1496.78 1297.8 L1496.78 1293.1 Q1498.86 1294.23 1501.08 1294.79 Q1503.3 1295.35 1505.78 1295.35 Q1509.78 1295.35 1512.12 1293.24 Q1514.46 1291.13 1514.46 1287.52 Q1514.46 1283.91 1512.12 1281.8 Q1509.78 1279.7 1505.78 1279.7 Q1503.91 1279.7 1502.03 1280.11 Q1500.18 1280.53 1498.23 1281.41 L1498.23 1264.05 Z" fill="#000000" fill-rule="nonzero" fill-opacity="1" /><path clip-path="url(#clip190)" d="M1538.35 1267.13 Q1534.74 1267.13 1532.91 1270.69 Q1531.1 1274.24 1531.1 1281.36 Q1531.1 1288.47 1532.91 1292.04 Q1534.74 1295.58 1538.35 1295.58 Q1541.98 1295.58 1543.79 1292.04 Q1545.62 1288.47 1545.62 1281.36 Q1545.62 1274.24 1543.79 1270.69 Q1541.98 1267.13 1538.35 1267.13 M1538.35 1263.42 Q1544.16 1263.42 1547.21 1268.03 Q1550.29 1272.61 1550.29 1281.36 Q1550.29 1290.09 1547.21 1294.7 Q1544.16 1299.28 1538.35 1299.28 Q1532.54 1299.28 1529.46 1294.7 Q1526.4 1290.09 1526.4 1281.36 Q1526.4 1272.61 1529.46 1268.03 Q1532.54 1263.42 1538.35 1263.42 Z" fill="#000000" fill-rule="nonzero" fill-opacity="1" /><path clip-path="url(#clip190)" d="M1586.68 1273.15 L1576.1 1283.77 L1586.68 1294.35 L1583.93 1297.15 L1573.3 1286.53 L1562.68 1297.15 L1559.95 1294.35 L1570.5 1283.77 L1559.95 1273.15 L1562.68 1270.35 L1573.3 1280.97 L1583.93 1270.35 L1586.68 1273.15 Z" fill="#000000" fill-rule="nonzero" fill-opacity="1" /><path clip-path="url(#clip190)" d="M1599.04 1294.67 L1606.68 1294.67 L1606.68 1268.31 L1598.37 1269.98 L1598.37 1265.72 L1606.64 1264.05 L1611.31 1264.05 L1611.31 1294.67 L1618.95 1294.67 L1618.95 1298.61 L1599.04 1298.61 L1599.04 1294.67 Z" fill="#000000" fill-rule="nonzero" fill-opacity="1" /><path clip-path="url(#clip190)" d="M1638.4 1267.13 Q1634.78 1267.13 1632.96 1270.69 Q1631.15 1274.24 1631.15 1281.36 Q1631.15 1288.47 1632.96 1292.04 Q1634.78 1295.58 1638.4 1295.58 Q1642.03 1295.58 1643.83 1292.04 Q1645.66 1288.47 1645.66 1281.36 Q1645.66 1274.24 1643.83 1270.69 Q1642.03 1267.13 1638.4 1267.13 M1638.4 1263.42 Q1644.21 1263.42 1647.26 1268.03 Q1650.34 1272.61 1650.34 1281.36 Q1650.34 1290.09 1647.26 1294.7 Q1644.21 1299.28 1638.4 1299.28 Q1632.58 1299.28 1629.51 1294.7 Q1626.45 1290.09 1626.45 1281.36 Q1626.45 1272.61 1629.51 1268.03 Q1632.58 1263.42 1638.4 1263.42 Z" fill="#000000" fill-rule="nonzero" fill-opacity="1" /><path clip-path="url(#clip190)" d="M1663.02 1246.43 L1653.42 1261.42 L1663.02 1261.42 L1663.02 1246.43 M1662.02 1243.12 L1666.8 1243.12 L1666.8 1261.42 L1670.8 1261.42 L1670.8 1264.58 L1666.8 1264.58 L1666.8 1271.2 L1663.02 1271.2 L1663.02 1264.58 L1650.34 1264.58 L1650.34 1260.91 L1662.02 1243.12 Z" fill="#000000" fill-rule="nonzero" fill-opacity="1" /><path clip-path="url(#clip190)" d="M1905.42 1294.67 L1913.06 1294.67 L1913.06 1268.31 L1904.75 1269.98 L1904.75 1265.72 L1913.01 1264.05 L1917.69 1264.05 L1917.69 1294.67 L1925.33 1294.67 L1925.33 1298.61 L1905.42 1298.61 L1905.42 1294.67 Z" fill="#000000" fill-rule="nonzero" fill-opacity="1" /><path clip-path="url(#clip190)" d="M1934.77 1292.73 L1939.66 1292.73 L1939.66 1298.61 L1934.77 1298.61 L1934.77 1292.73 Z" fill="#000000" fill-rule="nonzero" fill-opacity="1" /><path clip-path="url(#clip190)" d="M1959.84 1267.13 Q1956.23 1267.13 1954.4 1270.69 Q1952.6 1274.24 1952.6 1281.36 Q1952.6 1288.47 1954.4 1292.04 Q1956.23 1295.58 1959.84 1295.58 Q1963.48 1295.58 1965.28 1292.04 Q1967.11 1288.47 1967.11 1281.36 Q1967.11 1274.24 1965.28 1270.69 Q1963.48 1267.13 1959.84 1267.13 M1959.84 1263.42 Q1965.65 1263.42 1968.71 1268.03 Q1971.79 1272.61 1971.79 1281.36 Q1971.79 1290.09 1968.71 1294.7 Q1965.65 1299.28 1959.84 1299.28 Q1954.03 1299.28 1950.95 1294.7 Q1947.9 1290.09 1947.9 1281.36 Q1947.9 1272.61 1950.95 1268.03 Q1954.03 1263.42 1959.84 1263.42 Z" fill="#000000" fill-rule="nonzero" fill-opacity="1" /><path clip-path="url(#clip190)" d="M1990 1267.13 Q1986.39 1267.13 1984.56 1270.69 Q1982.76 1274.24 1982.76 1281.36 Q1982.76 1288.47 1984.56 1292.04 Q1986.39 1295.58 1990 1295.58 Q1993.64 1295.58 1995.44 1292.04 Q1997.27 1288.47 1997.27 1281.36 Q1997.27 1274.24 1995.44 1270.69 Q1993.64 1267.13 1990 1267.13 M1990 1263.42 Q1995.81 1263.42 1998.87 1268.03 Q2001.95 1272.61 2001.95 1281.36 Q2001.95 1290.09 1998.87 1294.7 Q1995.81 1299.28 1990 1299.28 Q1984.19 1299.28 1981.12 1294.7 Q1978.06 1290.09 1978.06 1281.36 Q1978.06 1272.61 1981.12 1268.03 Q1984.19 1263.42 1990 1263.42 Z" fill="#000000" fill-rule="nonzero" fill-opacity="1" /><path clip-path="url(#clip190)" d="M2038.34 1273.15 L2027.76 1283.77 L2038.34 1294.35 L2035.58 1297.15 L2024.96 1286.53 L2014.33 1297.15 L2011.6 1294.35 L2022.16 1283.77 L2011.6 1273.15 L2014.33 1270.35 L2024.96 1280.97 L2035.58 1270.35 L2038.34 1273.15 Z" fill="#000000" fill-rule="nonzero" fill-opacity="1" /><path clip-path="url(#clip190)" d="M2050.7 1294.67 L2058.34 1294.67 L2058.34 1268.31 L2050.03 1269.98 L2050.03 1265.72 L2058.29 1264.05 L2062.97 1264.05 L2062.97 1294.67 L2070.61 1294.67 L2070.61 1298.61 L2050.7 1298.61 L2050.7 1294.67 Z" fill="#000000" fill-rule="nonzero" fill-opacity="1" /><path clip-path="url(#clip190)" d="M2090.05 1267.13 Q2086.44 1267.13 2084.61 1270.69 Q2082.8 1274.24 2082.8 1281.36 Q2082.8 1288.47 2084.61 1292.04 Q2086.44 1295.58 2090.05 1295.58 Q2093.68 1295.58 2095.49 1292.04 Q2097.32 1288.47 2097.32 1281.36 Q2097.32 1274.24 2095.49 1270.69 Q2093.68 1267.13 2090.05 1267.13 M2090.05 1263.42 Q2095.86 1263.42 2098.92 1268.03 Q2101.99 1272.61 2101.99 1281.36 Q2101.99 1290.09 2098.92 1294.7 Q2095.86 1299.28 2090.05 1299.28 Q2084.24 1299.28 2081.16 1294.7 Q2078.11 1290.09 2078.11 1281.36 Q2078.11 1272.61 2081.16 1268.03 Q2084.24 1263.42 2090.05 1263.42 Z" fill="#000000" fill-rule="nonzero" fill-opacity="1" /><path clip-path="url(#clip190)" d="M2103.18 1243.12 L2118.09 1243.12 L2118.09 1246.32 L2106.66 1246.32 L2106.66 1253.2 Q2107.49 1252.92 2108.31 1252.79 Q2109.14 1252.64 2109.97 1252.64 Q2114.67 1252.64 2117.42 1255.21 Q2120.16 1257.79 2120.16 1262.19 Q2120.16 1266.72 2117.34 1269.24 Q2114.52 1271.74 2109.39 1271.74 Q2107.62 1271.74 2105.77 1271.44 Q2103.95 1271.14 2101.99 1270.54 L2101.99 1266.72 Q2103.69 1267.64 2105.49 1268.1 Q2107.3 1268.55 2109.31 1268.55 Q2112.56 1268.55 2114.46 1266.84 Q2116.36 1265.12 2116.36 1262.19 Q2116.36 1259.26 2114.46 1257.55 Q2112.56 1255.83 2109.31 1255.83 Q2107.79 1255.83 2106.26 1256.17 Q2104.76 1256.51 2103.18 1257.23 L2103.18 1243.12 Z" fill="#000000" fill-rule="nonzero" fill-opacity="1" /><polyline clip-path="url(#clip192)" style="stroke:#000000; stroke-linecap:round; stroke-linejoin:round; stroke-width:2; stroke-opacity:0.1; fill:none" points="153.718,1222.85 2064.76,1222.85 "/>
<polyline clip-path="url(#clip192)" style="stroke:#000000; stroke-linecap:round; stroke-linejoin:round; stroke-width:2; stroke-opacity:0.1; fill:none" points="153.718,987.732 2064.76,987.732 "/>
<polyline clip-path="url(#clip192)" style="stroke:#000000; stroke-linecap:round; stroke-linejoin:round; stroke-width:2; stroke-opacity:0.1; fill:none" points="153.718,752.61 2064.76,752.61 "/>
<polyline clip-path="url(#clip192)" style="stroke:#000000; stroke-linecap:round; stroke-linejoin:round; stroke-width:2; stroke-opacity:0.1; fill:none" points="153.718,517.488 2064.76,517.488 "/>
<polyline clip-path="url(#clip192)" style="stroke:#000000; stroke-linecap:round; stroke-linejoin:round; stroke-width:2; stroke-opacity:0.1; fill:none" points="153.718,282.366 2064.76,282.366 "/>
<polyline clip-path="url(#clip192)" style="stroke:#000000; stroke-linecap:round; stroke-linejoin:round; stroke-width:2; stroke-opacity:0.1; fill:none" points="153.718,47.2441 2064.76,47.2441 "/>
<polyline clip-path="url(#clip190)" style="stroke:#000000; stroke-linecap:round; stroke-linejoin:round; stroke-width:4; stroke-opacity:1; fill:none" points="153.718,1222.85 153.718,47.2441 "/>
<polyline clip-path="url(#clip190)" style="stroke:#000000; stroke-linecap:round; stroke-linejoin:round; stroke-width:4; stroke-opacity:1; fill:none" points="153.718,1222.85 172.616,1222.85 "/>
<polyline clip-path="url(#clip190)" style="stroke:#000000; stroke-linecap:round; stroke-linejoin:round; stroke-width:4; stroke-opacity:1; fill:none" points="153.718,987.732 172.616,987.732 "/>
<polyline clip-path="url(#clip190)" style="stroke:#000000; stroke-linecap:round; stroke-linejoin:round; stroke-width:4; stroke-opacity:1; fill:none" points="153.718,752.61 172.616,752.61 "/>
<polyline clip-path="url(#clip190)" style="stroke:#000000; stroke-linecap:round; stroke-linejoin:round; stroke-width:4; stroke-opacity:1; fill:none" points="153.718,517.488 172.616,517.488 "/>
<polyline clip-path="url(#clip190)" style="stroke:#000000; stroke-linecap:round; stroke-linejoin:round; stroke-width:4; stroke-opacity:1; fill:none" points="153.718,282.366 172.616,282.366 "/>
<polyline clip-path="url(#clip190)" style="stroke:#000000; stroke-linecap:round; stroke-linejoin:round; stroke-width:4; stroke-opacity:1; fill:none" points="153.718,47.2441 172.616,47.2441 "/>
<path clip-path="url(#clip190)" d="M64.8626 1208.65 Q61.2515 1208.65 59.4228 1212.22 Q57.6173 1215.76 57.6173 1222.89 Q57.6173 1230 59.4228 1233.56 Q61.2515 1237.1 64.8626 1237.1 Q68.4969 1237.1 70.3024 1233.56 Q72.1311 1230 72.1311 1222.89 Q72.1311 1215.76 70.3024 1212.22 Q68.4969 1208.65 64.8626 1208.65 M64.8626 1204.95 Q70.6728 1204.95 73.7283 1209.56 Q76.807 1214.14 76.807 1222.89 Q76.807 1231.62 73.7283 1236.22 Q70.6728 1240.81 64.8626 1240.81 Q59.0525 1240.81 55.9738 1236.22 Q52.9182 1231.62 52.9182 1222.89 Q52.9182 1214.14 55.9738 1209.56 Q59.0525 1204.95 64.8626 1204.95 Z" fill="#000000" fill-rule="nonzero" fill-opacity="1" /><path clip-path="url(#clip190)" d="M85.0245 1234.25 L89.9088 1234.25 L89.9088 1240.13 L85.0245 1240.13 L85.0245 1234.25 Z" fill="#000000" fill-rule="nonzero" fill-opacity="1" /><path clip-path="url(#clip190)" d="M110.094 1208.65 Q106.483 1208.65 104.654 1212.22 Q102.849 1215.76 102.849 1222.89 Q102.849 1230 104.654 1233.56 Q106.483 1237.1 110.094 1237.1 Q113.728 1237.1 115.534 1233.56 Q117.362 1230 117.362 1222.89 Q117.362 1215.76 115.534 1212.22 Q113.728 1208.65 110.094 1208.65 M110.094 1204.95 Q115.904 1204.95 118.96 1209.56 Q122.038 1214.14 122.038 1222.89 Q122.038 1231.62 118.96 1236.22 Q115.904 1240.81 110.094 1240.81 Q104.284 1240.81 101.205 1236.22 Q98.1495 1231.62 98.1495 1222.89 Q98.1495 1214.14 101.205 1209.56 Q104.284 1204.95 110.094 1204.95 Z" fill="#000000" fill-rule="nonzero" fill-opacity="1" /><path clip-path="url(#clip190)" d="M66.4598 973.531 Q62.8487 973.531 61.02 977.095 Q59.2145 980.637 59.2145 987.767 Q59.2145 994.873 61.02 998.438 Q62.8487 1001.98 66.4598 1001.98 Q70.0941 1001.98 71.8996 998.438 Q73.7283 994.873 73.7283 987.767 Q73.7283 980.637 71.8996 977.095 Q70.0941 973.531 66.4598 973.531 M66.4598 969.827 Q72.27 969.827 75.3255 974.433 Q78.4042 979.017 78.4042 987.767 Q78.4042 996.493 75.3255 1001.1 Q72.27 1005.68 66.4598 1005.68 Q60.6497 1005.68 57.571 1001.1 Q54.5154 996.493 54.5154 987.767 Q54.5154 979.017 57.571 974.433 Q60.6497 969.827 66.4598 969.827 Z" fill="#000000" fill-rule="nonzero" fill-opacity="1" /><path clip-path="url(#clip190)" d="M86.6218 999.132 L91.506 999.132 L91.506 1005.01 L86.6218 1005.01 L86.6218 999.132 Z" fill="#000000" fill-rule="nonzero" fill-opacity="1" /><path clip-path="url(#clip190)" d="M105.719 1001.08 L122.038 1001.08 L122.038 1005.01 L100.094 1005.01 L100.094 1001.08 Q102.756 998.322 107.339 993.693 Q111.946 989.04 113.126 987.697 Q115.372 985.174 116.251 983.438 Q117.154 981.679 117.154 979.989 Q117.154 977.234 115.21 975.498 Q113.288 973.762 110.186 973.762 Q107.987 973.762 105.534 974.526 Q103.103 975.29 100.325 976.841 L100.325 972.119 Q103.149 970.984 105.603 970.406 Q108.057 969.827 110.094 969.827 Q115.464 969.827 118.659 972.512 Q121.853 975.197 121.853 979.688 Q121.853 981.818 121.043 983.739 Q120.256 985.637 118.149 988.23 Q117.571 988.901 114.469 992.118 Q111.367 995.313 105.719 1001.08 Z" fill="#000000" fill-rule="nonzero" fill-opacity="1" /><path clip-path="url(#clip190)" d="M64.3765 738.409 Q60.7654 738.409 58.9367 741.973 Q57.1312 745.515 57.1312 752.645 Q57.1312 759.751 58.9367 763.316 Q60.7654 766.858 64.3765 766.858 Q68.0107 766.858 69.8163 763.316 Q71.645 759.751 71.645 752.645 Q71.645 745.515 69.8163 741.973 Q68.0107 738.409 64.3765 738.409 M64.3765 734.705 Q70.1867 734.705 73.2422 739.311 Q76.3209 743.895 76.3209 752.645 Q76.3209 761.372 73.2422 765.978 Q70.1867 770.561 64.3765 770.561 Q58.5664 770.561 55.4877 765.978 Q52.4321 761.372 52.4321 752.645 Q52.4321 743.895 55.4877 739.311 Q58.5664 734.705 64.3765 734.705 Z" fill="#000000" fill-rule="nonzero" fill-opacity="1" /><path clip-path="url(#clip190)" d="M84.5384 764.01 L89.4227 764.01 L89.4227 769.89 L84.5384 769.89 L84.5384 764.01 Z" fill="#000000" fill-rule="nonzero" fill-opacity="1" /><path clip-path="url(#clip190)" d="M112.455 739.404 L100.649 757.853 L112.455 757.853 L112.455 739.404 M111.228 735.33 L117.108 735.33 L117.108 757.853 L122.038 757.853 L122.038 761.742 L117.108 761.742 L117.108 769.89 L112.455 769.89 L112.455 761.742 L96.8532 761.742 L96.8532 757.228 L111.228 735.33 Z" fill="#000000" fill-rule="nonzero" fill-opacity="1" /><path clip-path="url(#clip190)" d="M64.7006 503.287 Q61.0895 503.287 59.2608 506.852 Q57.4552 510.393 57.4552 517.523 Q57.4552 524.629 59.2608 528.194 Q61.0895 531.736 64.7006 531.736 Q68.3348 531.736 70.1404 528.194 Q71.9691 524.629 71.9691 517.523 Q71.9691 510.393 70.1404 506.852 Q68.3348 503.287 64.7006 503.287 M64.7006 499.583 Q70.5107 499.583 73.5663 504.189 Q76.645 508.773 76.645 517.523 Q76.645 526.25 73.5663 530.856 Q70.5107 535.439 64.7006 535.439 Q58.8904 535.439 55.8117 530.856 Q52.7562 526.25 52.7562 517.523 Q52.7562 508.773 55.8117 504.189 Q58.8904 499.583 64.7006 499.583 Z" fill="#000000" fill-rule="nonzero" fill-opacity="1" /><path clip-path="url(#clip190)" d="M84.8625 528.888 L89.7467 528.888 L89.7467 534.768 L84.8625 534.768 L84.8625 528.888 Z" fill="#000000" fill-rule="nonzero" fill-opacity="1" /><path clip-path="url(#clip190)" d="M110.511 515.625 Q107.362 515.625 105.511 517.777 Q103.682 519.93 103.682 523.68 Q103.682 527.407 105.511 529.583 Q107.362 531.736 110.511 531.736 Q113.659 531.736 115.487 529.583 Q117.339 527.407 117.339 523.68 Q117.339 519.93 115.487 517.777 Q113.659 515.625 110.511 515.625 M119.793 500.972 L119.793 505.231 Q118.034 504.398 116.228 503.958 Q114.446 503.518 112.686 503.518 Q108.057 503.518 105.603 506.643 Q103.173 509.768 102.825 516.088 Q104.191 514.074 106.251 513.009 Q108.311 511.921 110.788 511.921 Q115.997 511.921 119.006 515.092 Q122.038 518.24 122.038 523.68 Q122.038 529.004 118.89 532.222 Q115.742 535.439 110.511 535.439 Q104.515 535.439 101.344 530.856 Q98.1726 526.25 98.1726 517.523 Q98.1726 509.328 102.061 504.467 Q105.95 499.583 112.501 499.583 Q114.26 499.583 116.043 499.93 Q117.848 500.277 119.793 500.972 Z" fill="#000000" fill-rule="nonzero" fill-opacity="1" /><path clip-path="url(#clip190)" d="M64.9552 268.165 Q61.3441 268.165 59.5154 271.73 Q57.7099 275.271 57.7099 282.401 Q57.7099 289.507 59.5154 293.072 Q61.3441 296.614 64.9552 296.614 Q68.5894 296.614 70.395 293.072 Q72.2237 289.507 72.2237 282.401 Q72.2237 275.271 70.395 271.73 Q68.5894 268.165 64.9552 268.165 M64.9552 264.461 Q70.7654 264.461 73.8209 269.068 Q76.8996 273.651 76.8996 282.401 Q76.8996 291.128 73.8209 295.734 Q70.7654 300.317 64.9552 300.317 Q59.1451 300.317 56.0664 295.734 Q53.0108 291.128 53.0108 282.401 Q53.0108 273.651 56.0664 269.068 Q59.1451 264.461 64.9552 264.461 Z" fill="#000000" fill-rule="nonzero" fill-opacity="1" /><path clip-path="url(#clip190)" d="M85.1171 293.766 L90.0014 293.766 L90.0014 299.646 L85.1171 299.646 L85.1171 293.766 Z" fill="#000000" fill-rule="nonzero" fill-opacity="1" /><path clip-path="url(#clip190)" d="M110.186 283.234 Q106.853 283.234 104.932 285.017 Q103.034 286.799 103.034 289.924 Q103.034 293.049 104.932 294.831 Q106.853 296.614 110.186 296.614 Q113.52 296.614 115.441 294.831 Q117.362 293.026 117.362 289.924 Q117.362 286.799 115.441 285.017 Q113.543 283.234 110.186 283.234 M105.511 281.243 Q102.501 280.503 100.811 278.442 Q99.1448 276.382 99.1448 273.419 Q99.1448 269.276 102.085 266.868 Q105.048 264.461 110.186 264.461 Q115.348 264.461 118.288 266.868 Q121.228 269.276 121.228 273.419 Q121.228 276.382 119.538 278.442 Q117.872 280.503 114.885 281.243 Q118.265 282.03 120.14 284.322 Q122.038 286.614 122.038 289.924 Q122.038 294.947 118.96 297.632 Q115.904 300.317 110.186 300.317 Q104.469 300.317 101.39 297.632 Q98.3347 294.947 98.3347 289.924 Q98.3347 286.614 100.233 284.322 Q102.131 282.03 105.511 281.243 M103.798 273.859 Q103.798 276.544 105.464 278.049 Q107.154 279.554 110.186 279.554 Q113.196 279.554 114.885 278.049 Q116.598 276.544 116.598 273.859 Q116.598 271.174 114.885 269.669 Q113.196 268.165 110.186 268.165 Q107.154 268.165 105.464 269.669 Q103.798 271.174 103.798 273.859 Z" fill="#000000" fill-rule="nonzero" fill-opacity="1" /><path clip-path="url(#clip190)" d="M55.6728 60.5889 L63.3117 60.5889 L63.3117 34.2233 L55.0016 35.89 L55.0016 31.6308 L63.2654 29.9641 L67.9413 29.9641 L67.9413 60.5889 L75.5802 60.5889 L75.5802 64.5241 L55.6728 64.5241 L55.6728 60.5889 Z" fill="#000000" fill-rule="nonzero" fill-opacity="1" /><path clip-path="url(#clip190)" d="M85.0245 58.6445 L89.9088 58.6445 L89.9088 64.5241 L85.0245 64.5241 L85.0245 58.6445 Z" fill="#000000" fill-rule="nonzero" fill-opacity="1" /><path clip-path="url(#clip190)" d="M110.094 33.0428 Q106.483 33.0428 104.654 36.6076 Q102.849 40.1492 102.849 47.2788 Q102.849 54.3853 104.654 57.9501 Q106.483 61.4917 110.094 61.4917 Q113.728 61.4917 115.534 57.9501 Q117.362 54.3853 117.362 47.2788 Q117.362 40.1492 115.534 36.6076 Q113.728 33.0428 110.094 33.0428 M110.094 29.3391 Q115.904 29.3391 118.96 33.9456 Q122.038 38.5289 122.038 47.2788 Q122.038 56.0056 118.96 60.6121 Q115.904 65.1954 110.094 65.1954 Q104.284 65.1954 101.205 60.6121 Q98.1495 56.0056 98.1495 47.2788 Q98.1495 38.5289 101.205 33.9456 Q104.284 29.3391 110.094 29.3391 Z" fill="#000000" fill-rule="nonzero" fill-opacity="1" /><polyline clip-path="url(#clip192)" style="stroke:#009af9; stroke-linecap:round; stroke-linejoin:round; stroke-width:4; stroke-opacity:1; fill:none" points="207.804,164.803 209.609,164.756 211.414,164.826 213.218,165.014 215.023,165.084 216.828,165.2 218.632,165.269 220.437,165.433 222.242,165.478 224.046,165.548 225.851,165.57 227.656,165.475 229.46,165.591 231.265,165.614 233.07,165.683 234.874,165.658 236.679,165.726 238.484,165.795 240.288,165.84 242.093,165.862 243.898,165.836 245.702,165.882 247.507,165.996 249.312,166.111 251.116,166.109 252.921,166.247 254.726,166.385 256.53,166.452 258.335,166.356 260.14,166.4 261.944,166.445 263.749,166.464 265.554,166.508 267.358,166.551 269.163,166.666 270.968,166.709 272.772,166.777 274.577,166.82 276.382,166.793 278.186,166.883 279.991,166.902 281.796,167.038 283.6,167.08 285.405,167.123 287.21,167.118 289.014,167.161 290.819,167.039 292.624,167.246 294.428,167.29 296.233,167.262 298.038,167.376 299.842,167.395 301.647,167.508 303.452,167.596 305.256,167.71 307.061,167.704 308.866,167.86 310.67,167.877 312.475,167.942 314.28,167.912 316.084,168.046 317.889,168.249 319.694,168.313 321.498,168.328 323.303,168.366 325.108,168.406 326.912,168.587 328.717,168.674 330.522,168.784 332.326,168.895 334.131,168.909 335.936,168.878 337.74,169.012 339.545,169.051 341.35,169.134 343.154,169.217 344.959,169.42 346.764,169.386 348.568,169.305 350.373,169.461 352.178,169.547 353.983,169.632 355.787,169.813 357.592,169.967 359.397,170.004 361.201,170.089 363.006,170.408 364.811,170.49 366.615,170.617 368.42,170.792 370.225,170.991 372.029,170.955 373.834,171.037 375.639,171.095 377.443,171.294 379.248,171.352 381.053,171.501 382.857,171.487 384.662,171.38 386.467,171.389 388.271,171.375 390.076,171.572 391.881,171.767 393.685,171.872 395.49,171.882 397.295,171.94 399.099,171.927 400.904,172.009 402.709,172.088 404.513,172.19 406.318,172.269 408.123,172.488 409.927,172.637 411.732,172.716 413.537,172.725 415.341,172.756 417.146,172.81 418.951,172.817 420.755,172.825 422.56,172.831 424.365,172.79 426.169,172.893 427.974,172.83 429.779,173.003 431.583,173.057 433.388,173.017 435.193,173.281 436.997,173.406 438.802,173.575 440.607,173.629 442.411,173.801 444.216,173.995 446.021,174.024 447.825,174.029 449.63,174.011 451.435,174.183 453.239,174.328 455.044,174.308 456.849,174.429 458.653,174.574 460.458,174.672 462.263,174.7 464.067,174.774 465.872,174.963 467.677,175.036 469.481,175.134 471.286,175.091 473.091,175.093 474.895,175.19 476.7,175.426 478.505,175.522 480.309,175.618 482.114,175.689 483.919,175.855 485.723,175.975 487.528,176.094 489.333,176.282 491.137,176.445 492.942,176.445 494.747,176.54 496.551,176.634 498.356,176.658 500.161,176.704 501.965,176.797 503.77,176.938 505.575,176.913 507.379,177.101 509.184,177.1 510.989,177.098 512.794,177.099 514.598,177.166 516.403,177.188 518.208,177.118 520.012,177.282 521.817,177.33 523.622,177.328 525.426,177.303 527.231,177.28 529.036,177.373 530.84,177.442 532.645,177.442 534.45,177.488 536.254,177.439 538.059,177.507 539.864,177.434 541.668,177.595 543.473,177.806 545.278,177.71 547.082,177.754 548.887,177.986 550.692,178.077 552.496,178.051 554.301,178.145 556.106,178.169 557.91,178.143 559.715,178.023 561.52,178.045 563.324,178.113 565.129,178.111 566.934,178.296 568.738,178.363 570.543,178.386 572.348,178.595 574.152,178.591 575.957,178.656 577.762,178.796 579.566,178.976 581.371,179.066 583.176,179.179 584.98,179.175 586.785,179.38 588.59,179.401 590.394,179.301 592.199,179.343 594.004,179.385 595.808,179.426 597.613,179.517 599.418,179.464 601.222,179.461 603.027,179.666 604.832,179.824 606.636,179.935 608.441,179.996 610.246,180.13 612.05,180.195 613.855,180.258 615.66,180.389 617.464,180.402 619.269,180.489 621.074,180.578 622.878,180.738 624.683,180.752 626.488,180.767 628.292,180.901 630.097,180.915 631.902,181.023 633.706,181.18 635.511,181.221 637.316,181.353 639.12,181.462 640.925,181.545 642.73,181.676 644.534,181.762 646.339,181.752 648.144,181.835 649.948,182.012 651.753,182.164 653.558,182.223 655.362,182.328 657.167,182.432 658.972,182.444 660.776,182.597 662.581,182.608 664.386,182.808 666.19,182.914 667.995,182.993 669.8,183.097 671.604,183.204 673.409,183.332 675.214,183.529 677.019,183.729 678.823,183.715 680.628,183.768 682.433,183.851 684.237,184.072 686.042,184.151 687.847,184.208 689.651,184.334 691.456,184.318 693.261,184.515 695.065,184.594 696.87,184.722 698.675,184.916 700.479,185.062 702.284,185.163 704.089,185.1 705.893,185.131 707.698,185.204 709.503,185.142 711.307,185.24 713.112,185.339 714.917,185.44 716.721,185.514 718.526,185.566 720.331,185.618 722.135,185.649 723.94,185.773 725.745,185.827 727.549,185.857 729.354,185.956 731.159,185.912 732.963,186.035 734.768,186.205 736.573,186.159 738.377,186.327 740.182,186.332 741.987,186.335 743.791,186.458 745.596,186.507 747.401,186.649 749.205,186.723 751.01,186.844 752.815,187.012 754.619,186.993 756.424,187.043 758.229,187.092 760.033,187.189 761.838,187.239 763.643,187.288 765.447,187.315 767.252,187.504 769.057,187.576 770.861,187.578 772.666,187.556 774.471,187.653 776.275,187.865 778.08,187.958 779.885,187.96 781.689,188.056 783.494,188.337 785.299,188.477 787.103,188.453 788.908,188.361 790.713,188.387 792.517,188.523 794.322,188.732 796.127,188.826 797.931,188.988 799.736,189.034 801.541,189.054 803.345,189.103 805.15,189.129 806.955,189.242 808.759,189.36 810.564,189.663 812.369,189.779 814.173,189.798 815.978,189.959 817.783,190.096 819.587,190.117 821.392,190.233 823.197,190.181 825.001,190.291 826.806,190.427 828.611,190.421 830.415,190.58 832.22,190.574 834.025,190.618 835.83,190.68 837.634,190.724 839.439,190.739 841.244,190.806 843.048,190.917 844.853,191.056 846.658,191.166 848.462,191.117 850.267,191.204 852.072,191.247 853.876,191.385 855.681,191.401 857.486,191.491 859.29,191.464 861.095,191.529 862.9,191.617 864.704,191.727 866.509,191.832 868.314,191.944 870.118,192.031 871.923,192.163 873.728,192.177 875.532,192.286 877.337,192.395 879.142,192.482 880.946,192.519 882.751,192.697 884.556,192.595 886.36,192.913 888.165,192.906 889.97,193.085 891.774,193.261 893.579,193.345 895.384,193.402 897.188,193.558 898.993,193.52 900.798,193.534 902.602,193.55 904.407,193.661 906.212,193.797 908.016,193.833 909.821,193.797 911.626,193.832 913.43,193.941 915.235,193.907 917.04,194.064 918.844,194.053 920.649,194.137 922.454,194.199 924.258,194.256 926.063,194.266 927.868,194.321 929.672,194.339 931.477,194.328 933.282,194.479 935.086,194.564 936.891,194.859 938.696,194.823 940.5,194.926 942.305,195.007 944.11,195.088 945.914,195.195 947.719,195.414 949.524,195.375 951.328,195.502 953.133,195.608 954.938,195.642 956.742,195.697 958.547,195.751 960.352,195.852 962.156,195.88 963.961,196.192 965.766,196.341 967.57,196.325 969.375,196.402 971.18,196.5 972.984,196.671 974.789,196.866 976.594,196.872 978.398,196.994 980.203,197.023 982.008,197.077 983.812,197.205 985.617,197.329 987.422,197.335 989.226,197.481 991.031,197.696 992.836,197.602 994.64,197.679 996.445,197.828 998.25,198.044 1000.05,198.095 1001.86,198.287 1003.66,198.525 1005.47,198.551 1007.27,198.651 1009.08,198.747 1010.88,198.983 1012.69,199.105 1014.49,199.082 1016.3,199.225 1018.1,199.531 1019.91,199.764 1021.71,199.839 1023.52,199.929 1025.32,199.956 1027.12,199.982 1028.93,200.119 1030.73,200.334 1032.54,200.454 1034.34,200.643 1036.15,200.831 1037.95,200.876 1039.76,201.016 1041.56,201.016 1043.37,200.943 1045.17,200.986 1046.98,201.128 1048.78,201.151 1050.59,201.269 1052.39,201.311 1054.19,201.449 1056,201.564 1057.8,201.701 1059.61,201.772 1061.41,201.862 1063.22,201.785 1065.02,201.902 1066.83,202.064 1068.63,202.197 1070.44,202.331 1072.24,202.305 1074.05,202.324 1075.85,202.462 1077.66,202.575 1079.46,202.566 1081.26,202.634 1083.07,202.696 1084.87,202.832 1086.68,202.874 1088.48,203.055 1090.29,203.117 1092.09,203.296 1093.9,203.385 1095.7,203.448 1097.51,203.537 1099.31,203.691 1101.12,203.871 1102.92,204.028 1104.73,204.135 1106.53,204.291 1108.33,204.421 1110.14,204.389 1111.94,204.638 1113.75,204.82 1115.55,204.883 1117.36,204.946 1119.16,204.982 1120.97,205.21 1122.77,205.483 1124.58,205.686 1126.38,205.696 1128.19,205.662 1129.99,205.749 1131.8,205.808 1133.6,205.89 1135.4,205.993 1137.21,206.055 1139.01,206.25 1140.82,206.427 1142.62,206.648 1144.43,206.681 1146.23,206.671 1148.04,206.823 1149.84,206.763 1151.65,206.913 1153.45,206.969 1155.26,207.054 1157.06,207.065 1158.87,207.121 1160.67,207.222 1162.47,207.325 1164.28,207.241 1166.08,207.181 1167.89,207.448 1169.69,207.645 1171.5,207.727 1173.3,207.803 1175.11,207.881 1176.91,207.914 1178.72,207.944 1180.52,207.976 1182.33,207.984 1184.13,208.036 1185.94,208.351 1187.74,208.522 1189.54,208.714 1191.35,208.93 1193.15,209.01 1194.96,208.85 1196.76,209.02 1198.57,209.05 1200.37,209.247 1202.18,209.327 1203.98,209.355 1205.79,209.407 1207.59,209.484 1209.4,209.558 1211.2,209.585 1213.01,209.844 1214.81,209.962 1216.61,209.965 1218.42,210.11 1220.22,210.299 1222.03,210.397 1223.83,210.5 1225.64,210.601 1227.44,210.699 1229.25,210.797 1231.05,210.867 1232.86,210.919 1234.66,210.989 1236.47,211.085 1238.27,211.203 1240.08,211.27 1241.88,211.363 1243.69,211.454 1245.49,211.6 1247.29,211.511 1249.1,211.561 1250.9,211.701 1252.71,211.745 1254.51,211.796 1256.32,211.844 1258.12,211.913 1259.93,212.057 1261.73,212.056 1263.54,212.053 1265.34,212.148 1267.15,212.241 1268.95,212.38 1270.76,212.586 1272.56,212.633 1274.36,212.869 1276.17,213.125 1277.97,213.121 1279.78,213.361 1281.58,213.314 1283.39,213.355 1285.19,213.378 1287,213.399 1288.8,213.533 1290.61,213.601 1292.41,213.741 1294.22,213.927 1296.02,214.086 1297.83,214.29 1299.63,214.406 1301.43,214.498 1303.24,214.535 1305.04,214.577 1306.85,214.645 1308.65,214.736 1310.46,214.779 1312.26,214.867 1314.07,214.883 1315.87,214.924 1317.68,215.058 1319.48,215.145 1321.29,215.307 1323.09,215.487 1324.9,215.454 1326.7,215.451 1328.5,215.421 1330.31,215.604 1332.11,215.618 1333.92,215.536 1335.72,215.644 1337.53,215.822 1339.33,215.862 1341.14,216.018 1342.94,216.101 1344.75,216.188 1346.55,216.253 1348.36,216.406 1350.16,216.56 1351.97,216.572 1353.77,216.488 1355.57,216.666 1357.38,216.776 1359.18,216.906 1360.99,216.942 1362.79,216.834 1364.6,216.872 1366.4,216.879 1368.21,216.82 1370.01,216.898 1371.82,217.054 1373.62,217.283 1375.43,217.392 1377.23,217.543 1379.04,217.742 1380.84,218.059 1382.64,218.118 1384.45,218.152 1386.25,218.257 1388.06,218.339 1389.86,218.208 1391.67,218.263 1393.47,218.154 1395.28,218.21 1397.08,218.409 1398.89,218.398 1400.69,218.426 1402.5,218.621 1404.3,218.655 1406.11,218.712 1407.91,218.869 1409.71,218.875 1411.52,219.17 1413.32,219.32 1415.13,219.402 1416.93,219.528 1418.74,219.565 1420.54,219.761 1422.35,220.025 1424.15,219.889 1425.96,219.901 1427.76,220.075 1429.57,220.222 1431.37,220.395 1433.18,220.52 1434.98,220.572 1436.78,220.603 1438.59,220.68 1440.39,220.803 1442.2,220.924 1444,221.048 1445.81,221.047 1447.61,221.192 1449.42,221.358 1451.22,221.528 1453.03,221.532 1454.83,221.631 1456.64,221.681 1458.44,221.822 1460.25,222.057 1462.05,222.127 1463.85,222.251 1465.66,222.506 1467.46,222.576 1469.27,222.655 1471.07,222.871 1472.88,222.967 1474.68,222.8 1476.49,222.873 1478.29,222.802 1480.1,222.686 1481.9,222.619 1483.71,222.642 1485.51,222.736 1487.32,222.856 1489.12,222.976 1490.92,223.049 1492.73,223.078 1494.53,223.267 1496.34,223.264 1498.14,223.43 1499.95,223.643 1501.75,223.786 1503.56,223.903 1505.36,224.088 1507.17,224.135 1508.97,224.084 1510.78,224.081 1512.58,224.147 1514.39,224.264 1516.19,224.427 1517.99,224.547 1519.8,224.686 1521.6,224.728 1523.41,224.8 1525.21,224.634 1527.02,224.793 1528.82,224.932 1530.63,225.023 1532.43,225.186 1534.24,225.27 1536.04,225.527 1537.85,225.546 1539.65,225.772 1541.46,225.692 1543.26,225.738 1545.06,225.902 1546.87,225.923 1548.67,226.062 1550.48,226.13 1552.28,226.266 1554.09,226.33 1555.89,226.44 1557.7,226.553 1559.5,226.593 1561.31,226.82 1563.11,226.812 1564.92,226.928 1566.72,227.086 1568.53,227.215 1570.33,227.46 1572.14,227.691 1573.94,227.685 1575.74,227.754 1577.55,227.656 1579.35,227.578 1581.16,227.522 1582.96,227.701 1584.77,227.855 1586.57,227.886 1588.38,227.86 1590.18,228.059 1591.99,228.029 1593.79,228.163 1595.6,228.439 1597.4,228.456 1599.21,228.706 1601.01,228.747 1602.81,228.834 1604.62,228.732 1606.42,228.745 1608.23,228.808 1610.03,228.918 1611.84,228.9 1613.64,229.124 1615.45,229.109 1617.25,229.218 1619.06,229.208 1620.86,229.241 1622.67,229.322 1624.47,229.42 1626.28,229.501 1628.08,229.563 1629.88,229.665 1631.69,229.695 1633.49,229.73 1635.3,230.022 1637.1,230.101 1638.91,230.23 1640.71,230.238 1642.52,230.196 1644.32,230.346 1646.13,230.423 1647.93,230.508 1649.74,230.523 1651.54,230.627 1653.35,230.654 1655.15,230.803 1656.95,230.741 1658.76,230.848 1660.56,230.973 1662.37,230.98 1664.17,230.992 1665.98,231.076 1667.78,231.066 1669.59,231.286 1671.39,231.249 1673.2,231.377 1675,231.391 1676.81,231.406 1678.61,231.507 1680.42,231.489 1682.22,231.585 1684.02,231.662 1685.83,231.761 1687.63,231.813 1689.44,231.78 1691.24,231.93 1693.05,232.175 1694.85,232.249 1696.66,232.494 1698.46,232.544 1700.27,232.69 1702.07,232.746 1703.88,232.705 1705.68,232.852 1707.49,232.927 1709.29,233.053 1711.09,233.34 1712.9,233.485 1714.7,233.398 1716.51,233.353 1718.31,233.314 1720.12,233.39 1721.92,233.674 1723.73,233.746 1725.53,233.772 1727.34,233.825 1729.14,233.923 1730.95,234.017 1732.75,234.258 1734.56,234.397 1736.36,234.492 1738.16,234.475 1739.97,234.712 1741.77,234.688 1743.58,234.738 1745.38,234.971 1747.19,235.135 1748.99,235.465 1750.8,235.517 1752.6,235.521 1754.41,235.64 1756.21,235.685 1758.02,235.827 1759.82,235.891 1761.63,235.84 1763.43,236.049 1765.23,236.065 1767.04,236.168 1768.84,236.31 1770.65,236.451 1772.45,236.5 1774.26,236.52 1776.06,236.658 1777.87,236.936 1779.67,237.03 1781.48,237.125 1783.28,237.192 1785.09,237.452 1786.89,237.589 1788.7,237.802 1790.5,237.704 1792.3,237.629 1794.11,237.714 1795.91,237.666 1797.72,237.775 1799.52,237.698 1801.33,237.737 1803.13,237.873 1804.94,237.891 1806.74,237.86 1808.55,237.973 1810.35,238.176 1812.16,238.241 1813.96,238.401 1815.77,238.672 1817.57,238.785 1819.37,238.781 1821.18,238.843 1822.98,239.068 1824.79,239.37 1826.59,239.433 1828.4,239.564 1830.2,239.677 1832.01,239.65 1833.81,239.714 1835.62,239.751 1837.42,239.838 1839.23,239.966 1841.03,240.126 1842.84,240.256 1844.64,240.199 1846.44,240.255 1848.25,240.431 1850.05,240.442 1851.86,240.505 1853.66,240.731 1855.47,240.772 1857.27,240.787 1859.08,240.939 1860.88,241.022 1862.69,241.08 1864.49,241.183 1866.3,241.194 1868.1,241.345 1869.91,241.475 1871.71,241.556 1873.51,241.393 1875.32,241.424 1877.12,241.486 1878.93,241.403 1880.73,241.487 1882.54,241.754 1884.34,241.973 1886.15,242.173 1887.95,242.299 1889.76,242.357 1891.56,242.413 1893.37,242.401 1895.17,242.368 1896.98,242.614 1898.78,242.746 1900.59,242.848 1902.39,243.048 1904.19,243.01 1906,243.06 1907.8,243.21 1909.61,243.334 1911.41,243.456 1913.22,243.562 1915.02,243.594 1916.83,243.722 1918.63,243.801 1920.44,243.83 1922.24,243.79 1924.05,243.888 1925.85,243.966 1927.66,244.068 1929.46,244.26 1931.26,244.406 1933.07,244.669 1934.87,244.559 1936.68,244.733 1938.48,245.063 1940.29,245.236 1942.09,245.308 1943.9,245.477 1945.7,245.526 1947.51,245.48 1949.31,245.576 1951.12,245.811 1952.92,246.028 1954.73,246.152 1956.53,246.362 1958.33,246.37 1960.14,246.371 1961.94,246.414 1963.75,246.463 1965.55,246.553 1967.36,246.742 1969.16,246.74 1970.97,246.856 1972.77,246.855 1974.58,246.997 1976.38,246.951 1978.19,247.143 1979.99,247.233 1981.8,247.236 1983.6,247.335 1985.4,247.451 1987.21,247.399 1989.01,247.416 1990.82,247.539 1992.62,247.777 1994.43,248.059 1996.23,248.193 1998.04,248.172 1999.84,248.262 2001.65,248.187 2003.45,248.174 2005.26,248.568 2007.06,248.826 2008.87,248.871 2010.67,248.888 "/>
</svg>
