<?xml version="1.0" encoding="utf-8"?>
<svg xmlns="http://www.w3.org/2000/svg" xmlns:xlink="http://www.w3.org/1999/xlink" width="528" height="336" viewBox="0 0 2112 1344">
<defs>
  <clipPath id="clip890">
    <rect x="0" y="0" width="2112" height="1344"/>
  </clipPath>
</defs>
<path clip-path="url(#clip890)" d="M0 1344 L2112 1344 L2112 0 L0 0  Z" fill="#ffffff" fill-rule="evenodd" fill-opacity="1"/>
<defs>
  <clipPath id="clip891">
    <rect x="422" y="0" width="1479" height="1344"/>
  </clipPath>
</defs>
<path clip-path="url(#clip890)" d="M153.718 1222.85 L2064.76 1222.85 L2064.76 47.2441 L153.718 47.2441  Z" fill="#ffffff" fill-rule="evenodd" fill-opacity="1"/>
<defs>
  <clipPath id="clip892">
    <rect x="153" y="47" width="1912" height="1177"/>
  </clipPath>
</defs>
<polyline clip-path="url(#clip892)" style="stroke:#000000; stroke-linecap:round; stroke-linejoin:round; stroke-width:2; stroke-opacity:0.1; fill:none" points="207.786,1222.85 207.786,47.2441 "/>
<polyline clip-path="url(#clip892)" style="stroke:#000000; stroke-linecap:round; stroke-linejoin:round; stroke-width:2; stroke-opacity:0.1; fill:none" points="658.954,1222.85 658.954,47.2441 "/>
<polyline clip-path="url(#clip892)" style="stroke:#000000; stroke-linecap:round; stroke-linejoin:round; stroke-width:2; stroke-opacity:0.1; fill:none" points="1110.12,1222.85 1110.12,47.2441 "/>
<polyline clip-path="url(#clip892)" style="stroke:#000000; stroke-linecap:round; stroke-linejoin:round; stroke-width:2; stroke-opacity:0.1; fill:none" points="1561.29,1222.85 1561.29,47.2441 "/>
<polyline clip-path="url(#clip892)" style="stroke:#000000; stroke-linecap:round; stroke-linejoin:round; stroke-width:2; stroke-opacity:0.1; fill:none" points="2012.46,1222.85 2012.46,47.2441 "/>
<polyline clip-path="url(#clip890)" style="stroke:#000000; stroke-linecap:round; stroke-linejoin:round; stroke-width:4; stroke-opacity:1; fill:none" points="153.718,1222.85 2064.76,1222.85 "/>
<polyline clip-path="url(#clip890)" style="stroke:#000000; stroke-linecap:round; stroke-linejoin:round; stroke-width:4; stroke-opacity:1; fill:none" points="207.786,1222.85 207.786,1203.96 "/>
<polyline clip-path="url(#clip890)" style="stroke:#000000; stroke-linecap:round; stroke-linejoin:round; stroke-width:4; stroke-opacity:1; fill:none" points="658.954,1222.85 658.954,1203.96 "/>
<polyline clip-path="url(#clip890)" style="stroke:#000000; stroke-linecap:round; stroke-linejoin:round; stroke-width:4; stroke-opacity:1; fill:none" points="1110.12,1222.85 1110.12,1203.96 "/>
<polyline clip-path="url(#clip890)" style="stroke:#000000; stroke-linecap:round; stroke-linejoin:round; stroke-width:4; stroke-opacity:1; fill:none" points="1561.29,1222.85 1561.29,1203.96 "/>
<polyline clip-path="url(#clip890)" style="stroke:#000000; stroke-linecap:round; stroke-linejoin:round; stroke-width:4; stroke-opacity:1; fill:none" points="2012.46,1222.85 2012.46,1203.96 "/>
<path clip-path="url(#clip890)" d="M207.786 1251.47 Q204.175 1251.47 202.346 1255.03 Q200.541 1258.58 200.541 1265.7 Q200.541 1272.81 202.346 1276.38 Q204.175 1279.92 207.786 1279.92 Q211.42 1279.92 213.226 1276.38 Q215.055 1272.81 215.055 1265.7 Q215.055 1258.58 213.226 1255.03 Q211.42 1251.47 207.786 1251.47 M207.786 1247.76 Q213.596 1247.76 216.652 1252.37 Q219.731 1256.95 219.731 1265.7 Q219.731 1274.43 216.652 1279.04 Q213.596 1283.62 207.786 1283.62 Q201.976 1283.62 198.897 1279.04 Q195.842 1274.43 195.842 1265.7 Q195.842 1256.95 198.897 1252.37 Q201.976 1247.76 207.786 1247.76 Z" fill="#000000" fill-rule="nonzero" fill-opacity="1" /><path clip-path="url(#clip890)" d="M554.857 1294.67 L571.176 1294.67 L571.176 1298.61 L549.232 1298.61 L549.232 1294.67 Q551.894 1291.92 556.477 1287.29 Q561.084 1282.64 562.264 1281.3 Q564.51 1278.77 565.389 1277.04 Q566.292 1275.28 566.292 1273.59 Q566.292 1270.83 564.348 1269.1 Q562.426 1267.36 559.325 1267.36 Q557.126 1267.36 554.672 1268.12 Q552.241 1268.89 549.464 1270.44 L549.464 1265.72 Q552.288 1264.58 554.741 1264 Q557.195 1263.42 559.232 1263.42 Q564.602 1263.42 567.797 1266.11 Q570.991 1268.8 570.991 1273.29 Q570.991 1275.42 570.181 1277.34 Q569.394 1279.24 567.288 1281.83 Q566.709 1282.5 563.607 1285.72 Q560.505 1288.91 554.857 1294.67 Z" fill="#000000" fill-rule="nonzero" fill-opacity="1" /><path clip-path="url(#clip890)" d="M580.991 1292.73 L585.875 1292.73 L585.875 1298.61 L580.991 1298.61 L580.991 1292.73 Z" fill="#000000" fill-rule="nonzero" fill-opacity="1" /><path clip-path="url(#clip890)" d="M596.107 1264.05 L614.463 1264.05 L614.463 1267.99 L600.389 1267.99 L600.389 1276.46 Q601.408 1276.11 602.426 1275.95 Q603.445 1275.76 604.463 1275.76 Q610.25 1275.76 613.63 1278.93 Q617.01 1282.11 617.01 1287.52 Q617.01 1293.1 613.537 1296.2 Q610.065 1299.28 603.746 1299.28 Q601.57 1299.28 599.301 1298.91 Q597.056 1298.54 594.649 1297.8 L594.649 1293.1 Q596.732 1294.23 598.954 1294.79 Q601.176 1295.35 603.653 1295.35 Q607.658 1295.35 609.996 1293.24 Q612.334 1291.13 612.334 1287.52 Q612.334 1283.91 609.996 1281.8 Q607.658 1279.7 603.653 1279.7 Q601.778 1279.7 599.903 1280.11 Q598.051 1280.53 596.107 1281.41 L596.107 1264.05 Z" fill="#000000" fill-rule="nonzero" fill-opacity="1" /><path clip-path="url(#clip890)" d="M636.222 1267.13 Q632.611 1267.13 630.783 1270.69 Q628.977 1274.24 628.977 1281.36 Q628.977 1288.47 630.783 1292.04 Q632.611 1295.58 636.222 1295.58 Q639.857 1295.58 641.662 1292.04 Q643.491 1288.47 643.491 1281.36 Q643.491 1274.24 641.662 1270.69 Q639.857 1267.13 636.222 1267.13 M636.222 1263.42 Q642.033 1263.42 645.088 1268.03 Q648.167 1272.61 648.167 1281.36 Q648.167 1290.09 645.088 1294.7 Q642.033 1299.28 636.222 1299.28 Q630.412 1299.28 627.334 1294.7 Q624.278 1290.09 624.278 1281.36 Q624.278 1272.61 627.334 1268.03 Q630.412 1263.42 636.222 1263.42 Z" fill="#000000" fill-rule="nonzero" fill-opacity="1" /><path clip-path="url(#clip890)" d="M684.555 1273.15 L673.977 1283.77 L684.555 1294.35 L681.801 1297.15 L671.176 1286.53 L660.551 1297.15 L657.82 1294.35 L668.375 1283.77 L657.82 1273.15 L660.551 1270.35 L671.176 1280.97 L681.801 1270.35 L684.555 1273.15 Z" fill="#000000" fill-rule="nonzero" fill-opacity="1" /><path clip-path="url(#clip890)" d="M696.917 1294.67 L704.555 1294.67 L704.555 1268.31 L696.245 1269.98 L696.245 1265.72 L704.509 1264.05 L709.185 1264.05 L709.185 1294.67 L716.824 1294.67 L716.824 1298.61 L696.917 1298.61 L696.917 1294.67 Z" fill="#000000" fill-rule="nonzero" fill-opacity="1" /><path clip-path="url(#clip890)" d="M736.268 1267.13 Q732.657 1267.13 730.828 1270.69 Q729.023 1274.24 729.023 1281.36 Q729.023 1288.47 730.828 1292.04 Q732.657 1295.58 736.268 1295.58 Q739.902 1295.58 741.708 1292.04 Q743.537 1288.47 743.537 1281.36 Q743.537 1274.24 741.708 1270.69 Q739.902 1267.13 736.268 1267.13 M736.268 1263.42 Q742.078 1263.42 745.134 1268.03 Q748.213 1272.61 748.213 1281.36 Q748.213 1290.09 745.134 1294.7 Q742.078 1299.28 736.268 1299.28 Q730.458 1299.28 727.379 1294.7 Q724.324 1290.09 724.324 1281.36 Q724.324 1272.61 727.379 1268.03 Q730.458 1263.42 736.268 1263.42 Z" fill="#000000" fill-rule="nonzero" fill-opacity="1" /><path clip-path="url(#clip890)" d="M760.889 1246.43 L751.297 1261.42 L760.889 1261.42 L760.889 1246.43 M759.892 1243.12 L764.669 1243.12 L764.669 1261.42 L768.675 1261.42 L768.675 1264.58 L764.669 1264.58 L764.669 1271.2 L760.889 1271.2 L760.889 1264.58 L748.213 1264.58 L748.213 1260.91 L759.892 1243.12 Z" fill="#000000" fill-rule="nonzero" fill-opacity="1" /><path clip-path="url(#clip890)" d="M1001.95 1264.05 L1020.31 1264.05 L1020.31 1267.99 L1006.23 1267.99 L1006.23 1276.46 Q1007.25 1276.11 1008.27 1275.95 Q1009.29 1275.76 1010.31 1275.76 Q1016.09 1275.76 1019.47 1278.93 Q1022.85 1282.11 1022.85 1287.52 Q1022.85 1293.1 1019.38 1296.2 Q1015.91 1299.28 1009.59 1299.28 Q1007.41 1299.28 1005.15 1298.91 Q1002.9 1298.54 1000.49 1297.8 L1000.49 1293.1 Q1002.58 1294.23 1004.8 1294.79 Q1007.02 1295.35 1009.5 1295.35 Q1013.5 1295.35 1015.84 1293.24 Q1018.18 1291.13 1018.18 1287.52 Q1018.18 1283.91 1015.84 1281.8 Q1013.5 1279.7 1009.5 1279.7 Q1007.62 1279.7 1005.75 1280.11 Q1003.9 1280.53 1001.95 1281.41 L1001.95 1264.05 Z" fill="#000000" fill-rule="nonzero" fill-opacity="1" /><path clip-path="url(#clip890)" d="M1032.07 1292.73 L1036.95 1292.73 L1036.95 1298.61 L1032.07 1298.61 L1032.07 1292.73 Z" fill="#000000" fill-rule="nonzero" fill-opacity="1" /><path clip-path="url(#clip890)" d="M1057.14 1267.13 Q1053.52 1267.13 1051.7 1270.69 Q1049.89 1274.24 1049.89 1281.36 Q1049.89 1288.47 1051.7 1292.04 Q1053.52 1295.58 1057.14 1295.58 Q1060.77 1295.58 1062.58 1292.04 Q1064.4 1288.47 1064.4 1281.36 Q1064.4 1274.24 1062.58 1270.69 Q1060.77 1267.13 1057.14 1267.13 M1057.14 1263.42 Q1062.95 1263.42 1066 1268.03 Q1069.08 1272.61 1069.08 1281.36 Q1069.08 1290.09 1066 1294.7 Q1062.95 1299.28 1057.14 1299.28 Q1051.33 1299.28 1048.25 1294.7 Q1045.19 1290.09 1045.19 1281.36 Q1045.19 1272.61 1048.25 1268.03 Q1051.33 1263.42 1057.14 1263.42 Z" fill="#000000" fill-rule="nonzero" fill-opacity="1" /><path clip-path="url(#clip890)" d="M1087.3 1267.13 Q1083.69 1267.13 1081.86 1270.69 Q1080.05 1274.24 1080.05 1281.36 Q1080.05 1288.47 1081.86 1292.04 Q1083.69 1295.58 1087.3 1295.58 Q1090.93 1295.58 1092.74 1292.04 Q1094.57 1288.47 1094.57 1281.36 Q1094.57 1274.24 1092.74 1270.69 Q1090.93 1267.13 1087.3 1267.13 M1087.3 1263.42 Q1093.11 1263.42 1096.16 1268.03 Q1099.24 1272.61 1099.24 1281.36 Q1099.24 1290.09 1096.16 1294.7 Q1093.11 1299.28 1087.3 1299.28 Q1081.49 1299.28 1078.41 1294.7 Q1075.35 1290.09 1075.35 1281.36 Q1075.35 1272.61 1078.41 1268.03 Q1081.49 1263.42 1087.3 1263.42 Z" fill="#000000" fill-rule="nonzero" fill-opacity="1" /><path clip-path="url(#clip890)" d="M1135.63 1273.15 L1125.05 1283.77 L1135.63 1294.35 L1132.88 1297.15 L1122.25 1286.53 L1111.63 1297.15 L1108.89 1294.35 L1119.45 1283.77 L1108.89 1273.15 L1111.63 1270.35 L1122.25 1280.97 L1132.88 1270.35 L1135.63 1273.15 Z" fill="#000000" fill-rule="nonzero" fill-opacity="1" /><path clip-path="url(#clip890)" d="M1147.99 1294.67 L1155.63 1294.67 L1155.63 1268.31 L1147.32 1269.98 L1147.32 1265.72 L1155.58 1264.05 L1160.26 1264.05 L1160.26 1294.67 L1167.9 1294.67 L1167.9 1298.61 L1147.99 1298.61 L1147.99 1294.67 Z" fill="#000000" fill-rule="nonzero" fill-opacity="1" /><path clip-path="url(#clip890)" d="M1187.34 1267.13 Q1183.73 1267.13 1181.9 1270.69 Q1180.1 1274.24 1180.1 1281.36 Q1180.1 1288.47 1181.9 1292.04 Q1183.73 1295.58 1187.34 1295.58 Q1190.98 1295.58 1192.78 1292.04 Q1194.61 1288.47 1194.61 1281.36 Q1194.61 1274.24 1192.78 1270.69 Q1190.98 1267.13 1187.34 1267.13 M1187.34 1263.42 Q1193.15 1263.42 1196.21 1268.03 Q1199.29 1272.61 1199.29 1281.36 Q1199.29 1290.09 1196.21 1294.7 Q1193.15 1299.28 1187.34 1299.28 Q1181.53 1299.28 1178.45 1294.7 Q1175.4 1290.09 1175.4 1281.36 Q1175.4 1272.61 1178.45 1268.03 Q1181.53 1263.42 1187.34 1263.42 Z" fill="#000000" fill-rule="nonzero" fill-opacity="1" /><path clip-path="url(#clip890)" d="M1211.96 1246.43 L1202.37 1261.42 L1211.96 1261.42 L1211.96 1246.43 M1210.97 1243.12 L1215.74 1243.12 L1215.74 1261.42 L1219.75 1261.42 L1219.75 1264.58 L1215.74 1264.58 L1215.74 1271.2 L1211.96 1271.2 L1211.96 1264.58 L1199.29 1264.58 L1199.29 1260.91 L1210.97 1243.12 Z" fill="#000000" fill-rule="nonzero" fill-opacity="1" /><path clip-path="url(#clip890)" d="M1451.78 1264.05 L1474 1264.05 L1474 1266.04 L1461.45 1298.61 L1456.57 1298.61 L1468.37 1267.99 L1451.78 1267.99 L1451.78 1264.05 Z" fill="#000000" fill-rule="nonzero" fill-opacity="1" /><path clip-path="url(#clip890)" d="M1483.12 1292.73 L1488 1292.73 L1488 1298.61 L1483.12 1298.61 L1483.12 1292.73 Z" fill="#000000" fill-rule="nonzero" fill-opacity="1" /><path clip-path="url(#clip890)" d="M1498.23 1264.05 L1516.59 1264.05 L1516.59 1267.99 L1502.52 1267.99 L1502.52 1276.46 Q1503.53 1276.11 1504.55 1275.95 Q1505.57 1275.76 1506.59 1275.76 Q1512.38 1275.76 1515.76 1278.93 Q1519.14 1282.11 1519.14 1287.52 Q1519.14 1293.1 1515.66 1296.2 Q1512.19 1299.28 1505.87 1299.28 Q1503.7 1299.28 1501.43 1298.91 Q1499.18 1298.54 1496.78 1297.8 L1496.78 1293.1 Q1498.86 1294.23 1501.08 1294.79 Q1503.3 1295.35 1505.78 1295.35 Q1509.78 1295.35 1512.12 1293.24 Q1514.46 1291.13 1514.46 1287.52 Q1514.46 1283.91 1512.12 1281.8 Q1509.78 1279.7 1505.78 1279.7 Q1503.91 1279.7 1502.03 1280.11 Q1500.18 1280.53 1498.23 1281.41 L1498.23 1264.05 Z" fill="#000000" fill-rule="nonzero" fill-opacity="1" /><path clip-path="url(#clip890)" d="M1538.35 1267.13 Q1534.74 1267.13 1532.91 1270.69 Q1531.1 1274.24 1531.1 1281.36 Q1531.1 1288.47 1532.91 1292.04 Q1534.74 1295.58 1538.35 1295.58 Q1541.98 1295.58 1543.79 1292.04 Q1545.62 1288.47 1545.62 1281.36 Q1545.62 1274.24 1543.79 1270.69 Q1541.98 1267.13 1538.35 1267.13 M1538.35 1263.42 Q1544.16 1263.42 1547.21 1268.03 Q1550.29 1272.61 1550.29 1281.36 Q1550.29 1290.09 1547.21 1294.7 Q1544.16 1299.28 1538.35 1299.28 Q1532.54 1299.28 1529.46 1294.7 Q1526.4 1290.09 1526.4 1281.36 Q1526.4 1272.61 1529.46 1268.03 Q1532.54 1263.42 1538.35 1263.42 Z" fill="#000000" fill-rule="nonzero" fill-opacity="1" /><path clip-path="url(#clip890)" d="M1586.68 1273.15 L1576.1 1283.77 L1586.68 1294.35 L1583.93 1297.15 L1573.3 1286.53 L1562.68 1297.15 L1559.95 1294.35 L1570.5 1283.77 L1559.95 1273.15 L1562.68 1270.35 L1573.3 1280.97 L1583.93 1270.35 L1586.68 1273.15 Z" fill="#000000" fill-rule="nonzero" fill-opacity="1" /><path clip-path="url(#clip890)" d="M1599.04 1294.67 L1606.68 1294.67 L1606.68 1268.31 L1598.37 1269.98 L1598.37 1265.72 L1606.64 1264.05 L1611.31 1264.05 L1611.31 1294.67 L1618.95 1294.67 L1618.95 1298.61 L1599.04 1298.61 L1599.04 1294.67 Z" fill="#000000" fill-rule="nonzero" fill-opacity="1" /><path clip-path="url(#clip890)" d="M1638.4 1267.13 Q1634.78 1267.13 1632.96 1270.69 Q1631.15 1274.24 1631.15 1281.36 Q1631.15 1288.47 1632.96 1292.04 Q1634.78 1295.58 1638.4 1295.58 Q1642.03 1295.58 1643.83 1292.04 Q1645.66 1288.47 1645.66 1281.36 Q1645.66 1274.24 1643.83 1270.69 Q1642.03 1267.13 1638.4 1267.13 M1638.4 1263.42 Q1644.21 1263.42 1647.26 1268.03 Q1650.34 1272.61 1650.34 1281.36 Q1650.34 1290.09 1647.26 1294.7 Q1644.21 1299.28 1638.4 1299.28 Q1632.58 1299.28 1629.51 1294.7 Q1626.45 1290.09 1626.45 1281.36 Q1626.45 1272.61 1629.51 1268.03 Q1632.58 1263.42 1638.4 1263.42 Z" fill="#000000" fill-rule="nonzero" fill-opacity="1" /><path clip-path="url(#clip890)" d="M1663.02 1246.43 L1653.42 1261.42 L1663.02 1261.42 L1663.02 1246.43 M1662.02 1243.12 L1666.8 1243.12 L1666.8 1261.42 L1670.8 1261.42 L1670.8 1264.58 L1666.8 1264.58 L1666.8 1271.2 L1663.02 1271.2 L1663.02 1264.58 L1650.34 1264.58 L1650.34 1260.91 L1662.02 1243.12 Z" fill="#000000" fill-rule="nonzero" fill-opacity="1" /><path clip-path="url(#clip890)" d="M1905.42 1294.67 L1913.06 1294.67 L1913.06 1268.31 L1904.75 1269.98 L1904.75 1265.72 L1913.01 1264.05 L1917.69 1264.05 L1917.69 1294.67 L1925.33 1294.67 L1925.33 1298.61 L1905.42 1298.61 L1905.42 1294.67 Z" fill="#000000" fill-rule="nonzero" fill-opacity="1" /><path clip-path="url(#clip890)" d="M1934.77 1292.73 L1939.66 1292.73 L1939.66 1298.61 L1934.77 1298.61 L1934.77 1292.73 Z" fill="#000000" fill-rule="nonzero" fill-opacity="1" /><path clip-path="url(#clip890)" d="M1959.84 1267.13 Q1956.23 1267.13 1954.4 1270.69 Q1952.6 1274.24 1952.6 1281.36 Q1952.6 1288.47 1954.4 1292.04 Q1956.23 1295.58 1959.84 1295.58 Q1963.48 1295.58 1965.28 1292.04 Q1967.11 1288.47 1967.11 1281.36 Q1967.11 1274.24 1965.28 1270.69 Q1963.48 1267.13 1959.84 1267.13 M1959.84 1263.42 Q1965.65 1263.42 1968.71 1268.03 Q1971.79 1272.61 1971.79 1281.36 Q1971.79 1290.09 1968.71 1294.7 Q1965.65 1299.28 1959.84 1299.28 Q1954.03 1299.28 1950.95 1294.7 Q1947.9 1290.09 1947.9 1281.36 Q1947.9 1272.61 1950.95 1268.03 Q1954.03 1263.42 1959.84 1263.42 Z" fill="#000000" fill-rule="nonzero" fill-opacity="1" /><path clip-path="url(#clip890)" d="M1990 1267.13 Q1986.39 1267.13 1984.56 1270.69 Q1982.76 1274.24 1982.76 1281.36 Q1982.76 1288.47 1984.56 1292.04 Q1986.39 1295.58 1990 1295.58 Q1993.64 1295.58 1995.44 1292.04 Q1997.27 1288.47 1997.27 1281.36 Q1997.27 1274.24 1995.44 1270.69 Q1993.64 1267.13 1990 1267.13 M1990 1263.42 Q1995.81 1263.42 1998.87 1268.03 Q2001.95 1272.61 2001.95 1281.36 Q2001.95 1290.09 1998.87 1294.7 Q1995.81 1299.28 1990 1299.28 Q1984.19 1299.28 1981.12 1294.7 Q1978.06 1290.09 1978.06 1281.36 Q1978.06 1272.61 1981.12 1268.03 Q1984.19 1263.42 1990 1263.42 Z" fill="#000000" fill-rule="nonzero" fill-opacity="1" /><path clip-path="url(#clip890)" d="M2038.34 1273.15 L2027.76 1283.77 L2038.34 1294.35 L2035.58 1297.15 L2024.96 1286.53 L2014.33 1297.15 L2011.6 1294.35 L2022.16 1283.77 L2011.6 1273.15 L2014.33 1270.35 L2024.96 1280.97 L2035.58 1270.35 L2038.34 1273.15 Z" fill="#000000" fill-rule="nonzero" fill-opacity="1" /><path clip-path="url(#clip890)" d="M2050.7 1294.67 L2058.34 1294.67 L2058.34 1268.31 L2050.03 1269.98 L2050.03 1265.72 L2058.29 1264.05 L2062.97 1264.05 L2062.97 1294.67 L2070.61 1294.67 L2070.61 1298.61 L2050.7 1298.61 L2050.7 1294.67 Z" fill="#000000" fill-rule="nonzero" fill-opacity="1" /><path clip-path="url(#clip890)" d="M2090.05 1267.13 Q2086.44 1267.13 2084.61 1270.69 Q2082.8 1274.24 2082.8 1281.36 Q2082.8 1288.47 2084.61 1292.04 Q2086.44 1295.58 2090.05 1295.58 Q2093.68 1295.58 2095.49 1292.04 Q2097.32 1288.47 2097.32 1281.36 Q2097.32 1274.24 2095.49 1270.69 Q2093.68 1267.13 2090.05 1267.13 M2090.05 1263.42 Q2095.86 1263.42 2098.92 1268.03 Q2101.99 1272.61 2101.99 1281.36 Q2101.99 1290.09 2098.92 1294.7 Q2095.86 1299.28 2090.05 1299.28 Q2084.24 1299.28 2081.16 1294.7 Q2078.11 1290.09 2078.11 1281.36 Q2078.11 1272.61 2081.16 1268.03 Q2084.24 1263.42 2090.05 1263.42 Z" fill="#000000" fill-rule="nonzero" fill-opacity="1" /><path clip-path="url(#clip890)" d="M2103.18 1243.12 L2118.09 1243.12 L2118.09 1246.32 L2106.66 1246.32 L2106.66 1253.2 Q2107.49 1252.92 2108.31 1252.79 Q2109.14 1252.64 2109.97 1252.64 Q2114.67 1252.64 2117.42 1255.21 Q2120.16 1257.79 2120.16 1262.19 Q2120.16 1266.72 2117.34 1269.24 Q2114.52 1271.74 2109.39 1271.74 Q2107.62 1271.74 2105.77 1271.44 Q2103.95 1271.14 2101.99 1270.54 L2101.99 1266.72 Q2103.69 1267.64 2105.49 1268.1 Q2107.3 1268.55 2109.31 1268.55 Q2112.56 1268.55 2114.46 1266.84 Q2116.36 1265.12 2116.36 1262.19 Q2116.36 1259.26 2114.46 1257.55 Q2112.56 1255.83 2109.31 1255.83 Q2107.79 1255.83 2106.26 1256.17 Q2104.76 1256.51 2103.18 1257.23 L2103.18 1243.12 Z" fill="#000000" fill-rule="nonzero" fill-opacity="1" /><polyline clip-path="url(#clip892)" style="stroke:#000000; stroke-linecap:round; stroke-linejoin:round; stroke-width:2; stroke-opacity:0.1; fill:none" points="153.718,1222.85 2064.76,1222.85 "/>
<polyline clip-path="url(#clip892)" style="stroke:#000000; stroke-linecap:round; stroke-linejoin:round; stroke-width:2; stroke-opacity:0.1; fill:none" points="153.718,987.732 2064.76,987.732 "/>
<polyline clip-path="url(#clip892)" style="stroke:#000000; stroke-linecap:round; stroke-linejoin:round; stroke-width:2; stroke-opacity:0.1; fill:none" points="153.718,752.61 2064.76,752.61 "/>
<polyline clip-path="url(#clip892)" style="stroke:#000000; stroke-linecap:round; stroke-linejoin:round; stroke-width:2; stroke-opacity:0.1; fill:none" points="153.718,517.488 2064.76,517.488 "/>
<polyline clip-path="url(#clip892)" style="stroke:#000000; stroke-linecap:round; stroke-linejoin:round; stroke-width:2; stroke-opacity:0.1; fill:none" points="153.718,282.366 2064.76,282.366 "/>
<polyline clip-path="url(#clip892)" style="stroke:#000000; stroke-linecap:round; stroke-linejoin:round; stroke-width:2; stroke-opacity:0.1; fill:none" points="153.718,47.2441 2064.76,47.2441 "/>
<polyline clip-path="url(#clip890)" style="stroke:#000000; stroke-linecap:round; stroke-linejoin:round; stroke-width:4; stroke-opacity:1; fill:none" points="153.718,1222.85 153.718,47.2441 "/>
<polyline clip-path="url(#clip890)" style="stroke:#000000; stroke-linecap:round; stroke-linejoin:round; stroke-width:4; stroke-opacity:1; fill:none" points="153.718,1222.85 172.616,1222.85 "/>
<polyline clip-path="url(#clip890)" style="stroke:#000000; stroke-linecap:round; stroke-linejoin:round; stroke-width:4; stroke-opacity:1; fill:none" points="153.718,987.732 172.616,987.732 "/>
<polyline clip-path="url(#clip890)" style="stroke:#000000; stroke-linecap:round; stroke-linejoin:round; stroke-width:4; stroke-opacity:1; fill:none" points="153.718,752.61 172.616,752.61 "/>
<polyline clip-path="url(#clip890)" style="stroke:#000000; stroke-linecap:round; stroke-linejoin:round; stroke-width:4; stroke-opacity:1; fill:none" points="153.718,517.488 172.616,517.488 "/>
<polyline clip-path="url(#clip890)" style="stroke:#000000; stroke-linecap:round; stroke-linejoin:round; stroke-width:4; stroke-opacity:1; fill:none" points="153.718,282.366 172.616,282.366 "/>
<polyline clip-path="url(#clip890)" style="stroke:#000000; stroke-linecap:round; stroke-linejoin:round; stroke-width:4; stroke-opacity:1; fill:none" points="153.718,47.2441 172.616,47.2441 "/>
<path clip-path="url(#clip890)" d="M64.8626 1208.65 Q61.2515 1208.65 59.4228 1212.22 Q57.6173 1215.76 57.6173 1222.89 Q57.6173 1230 59.4228 1233.56 Q61.2515 1237.1 64.8626 1237.1 Q68.4969 1237.1 70.3024 1233.56 Q72.1311 1230 72.1311 1222.89 Q72.1311 1215.76 70.3024 1212.22 Q68.4969 1208.65 64.8626 1208.65 M64.8626 1204.95 Q70.6728 1204.95 73.7283 1209.56 Q76.807 1214.14 76.807 1222.89 Q76.807 1231.62 73.7283 1236.22 Q70.6728 1240.81 64.8626 1240.81 Q59.0525 1240.81 55.9738 1236.22 Q52.9182 1231.62 52.9182 1222.89 Q52.9182 1214.14 55.9738 1209.56 Q59.0525 1204.95 64.8626 1204.95 Z" fill="#000000" fill-rule="nonzero" fill-opacity="1" /><path clip-path="url(#clip890)" d="M85.0245 1234.25 L89.9088 1234.25 L89.9088 1240.13 L85.0245 1240.13 L85.0245 1234.25 Z" fill="#000000" fill-rule="nonzero" fill-opacity="1" /><path clip-path="url(#clip890)" d="M110.094 1208.65 Q106.483 1208.65 104.654 1212.22 Q102.849 1215.76 102.849 1222.89 Q102.849 1230 104.654 1233.56 Q106.483 1237.1 110.094 1237.1 Q113.728 1237.1 115.534 1233.56 Q117.362 1230 117.362 1222.89 Q117.362 1215.76 115.534 1212.22 Q113.728 1208.65 110.094 1208.65 M110.094 1204.95 Q115.904 1204.95 118.96 1209.56 Q122.038 1214.14 122.038 1222.89 Q122.038 1231.62 118.96 1236.22 Q115.904 1240.81 110.094 1240.81 Q104.284 1240.81 101.205 1236.22 Q98.1495 1231.62 98.1495 1222.89 Q98.1495 1214.14 101.205 1209.56 Q104.284 1204.95 110.094 1204.95 Z" fill="#000000" fill-rule="nonzero" fill-opacity="1" /><path clip-path="url(#clip890)" d="M66.4598 973.531 Q62.8487 973.531 61.02 977.095 Q59.2145 980.637 59.2145 987.767 Q59.2145 994.873 61.02 998.438 Q62.8487 1001.98 66.4598 1001.98 Q70.0941 1001.98 71.8996 998.438 Q73.7283 994.873 73.7283 987.767 Q73.7283 980.637 71.8996 977.095 Q70.0941 973.531 66.4598 973.531 M66.4598 969.827 Q72.27 969.827 75.3255 974.433 Q78.4042 979.017 78.4042 987.767 Q78.4042 996.493 75.3255 1001.1 Q72.27 1005.68 66.4598 1005.68 Q60.6497 1005.68 57.571 1001.1 Q54.5154 996.493 54.5154 987.767 Q54.5154 979.017 57.571 974.433 Q60.6497 969.827 66.4598 969.827 Z" fill="#000000" fill-rule="nonzero" fill-opacity="1" /><path clip-path="url(#clip890)" d="M86.6218 999.132 L91.506 999.132 L91.506 1005.01 L86.6218 1005.01 L86.6218 999.132 Z" fill="#000000" fill-rule="nonzero" fill-opacity="1" /><path clip-path="url(#clip890)" d="M105.719 1001.08 L122.038 1001.08 L122.038 1005.01 L100.094 1005.01 L100.094 1001.08 Q102.756 998.322 107.339 993.693 Q111.946 989.04 113.126 987.697 Q115.372 985.174 116.251 983.438 Q117.154 981.679 117.154 979.989 Q117.154 977.234 115.21 975.498 Q113.288 973.762 110.186 973.762 Q107.987 973.762 105.534 974.526 Q103.103 975.29 100.325 976.841 L100.325 972.119 Q103.149 970.984 105.603 970.406 Q108.057 969.827 110.094 969.827 Q115.464 969.827 118.659 972.512 Q121.853 975.197 121.853 979.688 Q121.853 981.818 121.043 983.739 Q120.256 985.637 118.149 988.23 Q117.571 988.901 114.469 992.118 Q111.367 995.313 105.719 1001.08 Z" fill="#000000" fill-rule="nonzero" fill-opacity="1" /><path clip-path="url(#clip890)" d="M64.3765 738.409 Q60.7654 738.409 58.9367 741.973 Q57.1312 745.515 57.1312 752.645 Q57.1312 759.751 58.9367 763.316 Q60.7654 766.858 64.3765 766.858 Q68.0107 766.858 69.8163 763.316 Q71.645 759.751 71.645 752.645 Q71.645 745.515 69.8163 741.973 Q68.0107 738.409 64.3765 738.409 M64.3765 734.705 Q70.1867 734.705 73.2422 739.311 Q76.3209 743.895 76.3209 752.645 Q76.3209 761.372 73.2422 765.978 Q70.1867 770.561 64.3765 770.561 Q58.5664 770.561 55.4877 765.978 Q52.4321 761.372 52.4321 752.645 Q52.4321 743.895 55.4877 739.311 Q58.5664 734.705 64.3765 734.705 Z" fill="#000000" fill-rule="nonzero" fill-opacity="1" /><path clip-path="url(#clip890)" d="M84.5384 764.01 L89.4227 764.01 L89.4227 769.89 L84.5384 769.89 L84.5384 764.01 Z" fill="#000000" fill-rule="nonzero" fill-opacity="1" /><path clip-path="url(#clip890)" d="M112.455 739.404 L100.649 757.853 L112.455 757.853 L112.455 739.404 M111.228 735.33 L117.108 735.33 L117.108 757.853 L122.038 757.853 L122.038 761.742 L117.108 761.742 L117.108 769.89 L112.455 769.89 L112.455 761.742 L96.8532 761.742 L96.8532 757.228 L111.228 735.33 Z" fill="#000000" fill-rule="nonzero" fill-opacity="1" /><path clip-path="url(#clip890)" d="M64.7006 503.287 Q61.0895 503.287 59.2608 506.852 Q57.4552 510.393 57.4552 517.523 Q57.4552 524.629 59.2608 528.194 Q61.0895 531.736 64.7006 531.736 Q68.3348 531.736 70.1404 528.194 Q71.9691 524.629 71.9691 517.523 Q71.9691 510.393 70.1404 506.852 Q68.3348 503.287 64.7006 503.287 M64.7006 499.583 Q70.5107 499.583 73.5663 504.189 Q76.645 508.773 76.645 517.523 Q76.645 526.25 73.5663 530.856 Q70.5107 535.439 64.7006 535.439 Q58.8904 535.439 55.8117 530.856 Q52.7562 526.25 52.7562 517.523 Q52.7562 508.773 55.8117 504.189 Q58.8904 499.583 64.7006 499.583 Z" fill="#000000" fill-rule="nonzero" fill-opacity="1" /><path clip-path="url(#clip890)" d="M84.8625 528.888 L89.7467 528.888 L89.7467 534.768 L84.8625 534.768 L84.8625 528.888 Z" fill="#000000" fill-rule="nonzero" fill-opacity="1" /><path clip-path="url(#clip890)" d="M110.511 515.625 Q107.362 515.625 105.511 517.777 Q103.682 519.93 103.682 523.68 Q103.682 527.407 105.511 529.583 Q107.362 531.736 110.511 531.736 Q113.659 531.736 115.487 529.583 Q117.339 527.407 117.339 523.68 Q117.339 519.93 115.487 517.777 Q113.659 515.625 110.511 515.625 M119.793 500.972 L119.793 505.231 Q118.034 504.398 116.228 503.958 Q114.446 503.518 112.686 503.518 Q108.057 503.518 105.603 506.643 Q103.173 509.768 102.825 516.088 Q104.191 514.074 106.251 513.009 Q108.311 511.921 110.788 511.921 Q115.997 511.921 119.006 515.092 Q122.038 518.24 122.038 523.68 Q122.038 529.004 118.89 532.222 Q115.742 535.439 110.511 535.439 Q104.515 535.439 101.344 530.856 Q98.1726 526.25 98.1726 517.523 Q98.1726 509.328 102.061 504.467 Q105.95 499.583 112.501 499.583 Q114.26 499.583 116.043 499.93 Q117.848 500.277 119.793 500.972 Z" fill="#000000" fill-rule="nonzero" fill-opacity="1" /><path clip-path="url(#clip890)" d="M64.9552 268.165 Q61.3441 268.165 59.5154 271.73 Q57.7099 275.271 57.7099 282.401 Q57.7099 289.507 59.5154 293.072 Q61.3441 296.614 64.9552 296.614 Q68.5894 296.614 70.395 293.072 Q72.2237 289.507 72.2237 282.401 Q72.2237 275.271 70.395 271.73 Q68.5894 268.165 64.9552 268.165 M64.9552 264.461 Q70.7654 264.461 73.8209 269.068 Q76.8996 273.651 76.8996 282.401 Q76.8996 291.128 73.8209 295.734 Q70.7654 300.317 64.9552 300.317 Q59.1451 300.317 56.0664 295.734 Q53.0108 291.128 53.0108 282.401 Q53.0108 273.651 56.0664 269.068 Q59.1451 264.461 64.9552 264.461 Z" fill="#000000" fill-rule="nonzero" fill-opacity="1" /><path clip-path="url(#clip890)" d="M85.1171 293.766 L90.0014 293.766 L90.0014 299.646 L85.1171 299.646 L85.1171 293.766 Z" fill="#000000" fill-rule="nonzero" fill-opacity="1" /><path clip-path="url(#clip890)" d="M110.186 283.234 Q106.853 283.234 104.932 285.017 Q103.034 286.799 103.034 289.924 Q103.034 293.049 104.932 294.831 Q106.853 296.614 110.186 296.614 Q113.52 296.614 115.441 294.831 Q117.362 293.026 117.362 289.924 Q117.362 286.799 115.441 285.017 Q113.543 283.234 110.186 283.234 M105.511 281.243 Q102.501 280.503 100.811 278.442 Q99.1448 276.382 99.1448 273.419 Q99.1448 269.276 102.085 266.868 Q105.048 264.461 110.186 264.461 Q115.348 264.461 118.288 266.868 Q121.228 269.276 121.228 273.419 Q121.228 276.382 119.538 278.442 Q117.872 280.503 114.885 281.243 Q118.265 282.03 120.14 284.322 Q122.038 286.614 122.038 289.924 Q122.038 294.947 118.96 297.632 Q115.904 300.317 110.186 300.317 Q104.469 300.317 101.39 297.632 Q98.3347 294.947 98.3347 289.924 Q98.3347 286.614 100.233 284.322 Q102.131 282.03 105.511 281.243 M103.798 273.859 Q103.798 276.544 105.464 278.049 Q107.154 279.554 110.186 279.554 Q113.196 279.554 114.885 278.049 Q116.598 276.544 116.598 273.859 Q116.598 271.174 114.885 269.669 Q113.196 268.165 110.186 268.165 Q107.154 268.165 105.464 269.669 Q103.798 271.174 103.798 273.859 Z" fill="#000000" fill-rule="nonzero" fill-opacity="1" /><path clip-path="url(#clip890)" d="M55.6728 60.5889 L63.3117 60.5889 L63.3117 34.2233 L55.0016 35.89 L55.0016 31.6308 L63.2654 29.9641 L67.9413 29.9641 L67.9413 60.5889 L75.5802 60.5889 L75.5802 64.5241 L55.6728 64.5241 L55.6728 60.5889 Z" fill="#000000" fill-rule="nonzero" fill-opacity="1" /><path clip-path="url(#clip890)" d="M85.0245 58.6445 L89.9088 58.6445 L89.9088 64.5241 L85.0245 64.5241 L85.0245 58.6445 Z" fill="#000000" fill-rule="nonzero" fill-opacity="1" /><path clip-path="url(#clip890)" d="M110.094 33.0428 Q106.483 33.0428 104.654 36.6076 Q102.849 40.1492 102.849 47.2788 Q102.849 54.3853 104.654 57.9501 Q106.483 61.4917 110.094 61.4917 Q113.728 61.4917 115.534 57.9501 Q117.362 54.3853 117.362 47.2788 Q117.362 40.1492 115.534 36.6076 Q113.728 33.0428 110.094 33.0428 M110.094 29.3391 Q115.904 29.3391 118.96 33.9456 Q122.038 38.5289 122.038 47.2788 Q122.038 56.0056 118.96 60.6121 Q115.904 65.1954 110.094 65.1954 Q104.284 65.1954 101.205 60.6121 Q98.1495 56.0056 98.1495 47.2788 Q98.1495 38.5289 101.205 33.9456 Q104.284 29.3391 110.094 29.3391 Z" fill="#000000" fill-rule="nonzero" fill-opacity="1" /><polyline clip-path="url(#clip892)" style="stroke:#009af9; stroke-linecap:round; stroke-linejoin:round; stroke-width:4; stroke-opacity:1; fill:none" points="207.804,634.931 209.609,632.616 211.414,631.738 213.218,631.108 215.023,628.854 216.828,627.123 218.632,624.96 220.437,622.569 222.242,621.363 224.046,618.397 225.851,617.532 227.656,614.813 229.46,612.407 231.265,611.241 233.07,609.182 234.874,608.114 236.679,607.245 238.484,606.386 240.288,603.474 242.093,600.378 243.898,597.128 245.702,593.609 247.507,592.501 249.312,589.112 251.116,588.821 252.921,586.45 254.726,585 256.53,585.518 258.335,585.799 260.14,585.196 261.944,583.456 263.749,582.384 265.554,579.265 267.358,578.97 269.163,579.438 270.968,579.386 272.772,578.579 274.577,578.687 276.382,577.804 278.186,574.618 279.991,572.618 281.796,570.978 283.6,568.732 285.405,567.245 287.21,564.341 289.014,562.8 290.819,560.233 292.624,556.151 294.428,552.829 296.233,551.164 298.038,550.676 299.842,549.078 301.647,546.851 303.452,545.276 305.256,544.202 307.061,542.139 308.866,540.237 310.67,539.143 312.475,538.193 314.28,537.364 316.084,533.895 317.889,532.194 319.694,527.843 321.498,527.28 323.303,525.107 325.108,522.302 326.912,520.23 328.717,520.187 330.522,521.496 332.326,519.35 334.131,518.84 335.936,519.603 337.74,515.334 339.545,513.211 341.35,514.514 343.154,514.184 344.959,510.718 346.764,509.661 348.568,507.296 350.373,504.442 352.178,503.815 353.983,503.322 355.787,501.992 357.592,499.289 359.397,495.654 361.201,490.651 363.006,487.558 364.811,486.12 366.615,484.054 368.42,482.137 370.225,481.084 372.029,477.69 373.834,475.978 375.639,475.261 377.443,474.272 379.248,470.711 381.053,467.051 382.857,465.063 384.662,462.6 386.467,460.422 388.271,459.201 390.076,456.663 391.881,455.142 393.685,452.045 395.49,450.168 397.295,448.324 399.099,447.182 400.904,444.082 402.709,441.924 404.513,441.526 406.318,440.123 408.123,439.399 409.927,438.816 411.732,435.969 413.537,433.805 415.341,431.781 417.146,429.285 418.951,428.409 420.755,429.429 422.56,426.773 424.365,426.205 426.169,424.489 427.974,422.654 429.779,420.394 431.583,417.179 433.388,415.016 435.193,412.727 436.997,411.737 438.802,411.374 440.607,409.92 442.411,408.614 444.216,406.904 446.021,405.56 447.825,404.352 449.63,403.817 451.435,402.541 453.239,400.032 455.044,398.451 456.849,397.962 458.653,396.929 460.458,394.698 462.263,392.79 464.067,391.372 465.872,389.907 467.677,389.424 469.481,388.702 471.286,388.09 473.091,385.163 474.895,384.107 476.7,380.929 478.505,380.464 480.309,378.429 482.114,378.699 483.919,375.035 485.723,372.753 487.528,372.177 489.333,370.513 491.137,369.193 492.942,367.252 494.747,365.599 496.551,366.273 498.356,366.291 500.161,364.448 501.965,363.434 503.77,361.563 505.575,358.584 507.379,357.266 509.184,355.606 510.989,354.427 512.794,353.504 514.598,352.511 516.403,350.953 518.208,348.81 520.012,348.006 521.817,346.142 523.622,344.554 525.426,341.832 527.231,340.473 529.036,338.892 530.84,339.223 532.645,336.374 534.45,335.159 536.254,332.379 538.059,331.487 539.864,329.626 541.668,329.488 543.473,327.239 545.278,326.019 547.082,324.982 548.887,324.282 550.692,324.594 552.496,324.64 554.301,324.001 556.106,323.916 557.91,321.378 559.715,320.023 561.52,318.199 563.324,316.522 565.129,314.602 566.934,312.015 568.738,311.923 570.543,310.9 572.348,309.28 574.152,309.36 575.957,307.975 577.762,306.804 579.566,305.499 581.371,304.679 583.176,303.618 584.98,301.503 586.785,299.721 588.59,297.291 590.394,295.792 592.199,297.718 594.004,296.628 595.808,295.421 597.613,295.175 599.418,293.739 601.222,291.741 603.027,290.404 604.832,290.059 606.636,288.636 608.441,286.99 610.246,286.62 612.05,285.275 613.855,285.596 615.66,284.945 617.464,285.167 619.269,283.059 621.074,281.681 622.878,280.473 624.683,280.085 626.488,277.849 628.292,275.657 630.097,274.693 631.902,275.229 633.706,276.355 635.511,276.109 637.316,276.058 639.12,274.369 640.925,273.995 642.73,273.356 644.534,273.137 646.339,270.782 648.144,269.331 649.948,269.57 651.753,269.706 653.558,269.636 655.362,268.457 657.167,268.222 658.972,267.606 660.776,265.782 662.581,264.915 664.386,264.908 666.19,263.66 667.995,262.084 669.8,260.704 671.604,260.044 673.409,259.01 675.214,258.613 677.019,257.421 678.823,256.041 680.628,255.639 682.433,255.067 684.237,254.563 686.042,252.806 687.847,251.895 689.651,249.695 691.456,249.001 693.261,247.383 695.065,246.828 696.87,245.181 698.675,244.482 700.479,243.132 702.284,242.661 704.089,240.692 705.893,239.249 707.698,237.726 709.503,236.15 711.307,236.284 713.112,235.594 714.917,234.908 716.721,234.429 718.526,234.533 720.331,233.424 722.135,233.03 723.94,232.658 725.745,231.001 727.549,229.777 729.354,228.59 731.159,228.643 732.963,228.598 734.768,228.646 736.573,226.309 738.377,225.405 740.182,223.923 741.987,222.898 743.791,222.82 745.596,221.499 747.401,220.444 749.205,219.046 751.01,216.882 752.815,217.764 754.619,216.141 756.424,214.6 758.229,213.58 760.033,211.961 761.838,212.321 763.643,210.831 765.447,210.809 767.252,210.36 769.057,210.851 770.861,209.298 772.666,208.691 774.471,207.329 776.275,207.094 778.08,205.374 779.885,205.302 781.689,204.534 783.494,203.156 785.299,202.893 787.103,201.842 788.908,200.66 790.713,199.602 792.517,198.871 794.322,199.058 796.127,198.985 797.931,198.232 799.736,198.007 801.541,196.377 803.345,195.792 805.15,195.102 806.955,193.711 808.759,191.959 810.564,191.536 812.369,190.405 814.173,189.883 815.978,188.799 817.783,186.772 819.587,185.673 821.392,187.364 823.197,185.617 825.001,185.226 826.806,184.919 828.611,184.21 830.415,184.849 832.22,184.02 834.025,183.304 835.83,182.732 837.634,181.576 839.439,180.642 841.244,180.096 843.048,180.632 844.853,179.273 846.658,178.331 848.462,177.341 850.267,177.071 852.072,176.208 853.876,175.464 855.681,174.841 857.486,174.646 859.29,173.711 861.095,172.988 862.9,173.709 864.704,172.742 866.509,171.598 868.314,171.355 870.118,170.215 871.923,170.346 873.728,169.112 875.532,168.516 877.337,167.691 879.142,167.696 880.946,167.707 882.751,166.977 884.556,166.984 886.36,165.921 888.165,167.268 889.97,167.093 891.774,166.094 893.579,164.923 895.384,163.641 897.188,163.021 898.993,161.255 900.798,160.975 902.602,160.169 904.407,158.749 906.212,157.736 908.016,156.662 909.821,156.532 911.626,155.924 913.43,155.798 915.235,155.278 917.04,155.216 918.844,154.277 920.649,154.41 922.454,153.822 924.258,152.961 926.063,152.355 927.868,151.488 929.672,151.012 931.477,150.37 933.282,149.37 935.086,148.159 936.891,148.832 938.696,149.128 940.5,147.723 942.305,146.663 944.11,146.803 945.914,146.701 947.719,146.108 949.524,145.525 951.328,144.672 953.133,143.181 954.938,142.474 956.742,141.859 958.547,141.626 960.352,140.281 962.156,139.853 963.961,139.768 965.766,139.06 967.57,139.04 969.375,138.271 971.18,138.352 972.984,137.932 974.789,137.133 976.594,136.999 978.398,136.553 980.203,136.221 982.008,135.489 983.812,135.033 985.617,134.733 987.422,133.677 989.226,132.642 991.031,132.003 992.836,131.541 994.64,130.492 996.445,129.989 998.25,129.254 1000.05,128.388 1001.86,127.931 1003.66,128.054 1005.47,127.563 1007.27,127.543 1009.08,127.285 1010.88,126.071 1012.69,125.907 1014.49,125.519 1016.3,125.169 1018.1,124.321 1019.91,124.431 1021.71,123.385 1023.52,121.929 1025.32,121.267 1027.12,121.21 1028.93,122.174 1030.73,121.804 1032.54,121.717 1034.34,121.828 1036.15,122.173 1037.95,122.205 1039.76,121.533 1041.56,121.592 1043.37,121.453 1045.17,120.747 1046.98,119.951 1048.78,119.361 1050.59,119.032 1052.39,118.354 1054.19,117.661 1056,116.984 1057.8,116.558 1059.61,115.928 1061.41,115.507 1063.22,114.81 1065.02,114.241 1066.83,113.634 1068.63,113.713 1070.44,113.485 1072.24,112.788 1074.05,111.469 1075.85,110.835 1077.66,110.37 1079.46,110.057 1081.26,109.057 1083.07,108.999 1084.87,108.702 1086.68,108.738 1088.48,107.905 1090.29,106.939 1092.09,106.4 1093.9,105.87 1095.7,104.715 1097.51,104.639 1099.31,104.027 1101.12,103.634 1102.92,102.453 1104.73,102.777 1106.53,102.354 1108.33,101.61 1110.14,101.771 1111.94,101.18 1113.75,100.977 1115.55,100.675 1117.36,101.214 1119.16,100.734 1120.97,100.226 1122.77,99.391 1124.58,98.6234 1126.38,98.8871 1128.19,98.2804 1129.99,98.1985 1131.8,97.6542 1133.6,96.9468 1135.4,96.2549 1137.21,96.1165 1139.01,97.0422 1140.82,96.7591 1142.62,95.9673 1144.43,95.4791 1146.23,95.6461 1148.04,95.6663 1149.84,95.1293 1151.65,94.6818 1153.45,94.7062 1155.26,94.2437 1157.06,94.0442 1158.87,94.1858 1160.67,94.0315 1162.47,94.0749 1164.28,94.3243 1166.08,94.8865 1167.89,94.6674 1169.69,94.6826 1171.5,93.9549 1173.3,93.9992 1175.11,94.2875 1176.91,93.8195 1178.72,93.186 1180.52,93.0354 1182.33,92.8387 1184.13,92.1154 1185.94,92.3322 1187.74,91.4233 1189.54,90.7255 1191.35,90.4474 1193.15,90.6763 1194.96,90.2283 1196.76,90.4437 1198.57,90.307 1200.37,89.6207 1202.18,89.2233 1203.98,88.871 1205.79,88.4127 1207.59,88.1841 1209.4,87.5927 1211.2,88.0019 1213.01,87.8684 1214.81,87.3975 1216.61,86.8303 1218.42,86.3522 1220.22,85.8224 1222.03,85.541 1223.83,85.2393 1225.64,85.4507 1227.44,84.7013 1229.25,84.1269 1231.05,83.5728 1232.86,83.0738 1234.66,82.6104 1236.47,82.0981 1238.27,81.6305 1240.08,82.3325 1241.88,82.2356 1243.69,82.2497 1245.49,81.8121 1247.29,81.5919 1249.1,81.8741 1250.9,81.6251 1252.71,81.4252 1254.51,81.3125 1256.32,81.2001 1258.12,80.5223 1259.93,80.1014 1261.73,79.9862 1263.54,79.5793 1265.34,79.2772 1267.15,79.1258 1268.95,78.9491 1270.76,78.8153 1272.56,78.3989 1274.36,77.9999 1276.17,78.3207 1277.97,78.0767 1279.78,77.9469 1281.58,77.5643 1283.39,76.9505 1285.19,77.0469 1287,76.5604 1288.8,76.711 1290.61,76.5722 1292.41,75.9525 1294.22,75.6792 1296.02,75.2975 1297.83,74.9843 1299.63,74.4111 1301.43,74.1288 1303.24,74.0778 1305.04,73.9961 1306.85,74.1623 1308.65,73.6298 1310.46,73.6464 1312.26,73.3968 1314.07,72.9069 1315.87,72.3885 1317.68,72.1826 1319.48,71.6578 1321.29,71.2088 1323.09,71.443 1324.9,71.4407 1326.7,71.2273 1328.5,71.6725 1330.31,71.681 1332.11,71.4576 1333.92,71.4883 1335.72,71.701 1337.53,71.4697 1339.33,71.4633 1341.14,71.393 1342.94,71.8452 1344.75,71.3558 1346.55,71.7743 1348.36,72.2534 1350.16,71.7608 1351.97,71.7325 1353.77,71.7217 1355.57,71.472 1357.38,71.2267 1359.18,70.9851 1360.99,70.7076 1362.79,70.933 1364.6,70.7179 1366.4,70.6687 1368.21,70.4376 1370.01,71.1148 1371.82,70.8833 1373.62,70.4333 1375.43,70.2422 1377.23,70.2009 1379.04,70.2419 1380.84,70.0144 1382.64,69.7771 1384.45,69.5848 1386.25,69.3913 1388.06,68.9667 1389.86,68.5506 1391.67,68.1132 1393.47,67.924 1395.28,68.2319 1397.08,67.814 1398.89,68.1498 1400.69,67.8085 1402.5,67.6245 1404.3,67.2242 1406.11,67.0512 1407.91,66.9139 1409.71,66.5735 1411.52,66.209 1413.32,65.8984 1415.13,65.7997 1416.93,65.6461 1418.74,65.309 1420.54,64.9238 1422.35,64.8142 1424.15,64.953 1425.96,65.0645 1427.76,64.7526 1429.57,64.4184 1431.37,64.5303 1433.18,64.4151 1434.98,64.0704 1436.78,63.7188 1438.59,63.8719 1440.39,64.0074 1442.2,64.4143 1444,64.3806 1445.81,64.206 1447.61,64.0903 1449.42,64.2362 1451.22,64.7915 1453.03,64.4751 1454.83,64.1249 1456.64,64.2389 1458.44,63.9003 1460.25,63.5526 1462.05,64.1553 1463.85,64.7481 1465.66,64.6074 1467.46,64.2702 1469.27,64.8805 1471.07,64.5118 1472.88,64.1908 1474.68,63.8148 1476.49,63.7727 1478.29,63.8459 1480.1,63.5138 1481.9,63.6736 1483.71,63.3569 1485.51,63.0341 1487.32,62.7063 1489.12,62.8302 1490.92,62.5271 1492.73,62.4776 1494.53,62.391 1496.34,62.3183 1498.14,61.9917 1499.95,62.1653 1501.75,62.1092 1503.56,62.267 1505.36,62.2094 1507.17,61.877 1508.97,62.0693 1510.78,62.2002 1512.58,61.9219 1514.39,61.8498 1516.19,61.6041 1517.99,61.8064 1519.8,61.5403 1521.6,61.4363 1523.41,61.397 1525.21,61.5947 1527.02,61.5691 1528.82,61.7962 1530.63,61.4982 1532.43,61.4824 1534.24,61.1928 1536.04,61.145 1537.85,61.6038 1539.65,61.3235 1541.46,61.3285 1543.26,60.9849 1545.06,60.9188 1546.87,61.1313 1548.67,61.3448 1550.48,61.2689 1552.28,60.9537 1554.09,60.96 1555.89,60.9358 1557.7,60.6729 1559.5,60.4594 1561.31,60.1771 1563.11,60.4013 1564.92,60.414 1566.72,60.1389 1568.53,59.8807 1570.33,60.0531 1572.14,59.8215 1573.94,59.6022 1575.74,59.6398 1577.55,59.3992 1579.35,59.1595 1581.16,58.9254 1582.96,58.7001 1584.77,58.4941 1586.57,58.462 1588.38,58.7145 1590.18,58.5066 1591.99,58.2908 1593.79,58.3136 1595.6,58.087 1597.4,58.0945 1599.21,58.1076 1601.01,58.0947 1602.81,57.914 1604.62,57.9025 1606.42,57.6898 1608.23,57.5138 1610.03,57.3201 1611.84,57.3573 1613.64,57.1774 1615.45,56.9839 1617.25,57.0276 1619.06,56.795 1620.86,56.6191 1622.67,56.4273 1624.47,56.2621 1626.28,56.5618 1628.08,56.3998 1629.88,56.4728 1631.69,56.4929 1633.49,56.5217 1635.3,56.3131 1637.1,56.1577 1638.91,55.9968 1640.71,55.8045 1642.52,55.8381 1644.32,55.7032 1646.13,55.5437 1647.93,55.3554 1649.74,55.1943 1651.54,55.0293 1653.35,55.3557 1655.15,55.425 1656.95,55.2389 1658.76,55.0497 1660.56,55.38 1662.37,55.4409 1664.17,55.2934 1665.98,55.3833 1667.78,55.1913 1669.59,55.0444 1671.39,54.8776 1673.2,54.9733 1675,54.8085 1676.81,54.667 1678.61,54.7166 1680.42,54.6053 1682.22,54.4938 1684.02,54.3713 1685.83,54.4602 1687.63,54.5376 1689.44,54.3916 1691.24,54.2342 1693.05,54.0744 1694.85,53.9331 1696.66,53.7671 1698.46,53.8534 1700.27,53.7358 1702.07,54.5053 1703.88,54.3674 1705.68,54.4675 1707.49,54.3662 1709.29,54.2479 1711.09,54.5922 1712.9,54.7066 1714.7,54.5399 1716.51,54.6223 1718.31,54.4967 1720.12,54.6063 1721.92,54.4744 1723.73,54.3347 1725.53,54.187 1727.34,54.3137 1729.14,54.1872 1730.95,54.0708 1732.75,54.1949 1734.56,54.0712 1736.36,53.9585 1738.16,53.878 1739.97,53.7141 1741.77,53.6052 1743.58,53.6997 1745.38,53.5703 1747.19,53.4239 1748.99,53.2609 1750.8,53.1505 1752.6,53.2483 1754.41,53.1532 1756.21,53.0578 1758.02,52.9502 1759.82,53.0864 1761.63,53.2151 1763.43,53.1016 1765.23,53.0039 1767.04,52.8882 1768.84,52.7757 1770.65,52.9315 1772.45,53.2996 1774.26,53.2305 1776.06,53.0996 1777.87,52.9582 1779.67,52.8398 1781.48,52.9905 1783.28,53.1317 1785.09,53.0264 1786.89,52.8619 1788.7,52.7786 1790.5,52.6662 1792.3,52.5608 1794.11,52.4596 1795.91,52.8056 1797.72,52.7392 1799.52,52.8947 1801.33,52.9989 1803.13,52.8934 1804.94,53.0308 1806.74,52.9134 1808.55,52.7943 1810.35,52.6745 1812.16,52.5635 1813.96,52.4749 1815.77,52.6087 1817.57,52.4522 1819.37,52.575 1821.18,52.4519 1822.98,52.5891 1824.79,52.9426 1826.59,52.8297 1828.4,52.7411 1830.2,52.6515 1832.01,52.569 1833.81,52.7284 1835.62,52.6237 1837.42,52.4935 1839.23,52.3813 1841.03,52.5014 1842.84,52.4049 1844.64,52.5528 1846.44,52.4502 1848.25,52.3369 1850.05,52.2069 1851.86,52.1018 1853.66,52.0202 1855.47,51.9184 1857.27,51.798 1859.08,51.9557 1860.88,51.8812 1862.69,51.794 1864.49,52.1591 1866.3,52.3034 1868.1,52.4547 1869.91,52.3408 1871.71,52.2789 1873.51,52.4188 1875.32,52.3266 1877.12,52.2217 1878.93,52.1485 1880.73,52.0659 1882.54,52.4656 1884.34,52.3563 1886.15,52.2244 1887.95,52.0955 1889.76,51.9816 1891.56,51.8927 1893.37,51.792 1895.17,51.9366 1896.98,51.8186 1898.78,51.7351 1900.59,51.66 1902.39,51.5526 1904.19,51.4289 1906,51.5962 1907.8,51.7412 1909.61,51.6129 1911.41,51.5119 1913.22,51.4548 1915.02,51.3714 1916.83,51.7705 1918.63,51.6955 1920.44,51.8549 1922.24,51.7777 1924.05,51.6775 1925.85,51.6005 1927.66,51.5264 1929.46,51.4464 1931.26,51.3745 1933.07,51.2975 1934.87,51.2091 1936.68,51.1437 1938.48,51.0572 1940.29,50.9616 1942.09,50.8814 1943.9,50.7785 1945.7,50.6972 1947.51,50.6312 1949.31,50.5669 1951.12,50.4985 1952.92,50.4538 1954.73,50.6253 1956.53,50.7872 1958.33,51.2016 1960.14,51.1357 1961.94,51.2781 1963.75,51.2289 1965.55,51.1348 1967.36,51.2853 1969.16,51.2224 1970.97,51.1567 1972.77,51.0823 1974.58,50.9954 1976.38,50.9069 1978.19,50.8326 1979.99,50.7581 1981.8,50.6726 1983.6,50.8571 1985.4,50.8167 1987.21,50.7557 1989.01,50.6869 1990.82,50.8686 1992.62,50.8019 1994.43,50.7285 1996.23,50.6751 1998.04,50.6112 1999.84,50.7763 2001.65,50.6857 2003.45,50.8558 2005.26,50.7629 2007.06,50.6989 2008.87,50.8638 2010.67,50.7901 "/>
</svg>
