<?xml version="1.0" encoding="utf-8"?>
<svg xmlns="http://www.w3.org/2000/svg" xmlns:xlink="http://www.w3.org/1999/xlink" width="528" height="336" viewBox="0 0 2112 1344">
<defs>
  <clipPath id="clip770">
    <rect x="0" y="0" width="2112" height="1344"/>
  </clipPath>
</defs>
<path clip-path="url(#clip770)" d="M0 1344 L2112 1344 L2112 0 L0 0  Z" fill="#ffffff" fill-rule="evenodd" fill-opacity="1"/>
<defs>
  <clipPath id="clip771">
    <rect x="422" y="0" width="1479" height="1344"/>
  </clipPath>
</defs>
<path clip-path="url(#clip770)" d="M153.718 1222.85 L2064.76 1222.85 L2064.76 47.2441 L153.718 47.2441  Z" fill="#ffffff" fill-rule="evenodd" fill-opacity="1"/>
<defs>
  <clipPath id="clip772">
    <rect x="153" y="47" width="1912" height="1177"/>
  </clipPath>
</defs>
<polyline clip-path="url(#clip772)" style="stroke:#000000; stroke-linecap:round; stroke-linejoin:round; stroke-width:2; stroke-opacity:0.1; fill:none" points="207.786,1222.85 207.786,47.2441 "/>
<polyline clip-path="url(#clip772)" style="stroke:#000000; stroke-linecap:round; stroke-linejoin:round; stroke-width:2; stroke-opacity:0.1; fill:none" points="658.954,1222.85 658.954,47.2441 "/>
<polyline clip-path="url(#clip772)" style="stroke:#000000; stroke-linecap:round; stroke-linejoin:round; stroke-width:2; stroke-opacity:0.1; fill:none" points="1110.12,1222.85 1110.12,47.2441 "/>
<polyline clip-path="url(#clip772)" style="stroke:#000000; stroke-linecap:round; stroke-linejoin:round; stroke-width:2; stroke-opacity:0.1; fill:none" points="1561.29,1222.85 1561.29,47.2441 "/>
<polyline clip-path="url(#clip772)" style="stroke:#000000; stroke-linecap:round; stroke-linejoin:round; stroke-width:2; stroke-opacity:0.1; fill:none" points="2012.46,1222.85 2012.46,47.2441 "/>
<polyline clip-path="url(#clip770)" style="stroke:#000000; stroke-linecap:round; stroke-linejoin:round; stroke-width:4; stroke-opacity:1; fill:none" points="153.718,1222.85 2064.76,1222.85 "/>
<polyline clip-path="url(#clip770)" style="stroke:#000000; stroke-linecap:round; stroke-linejoin:round; stroke-width:4; stroke-opacity:1; fill:none" points="207.786,1222.85 207.786,1203.96 "/>
<polyline clip-path="url(#clip770)" style="stroke:#000000; stroke-linecap:round; stroke-linejoin:round; stroke-width:4; stroke-opacity:1; fill:none" points="658.954,1222.85 658.954,1203.96 "/>
<polyline clip-path="url(#clip770)" style="stroke:#000000; stroke-linecap:round; stroke-linejoin:round; stroke-width:4; stroke-opacity:1; fill:none" points="1110.12,1222.85 1110.12,1203.96 "/>
<polyline clip-path="url(#clip770)" style="stroke:#000000; stroke-linecap:round; stroke-linejoin:round; stroke-width:4; stroke-opacity:1; fill:none" points="1561.29,1222.85 1561.29,1203.96 "/>
<polyline clip-path="url(#clip770)" style="stroke:#000000; stroke-linecap:round; stroke-linejoin:round; stroke-width:4; stroke-opacity:1; fill:none" points="2012.46,1222.85 2012.46,1203.96 "/>
<path clip-path="url(#clip770)" d="M207.786 1251.47 Q204.175 1251.47 202.346 1255.03 Q200.541 1258.58 200.541 1265.7 Q200.541 1272.81 202.346 1276.38 Q204.175 1279.92 207.786 1279.92 Q211.42 1279.92 213.226 1276.38 Q215.055 1272.81 215.055 1265.7 Q215.055 1258.58 213.226 1255.03 Q211.42 1251.47 207.786 1251.47 M207.786 1247.76 Q213.596 1247.76 216.652 1252.37 Q219.731 1256.95 219.731 1265.7 Q219.731 1274.43 216.652 1279.04 Q213.596 1283.62 207.786 1283.62 Q201.976 1283.62 198.897 1279.04 Q195.842 1274.43 195.842 1265.7 Q195.842 1256.95 198.897 1252.37 Q201.976 1247.76 207.786 1247.76 Z" fill="#000000" fill-rule="nonzero" fill-opacity="1" /><path clip-path="url(#clip770)" d="M554.857 1294.67 L571.176 1294.67 L571.176 1298.61 L549.232 1298.61 L549.232 1294.67 Q551.894 1291.92 556.477 1287.29 Q561.084 1282.64 562.264 1281.3 Q564.51 1278.77 565.389 1277.04 Q566.292 1275.28 566.292 1273.59 Q566.292 1270.83 564.348 1269.1 Q562.426 1267.36 559.325 1267.36 Q557.126 1267.36 554.672 1268.12 Q552.241 1268.89 549.464 1270.44 L549.464 1265.72 Q552.288 1264.58 554.741 1264 Q557.195 1263.42 559.232 1263.42 Q564.602 1263.42 567.797 1266.11 Q570.991 1268.8 570.991 1273.29 Q570.991 1275.42 570.181 1277.34 Q569.394 1279.24 567.288 1281.83 Q566.709 1282.5 563.607 1285.72 Q560.505 1288.91 554.857 1294.67 Z" fill="#000000" fill-rule="nonzero" fill-opacity="1" /><path clip-path="url(#clip770)" d="M580.991 1292.73 L585.875 1292.73 L585.875 1298.61 L580.991 1298.61 L580.991 1292.73 Z" fill="#000000" fill-rule="nonzero" fill-opacity="1" /><path clip-path="url(#clip770)" d="M596.107 1264.05 L614.463 1264.05 L614.463 1267.99 L600.389 1267.99 L600.389 1276.46 Q601.408 1276.11 602.426 1275.95 Q603.445 1275.76 604.463 1275.76 Q610.25 1275.76 613.63 1278.93 Q617.01 1282.11 617.01 1287.52 Q617.01 1293.1 613.537 1296.2 Q610.065 1299.28 603.746 1299.28 Q601.57 1299.28 599.301 1298.91 Q597.056 1298.54 594.649 1297.8 L594.649 1293.1 Q596.732 1294.23 598.954 1294.79 Q601.176 1295.35 603.653 1295.35 Q607.658 1295.35 609.996 1293.24 Q612.334 1291.13 612.334 1287.52 Q612.334 1283.91 609.996 1281.8 Q607.658 1279.7 603.653 1279.7 Q601.778 1279.7 599.903 1280.11 Q598.051 1280.53 596.107 1281.41 L596.107 1264.05 Z" fill="#000000" fill-rule="nonzero" fill-opacity="1" /><path clip-path="url(#clip770)" d="M636.222 1267.13 Q632.611 1267.13 630.783 1270.69 Q628.977 1274.24 628.977 1281.36 Q628.977 1288.47 630.783 1292.04 Q632.611 1295.58 636.222 1295.58 Q639.857 1295.58 641.662 1292.04 Q643.491 1288.47 643.491 1281.36 Q643.491 1274.24 641.662 1270.69 Q639.857 1267.13 636.222 1267.13 M636.222 1263.42 Q642.033 1263.42 645.088 1268.03 Q648.167 1272.61 648.167 1281.36 Q648.167 1290.09 645.088 1294.7 Q642.033 1299.28 636.222 1299.28 Q630.412 1299.28 627.334 1294.7 Q624.278 1290.09 624.278 1281.36 Q624.278 1272.61 627.334 1268.03 Q630.412 1263.42 636.222 1263.42 Z" fill="#000000" fill-rule="nonzero" fill-opacity="1" /><path clip-path="url(#clip770)" d="M684.555 1273.15 L673.977 1283.77 L684.555 1294.35 L681.801 1297.15 L671.176 1286.53 L660.551 1297.15 L657.82 1294.35 L668.375 1283.77 L657.82 1273.15 L660.551 1270.35 L671.176 1280.97 L681.801 1270.35 L684.555 1273.15 Z" fill="#000000" fill-rule="nonzero" fill-opacity="1" /><path clip-path="url(#clip770)" d="M696.917 1294.67 L704.555 1294.67 L704.555 1268.31 L696.245 1269.98 L696.245 1265.72 L704.509 1264.05 L709.185 1264.05 L709.185 1294.67 L716.824 1294.67 L716.824 1298.61 L696.917 1298.61 L696.917 1294.67 Z" fill="#000000" fill-rule="nonzero" fill-opacity="1" /><path clip-path="url(#clip770)" d="M736.268 1267.13 Q732.657 1267.13 730.828 1270.69 Q729.023 1274.24 729.023 1281.36 Q729.023 1288.47 730.828 1292.04 Q732.657 1295.58 736.268 1295.58 Q739.902 1295.58 741.708 1292.04 Q743.537 1288.47 743.537 1281.36 Q743.537 1274.24 741.708 1270.69 Q739.902 1267.13 736.268 1267.13 M736.268 1263.42 Q742.078 1263.42 745.134 1268.03 Q748.213 1272.61 748.213 1281.36 Q748.213 1290.09 745.134 1294.7 Q742.078 1299.28 736.268 1299.28 Q730.458 1299.28 727.379 1294.7 Q724.324 1290.09 724.324 1281.36 Q724.324 1272.61 727.379 1268.03 Q730.458 1263.42 736.268 1263.42 Z" fill="#000000" fill-rule="nonzero" fill-opacity="1" /><path clip-path="url(#clip770)" d="M760.889 1246.43 L751.297 1261.42 L760.889 1261.42 L760.889 1246.43 M759.892 1243.12 L764.669 1243.12 L764.669 1261.42 L768.675 1261.42 L768.675 1264.58 L764.669 1264.58 L764.669 1271.2 L760.889 1271.2 L760.889 1264.58 L748.213 1264.58 L748.213 1260.91 L759.892 1243.12 Z" fill="#000000" fill-rule="nonzero" fill-opacity="1" /><path clip-path="url(#clip770)" d="M1001.95 1264.05 L1020.31 1264.05 L1020.31 1267.99 L1006.23 1267.99 L1006.23 1276.46 Q1007.25 1276.11 1008.27 1275.95 Q1009.29 1275.76 1010.31 1275.76 Q1016.09 1275.76 1019.47 1278.93 Q1022.85 1282.11 1022.85 1287.52 Q1022.85 1293.1 1019.38 1296.2 Q1015.91 1299.28 1009.59 1299.28 Q1007.41 1299.28 1005.15 1298.91 Q1002.9 1298.54 1000.49 1297.8 L1000.49 1293.1 Q1002.58 1294.23 1004.8 1294.79 Q1007.02 1295.35 1009.5 1295.35 Q1013.5 1295.35 1015.84 1293.24 Q1018.18 1291.13 1018.18 1287.52 Q1018.18 1283.91 1015.84 1281.8 Q1013.5 1279.7 1009.5 1279.7 Q1007.62 1279.7 1005.75 1280.11 Q1003.9 1280.53 1001.95 1281.41 L1001.95 1264.05 Z" fill="#000000" fill-rule="nonzero" fill-opacity="1" /><path clip-path="url(#clip770)" d="M1032.07 1292.73 L1036.95 1292.73 L1036.95 1298.61 L1032.07 1298.61 L1032.07 1292.73 Z" fill="#000000" fill-rule="nonzero" fill-opacity="1" /><path clip-path="url(#clip770)" d="M1057.14 1267.13 Q1053.52 1267.13 1051.7 1270.69 Q1049.89 1274.24 1049.89 1281.36 Q1049.89 1288.47 1051.7 1292.04 Q1053.52 1295.58 1057.14 1295.58 Q1060.77 1295.58 1062.58 1292.04 Q1064.4 1288.47 1064.4 1281.36 Q1064.4 1274.24 1062.58 1270.69 Q1060.77 1267.13 1057.14 1267.13 M1057.14 1263.42 Q1062.95 1263.42 1066 1268.03 Q1069.08 1272.61 1069.08 1281.36 Q1069.08 1290.09 1066 1294.7 Q1062.95 1299.28 1057.14 1299.28 Q1051.33 1299.28 1048.25 1294.7 Q1045.19 1290.09 1045.19 1281.36 Q1045.19 1272.61 1048.25 1268.03 Q1051.33 1263.42 1057.14 1263.42 Z" fill="#000000" fill-rule="nonzero" fill-opacity="1" /><path clip-path="url(#clip770)" d="M1087.3 1267.13 Q1083.69 1267.13 1081.86 1270.69 Q1080.05 1274.24 1080.05 1281.36 Q1080.05 1288.47 1081.86 1292.04 Q1083.69 1295.58 1087.3 1295.58 Q1090.93 1295.58 1092.74 1292.04 Q1094.57 1288.47 1094.57 1281.36 Q1094.57 1274.24 1092.74 1270.69 Q1090.93 1267.13 1087.3 1267.13 M1087.3 1263.42 Q1093.11 1263.42 1096.16 1268.03 Q1099.24 1272.61 1099.24 1281.36 Q1099.24 1290.09 1096.16 1294.7 Q1093.11 1299.28 1087.3 1299.28 Q1081.49 1299.28 1078.41 1294.7 Q1075.35 1290.09 1075.35 1281.36 Q1075.35 1272.61 1078.41 1268.03 Q1081.49 1263.42 1087.3 1263.42 Z" fill="#000000" fill-rule="nonzero" fill-opacity="1" /><path clip-path="url(#clip770)" d="M1135.63 1273.15 L1125.05 1283.77 L1135.63 1294.35 L1132.88 1297.15 L1122.25 1286.53 L1111.63 1297.15 L1108.89 1294.35 L1119.45 1283.77 L1108.89 1273.15 L1111.63 1270.35 L1122.25 1280.97 L1132.88 1270.35 L1135.63 1273.15 Z" fill="#000000" fill-rule="nonzero" fill-opacity="1" /><path clip-path="url(#clip770)" d="M1147.99 1294.67 L1155.63 1294.67 L1155.63 1268.31 L1147.32 1269.98 L1147.32 1265.72 L1155.58 1264.05 L1160.26 1264.05 L1160.26 1294.67 L1167.9 1294.67 L1167.9 1298.61 L1147.99 1298.61 L1147.99 1294.67 Z" fill="#000000" fill-rule="nonzero" fill-opacity="1" /><path clip-path="url(#clip770)" d="M1187.34 1267.13 Q1183.73 1267.13 1181.9 1270.69 Q1180.1 1274.24 1180.1 1281.36 Q1180.1 1288.47 1181.9 1292.04 Q1183.73 1295.58 1187.34 1295.58 Q1190.98 1295.58 1192.78 1292.04 Q1194.61 1288.47 1194.61 1281.36 Q1194.61 1274.24 1192.78 1270.69 Q1190.98 1267.13 1187.34 1267.13 M1187.34 1263.42 Q1193.15 1263.42 1196.21 1268.03 Q1199.29 1272.61 1199.29 1281.36 Q1199.29 1290.09 1196.21 1294.7 Q1193.15 1299.28 1187.34 1299.28 Q1181.53 1299.28 1178.45 1294.7 Q1175.4 1290.09 1175.4 1281.36 Q1175.4 1272.61 1178.45 1268.03 Q1181.53 1263.42 1187.34 1263.42 Z" fill="#000000" fill-rule="nonzero" fill-opacity="1" /><path clip-path="url(#clip770)" d="M1211.96 1246.43 L1202.37 1261.42 L1211.96 1261.42 L1211.96 1246.43 M1210.97 1243.12 L1215.74 1243.12 L1215.74 1261.42 L1219.75 1261.42 L1219.75 1264.58 L1215.74 1264.58 L1215.74 1271.2 L1211.96 1271.2 L1211.96 1264.58 L1199.29 1264.58 L1199.29 1260.91 L1210.97 1243.12 Z" fill="#000000" fill-rule="nonzero" fill-opacity="1" /><path clip-path="url(#clip770)" d="M1451.78 1264.05 L1474 1264.05 L1474 1266.04 L1461.45 1298.61 L1456.57 1298.61 L1468.37 1267.99 L1451.78 1267.99 L1451.78 1264.05 Z" fill="#000000" fill-rule="nonzero" fill-opacity="1" /><path clip-path="url(#clip770)" d="M1483.12 1292.73 L1488 1292.73 L1488 1298.61 L1483.12 1298.61 L1483.12 1292.73 Z" fill="#000000" fill-rule="nonzero" fill-opacity="1" /><path clip-path="url(#clip770)" d="M1498.23 1264.05 L1516.59 1264.05 L1516.59 1267.99 L1502.52 1267.99 L1502.52 1276.46 Q1503.53 1276.11 1504.55 1275.95 Q1505.57 1275.76 1506.59 1275.76 Q1512.38 1275.76 1515.76 1278.93 Q1519.14 1282.11 1519.14 1287.52 Q1519.14 1293.1 1515.66 1296.2 Q1512.19 1299.28 1505.87 1299.28 Q1503.7 1299.28 1501.43 1298.91 Q1499.18 1298.54 1496.78 1297.8 L1496.78 1293.1 Q1498.86 1294.23 1501.08 1294.79 Q1503.3 1295.35 1505.78 1295.35 Q1509.78 1295.35 1512.12 1293.24 Q1514.46 1291.13 1514.46 1287.52 Q1514.46 1283.91 1512.12 1281.8 Q1509.78 1279.7 1505.78 1279.7 Q1503.91 1279.7 1502.03 1280.11 Q1500.18 1280.53 1498.23 1281.41 L1498.23 1264.05 Z" fill="#000000" fill-rule="nonzero" fill-opacity="1" /><path clip-path="url(#clip770)" d="M1538.35 1267.13 Q1534.74 1267.13 1532.91 1270.69 Q1531.1 1274.24 1531.1 1281.36 Q1531.1 1288.47 1532.91 1292.04 Q1534.74 1295.58 1538.35 1295.58 Q1541.98 1295.58 1543.79 1292.04 Q1545.62 1288.47 1545.62 1281.36 Q1545.62 1274.24 1543.79 1270.69 Q1541.98 1267.13 1538.35 1267.13 M1538.35 1263.42 Q1544.16 1263.42 1547.21 1268.03 Q1550.29 1272.61 1550.29 1281.36 Q1550.29 1290.09 1547.21 1294.7 Q1544.16 1299.28 1538.35 1299.28 Q1532.54 1299.28 1529.46 1294.7 Q1526.4 1290.09 1526.4 1281.36 Q1526.4 1272.61 1529.46 1268.03 Q1532.54 1263.42 1538.35 1263.42 Z" fill="#000000" fill-rule="nonzero" fill-opacity="1" /><path clip-path="url(#clip770)" d="M1586.68 1273.15 L1576.1 1283.77 L1586.68 1294.35 L1583.93 1297.15 L1573.3 1286.53 L1562.68 1297.15 L1559.95 1294.35 L1570.5 1283.77 L1559.95 1273.15 L1562.68 1270.35 L1573.3 1280.97 L1583.93 1270.35 L1586.68 1273.15 Z" fill="#000000" fill-rule="nonzero" fill-opacity="1" /><path clip-path="url(#clip770)" d="M1599.04 1294.67 L1606.68 1294.67 L1606.68 1268.31 L1598.37 1269.98 L1598.37 1265.72 L1606.64 1264.05 L1611.31 1264.05 L1611.31 1294.67 L1618.95 1294.67 L1618.95 1298.61 L1599.04 1298.61 L1599.04 1294.67 Z" fill="#000000" fill-rule="nonzero" fill-opacity="1" /><path clip-path="url(#clip770)" d="M1638.4 1267.13 Q1634.78 1267.13 1632.96 1270.69 Q1631.15 1274.24 1631.15 1281.36 Q1631.15 1288.47 1632.96 1292.04 Q1634.78 1295.58 1638.4 1295.58 Q1642.03 1295.58 1643.83 1292.04 Q1645.66 1288.47 1645.66 1281.36 Q1645.66 1274.24 1643.83 1270.69 Q1642.03 1267.13 1638.4 1267.13 M1638.4 1263.42 Q1644.21 1263.42 1647.26 1268.03 Q1650.34 1272.61 1650.34 1281.36 Q1650.34 1290.09 1647.26 1294.7 Q1644.21 1299.28 1638.4 1299.28 Q1632.58 1299.28 1629.51 1294.7 Q1626.45 1290.09 1626.45 1281.36 Q1626.45 1272.61 1629.51 1268.03 Q1632.58 1263.42 1638.4 1263.42 Z" fill="#000000" fill-rule="nonzero" fill-opacity="1" /><path clip-path="url(#clip770)" d="M1663.02 1246.43 L1653.42 1261.42 L1663.02 1261.42 L1663.02 1246.43 M1662.02 1243.12 L1666.8 1243.12 L1666.8 1261.42 L1670.8 1261.42 L1670.8 1264.58 L1666.8 1264.58 L1666.8 1271.2 L1663.02 1271.2 L1663.02 1264.58 L1650.34 1264.58 L1650.34 1260.91 L1662.02 1243.12 Z" fill="#000000" fill-rule="nonzero" fill-opacity="1" /><path clip-path="url(#clip770)" d="M1905.42 1294.67 L1913.06 1294.67 L1913.06 1268.31 L1904.75 1269.98 L1904.75 1265.72 L1913.01 1264.05 L1917.69 1264.05 L1917.69 1294.67 L1925.33 1294.67 L1925.33 1298.61 L1905.42 1298.61 L1905.42 1294.67 Z" fill="#000000" fill-rule="nonzero" fill-opacity="1" /><path clip-path="url(#clip770)" d="M1934.77 1292.73 L1939.66 1292.73 L1939.66 1298.61 L1934.77 1298.61 L1934.77 1292.73 Z" fill="#000000" fill-rule="nonzero" fill-opacity="1" /><path clip-path="url(#clip770)" d="M1959.84 1267.13 Q1956.23 1267.13 1954.4 1270.69 Q1952.6 1274.24 1952.6 1281.36 Q1952.6 1288.47 1954.4 1292.04 Q1956.23 1295.58 1959.84 1295.58 Q1963.48 1295.58 1965.28 1292.04 Q1967.11 1288.47 1967.11 1281.36 Q1967.11 1274.24 1965.28 1270.69 Q1963.48 1267.13 1959.84 1267.13 M1959.84 1263.42 Q1965.65 1263.42 1968.71 1268.03 Q1971.79 1272.61 1971.79 1281.36 Q1971.79 1290.09 1968.71 1294.7 Q1965.65 1299.28 1959.84 1299.28 Q1954.03 1299.28 1950.95 1294.7 Q1947.9 1290.09 1947.9 1281.36 Q1947.9 1272.61 1950.95 1268.03 Q1954.03 1263.42 1959.84 1263.42 Z" fill="#000000" fill-rule="nonzero" fill-opacity="1" /><path clip-path="url(#clip770)" d="M1990 1267.13 Q1986.39 1267.13 1984.56 1270.69 Q1982.76 1274.24 1982.76 1281.36 Q1982.76 1288.47 1984.56 1292.04 Q1986.39 1295.58 1990 1295.58 Q1993.64 1295.58 1995.44 1292.04 Q1997.27 1288.47 1997.27 1281.36 Q1997.27 1274.24 1995.44 1270.69 Q1993.64 1267.13 1990 1267.13 M1990 1263.42 Q1995.81 1263.42 1998.87 1268.03 Q2001.95 1272.61 2001.95 1281.36 Q2001.95 1290.09 1998.87 1294.7 Q1995.81 1299.28 1990 1299.28 Q1984.19 1299.28 1981.12 1294.7 Q1978.06 1290.09 1978.06 1281.36 Q1978.06 1272.61 1981.12 1268.03 Q1984.19 1263.42 1990 1263.42 Z" fill="#000000" fill-rule="nonzero" fill-opacity="1" /><path clip-path="url(#clip770)" d="M2038.34 1273.15 L2027.76 1283.77 L2038.34 1294.35 L2035.58 1297.15 L2024.96 1286.53 L2014.33 1297.15 L2011.6 1294.35 L2022.16 1283.77 L2011.6 1273.15 L2014.33 1270.35 L2024.96 1280.97 L2035.58 1270.35 L2038.34 1273.15 Z" fill="#000000" fill-rule="nonzero" fill-opacity="1" /><path clip-path="url(#clip770)" d="M2050.7 1294.67 L2058.34 1294.67 L2058.34 1268.31 L2050.03 1269.98 L2050.03 1265.72 L2058.29 1264.05 L2062.97 1264.05 L2062.97 1294.67 L2070.61 1294.67 L2070.61 1298.61 L2050.7 1298.61 L2050.7 1294.67 Z" fill="#000000" fill-rule="nonzero" fill-opacity="1" /><path clip-path="url(#clip770)" d="M2090.05 1267.13 Q2086.44 1267.13 2084.61 1270.69 Q2082.8 1274.24 2082.8 1281.36 Q2082.8 1288.47 2084.61 1292.04 Q2086.44 1295.58 2090.05 1295.58 Q2093.68 1295.58 2095.49 1292.04 Q2097.32 1288.47 2097.32 1281.36 Q2097.32 1274.24 2095.49 1270.69 Q2093.68 1267.13 2090.05 1267.13 M2090.05 1263.42 Q2095.86 1263.42 2098.92 1268.03 Q2101.99 1272.61 2101.99 1281.36 Q2101.99 1290.09 2098.92 1294.7 Q2095.86 1299.28 2090.05 1299.28 Q2084.24 1299.28 2081.16 1294.7 Q2078.11 1290.09 2078.11 1281.36 Q2078.11 1272.61 2081.16 1268.03 Q2084.24 1263.42 2090.05 1263.42 Z" fill="#000000" fill-rule="nonzero" fill-opacity="1" /><path clip-path="url(#clip770)" d="M2103.18 1243.12 L2118.09 1243.12 L2118.09 1246.32 L2106.66 1246.32 L2106.66 1253.2 Q2107.49 1252.92 2108.31 1252.79 Q2109.14 1252.64 2109.97 1252.64 Q2114.67 1252.64 2117.42 1255.21 Q2120.16 1257.79 2120.16 1262.19 Q2120.16 1266.72 2117.34 1269.24 Q2114.52 1271.74 2109.39 1271.74 Q2107.62 1271.74 2105.77 1271.44 Q2103.95 1271.14 2101.99 1270.54 L2101.99 1266.72 Q2103.69 1267.64 2105.49 1268.1 Q2107.3 1268.55 2109.31 1268.55 Q2112.56 1268.55 2114.46 1266.84 Q2116.36 1265.12 2116.36 1262.19 Q2116.36 1259.26 2114.46 1257.55 Q2112.56 1255.83 2109.31 1255.83 Q2107.79 1255.83 2106.26 1256.17 Q2104.76 1256.51 2103.18 1257.23 L2103.18 1243.12 Z" fill="#000000" fill-rule="nonzero" fill-opacity="1" /><polyline clip-path="url(#clip772)" style="stroke:#000000; stroke-linecap:round; stroke-linejoin:round; stroke-width:2; stroke-opacity:0.1; fill:none" points="153.718,1222.85 2064.76,1222.85 "/>
<polyline clip-path="url(#clip772)" style="stroke:#000000; stroke-linecap:round; stroke-linejoin:round; stroke-width:2; stroke-opacity:0.1; fill:none" points="153.718,987.732 2064.76,987.732 "/>
<polyline clip-path="url(#clip772)" style="stroke:#000000; stroke-linecap:round; stroke-linejoin:round; stroke-width:2; stroke-opacity:0.1; fill:none" points="153.718,752.61 2064.76,752.61 "/>
<polyline clip-path="url(#clip772)" style="stroke:#000000; stroke-linecap:round; stroke-linejoin:round; stroke-width:2; stroke-opacity:0.1; fill:none" points="153.718,517.488 2064.76,517.488 "/>
<polyline clip-path="url(#clip772)" style="stroke:#000000; stroke-linecap:round; stroke-linejoin:round; stroke-width:2; stroke-opacity:0.1; fill:none" points="153.718,282.366 2064.76,282.366 "/>
<polyline clip-path="url(#clip772)" style="stroke:#000000; stroke-linecap:round; stroke-linejoin:round; stroke-width:2; stroke-opacity:0.1; fill:none" points="153.718,47.2441 2064.76,47.2441 "/>
<polyline clip-path="url(#clip770)" style="stroke:#000000; stroke-linecap:round; stroke-linejoin:round; stroke-width:4; stroke-opacity:1; fill:none" points="153.718,1222.85 153.718,47.2441 "/>
<polyline clip-path="url(#clip770)" style="stroke:#000000; stroke-linecap:round; stroke-linejoin:round; stroke-width:4; stroke-opacity:1; fill:none" points="153.718,1222.85 172.616,1222.85 "/>
<polyline clip-path="url(#clip770)" style="stroke:#000000; stroke-linecap:round; stroke-linejoin:round; stroke-width:4; stroke-opacity:1; fill:none" points="153.718,987.732 172.616,987.732 "/>
<polyline clip-path="url(#clip770)" style="stroke:#000000; stroke-linecap:round; stroke-linejoin:round; stroke-width:4; stroke-opacity:1; fill:none" points="153.718,752.61 172.616,752.61 "/>
<polyline clip-path="url(#clip770)" style="stroke:#000000; stroke-linecap:round; stroke-linejoin:round; stroke-width:4; stroke-opacity:1; fill:none" points="153.718,517.488 172.616,517.488 "/>
<polyline clip-path="url(#clip770)" style="stroke:#000000; stroke-linecap:round; stroke-linejoin:round; stroke-width:4; stroke-opacity:1; fill:none" points="153.718,282.366 172.616,282.366 "/>
<polyline clip-path="url(#clip770)" style="stroke:#000000; stroke-linecap:round; stroke-linejoin:round; stroke-width:4; stroke-opacity:1; fill:none" points="153.718,47.2441 172.616,47.2441 "/>
<path clip-path="url(#clip770)" d="M64.8626 1208.65 Q61.2515 1208.65 59.4228 1212.22 Q57.6173 1215.76 57.6173 1222.89 Q57.6173 1230 59.4228 1233.56 Q61.2515 1237.1 64.8626 1237.1 Q68.4969 1237.1 70.3024 1233.56 Q72.1311 1230 72.1311 1222.89 Q72.1311 1215.76 70.3024 1212.22 Q68.4969 1208.65 64.8626 1208.65 M64.8626 1204.95 Q70.6728 1204.95 73.7283 1209.56 Q76.807 1214.14 76.807 1222.89 Q76.807 1231.62 73.7283 1236.22 Q70.6728 1240.81 64.8626 1240.81 Q59.0525 1240.81 55.9738 1236.22 Q52.9182 1231.62 52.9182 1222.89 Q52.9182 1214.14 55.9738 1209.56 Q59.0525 1204.95 64.8626 1204.95 Z" fill="#000000" fill-rule="nonzero" fill-opacity="1" /><path clip-path="url(#clip770)" d="M85.0245 1234.25 L89.9088 1234.25 L89.9088 1240.13 L85.0245 1240.13 L85.0245 1234.25 Z" fill="#000000" fill-rule="nonzero" fill-opacity="1" /><path clip-path="url(#clip770)" d="M110.094 1208.65 Q106.483 1208.65 104.654 1212.22 Q102.849 1215.76 102.849 1222.89 Q102.849 1230 104.654 1233.56 Q106.483 1237.1 110.094 1237.1 Q113.728 1237.1 115.534 1233.56 Q117.362 1230 117.362 1222.89 Q117.362 1215.76 115.534 1212.22 Q113.728 1208.65 110.094 1208.65 M110.094 1204.95 Q115.904 1204.95 118.96 1209.56 Q122.038 1214.14 122.038 1222.89 Q122.038 1231.62 118.96 1236.22 Q115.904 1240.81 110.094 1240.81 Q104.284 1240.81 101.205 1236.22 Q98.1495 1231.62 98.1495 1222.89 Q98.1495 1214.14 101.205 1209.56 Q104.284 1204.95 110.094 1204.95 Z" fill="#000000" fill-rule="nonzero" fill-opacity="1" /><path clip-path="url(#clip770)" d="M66.4598 973.531 Q62.8487 973.531 61.02 977.095 Q59.2145 980.637 59.2145 987.767 Q59.2145 994.873 61.02 998.438 Q62.8487 1001.98 66.4598 1001.98 Q70.0941 1001.98 71.8996 998.438 Q73.7283 994.873 73.7283 987.767 Q73.7283 980.637 71.8996 977.095 Q70.0941 973.531 66.4598 973.531 M66.4598 969.827 Q72.27 969.827 75.3255 974.433 Q78.4042 979.017 78.4042 987.767 Q78.4042 996.493 75.3255 1001.1 Q72.27 1005.68 66.4598 1005.68 Q60.6497 1005.68 57.571 1001.1 Q54.5154 996.493 54.5154 987.767 Q54.5154 979.017 57.571 974.433 Q60.6497 969.827 66.4598 969.827 Z" fill="#000000" fill-rule="nonzero" fill-opacity="1" /><path clip-path="url(#clip770)" d="M86.6218 999.132 L91.506 999.132 L91.506 1005.01 L86.6218 1005.01 L86.6218 999.132 Z" fill="#000000" fill-rule="nonzero" fill-opacity="1" /><path clip-path="url(#clip770)" d="M105.719 1001.08 L122.038 1001.08 L122.038 1005.01 L100.094 1005.01 L100.094 1001.08 Q102.756 998.322 107.339 993.693 Q111.946 989.04 113.126 987.697 Q115.372 985.174 116.251 983.438 Q117.154 981.679 117.154 979.989 Q117.154 977.234 115.21 975.498 Q113.288 973.762 110.186 973.762 Q107.987 973.762 105.534 974.526 Q103.103 975.29 100.325 976.841 L100.325 972.119 Q103.149 970.984 105.603 970.406 Q108.057 969.827 110.094 969.827 Q115.464 969.827 118.659 972.512 Q121.853 975.197 121.853 979.688 Q121.853 981.818 121.043 983.739 Q120.256 985.637 118.149 988.23 Q117.571 988.901 114.469 992.118 Q111.367 995.313 105.719 1001.08 Z" fill="#000000" fill-rule="nonzero" fill-opacity="1" /><path clip-path="url(#clip770)" d="M64.3765 738.409 Q60.7654 738.409 58.9367 741.973 Q57.1312 745.515 57.1312 752.645 Q57.1312 759.751 58.9367 763.316 Q60.7654 766.858 64.3765 766.858 Q68.0107 766.858 69.8163 763.316 Q71.645 759.751 71.645 752.645 Q71.645 745.515 69.8163 741.973 Q68.0107 738.409 64.3765 738.409 M64.3765 734.705 Q70.1867 734.705 73.2422 739.311 Q76.3209 743.895 76.3209 752.645 Q76.3209 761.372 73.2422 765.978 Q70.1867 770.561 64.3765 770.561 Q58.5664 770.561 55.4877 765.978 Q52.4321 761.372 52.4321 752.645 Q52.4321 743.895 55.4877 739.311 Q58.5664 734.705 64.3765 734.705 Z" fill="#000000" fill-rule="nonzero" fill-opacity="1" /><path clip-path="url(#clip770)" d="M84.5384 764.01 L89.4227 764.01 L89.4227 769.89 L84.5384 769.89 L84.5384 764.01 Z" fill="#000000" fill-rule="nonzero" fill-opacity="1" /><path clip-path="url(#clip770)" d="M112.455 739.404 L100.649 757.853 L112.455 757.853 L112.455 739.404 M111.228 735.33 L117.108 735.33 L117.108 757.853 L122.038 757.853 L122.038 761.742 L117.108 761.742 L117.108 769.89 L112.455 769.89 L112.455 761.742 L96.8532 761.742 L96.8532 757.228 L111.228 735.33 Z" fill="#000000" fill-rule="nonzero" fill-opacity="1" /><path clip-path="url(#clip770)" d="M64.7006 503.287 Q61.0895 503.287 59.2608 506.852 Q57.4552 510.393 57.4552 517.523 Q57.4552 524.629 59.2608 528.194 Q61.0895 531.736 64.7006 531.736 Q68.3348 531.736 70.1404 528.194 Q71.9691 524.629 71.9691 517.523 Q71.9691 510.393 70.1404 506.852 Q68.3348 503.287 64.7006 503.287 M64.7006 499.583 Q70.5107 499.583 73.5663 504.189 Q76.645 508.773 76.645 517.523 Q76.645 526.25 73.5663 530.856 Q70.5107 535.439 64.7006 535.439 Q58.8904 535.439 55.8117 530.856 Q52.7562 526.25 52.7562 517.523 Q52.7562 508.773 55.8117 504.189 Q58.8904 499.583 64.7006 499.583 Z" fill="#000000" fill-rule="nonzero" fill-opacity="1" /><path clip-path="url(#clip770)" d="M84.8625 528.888 L89.7467 528.888 L89.7467 534.768 L84.8625 534.768 L84.8625 528.888 Z" fill="#000000" fill-rule="nonzero" fill-opacity="1" /><path clip-path="url(#clip770)" d="M110.511 515.625 Q107.362 515.625 105.511 517.777 Q103.682 519.93 103.682 523.68 Q103.682 527.407 105.511 529.583 Q107.362 531.736 110.511 531.736 Q113.659 531.736 115.487 529.583 Q117.339 527.407 117.339 523.68 Q117.339 519.93 115.487 517.777 Q113.659 515.625 110.511 515.625 M119.793 500.972 L119.793 505.231 Q118.034 504.398 116.228 503.958 Q114.446 503.518 112.686 503.518 Q108.057 503.518 105.603 506.643 Q103.173 509.768 102.825 516.088 Q104.191 514.074 106.251 513.009 Q108.311 511.921 110.788 511.921 Q115.997 511.921 119.006 515.092 Q122.038 518.24 122.038 523.68 Q122.038 529.004 118.89 532.222 Q115.742 535.439 110.511 535.439 Q104.515 535.439 101.344 530.856 Q98.1726 526.25 98.1726 517.523 Q98.1726 509.328 102.061 504.467 Q105.95 499.583 112.501 499.583 Q114.26 499.583 116.043 499.93 Q117.848 500.277 119.793 500.972 Z" fill="#000000" fill-rule="nonzero" fill-opacity="1" /><path clip-path="url(#clip770)" d="M64.9552 268.165 Q61.3441 268.165 59.5154 271.73 Q57.7099 275.271 57.7099 282.401 Q57.7099 289.507 59.5154 293.072 Q61.3441 296.614 64.9552 296.614 Q68.5894 296.614 70.395 293.072 Q72.2237 289.507 72.2237 282.401 Q72.2237 275.271 70.395 271.73 Q68.5894 268.165 64.9552 268.165 M64.9552 264.461 Q70.7654 264.461 73.8209 269.068 Q76.8996 273.651 76.8996 282.401 Q76.8996 291.128 73.8209 295.734 Q70.7654 300.317 64.9552 300.317 Q59.1451 300.317 56.0664 295.734 Q53.0108 291.128 53.0108 282.401 Q53.0108 273.651 56.0664 269.068 Q59.1451 264.461 64.9552 264.461 Z" fill="#000000" fill-rule="nonzero" fill-opacity="1" /><path clip-path="url(#clip770)" d="M85.1171 293.766 L90.0014 293.766 L90.0014 299.646 L85.1171 299.646 L85.1171 293.766 Z" fill="#000000" fill-rule="nonzero" fill-opacity="1" /><path clip-path="url(#clip770)" d="M110.186 283.234 Q106.853 283.234 104.932 285.017 Q103.034 286.799 103.034 289.924 Q103.034 293.049 104.932 294.831 Q106.853 296.614 110.186 296.614 Q113.52 296.614 115.441 294.831 Q117.362 293.026 117.362 289.924 Q117.362 286.799 115.441 285.017 Q113.543 283.234 110.186 283.234 M105.511 281.243 Q102.501 280.503 100.811 278.442 Q99.1448 276.382 99.1448 273.419 Q99.1448 269.276 102.085 266.868 Q105.048 264.461 110.186 264.461 Q115.348 264.461 118.288 266.868 Q121.228 269.276 121.228 273.419 Q121.228 276.382 119.538 278.442 Q117.872 280.503 114.885 281.243 Q118.265 282.03 120.14 284.322 Q122.038 286.614 122.038 289.924 Q122.038 294.947 118.96 297.632 Q115.904 300.317 110.186 300.317 Q104.469 300.317 101.39 297.632 Q98.3347 294.947 98.3347 289.924 Q98.3347 286.614 100.233 284.322 Q102.131 282.03 105.511 281.243 M103.798 273.859 Q103.798 276.544 105.464 278.049 Q107.154 279.554 110.186 279.554 Q113.196 279.554 114.885 278.049 Q116.598 276.544 116.598 273.859 Q116.598 271.174 114.885 269.669 Q113.196 268.165 110.186 268.165 Q107.154 268.165 105.464 269.669 Q103.798 271.174 103.798 273.859 Z" fill="#000000" fill-rule="nonzero" fill-opacity="1" /><path clip-path="url(#clip770)" d="M55.6728 60.5889 L63.3117 60.5889 L63.3117 34.2233 L55.0016 35.89 L55.0016 31.6308 L63.2654 29.9641 L67.9413 29.9641 L67.9413 60.5889 L75.5802 60.5889 L75.5802 64.5241 L55.6728 64.5241 L55.6728 60.5889 Z" fill="#000000" fill-rule="nonzero" fill-opacity="1" /><path clip-path="url(#clip770)" d="M85.0245 58.6445 L89.9088 58.6445 L89.9088 64.5241 L85.0245 64.5241 L85.0245 58.6445 Z" fill="#000000" fill-rule="nonzero" fill-opacity="1" /><path clip-path="url(#clip770)" d="M110.094 33.0428 Q106.483 33.0428 104.654 36.6076 Q102.849 40.1492 102.849 47.2788 Q102.849 54.3853 104.654 57.9501 Q106.483 61.4917 110.094 61.4917 Q113.728 61.4917 115.534 57.9501 Q117.362 54.3853 117.362 47.2788 Q117.362 40.1492 115.534 36.6076 Q113.728 33.0428 110.094 33.0428 M110.094 29.3391 Q115.904 29.3391 118.96 33.9456 Q122.038 38.5289 122.038 47.2788 Q122.038 56.0056 118.96 60.6121 Q115.904 65.1954 110.094 65.1954 Q104.284 65.1954 101.205 60.6121 Q98.1495 56.0056 98.1495 47.2788 Q98.1495 38.5289 101.205 33.9456 Q104.284 29.3391 110.094 29.3391 Z" fill="#000000" fill-rule="nonzero" fill-opacity="1" /><polyline clip-path="url(#clip772)" style="stroke:#009af9; stroke-linecap:round; stroke-linejoin:round; stroke-width:4; stroke-opacity:1; fill:none" points="207.804,1105.3 209.609,1105.65 211.414,1105.53 213.218,1104.82 215.023,1104.93 216.828,1104.58 218.632,1104.01 220.437,1103.33 222.242,1103.02 224.046,1102.92 225.851,1102.59 227.656,1102.38 229.46,1101.48 231.265,1101.04 233.07,1100.73 234.874,1100.76 236.679,1100.25 238.484,1099.58 240.288,1099.41 242.093,1099.03 243.898,1099.11 245.702,1098.69 247.507,1098.28 249.312,1098.13 251.116,1097.95 252.921,1097.8 254.726,1097.42 256.53,1097.37 258.335,1097.13 260.14,1096.6 261.944,1096.01 263.749,1095.73 265.554,1095.45 267.358,1095.39 269.163,1095.28 270.968,1094.75 272.772,1094.36 274.577,1093.76 276.382,1093.74 278.186,1093.25 279.991,1092.67 281.796,1092.17 283.6,1091.73 285.405,1091.76 287.21,1091.1 289.014,1090.63 290.819,1090.07 292.624,1090.1 294.428,1090.19 296.233,1089.64 298.038,1089.24 299.842,1088.73 301.647,1089.37 303.452,1088.95 305.256,1087.72 307.061,1086.96 308.866,1087.01 310.67,1086.35 312.475,1086.41 314.28,1085.18 316.084,1085.22 317.889,1085.38 319.694,1085.21 321.498,1084.5 323.303,1083.98 325.108,1083.18 326.912,1082.67 328.717,1082.3 330.522,1080.74 332.326,1080.89 334.131,1079.84 335.936,1079.03 337.74,1078.64 339.545,1078.12 341.35,1077.43 343.154,1077.46 344.959,1076.39 346.764,1075.94 348.568,1076.54 350.373,1076.69 352.178,1076.63 353.983,1076.26 355.787,1076.2 357.592,1076.12 359.397,1074.98 361.201,1074.04 363.006,1073.43 364.811,1072.61 366.615,1072.2 368.42,1072.25 370.225,1072.26 372.029,1072.15 373.834,1071.24 375.639,1070.41 377.443,1069.95 379.248,1070.09 381.053,1069.85 382.857,1069.39 384.662,1068.36 386.467,1067.74 388.271,1067.67 390.076,1067.32 391.881,1067.28 393.685,1066.79 395.49,1066.57 397.295,1066.48 399.099,1065.56 400.904,1064.83 402.709,1064.42 404.513,1063.99 406.318,1062.82 408.123,1062.76 409.927,1062.39 411.732,1061.4 413.537,1060.56 415.341,1059.96 417.146,1059.63 418.951,1059.49 420.755,1059.18 422.56,1058.68 424.365,1058.45 426.169,1058.24 427.974,1057.53 429.779,1057.27 431.583,1057.49 433.388,1057.02 435.193,1057.19 436.997,1056.42 438.802,1056.22 440.607,1055.49 442.411,1054.15 444.216,1052.9 446.021,1053.02 447.825,1052.11 449.63,1052.75 451.435,1052.54 453.239,1052.37 455.044,1050.93 456.849,1050.48 458.653,1050.45 460.458,1050.44 462.263,1049.38 464.067,1048.61 465.872,1047.9 467.677,1047.83 469.481,1047.57 471.286,1047.4 473.091,1047.06 474.895,1047.19 476.7,1046.38 478.505,1045.74 480.309,1045.73 482.114,1045.7 483.919,1045.43 485.723,1045.65 487.528,1045.15 489.333,1043.99 491.137,1044.14 492.942,1044.08 494.747,1044.67 496.551,1044.02 498.356,1043.56 500.161,1042.52 501.965,1042.4 503.77,1041.14 505.575,1040.86 507.379,1041.07 509.184,1041.06 510.989,1040.6 512.794,1040.75 514.598,1039.64 516.403,1039.75 518.208,1039.61 520.012,1039.76 521.817,1039.38 523.622,1039.05 525.426,1039.4 527.231,1039.16 529.036,1038.82 530.84,1037.58 532.645,1035.72 534.45,1035.01 536.254,1034.79 538.059,1034.52 539.864,1033.42 541.668,1033.74 543.473,1032.75 545.278,1032.51 547.082,1032.66 548.887,1032.82 550.692,1033.36 552.496,1032.91 554.301,1032.2 556.106,1031.28 557.91,1030.81 559.715,1030.63 561.52,1030.68 563.324,1030.6 565.129,1030.05 566.934,1029.44 568.738,1028.61 570.543,1027.88 572.348,1028.4 574.152,1027.71 575.957,1026.91 577.762,1026.56 579.566,1025.6 581.371,1025.28 583.176,1024.71 584.98,1023.26 586.785,1022.07 588.59,1021.02 590.394,1019.78 592.199,1018.77 594.004,1018.45 595.808,1017.53 597.613,1017.5 599.418,1017.97 601.222,1017.45 603.027,1017.2 604.832,1016.91 606.636,1016.29 608.441,1014.72 610.246,1014.22 612.05,1013.99 613.855,1013.98 615.66,1013.23 617.464,1013.09 619.269,1012.15 621.074,1012.05 622.878,1011.2 624.683,1008.93 626.488,1008.52 628.292,1008.65 630.097,1008.94 631.902,1009.49 633.706,1008.42 635.511,1007.78 637.316,1006.74 639.12,1005.51 640.925,1005.45 642.73,1005.14 644.534,1005.08 646.339,1004.87 648.144,1005.11 649.948,1005.29 651.753,1004.69 653.558,1004.49 655.362,1004.41 657.167,1002.86 658.972,1002.34 660.776,1001.83 662.581,1001.29 664.386,999.891 666.19,998.636 667.995,998.716 669.8,998.508 671.604,997.305 673.409,996.929 675.214,995.851 677.019,995.767 678.823,994.933 680.628,994.862 682.433,994.179 684.237,993.959 686.042,993.262 687.847,993.933 689.651,993.592 691.456,993.668 693.261,992.7 695.065,992.383 696.87,991.488 698.675,991.642 700.479,991.63 702.284,992.283 704.089,992.145 705.893,991.37 707.698,991.79 709.503,991.555 711.307,989.969 713.112,990.136 714.917,990.002 716.721,989.059 718.526,988.304 720.331,987.486 722.135,987.013 723.94,985.943 725.745,985.065 727.549,984.394 729.354,984.044 731.159,984.109 732.963,982.848 734.768,982.264 736.573,980.958 738.377,981.025 740.182,980.611 741.987,979.087 743.791,977.97 745.596,978.745 747.401,978.626 749.205,978.094 751.01,977.56 752.815,977.046 754.619,976.944 756.424,977.263 758.229,977.578 760.033,977.803 761.838,977.123 763.643,976.706 765.447,976.885 767.252,976.916 769.057,976.087 770.861,974.956 772.666,974.738 774.471,973.785 776.275,972.494 778.08,972.154 779.885,972.016 781.689,971.71 783.494,971.201 785.299,969.957 787.103,968.507 788.908,968.019 790.713,967.407 792.517,966.332 794.322,964.783 796.127,963.556 797.931,964.013 799.736,963.543 801.541,963.387 803.345,962.786 805.15,963.096 806.955,962.226 808.759,961.422 810.564,960.024 812.369,959.803 814.173,959.896 815.978,960.158 817.783,959.499 819.587,958.964 821.392,957.848 823.197,957.669 825.001,957.048 826.806,956.579 828.611,956.419 830.415,955.747 832.22,955.304 834.025,954.506 835.83,953.33 837.634,952.545 839.439,952.049 841.244,950.317 843.048,948.679 844.853,948.468 846.658,948.452 848.462,947.446 850.267,946.637 852.072,946.013 853.876,946.018 855.681,945.113 857.486,943.573 859.29,942.944 861.095,942.519 862.9,942.693 864.704,942.65 866.509,942.409 868.314,942.251 870.118,941.73 871.923,941.571 873.728,941.488 875.532,940.943 877.337,941.079 879.142,940.466 880.946,939.456 882.751,938.846 884.556,937.215 886.36,935.889 888.165,935.457 889.97,934.203 891.774,934.023 893.579,933.796 895.384,933.661 897.188,932.967 898.993,931.659 900.798,931.604 902.602,930.549 904.407,929.929 906.212,928.982 908.016,928.467 909.821,928.235 911.626,927.729 913.43,927.478 915.235,927.13 917.04,925.79 918.844,924.972 920.649,924.006 922.454,923.076 924.258,922.879 926.063,921.552 927.868,920.825 929.672,920.809 931.477,919.885 933.282,919.202 935.086,919.405 936.891,918.099 938.696,917.522 940.5,916.92 942.305,916.888 944.11,916.871 945.914,916.714 947.719,914.828 949.524,914.257 951.328,912.502 953.133,911.53 954.938,911.166 956.742,909.938 958.547,909.222 960.352,908.732 962.156,907.892 963.961,906.861 965.766,906.341 967.57,905.679 969.375,905.172 971.18,904.679 972.984,904.354 974.789,903.186 976.594,902.807 978.398,901.955 980.203,900.563 982.008,900.633 983.812,899.405 985.617,898.401 987.422,897.889 989.226,897.452 991.031,896.157 992.836,894.538 994.64,894.715 996.445,893.764 998.25,893.106 1000.05,893.167 1001.86,892.519 1003.66,891.738 1005.47,889.994 1007.27,889.587 1009.08,888.309 1010.88,887.542 1012.69,886.861 1014.49,885.433 1016.3,884.354 1018.1,883.702 1019.91,883.36 1021.71,881.692 1023.52,880.702 1025.32,877.967 1027.12,877.678 1028.93,876.69 1030.73,876.609 1032.54,876.054 1034.34,875.542 1036.15,875.535 1037.95,875.184 1039.76,875.294 1041.56,875.225 1043.37,874.336 1045.17,872.88 1046.98,872.437 1048.78,872.152 1050.59,872.25 1052.39,871.842 1054.19,871.238 1056,872.036 1057.8,870.975 1059.61,869.288 1061.41,867.99 1063.22,867.425 1065.02,865.437 1066.83,864.433 1068.63,862.725 1070.44,862.581 1072.24,861.166 1074.05,860.264 1075.85,860.19 1077.66,860.725 1079.46,859.558 1081.26,858.906 1083.07,858.001 1084.87,857.182 1086.68,857.3 1088.48,855.864 1090.29,854.882 1092.09,853.698 1093.9,852.226 1095.7,851.362 1097.51,850.35 1099.31,849.336 1101.12,848.124 1102.92,847.56 1104.73,846.731 1106.53,844.753 1108.33,844.92 1110.14,842.951 1111.94,841.218 1113.75,840.486 1115.55,839.383 1117.36,838.405 1119.16,837.369 1120.97,836.877 1122.77,835.881 1124.58,834.267 1126.38,833.43 1128.19,832.808 1129.99,833.13 1131.8,831.554 1133.6,830.361 1135.4,828.273 1137.21,828.035 1139.01,827.169 1140.82,826.84 1142.62,825.594 1144.43,825.936 1146.23,825.526 1148.04,824.726 1149.84,823.874 1151.65,822.571 1153.45,821.805 1155.26,820.566 1157.06,820.039 1158.87,818.271 1160.67,817.198 1162.47,817.58 1164.28,817.652 1166.08,817.679 1167.89,816.751 1169.69,815.21 1171.5,814.258 1173.3,813.79 1175.11,813.421 1176.91,812.9 1178.72,811.378 1180.52,810.495 1182.33,809.759 1184.13,809.623 1185.94,808.554 1187.74,807.651 1189.54,806.628 1191.35,805.693 1193.15,804.719 1194.96,804.051 1196.76,803.679 1198.57,803.441 1200.37,801.527 1202.18,799.571 1203.98,798.135 1205.79,797.583 1207.59,797.584 1209.4,796.335 1211.2,794.478 1213.01,792.283 1214.81,791.644 1216.61,790.544 1218.42,790.025 1220.22,789.123 1222.03,788.55 1223.83,788.046 1225.64,787.529 1227.44,787.817 1229.25,786.832 1231.05,786.324 1232.86,784.887 1234.66,783.931 1236.47,784.085 1238.27,784.023 1240.08,782.603 1241.88,782.095 1243.69,781.095 1245.49,779.211 1247.29,777.338 1249.1,776.664 1250.9,775.81 1252.71,776.03 1254.51,775.715 1256.32,775.444 1258.12,776.23 1259.93,774.561 1261.73,773.788 1263.54,773.302 1265.34,772.015 1267.15,771.906 1268.95,770.772 1270.76,769.428 1272.56,768.829 1274.36,768.859 1276.17,767.484 1277.97,767.73 1279.78,766.434 1281.58,766.491 1283.39,764.883 1285.19,764.836 1287,764.892 1288.8,764.095 1290.61,763.861 1292.41,764.328 1294.22,763.736 1296.02,762.277 1297.83,761.072 1299.63,760.456 1301.43,759.607 1303.24,757.93 1305.04,757.653 1306.85,757.144 1308.65,755.336 1310.46,754.154 1312.26,753.181 1314.07,752.534 1315.87,751.852 1317.68,750.619 1319.48,749.534 1321.29,748.982 1323.09,749.285 1324.9,748.661 1326.7,748.268 1328.5,747.399 1330.31,746.773 1332.11,745.34 1333.92,743.812 1335.72,742.297 1337.53,740.433 1339.33,739.971 1341.14,739.548 1342.94,737.315 1344.75,736.047 1346.55,734.131 1348.36,732.822 1350.16,733.362 1351.97,731.865 1353.77,730.472 1355.57,730.128 1357.38,729.206 1359.18,728.135 1360.99,727.274 1362.79,726.489 1364.6,725.193 1366.4,723.646 1368.21,723.049 1370.01,722.014 1371.82,719.57 1373.62,718.649 1375.43,718.462 1377.23,717.605 1379.04,716.871 1380.84,715.746 1382.64,715.084 1384.45,713.895 1386.25,713.364 1388.06,712.047 1389.86,710.767 1391.67,709.327 1393.47,708.645 1395.28,708.51 1397.08,707.233 1398.89,706.516 1400.69,705.583 1402.5,705.473 1404.3,704.259 1406.11,703.904 1407.91,703.608 1409.71,702.479 1411.52,701.721 1413.32,700.855 1415.13,699.69 1416.93,698.008 1418.74,697.754 1420.54,696.847 1422.35,696.522 1424.15,695.147 1425.96,694.186 1427.76,693.57 1429.57,691.876 1431.37,690.181 1433.18,689.174 1434.98,689.404 1436.78,688.764 1438.59,687.912 1440.39,686.769 1442.2,685.886 1444,685.761 1445.81,685.107 1447.61,684.657 1449.42,684.405 1451.22,683.53 1453.03,682.505 1454.83,681.421 1456.64,680.136 1458.44,679.486 1460.25,677.971 1462.05,676.402 1463.85,675.215 1465.66,674.235 1467.46,673.216 1469.27,672.613 1471.07,670.26 1472.88,670.308 1474.68,669.198 1476.49,667.001 1478.29,665.201 1480.1,663.953 1481.9,662.546 1483.71,661.528 1485.51,660.078 1487.32,660.009 1489.12,659.624 1490.92,658.553 1492.73,658.348 1494.53,658.048 1496.34,657.126 1498.14,656.504 1499.95,655.737 1501.75,654.446 1503.56,653.818 1505.36,651.993 1507.17,650.802 1508.97,649.909 1510.78,648.447 1512.58,647.248 1514.39,647.58 1516.19,646.531 1517.99,645.311 1519.8,644.883 1521.6,643.232 1523.41,641.577 1525.21,640.101 1527.02,638.906 1528.82,638.619 1530.63,636.197 1532.43,635.289 1534.24,634.608 1536.04,633.88 1537.85,633.227 1539.65,632.772 1541.46,631.84 1543.26,629.55 1545.06,628.374 1546.87,628.139 1548.67,626.567 1550.48,626.145 1552.28,624.728 1554.09,624.964 1555.89,623.466 1557.7,622.662 1559.5,622.228 1561.31,621.073 1563.11,619.697 1564.92,619.171 1566.72,619.025 1568.53,618.138 1570.33,617.507 1572.14,616.438 1573.94,615.813 1575.74,614.083 1577.55,613.477 1579.35,612.666 1581.16,611.413 1582.96,611.819 1584.77,610.875 1586.57,609.194 1588.38,607.969 1590.18,607.44 1591.99,606.008 1593.79,604.886 1595.6,604.429 1597.4,604.025 1599.21,603.263 1601.01,603.088 1602.81,602.203 1604.62,601.301 1606.42,599.735 1608.23,597.952 1610.03,597.28 1611.84,595.538 1613.64,593.707 1615.45,592.381 1617.25,591.796 1619.06,591.043 1620.86,590.744 1622.67,589.834 1624.47,588.948 1626.28,588.408 1628.08,587.648 1629.88,585.939 1631.69,583.824 1633.49,582.613 1635.3,582.066 1637.1,581.326 1638.91,581.116 1640.71,580.228 1642.52,579.424 1644.32,578.807 1646.13,576.381 1647.93,573.789 1649.74,572.366 1651.54,571.705 1653.35,569.959 1655.15,568.478 1656.95,567.65 1658.76,566.595 1660.56,566.427 1662.37,564.834 1664.17,562.602 1665.98,562.407 1667.78,561.82 1669.59,560.163 1671.39,560.506 1673.2,559.483 1675,558.922 1676.81,558.908 1678.61,557.878 1680.42,556.73 1682.22,554.878 1684.02,553.737 1685.83,553.225 1687.63,551.793 1689.44,550.728 1691.24,549.839 1693.05,548.649 1694.85,548.131 1696.66,547.219 1698.46,546.724 1700.27,545.854 1702.07,544.81 1703.88,543.464 1705.68,542.926 1707.49,541.647 1709.29,540.759 1711.09,539.898 1712.9,537.491 1714.7,535.984 1716.51,535.332 1718.31,534.389 1720.12,532.607 1721.92,532.009 1723.73,531.021 1725.53,529.284 1727.34,528.252 1729.14,527.104 1730.95,526.086 1732.75,524.794 1734.56,524.435 1736.36,522.784 1738.16,522.12 1739.97,521.282 1741.77,521.147 1743.58,520.99 1745.38,520.601 1747.19,519.12 1748.99,517.528 1750.8,517.287 1752.6,515.339 1754.41,514.756 1756.21,514.949 1758.02,513.358 1759.82,512.449 1761.63,511.309 1763.43,510.682 1765.23,509.429 1767.04,509.345 1768.84,508.53 1770.65,507.146 1772.45,506.735 1774.26,505.872 1776.06,505.621 1777.87,504.934 1779.67,505.697 1781.48,505.047 1783.28,504.09 1785.09,503.227 1786.89,502.012 1788.7,500.861 1790.5,500.171 1792.3,499.886 1794.11,499.417 1795.91,498.268 1797.72,497.72 1799.52,496.816 1801.33,496.005 1803.13,495.1 1804.94,494.646 1806.74,493.134 1808.55,493.058 1810.35,492.181 1812.16,491.418 1813.96,490.1 1815.77,489.7 1817.57,488.278 1819.37,486.574 1821.18,485.427 1822.98,485.294 1824.79,483.471 1826.59,482.71 1828.4,481.293 1830.2,479.889 1832.01,480.197 1833.81,479.343 1835.62,477.873 1837.42,477.626 1839.23,475.702 1841.03,475.042 1842.84,474.351 1844.64,473.048 1846.44,472.438 1848.25,471.568 1850.05,471.189 1851.86,470.837 1853.66,470.326 1855.47,468.927 1857.27,468.538 1859.08,466.991 1860.88,466.155 1862.69,465.841 1864.49,464.852 1866.3,463.638 1868.1,461.784 1869.91,461.052 1871.71,459.694 1873.51,458.604 1875.32,457.008 1877.12,455.418 1878.93,454.543 1880.73,453.868 1882.54,453.111 1884.34,452.73 1886.15,452.004 1887.95,450.202 1889.76,449.187 1891.56,448.917 1893.37,448.313 1895.17,447.127 1896.98,446.058 1898.78,445.94 1900.59,444.983 1902.39,443.89 1904.19,442.501 1906,440.654 1907.8,439.166 1909.61,438.172 1911.41,437.544 1913.22,436.911 1915.02,436.688 1916.83,436.626 1918.63,435.115 1920.44,435.04 1922.24,434.343 1924.05,433.963 1925.85,432.689 1927.66,431.443 1929.46,430.326 1931.26,429.986 1933.07,429.798 1934.87,428.673 1936.68,427.61 1938.48,426.686 1940.29,424.994 1942.09,424.102 1943.9,422.699 1945.7,421.907 1947.51,421.243 1949.31,420.602 1951.12,419.902 1952.92,418.833 1954.73,418.295 1956.53,417.817 1958.33,416.829 1960.14,416.661 1961.94,416.555 1963.75,415.437 1965.55,414.613 1967.36,414.463 1969.16,414.246 1970.97,413.372 1972.77,412.905 1974.58,412.677 1976.38,411.512 1978.19,410.692 1979.99,408.999 1981.8,407.519 1983.6,406.716 1985.4,405.308 1987.21,405.003 1989.01,404.457 1990.82,404.406 1992.62,403.254 1994.43,402.813 1996.23,402.198 1998.04,401.956 1999.84,400.92 2001.65,400.311 2003.45,398.784 2005.26,398.761 2007.06,398.077 2008.87,397.303 2010.67,396.045 "/>
</svg>
