<?xml version="1.0" encoding="utf-8"?>
<svg xmlns="http://www.w3.org/2000/svg" xmlns:xlink="http://www.w3.org/1999/xlink" width="528" height="336" viewBox="0 0 2112 1344">
<defs>
  <clipPath id="clip830">
    <rect x="0" y="0" width="2112" height="1344"/>
  </clipPath>
</defs>
<path clip-path="url(#clip830)" d="M0 1344 L2112 1344 L2112 0 L0 0  Z" fill="#ffffff" fill-rule="evenodd" fill-opacity="1"/>
<defs>
  <clipPath id="clip831">
    <rect x="422" y="0" width="1479" height="1344"/>
  </clipPath>
</defs>
<path clip-path="url(#clip830)" d="M153.718 1222.85 L2064.76 1222.85 L2064.76 47.2441 L153.718 47.2441  Z" fill="#ffffff" fill-rule="evenodd" fill-opacity="1"/>
<defs>
  <clipPath id="clip832">
    <rect x="153" y="47" width="1912" height="1177"/>
  </clipPath>
</defs>
<polyline clip-path="url(#clip832)" style="stroke:#000000; stroke-linecap:round; stroke-linejoin:round; stroke-width:2; stroke-opacity:0.1; fill:none" points="207.786,1222.85 207.786,47.2441 "/>
<polyline clip-path="url(#clip832)" style="stroke:#000000; stroke-linecap:round; stroke-linejoin:round; stroke-width:2; stroke-opacity:0.1; fill:none" points="658.954,1222.85 658.954,47.2441 "/>
<polyline clip-path="url(#clip832)" style="stroke:#000000; stroke-linecap:round; stroke-linejoin:round; stroke-width:2; stroke-opacity:0.1; fill:none" points="1110.12,1222.85 1110.12,47.2441 "/>
<polyline clip-path="url(#clip832)" style="stroke:#000000; stroke-linecap:round; stroke-linejoin:round; stroke-width:2; stroke-opacity:0.1; fill:none" points="1561.29,1222.85 1561.29,47.2441 "/>
<polyline clip-path="url(#clip832)" style="stroke:#000000; stroke-linecap:round; stroke-linejoin:round; stroke-width:2; stroke-opacity:0.1; fill:none" points="2012.46,1222.85 2012.46,47.2441 "/>
<polyline clip-path="url(#clip830)" style="stroke:#000000; stroke-linecap:round; stroke-linejoin:round; stroke-width:4; stroke-opacity:1; fill:none" points="153.718,1222.85 2064.76,1222.85 "/>
<polyline clip-path="url(#clip830)" style="stroke:#000000; stroke-linecap:round; stroke-linejoin:round; stroke-width:4; stroke-opacity:1; fill:none" points="207.786,1222.85 207.786,1203.96 "/>
<polyline clip-path="url(#clip830)" style="stroke:#000000; stroke-linecap:round; stroke-linejoin:round; stroke-width:4; stroke-opacity:1; fill:none" points="658.954,1222.85 658.954,1203.96 "/>
<polyline clip-path="url(#clip830)" style="stroke:#000000; stroke-linecap:round; stroke-linejoin:round; stroke-width:4; stroke-opacity:1; fill:none" points="1110.12,1222.85 1110.12,1203.96 "/>
<polyline clip-path="url(#clip830)" style="stroke:#000000; stroke-linecap:round; stroke-linejoin:round; stroke-width:4; stroke-opacity:1; fill:none" points="1561.29,1222.85 1561.29,1203.96 "/>
<polyline clip-path="url(#clip830)" style="stroke:#000000; stroke-linecap:round; stroke-linejoin:round; stroke-width:4; stroke-opacity:1; fill:none" points="2012.46,1222.85 2012.46,1203.96 "/>
<path clip-path="url(#clip830)" d="M207.786 1251.47 Q204.175 1251.47 202.346 1255.03 Q200.541 1258.58 200.541 1265.7 Q200.541 1272.81 202.346 1276.38 Q204.175 1279.92 207.786 1279.92 Q211.42 1279.92 213.226 1276.38 Q215.055 1272.81 215.055 1265.7 Q215.055 1258.58 213.226 1255.03 Q211.42 1251.47 207.786 1251.47 M207.786 1247.76 Q213.596 1247.76 216.652 1252.37 Q219.731 1256.95 219.731 1265.7 Q219.731 1274.43 216.652 1279.04 Q213.596 1283.62 207.786 1283.62 Q201.976 1283.62 198.897 1279.04 Q195.842 1274.43 195.842 1265.7 Q195.842 1256.95 198.897 1252.37 Q201.976 1247.76 207.786 1247.76 Z" fill="#000000" fill-rule="nonzero" fill-opacity="1" /><path clip-path="url(#clip830)" d="M554.857 1294.67 L571.176 1294.67 L571.176 1298.61 L549.232 1298.61 L549.232 1294.67 Q551.894 1291.92 556.477 1287.29 Q561.084 1282.64 562.264 1281.3 Q564.51 1278.77 565.389 1277.04 Q566.292 1275.28 566.292 1273.59 Q566.292 1270.83 564.348 1269.1 Q562.426 1267.36 559.325 1267.36 Q557.126 1267.36 554.672 1268.12 Q552.241 1268.89 549.464 1270.44 L549.464 1265.72 Q552.288 1264.58 554.741 1264 Q557.195 1263.42 559.232 1263.42 Q564.602 1263.42 567.797 1266.11 Q570.991 1268.8 570.991 1273.29 Q570.991 1275.42 570.181 1277.34 Q569.394 1279.24 567.288 1281.83 Q566.709 1282.5 563.607 1285.72 Q560.505 1288.91 554.857 1294.67 Z" fill="#000000" fill-rule="nonzero" fill-opacity="1" /><path clip-path="url(#clip830)" d="M580.991 1292.73 L585.875 1292.73 L585.875 1298.61 L580.991 1298.61 L580.991 1292.73 Z" fill="#000000" fill-rule="nonzero" fill-opacity="1" /><path clip-path="url(#clip830)" d="M596.107 1264.05 L614.463 1264.05 L614.463 1267.99 L600.389 1267.99 L600.389 1276.46 Q601.408 1276.11 602.426 1275.95 Q603.445 1275.76 604.463 1275.76 Q610.25 1275.76 613.63 1278.93 Q617.01 1282.11 617.01 1287.52 Q617.01 1293.1 613.537 1296.2 Q610.065 1299.28 603.746 1299.28 Q601.57 1299.28 599.301 1298.91 Q597.056 1298.54 594.649 1297.8 L594.649 1293.1 Q596.732 1294.23 598.954 1294.79 Q601.176 1295.35 603.653 1295.35 Q607.658 1295.35 609.996 1293.24 Q612.334 1291.13 612.334 1287.52 Q612.334 1283.91 609.996 1281.8 Q607.658 1279.7 603.653 1279.7 Q601.778 1279.7 599.903 1280.11 Q598.051 1280.53 596.107 1281.41 L596.107 1264.05 Z" fill="#000000" fill-rule="nonzero" fill-opacity="1" /><path clip-path="url(#clip830)" d="M636.222 1267.13 Q632.611 1267.13 630.783 1270.69 Q628.977 1274.24 628.977 1281.36 Q628.977 1288.47 630.783 1292.04 Q632.611 1295.58 636.222 1295.58 Q639.857 1295.58 641.662 1292.04 Q643.491 1288.47 643.491 1281.36 Q643.491 1274.24 641.662 1270.69 Q639.857 1267.13 636.222 1267.13 M636.222 1263.42 Q642.033 1263.42 645.088 1268.03 Q648.167 1272.61 648.167 1281.36 Q648.167 1290.09 645.088 1294.7 Q642.033 1299.28 636.222 1299.28 Q630.412 1299.28 627.334 1294.7 Q624.278 1290.09 624.278 1281.36 Q624.278 1272.61 627.334 1268.03 Q630.412 1263.42 636.222 1263.42 Z" fill="#000000" fill-rule="nonzero" fill-opacity="1" /><path clip-path="url(#clip830)" d="M684.555 1273.15 L673.977 1283.77 L684.555 1294.35 L681.801 1297.15 L671.176 1286.53 L660.551 1297.15 L657.82 1294.35 L668.375 1283.77 L657.82 1273.15 L660.551 1270.35 L671.176 1280.97 L681.801 1270.35 L684.555 1273.15 Z" fill="#000000" fill-rule="nonzero" fill-opacity="1" /><path clip-path="url(#clip830)" d="M696.917 1294.67 L704.555 1294.67 L704.555 1268.31 L696.245 1269.98 L696.245 1265.72 L704.509 1264.05 L709.185 1264.05 L709.185 1294.67 L716.824 1294.67 L716.824 1298.61 L696.917 1298.61 L696.917 1294.67 Z" fill="#000000" fill-rule="nonzero" fill-opacity="1" /><path clip-path="url(#clip830)" d="M736.268 1267.13 Q732.657 1267.13 730.828 1270.69 Q729.023 1274.24 729.023 1281.36 Q729.023 1288.47 730.828 1292.04 Q732.657 1295.58 736.268 1295.58 Q739.902 1295.58 741.708 1292.04 Q743.537 1288.47 743.537 1281.36 Q743.537 1274.24 741.708 1270.69 Q739.902 1267.13 736.268 1267.13 M736.268 1263.42 Q742.078 1263.42 745.134 1268.03 Q748.213 1272.61 748.213 1281.36 Q748.213 1290.09 745.134 1294.7 Q742.078 1299.28 736.268 1299.28 Q730.458 1299.28 727.379 1294.7 Q724.324 1290.09 724.324 1281.36 Q724.324 1272.61 727.379 1268.03 Q730.458 1263.42 736.268 1263.42 Z" fill="#000000" fill-rule="nonzero" fill-opacity="1" /><path clip-path="url(#clip830)" d="M760.889 1246.43 L751.297 1261.42 L760.889 1261.42 L760.889 1246.43 M759.892 1243.12 L764.669 1243.12 L764.669 1261.42 L768.675 1261.42 L768.675 1264.58 L764.669 1264.58 L764.669 1271.2 L760.889 1271.2 L760.889 1264.58 L748.213 1264.58 L748.213 1260.91 L759.892 1243.12 Z" fill="#000000" fill-rule="nonzero" fill-opacity="1" /><path clip-path="url(#clip830)" d="M1001.95 1264.05 L1020.31 1264.05 L1020.31 1267.99 L1006.23 1267.99 L1006.23 1276.46 Q1007.25 1276.11 1008.27 1275.95 Q1009.29 1275.76 1010.31 1275.76 Q1016.09 1275.76 1019.47 1278.93 Q1022.85 1282.11 1022.85 1287.52 Q1022.85 1293.1 1019.38 1296.2 Q1015.91 1299.28 1009.59 1299.28 Q1007.41 1299.28 1005.15 1298.91 Q1002.9 1298.54 1000.49 1297.8 L1000.49 1293.1 Q1002.58 1294.23 1004.8 1294.79 Q1007.02 1295.35 1009.5 1295.35 Q1013.5 1295.35 1015.84 1293.24 Q1018.18 1291.13 1018.18 1287.52 Q1018.18 1283.91 1015.84 1281.8 Q1013.5 1279.7 1009.5 1279.7 Q1007.62 1279.7 1005.75 1280.11 Q1003.9 1280.53 1001.95 1281.41 L1001.95 1264.05 Z" fill="#000000" fill-rule="nonzero" fill-opacity="1" /><path clip-path="url(#clip830)" d="M1032.07 1292.73 L1036.95 1292.73 L1036.95 1298.61 L1032.07 1298.61 L1032.07 1292.73 Z" fill="#000000" fill-rule="nonzero" fill-opacity="1" /><path clip-path="url(#clip830)" d="M1057.14 1267.13 Q1053.52 1267.13 1051.7 1270.69 Q1049.89 1274.24 1049.89 1281.36 Q1049.89 1288.47 1051.7 1292.04 Q1053.52 1295.58 1057.14 1295.58 Q1060.77 1295.58 1062.58 1292.04 Q1064.4 1288.47 1064.4 1281.36 Q1064.4 1274.24 1062.58 1270.69 Q1060.77 1267.13 1057.14 1267.13 M1057.14 1263.42 Q1062.95 1263.42 1066 1268.03 Q1069.08 1272.61 1069.08 1281.36 Q1069.08 1290.09 1066 1294.7 Q1062.95 1299.28 1057.14 1299.28 Q1051.33 1299.28 1048.25 1294.7 Q1045.19 1290.09 1045.19 1281.36 Q1045.19 1272.61 1048.25 1268.03 Q1051.33 1263.42 1057.14 1263.42 Z" fill="#000000" fill-rule="nonzero" fill-opacity="1" /><path clip-path="url(#clip830)" d="M1087.3 1267.13 Q1083.69 1267.13 1081.86 1270.69 Q1080.05 1274.24 1080.05 1281.36 Q1080.05 1288.47 1081.86 1292.04 Q1083.69 1295.58 1087.3 1295.58 Q1090.93 1295.58 1092.74 1292.04 Q1094.57 1288.47 1094.57 1281.36 Q1094.57 1274.24 1092.74 1270.69 Q1090.93 1267.13 1087.3 1267.13 M1087.3 1263.42 Q1093.11 1263.42 1096.16 1268.03 Q1099.24 1272.61 1099.24 1281.36 Q1099.24 1290.09 1096.16 1294.7 Q1093.11 1299.28 1087.3 1299.28 Q1081.49 1299.28 1078.41 1294.7 Q1075.35 1290.09 1075.35 1281.36 Q1075.35 1272.61 1078.41 1268.03 Q1081.49 1263.42 1087.3 1263.42 Z" fill="#000000" fill-rule="nonzero" fill-opacity="1" /><path clip-path="url(#clip830)" d="M1135.63 1273.15 L1125.05 1283.77 L1135.63 1294.35 L1132.88 1297.15 L1122.25 1286.53 L1111.63 1297.15 L1108.89 1294.35 L1119.45 1283.77 L1108.89 1273.15 L1111.63 1270.35 L1122.25 1280.97 L1132.88 1270.35 L1135.63 1273.15 Z" fill="#000000" fill-rule="nonzero" fill-opacity="1" /><path clip-path="url(#clip830)" d="M1147.99 1294.67 L1155.63 1294.67 L1155.63 1268.31 L1147.32 1269.98 L1147.32 1265.72 L1155.58 1264.05 L1160.26 1264.05 L1160.26 1294.67 L1167.9 1294.67 L1167.9 1298.61 L1147.99 1298.61 L1147.99 1294.67 Z" fill="#000000" fill-rule="nonzero" fill-opacity="1" /><path clip-path="url(#clip830)" d="M1187.34 1267.13 Q1183.73 1267.13 1181.9 1270.69 Q1180.1 1274.24 1180.1 1281.36 Q1180.1 1288.47 1181.9 1292.04 Q1183.73 1295.58 1187.34 1295.58 Q1190.98 1295.58 1192.78 1292.04 Q1194.61 1288.47 1194.61 1281.36 Q1194.61 1274.24 1192.78 1270.69 Q1190.98 1267.13 1187.34 1267.13 M1187.34 1263.42 Q1193.15 1263.42 1196.21 1268.03 Q1199.29 1272.61 1199.29 1281.36 Q1199.29 1290.09 1196.21 1294.7 Q1193.15 1299.28 1187.34 1299.28 Q1181.53 1299.28 1178.45 1294.7 Q1175.4 1290.09 1175.4 1281.36 Q1175.4 1272.61 1178.45 1268.03 Q1181.53 1263.42 1187.34 1263.42 Z" fill="#000000" fill-rule="nonzero" fill-opacity="1" /><path clip-path="url(#clip830)" d="M1211.96 1246.43 L1202.37 1261.42 L1211.96 1261.42 L1211.96 1246.43 M1210.97 1243.12 L1215.74 1243.12 L1215.74 1261.42 L1219.75 1261.42 L1219.75 1264.58 L1215.74 1264.58 L1215.74 1271.2 L1211.96 1271.2 L1211.96 1264.58 L1199.29 1264.58 L1199.29 1260.91 L1210.97 1243.12 Z" fill="#000000" fill-rule="nonzero" fill-opacity="1" /><path clip-path="url(#clip830)" d="M1451.78 1264.05 L1474 1264.05 L1474 1266.04 L1461.45 1298.61 L1456.57 1298.61 L1468.37 1267.99 L1451.78 1267.99 L1451.78 1264.05 Z" fill="#000000" fill-rule="nonzero" fill-opacity="1" /><path clip-path="url(#clip830)" d="M1483.12 1292.73 L1488 1292.73 L1488 1298.61 L1483.12 1298.61 L1483.12 1292.73 Z" fill="#000000" fill-rule="nonzero" fill-opacity="1" /><path clip-path="url(#clip830)" d="M1498.23 1264.05 L1516.59 1264.05 L1516.59 1267.99 L1502.52 1267.99 L1502.52 1276.46 Q1503.53 1276.11 1504.55 1275.95 Q1505.57 1275.76 1506.59 1275.76 Q1512.38 1275.76 1515.76 1278.93 Q1519.14 1282.11 1519.14 1287.52 Q1519.14 1293.1 1515.66 1296.2 Q1512.19 1299.28 1505.87 1299.28 Q1503.7 1299.28 1501.43 1298.91 Q1499.18 1298.54 1496.78 1297.8 L1496.78 1293.1 Q1498.86 1294.23 1501.08 1294.79 Q1503.3 1295.35 1505.78 1295.35 Q1509.78 1295.35 1512.12 1293.24 Q1514.46 1291.13 1514.46 1287.52 Q1514.46 1283.91 1512.12 1281.8 Q1509.78 1279.7 1505.78 1279.7 Q1503.91 1279.7 1502.03 1280.11 Q1500.18 1280.53 1498.23 1281.41 L1498.23 1264.05 Z" fill="#000000" fill-rule="nonzero" fill-opacity="1" /><path clip-path="url(#clip830)" d="M1538.35 1267.13 Q1534.74 1267.13 1532.91 1270.69 Q1531.1 1274.24 1531.1 1281.36 Q1531.1 1288.47 1532.91 1292.04 Q1534.74 1295.58 1538.35 1295.58 Q1541.98 1295.58 1543.79 1292.04 Q1545.62 1288.47 1545.62 1281.36 Q1545.62 1274.24 1543.79 1270.69 Q1541.98 1267.13 1538.35 1267.13 M1538.35 1263.42 Q1544.16 1263.42 1547.21 1268.03 Q1550.29 1272.61 1550.29 1281.36 Q1550.29 1290.09 1547.21 1294.7 Q1544.16 1299.28 1538.35 1299.28 Q1532.54 1299.28 1529.46 1294.7 Q1526.4 1290.09 1526.4 1281.36 Q1526.4 1272.61 1529.46 1268.03 Q1532.54 1263.42 1538.35 1263.42 Z" fill="#000000" fill-rule="nonzero" fill-opacity="1" /><path clip-path="url(#clip830)" d="M1586.68 1273.15 L1576.1 1283.77 L1586.68 1294.35 L1583.93 1297.15 L1573.3 1286.53 L1562.68 1297.15 L1559.95 1294.35 L1570.5 1283.77 L1559.95 1273.15 L1562.68 1270.35 L1573.3 1280.97 L1583.93 1270.35 L1586.68 1273.15 Z" fill="#000000" fill-rule="nonzero" fill-opacity="1" /><path clip-path="url(#clip830)" d="M1599.04 1294.67 L1606.68 1294.67 L1606.68 1268.31 L1598.37 1269.98 L1598.37 1265.72 L1606.64 1264.05 L1611.31 1264.05 L1611.31 1294.67 L1618.95 1294.67 L1618.95 1298.61 L1599.04 1298.61 L1599.04 1294.67 Z" fill="#000000" fill-rule="nonzero" fill-opacity="1" /><path clip-path="url(#clip830)" d="M1638.4 1267.13 Q1634.78 1267.13 1632.96 1270.69 Q1631.15 1274.24 1631.15 1281.36 Q1631.15 1288.47 1632.96 1292.04 Q1634.78 1295.58 1638.4 1295.58 Q1642.03 1295.58 1643.83 1292.04 Q1645.66 1288.47 1645.66 1281.36 Q1645.66 1274.24 1643.83 1270.69 Q1642.03 1267.13 1638.4 1267.13 M1638.4 1263.42 Q1644.21 1263.42 1647.26 1268.03 Q1650.34 1272.61 1650.34 1281.36 Q1650.34 1290.09 1647.26 1294.7 Q1644.21 1299.28 1638.4 1299.28 Q1632.58 1299.28 1629.51 1294.7 Q1626.45 1290.09 1626.45 1281.36 Q1626.45 1272.61 1629.51 1268.03 Q1632.58 1263.42 1638.4 1263.42 Z" fill="#000000" fill-rule="nonzero" fill-opacity="1" /><path clip-path="url(#clip830)" d="M1663.02 1246.43 L1653.42 1261.42 L1663.02 1261.42 L1663.02 1246.43 M1662.02 1243.12 L1666.8 1243.12 L1666.8 1261.42 L1670.8 1261.42 L1670.8 1264.58 L1666.8 1264.58 L1666.8 1271.2 L1663.02 1271.2 L1663.02 1264.58 L1650.34 1264.58 L1650.34 1260.91 L1662.02 1243.12 Z" fill="#000000" fill-rule="nonzero" fill-opacity="1" /><path clip-path="url(#clip830)" d="M1905.42 1294.67 L1913.06 1294.67 L1913.06 1268.31 L1904.75 1269.98 L1904.75 1265.72 L1913.01 1264.05 L1917.69 1264.05 L1917.69 1294.67 L1925.33 1294.67 L1925.33 1298.61 L1905.42 1298.61 L1905.42 1294.67 Z" fill="#000000" fill-rule="nonzero" fill-opacity="1" /><path clip-path="url(#clip830)" d="M1934.77 1292.73 L1939.66 1292.73 L1939.66 1298.61 L1934.77 1298.61 L1934.77 1292.73 Z" fill="#000000" fill-rule="nonzero" fill-opacity="1" /><path clip-path="url(#clip830)" d="M1959.84 1267.13 Q1956.23 1267.13 1954.4 1270.69 Q1952.6 1274.24 1952.6 1281.36 Q1952.6 1288.47 1954.4 1292.04 Q1956.23 1295.58 1959.84 1295.58 Q1963.48 1295.58 1965.28 1292.04 Q1967.11 1288.47 1967.11 1281.36 Q1967.11 1274.24 1965.28 1270.69 Q1963.48 1267.13 1959.84 1267.13 M1959.84 1263.42 Q1965.65 1263.42 1968.71 1268.03 Q1971.79 1272.61 1971.79 1281.36 Q1971.79 1290.09 1968.71 1294.7 Q1965.65 1299.28 1959.84 1299.28 Q1954.03 1299.28 1950.95 1294.7 Q1947.9 1290.09 1947.9 1281.36 Q1947.9 1272.61 1950.95 1268.03 Q1954.03 1263.42 1959.84 1263.42 Z" fill="#000000" fill-rule="nonzero" fill-opacity="1" /><path clip-path="url(#clip830)" d="M1990 1267.13 Q1986.39 1267.13 1984.56 1270.69 Q1982.76 1274.24 1982.76 1281.36 Q1982.76 1288.47 1984.56 1292.04 Q1986.39 1295.58 1990 1295.58 Q1993.64 1295.58 1995.44 1292.04 Q1997.27 1288.47 1997.27 1281.36 Q1997.27 1274.24 1995.44 1270.69 Q1993.64 1267.13 1990 1267.13 M1990 1263.42 Q1995.81 1263.42 1998.87 1268.03 Q2001.95 1272.61 2001.95 1281.36 Q2001.95 1290.09 1998.87 1294.7 Q1995.81 1299.28 1990 1299.28 Q1984.19 1299.28 1981.12 1294.7 Q1978.06 1290.09 1978.06 1281.36 Q1978.06 1272.61 1981.12 1268.03 Q1984.19 1263.42 1990 1263.42 Z" fill="#000000" fill-rule="nonzero" fill-opacity="1" /><path clip-path="url(#clip830)" d="M2038.34 1273.15 L2027.76 1283.77 L2038.34 1294.35 L2035.58 1297.15 L2024.96 1286.53 L2014.33 1297.15 L2011.6 1294.35 L2022.16 1283.77 L2011.6 1273.15 L2014.33 1270.35 L2024.96 1280.97 L2035.58 1270.35 L2038.34 1273.15 Z" fill="#000000" fill-rule="nonzero" fill-opacity="1" /><path clip-path="url(#clip830)" d="M2050.7 1294.67 L2058.34 1294.67 L2058.34 1268.31 L2050.03 1269.98 L2050.03 1265.72 L2058.29 1264.05 L2062.97 1264.05 L2062.97 1294.67 L2070.61 1294.67 L2070.61 1298.61 L2050.7 1298.61 L2050.7 1294.67 Z" fill="#000000" fill-rule="nonzero" fill-opacity="1" /><path clip-path="url(#clip830)" d="M2090.05 1267.13 Q2086.44 1267.13 2084.61 1270.69 Q2082.8 1274.24 2082.8 1281.36 Q2082.8 1288.47 2084.61 1292.04 Q2086.44 1295.58 2090.05 1295.58 Q2093.68 1295.58 2095.49 1292.04 Q2097.32 1288.47 2097.32 1281.36 Q2097.32 1274.24 2095.49 1270.69 Q2093.68 1267.13 2090.05 1267.13 M2090.05 1263.42 Q2095.86 1263.42 2098.92 1268.03 Q2101.99 1272.61 2101.99 1281.36 Q2101.99 1290.09 2098.92 1294.7 Q2095.86 1299.28 2090.05 1299.28 Q2084.24 1299.28 2081.16 1294.7 Q2078.11 1290.09 2078.11 1281.36 Q2078.11 1272.61 2081.16 1268.03 Q2084.24 1263.42 2090.05 1263.42 Z" fill="#000000" fill-rule="nonzero" fill-opacity="1" /><path clip-path="url(#clip830)" d="M2103.18 1243.12 L2118.09 1243.12 L2118.09 1246.32 L2106.66 1246.32 L2106.66 1253.2 Q2107.49 1252.92 2108.31 1252.79 Q2109.14 1252.64 2109.97 1252.64 Q2114.67 1252.64 2117.42 1255.21 Q2120.16 1257.79 2120.16 1262.19 Q2120.16 1266.72 2117.34 1269.24 Q2114.52 1271.74 2109.39 1271.74 Q2107.62 1271.74 2105.77 1271.44 Q2103.95 1271.14 2101.99 1270.54 L2101.99 1266.72 Q2103.69 1267.64 2105.49 1268.1 Q2107.3 1268.55 2109.31 1268.55 Q2112.56 1268.55 2114.46 1266.84 Q2116.36 1265.12 2116.36 1262.19 Q2116.36 1259.26 2114.46 1257.55 Q2112.56 1255.83 2109.31 1255.83 Q2107.79 1255.83 2106.26 1256.17 Q2104.76 1256.51 2103.18 1257.23 L2103.18 1243.12 Z" fill="#000000" fill-rule="nonzero" fill-opacity="1" /><polyline clip-path="url(#clip832)" style="stroke:#000000; stroke-linecap:round; stroke-linejoin:round; stroke-width:2; stroke-opacity:0.1; fill:none" points="153.718,1222.85 2064.76,1222.85 "/>
<polyline clip-path="url(#clip832)" style="stroke:#000000; stroke-linecap:round; stroke-linejoin:round; stroke-width:2; stroke-opacity:0.1; fill:none" points="153.718,987.732 2064.76,987.732 "/>
<polyline clip-path="url(#clip832)" style="stroke:#000000; stroke-linecap:round; stroke-linejoin:round; stroke-width:2; stroke-opacity:0.1; fill:none" points="153.718,752.61 2064.76,752.61 "/>
<polyline clip-path="url(#clip832)" style="stroke:#000000; stroke-linecap:round; stroke-linejoin:round; stroke-width:2; stroke-opacity:0.1; fill:none" points="153.718,517.488 2064.76,517.488 "/>
<polyline clip-path="url(#clip832)" style="stroke:#000000; stroke-linecap:round; stroke-linejoin:round; stroke-width:2; stroke-opacity:0.1; fill:none" points="153.718,282.366 2064.76,282.366 "/>
<polyline clip-path="url(#clip832)" style="stroke:#000000; stroke-linecap:round; stroke-linejoin:round; stroke-width:2; stroke-opacity:0.1; fill:none" points="153.718,47.2441 2064.76,47.2441 "/>
<polyline clip-path="url(#clip830)" style="stroke:#000000; stroke-linecap:round; stroke-linejoin:round; stroke-width:4; stroke-opacity:1; fill:none" points="153.718,1222.85 153.718,47.2441 "/>
<polyline clip-path="url(#clip830)" style="stroke:#000000; stroke-linecap:round; stroke-linejoin:round; stroke-width:4; stroke-opacity:1; fill:none" points="153.718,1222.85 172.616,1222.85 "/>
<polyline clip-path="url(#clip830)" style="stroke:#000000; stroke-linecap:round; stroke-linejoin:round; stroke-width:4; stroke-opacity:1; fill:none" points="153.718,987.732 172.616,987.732 "/>
<polyline clip-path="url(#clip830)" style="stroke:#000000; stroke-linecap:round; stroke-linejoin:round; stroke-width:4; stroke-opacity:1; fill:none" points="153.718,752.61 172.616,752.61 "/>
<polyline clip-path="url(#clip830)" style="stroke:#000000; stroke-linecap:round; stroke-linejoin:round; stroke-width:4; stroke-opacity:1; fill:none" points="153.718,517.488 172.616,517.488 "/>
<polyline clip-path="url(#clip830)" style="stroke:#000000; stroke-linecap:round; stroke-linejoin:round; stroke-width:4; stroke-opacity:1; fill:none" points="153.718,282.366 172.616,282.366 "/>
<polyline clip-path="url(#clip830)" style="stroke:#000000; stroke-linecap:round; stroke-linejoin:round; stroke-width:4; stroke-opacity:1; fill:none" points="153.718,47.2441 172.616,47.2441 "/>
<path clip-path="url(#clip830)" d="M64.8626 1208.65 Q61.2515 1208.65 59.4228 1212.22 Q57.6173 1215.76 57.6173 1222.89 Q57.6173 1230 59.4228 1233.56 Q61.2515 1237.1 64.8626 1237.1 Q68.4969 1237.1 70.3024 1233.56 Q72.1311 1230 72.1311 1222.89 Q72.1311 1215.76 70.3024 1212.22 Q68.4969 1208.65 64.8626 1208.65 M64.8626 1204.95 Q70.6728 1204.95 73.7283 1209.56 Q76.807 1214.14 76.807 1222.89 Q76.807 1231.62 73.7283 1236.22 Q70.6728 1240.81 64.8626 1240.81 Q59.0525 1240.81 55.9738 1236.22 Q52.9182 1231.62 52.9182 1222.89 Q52.9182 1214.14 55.9738 1209.56 Q59.0525 1204.95 64.8626 1204.95 Z" fill="#000000" fill-rule="nonzero" fill-opacity="1" /><path clip-path="url(#clip830)" d="M85.0245 1234.25 L89.9088 1234.25 L89.9088 1240.13 L85.0245 1240.13 L85.0245 1234.25 Z" fill="#000000" fill-rule="nonzero" fill-opacity="1" /><path clip-path="url(#clip830)" d="M110.094 1208.65 Q106.483 1208.65 104.654 1212.22 Q102.849 1215.76 102.849 1222.89 Q102.849 1230 104.654 1233.56 Q106.483 1237.1 110.094 1237.1 Q113.728 1237.1 115.534 1233.56 Q117.362 1230 117.362 1222.89 Q117.362 1215.76 115.534 1212.22 Q113.728 1208.65 110.094 1208.65 M110.094 1204.95 Q115.904 1204.95 118.96 1209.56 Q122.038 1214.14 122.038 1222.89 Q122.038 1231.62 118.96 1236.22 Q115.904 1240.81 110.094 1240.81 Q104.284 1240.81 101.205 1236.22 Q98.1495 1231.62 98.1495 1222.89 Q98.1495 1214.14 101.205 1209.56 Q104.284 1204.95 110.094 1204.95 Z" fill="#000000" fill-rule="nonzero" fill-opacity="1" /><path clip-path="url(#clip830)" d="M66.4598 973.531 Q62.8487 973.531 61.02 977.095 Q59.2145 980.637 59.2145 987.767 Q59.2145 994.873 61.02 998.438 Q62.8487 1001.98 66.4598 1001.98 Q70.0941 1001.98 71.8996 998.438 Q73.7283 994.873 73.7283 987.767 Q73.7283 980.637 71.8996 977.095 Q70.0941 973.531 66.4598 973.531 M66.4598 969.827 Q72.27 969.827 75.3255 974.433 Q78.4042 979.017 78.4042 987.767 Q78.4042 996.493 75.3255 1001.1 Q72.27 1005.68 66.4598 1005.68 Q60.6497 1005.68 57.571 1001.1 Q54.5154 996.493 54.5154 987.767 Q54.5154 979.017 57.571 974.433 Q60.6497 969.827 66.4598 969.827 Z" fill="#000000" fill-rule="nonzero" fill-opacity="1" /><path clip-path="url(#clip830)" d="M86.6218 999.132 L91.506 999.132 L91.506 1005.01 L86.6218 1005.01 L86.6218 999.132 Z" fill="#000000" fill-rule="nonzero" fill-opacity="1" /><path clip-path="url(#clip830)" d="M105.719 1001.08 L122.038 1001.08 L122.038 1005.01 L100.094 1005.01 L100.094 1001.08 Q102.756 998.322 107.339 993.693 Q111.946 989.04 113.126 987.697 Q115.372 985.174 116.251 983.438 Q117.154 981.679 117.154 979.989 Q117.154 977.234 115.21 975.498 Q113.288 973.762 110.186 973.762 Q107.987 973.762 105.534 974.526 Q103.103 975.29 100.325 976.841 L100.325 972.119 Q103.149 970.984 105.603 970.406 Q108.057 969.827 110.094 969.827 Q115.464 969.827 118.659 972.512 Q121.853 975.197 121.853 979.688 Q121.853 981.818 121.043 983.739 Q120.256 985.637 118.149 988.23 Q117.571 988.901 114.469 992.118 Q111.367 995.313 105.719 1001.08 Z" fill="#000000" fill-rule="nonzero" fill-opacity="1" /><path clip-path="url(#clip830)" d="M64.3765 738.409 Q60.7654 738.409 58.9367 741.973 Q57.1312 745.515 57.1312 752.645 Q57.1312 759.751 58.9367 763.316 Q60.7654 766.858 64.3765 766.858 Q68.0107 766.858 69.8163 763.316 Q71.645 759.751 71.645 752.645 Q71.645 745.515 69.8163 741.973 Q68.0107 738.409 64.3765 738.409 M64.3765 734.705 Q70.1867 734.705 73.2422 739.311 Q76.3209 743.895 76.3209 752.645 Q76.3209 761.372 73.2422 765.978 Q70.1867 770.561 64.3765 770.561 Q58.5664 770.561 55.4877 765.978 Q52.4321 761.372 52.4321 752.645 Q52.4321 743.895 55.4877 739.311 Q58.5664 734.705 64.3765 734.705 Z" fill="#000000" fill-rule="nonzero" fill-opacity="1" /><path clip-path="url(#clip830)" d="M84.5384 764.01 L89.4227 764.01 L89.4227 769.89 L84.5384 769.89 L84.5384 764.01 Z" fill="#000000" fill-rule="nonzero" fill-opacity="1" /><path clip-path="url(#clip830)" d="M112.455 739.404 L100.649 757.853 L112.455 757.853 L112.455 739.404 M111.228 735.33 L117.108 735.33 L117.108 757.853 L122.038 757.853 L122.038 761.742 L117.108 761.742 L117.108 769.89 L112.455 769.89 L112.455 761.742 L96.8532 761.742 L96.8532 757.228 L111.228 735.33 Z" fill="#000000" fill-rule="nonzero" fill-opacity="1" /><path clip-path="url(#clip830)" d="M64.7006 503.287 Q61.0895 503.287 59.2608 506.852 Q57.4552 510.393 57.4552 517.523 Q57.4552 524.629 59.2608 528.194 Q61.0895 531.736 64.7006 531.736 Q68.3348 531.736 70.1404 528.194 Q71.9691 524.629 71.9691 517.523 Q71.9691 510.393 70.1404 506.852 Q68.3348 503.287 64.7006 503.287 M64.7006 499.583 Q70.5107 499.583 73.5663 504.189 Q76.645 508.773 76.645 517.523 Q76.645 526.25 73.5663 530.856 Q70.5107 535.439 64.7006 535.439 Q58.8904 535.439 55.8117 530.856 Q52.7562 526.25 52.7562 517.523 Q52.7562 508.773 55.8117 504.189 Q58.8904 499.583 64.7006 499.583 Z" fill="#000000" fill-rule="nonzero" fill-opacity="1" /><path clip-path="url(#clip830)" d="M84.8625 528.888 L89.7467 528.888 L89.7467 534.768 L84.8625 534.768 L84.8625 528.888 Z" fill="#000000" fill-rule="nonzero" fill-opacity="1" /><path clip-path="url(#clip830)" d="M110.511 515.625 Q107.362 515.625 105.511 517.777 Q103.682 519.93 103.682 523.68 Q103.682 527.407 105.511 529.583 Q107.362 531.736 110.511 531.736 Q113.659 531.736 115.487 529.583 Q117.339 527.407 117.339 523.68 Q117.339 519.93 115.487 517.777 Q113.659 515.625 110.511 515.625 M119.793 500.972 L119.793 505.231 Q118.034 504.398 116.228 503.958 Q114.446 503.518 112.686 503.518 Q108.057 503.518 105.603 506.643 Q103.173 509.768 102.825 516.088 Q104.191 514.074 106.251 513.009 Q108.311 511.921 110.788 511.921 Q115.997 511.921 119.006 515.092 Q122.038 518.24 122.038 523.68 Q122.038 529.004 118.89 532.222 Q115.742 535.439 110.511 535.439 Q104.515 535.439 101.344 530.856 Q98.1726 526.25 98.1726 517.523 Q98.1726 509.328 102.061 504.467 Q105.95 499.583 112.501 499.583 Q114.26 499.583 116.043 499.93 Q117.848 500.277 119.793 500.972 Z" fill="#000000" fill-rule="nonzero" fill-opacity="1" /><path clip-path="url(#clip830)" d="M64.9552 268.165 Q61.3441 268.165 59.5154 271.73 Q57.7099 275.271 57.7099 282.401 Q57.7099 289.507 59.5154 293.072 Q61.3441 296.614 64.9552 296.614 Q68.5894 296.614 70.395 293.072 Q72.2237 289.507 72.2237 282.401 Q72.2237 275.271 70.395 271.73 Q68.5894 268.165 64.9552 268.165 M64.9552 264.461 Q70.7654 264.461 73.8209 269.068 Q76.8996 273.651 76.8996 282.401 Q76.8996 291.128 73.8209 295.734 Q70.7654 300.317 64.9552 300.317 Q59.1451 300.317 56.0664 295.734 Q53.0108 291.128 53.0108 282.401 Q53.0108 273.651 56.0664 269.068 Q59.1451 264.461 64.9552 264.461 Z" fill="#000000" fill-rule="nonzero" fill-opacity="1" /><path clip-path="url(#clip830)" d="M85.1171 293.766 L90.0014 293.766 L90.0014 299.646 L85.1171 299.646 L85.1171 293.766 Z" fill="#000000" fill-rule="nonzero" fill-opacity="1" /><path clip-path="url(#clip830)" d="M110.186 283.234 Q106.853 283.234 104.932 285.017 Q103.034 286.799 103.034 289.924 Q103.034 293.049 104.932 294.831 Q106.853 296.614 110.186 296.614 Q113.52 296.614 115.441 294.831 Q117.362 293.026 117.362 289.924 Q117.362 286.799 115.441 285.017 Q113.543 283.234 110.186 283.234 M105.511 281.243 Q102.501 280.503 100.811 278.442 Q99.1448 276.382 99.1448 273.419 Q99.1448 269.276 102.085 266.868 Q105.048 264.461 110.186 264.461 Q115.348 264.461 118.288 266.868 Q121.228 269.276 121.228 273.419 Q121.228 276.382 119.538 278.442 Q117.872 280.503 114.885 281.243 Q118.265 282.03 120.14 284.322 Q122.038 286.614 122.038 289.924 Q122.038 294.947 118.96 297.632 Q115.904 300.317 110.186 300.317 Q104.469 300.317 101.39 297.632 Q98.3347 294.947 98.3347 289.924 Q98.3347 286.614 100.233 284.322 Q102.131 282.03 105.511 281.243 M103.798 273.859 Q103.798 276.544 105.464 278.049 Q107.154 279.554 110.186 279.554 Q113.196 279.554 114.885 278.049 Q116.598 276.544 116.598 273.859 Q116.598 271.174 114.885 269.669 Q113.196 268.165 110.186 268.165 Q107.154 268.165 105.464 269.669 Q103.798 271.174 103.798 273.859 Z" fill="#000000" fill-rule="nonzero" fill-opacity="1" /><path clip-path="url(#clip830)" d="M55.6728 60.5889 L63.3117 60.5889 L63.3117 34.2233 L55.0016 35.89 L55.0016 31.6308 L63.2654 29.9641 L67.9413 29.9641 L67.9413 60.5889 L75.5802 60.5889 L75.5802 64.5241 L55.6728 64.5241 L55.6728 60.5889 Z" fill="#000000" fill-rule="nonzero" fill-opacity="1" /><path clip-path="url(#clip830)" d="M85.0245 58.6445 L89.9088 58.6445 L89.9088 64.5241 L85.0245 64.5241 L85.0245 58.6445 Z" fill="#000000" fill-rule="nonzero" fill-opacity="1" /><path clip-path="url(#clip830)" d="M110.094 33.0428 Q106.483 33.0428 104.654 36.6076 Q102.849 40.1492 102.849 47.2788 Q102.849 54.3853 104.654 57.9501 Q106.483 61.4917 110.094 61.4917 Q113.728 61.4917 115.534 57.9501 Q117.362 54.3853 117.362 47.2788 Q117.362 40.1492 115.534 36.6076 Q113.728 33.0428 110.094 33.0428 M110.094 29.3391 Q115.904 29.3391 118.96 33.9456 Q122.038 38.5289 122.038 47.2788 Q122.038 56.0056 118.96 60.6121 Q115.904 65.1954 110.094 65.1954 Q104.284 65.1954 101.205 60.6121 Q98.1495 56.0056 98.1495 47.2788 Q98.1495 38.5289 101.205 33.9456 Q104.284 29.3391 110.094 29.3391 Z" fill="#000000" fill-rule="nonzero" fill-opacity="1" /><polyline clip-path="url(#clip832)" style="stroke:#009af9; stroke-linecap:round; stroke-linejoin:round; stroke-width:4; stroke-opacity:1; fill:none" points="207.804,1105.41 209.609,1099.7 211.414,1095.81 213.218,1092.2 215.023,1090.06 216.828,1088.45 218.632,1084.89 220.437,1083.24 222.242,1079.43 224.046,1078.59 225.851,1073.71 227.656,1069.48 229.46,1064.95 231.265,1066.26 233.07,1069.83 234.874,1072.37 236.679,1063.37 238.484,1060.81 240.288,1057.2 242.093,1061.86 243.898,1058.15 245.702,1053.18 247.507,1042.32 249.312,1036.69 251.116,1034.08 252.921,1035.22 254.726,1034.8 256.53,1032.51 258.335,1025.2 260.14,1026.51 261.944,1018.02 263.749,1020.53 265.554,1016.32 267.358,1007.29 269.163,996.534 270.968,993.527 272.772,989.693 274.577,977.129 276.382,970.365 278.186,965.765 279.991,961.066 281.796,962.996 283.6,945.245 285.405,934.778 287.21,922.593 289.014,911.337 290.819,909.492 292.624,903.664 294.428,905.466 296.233,895.355 298.038,893.945 299.842,875.715 301.647,864.169 303.452,855.597 305.256,850.132 307.061,843.336 308.866,839.979 310.67,824.333 312.475,821.226 314.28,815.374 316.084,806.33 317.889,792.561 319.694,793.375 321.498,786.031 323.303,778.305 325.108,768.301 326.912,759.325 328.717,740.469 330.522,728.504 332.326,726.177 334.131,721.062 335.936,707.637 337.74,694.524 339.545,682.562 341.35,675.136 343.154,667.344 344.959,660.989 346.764,641.852 348.568,633.87 350.373,613.745 352.178,602.765 353.983,597.718 355.787,589.078 357.592,581.133 359.397,570.671 361.201,563.018 363.006,563.356 364.811,553.983 366.615,546.432 368.42,525.251 370.225,513.906 372.029,507.973 373.834,507.274 375.639,506.661 377.443,502.04 379.248,488.26 381.053,488.296 382.857,480.408 384.662,468.418 386.467,461.537 388.271,453.501 390.076,450.537 391.881,448.975 393.685,438.037 395.49,429.896 397.295,426.734 399.099,414.627 400.904,410.71 402.709,410.871 404.513,410.51 406.318,401.37 408.123,395.718 409.927,386.389 411.732,385.6 413.537,383.665 415.341,381.014 417.146,375.854 418.951,374.718 420.755,358.755 422.56,352.367 424.365,345.882 426.169,335.211 427.974,328.946 429.779,324.673 431.583,318.067 433.388,305.791 435.193,299.054 436.997,295.111 438.802,292.273 440.607,285.069 442.411,274.246 444.216,262.688 446.021,252.64 447.825,245.664 449.63,238.483 451.435,233.633 453.239,229.044 455.044,226.264 456.849,224.878 458.653,220.112 460.458,214.973 462.263,209.641 464.067,208.025 465.872,208.408 467.677,199.88 469.481,199.261 471.286,194.421 473.091,189.648 474.895,182.884 476.7,180.504 478.505,181.462 480.309,177.082 482.114,176.205 483.919,176.217 485.723,172.151 487.528,168.2 489.333,163.59 491.137,161.258 492.942,159.277 494.747,154.374 496.551,148.859 498.356,140.269 500.161,139.335 501.965,136.356 503.77,130.135 505.575,125.431 507.379,119.46 509.184,116.409 510.989,115.499 512.794,112.938 514.598,108.064 516.403,104.834 518.208,103.764 520.012,101.628 521.817,100.636 523.622,99.0785 525.426,94.2894 527.231,92.2767 529.036,90.6207 530.84,87.4222 532.645,87.3296 534.45,85.2829 536.254,82.5848 538.059,81.5007 539.864,79.2226 541.668,77.1976 543.473,76.5993 545.278,75.8886 547.082,76.5386 548.887,74.8089 550.692,76.514 552.496,76.8425 554.301,75.3553 556.106,74.9342 557.91,73.3498 559.715,73.1556 561.52,72.8935 563.324,74.0325 565.129,74.7922 566.934,74.3014 568.738,73.9979 570.543,74.6508 572.348,75.509 574.152,74.2283 575.957,76.0479 577.762,76.764 579.566,76.0273 581.371,77.3409 583.176,76.9661 584.98,74.2395 586.785,75.2858 588.59,74.6986 590.394,74.3399 592.199,72.683 594.004,70.2537 595.808,70.1393 597.613,70.0491 599.418,68.8614 601.222,67.6733 603.027,67.8108 604.832,65.9544 606.636,64.0274 608.441,63.5537 610.246,61.771 612.05,61.579 613.855,60.2724 615.66,59.053 617.464,57.9873 619.269,58.1806 621.074,59.5177 622.878,59.3715 624.683,58.1236 626.488,57.1871 628.292,56.3088 630.097,55.4394 631.902,54.696 633.706,54.0617 635.511,56.9527 637.316,56.0034 639.12,56.2518 640.925,55.3156 642.73,54.539 644.534,54.8625 646.339,54.1892 648.144,54.7694 649.948,54.1431 651.753,54.6581 653.558,55.0001 655.362,54.2706 657.167,53.6982 658.972,53.1706 660.776,53.651 662.581,53.017 664.386,52.5124 666.19,53.1548 667.995,52.6214 669.8,52.2054 671.604,51.7042 673.409,51.3502 675.214,52.1457 677.019,54.6881 678.823,54.0092 680.628,53.3609 682.433,52.7587 684.237,53.3618 686.042,52.8306 687.847,52.2348 689.651,52.8262 691.456,52.3826 693.261,51.9068 695.065,51.4568 696.87,51.0412 698.675,51.8747 700.479,51.3958 702.284,51.0524 704.089,50.7296 705.893,50.3312 707.698,50.0156 709.503,49.701 711.307,49.4766 713.112,49.283 714.917,49.0475 716.721,48.8533 718.526,48.7382 720.331,48.6103 722.135,48.4975 723.94,49.4893 725.745,49.2893 727.549,50.2048 729.354,49.8559 731.159,49.6455 732.963,49.4291 734.768,49.2026 736.573,48.9497 738.377,48.7802 740.182,49.7199 741.987,50.411 743.791,50.155 745.596,49.8312 747.401,49.562 749.205,49.3637 751.01,49.1503 752.815,48.9807 754.619,48.82 756.424,48.6686 758.229,48.5403 760.033,49.5185 761.838,49.2985 763.643,49.0624 765.447,48.9357 767.252,48.7684 769.057,48.6298 770.861,48.513 772.666,48.4191 774.471,48.3293 776.275,48.2658 778.08,48.1814 779.885,48.0679 781.689,48.0154 783.494,47.9242 785.299,47.8613 787.103,47.8076 788.908,47.7723 790.713,47.7198 792.517,47.6758 794.322,47.6372 796.127,47.602 797.931,47.568 799.736,47.5281 801.541,47.5089 803.345,47.4846 805.15,47.4588 806.955,47.437 808.759,47.4169 810.564,47.4039 812.369,47.3894 814.173,47.3752 815.978,47.3629 817.783,47.3527 819.587,47.3421 821.392,47.3347 823.197,47.3268 825.001,47.3178 826.806,47.3097 828.611,47.3036 830.415,47.2983 832.22,47.2931 834.025,47.2885 835.83,47.2844 837.634,47.2809 839.439,47.2782 841.244,47.2746 843.048,47.2714 844.853,47.2688 846.658,47.2667 848.462,47.2647 850.267,47.2629 852.072,47.2611 853.876,47.2591 855.681,47.2568 857.486,47.2555 859.29,47.2543 861.095,47.2534 862.9,47.2524 864.704,47.2516 866.509,47.2509 868.314,47.2501 870.118,47.2494 871.923,47.2489 873.728,47.2484 875.532,47.2481 877.337,47.2478 879.142,47.2474 880.946,47.2471 882.751,47.2468 884.556,47.2465 886.36,47.2462 888.165,47.246 889.97,47.2458 891.774,47.2457 893.579,47.2455 895.384,47.2454 897.188,47.2452 898.993,47.2451 900.798,47.245 902.602,47.2449 904.407,47.2449 906.212,47.2448 908.016,47.2447 909.821,47.2447 911.626,47.2446 913.43,47.2446 915.235,47.2445 917.04,47.2445 918.844,47.2445 920.649,47.2444 922.454,47.2444 924.258,47.2444 926.063,47.2443 927.868,47.2443 929.672,47.2443 931.477,47.2443 933.282,47.2443 935.086,47.2442 936.891,47.2442 938.696,47.2442 940.5,47.2442 942.305,47.2442 944.11,47.2442 945.914,47.2442 947.719,47.2442 949.524,47.2442 951.328,47.2442 953.133,47.2441 954.938,47.2441 956.742,47.2441 958.547,47.2441 960.352,47.2441 962.156,47.2441 963.961,47.2441 965.766,47.2441 967.57,47.2441 969.375,47.2441 971.18,47.2441 972.984,47.2441 974.789,47.2441 976.594,47.2441 978.398,47.2441 980.203,47.2441 982.008,47.2441 983.812,47.2441 985.617,47.2441 987.422,47.2441 989.226,47.2441 991.031,47.2441 992.836,47.2441 994.64,47.2441 996.445,47.2441 998.25,47.2441 1000.05,47.2441 1001.86,47.2441 1003.66,47.2441 1005.47,47.2441 1007.27,47.2441 1009.08,47.2441 1010.88,47.2441 1012.69,47.2441 1014.49,47.2441 1016.3,47.2441 1018.1,47.2441 1019.91,47.2441 1021.71,47.2441 1023.52,47.2441 1025.32,47.2441 1027.12,47.2441 1028.93,47.2441 1030.73,47.2441 1032.54,47.2441 1034.34,47.2441 1036.15,47.2441 1037.95,47.2441 1039.76,47.2441 1041.56,47.2441 1043.37,47.2441 1045.17,47.2441 1046.98,47.2441 1048.78,47.2441 1050.59,47.2441 1052.39,47.2441 1054.19,47.2441 1056,47.2441 1057.8,47.2441 1059.61,47.2441 1061.41,47.2441 1063.22,47.2441 1065.02,47.2441 1066.83,47.2441 1068.63,47.2441 1070.44,47.2441 1072.24,47.2441 1074.05,47.2441 1075.85,47.2441 1077.66,47.2441 1079.46,47.2441 1081.26,47.2441 1083.07,47.2441 1084.87,47.2441 1086.68,47.2441 1088.48,47.2441 1090.29,47.2441 1092.09,47.2441 1093.9,47.2441 1095.7,47.2441 1097.51,47.2441 1099.31,47.2441 1101.12,47.2441 1102.92,47.2441 1104.73,47.2441 1106.53,47.2441 1108.33,47.2441 1110.14,47.2441 1111.94,47.2441 1113.75,47.2441 1115.55,47.2441 1117.36,47.2441 1119.16,47.2441 1120.97,47.2441 1122.77,47.2441 1124.58,47.2441 1126.38,47.2441 1128.19,47.2441 1129.99,47.2441 1131.8,47.2441 1133.6,47.2441 1135.4,47.2441 1137.21,47.2441 1139.01,47.2441 1140.82,47.2441 1142.62,47.2441 1144.43,47.2441 1146.23,47.2441 1148.04,47.2441 1149.84,47.2441 1151.65,47.2441 1153.45,47.2441 1155.26,47.2441 1157.06,47.2441 1158.87,47.2441 1160.67,47.2441 1162.47,47.2441 1164.28,47.2441 1166.08,47.2441 1167.89,47.2441 1169.69,47.2441 1171.5,47.2441 1173.3,47.2441 1175.11,47.2441 1176.91,47.2441 1178.72,47.2441 1180.52,47.2441 1182.33,47.2441 1184.13,47.2441 1185.94,47.2441 1187.74,47.2441 1189.54,47.2441 1191.35,47.2441 1193.15,47.2441 1194.96,47.2441 1196.76,47.2441 1198.57,47.2441 1200.37,47.2441 1202.18,47.2441 1203.98,47.2441 1205.79,47.2441 1207.59,47.2441 1209.4,47.2441 1211.2,47.2441 1213.01,47.2441 1214.81,47.2441 1216.61,47.2441 1218.42,47.2441 1220.22,47.2441 1222.03,47.2441 1223.83,47.2441 1225.64,47.2441 1227.44,47.2441 1229.25,47.2441 1231.05,47.2441 1232.86,47.2441 1234.66,47.2441 1236.47,47.2441 1238.27,47.2441 1240.08,47.2441 1241.88,47.2441 1243.69,47.2441 1245.49,47.2441 1247.29,47.2441 1249.1,47.2441 1250.9,47.2441 1252.71,47.2441 1254.51,47.2441 1256.32,47.2441 1258.12,47.2441 1259.93,47.2441 1261.73,47.2441 1263.54,47.2441 1265.34,47.2441 1267.15,47.2441 1268.95,47.2441 1270.76,47.2441 1272.56,47.2441 1274.36,47.2441 1276.17,47.2441 1277.97,47.2441 1279.78,47.2441 1281.58,47.2441 1283.39,47.2441 1285.19,47.2441 1287,47.2441 1288.8,47.2441 1290.61,47.2441 1292.41,47.2441 1294.22,47.2441 1296.02,47.2441 1297.83,47.2441 1299.63,47.2441 1301.43,47.2441 1303.24,47.2441 1305.04,47.2441 1306.85,47.2441 1308.65,47.2441 1310.46,47.2441 1312.26,47.2441 1314.07,47.2441 1315.87,47.2441 1317.68,47.2441 1319.48,47.2441 1321.29,47.2441 1323.09,47.2441 1324.9,47.2441 1326.7,47.2441 1328.5,47.2441 1330.31,47.2441 1332.11,47.2441 1333.92,47.2441 1335.72,47.2441 1337.53,47.2441 1339.33,47.2441 1341.14,47.2441 1342.94,47.2441 1344.75,47.2441 1346.55,47.2441 1348.36,47.2441 1350.16,47.2441 1351.97,47.2441 1353.77,47.2441 1355.57,47.2441 1357.38,47.2441 1359.18,47.2441 1360.99,47.2441 1362.79,47.2441 1364.6,47.2441 1366.4,47.2441 1368.21,47.2441 1370.01,47.2441 1371.82,47.2441 1373.62,47.2441 1375.43,47.2441 1377.23,47.2441 1379.04,47.2441 1380.84,47.2441 1382.64,47.2441 1384.45,47.2441 1386.25,47.2441 1388.06,47.2441 1389.86,47.2441 1391.67,47.2441 1393.47,47.2441 1395.28,47.2441 1397.08,47.2441 1398.89,47.2441 1400.69,47.2441 1402.5,47.2441 1404.3,47.2441 1406.11,47.2441 1407.91,47.2441 1409.71,47.2441 1411.52,47.2441 1413.32,47.2441 1415.13,47.2441 1416.93,47.2441 1418.74,47.2441 1420.54,47.2441 1422.35,47.2441 1424.15,47.2441 1425.96,47.2441 1427.76,47.2441 1429.57,47.2441 1431.37,47.2441 1433.18,47.2441 1434.98,47.2441 1436.78,47.2441 1438.59,47.2441 1440.39,47.2441 1442.2,47.2441 1444,47.2441 1445.81,47.2441 1447.61,47.2441 1449.42,47.2441 1451.22,47.2441 1453.03,47.2441 1454.83,47.2441 1456.64,47.2441 1458.44,47.2441 1460.25,47.2441 1462.05,47.2441 1463.85,47.2441 1465.66,47.2441 1467.46,47.2441 1469.27,47.2441 1471.07,47.2441 1472.88,47.2441 1474.68,47.2441 1476.49,47.2441 1478.29,47.2441 1480.1,47.2441 1481.9,47.2441 1483.71,47.2441 1485.51,47.2441 1487.32,47.2441 1489.12,47.2441 1490.92,47.2441 1492.73,47.2441 1494.53,47.2441 1496.34,47.2441 1498.14,47.2441 1499.95,47.2441 1501.75,47.2441 1503.56,47.2441 1505.36,47.2441 1507.17,47.2441 1508.97,47.2441 1510.78,47.2441 1512.58,47.2441 1514.39,47.2441 1516.19,47.2441 1517.99,47.2441 1519.8,47.2441 1521.6,47.2441 1523.41,47.2441 1525.21,47.2441 1527.02,47.2441 1528.82,47.2441 1530.63,47.2441 1532.43,47.2441 1534.24,47.2441 1536.04,47.2441 1537.85,47.2441 1539.65,47.2441 1541.46,47.2441 1543.26,47.2441 1545.06,47.2441 1546.87,47.2441 1548.67,47.2441 1550.48,47.2441 1552.28,47.2441 1554.09,47.2441 1555.89,47.2441 1557.7,47.2441 1559.5,47.2441 1561.31,47.2441 1563.11,47.2441 1564.92,47.2441 1566.72,47.2441 1568.53,47.2441 1570.33,47.2441 1572.14,47.2441 1573.94,47.2441 1575.74,47.2441 1577.55,47.2441 1579.35,47.2441 1581.16,47.2441 1582.96,47.2441 1584.77,47.2441 1586.57,47.2441 1588.38,47.2441 1590.18,47.2441 1591.99,47.2441 1593.79,47.2441 1595.6,47.2441 1597.4,47.2441 1599.21,47.2441 1601.01,47.2441 1602.81,47.2441 1604.62,47.2441 1606.42,47.2441 1608.23,47.2441 1610.03,47.2441 1611.84,47.2441 1613.64,47.2441 1615.45,47.2441 1617.25,47.2441 1619.06,47.2441 1620.86,47.2441 1622.67,47.2441 1624.47,47.2441 1626.28,47.2441 1628.08,47.2441 1629.88,47.2441 1631.69,47.2441 1633.49,47.2441 1635.3,47.2441 1637.1,47.2441 1638.91,47.2441 1640.71,47.2441 1642.52,47.2441 1644.32,47.2441 1646.13,47.2441 1647.93,47.2441 1649.74,47.2441 1651.54,47.2441 1653.35,47.2441 1655.15,47.2441 1656.95,47.2441 1658.76,47.2441 1660.56,47.2441 1662.37,47.2441 1664.17,47.2441 1665.98,47.2441 1667.78,47.2441 1669.59,47.2441 1671.39,47.2441 1673.2,47.2441 1675,47.2441 1676.81,47.2441 1678.61,47.2441 1680.42,47.2441 1682.22,47.2441 1684.02,47.2441 1685.83,47.2441 1687.63,47.2441 1689.44,47.2441 1691.24,47.2441 1693.05,47.2441 1694.85,47.2441 1696.66,47.2441 1698.46,47.2441 1700.27,47.2441 1702.07,47.2441 1703.88,47.2441 1705.68,47.2441 1707.49,47.2441 1709.29,47.2441 1711.09,47.2441 1712.9,47.2441 1714.7,47.2441 1716.51,47.2441 1718.31,47.2441 1720.12,47.2441 1721.92,47.2441 1723.73,47.2441 1725.53,47.2441 1727.34,47.2441 1729.14,47.2441 1730.95,47.2441 1732.75,47.2441 1734.56,47.2441 1736.36,47.2441 1738.16,47.2441 1739.97,47.2441 1741.77,47.2441 1743.58,47.2441 1745.38,47.2441 1747.19,47.2441 1748.99,47.2441 1750.8,47.2441 1752.6,47.2441 1754.41,47.2441 1756.21,47.2441 1758.02,47.2441 1759.82,47.2441 1761.63,47.2441 1763.43,47.2441 1765.23,47.2441 1767.04,47.2441 1768.84,47.2441 1770.65,47.2441 1772.45,47.2441 1774.26,47.2441 1776.06,47.2441 1777.87,47.2441 1779.67,47.2441 1781.48,47.2441 1783.28,47.2441 1785.09,47.2441 1786.89,47.2441 1788.7,47.2441 1790.5,47.2441 1792.3,47.2441 1794.11,47.2441 1795.91,47.2441 1797.72,47.2441 1799.52,47.2441 1801.33,47.2441 1803.13,47.2441 1804.94,47.2441 1806.74,47.2441 1808.55,47.2441 1810.35,47.2441 1812.16,47.2441 1813.96,47.2441 1815.77,47.2441 1817.57,47.2441 1819.37,47.2441 1821.18,47.2441 1822.98,47.2441 1824.79,47.2441 1826.59,47.2441 1828.4,47.2441 1830.2,47.2441 1832.01,47.2441 1833.81,47.2441 1835.62,47.2441 1837.42,47.2441 1839.23,47.2441 1841.03,47.2441 1842.84,47.2441 1844.64,47.2441 1846.44,47.2441 1848.25,47.2441 1850.05,47.2441 1851.86,47.2441 1853.66,47.2441 1855.47,47.2441 1857.27,47.2441 1859.08,47.2441 1860.88,47.2441 1862.69,47.2441 1864.49,47.2441 1866.3,47.2441 1868.1,47.2441 1869.91,47.2441 1871.71,47.2441 1873.51,47.2441 1875.32,47.2441 1877.12,47.2441 1878.93,47.2441 1880.73,47.2441 1882.54,47.2441 1884.34,47.2441 1886.15,47.2441 1887.95,47.2441 1889.76,47.2441 1891.56,47.2441 1893.37,47.2441 1895.17,47.2441 1896.98,47.2441 1898.78,47.2441 1900.59,47.2441 1902.39,47.2441 1904.19,47.2441 1906,47.2441 1907.8,47.2441 1909.61,47.2441 1911.41,47.2441 1913.22,47.2441 1915.02,47.2441 1916.83,47.2441 1918.63,47.2441 1920.44,47.2441 1922.24,47.2441 1924.05,47.2441 1925.85,47.2441 1927.66,47.2441 1929.46,47.2441 1931.26,47.2441 1933.07,47.2441 1934.87,47.2441 1936.68,47.2441 1938.48,47.2441 1940.29,47.2441 1942.09,47.2441 1943.9,47.2441 1945.7,47.2441 1947.51,47.2441 1949.31,47.2441 1951.12,47.2441 1952.92,47.2441 1954.73,47.2441 1956.53,47.2441 1958.33,47.2441 1960.14,47.2441 1961.94,47.2441 1963.75,47.2441 1965.55,47.2441 1967.36,47.2441 1969.16,47.2441 1970.97,47.2441 1972.77,47.2441 1974.58,47.2441 1976.38,47.2441 1978.19,47.2441 1979.99,47.2441 1981.8,47.2441 1983.6,47.2441 1985.4,47.2441 1987.21,47.2441 1989.01,47.2441 1990.82,47.2441 1992.62,47.2441 1994.43,47.2441 1996.23,47.2441 1998.04,47.2441 1999.84,47.2441 2001.65,47.2441 2003.45,47.2441 2005.26,47.2441 2007.06,47.2441 2008.87,47.2441 2010.67,47.2441 "/>
</svg>
