<?xml version="1.0" encoding="utf-8"?>
<svg xmlns="http://www.w3.org/2000/svg" xmlns:xlink="http://www.w3.org/1999/xlink" width="528" height="336" viewBox="0 0 2112 1344">
<defs>
  <clipPath id="clip010">
    <rect x="0" y="0" width="2112" height="1344"/>
  </clipPath>
</defs>
<path clip-path="url(#clip010)" d="M0 1344 L2112 1344 L2112 0 L0 0  Z" fill="#ffffff" fill-rule="evenodd" fill-opacity="1"/>
<defs>
  <clipPath id="clip011">
    <rect x="422" y="0" width="1479" height="1344"/>
  </clipPath>
</defs>
<path clip-path="url(#clip010)" d="M153.718 1222.85 L2064.76 1222.85 L2064.76 47.2441 L153.718 47.2441  Z" fill="#ffffff" fill-rule="evenodd" fill-opacity="1"/>
<defs>
  <clipPath id="clip012">
    <rect x="153" y="47" width="1912" height="1177"/>
  </clipPath>
</defs>
<polyline clip-path="url(#clip012)" style="stroke:#000000; stroke-linecap:round; stroke-linejoin:round; stroke-width:2; stroke-opacity:0.1; fill:none" points="207.786,1222.85 207.786,47.2441 "/>
<polyline clip-path="url(#clip012)" style="stroke:#000000; stroke-linecap:round; stroke-linejoin:round; stroke-width:2; stroke-opacity:0.1; fill:none" points="658.954,1222.85 658.954,47.2441 "/>
<polyline clip-path="url(#clip012)" style="stroke:#000000; stroke-linecap:round; stroke-linejoin:round; stroke-width:2; stroke-opacity:0.1; fill:none" points="1110.12,1222.85 1110.12,47.2441 "/>
<polyline clip-path="url(#clip012)" style="stroke:#000000; stroke-linecap:round; stroke-linejoin:round; stroke-width:2; stroke-opacity:0.1; fill:none" points="1561.29,1222.85 1561.29,47.2441 "/>
<polyline clip-path="url(#clip012)" style="stroke:#000000; stroke-linecap:round; stroke-linejoin:round; stroke-width:2; stroke-opacity:0.1; fill:none" points="2012.46,1222.85 2012.46,47.2441 "/>
<polyline clip-path="url(#clip010)" style="stroke:#000000; stroke-linecap:round; stroke-linejoin:round; stroke-width:4; stroke-opacity:1; fill:none" points="153.718,1222.85 2064.76,1222.85 "/>
<polyline clip-path="url(#clip010)" style="stroke:#000000; stroke-linecap:round; stroke-linejoin:round; stroke-width:4; stroke-opacity:1; fill:none" points="207.786,1222.85 207.786,1203.96 "/>
<polyline clip-path="url(#clip010)" style="stroke:#000000; stroke-linecap:round; stroke-linejoin:round; stroke-width:4; stroke-opacity:1; fill:none" points="658.954,1222.85 658.954,1203.96 "/>
<polyline clip-path="url(#clip010)" style="stroke:#000000; stroke-linecap:round; stroke-linejoin:round; stroke-width:4; stroke-opacity:1; fill:none" points="1110.12,1222.85 1110.12,1203.96 "/>
<polyline clip-path="url(#clip010)" style="stroke:#000000; stroke-linecap:round; stroke-linejoin:round; stroke-width:4; stroke-opacity:1; fill:none" points="1561.29,1222.85 1561.29,1203.96 "/>
<polyline clip-path="url(#clip010)" style="stroke:#000000; stroke-linecap:round; stroke-linejoin:round; stroke-width:4; stroke-opacity:1; fill:none" points="2012.46,1222.85 2012.46,1203.96 "/>
<path clip-path="url(#clip010)" d="M207.786 1251.47 Q204.175 1251.47 202.346 1255.03 Q200.541 1258.58 200.541 1265.7 Q200.541 1272.81 202.346 1276.38 Q204.175 1279.92 207.786 1279.92 Q211.42 1279.92 213.226 1276.38 Q215.055 1272.81 215.055 1265.7 Q215.055 1258.58 213.226 1255.03 Q211.42 1251.47 207.786 1251.47 M207.786 1247.76 Q213.596 1247.76 216.652 1252.37 Q219.731 1256.95 219.731 1265.7 Q219.731 1274.43 216.652 1279.04 Q213.596 1283.62 207.786 1283.62 Q201.976 1283.62 198.897 1279.04 Q195.842 1274.43 195.842 1265.7 Q195.842 1256.95 198.897 1252.37 Q201.976 1247.76 207.786 1247.76 Z" fill="#000000" fill-rule="nonzero" fill-opacity="1" /><path clip-path="url(#clip010)" d="M554.857 1294.67 L571.176 1294.67 L571.176 1298.61 L549.232 1298.61 L549.232 1294.67 Q551.894 1291.92 556.477 1287.29 Q561.084 1282.64 562.264 1281.3 Q564.51 1278.77 565.389 1277.04 Q566.292 1275.28 566.292 1273.59 Q566.292 1270.83 564.348 1269.1 Q562.426 1267.36 559.325 1267.36 Q557.126 1267.36 554.672 1268.12 Q552.241 1268.89 549.464 1270.44 L549.464 1265.72 Q552.288 1264.58 554.741 1264 Q557.195 1263.42 559.232 1263.42 Q564.602 1263.42 567.797 1266.11 Q570.991 1268.8 570.991 1273.29 Q570.991 1275.42 570.181 1277.34 Q569.394 1279.24 567.288 1281.83 Q566.709 1282.5 563.607 1285.72 Q560.505 1288.91 554.857 1294.67 Z" fill="#000000" fill-rule="nonzero" fill-opacity="1" /><path clip-path="url(#clip010)" d="M580.991 1292.73 L585.875 1292.73 L585.875 1298.61 L580.991 1298.61 L580.991 1292.73 Z" fill="#000000" fill-rule="nonzero" fill-opacity="1" /><path clip-path="url(#clip010)" d="M596.107 1264.05 L614.463 1264.05 L614.463 1267.99 L600.389 1267.99 L600.389 1276.46 Q601.408 1276.11 602.426 1275.95 Q603.445 1275.76 604.463 1275.76 Q610.25 1275.76 613.63 1278.93 Q617.01 1282.11 617.01 1287.52 Q617.01 1293.1 613.537 1296.2 Q610.065 1299.28 603.746 1299.28 Q601.57 1299.28 599.301 1298.91 Q597.056 1298.54 594.649 1297.8 L594.649 1293.1 Q596.732 1294.23 598.954 1294.79 Q601.176 1295.35 603.653 1295.35 Q607.658 1295.35 609.996 1293.24 Q612.334 1291.13 612.334 1287.52 Q612.334 1283.91 609.996 1281.8 Q607.658 1279.7 603.653 1279.7 Q601.778 1279.7 599.903 1280.11 Q598.051 1280.53 596.107 1281.41 L596.107 1264.05 Z" fill="#000000" fill-rule="nonzero" fill-opacity="1" /><path clip-path="url(#clip010)" d="M636.222 1267.13 Q632.611 1267.13 630.783 1270.69 Q628.977 1274.24 628.977 1281.36 Q628.977 1288.47 630.783 1292.04 Q632.611 1295.58 636.222 1295.58 Q639.857 1295.58 641.662 1292.04 Q643.491 1288.47 643.491 1281.36 Q643.491 1274.24 641.662 1270.69 Q639.857 1267.13 636.222 1267.13 M636.222 1263.42 Q642.033 1263.42 645.088 1268.03 Q648.167 1272.61 648.167 1281.36 Q648.167 1290.09 645.088 1294.7 Q642.033 1299.28 636.222 1299.28 Q630.412 1299.28 627.334 1294.7 Q624.278 1290.09 624.278 1281.36 Q624.278 1272.61 627.334 1268.03 Q630.412 1263.42 636.222 1263.42 Z" fill="#000000" fill-rule="nonzero" fill-opacity="1" /><path clip-path="url(#clip010)" d="M684.555 1273.15 L673.977 1283.77 L684.555 1294.35 L681.801 1297.15 L671.176 1286.53 L660.551 1297.15 L657.82 1294.35 L668.375 1283.77 L657.82 1273.15 L660.551 1270.35 L671.176 1280.97 L681.801 1270.35 L684.555 1273.15 Z" fill="#000000" fill-rule="nonzero" fill-opacity="1" /><path clip-path="url(#clip010)" d="M696.917 1294.67 L704.555 1294.67 L704.555 1268.31 L696.245 1269.98 L696.245 1265.72 L704.509 1264.05 L709.185 1264.05 L709.185 1294.67 L716.824 1294.67 L716.824 1298.61 L696.917 1298.61 L696.917 1294.67 Z" fill="#000000" fill-rule="nonzero" fill-opacity="1" /><path clip-path="url(#clip010)" d="M736.268 1267.13 Q732.657 1267.13 730.828 1270.69 Q729.023 1274.24 729.023 1281.36 Q729.023 1288.47 730.828 1292.04 Q732.657 1295.58 736.268 1295.58 Q739.902 1295.58 741.708 1292.04 Q743.537 1288.47 743.537 1281.36 Q743.537 1274.24 741.708 1270.69 Q739.902 1267.13 736.268 1267.13 M736.268 1263.42 Q742.078 1263.42 745.134 1268.03 Q748.213 1272.61 748.213 1281.36 Q748.213 1290.09 745.134 1294.7 Q742.078 1299.28 736.268 1299.28 Q730.458 1299.28 727.379 1294.7 Q724.324 1290.09 724.324 1281.36 Q724.324 1272.61 727.379 1268.03 Q730.458 1263.42 736.268 1263.42 Z" fill="#000000" fill-rule="nonzero" fill-opacity="1" /><path clip-path="url(#clip010)" d="M760.889 1246.43 L751.297 1261.42 L760.889 1261.42 L760.889 1246.43 M759.892 1243.12 L764.669 1243.12 L764.669 1261.42 L768.675 1261.42 L768.675 1264.58 L764.669 1264.58 L764.669 1271.2 L760.889 1271.2 L760.889 1264.58 L748.213 1264.58 L748.213 1260.91 L759.892 1243.12 Z" fill="#000000" fill-rule="nonzero" fill-opacity="1" /><path clip-path="url(#clip010)" d="M1001.95 1264.05 L1020.31 1264.05 L1020.31 1267.99 L1006.23 1267.99 L1006.23 1276.46 Q1007.25 1276.11 1008.27 1275.95 Q1009.29 1275.76 1010.31 1275.76 Q1016.09 1275.76 1019.47 1278.93 Q1022.85 1282.11 1022.85 1287.52 Q1022.85 1293.1 1019.38 1296.2 Q1015.91 1299.28 1009.59 1299.28 Q1007.41 1299.28 1005.15 1298.91 Q1002.9 1298.54 1000.49 1297.8 L1000.49 1293.1 Q1002.58 1294.23 1004.8 1294.79 Q1007.02 1295.35 1009.5 1295.35 Q1013.5 1295.35 1015.84 1293.24 Q1018.18 1291.13 1018.18 1287.52 Q1018.18 1283.91 1015.84 1281.8 Q1013.5 1279.7 1009.5 1279.7 Q1007.62 1279.7 1005.75 1280.11 Q1003.9 1280.53 1001.95 1281.41 L1001.95 1264.05 Z" fill="#000000" fill-rule="nonzero" fill-opacity="1" /><path clip-path="url(#clip010)" d="M1032.07 1292.73 L1036.95 1292.73 L1036.95 1298.61 L1032.07 1298.61 L1032.07 1292.73 Z" fill="#000000" fill-rule="nonzero" fill-opacity="1" /><path clip-path="url(#clip010)" d="M1057.14 1267.13 Q1053.52 1267.13 1051.7 1270.69 Q1049.89 1274.24 1049.89 1281.36 Q1049.89 1288.47 1051.7 1292.04 Q1053.52 1295.58 1057.14 1295.58 Q1060.77 1295.58 1062.58 1292.04 Q1064.4 1288.47 1064.4 1281.36 Q1064.4 1274.24 1062.58 1270.69 Q1060.77 1267.13 1057.14 1267.13 M1057.14 1263.42 Q1062.95 1263.42 1066 1268.03 Q1069.08 1272.61 1069.08 1281.36 Q1069.08 1290.09 1066 1294.7 Q1062.95 1299.28 1057.14 1299.28 Q1051.33 1299.28 1048.25 1294.7 Q1045.19 1290.09 1045.19 1281.36 Q1045.19 1272.61 1048.25 1268.03 Q1051.33 1263.42 1057.14 1263.42 Z" fill="#000000" fill-rule="nonzero" fill-opacity="1" /><path clip-path="url(#clip010)" d="M1087.3 1267.13 Q1083.69 1267.13 1081.86 1270.69 Q1080.05 1274.24 1080.05 1281.36 Q1080.05 1288.47 1081.86 1292.04 Q1083.69 1295.58 1087.3 1295.58 Q1090.93 1295.58 1092.74 1292.04 Q1094.57 1288.47 1094.57 1281.36 Q1094.57 1274.24 1092.74 1270.69 Q1090.93 1267.13 1087.3 1267.13 M1087.3 1263.42 Q1093.11 1263.42 1096.16 1268.03 Q1099.24 1272.61 1099.24 1281.36 Q1099.24 1290.09 1096.16 1294.7 Q1093.11 1299.28 1087.3 1299.28 Q1081.49 1299.28 1078.41 1294.7 Q1075.35 1290.09 1075.35 1281.36 Q1075.35 1272.61 1078.41 1268.03 Q1081.49 1263.42 1087.3 1263.42 Z" fill="#000000" fill-rule="nonzero" fill-opacity="1" /><path clip-path="url(#clip010)" d="M1135.63 1273.15 L1125.05 1283.77 L1135.63 1294.35 L1132.88 1297.15 L1122.25 1286.53 L1111.63 1297.15 L1108.89 1294.35 L1119.45 1283.77 L1108.89 1273.15 L1111.63 1270.35 L1122.25 1280.97 L1132.88 1270.35 L1135.63 1273.15 Z" fill="#000000" fill-rule="nonzero" fill-opacity="1" /><path clip-path="url(#clip010)" d="M1147.99 1294.67 L1155.63 1294.67 L1155.63 1268.31 L1147.32 1269.98 L1147.32 1265.72 L1155.58 1264.05 L1160.26 1264.05 L1160.26 1294.67 L1167.9 1294.67 L1167.9 1298.61 L1147.99 1298.61 L1147.99 1294.67 Z" fill="#000000" fill-rule="nonzero" fill-opacity="1" /><path clip-path="url(#clip010)" d="M1187.34 1267.13 Q1183.73 1267.13 1181.9 1270.69 Q1180.1 1274.24 1180.1 1281.36 Q1180.1 1288.47 1181.9 1292.04 Q1183.73 1295.58 1187.34 1295.58 Q1190.98 1295.58 1192.78 1292.04 Q1194.61 1288.47 1194.61 1281.36 Q1194.61 1274.24 1192.78 1270.69 Q1190.98 1267.13 1187.34 1267.13 M1187.34 1263.42 Q1193.15 1263.42 1196.21 1268.03 Q1199.29 1272.61 1199.29 1281.36 Q1199.29 1290.09 1196.21 1294.7 Q1193.15 1299.28 1187.34 1299.28 Q1181.53 1299.28 1178.45 1294.7 Q1175.4 1290.09 1175.4 1281.36 Q1175.4 1272.61 1178.45 1268.03 Q1181.53 1263.42 1187.34 1263.42 Z" fill="#000000" fill-rule="nonzero" fill-opacity="1" /><path clip-path="url(#clip010)" d="M1211.96 1246.43 L1202.37 1261.42 L1211.96 1261.42 L1211.96 1246.43 M1210.97 1243.12 L1215.74 1243.12 L1215.74 1261.42 L1219.75 1261.42 L1219.75 1264.58 L1215.74 1264.58 L1215.74 1271.2 L1211.96 1271.2 L1211.96 1264.58 L1199.29 1264.58 L1199.29 1260.91 L1210.97 1243.12 Z" fill="#000000" fill-rule="nonzero" fill-opacity="1" /><path clip-path="url(#clip010)" d="M1451.78 1264.05 L1474 1264.05 L1474 1266.04 L1461.45 1298.61 L1456.57 1298.61 L1468.37 1267.99 L1451.78 1267.99 L1451.78 1264.05 Z" fill="#000000" fill-rule="nonzero" fill-opacity="1" /><path clip-path="url(#clip010)" d="M1483.12 1292.73 L1488 1292.73 L1488 1298.61 L1483.12 1298.61 L1483.12 1292.73 Z" fill="#000000" fill-rule="nonzero" fill-opacity="1" /><path clip-path="url(#clip010)" d="M1498.23 1264.05 L1516.59 1264.05 L1516.59 1267.99 L1502.52 1267.99 L1502.52 1276.46 Q1503.53 1276.11 1504.55 1275.95 Q1505.57 1275.76 1506.59 1275.76 Q1512.38 1275.76 1515.76 1278.93 Q1519.14 1282.11 1519.14 1287.52 Q1519.14 1293.1 1515.66 1296.2 Q1512.19 1299.28 1505.87 1299.28 Q1503.7 1299.28 1501.43 1298.91 Q1499.18 1298.54 1496.78 1297.8 L1496.78 1293.1 Q1498.86 1294.23 1501.08 1294.79 Q1503.3 1295.35 1505.78 1295.35 Q1509.78 1295.35 1512.12 1293.24 Q1514.46 1291.13 1514.46 1287.52 Q1514.46 1283.91 1512.12 1281.8 Q1509.78 1279.7 1505.78 1279.7 Q1503.91 1279.7 1502.03 1280.11 Q1500.18 1280.53 1498.23 1281.41 L1498.23 1264.05 Z" fill="#000000" fill-rule="nonzero" fill-opacity="1" /><path clip-path="url(#clip010)" d="M1538.35 1267.13 Q1534.74 1267.13 1532.91 1270.69 Q1531.1 1274.24 1531.1 1281.36 Q1531.1 1288.47 1532.91 1292.04 Q1534.74 1295.58 1538.35 1295.58 Q1541.98 1295.58 1543.79 1292.04 Q1545.62 1288.47 1545.62 1281.36 Q1545.62 1274.24 1543.79 1270.69 Q1541.98 1267.13 1538.35 1267.13 M1538.35 1263.42 Q1544.16 1263.42 1547.21 1268.03 Q1550.29 1272.61 1550.29 1281.36 Q1550.29 1290.09 1547.21 1294.7 Q1544.16 1299.28 1538.35 1299.28 Q1532.54 1299.28 1529.46 1294.7 Q1526.4 1290.09 1526.4 1281.36 Q1526.4 1272.61 1529.46 1268.03 Q1532.54 1263.42 1538.35 1263.42 Z" fill="#000000" fill-rule="nonzero" fill-opacity="1" /><path clip-path="url(#clip010)" d="M1586.68 1273.15 L1576.1 1283.77 L1586.68 1294.35 L1583.93 1297.15 L1573.3 1286.53 L1562.68 1297.15 L1559.95 1294.35 L1570.5 1283.77 L1559.95 1273.15 L1562.68 1270.35 L1573.3 1280.97 L1583.93 1270.35 L1586.68 1273.15 Z" fill="#000000" fill-rule="nonzero" fill-opacity="1" /><path clip-path="url(#clip010)" d="M1599.04 1294.67 L1606.68 1294.67 L1606.68 1268.31 L1598.37 1269.98 L1598.37 1265.72 L1606.64 1264.05 L1611.31 1264.05 L1611.31 1294.67 L1618.95 1294.67 L1618.95 1298.61 L1599.04 1298.61 L1599.04 1294.67 Z" fill="#000000" fill-rule="nonzero" fill-opacity="1" /><path clip-path="url(#clip010)" d="M1638.4 1267.13 Q1634.78 1267.13 1632.96 1270.69 Q1631.15 1274.24 1631.15 1281.36 Q1631.15 1288.47 1632.96 1292.04 Q1634.78 1295.58 1638.4 1295.58 Q1642.03 1295.58 1643.83 1292.04 Q1645.66 1288.47 1645.66 1281.36 Q1645.66 1274.24 1643.83 1270.69 Q1642.03 1267.13 1638.4 1267.13 M1638.4 1263.42 Q1644.21 1263.42 1647.26 1268.03 Q1650.34 1272.61 1650.34 1281.36 Q1650.34 1290.09 1647.26 1294.7 Q1644.21 1299.28 1638.4 1299.28 Q1632.58 1299.28 1629.51 1294.7 Q1626.45 1290.09 1626.45 1281.36 Q1626.45 1272.61 1629.51 1268.03 Q1632.58 1263.42 1638.4 1263.42 Z" fill="#000000" fill-rule="nonzero" fill-opacity="1" /><path clip-path="url(#clip010)" d="M1663.02 1246.43 L1653.42 1261.42 L1663.02 1261.42 L1663.02 1246.43 M1662.02 1243.12 L1666.8 1243.12 L1666.8 1261.42 L1670.8 1261.42 L1670.8 1264.58 L1666.8 1264.58 L1666.8 1271.2 L1663.02 1271.2 L1663.02 1264.58 L1650.34 1264.58 L1650.34 1260.91 L1662.02 1243.12 Z" fill="#000000" fill-rule="nonzero" fill-opacity="1" /><path clip-path="url(#clip010)" d="M1905.42 1294.67 L1913.06 1294.67 L1913.06 1268.31 L1904.75 1269.98 L1904.75 1265.72 L1913.01 1264.05 L1917.69 1264.05 L1917.69 1294.67 L1925.33 1294.67 L1925.33 1298.61 L1905.42 1298.61 L1905.42 1294.67 Z" fill="#000000" fill-rule="nonzero" fill-opacity="1" /><path clip-path="url(#clip010)" d="M1934.77 1292.73 L1939.66 1292.73 L1939.66 1298.61 L1934.77 1298.61 L1934.77 1292.73 Z" fill="#000000" fill-rule="nonzero" fill-opacity="1" /><path clip-path="url(#clip010)" d="M1959.84 1267.13 Q1956.23 1267.13 1954.4 1270.69 Q1952.6 1274.24 1952.6 1281.36 Q1952.6 1288.47 1954.4 1292.04 Q1956.23 1295.58 1959.84 1295.58 Q1963.48 1295.58 1965.28 1292.04 Q1967.11 1288.47 1967.11 1281.36 Q1967.11 1274.24 1965.28 1270.69 Q1963.48 1267.13 1959.84 1267.13 M1959.84 1263.42 Q1965.65 1263.42 1968.71 1268.03 Q1971.79 1272.61 1971.79 1281.36 Q1971.79 1290.09 1968.71 1294.7 Q1965.65 1299.28 1959.84 1299.28 Q1954.03 1299.28 1950.95 1294.7 Q1947.9 1290.09 1947.9 1281.36 Q1947.9 1272.61 1950.95 1268.03 Q1954.03 1263.42 1959.84 1263.42 Z" fill="#000000" fill-rule="nonzero" fill-opacity="1" /><path clip-path="url(#clip010)" d="M1990 1267.13 Q1986.39 1267.13 1984.56 1270.69 Q1982.76 1274.24 1982.76 1281.36 Q1982.76 1288.47 1984.56 1292.04 Q1986.39 1295.58 1990 1295.58 Q1993.64 1295.58 1995.44 1292.04 Q1997.27 1288.47 1997.27 1281.36 Q1997.27 1274.24 1995.44 1270.69 Q1993.64 1267.13 1990 1267.13 M1990 1263.42 Q1995.81 1263.42 1998.87 1268.03 Q2001.95 1272.61 2001.95 1281.36 Q2001.95 1290.09 1998.87 1294.7 Q1995.81 1299.28 1990 1299.28 Q1984.19 1299.28 1981.12 1294.7 Q1978.06 1290.09 1978.06 1281.36 Q1978.06 1272.61 1981.12 1268.03 Q1984.19 1263.42 1990 1263.42 Z" fill="#000000" fill-rule="nonzero" fill-opacity="1" /><path clip-path="url(#clip010)" d="M2038.34 1273.15 L2027.76 1283.77 L2038.34 1294.35 L2035.58 1297.15 L2024.96 1286.53 L2014.33 1297.15 L2011.6 1294.35 L2022.16 1283.77 L2011.6 1273.15 L2014.33 1270.35 L2024.96 1280.97 L2035.58 1270.35 L2038.34 1273.15 Z" fill="#000000" fill-rule="nonzero" fill-opacity="1" /><path clip-path="url(#clip010)" d="M2050.7 1294.67 L2058.34 1294.67 L2058.34 1268.31 L2050.03 1269.98 L2050.03 1265.72 L2058.29 1264.05 L2062.97 1264.05 L2062.97 1294.67 L2070.61 1294.67 L2070.61 1298.61 L2050.7 1298.61 L2050.7 1294.67 Z" fill="#000000" fill-rule="nonzero" fill-opacity="1" /><path clip-path="url(#clip010)" d="M2090.05 1267.13 Q2086.44 1267.13 2084.61 1270.69 Q2082.8 1274.24 2082.8 1281.36 Q2082.8 1288.47 2084.61 1292.04 Q2086.44 1295.58 2090.05 1295.58 Q2093.68 1295.58 2095.49 1292.04 Q2097.32 1288.47 2097.32 1281.36 Q2097.32 1274.24 2095.49 1270.69 Q2093.68 1267.13 2090.05 1267.13 M2090.05 1263.42 Q2095.86 1263.42 2098.92 1268.03 Q2101.99 1272.61 2101.99 1281.36 Q2101.99 1290.09 2098.92 1294.7 Q2095.86 1299.28 2090.05 1299.28 Q2084.24 1299.28 2081.16 1294.7 Q2078.11 1290.09 2078.11 1281.36 Q2078.11 1272.61 2081.16 1268.03 Q2084.24 1263.42 2090.05 1263.42 Z" fill="#000000" fill-rule="nonzero" fill-opacity="1" /><path clip-path="url(#clip010)" d="M2103.18 1243.12 L2118.09 1243.12 L2118.09 1246.32 L2106.66 1246.32 L2106.66 1253.2 Q2107.49 1252.92 2108.31 1252.79 Q2109.14 1252.64 2109.97 1252.64 Q2114.67 1252.64 2117.42 1255.21 Q2120.16 1257.79 2120.16 1262.19 Q2120.16 1266.72 2117.34 1269.24 Q2114.52 1271.74 2109.39 1271.74 Q2107.62 1271.74 2105.77 1271.44 Q2103.95 1271.14 2101.99 1270.54 L2101.99 1266.72 Q2103.69 1267.64 2105.49 1268.1 Q2107.3 1268.55 2109.31 1268.55 Q2112.56 1268.55 2114.46 1266.84 Q2116.36 1265.12 2116.36 1262.19 Q2116.36 1259.26 2114.46 1257.55 Q2112.56 1255.83 2109.31 1255.83 Q2107.79 1255.83 2106.26 1256.17 Q2104.76 1256.51 2103.18 1257.23 L2103.18 1243.12 Z" fill="#000000" fill-rule="nonzero" fill-opacity="1" /><polyline clip-path="url(#clip012)" style="stroke:#000000; stroke-linecap:round; stroke-linejoin:round; stroke-width:2; stroke-opacity:0.1; fill:none" points="153.718,1222.85 2064.76,1222.85 "/>
<polyline clip-path="url(#clip012)" style="stroke:#000000; stroke-linecap:round; stroke-linejoin:round; stroke-width:2; stroke-opacity:0.1; fill:none" points="153.718,987.732 2064.76,987.732 "/>
<polyline clip-path="url(#clip012)" style="stroke:#000000; stroke-linecap:round; stroke-linejoin:round; stroke-width:2; stroke-opacity:0.1; fill:none" points="153.718,752.61 2064.76,752.61 "/>
<polyline clip-path="url(#clip012)" style="stroke:#000000; stroke-linecap:round; stroke-linejoin:round; stroke-width:2; stroke-opacity:0.1; fill:none" points="153.718,517.488 2064.76,517.488 "/>
<polyline clip-path="url(#clip012)" style="stroke:#000000; stroke-linecap:round; stroke-linejoin:round; stroke-width:2; stroke-opacity:0.1; fill:none" points="153.718,282.366 2064.76,282.366 "/>
<polyline clip-path="url(#clip012)" style="stroke:#000000; stroke-linecap:round; stroke-linejoin:round; stroke-width:2; stroke-opacity:0.1; fill:none" points="153.718,47.2441 2064.76,47.2441 "/>
<polyline clip-path="url(#clip010)" style="stroke:#000000; stroke-linecap:round; stroke-linejoin:round; stroke-width:4; stroke-opacity:1; fill:none" points="153.718,1222.85 153.718,47.2441 "/>
<polyline clip-path="url(#clip010)" style="stroke:#000000; stroke-linecap:round; stroke-linejoin:round; stroke-width:4; stroke-opacity:1; fill:none" points="153.718,1222.85 172.616,1222.85 "/>
<polyline clip-path="url(#clip010)" style="stroke:#000000; stroke-linecap:round; stroke-linejoin:round; stroke-width:4; stroke-opacity:1; fill:none" points="153.718,987.732 172.616,987.732 "/>
<polyline clip-path="url(#clip010)" style="stroke:#000000; stroke-linecap:round; stroke-linejoin:round; stroke-width:4; stroke-opacity:1; fill:none" points="153.718,752.61 172.616,752.61 "/>
<polyline clip-path="url(#clip010)" style="stroke:#000000; stroke-linecap:round; stroke-linejoin:round; stroke-width:4; stroke-opacity:1; fill:none" points="153.718,517.488 172.616,517.488 "/>
<polyline clip-path="url(#clip010)" style="stroke:#000000; stroke-linecap:round; stroke-linejoin:round; stroke-width:4; stroke-opacity:1; fill:none" points="153.718,282.366 172.616,282.366 "/>
<polyline clip-path="url(#clip010)" style="stroke:#000000; stroke-linecap:round; stroke-linejoin:round; stroke-width:4; stroke-opacity:1; fill:none" points="153.718,47.2441 172.616,47.2441 "/>
<path clip-path="url(#clip010)" d="M64.8626 1208.65 Q61.2515 1208.65 59.4228 1212.22 Q57.6173 1215.76 57.6173 1222.89 Q57.6173 1230 59.4228 1233.56 Q61.2515 1237.1 64.8626 1237.1 Q68.4969 1237.1 70.3024 1233.56 Q72.1311 1230 72.1311 1222.89 Q72.1311 1215.76 70.3024 1212.22 Q68.4969 1208.65 64.8626 1208.65 M64.8626 1204.95 Q70.6728 1204.95 73.7283 1209.56 Q76.807 1214.14 76.807 1222.89 Q76.807 1231.62 73.7283 1236.22 Q70.6728 1240.81 64.8626 1240.81 Q59.0525 1240.81 55.9738 1236.22 Q52.9182 1231.62 52.9182 1222.89 Q52.9182 1214.14 55.9738 1209.56 Q59.0525 1204.95 64.8626 1204.95 Z" fill="#000000" fill-rule="nonzero" fill-opacity="1" /><path clip-path="url(#clip010)" d="M85.0245 1234.25 L89.9088 1234.25 L89.9088 1240.13 L85.0245 1240.13 L85.0245 1234.25 Z" fill="#000000" fill-rule="nonzero" fill-opacity="1" /><path clip-path="url(#clip010)" d="M110.094 1208.65 Q106.483 1208.65 104.654 1212.22 Q102.849 1215.76 102.849 1222.89 Q102.849 1230 104.654 1233.56 Q106.483 1237.1 110.094 1237.1 Q113.728 1237.1 115.534 1233.56 Q117.362 1230 117.362 1222.89 Q117.362 1215.76 115.534 1212.22 Q113.728 1208.65 110.094 1208.65 M110.094 1204.95 Q115.904 1204.95 118.96 1209.56 Q122.038 1214.14 122.038 1222.89 Q122.038 1231.62 118.96 1236.22 Q115.904 1240.81 110.094 1240.81 Q104.284 1240.81 101.205 1236.22 Q98.1495 1231.62 98.1495 1222.89 Q98.1495 1214.14 101.205 1209.56 Q104.284 1204.95 110.094 1204.95 Z" fill="#000000" fill-rule="nonzero" fill-opacity="1" /><path clip-path="url(#clip010)" d="M66.4598 973.531 Q62.8487 973.531 61.02 977.095 Q59.2145 980.637 59.2145 987.767 Q59.2145 994.873 61.02 998.438 Q62.8487 1001.98 66.4598 1001.98 Q70.0941 1001.98 71.8996 998.438 Q73.7283 994.873 73.7283 987.767 Q73.7283 980.637 71.8996 977.095 Q70.0941 973.531 66.4598 973.531 M66.4598 969.827 Q72.27 969.827 75.3255 974.433 Q78.4042 979.017 78.4042 987.767 Q78.4042 996.493 75.3255 1001.1 Q72.27 1005.68 66.4598 1005.68 Q60.6497 1005.68 57.571 1001.1 Q54.5154 996.493 54.5154 987.767 Q54.5154 979.017 57.571 974.433 Q60.6497 969.827 66.4598 969.827 Z" fill="#000000" fill-rule="nonzero" fill-opacity="1" /><path clip-path="url(#clip010)" d="M86.6218 999.132 L91.506 999.132 L91.506 1005.01 L86.6218 1005.01 L86.6218 999.132 Z" fill="#000000" fill-rule="nonzero" fill-opacity="1" /><path clip-path="url(#clip010)" d="M105.719 1001.08 L122.038 1001.08 L122.038 1005.01 L100.094 1005.01 L100.094 1001.08 Q102.756 998.322 107.339 993.693 Q111.946 989.04 113.126 987.697 Q115.372 985.174 116.251 983.438 Q117.154 981.679 117.154 979.989 Q117.154 977.234 115.21 975.498 Q113.288 973.762 110.186 973.762 Q107.987 973.762 105.534 974.526 Q103.103 975.29 100.325 976.841 L100.325 972.119 Q103.149 970.984 105.603 970.406 Q108.057 969.827 110.094 969.827 Q115.464 969.827 118.659 972.512 Q121.853 975.197 121.853 979.688 Q121.853 981.818 121.043 983.739 Q120.256 985.637 118.149 988.23 Q117.571 988.901 114.469 992.118 Q111.367 995.313 105.719 1001.08 Z" fill="#000000" fill-rule="nonzero" fill-opacity="1" /><path clip-path="url(#clip010)" d="M64.3765 738.409 Q60.7654 738.409 58.9367 741.973 Q57.1312 745.515 57.1312 752.645 Q57.1312 759.751 58.9367 763.316 Q60.7654 766.858 64.3765 766.858 Q68.0107 766.858 69.8163 763.316 Q71.645 759.751 71.645 752.645 Q71.645 745.515 69.8163 741.973 Q68.0107 738.409 64.3765 738.409 M64.3765 734.705 Q70.1867 734.705 73.2422 739.311 Q76.3209 743.895 76.3209 752.645 Q76.3209 761.372 73.2422 765.978 Q70.1867 770.561 64.3765 770.561 Q58.5664 770.561 55.4877 765.978 Q52.4321 761.372 52.4321 752.645 Q52.4321 743.895 55.4877 739.311 Q58.5664 734.705 64.3765 734.705 Z" fill="#000000" fill-rule="nonzero" fill-opacity="1" /><path clip-path="url(#clip010)" d="M84.5384 764.01 L89.4227 764.01 L89.4227 769.89 L84.5384 769.89 L84.5384 764.01 Z" fill="#000000" fill-rule="nonzero" fill-opacity="1" /><path clip-path="url(#clip010)" d="M112.455 739.404 L100.649 757.853 L112.455 757.853 L112.455 739.404 M111.228 735.33 L117.108 735.33 L117.108 757.853 L122.038 757.853 L122.038 761.742 L117.108 761.742 L117.108 769.89 L112.455 769.89 L112.455 761.742 L96.8532 761.742 L96.8532 757.228 L111.228 735.33 Z" fill="#000000" fill-rule="nonzero" fill-opacity="1" /><path clip-path="url(#clip010)" d="M64.7006 503.287 Q61.0895 503.287 59.2608 506.852 Q57.4552 510.393 57.4552 517.523 Q57.4552 524.629 59.2608 528.194 Q61.0895 531.736 64.7006 531.736 Q68.3348 531.736 70.1404 528.194 Q71.9691 524.629 71.9691 517.523 Q71.9691 510.393 70.1404 506.852 Q68.3348 503.287 64.7006 503.287 M64.7006 499.583 Q70.5107 499.583 73.5663 504.189 Q76.645 508.773 76.645 517.523 Q76.645 526.25 73.5663 530.856 Q70.5107 535.439 64.7006 535.439 Q58.8904 535.439 55.8117 530.856 Q52.7562 526.25 52.7562 517.523 Q52.7562 508.773 55.8117 504.189 Q58.8904 499.583 64.7006 499.583 Z" fill="#000000" fill-rule="nonzero" fill-opacity="1" /><path clip-path="url(#clip010)" d="M84.8625 528.888 L89.7467 528.888 L89.7467 534.768 L84.8625 534.768 L84.8625 528.888 Z" fill="#000000" fill-rule="nonzero" fill-opacity="1" /><path clip-path="url(#clip010)" d="M110.511 515.625 Q107.362 515.625 105.511 517.777 Q103.682 519.93 103.682 523.68 Q103.682 527.407 105.511 529.583 Q107.362 531.736 110.511 531.736 Q113.659 531.736 115.487 529.583 Q117.339 527.407 117.339 523.68 Q117.339 519.93 115.487 517.777 Q113.659 515.625 110.511 515.625 M119.793 500.972 L119.793 505.231 Q118.034 504.398 116.228 503.958 Q114.446 503.518 112.686 503.518 Q108.057 503.518 105.603 506.643 Q103.173 509.768 102.825 516.088 Q104.191 514.074 106.251 513.009 Q108.311 511.921 110.788 511.921 Q115.997 511.921 119.006 515.092 Q122.038 518.24 122.038 523.68 Q122.038 529.004 118.89 532.222 Q115.742 535.439 110.511 535.439 Q104.515 535.439 101.344 530.856 Q98.1726 526.25 98.1726 517.523 Q98.1726 509.328 102.061 504.467 Q105.95 499.583 112.501 499.583 Q114.26 499.583 116.043 499.93 Q117.848 500.277 119.793 500.972 Z" fill="#000000" fill-rule="nonzero" fill-opacity="1" /><path clip-path="url(#clip010)" d="M64.9552 268.165 Q61.3441 268.165 59.5154 271.73 Q57.7099 275.271 57.7099 282.401 Q57.7099 289.507 59.5154 293.072 Q61.3441 296.614 64.9552 296.614 Q68.5894 296.614 70.395 293.072 Q72.2237 289.507 72.2237 282.401 Q72.2237 275.271 70.395 271.73 Q68.5894 268.165 64.9552 268.165 M64.9552 264.461 Q70.7654 264.461 73.8209 269.068 Q76.8996 273.651 76.8996 282.401 Q76.8996 291.128 73.8209 295.734 Q70.7654 300.317 64.9552 300.317 Q59.1451 300.317 56.0664 295.734 Q53.0108 291.128 53.0108 282.401 Q53.0108 273.651 56.0664 269.068 Q59.1451 264.461 64.9552 264.461 Z" fill="#000000" fill-rule="nonzero" fill-opacity="1" /><path clip-path="url(#clip010)" d="M85.1171 293.766 L90.0014 293.766 L90.0014 299.646 L85.1171 299.646 L85.1171 293.766 Z" fill="#000000" fill-rule="nonzero" fill-opacity="1" /><path clip-path="url(#clip010)" d="M110.186 283.234 Q106.853 283.234 104.932 285.017 Q103.034 286.799 103.034 289.924 Q103.034 293.049 104.932 294.831 Q106.853 296.614 110.186 296.614 Q113.52 296.614 115.441 294.831 Q117.362 293.026 117.362 289.924 Q117.362 286.799 115.441 285.017 Q113.543 283.234 110.186 283.234 M105.511 281.243 Q102.501 280.503 100.811 278.442 Q99.1448 276.382 99.1448 273.419 Q99.1448 269.276 102.085 266.868 Q105.048 264.461 110.186 264.461 Q115.348 264.461 118.288 266.868 Q121.228 269.276 121.228 273.419 Q121.228 276.382 119.538 278.442 Q117.872 280.503 114.885 281.243 Q118.265 282.03 120.14 284.322 Q122.038 286.614 122.038 289.924 Q122.038 294.947 118.96 297.632 Q115.904 300.317 110.186 300.317 Q104.469 300.317 101.39 297.632 Q98.3347 294.947 98.3347 289.924 Q98.3347 286.614 100.233 284.322 Q102.131 282.03 105.511 281.243 M103.798 273.859 Q103.798 276.544 105.464 278.049 Q107.154 279.554 110.186 279.554 Q113.196 279.554 114.885 278.049 Q116.598 276.544 116.598 273.859 Q116.598 271.174 114.885 269.669 Q113.196 268.165 110.186 268.165 Q107.154 268.165 105.464 269.669 Q103.798 271.174 103.798 273.859 Z" fill="#000000" fill-rule="nonzero" fill-opacity="1" /><path clip-path="url(#clip010)" d="M55.6728 60.5889 L63.3117 60.5889 L63.3117 34.2233 L55.0016 35.89 L55.0016 31.6308 L63.2654 29.9641 L67.9413 29.9641 L67.9413 60.5889 L75.5802 60.5889 L75.5802 64.5241 L55.6728 64.5241 L55.6728 60.5889 Z" fill="#000000" fill-rule="nonzero" fill-opacity="1" /><path clip-path="url(#clip010)" d="M85.0245 58.6445 L89.9088 58.6445 L89.9088 64.5241 L85.0245 64.5241 L85.0245 58.6445 Z" fill="#000000" fill-rule="nonzero" fill-opacity="1" /><path clip-path="url(#clip010)" d="M110.094 33.0428 Q106.483 33.0428 104.654 36.6076 Q102.849 40.1492 102.849 47.2788 Q102.849 54.3853 104.654 57.9501 Q106.483 61.4917 110.094 61.4917 Q113.728 61.4917 115.534 57.9501 Q117.362 54.3853 117.362 47.2788 Q117.362 40.1492 115.534 36.6076 Q113.728 33.0428 110.094 33.0428 M110.094 29.3391 Q115.904 29.3391 118.96 33.9456 Q122.038 38.5289 122.038 47.2788 Q122.038 56.0056 118.96 60.6121 Q115.904 65.1954 110.094 65.1954 Q104.284 65.1954 101.205 60.6121 Q98.1495 56.0056 98.1495 47.2788 Q98.1495 38.5289 101.205 33.9456 Q104.284 29.3391 110.094 29.3391 Z" fill="#000000" fill-rule="nonzero" fill-opacity="1" /><polyline clip-path="url(#clip012)" style="stroke:#009af9; stroke-linecap:round; stroke-linejoin:round; stroke-width:4; stroke-opacity:1; fill:none" points="207.804,1105.32 209.609,1104.39 211.414,1105.35 213.218,1106.04 215.023,1106.06 216.828,1107.46 218.632,1108.59 220.437,1109.94 222.242,1110.05 224.046,1109.94 225.851,1110.05 227.656,1110.2 229.46,1111.3 231.265,1111.88 233.07,1112.97 234.874,1114.15 236.679,1114.64 238.484,1114.17 240.288,1114.49 242.093,1115.46 243.898,1116.66 245.702,1118.52 247.507,1119.14 249.312,1119.97 251.116,1120.32 252.921,1121.52 254.726,1120.02 256.53,1120.02 258.335,1120.14 260.14,1120.34 261.944,1121.32 263.749,1122.39 265.554,1123.01 267.358,1123.13 269.163,1123.94 270.968,1124.96 272.772,1125.31 274.577,1126.05 276.382,1126.8 278.186,1127.02 279.991,1127.09 281.796,1127.87 283.6,1128.82 285.405,1129.52 287.21,1130.24 289.014,1130.24 290.819,1131.83 292.624,1132.32 294.428,1133.36 296.233,1134.7 298.038,1135.74 299.842,1135.3 301.647,1135.21 303.452,1135.53 305.256,1136.11 307.061,1136.87 308.866,1137.23 310.67,1137.53 312.475,1138.1 314.28,1137.89 316.084,1137.44 317.889,1137.24 319.694,1136.94 321.498,1138.15 323.303,1138.97 325.108,1139.29 326.912,1139.22 328.717,1139.97 330.522,1140.9 332.326,1141.77 334.131,1141.28 335.936,1141.76 337.74,1142.43 339.545,1143.58 341.35,1143.67 343.154,1144.06 344.959,1143.46 346.764,1144.11 348.568,1144.22 350.373,1144.17 352.178,1145.26 353.983,1145.59 355.787,1146.64 357.592,1147.72 359.397,1148.72 361.201,1148.95 363.006,1149.62 364.811,1150.16 366.615,1151.28 368.42,1151.05 370.225,1151.51 372.029,1152.46 373.834,1152.89 375.639,1153.34 377.443,1153.14 379.248,1152.85 381.053,1153.74 382.857,1153.49 384.662,1153.7 386.467,1153.69 388.271,1153.5 390.076,1152.76 391.881,1154 393.685,1153.93 395.49,1154.59 397.295,1154.04 399.099,1155.13 400.904,1155.56 402.709,1155.15 404.513,1155.15 406.318,1156.23 408.123,1156.65 409.927,1156.99 411.732,1157.28 413.537,1157.64 415.341,1157.78 417.146,1158.37 418.951,1158.81 420.755,1159.58 422.56,1160.33 424.365,1160.46 426.169,1160.96 427.974,1160.43 429.779,1161.05 431.583,1161.33 433.388,1161.58 435.193,1160.94 436.997,1161.44 438.802,1161.73 440.607,1161.03 442.411,1161.38 444.216,1162.19 446.021,1162.2 447.825,1163.1 449.63,1163.55 451.435,1163.8 453.239,1163.91 455.044,1164.39 456.849,1164.62 458.653,1164.18 460.458,1164.6 462.263,1164.61 464.067,1165.55 465.872,1166.25 467.677,1167.39 469.481,1167.8 471.286,1168.64 473.091,1168.98 474.895,1168.87 476.7,1168.71 478.505,1169.15 480.309,1169.08 482.114,1170 483.919,1170.82 485.723,1171.33 487.528,1171.66 489.333,1172.25 491.137,1172.56 492.942,1172.85 494.747,1173.21 496.551,1173.52 498.356,1172.87 500.161,1173.12 501.965,1173.18 503.77,1173.68 505.575,1173.69 507.379,1174.14 509.184,1175.11 510.989,1175.13 512.794,1175.83 514.598,1176.47 516.403,1176.7 518.208,1177.4 520.012,1176.74 521.817,1177.71 523.622,1177.45 525.426,1177.45 527.231,1177.36 529.036,1177.55 530.84,1178.24 532.645,1178.67 534.45,1178.89 536.254,1179.32 538.059,1179.51 539.864,1179.85 541.668,1180.27 543.473,1180.89 545.278,1181.02 547.082,1180.76 548.887,1180.97 550.692,1181.14 552.496,1181.94 554.301,1182.01 556.106,1182.4 557.91,1182.98 559.715,1183.36 561.52,1183.46 563.324,1183.55 565.129,1183.43 566.934,1183.3 568.738,1182.99 570.543,1183.49 572.348,1183.61 574.152,1184.18 575.957,1183.57 577.762,1184.14 579.566,1184.68 581.371,1184.98 583.176,1185.23 584.98,1185.74 586.785,1185.78 588.59,1186.14 590.394,1185.44 592.199,1185.93 594.004,1185.54 595.808,1185.86 597.613,1185.68 599.418,1185.68 601.222,1186.23 603.027,1186.28 604.832,1186.58 606.636,1186.86 608.441,1187.36 610.246,1187.15 612.05,1187.63 613.855,1187.39 615.66,1187.94 617.464,1187.23 619.269,1187.96 621.074,1188.44 622.878,1188.69 624.683,1188.72 626.488,1189.13 628.292,1189.54 630.097,1189.9 631.902,1190.32 633.706,1190.5 635.511,1190.92 637.316,1190.65 639.12,1191.05 640.925,1191.44 642.73,1191.38 644.534,1192 646.339,1192.37 648.144,1192.95 649.948,1193.08 651.753,1192.73 653.558,1192.21 655.362,1192.57 657.167,1192.42 658.972,1193.03 660.776,1192.93 662.581,1192.8 664.386,1192.71 666.19,1193.29 667.995,1193.1 669.8,1193.19 671.604,1193.79 673.409,1193.41 675.214,1193.59 677.019,1193.98 678.823,1193.95 680.628,1194.27 682.433,1194.59 684.237,1194.77 686.042,1195.32 687.847,1195.18 689.651,1194.61 691.456,1194.34 693.261,1194.43 695.065,1195.01 696.87,1195.34 698.675,1195.82 700.479,1196.42 702.284,1195.83 704.089,1195.93 705.893,1196.21 707.698,1196.5 709.503,1196.12 711.307,1196.34 713.112,1196.57 714.917,1197.12 716.721,1197.4 718.526,1197.41 720.331,1197.97 722.135,1197.97 723.94,1197.97 725.745,1198.23 727.549,1198.51 729.354,1198.85 731.159,1199.28 732.963,1199.36 734.768,1199.78 736.573,1200.02 738.377,1200.02 740.182,1200.23 741.987,1200.49 743.791,1200.43 745.596,1200.65 747.401,1200.66 749.205,1200.82 751.01,1200.97 752.815,1201.42 754.619,1201.63 756.424,1201.84 758.229,1201.73 760.033,1201.24 761.838,1201.38 763.643,1201.82 765.447,1202.01 767.252,1201.96 769.057,1201.91 770.861,1201.84 772.666,1201.79 774.471,1201.7 776.275,1201.89 778.08,1201.83 779.885,1201.94 781.689,1202.37 783.494,1201.85 785.299,1202.29 787.103,1202.03 788.908,1202.43 790.713,1202.62 792.517,1202.53 794.322,1202.92 796.127,1202.83 797.931,1202.78 799.736,1202.71 801.541,1202.86 803.345,1202.97 805.15,1202.69 806.955,1202.86 808.759,1203.04 810.564,1203.18 812.369,1203.36 814.173,1203.29 815.978,1203.43 817.783,1202.46 819.587,1202.38 821.392,1202.57 823.197,1202.29 825.001,1202.73 826.806,1203.16 828.611,1203.32 830.415,1203.65 832.22,1203.58 834.025,1203.12 835.83,1203.25 837.634,1203.22 839.439,1203.32 841.244,1203.16 843.048,1203.54 844.853,1203.99 846.658,1203.68 848.462,1203.58 850.267,1203.68 852.072,1203.67 853.876,1204.04 855.681,1204.19 857.486,1204.57 859.29,1204.68 861.095,1204.85 862.9,1204.76 864.704,1204.9 866.509,1205.04 868.314,1205.37 870.118,1205.48 871.923,1205.57 873.728,1205.69 875.532,1205.8 877.337,1205.87 879.142,1206.15 880.946,1206.25 882.751,1205.89 884.556,1206.25 886.36,1206.34 888.165,1206.65 889.97,1206.99 891.774,1207.29 893.579,1207.58 895.384,1207.63 897.188,1207.45 898.993,1206.84 900.798,1206.91 902.602,1206.8 904.407,1207.13 906.212,1207.23 908.016,1207.29 909.821,1207.36 911.626,1206.5 913.43,1206.81 915.235,1207.17 917.04,1206.78 918.844,1206.92 920.649,1207.03 922.454,1206.88 924.258,1207.17 926.063,1207.47 927.868,1207.58 929.672,1207.89 931.477,1208.17 933.282,1207.77 935.086,1207.83 936.891,1207.68 938.696,1207.95 940.5,1208.26 942.305,1208.57 944.11,1208.61 945.914,1208.41 947.719,1208.68 949.524,1208.71 951.328,1208.78 953.133,1208.86 954.938,1209.13 956.742,1209.4 958.547,1209.43 960.352,1209.66 962.156,1209.68 963.961,1209.73 965.766,1209.76 967.57,1210 969.375,1210.21 971.18,1210.45 972.984,1210.48 974.789,1210.71 976.594,1210.69 978.398,1210.7 980.203,1210.91 982.008,1211.17 983.812,1211.41 985.617,1211.65 987.422,1211.88 989.226,1212.09 991.031,1212.3 992.836,1212.27 994.64,1212.28 996.445,1212.22 998.25,1212.19 1000.05,1211.92 1001.86,1211.92 1003.66,1212.16 1005.47,1212.15 1007.27,1212.39 1009.08,1212.62 1010.88,1212.13 1012.69,1212.32 1014.49,1212.6 1016.3,1212.8 1018.1,1212.76 1019.91,1212.29 1021.71,1212.23 1023.52,1212.2 1025.32,1212.43 1027.12,1212.17 1028.93,1212.09 1030.73,1212.36 1032.54,1212.32 1034.34,1212.55 1036.15,1212.74 1037.95,1212.45 1039.76,1212.65 1041.56,1212.62 1043.37,1212.83 1045.17,1212.54 1046.98,1212.06 1048.78,1212.05 1050.59,1211.97 1052.39,1212.21 1054.19,1211.96 1056,1212.18 1057.8,1212.38 1059.61,1212.15 1061.41,1212.12 1063.22,1211.83 1065.02,1211.36 1066.83,1210.88 1068.63,1211.12 1070.44,1211.37 1072.24,1211.37 1074.05,1211.15 1075.85,1211.35 1077.66,1211.55 1079.46,1211.52 1081.26,1211.74 1083.07,1212.05 1084.87,1212.28 1086.68,1212.46 1088.48,1212.65 1090.29,1212.38 1092.09,1212.37 1093.9,1212.31 1095.7,1212.55 1097.51,1212.76 1099.31,1212.75 1101.12,1212.99 1102.92,1213.18 1104.73,1213.41 1106.53,1213.57 1108.33,1213.29 1110.14,1213.49 1111.94,1213.76 1113.75,1213.28 1115.55,1213.46 1117.36,1212.94 1119.16,1213.13 1120.97,1213.32 1122.77,1213.28 1124.58,1213.46 1126.38,1213.37 1128.19,1213.56 1129.99,1213.52 1131.8,1213.69 1133.6,1213.87 1135.4,1213.83 1137.21,1213.99 1139.01,1213.93 1140.82,1213.64 1142.62,1213.57 1144.43,1213.51 1146.23,1213.51 1148.04,1213.69 1149.84,1213.9 1151.65,1214.03 1153.45,1214.2 1155.26,1213.89 1157.06,1214.06 1158.87,1213.8 1160.67,1213.99 1162.47,1213.92 1164.28,1214.12 1166.08,1214.28 1167.89,1214.44 1169.69,1214.62 1171.5,1214.79 1173.3,1214.99 1175.11,1214.9 1176.91,1215.06 1178.72,1214.96 1180.52,1215.12 1182.33,1215.08 1184.13,1215.21 1185.94,1215.37 1187.74,1215.54 1189.54,1215.64 1191.35,1215.59 1193.15,1215.74 1194.96,1215.64 1196.76,1215.8 1198.57,1215.95 1200.37,1215.86 1202.18,1215.78 1203.98,1215.67 1205.79,1215.79 1207.59,1215.96 1209.4,1216.06 1211.2,1216.18 1213.01,1216.1 1214.81,1216.22 1216.61,1216.35 1218.42,1216.5 1220.22,1216.14 1222.03,1216.27 1223.83,1216.18 1225.64,1216.3 1227.44,1216.2 1229.25,1216.32 1231.05,1216.48 1232.86,1216.62 1234.66,1216.75 1236.47,1216.87 1238.27,1216.95 1240.08,1217.08 1241.88,1217.18 1243.69,1217.07 1245.49,1217.18 1247.29,1217.31 1249.1,1217.41 1250.9,1217.53 1252.71,1217.61 1254.51,1217.49 1256.32,1217.6 1258.12,1217.68 1259.93,1217.54 1261.73,1217.65 1263.54,1217.51 1265.34,1217.63 1267.15,1217.51 1268.95,1217.59 1270.76,1217.7 1272.56,1217.79 1274.36,1217.89 1276.17,1217.98 1277.97,1218.09 1279.78,1218.18 1281.58,1218.28 1283.39,1218.38 1285.19,1218.47 1287,1218.54 1288.8,1218.65 1290.61,1218.5 1292.41,1218.59 1294.22,1218.43 1296.02,1218.48 1297.83,1218.58 1299.63,1218.45 1301.43,1218.32 1303.24,1218.39 1305.04,1218.5 1306.85,1218.57 1308.65,1218.65 1310.46,1218.73 1312.26,1218.79 1314.07,1218.84 1315.87,1218.91 1317.68,1219 1319.48,1219.1 1321.29,1219.2 1323.09,1219.04 1324.9,1219.13 1326.7,1219.2 1328.5,1219.28 1330.31,1219.34 1332.11,1219.42 1333.92,1219.48 1335.72,1219.56 1337.53,1219.62 1339.33,1219.68 1341.14,1219.72 1342.94,1219.78 1344.75,1219.85 1346.55,1219.91 1348.36,1219.96 1350.16,1220.02 1351.97,1220.08 1353.77,1220.13 1355.57,1220.18 1357.38,1220 1359.18,1220.05 1360.99,1220.11 1362.79,1220.16 1364.6,1220.22 1366.4,1220.28 1368.21,1220.32 1370.01,1220.14 1371.82,1219.97 1373.62,1220.02 1375.43,1220.08 1377.23,1220.14 1379.04,1219.96 1380.84,1220.01 1382.64,1220.07 1384.45,1219.89 1386.25,1219.72 1388.06,1219.77 1389.86,1219.82 1391.67,1219.65 1393.47,1219.71 1395.28,1219.78 1397.08,1219.83 1398.89,1219.88 1400.69,1219.72 1402.5,1219.77 1404.3,1219.81 1406.11,1219.88 1407.91,1219.94 1409.71,1220.02 1411.52,1220.06 1413.32,1220.13 1415.13,1220.18 1416.93,1220.23 1418.74,1220.28 1420.54,1220.34 1422.35,1220.4 1424.15,1220.46 1425.96,1220.51 1427.76,1220.54 1429.57,1220.6 1431.37,1220.63 1433.18,1220.66 1434.98,1220.7 1436.78,1220.74 1438.59,1220.78 1440.39,1220.58 1442.2,1220.62 1444,1220.21 1445.81,1220.26 1447.61,1220.3 1449.42,1220.38 1451.22,1220.43 1453.03,1220.47 1454.83,1220.52 1456.64,1220.56 1458.44,1220.6 1460.25,1220.64 1462.05,1220.66 1463.85,1220.7 1465.66,1220.75 1467.46,1220.77 1469.27,1220.83 1471.07,1220.87 1472.88,1220.91 1474.68,1220.95 1476.49,1221 1478.29,1221.03 1480.1,1221.07 1481.9,1220.85 1483.71,1220.89 1485.51,1220.92 1487.32,1220.95 1489.12,1220.99 1490.92,1221.03 1492.73,1221.06 1494.53,1221.09 1496.34,1221.13 1498.14,1221.17 1499.95,1220.97 1501.75,1221.01 1503.56,1220.82 1505.36,1220.86 1507.17,1220.9 1508.97,1220.93 1510.78,1220.74 1512.58,1220.78 1514.39,1220.81 1516.19,1220.85 1517.99,1220.89 1519.8,1220.92 1521.6,1220.96 1523.41,1221 1525.21,1221.04 1527.02,1221.07 1528.82,1221.11 1530.63,1221.14 1532.43,1221.18 1534.24,1220.97 1536.04,1220.99 1537.85,1221.02 1539.65,1221.06 1541.46,1221.09 1543.26,1221.11 1545.06,1221.16 1546.87,1221.19 1548.67,1221.22 1550.48,1221.25 1552.28,1221.29 1554.09,1221.33 1555.89,1221.35 1557.7,1221.38 1559.5,1221.42 1561.31,1221.44 1563.11,1221.24 1564.92,1221.27 1566.72,1221.32 1568.53,1221.36 1570.33,1221.38 1572.14,1221.4 1573.94,1221.44 1575.74,1221.47 1577.55,1221.52 1579.35,1221.54 1581.16,1221.57 1582.96,1221.59 1584.77,1221.63 1586.57,1221.65 1588.38,1221.44 1590.18,1221.48 1591.99,1221.51 1593.79,1221.53 1595.6,1221.55 1597.4,1221.58 1599.21,1221.6 1601.01,1221.62 1602.81,1221.65 1604.62,1221.68 1606.42,1221.71 1608.23,1221.72 1610.03,1221.74 1611.84,1221.76 1613.64,1221.78 1615.45,1221.79 1617.25,1221.82 1619.06,1221.84 1620.86,1221.63 1622.67,1221.65 1624.47,1221.68 1626.28,1221.48 1628.08,1221.26 1629.88,1221.28 1631.69,1221.32 1633.49,1221.36 1635.3,1221.38 1637.1,1221.41 1638.91,1221.24 1640.71,1221.27 1642.52,1221.3 1644.32,1221.33 1646.13,1221.36 1647.93,1221.38 1649.74,1221.18 1651.54,1221.21 1653.35,1221.24 1655.15,1221.26 1656.95,1221.29 1658.76,1221.32 1660.56,1221.12 1662.37,1221.17 1664.17,1221.19 1665.98,1221.21 1667.78,1221.24 1669.59,1221.29 1671.39,1221.3 1673.2,1221.33 1675,1221.36 1676.81,1221.39 1678.61,1221.43 1680.42,1221.45 1682.22,1221.48 1684.02,1221.52 1685.83,1221.54 1687.63,1221.57 1689.44,1221.58 1691.24,1221.61 1693.05,1221.41 1694.85,1221.43 1696.66,1221.45 1698.46,1221.49 1700.27,1221.5 1702.07,1221.51 1703.88,1221.53 1705.68,1221.58 1707.49,1221.62 1709.29,1221.66 1711.09,1221.69 1712.9,1221.69 1714.7,1221.7 1716.51,1221.74 1718.31,1221.77 1720.12,1221.79 1721.92,1221.8 1723.73,1221.82 1725.53,1221.61 1727.34,1221.64 1729.14,1221.66 1730.95,1221.67 1732.75,1221.69 1734.56,1221.71 1736.36,1221.72 1738.16,1221.73 1739.97,1221.76 1741.77,1221.79 1743.58,1221.82 1745.38,1221.84 1747.19,1221.85 1748.99,1221.88 1750.8,1221.91 1752.6,1221.93 1754.41,1221.93 1756.21,1221.96 1758.02,1221.99 1759.82,1222 1761.63,1222.02 1763.43,1222.03 1765.23,1222.05 1767.04,1222.06 1768.84,1222.08 1770.65,1221.86 1772.45,1221.88 1774.26,1221.9 1776.06,1221.92 1777.87,1221.94 1779.67,1221.95 1781.48,1221.96 1783.28,1221.98 1785.09,1222 1786.89,1222.02 1788.7,1222.04 1790.5,1222.06 1792.3,1222.07 1794.11,1222.07 1795.91,1222.11 1797.72,1222.13 1799.52,1222.15 1801.33,1222.16 1803.13,1221.95 1804.94,1221.97 1806.74,1221.99 1808.55,1222 1810.35,1222.01 1812.16,1222.04 1813.96,1222.04 1815.77,1221.82 1817.57,1221.6 1819.37,1221.62 1821.18,1221.64 1822.98,1221.68 1824.79,1221.69 1826.59,1221.72 1828.4,1221.73 1830.2,1221.74 1832.01,1221.76 1833.81,1221.79 1835.62,1221.81 1837.42,1221.83 1839.23,1221.84 1841.03,1221.86 1842.84,1221.88 1844.64,1221.9 1846.44,1221.92 1848.25,1221.93 1850.05,1221.94 1851.86,1221.96 1853.66,1221.98 1855.47,1222.01 1857.27,1222.02 1859.08,1222.04 1860.88,1222.05 1862.69,1222.07 1864.49,1222.09 1866.3,1222.1 1868.1,1222.11 1869.91,1222.13 1871.71,1222.13 1873.51,1222.14 1875.32,1222.15 1877.12,1222.17 1878.93,1222.18 1880.73,1222.2 1882.54,1222.2 1884.34,1222.21 1886.15,1222.23 1887.95,1222.24 1889.76,1222.25 1891.56,1222.26 1893.37,1222.27 1895.17,1222.29 1896.98,1222.29 1898.78,1222.3 1900.59,1222.31 1902.39,1222.32 1904.19,1222.33 1906,1222.34 1907.8,1222.34 1909.61,1222.36 1911.41,1222.37 1913.22,1222.38 1915.02,1222.39 1916.83,1222.4 1918.63,1222.41 1920.44,1222.42 1922.24,1222.43 1924.05,1222.44 1925.85,1222.45 1927.66,1222.46 1929.46,1222.47 1931.26,1222.47 1933.07,1222.48 1934.87,1222.48 1936.68,1222.49 1938.48,1222.5 1940.29,1222.5 1942.09,1222.51 1943.9,1222.51 1945.7,1222.52 1947.51,1222.53 1949.31,1222.54 1951.12,1222.54 1952.92,1222.55 1954.73,1222.56 1956.53,1222.57 1958.33,1222.57 1960.14,1222.58 1961.94,1222.58 1963.75,1222.59 1965.55,1222.6 1967.36,1222.6 1969.16,1222.6 1970.97,1222.61 1972.77,1222.61 1974.58,1222.62 1976.38,1222.62 1978.19,1222.63 1979.99,1222.63 1981.8,1222.64 1983.6,1222.65 1985.4,1222.65 1987.21,1222.66 1989.01,1222.66 1990.82,1222.66 1992.62,1222.67 1994.43,1222.67 1996.23,1222.67 1998.04,1222.68 1999.84,1222.68 2001.65,1222.68 2003.45,1222.69 2005.26,1222.69 2007.06,1222.69 2008.87,1222.7 2010.67,1222.46 "/>
</svg>
