<?xml version="1.0" encoding="utf-8"?>
<svg xmlns="http://www.w3.org/2000/svg" xmlns:xlink="http://www.w3.org/1999/xlink" width="528" height="336" viewBox="0 0 2112 1344">
<defs>
  <clipPath id="clip070">
    <rect x="0" y="0" width="2112" height="1344"/>
  </clipPath>
</defs>
<path clip-path="url(#clip070)" d="M0 1344 L2112 1344 L2112 0 L0 0  Z" fill="#ffffff" fill-rule="evenodd" fill-opacity="1"/>
<defs>
  <clipPath id="clip071">
    <rect x="422" y="0" width="1479" height="1344"/>
  </clipPath>
</defs>
<path clip-path="url(#clip070)" d="M153.718 1222.85 L2064.76 1222.85 L2064.76 47.2441 L153.718 47.2441  Z" fill="#ffffff" fill-rule="evenodd" fill-opacity="1"/>
<defs>
  <clipPath id="clip072">
    <rect x="153" y="47" width="1912" height="1177"/>
  </clipPath>
</defs>
<polyline clip-path="url(#clip072)" style="stroke:#000000; stroke-linecap:round; stroke-linejoin:round; stroke-width:2; stroke-opacity:0.1; fill:none" points="207.786,1222.85 207.786,47.2441 "/>
<polyline clip-path="url(#clip072)" style="stroke:#000000; stroke-linecap:round; stroke-linejoin:round; stroke-width:2; stroke-opacity:0.1; fill:none" points="658.954,1222.85 658.954,47.2441 "/>
<polyline clip-path="url(#clip072)" style="stroke:#000000; stroke-linecap:round; stroke-linejoin:round; stroke-width:2; stroke-opacity:0.1; fill:none" points="1110.12,1222.85 1110.12,47.2441 "/>
<polyline clip-path="url(#clip072)" style="stroke:#000000; stroke-linecap:round; stroke-linejoin:round; stroke-width:2; stroke-opacity:0.1; fill:none" points="1561.29,1222.85 1561.29,47.2441 "/>
<polyline clip-path="url(#clip072)" style="stroke:#000000; stroke-linecap:round; stroke-linejoin:round; stroke-width:2; stroke-opacity:0.1; fill:none" points="2012.46,1222.85 2012.46,47.2441 "/>
<polyline clip-path="url(#clip070)" style="stroke:#000000; stroke-linecap:round; stroke-linejoin:round; stroke-width:4; stroke-opacity:1; fill:none" points="153.718,1222.85 2064.76,1222.85 "/>
<polyline clip-path="url(#clip070)" style="stroke:#000000; stroke-linecap:round; stroke-linejoin:round; stroke-width:4; stroke-opacity:1; fill:none" points="207.786,1222.85 207.786,1203.96 "/>
<polyline clip-path="url(#clip070)" style="stroke:#000000; stroke-linecap:round; stroke-linejoin:round; stroke-width:4; stroke-opacity:1; fill:none" points="658.954,1222.85 658.954,1203.96 "/>
<polyline clip-path="url(#clip070)" style="stroke:#000000; stroke-linecap:round; stroke-linejoin:round; stroke-width:4; stroke-opacity:1; fill:none" points="1110.12,1222.85 1110.12,1203.96 "/>
<polyline clip-path="url(#clip070)" style="stroke:#000000; stroke-linecap:round; stroke-linejoin:round; stroke-width:4; stroke-opacity:1; fill:none" points="1561.29,1222.85 1561.29,1203.96 "/>
<polyline clip-path="url(#clip070)" style="stroke:#000000; stroke-linecap:round; stroke-linejoin:round; stroke-width:4; stroke-opacity:1; fill:none" points="2012.46,1222.85 2012.46,1203.96 "/>
<path clip-path="url(#clip070)" d="M207.786 1251.47 Q204.175 1251.47 202.346 1255.03 Q200.541 1258.58 200.541 1265.7 Q200.541 1272.81 202.346 1276.38 Q204.175 1279.92 207.786 1279.92 Q211.42 1279.92 213.226 1276.38 Q215.055 1272.81 215.055 1265.7 Q215.055 1258.58 213.226 1255.03 Q211.42 1251.47 207.786 1251.47 M207.786 1247.76 Q213.596 1247.76 216.652 1252.37 Q219.731 1256.95 219.731 1265.7 Q219.731 1274.43 216.652 1279.04 Q213.596 1283.62 207.786 1283.62 Q201.976 1283.62 198.897 1279.04 Q195.842 1274.43 195.842 1265.7 Q195.842 1256.95 198.897 1252.37 Q201.976 1247.76 207.786 1247.76 Z" fill="#000000" fill-rule="nonzero" fill-opacity="1" /><path clip-path="url(#clip070)" d="M554.857 1294.67 L571.176 1294.67 L571.176 1298.61 L549.232 1298.61 L549.232 1294.67 Q551.894 1291.92 556.477 1287.29 Q561.084 1282.64 562.264 1281.3 Q564.51 1278.77 565.389 1277.04 Q566.292 1275.28 566.292 1273.59 Q566.292 1270.83 564.348 1269.1 Q562.426 1267.36 559.325 1267.36 Q557.126 1267.36 554.672 1268.12 Q552.241 1268.89 549.464 1270.44 L549.464 1265.72 Q552.288 1264.58 554.741 1264 Q557.195 1263.42 559.232 1263.42 Q564.602 1263.42 567.797 1266.11 Q570.991 1268.8 570.991 1273.29 Q570.991 1275.42 570.181 1277.34 Q569.394 1279.24 567.288 1281.83 Q566.709 1282.5 563.607 1285.72 Q560.505 1288.91 554.857 1294.67 Z" fill="#000000" fill-rule="nonzero" fill-opacity="1" /><path clip-path="url(#clip070)" d="M580.991 1292.73 L585.875 1292.73 L585.875 1298.61 L580.991 1298.61 L580.991 1292.73 Z" fill="#000000" fill-rule="nonzero" fill-opacity="1" /><path clip-path="url(#clip070)" d="M596.107 1264.05 L614.463 1264.05 L614.463 1267.99 L600.389 1267.99 L600.389 1276.46 Q601.408 1276.11 602.426 1275.95 Q603.445 1275.76 604.463 1275.76 Q610.25 1275.76 613.63 1278.93 Q617.01 1282.11 617.01 1287.52 Q617.01 1293.1 613.537 1296.2 Q610.065 1299.28 603.746 1299.28 Q601.57 1299.28 599.301 1298.91 Q597.056 1298.54 594.649 1297.8 L594.649 1293.1 Q596.732 1294.23 598.954 1294.79 Q601.176 1295.35 603.653 1295.35 Q607.658 1295.35 609.996 1293.24 Q612.334 1291.13 612.334 1287.52 Q612.334 1283.91 609.996 1281.8 Q607.658 1279.7 603.653 1279.7 Q601.778 1279.7 599.903 1280.11 Q598.051 1280.53 596.107 1281.41 L596.107 1264.05 Z" fill="#000000" fill-rule="nonzero" fill-opacity="1" /><path clip-path="url(#clip070)" d="M636.222 1267.13 Q632.611 1267.13 630.783 1270.69 Q628.977 1274.24 628.977 1281.36 Q628.977 1288.47 630.783 1292.04 Q632.611 1295.58 636.222 1295.58 Q639.857 1295.58 641.662 1292.04 Q643.491 1288.47 643.491 1281.36 Q643.491 1274.24 641.662 1270.69 Q639.857 1267.13 636.222 1267.13 M636.222 1263.42 Q642.033 1263.42 645.088 1268.03 Q648.167 1272.61 648.167 1281.36 Q648.167 1290.09 645.088 1294.7 Q642.033 1299.28 636.222 1299.28 Q630.412 1299.28 627.334 1294.7 Q624.278 1290.09 624.278 1281.36 Q624.278 1272.61 627.334 1268.03 Q630.412 1263.42 636.222 1263.42 Z" fill="#000000" fill-rule="nonzero" fill-opacity="1" /><path clip-path="url(#clip070)" d="M684.555 1273.15 L673.977 1283.77 L684.555 1294.35 L681.801 1297.15 L671.176 1286.53 L660.551 1297.15 L657.82 1294.35 L668.375 1283.77 L657.82 1273.15 L660.551 1270.35 L671.176 1280.97 L681.801 1270.35 L684.555 1273.15 Z" fill="#000000" fill-rule="nonzero" fill-opacity="1" /><path clip-path="url(#clip070)" d="M696.917 1294.67 L704.555 1294.67 L704.555 1268.31 L696.245 1269.98 L696.245 1265.72 L704.509 1264.05 L709.185 1264.05 L709.185 1294.67 L716.824 1294.67 L716.824 1298.61 L696.917 1298.61 L696.917 1294.67 Z" fill="#000000" fill-rule="nonzero" fill-opacity="1" /><path clip-path="url(#clip070)" d="M736.268 1267.13 Q732.657 1267.13 730.828 1270.69 Q729.023 1274.24 729.023 1281.36 Q729.023 1288.47 730.828 1292.04 Q732.657 1295.58 736.268 1295.58 Q739.902 1295.58 741.708 1292.04 Q743.537 1288.47 743.537 1281.36 Q743.537 1274.24 741.708 1270.69 Q739.902 1267.13 736.268 1267.13 M736.268 1263.42 Q742.078 1263.42 745.134 1268.03 Q748.213 1272.61 748.213 1281.36 Q748.213 1290.09 745.134 1294.7 Q742.078 1299.28 736.268 1299.28 Q730.458 1299.28 727.379 1294.7 Q724.324 1290.09 724.324 1281.36 Q724.324 1272.61 727.379 1268.03 Q730.458 1263.42 736.268 1263.42 Z" fill="#000000" fill-rule="nonzero" fill-opacity="1" /><path clip-path="url(#clip070)" d="M760.889 1246.43 L751.297 1261.42 L760.889 1261.42 L760.889 1246.43 M759.892 1243.12 L764.669 1243.12 L764.669 1261.42 L768.675 1261.42 L768.675 1264.58 L764.669 1264.58 L764.669 1271.2 L760.889 1271.2 L760.889 1264.58 L748.213 1264.58 L748.213 1260.91 L759.892 1243.12 Z" fill="#000000" fill-rule="nonzero" fill-opacity="1" /><path clip-path="url(#clip070)" d="M1001.95 1264.05 L1020.31 1264.05 L1020.31 1267.99 L1006.23 1267.99 L1006.23 1276.46 Q1007.25 1276.11 1008.27 1275.95 Q1009.29 1275.76 1010.31 1275.76 Q1016.09 1275.76 1019.47 1278.93 Q1022.85 1282.11 1022.85 1287.52 Q1022.85 1293.1 1019.38 1296.2 Q1015.91 1299.28 1009.59 1299.28 Q1007.41 1299.28 1005.15 1298.91 Q1002.9 1298.54 1000.49 1297.8 L1000.49 1293.1 Q1002.58 1294.23 1004.8 1294.79 Q1007.02 1295.35 1009.5 1295.35 Q1013.5 1295.35 1015.84 1293.24 Q1018.18 1291.13 1018.18 1287.52 Q1018.18 1283.91 1015.84 1281.8 Q1013.5 1279.7 1009.5 1279.7 Q1007.62 1279.7 1005.75 1280.11 Q1003.9 1280.53 1001.95 1281.41 L1001.95 1264.05 Z" fill="#000000" fill-rule="nonzero" fill-opacity="1" /><path clip-path="url(#clip070)" d="M1032.07 1292.73 L1036.95 1292.73 L1036.95 1298.61 L1032.07 1298.61 L1032.07 1292.73 Z" fill="#000000" fill-rule="nonzero" fill-opacity="1" /><path clip-path="url(#clip070)" d="M1057.14 1267.13 Q1053.52 1267.13 1051.7 1270.69 Q1049.89 1274.24 1049.89 1281.36 Q1049.89 1288.47 1051.7 1292.04 Q1053.52 1295.58 1057.14 1295.58 Q1060.77 1295.58 1062.58 1292.04 Q1064.4 1288.47 1064.4 1281.36 Q1064.4 1274.24 1062.58 1270.69 Q1060.77 1267.13 1057.14 1267.13 M1057.14 1263.42 Q1062.95 1263.42 1066 1268.03 Q1069.08 1272.61 1069.08 1281.36 Q1069.08 1290.09 1066 1294.7 Q1062.95 1299.28 1057.14 1299.28 Q1051.33 1299.28 1048.25 1294.7 Q1045.19 1290.09 1045.19 1281.36 Q1045.19 1272.61 1048.25 1268.03 Q1051.33 1263.42 1057.14 1263.42 Z" fill="#000000" fill-rule="nonzero" fill-opacity="1" /><path clip-path="url(#clip070)" d="M1087.3 1267.13 Q1083.69 1267.13 1081.86 1270.69 Q1080.05 1274.24 1080.05 1281.36 Q1080.05 1288.47 1081.86 1292.04 Q1083.69 1295.58 1087.3 1295.58 Q1090.93 1295.58 1092.74 1292.04 Q1094.57 1288.47 1094.57 1281.36 Q1094.57 1274.24 1092.74 1270.69 Q1090.93 1267.13 1087.3 1267.13 M1087.3 1263.42 Q1093.11 1263.42 1096.16 1268.03 Q1099.24 1272.61 1099.24 1281.36 Q1099.24 1290.09 1096.16 1294.7 Q1093.11 1299.28 1087.3 1299.28 Q1081.49 1299.28 1078.41 1294.7 Q1075.35 1290.09 1075.35 1281.36 Q1075.35 1272.61 1078.41 1268.03 Q1081.49 1263.42 1087.3 1263.42 Z" fill="#000000" fill-rule="nonzero" fill-opacity="1" /><path clip-path="url(#clip070)" d="M1135.63 1273.15 L1125.05 1283.77 L1135.63 1294.35 L1132.88 1297.15 L1122.25 1286.53 L1111.63 1297.15 L1108.89 1294.35 L1119.45 1283.77 L1108.89 1273.15 L1111.63 1270.35 L1122.25 1280.97 L1132.88 1270.35 L1135.63 1273.15 Z" fill="#000000" fill-rule="nonzero" fill-opacity="1" /><path clip-path="url(#clip070)" d="M1147.99 1294.67 L1155.63 1294.67 L1155.63 1268.31 L1147.32 1269.98 L1147.32 1265.72 L1155.58 1264.05 L1160.26 1264.05 L1160.26 1294.67 L1167.9 1294.67 L1167.9 1298.61 L1147.99 1298.61 L1147.99 1294.67 Z" fill="#000000" fill-rule="nonzero" fill-opacity="1" /><path clip-path="url(#clip070)" d="M1187.34 1267.13 Q1183.73 1267.13 1181.9 1270.69 Q1180.1 1274.24 1180.1 1281.36 Q1180.1 1288.47 1181.9 1292.04 Q1183.73 1295.58 1187.34 1295.58 Q1190.98 1295.58 1192.78 1292.04 Q1194.61 1288.47 1194.61 1281.36 Q1194.61 1274.24 1192.78 1270.69 Q1190.98 1267.13 1187.34 1267.13 M1187.34 1263.42 Q1193.15 1263.42 1196.21 1268.03 Q1199.29 1272.61 1199.29 1281.36 Q1199.29 1290.09 1196.21 1294.7 Q1193.15 1299.28 1187.34 1299.28 Q1181.53 1299.28 1178.45 1294.7 Q1175.4 1290.09 1175.4 1281.36 Q1175.4 1272.61 1178.45 1268.03 Q1181.53 1263.42 1187.34 1263.42 Z" fill="#000000" fill-rule="nonzero" fill-opacity="1" /><path clip-path="url(#clip070)" d="M1211.96 1246.43 L1202.37 1261.42 L1211.96 1261.42 L1211.96 1246.43 M1210.97 1243.12 L1215.74 1243.12 L1215.74 1261.42 L1219.75 1261.42 L1219.75 1264.58 L1215.74 1264.58 L1215.74 1271.2 L1211.96 1271.2 L1211.96 1264.58 L1199.29 1264.58 L1199.29 1260.91 L1210.97 1243.12 Z" fill="#000000" fill-rule="nonzero" fill-opacity="1" /><path clip-path="url(#clip070)" d="M1451.78 1264.05 L1474 1264.05 L1474 1266.04 L1461.45 1298.61 L1456.57 1298.61 L1468.37 1267.99 L1451.78 1267.99 L1451.78 1264.05 Z" fill="#000000" fill-rule="nonzero" fill-opacity="1" /><path clip-path="url(#clip070)" d="M1483.12 1292.73 L1488 1292.73 L1488 1298.61 L1483.12 1298.61 L1483.12 1292.73 Z" fill="#000000" fill-rule="nonzero" fill-opacity="1" /><path clip-path="url(#clip070)" d="M1498.23 1264.05 L1516.59 1264.05 L1516.59 1267.99 L1502.52 1267.99 L1502.52 1276.46 Q1503.53 1276.11 1504.55 1275.95 Q1505.57 1275.76 1506.59 1275.76 Q1512.38 1275.76 1515.76 1278.93 Q1519.14 1282.11 1519.14 1287.52 Q1519.14 1293.1 1515.66 1296.2 Q1512.19 1299.28 1505.87 1299.28 Q1503.7 1299.28 1501.43 1298.91 Q1499.18 1298.54 1496.78 1297.8 L1496.78 1293.1 Q1498.86 1294.23 1501.08 1294.79 Q1503.3 1295.35 1505.78 1295.35 Q1509.78 1295.35 1512.12 1293.24 Q1514.46 1291.13 1514.46 1287.52 Q1514.46 1283.91 1512.12 1281.8 Q1509.78 1279.7 1505.78 1279.7 Q1503.91 1279.7 1502.03 1280.11 Q1500.18 1280.53 1498.23 1281.41 L1498.23 1264.05 Z" fill="#000000" fill-rule="nonzero" fill-opacity="1" /><path clip-path="url(#clip070)" d="M1538.35 1267.13 Q1534.74 1267.13 1532.91 1270.69 Q1531.1 1274.24 1531.1 1281.36 Q1531.1 1288.47 1532.91 1292.04 Q1534.74 1295.58 1538.35 1295.58 Q1541.98 1295.58 1543.79 1292.04 Q1545.62 1288.47 1545.62 1281.36 Q1545.62 1274.24 1543.79 1270.69 Q1541.98 1267.13 1538.35 1267.13 M1538.35 1263.42 Q1544.16 1263.42 1547.21 1268.03 Q1550.29 1272.61 1550.29 1281.36 Q1550.29 1290.09 1547.21 1294.7 Q1544.16 1299.28 1538.35 1299.28 Q1532.54 1299.28 1529.46 1294.7 Q1526.4 1290.09 1526.4 1281.36 Q1526.4 1272.61 1529.46 1268.03 Q1532.54 1263.42 1538.35 1263.42 Z" fill="#000000" fill-rule="nonzero" fill-opacity="1" /><path clip-path="url(#clip070)" d="M1586.68 1273.15 L1576.1 1283.77 L1586.68 1294.35 L1583.93 1297.15 L1573.3 1286.53 L1562.68 1297.15 L1559.95 1294.35 L1570.5 1283.77 L1559.95 1273.15 L1562.68 1270.35 L1573.3 1280.97 L1583.93 1270.35 L1586.68 1273.15 Z" fill="#000000" fill-rule="nonzero" fill-opacity="1" /><path clip-path="url(#clip070)" d="M1599.04 1294.67 L1606.68 1294.67 L1606.68 1268.31 L1598.37 1269.98 L1598.37 1265.72 L1606.64 1264.05 L1611.31 1264.05 L1611.31 1294.67 L1618.95 1294.67 L1618.95 1298.61 L1599.04 1298.61 L1599.04 1294.67 Z" fill="#000000" fill-rule="nonzero" fill-opacity="1" /><path clip-path="url(#clip070)" d="M1638.4 1267.13 Q1634.78 1267.13 1632.96 1270.69 Q1631.15 1274.24 1631.15 1281.36 Q1631.15 1288.47 1632.96 1292.04 Q1634.78 1295.58 1638.4 1295.58 Q1642.03 1295.58 1643.83 1292.04 Q1645.66 1288.47 1645.66 1281.36 Q1645.66 1274.24 1643.83 1270.69 Q1642.03 1267.13 1638.4 1267.13 M1638.4 1263.42 Q1644.21 1263.42 1647.26 1268.03 Q1650.34 1272.61 1650.34 1281.36 Q1650.34 1290.09 1647.26 1294.7 Q1644.21 1299.28 1638.4 1299.28 Q1632.58 1299.28 1629.51 1294.7 Q1626.45 1290.09 1626.45 1281.36 Q1626.45 1272.61 1629.51 1268.03 Q1632.58 1263.42 1638.4 1263.42 Z" fill="#000000" fill-rule="nonzero" fill-opacity="1" /><path clip-path="url(#clip070)" d="M1663.02 1246.43 L1653.42 1261.42 L1663.02 1261.42 L1663.02 1246.43 M1662.02 1243.12 L1666.8 1243.12 L1666.8 1261.42 L1670.8 1261.42 L1670.8 1264.58 L1666.8 1264.58 L1666.8 1271.2 L1663.02 1271.2 L1663.02 1264.58 L1650.34 1264.58 L1650.34 1260.91 L1662.02 1243.12 Z" fill="#000000" fill-rule="nonzero" fill-opacity="1" /><path clip-path="url(#clip070)" d="M1905.42 1294.67 L1913.06 1294.67 L1913.06 1268.31 L1904.75 1269.98 L1904.75 1265.72 L1913.01 1264.05 L1917.69 1264.05 L1917.69 1294.67 L1925.33 1294.67 L1925.33 1298.61 L1905.42 1298.61 L1905.42 1294.67 Z" fill="#000000" fill-rule="nonzero" fill-opacity="1" /><path clip-path="url(#clip070)" d="M1934.77 1292.73 L1939.66 1292.73 L1939.66 1298.61 L1934.77 1298.61 L1934.77 1292.73 Z" fill="#000000" fill-rule="nonzero" fill-opacity="1" /><path clip-path="url(#clip070)" d="M1959.84 1267.13 Q1956.23 1267.13 1954.4 1270.69 Q1952.6 1274.24 1952.6 1281.36 Q1952.6 1288.47 1954.4 1292.04 Q1956.23 1295.58 1959.84 1295.58 Q1963.48 1295.58 1965.28 1292.04 Q1967.11 1288.47 1967.11 1281.36 Q1967.11 1274.24 1965.28 1270.69 Q1963.48 1267.13 1959.84 1267.13 M1959.84 1263.42 Q1965.65 1263.42 1968.71 1268.03 Q1971.79 1272.61 1971.79 1281.36 Q1971.79 1290.09 1968.71 1294.7 Q1965.65 1299.28 1959.84 1299.28 Q1954.03 1299.28 1950.95 1294.7 Q1947.9 1290.09 1947.9 1281.36 Q1947.9 1272.61 1950.95 1268.03 Q1954.03 1263.42 1959.84 1263.42 Z" fill="#000000" fill-rule="nonzero" fill-opacity="1" /><path clip-path="url(#clip070)" d="M1990 1267.13 Q1986.39 1267.13 1984.56 1270.69 Q1982.76 1274.24 1982.76 1281.36 Q1982.76 1288.47 1984.56 1292.04 Q1986.39 1295.58 1990 1295.58 Q1993.64 1295.58 1995.44 1292.04 Q1997.27 1288.47 1997.27 1281.36 Q1997.27 1274.24 1995.44 1270.69 Q1993.64 1267.13 1990 1267.13 M1990 1263.42 Q1995.81 1263.42 1998.87 1268.03 Q2001.95 1272.61 2001.95 1281.36 Q2001.95 1290.09 1998.87 1294.7 Q1995.81 1299.28 1990 1299.28 Q1984.19 1299.28 1981.12 1294.7 Q1978.06 1290.09 1978.06 1281.36 Q1978.06 1272.61 1981.12 1268.03 Q1984.19 1263.42 1990 1263.42 Z" fill="#000000" fill-rule="nonzero" fill-opacity="1" /><path clip-path="url(#clip070)" d="M2038.34 1273.15 L2027.76 1283.77 L2038.34 1294.35 L2035.58 1297.15 L2024.96 1286.53 L2014.33 1297.15 L2011.6 1294.35 L2022.16 1283.77 L2011.6 1273.15 L2014.33 1270.35 L2024.96 1280.97 L2035.58 1270.35 L2038.34 1273.15 Z" fill="#000000" fill-rule="nonzero" fill-opacity="1" /><path clip-path="url(#clip070)" d="M2050.7 1294.67 L2058.34 1294.67 L2058.34 1268.31 L2050.03 1269.98 L2050.03 1265.72 L2058.29 1264.05 L2062.97 1264.05 L2062.97 1294.67 L2070.61 1294.67 L2070.61 1298.61 L2050.7 1298.61 L2050.7 1294.67 Z" fill="#000000" fill-rule="nonzero" fill-opacity="1" /><path clip-path="url(#clip070)" d="M2090.05 1267.13 Q2086.44 1267.13 2084.61 1270.69 Q2082.8 1274.24 2082.8 1281.36 Q2082.8 1288.47 2084.61 1292.04 Q2086.44 1295.58 2090.05 1295.58 Q2093.68 1295.58 2095.49 1292.04 Q2097.32 1288.47 2097.32 1281.36 Q2097.32 1274.24 2095.49 1270.69 Q2093.68 1267.13 2090.05 1267.13 M2090.05 1263.42 Q2095.86 1263.42 2098.92 1268.03 Q2101.99 1272.61 2101.99 1281.36 Q2101.99 1290.09 2098.92 1294.7 Q2095.86 1299.28 2090.05 1299.28 Q2084.24 1299.28 2081.16 1294.7 Q2078.11 1290.09 2078.11 1281.36 Q2078.11 1272.61 2081.16 1268.03 Q2084.24 1263.42 2090.05 1263.42 Z" fill="#000000" fill-rule="nonzero" fill-opacity="1" /><path clip-path="url(#clip070)" d="M2103.18 1243.12 L2118.09 1243.12 L2118.09 1246.32 L2106.66 1246.32 L2106.66 1253.2 Q2107.49 1252.92 2108.31 1252.79 Q2109.14 1252.64 2109.97 1252.64 Q2114.67 1252.64 2117.42 1255.21 Q2120.16 1257.79 2120.16 1262.19 Q2120.16 1266.72 2117.34 1269.24 Q2114.52 1271.74 2109.39 1271.74 Q2107.62 1271.74 2105.77 1271.44 Q2103.95 1271.14 2101.99 1270.54 L2101.99 1266.72 Q2103.69 1267.64 2105.49 1268.1 Q2107.3 1268.55 2109.31 1268.55 Q2112.56 1268.55 2114.46 1266.84 Q2116.36 1265.12 2116.36 1262.19 Q2116.36 1259.26 2114.46 1257.55 Q2112.56 1255.83 2109.31 1255.83 Q2107.79 1255.83 2106.26 1256.17 Q2104.76 1256.51 2103.18 1257.23 L2103.18 1243.12 Z" fill="#000000" fill-rule="nonzero" fill-opacity="1" /><polyline clip-path="url(#clip072)" style="stroke:#000000; stroke-linecap:round; stroke-linejoin:round; stroke-width:2; stroke-opacity:0.1; fill:none" points="153.718,1222.85 2064.76,1222.85 "/>
<polyline clip-path="url(#clip072)" style="stroke:#000000; stroke-linecap:round; stroke-linejoin:round; stroke-width:2; stroke-opacity:0.1; fill:none" points="153.718,987.732 2064.76,987.732 "/>
<polyline clip-path="url(#clip072)" style="stroke:#000000; stroke-linecap:round; stroke-linejoin:round; stroke-width:2; stroke-opacity:0.1; fill:none" points="153.718,752.61 2064.76,752.61 "/>
<polyline clip-path="url(#clip072)" style="stroke:#000000; stroke-linecap:round; stroke-linejoin:round; stroke-width:2; stroke-opacity:0.1; fill:none" points="153.718,517.488 2064.76,517.488 "/>
<polyline clip-path="url(#clip072)" style="stroke:#000000; stroke-linecap:round; stroke-linejoin:round; stroke-width:2; stroke-opacity:0.1; fill:none" points="153.718,282.366 2064.76,282.366 "/>
<polyline clip-path="url(#clip072)" style="stroke:#000000; stroke-linecap:round; stroke-linejoin:round; stroke-width:2; stroke-opacity:0.1; fill:none" points="153.718,47.2441 2064.76,47.2441 "/>
<polyline clip-path="url(#clip070)" style="stroke:#000000; stroke-linecap:round; stroke-linejoin:round; stroke-width:4; stroke-opacity:1; fill:none" points="153.718,1222.85 153.718,47.2441 "/>
<polyline clip-path="url(#clip070)" style="stroke:#000000; stroke-linecap:round; stroke-linejoin:round; stroke-width:4; stroke-opacity:1; fill:none" points="153.718,1222.85 172.616,1222.85 "/>
<polyline clip-path="url(#clip070)" style="stroke:#000000; stroke-linecap:round; stroke-linejoin:round; stroke-width:4; stroke-opacity:1; fill:none" points="153.718,987.732 172.616,987.732 "/>
<polyline clip-path="url(#clip070)" style="stroke:#000000; stroke-linecap:round; stroke-linejoin:round; stroke-width:4; stroke-opacity:1; fill:none" points="153.718,752.61 172.616,752.61 "/>
<polyline clip-path="url(#clip070)" style="stroke:#000000; stroke-linecap:round; stroke-linejoin:round; stroke-width:4; stroke-opacity:1; fill:none" points="153.718,517.488 172.616,517.488 "/>
<polyline clip-path="url(#clip070)" style="stroke:#000000; stroke-linecap:round; stroke-linejoin:round; stroke-width:4; stroke-opacity:1; fill:none" points="153.718,282.366 172.616,282.366 "/>
<polyline clip-path="url(#clip070)" style="stroke:#000000; stroke-linecap:round; stroke-linejoin:round; stroke-width:4; stroke-opacity:1; fill:none" points="153.718,47.2441 172.616,47.2441 "/>
<path clip-path="url(#clip070)" d="M64.8626 1208.65 Q61.2515 1208.65 59.4228 1212.22 Q57.6173 1215.76 57.6173 1222.89 Q57.6173 1230 59.4228 1233.56 Q61.2515 1237.1 64.8626 1237.1 Q68.4969 1237.1 70.3024 1233.56 Q72.1311 1230 72.1311 1222.89 Q72.1311 1215.76 70.3024 1212.22 Q68.4969 1208.65 64.8626 1208.65 M64.8626 1204.95 Q70.6728 1204.95 73.7283 1209.56 Q76.807 1214.14 76.807 1222.89 Q76.807 1231.62 73.7283 1236.22 Q70.6728 1240.81 64.8626 1240.81 Q59.0525 1240.81 55.9738 1236.22 Q52.9182 1231.62 52.9182 1222.89 Q52.9182 1214.14 55.9738 1209.56 Q59.0525 1204.95 64.8626 1204.95 Z" fill="#000000" fill-rule="nonzero" fill-opacity="1" /><path clip-path="url(#clip070)" d="M85.0245 1234.25 L89.9088 1234.25 L89.9088 1240.13 L85.0245 1240.13 L85.0245 1234.25 Z" fill="#000000" fill-rule="nonzero" fill-opacity="1" /><path clip-path="url(#clip070)" d="M110.094 1208.65 Q106.483 1208.65 104.654 1212.22 Q102.849 1215.76 102.849 1222.89 Q102.849 1230 104.654 1233.56 Q106.483 1237.1 110.094 1237.1 Q113.728 1237.1 115.534 1233.56 Q117.362 1230 117.362 1222.89 Q117.362 1215.76 115.534 1212.22 Q113.728 1208.65 110.094 1208.65 M110.094 1204.95 Q115.904 1204.95 118.96 1209.56 Q122.038 1214.14 122.038 1222.89 Q122.038 1231.62 118.96 1236.22 Q115.904 1240.81 110.094 1240.81 Q104.284 1240.81 101.205 1236.22 Q98.1495 1231.62 98.1495 1222.89 Q98.1495 1214.14 101.205 1209.56 Q104.284 1204.95 110.094 1204.95 Z" fill="#000000" fill-rule="nonzero" fill-opacity="1" /><path clip-path="url(#clip070)" d="M66.4598 973.531 Q62.8487 973.531 61.02 977.095 Q59.2145 980.637 59.2145 987.767 Q59.2145 994.873 61.02 998.438 Q62.8487 1001.98 66.4598 1001.98 Q70.0941 1001.98 71.8996 998.438 Q73.7283 994.873 73.7283 987.767 Q73.7283 980.637 71.8996 977.095 Q70.0941 973.531 66.4598 973.531 M66.4598 969.827 Q72.27 969.827 75.3255 974.433 Q78.4042 979.017 78.4042 987.767 Q78.4042 996.493 75.3255 1001.1 Q72.27 1005.68 66.4598 1005.68 Q60.6497 1005.68 57.571 1001.1 Q54.5154 996.493 54.5154 987.767 Q54.5154 979.017 57.571 974.433 Q60.6497 969.827 66.4598 969.827 Z" fill="#000000" fill-rule="nonzero" fill-opacity="1" /><path clip-path="url(#clip070)" d="M86.6218 999.132 L91.506 999.132 L91.506 1005.01 L86.6218 1005.01 L86.6218 999.132 Z" fill="#000000" fill-rule="nonzero" fill-opacity="1" /><path clip-path="url(#clip070)" d="M105.719 1001.08 L122.038 1001.08 L122.038 1005.01 L100.094 1005.01 L100.094 1001.08 Q102.756 998.322 107.339 993.693 Q111.946 989.04 113.126 987.697 Q115.372 985.174 116.251 983.438 Q117.154 981.679 117.154 979.989 Q117.154 977.234 115.21 975.498 Q113.288 973.762 110.186 973.762 Q107.987 973.762 105.534 974.526 Q103.103 975.29 100.325 976.841 L100.325 972.119 Q103.149 970.984 105.603 970.406 Q108.057 969.827 110.094 969.827 Q115.464 969.827 118.659 972.512 Q121.853 975.197 121.853 979.688 Q121.853 981.818 121.043 983.739 Q120.256 985.637 118.149 988.23 Q117.571 988.901 114.469 992.118 Q111.367 995.313 105.719 1001.08 Z" fill="#000000" fill-rule="nonzero" fill-opacity="1" /><path clip-path="url(#clip070)" d="M64.3765 738.409 Q60.7654 738.409 58.9367 741.973 Q57.1312 745.515 57.1312 752.645 Q57.1312 759.751 58.9367 763.316 Q60.7654 766.858 64.3765 766.858 Q68.0107 766.858 69.8163 763.316 Q71.645 759.751 71.645 752.645 Q71.645 745.515 69.8163 741.973 Q68.0107 738.409 64.3765 738.409 M64.3765 734.705 Q70.1867 734.705 73.2422 739.311 Q76.3209 743.895 76.3209 752.645 Q76.3209 761.372 73.2422 765.978 Q70.1867 770.561 64.3765 770.561 Q58.5664 770.561 55.4877 765.978 Q52.4321 761.372 52.4321 752.645 Q52.4321 743.895 55.4877 739.311 Q58.5664 734.705 64.3765 734.705 Z" fill="#000000" fill-rule="nonzero" fill-opacity="1" /><path clip-path="url(#clip070)" d="M84.5384 764.01 L89.4227 764.01 L89.4227 769.89 L84.5384 769.89 L84.5384 764.01 Z" fill="#000000" fill-rule="nonzero" fill-opacity="1" /><path clip-path="url(#clip070)" d="M112.455 739.404 L100.649 757.853 L112.455 757.853 L112.455 739.404 M111.228 735.33 L117.108 735.33 L117.108 757.853 L122.038 757.853 L122.038 761.742 L117.108 761.742 L117.108 769.89 L112.455 769.89 L112.455 761.742 L96.8532 761.742 L96.8532 757.228 L111.228 735.33 Z" fill="#000000" fill-rule="nonzero" fill-opacity="1" /><path clip-path="url(#clip070)" d="M64.7006 503.287 Q61.0895 503.287 59.2608 506.852 Q57.4552 510.393 57.4552 517.523 Q57.4552 524.629 59.2608 528.194 Q61.0895 531.736 64.7006 531.736 Q68.3348 531.736 70.1404 528.194 Q71.9691 524.629 71.9691 517.523 Q71.9691 510.393 70.1404 506.852 Q68.3348 503.287 64.7006 503.287 M64.7006 499.583 Q70.5107 499.583 73.5663 504.189 Q76.645 508.773 76.645 517.523 Q76.645 526.25 73.5663 530.856 Q70.5107 535.439 64.7006 535.439 Q58.8904 535.439 55.8117 530.856 Q52.7562 526.25 52.7562 517.523 Q52.7562 508.773 55.8117 504.189 Q58.8904 499.583 64.7006 499.583 Z" fill="#000000" fill-rule="nonzero" fill-opacity="1" /><path clip-path="url(#clip070)" d="M84.8625 528.888 L89.7467 528.888 L89.7467 534.768 L84.8625 534.768 L84.8625 528.888 Z" fill="#000000" fill-rule="nonzero" fill-opacity="1" /><path clip-path="url(#clip070)" d="M110.511 515.625 Q107.362 515.625 105.511 517.777 Q103.682 519.93 103.682 523.68 Q103.682 527.407 105.511 529.583 Q107.362 531.736 110.511 531.736 Q113.659 531.736 115.487 529.583 Q117.339 527.407 117.339 523.68 Q117.339 519.93 115.487 517.777 Q113.659 515.625 110.511 515.625 M119.793 500.972 L119.793 505.231 Q118.034 504.398 116.228 503.958 Q114.446 503.518 112.686 503.518 Q108.057 503.518 105.603 506.643 Q103.173 509.768 102.825 516.088 Q104.191 514.074 106.251 513.009 Q108.311 511.921 110.788 511.921 Q115.997 511.921 119.006 515.092 Q122.038 518.24 122.038 523.68 Q122.038 529.004 118.89 532.222 Q115.742 535.439 110.511 535.439 Q104.515 535.439 101.344 530.856 Q98.1726 526.25 98.1726 517.523 Q98.1726 509.328 102.061 504.467 Q105.95 499.583 112.501 499.583 Q114.26 499.583 116.043 499.93 Q117.848 500.277 119.793 500.972 Z" fill="#000000" fill-rule="nonzero" fill-opacity="1" /><path clip-path="url(#clip070)" d="M64.9552 268.165 Q61.3441 268.165 59.5154 271.73 Q57.7099 275.271 57.7099 282.401 Q57.7099 289.507 59.5154 293.072 Q61.3441 296.614 64.9552 296.614 Q68.5894 296.614 70.395 293.072 Q72.2237 289.507 72.2237 282.401 Q72.2237 275.271 70.395 271.73 Q68.5894 268.165 64.9552 268.165 M64.9552 264.461 Q70.7654 264.461 73.8209 269.068 Q76.8996 273.651 76.8996 282.401 Q76.8996 291.128 73.8209 295.734 Q70.7654 300.317 64.9552 300.317 Q59.1451 300.317 56.0664 295.734 Q53.0108 291.128 53.0108 282.401 Q53.0108 273.651 56.0664 269.068 Q59.1451 264.461 64.9552 264.461 Z" fill="#000000" fill-rule="nonzero" fill-opacity="1" /><path clip-path="url(#clip070)" d="M85.1171 293.766 L90.0014 293.766 L90.0014 299.646 L85.1171 299.646 L85.1171 293.766 Z" fill="#000000" fill-rule="nonzero" fill-opacity="1" /><path clip-path="url(#clip070)" d="M110.186 283.234 Q106.853 283.234 104.932 285.017 Q103.034 286.799 103.034 289.924 Q103.034 293.049 104.932 294.831 Q106.853 296.614 110.186 296.614 Q113.52 296.614 115.441 294.831 Q117.362 293.026 117.362 289.924 Q117.362 286.799 115.441 285.017 Q113.543 283.234 110.186 283.234 M105.511 281.243 Q102.501 280.503 100.811 278.442 Q99.1448 276.382 99.1448 273.419 Q99.1448 269.276 102.085 266.868 Q105.048 264.461 110.186 264.461 Q115.348 264.461 118.288 266.868 Q121.228 269.276 121.228 273.419 Q121.228 276.382 119.538 278.442 Q117.872 280.503 114.885 281.243 Q118.265 282.03 120.14 284.322 Q122.038 286.614 122.038 289.924 Q122.038 294.947 118.96 297.632 Q115.904 300.317 110.186 300.317 Q104.469 300.317 101.39 297.632 Q98.3347 294.947 98.3347 289.924 Q98.3347 286.614 100.233 284.322 Q102.131 282.03 105.511 281.243 M103.798 273.859 Q103.798 276.544 105.464 278.049 Q107.154 279.554 110.186 279.554 Q113.196 279.554 114.885 278.049 Q116.598 276.544 116.598 273.859 Q116.598 271.174 114.885 269.669 Q113.196 268.165 110.186 268.165 Q107.154 268.165 105.464 269.669 Q103.798 271.174 103.798 273.859 Z" fill="#000000" fill-rule="nonzero" fill-opacity="1" /><path clip-path="url(#clip070)" d="M55.6728 60.5889 L63.3117 60.5889 L63.3117 34.2233 L55.0016 35.89 L55.0016 31.6308 L63.2654 29.9641 L67.9413 29.9641 L67.9413 60.5889 L75.5802 60.5889 L75.5802 64.5241 L55.6728 64.5241 L55.6728 60.5889 Z" fill="#000000" fill-rule="nonzero" fill-opacity="1" /><path clip-path="url(#clip070)" d="M85.0245 58.6445 L89.9088 58.6445 L89.9088 64.5241 L85.0245 64.5241 L85.0245 58.6445 Z" fill="#000000" fill-rule="nonzero" fill-opacity="1" /><path clip-path="url(#clip070)" d="M110.094 33.0428 Q106.483 33.0428 104.654 36.6076 Q102.849 40.1492 102.849 47.2788 Q102.849 54.3853 104.654 57.9501 Q106.483 61.4917 110.094 61.4917 Q113.728 61.4917 115.534 57.9501 Q117.362 54.3853 117.362 47.2788 Q117.362 40.1492 115.534 36.6076 Q113.728 33.0428 110.094 33.0428 M110.094 29.3391 Q115.904 29.3391 118.96 33.9456 Q122.038 38.5289 122.038 47.2788 Q122.038 56.0056 118.96 60.6121 Q115.904 65.1954 110.094 65.1954 Q104.284 65.1954 101.205 60.6121 Q98.1495 56.0056 98.1495 47.2788 Q98.1495 38.5289 101.205 33.9456 Q104.284 29.3391 110.094 29.3391 Z" fill="#000000" fill-rule="nonzero" fill-opacity="1" /><polyline clip-path="url(#clip072)" style="stroke:#009af9; stroke-linecap:round; stroke-linejoin:round; stroke-width:4; stroke-opacity:1; fill:none" points="207.804,164.782 209.609,165.951 211.414,167.342 213.218,168.669 215.023,169.536 216.828,172.268 218.632,172.823 220.437,174.493 222.242,175.045 224.046,175.072 225.851,175.567 227.656,175.595 229.46,176.309 231.265,176.3 233.07,176.734 234.874,178.093 236.679,179.078 238.484,180.179 240.288,181.797 242.093,184.71 243.898,184.946 245.702,184.829 247.507,185.002 249.312,186.709 251.116,187.51 252.921,187.049 254.726,187.143 256.53,186.688 258.335,186.915 260.14,187.029 261.944,186.033 263.749,186.525 265.554,187.086 267.358,187.595 269.163,188.088 270.968,189.005 272.772,189.434 274.577,190.954 276.382,192.16 278.186,192.357 279.991,191.878 281.796,192.82 283.6,194.521 285.405,195.473 287.21,197.662 289.014,198.295 290.819,198.644 292.624,198.825 294.428,200.741 296.233,201.005 298.038,201.183 299.842,201.52 301.647,202.503 303.452,201.315 305.256,203.068 307.061,204.116 308.866,205.82 310.67,205.962 312.475,205.842 314.28,208.522 316.084,209.519 317.889,212.38 319.694,213.68 321.498,213.369 323.303,213.576 325.108,215.032 326.912,215.601 328.717,215.899 330.522,215.893 332.326,216.107 334.131,217.137 335.936,217.949 337.74,219.903 339.545,220.623 341.35,221.096 343.154,222.381 344.959,221.938 346.764,223.789 348.568,224.755 350.373,225.177 352.178,226.094 353.983,227.78 355.787,228.847 357.592,229.71 359.397,229.185 361.201,232.281 363.006,232.886 364.811,234.786 366.615,236.011 368.42,236.585 370.225,237.305 372.029,237.997 373.834,238.645 375.639,237.67 377.443,238.477 379.248,238.736 381.053,238.855 382.857,238.286 384.662,238.38 386.467,239.346 388.271,239.767 390.076,241.742 391.881,243.566 393.685,244.484 395.49,244.233 397.295,246.041 399.099,246.587 400.904,248.335 402.709,249.129 404.513,252.971 406.318,254.174 408.123,255.313 409.927,255.122 411.732,255.923 413.537,256.073 415.341,256.103 417.146,256.891 418.951,256.905 420.755,257.302 422.56,256.855 424.365,257.298 426.169,258.368 427.974,259.262 429.779,260.449 431.583,260.736 433.388,261.453 435.193,261.943 436.997,262.014 438.802,261.769 440.607,263.367 442.411,265.116 444.216,265.271 446.021,266.352 447.825,267.287 449.63,268.867 451.435,269.735 453.239,271.774 455.044,273.196 456.849,274.625 458.653,274.192 460.458,272.453 462.263,273.711 464.067,273.767 465.872,275.052 467.677,276.131 469.481,278.682 471.286,280.359 473.091,283.245 474.895,283.568 476.7,284.749 478.505,284.93 480.309,286.758 482.114,288.807 483.919,290.21 485.723,289.899 487.528,291.372 489.333,291.998 491.137,291.687 492.942,292.141 494.747,293.517 496.551,295.012 498.356,294.851 500.161,294.711 501.965,297.013 503.77,297.821 505.575,300.131 507.379,300.425 509.184,301.533 510.989,303.787 512.794,307.318 514.598,308.445 516.403,310.04 518.208,311.227 520.012,311.084 521.817,313.378 523.622,313.846 525.426,316.227 527.231,318.162 529.036,320.517 530.84,323.188 532.645,322.927 534.45,324.742 536.254,325.879 538.059,325.566 539.864,327.398 541.668,328.956 543.473,331.528 545.278,335.842 547.082,334.435 548.887,336.764 550.692,338.354 552.496,339.714 554.301,341.417 556.106,341.749 557.91,343.977 559.715,343.466 561.52,344.954 563.324,346.504 565.129,346.878 566.934,351.476 568.738,351.487 570.543,353.574 572.348,354.342 574.152,355.555 575.957,357.829 577.762,357.355 579.566,358.871 581.371,360.595 583.176,361.631 584.98,363.925 586.785,365.493 588.59,367.726 590.394,370.219 592.199,372.278 594.004,372.823 595.808,374.02 597.613,374.966 599.418,373.79 601.222,374.93 603.027,377.137 604.832,377.981 606.636,377.864 608.441,378.426 610.246,379.457 612.05,380.698 613.855,382.73 615.66,381.27 617.464,382.416 619.269,384.599 621.074,384.1 622.878,386.054 624.683,387.861 626.488,389.131 628.292,388.014 630.097,388.393 631.902,389.646 633.706,390.273 635.511,392.085 637.316,394.47 639.12,396.831 640.925,396.786 642.73,398.686 644.534,402.021 646.339,404.141 648.144,404.655 649.948,405.779 651.753,407.296 653.558,409.738 655.362,413.701 657.167,415.345 658.972,416.004 660.776,419.122 662.581,420.924 664.386,421.791 666.19,423.397 667.995,425.099 669.8,427.899 671.604,430.123 673.409,431.587 675.214,433.299 677.019,435.15 678.823,438.255 680.628,440.059 682.433,440.245 684.237,442.45 686.042,444.978 687.847,448.254 689.651,450.387 691.456,451.693 693.261,452.493 695.065,452.49 696.87,453.375 698.675,456.016 700.479,456.19 702.284,459.82 704.089,460.968 705.893,460.763 707.698,462.418 709.503,464.122 711.307,466.702 713.112,468.113 714.917,469.166 716.721,471.73 718.526,472.357 720.331,473.887 722.135,475.76 723.94,473.749 725.745,475.424 727.549,476.098 729.354,478.107 731.159,479.479 732.963,481.628 734.768,484.35 736.573,487.987 738.377,488.057 740.182,487.435 741.987,490.464 743.791,491.379 745.596,493.019 747.401,495.297 749.205,496.429 751.01,496.587 752.815,498.342 754.619,501.007 756.424,502.71 758.229,503.204 760.033,506.371 761.838,510.355 763.643,513.943 765.447,516.78 767.252,519.185 769.057,522.484 770.861,525.856 772.666,529.728 774.471,531.089 776.275,532.424 778.08,534.742 779.885,537.063 781.689,537.603 783.494,539.689 785.299,541.105 787.103,540.484 788.908,542.219 790.713,544.471 792.517,545.571 794.322,548.023 796.127,547.05 797.931,548.838 799.736,551.202 801.541,552.293 803.345,555.472 805.15,555.767 806.955,556.925 808.759,558.154 810.564,558.492 812.369,560.806 814.173,562.797 815.978,563.856 817.783,567.162 819.587,568.18 821.392,568.887 823.197,571.272 825.001,573.057 826.806,573.789 828.611,574.649 830.415,573.726 832.22,575.215 834.025,576.322 835.83,577.46 837.634,578.502 839.439,580.125 841.244,581.783 843.048,580.896 844.853,581.055 846.658,582.141 848.462,583.814 850.267,586.042 852.072,586.225 853.876,588.463 855.681,590.573 857.486,593.377 859.29,595.318 861.095,598.269 862.9,601.837 864.704,603.852 866.509,606.301 868.314,607.519 870.118,610.256 871.923,610.477 873.728,612.217 875.532,612.53 877.337,614.229 879.142,616.301 880.946,618.371 882.751,619.098 884.556,620.995 886.36,622.307 888.165,624.253 889.97,623.7 891.774,625.371 893.579,626.769 895.384,630.061 897.188,632.073 898.993,634.002 900.798,636.108 902.602,636.374 904.407,639.493 906.212,641.449 908.016,643.49 909.821,643.852 911.626,645.837 913.43,647.126 915.235,648.209 917.04,649.494 918.844,652.524 920.649,655.469 922.454,658.141 924.258,660.753 926.063,662.797 927.868,665.624 929.672,666.469 931.477,667.584 933.282,669.366 935.086,669.106 936.891,671.398 938.696,674.156 940.5,675.955 942.305,678.875 944.11,680.568 945.914,684.329 947.719,686.718 949.524,689.248 951.328,693.092 953.133,694.092 954.938,696.199 956.742,695.517 958.547,698.585 960.352,701.277 962.156,704.42 963.961,706.345 965.766,708.389 967.57,711.346 969.375,711.498 971.18,712.667 972.984,714.619 974.789,714.526 976.594,716.144 978.398,719.801 980.203,724.012 982.008,725.956 983.812,726.682 985.617,726.526 987.422,728.284 989.226,729.831 991.031,731.239 992.836,733.146 994.64,732.382 996.445,732.122 998.25,734.325 1000.05,735.209 1001.86,736.205 1003.66,737.207 1005.47,738.764 1007.27,742.192 1009.08,743.165 1010.88,743.337 1012.69,745.103 1014.49,745.552 1016.3,748.956 1018.1,747.413 1019.91,749.622 1021.71,751.211 1023.52,750.793 1025.32,750.957 1027.12,754.702 1028.93,754.847 1030.73,755.358 1032.54,756.314 1034.34,758.696 1036.15,760.222 1037.95,759.621 1039.76,761.455 1041.56,761.785 1043.37,763.835 1045.17,765.899 1046.98,767.705 1048.78,769.337 1050.59,770.154 1052.39,771.342 1054.19,773.176 1056,773.658 1057.8,774.516 1059.61,776.521 1061.41,777.896 1063.22,780.651 1065.02,782.57 1066.83,783.387 1068.63,784.853 1070.44,786.961 1072.24,787.73 1074.05,789.909 1075.85,791.47 1077.66,794.086 1079.46,796.164 1081.26,797.41 1083.07,797.288 1084.87,797.841 1086.68,798.228 1088.48,801.072 1090.29,800.025 1092.09,803.22 1093.9,806.291 1095.7,806.316 1097.51,808.8 1099.31,812.725 1101.12,815.951 1102.92,817.668 1104.73,819.104 1106.53,821.29 1108.33,824.613 1110.14,826.386 1111.94,828.15 1113.75,829.121 1115.55,831.407 1117.36,832.833 1119.16,835.444 1120.97,836.347 1122.77,838.848 1124.58,842.069 1126.38,842.847 1128.19,844.011 1129.99,843.92 1131.8,844.293 1133.6,844.258 1135.4,846.577 1137.21,847.756 1139.01,849.099 1140.82,851.325 1142.62,851.779 1144.43,854.043 1146.23,857.004 1148.04,858.968 1149.84,861.625 1151.65,861.871 1153.45,863.585 1155.26,865.151 1157.06,866.176 1158.87,869.237 1160.67,871.616 1162.47,874.624 1164.28,876.23 1166.08,877.258 1167.89,878.681 1169.69,880.42 1171.5,881.57 1173.3,882.01 1175.11,885.085 1176.91,885.227 1178.72,885.139 1180.52,886.535 1182.33,885.322 1184.13,886.327 1185.94,885.659 1187.74,885.922 1189.54,886.035 1191.35,885.636 1193.15,886.456 1194.96,887.104 1196.76,889.112 1198.57,889.458 1200.37,890.72 1202.18,893.759 1203.98,894.245 1205.79,895.329 1207.59,898.557 1209.4,900.025 1211.2,902.726 1213.01,903.926 1214.81,906.349 1216.61,907.519 1218.42,906.255 1220.22,908.793 1222.03,911.15 1223.83,912.406 1225.64,912.53 1227.44,914.915 1229.25,916.031 1231.05,917.087 1232.86,918.527 1234.66,919.237 1236.47,919.597 1238.27,921.557 1240.08,923.299 1241.88,926.994 1243.69,927.662 1245.49,929.989 1247.29,931.053 1249.1,933.097 1250.9,935.614 1252.71,936.38 1254.51,938.048 1256.32,940.59 1258.12,941.714 1259.93,943.311 1261.73,944.539 1263.54,946.683 1265.34,947.213 1267.15,947.227 1268.95,949.052 1270.76,949.345 1272.56,951.483 1274.36,953.292 1276.17,952.908 1277.97,953.158 1279.78,953.329 1281.58,955.481 1283.39,955.927 1285.19,957.679 1287,959.627 1288.8,960.438 1290.61,961.428 1292.41,963.459 1294.22,964.551 1296.02,963.372 1297.83,963.936 1299.63,964.173 1301.43,963.813 1303.24,964.673 1305.04,965.418 1306.85,966.129 1308.65,966.949 1310.46,966.638 1312.26,967.76 1314.07,968.158 1315.87,968.906 1317.68,969.393 1319.48,969.66 1321.29,970.425 1323.09,972.47 1324.9,972.118 1326.7,971.376 1328.5,973.258 1330.31,973.562 1332.11,974.585 1333.92,974.128 1335.72,975.623 1337.53,976.594 1339.33,977.538 1341.14,979.18 1342.94,981.097 1344.75,982.365 1346.55,983.93 1348.36,986.064 1350.16,986.842 1351.97,989.141 1353.77,991.377 1355.57,992.18 1357.38,993.707 1359.18,994.853 1360.99,995.897 1362.79,995.198 1364.6,995.893 1366.4,995.878 1368.21,997.549 1370.01,999.253 1371.82,1000.82 1373.62,1002.42 1375.43,1002.69 1377.23,1002.18 1379.04,1003.12 1380.84,1004.01 1382.64,1006.21 1384.45,1007.01 1386.25,1006.42 1388.06,1008.38 1389.86,1010.1 1391.67,1011.09 1393.47,1013.55 1395.28,1015.38 1397.08,1016.57 1398.89,1018.52 1400.69,1019.21 1402.5,1020.06 1404.3,1021.25 1406.11,1022.88 1407.91,1023.26 1409.71,1022.78 1411.52,1024.66 1413.32,1026.49 1415.13,1027.66 1416.93,1027.86 1418.74,1026.48 1420.54,1026.99 1422.35,1027.54 1424.15,1028.55 1425.96,1029.57 1427.76,1030.94 1429.57,1030.05 1431.37,1031.42 1433.18,1033.05 1434.98,1032.84 1436.78,1034.84 1438.59,1035.44 1440.39,1036.92 1442.2,1035.88 1444,1037.21 1445.81,1039.08 1447.61,1040.52 1449.42,1041.2 1451.22,1043.44 1453.03,1044.92 1454.83,1045.08 1456.64,1046.34 1458.44,1047.36 1460.25,1048.77 1462.05,1048.94 1463.85,1049.45 1465.66,1049.52 1467.46,1050.02 1469.27,1051.84 1471.07,1052.39 1472.88,1053.02 1474.68,1054.31 1476.49,1055.39 1478.29,1056.58 1480.1,1057.96 1481.9,1059.65 1483.71,1061.58 1485.51,1062.26 1487.32,1063.32 1489.12,1063.71 1490.92,1064.4 1492.73,1065.84 1494.53,1066.88 1496.34,1068.05 1498.14,1068.02 1499.95,1067.52 1501.75,1068.89 1503.56,1070.07 1505.36,1070.64 1507.17,1071.05 1508.97,1072.24 1510.78,1070.7 1512.58,1072.33 1514.39,1072.59 1516.19,1073.59 1517.99,1074.29 1519.8,1075.88 1521.6,1076.54 1523.41,1075.49 1525.21,1076.81 1527.02,1076.4 1528.82,1077.4 1530.63,1077.91 1532.43,1077.98 1534.24,1079.59 1536.04,1079.7 1537.85,1081.59 1539.65,1083.46 1541.46,1085.49 1543.26,1086.27 1545.06,1087.73 1546.87,1088.76 1548.67,1089.82 1550.48,1090.23 1552.28,1089.66 1554.09,1090.87 1555.89,1091.98 1557.7,1093.95 1559.5,1094.91 1561.31,1096.58 1563.11,1096.36 1564.92,1097.18 1566.72,1097.57 1568.53,1098.81 1570.33,1100.14 1572.14,1101.44 1573.94,1102.34 1575.74,1102.86 1577.55,1103.71 1579.35,1105.45 1581.16,1106.89 1582.96,1106.84 1584.77,1107.56 1586.57,1107.4 1588.38,1108.07 1590.18,1109.13 1591.99,1108.35 1593.79,1108.08 1595.6,1108.58 1597.4,1109.31 1599.21,1109.01 1601.01,1109.72 1602.81,1110.01 1604.62,1111.43 1606.42,1112.49 1608.23,1112.93 1610.03,1113.33 1611.84,1115.24 1613.64,1115.1 1615.45,1116.05 1617.25,1116.2 1619.06,1117.48 1620.86,1117.99 1622.67,1119.18 1624.47,1118.88 1626.28,1119.36 1628.08,1119.46 1629.88,1119.24 1631.69,1119.97 1633.49,1119.96 1635.3,1119.44 1637.1,1120.76 1638.91,1121.38 1640.71,1122.18 1642.52,1123.25 1644.32,1123.82 1646.13,1124.22 1647.93,1124.91 1649.74,1126.88 1651.54,1127.11 1653.35,1127.23 1655.15,1129.01 1656.95,1130.46 1658.76,1131.07 1660.56,1131.53 1662.37,1132.01 1664.17,1131.49 1665.98,1132.16 1667.78,1132.69 1669.59,1132.62 1671.39,1133.89 1673.2,1134.11 1675,1134.71 1676.81,1134.94 1678.61,1134.87 1680.42,1134.36 1682.22,1135 1684.02,1136.18 1685.83,1137.37 1687.63,1138.76 1689.44,1138.93 1691.24,1139.3 1693.05,1138.41 1694.85,1139.14 1696.66,1139.18 1698.46,1139.35 1700.27,1140.41 1702.07,1141.08 1703.88,1142.05 1705.68,1142.25 1707.49,1142.63 1709.29,1142.67 1711.09,1142.75 1712.9,1143.25 1714.7,1143.59 1716.51,1144.83 1718.31,1145.17 1720.12,1146.19 1721.92,1146.36 1723.73,1146.33 1725.53,1146.82 1727.34,1147.54 1729.14,1148.89 1730.95,1149.24 1732.75,1149.27 1734.56,1149.13 1736.36,1149.44 1738.16,1149.91 1739.97,1150.2 1741.77,1150.02 1743.58,1150.75 1745.38,1151.33 1747.19,1151.63 1748.99,1150.99 1750.8,1151.68 1752.6,1152.16 1754.41,1151.67 1756.21,1151.96 1758.02,1152.9 1759.82,1153.59 1761.63,1154.37 1763.43,1155.33 1765.23,1155.96 1767.04,1156.31 1768.84,1156.83 1770.65,1157.24 1772.45,1157.34 1774.26,1157.44 1776.06,1157.68 1777.87,1157.7 1779.67,1158.23 1781.48,1158.97 1783.28,1160.19 1785.09,1160.35 1786.89,1161.51 1788.7,1161.82 1790.5,1162.3 1792.3,1162.27 1794.11,1162.53 1795.91,1163 1797.72,1163.26 1799.52,1164 1801.33,1164.86 1803.13,1164.74 1804.94,1164.96 1806.74,1165.37 1808.55,1165.49 1810.35,1165.47 1812.16,1165.2 1813.96,1165.42 1815.77,1165.48 1817.57,1166.5 1819.37,1166.69 1821.18,1166.99 1822.98,1167.41 1824.79,1167.33 1826.59,1168.04 1828.4,1168.36 1830.2,1169.25 1832.01,1169.65 1833.81,1170.16 1835.62,1170.34 1837.42,1170.19 1839.23,1170.47 1841.03,1171.55 1842.84,1172.15 1844.64,1171.77 1846.44,1172.47 1848.25,1172.94 1850.05,1173.15 1851.86,1173.49 1853.66,1173.64 1855.47,1173.43 1857.27,1173.66 1859.08,1174.34 1860.88,1174.26 1862.69,1175.01 1864.49,1174.77 1866.3,1175.42 1868.1,1175.43 1869.91,1175.83 1871.71,1175.77 1873.51,1175.59 1875.32,1175.59 1877.12,1175.36 1878.93,1175.71 1880.73,1175.44 1882.54,1175.62 1884.34,1176.12 1886.15,1176.48 1887.95,1176.3 1889.76,1176.26 1891.56,1176.23 1893.37,1176.62 1895.17,1176.52 1896.98,1176.52 1898.78,1177.3 1900.59,1177.51 1902.39,1178.06 1904.19,1178.56 1906,1179.26 1907.8,1180.13 1909.61,1180.47 1911.41,1180.53 1913.22,1180.88 1915.02,1181.61 1916.83,1181.77 1918.63,1182.32 1920.44,1182.34 1922.24,1182.18 1924.05,1181.74 1925.85,1181.38 1927.66,1181.12 1929.46,1181.23 1931.26,1182.09 1933.07,1182.8 1934.87,1183.37 1936.68,1183.3 1938.48,1183.3 1940.29,1182.73 1942.09,1183.37 1943.9,1183.25 1945.7,1183.68 1947.51,1184 1949.31,1183.75 1951.12,1184 1952.92,1184.02 1954.73,1184.13 1956.53,1184.19 1958.33,1184.25 1960.14,1184.08 1961.94,1183.91 1963.75,1183.79 1965.55,1183.91 1967.36,1183.74 1969.16,1183.61 1970.97,1183.68 1972.77,1183.95 1974.58,1183.73 1976.38,1184 1978.19,1183.86 1979.99,1184.56 1981.8,1184.37 1983.6,1184.43 1985.4,1184.55 1987.21,1184.84 1989.01,1184.61 1990.82,1185.22 1992.62,1185.79 1994.43,1186.04 1996.23,1186.66 1998.04,1187.22 1999.84,1186.83 2001.65,1187.34 2003.45,1187.64 2005.26,1187.58 2007.06,1187.82 2008.87,1187.61 2010.67,1188.3 "/>
</svg>
