<?xml version="1.0" encoding="utf-8"?>
<svg xmlns="http://www.w3.org/2000/svg" xmlns:xlink="http://www.w3.org/1999/xlink" width="528" height="336" viewBox="0 0 2112 1344">
<defs>
  <clipPath id="clip950">
    <rect x="0" y="0" width="2112" height="1344"/>
  </clipPath>
</defs>
<path clip-path="url(#clip950)" d="M0 1344 L2112 1344 L2112 0 L0 0  Z" fill="#ffffff" fill-rule="evenodd" fill-opacity="1"/>
<defs>
  <clipPath id="clip951">
    <rect x="422" y="0" width="1479" height="1344"/>
  </clipPath>
</defs>
<path clip-path="url(#clip950)" d="M153.718 1222.85 L2064.76 1222.85 L2064.76 47.2441 L153.718 47.2441  Z" fill="#ffffff" fill-rule="evenodd" fill-opacity="1"/>
<defs>
  <clipPath id="clip952">
    <rect x="153" y="47" width="1912" height="1177"/>
  </clipPath>
</defs>
<polyline clip-path="url(#clip952)" style="stroke:#000000; stroke-linecap:round; stroke-linejoin:round; stroke-width:2; stroke-opacity:0.1; fill:none" points="207.786,1222.85 207.786,47.2441 "/>
<polyline clip-path="url(#clip952)" style="stroke:#000000; stroke-linecap:round; stroke-linejoin:round; stroke-width:2; stroke-opacity:0.1; fill:none" points="658.954,1222.85 658.954,47.2441 "/>
<polyline clip-path="url(#clip952)" style="stroke:#000000; stroke-linecap:round; stroke-linejoin:round; stroke-width:2; stroke-opacity:0.1; fill:none" points="1110.12,1222.85 1110.12,47.2441 "/>
<polyline clip-path="url(#clip952)" style="stroke:#000000; stroke-linecap:round; stroke-linejoin:round; stroke-width:2; stroke-opacity:0.1; fill:none" points="1561.29,1222.85 1561.29,47.2441 "/>
<polyline clip-path="url(#clip952)" style="stroke:#000000; stroke-linecap:round; stroke-linejoin:round; stroke-width:2; stroke-opacity:0.1; fill:none" points="2012.46,1222.85 2012.46,47.2441 "/>
<polyline clip-path="url(#clip950)" style="stroke:#000000; stroke-linecap:round; stroke-linejoin:round; stroke-width:4; stroke-opacity:1; fill:none" points="153.718,1222.85 2064.76,1222.85 "/>
<polyline clip-path="url(#clip950)" style="stroke:#000000; stroke-linecap:round; stroke-linejoin:round; stroke-width:4; stroke-opacity:1; fill:none" points="207.786,1222.85 207.786,1203.96 "/>
<polyline clip-path="url(#clip950)" style="stroke:#000000; stroke-linecap:round; stroke-linejoin:round; stroke-width:4; stroke-opacity:1; fill:none" points="658.954,1222.85 658.954,1203.96 "/>
<polyline clip-path="url(#clip950)" style="stroke:#000000; stroke-linecap:round; stroke-linejoin:round; stroke-width:4; stroke-opacity:1; fill:none" points="1110.12,1222.85 1110.12,1203.96 "/>
<polyline clip-path="url(#clip950)" style="stroke:#000000; stroke-linecap:round; stroke-linejoin:round; stroke-width:4; stroke-opacity:1; fill:none" points="1561.29,1222.85 1561.29,1203.96 "/>
<polyline clip-path="url(#clip950)" style="stroke:#000000; stroke-linecap:round; stroke-linejoin:round; stroke-width:4; stroke-opacity:1; fill:none" points="2012.46,1222.85 2012.46,1203.96 "/>
<path clip-path="url(#clip950)" d="M207.786 1251.47 Q204.175 1251.47 202.346 1255.03 Q200.541 1258.58 200.541 1265.7 Q200.541 1272.81 202.346 1276.38 Q204.175 1279.92 207.786 1279.92 Q211.42 1279.92 213.226 1276.38 Q215.055 1272.81 215.055 1265.7 Q215.055 1258.58 213.226 1255.03 Q211.42 1251.47 207.786 1251.47 M207.786 1247.76 Q213.596 1247.76 216.652 1252.37 Q219.731 1256.95 219.731 1265.7 Q219.731 1274.43 216.652 1279.04 Q213.596 1283.62 207.786 1283.62 Q201.976 1283.62 198.897 1279.04 Q195.842 1274.43 195.842 1265.7 Q195.842 1256.95 198.897 1252.37 Q201.976 1247.76 207.786 1247.76 Z" fill="#000000" fill-rule="nonzero" fill-opacity="1" /><path clip-path="url(#clip950)" d="M554.857 1294.67 L571.176 1294.67 L571.176 1298.61 L549.232 1298.61 L549.232 1294.67 Q551.894 1291.92 556.477 1287.29 Q561.084 1282.64 562.264 1281.3 Q564.51 1278.77 565.389 1277.04 Q566.292 1275.28 566.292 1273.59 Q566.292 1270.83 564.348 1269.1 Q562.426 1267.36 559.325 1267.36 Q557.126 1267.36 554.672 1268.12 Q552.241 1268.89 549.464 1270.44 L549.464 1265.72 Q552.288 1264.58 554.741 1264 Q557.195 1263.42 559.232 1263.42 Q564.602 1263.42 567.797 1266.11 Q570.991 1268.8 570.991 1273.29 Q570.991 1275.42 570.181 1277.34 Q569.394 1279.24 567.288 1281.83 Q566.709 1282.5 563.607 1285.72 Q560.505 1288.91 554.857 1294.67 Z" fill="#000000" fill-rule="nonzero" fill-opacity="1" /><path clip-path="url(#clip950)" d="M580.991 1292.73 L585.875 1292.73 L585.875 1298.61 L580.991 1298.61 L580.991 1292.73 Z" fill="#000000" fill-rule="nonzero" fill-opacity="1" /><path clip-path="url(#clip950)" d="M596.107 1264.05 L614.463 1264.05 L614.463 1267.99 L600.389 1267.99 L600.389 1276.46 Q601.408 1276.11 602.426 1275.95 Q603.445 1275.76 604.463 1275.76 Q610.25 1275.76 613.63 1278.93 Q617.01 1282.11 617.01 1287.52 Q617.01 1293.1 613.537 1296.2 Q610.065 1299.28 603.746 1299.28 Q601.57 1299.28 599.301 1298.91 Q597.056 1298.54 594.649 1297.8 L594.649 1293.1 Q596.732 1294.23 598.954 1294.79 Q601.176 1295.35 603.653 1295.35 Q607.658 1295.35 609.996 1293.24 Q612.334 1291.13 612.334 1287.52 Q612.334 1283.91 609.996 1281.8 Q607.658 1279.7 603.653 1279.7 Q601.778 1279.7 599.903 1280.11 Q598.051 1280.53 596.107 1281.41 L596.107 1264.05 Z" fill="#000000" fill-rule="nonzero" fill-opacity="1" /><path clip-path="url(#clip950)" d="M636.222 1267.13 Q632.611 1267.13 630.783 1270.69 Q628.977 1274.24 628.977 1281.36 Q628.977 1288.47 630.783 1292.04 Q632.611 1295.58 636.222 1295.58 Q639.857 1295.58 641.662 1292.04 Q643.491 1288.47 643.491 1281.36 Q643.491 1274.24 641.662 1270.69 Q639.857 1267.13 636.222 1267.13 M636.222 1263.42 Q642.033 1263.42 645.088 1268.03 Q648.167 1272.61 648.167 1281.36 Q648.167 1290.09 645.088 1294.7 Q642.033 1299.28 636.222 1299.28 Q630.412 1299.28 627.334 1294.7 Q624.278 1290.09 624.278 1281.36 Q624.278 1272.61 627.334 1268.03 Q630.412 1263.42 636.222 1263.42 Z" fill="#000000" fill-rule="nonzero" fill-opacity="1" /><path clip-path="url(#clip950)" d="M684.555 1273.15 L673.977 1283.77 L684.555 1294.35 L681.801 1297.15 L671.176 1286.53 L660.551 1297.15 L657.82 1294.35 L668.375 1283.77 L657.82 1273.15 L660.551 1270.35 L671.176 1280.97 L681.801 1270.35 L684.555 1273.15 Z" fill="#000000" fill-rule="nonzero" fill-opacity="1" /><path clip-path="url(#clip950)" d="M696.917 1294.67 L704.555 1294.67 L704.555 1268.31 L696.245 1269.98 L696.245 1265.72 L704.509 1264.05 L709.185 1264.05 L709.185 1294.67 L716.824 1294.67 L716.824 1298.61 L696.917 1298.61 L696.917 1294.67 Z" fill="#000000" fill-rule="nonzero" fill-opacity="1" /><path clip-path="url(#clip950)" d="M736.268 1267.13 Q732.657 1267.13 730.828 1270.69 Q729.023 1274.24 729.023 1281.36 Q729.023 1288.47 730.828 1292.04 Q732.657 1295.58 736.268 1295.58 Q739.902 1295.58 741.708 1292.04 Q743.537 1288.47 743.537 1281.36 Q743.537 1274.24 741.708 1270.69 Q739.902 1267.13 736.268 1267.13 M736.268 1263.42 Q742.078 1263.42 745.134 1268.03 Q748.213 1272.61 748.213 1281.36 Q748.213 1290.09 745.134 1294.7 Q742.078 1299.28 736.268 1299.28 Q730.458 1299.28 727.379 1294.7 Q724.324 1290.09 724.324 1281.36 Q724.324 1272.61 727.379 1268.03 Q730.458 1263.42 736.268 1263.42 Z" fill="#000000" fill-rule="nonzero" fill-opacity="1" /><path clip-path="url(#clip950)" d="M760.889 1246.43 L751.297 1261.42 L760.889 1261.42 L760.889 1246.43 M759.892 1243.12 L764.669 1243.12 L764.669 1261.42 L768.675 1261.42 L768.675 1264.58 L764.669 1264.58 L764.669 1271.2 L760.889 1271.2 L760.889 1264.58 L748.213 1264.58 L748.213 1260.91 L759.892 1243.12 Z" fill="#000000" fill-rule="nonzero" fill-opacity="1" /><path clip-path="url(#clip950)" d="M1001.95 1264.05 L1020.31 1264.05 L1020.31 1267.99 L1006.23 1267.99 L1006.23 1276.46 Q1007.25 1276.11 1008.27 1275.95 Q1009.29 1275.76 1010.31 1275.76 Q1016.09 1275.76 1019.47 1278.93 Q1022.85 1282.11 1022.85 1287.52 Q1022.85 1293.1 1019.38 1296.2 Q1015.91 1299.28 1009.59 1299.28 Q1007.41 1299.28 1005.15 1298.91 Q1002.9 1298.54 1000.49 1297.8 L1000.49 1293.1 Q1002.58 1294.23 1004.8 1294.79 Q1007.02 1295.35 1009.5 1295.35 Q1013.5 1295.35 1015.84 1293.24 Q1018.18 1291.13 1018.18 1287.52 Q1018.18 1283.91 1015.84 1281.8 Q1013.5 1279.7 1009.5 1279.7 Q1007.62 1279.7 1005.75 1280.11 Q1003.9 1280.53 1001.95 1281.41 L1001.95 1264.05 Z" fill="#000000" fill-rule="nonzero" fill-opacity="1" /><path clip-path="url(#clip950)" d="M1032.07 1292.73 L1036.95 1292.73 L1036.95 1298.61 L1032.07 1298.61 L1032.07 1292.73 Z" fill="#000000" fill-rule="nonzero" fill-opacity="1" /><path clip-path="url(#clip950)" d="M1057.14 1267.13 Q1053.52 1267.13 1051.7 1270.69 Q1049.89 1274.24 1049.89 1281.36 Q1049.89 1288.47 1051.7 1292.04 Q1053.52 1295.58 1057.14 1295.58 Q1060.77 1295.58 1062.58 1292.04 Q1064.4 1288.47 1064.4 1281.36 Q1064.4 1274.24 1062.58 1270.69 Q1060.77 1267.13 1057.14 1267.13 M1057.14 1263.42 Q1062.95 1263.42 1066 1268.03 Q1069.08 1272.61 1069.08 1281.36 Q1069.08 1290.09 1066 1294.7 Q1062.95 1299.28 1057.14 1299.28 Q1051.33 1299.28 1048.25 1294.7 Q1045.19 1290.09 1045.19 1281.36 Q1045.19 1272.61 1048.25 1268.03 Q1051.33 1263.42 1057.14 1263.42 Z" fill="#000000" fill-rule="nonzero" fill-opacity="1" /><path clip-path="url(#clip950)" d="M1087.3 1267.13 Q1083.69 1267.13 1081.86 1270.69 Q1080.05 1274.24 1080.05 1281.36 Q1080.05 1288.47 1081.86 1292.04 Q1083.69 1295.58 1087.3 1295.58 Q1090.93 1295.58 1092.74 1292.04 Q1094.57 1288.47 1094.57 1281.36 Q1094.57 1274.24 1092.74 1270.69 Q1090.93 1267.13 1087.3 1267.13 M1087.3 1263.42 Q1093.11 1263.42 1096.16 1268.03 Q1099.24 1272.61 1099.24 1281.36 Q1099.24 1290.09 1096.16 1294.7 Q1093.11 1299.28 1087.3 1299.28 Q1081.49 1299.28 1078.41 1294.7 Q1075.35 1290.09 1075.35 1281.36 Q1075.35 1272.61 1078.41 1268.03 Q1081.49 1263.42 1087.3 1263.42 Z" fill="#000000" fill-rule="nonzero" fill-opacity="1" /><path clip-path="url(#clip950)" d="M1135.63 1273.15 L1125.05 1283.77 L1135.63 1294.35 L1132.88 1297.15 L1122.25 1286.53 L1111.63 1297.15 L1108.89 1294.35 L1119.45 1283.77 L1108.89 1273.15 L1111.63 1270.35 L1122.25 1280.97 L1132.88 1270.35 L1135.63 1273.15 Z" fill="#000000" fill-rule="nonzero" fill-opacity="1" /><path clip-path="url(#clip950)" d="M1147.99 1294.67 L1155.63 1294.67 L1155.63 1268.31 L1147.32 1269.98 L1147.32 1265.72 L1155.58 1264.05 L1160.26 1264.05 L1160.26 1294.67 L1167.9 1294.67 L1167.9 1298.61 L1147.99 1298.61 L1147.99 1294.67 Z" fill="#000000" fill-rule="nonzero" fill-opacity="1" /><path clip-path="url(#clip950)" d="M1187.34 1267.13 Q1183.73 1267.13 1181.9 1270.69 Q1180.1 1274.24 1180.1 1281.36 Q1180.1 1288.47 1181.9 1292.04 Q1183.73 1295.58 1187.34 1295.58 Q1190.98 1295.58 1192.78 1292.04 Q1194.61 1288.47 1194.61 1281.36 Q1194.61 1274.24 1192.78 1270.69 Q1190.98 1267.13 1187.34 1267.13 M1187.34 1263.42 Q1193.15 1263.42 1196.21 1268.03 Q1199.29 1272.61 1199.29 1281.36 Q1199.29 1290.09 1196.21 1294.7 Q1193.15 1299.28 1187.34 1299.28 Q1181.53 1299.28 1178.45 1294.7 Q1175.4 1290.09 1175.4 1281.36 Q1175.4 1272.61 1178.45 1268.03 Q1181.53 1263.42 1187.34 1263.42 Z" fill="#000000" fill-rule="nonzero" fill-opacity="1" /><path clip-path="url(#clip950)" d="M1211.96 1246.43 L1202.37 1261.42 L1211.96 1261.42 L1211.96 1246.43 M1210.97 1243.12 L1215.74 1243.12 L1215.74 1261.42 L1219.75 1261.42 L1219.75 1264.58 L1215.74 1264.58 L1215.74 1271.2 L1211.96 1271.2 L1211.96 1264.58 L1199.29 1264.58 L1199.29 1260.91 L1210.97 1243.12 Z" fill="#000000" fill-rule="nonzero" fill-opacity="1" /><path clip-path="url(#clip950)" d="M1451.78 1264.05 L1474 1264.05 L1474 1266.04 L1461.45 1298.61 L1456.57 1298.61 L1468.37 1267.99 L1451.78 1267.99 L1451.78 1264.05 Z" fill="#000000" fill-rule="nonzero" fill-opacity="1" /><path clip-path="url(#clip950)" d="M1483.12 1292.73 L1488 1292.73 L1488 1298.61 L1483.12 1298.61 L1483.12 1292.73 Z" fill="#000000" fill-rule="nonzero" fill-opacity="1" /><path clip-path="url(#clip950)" d="M1498.23 1264.05 L1516.59 1264.05 L1516.59 1267.99 L1502.52 1267.99 L1502.52 1276.46 Q1503.53 1276.11 1504.55 1275.95 Q1505.57 1275.76 1506.59 1275.76 Q1512.38 1275.76 1515.76 1278.93 Q1519.14 1282.11 1519.14 1287.52 Q1519.14 1293.1 1515.66 1296.2 Q1512.19 1299.28 1505.87 1299.28 Q1503.7 1299.28 1501.43 1298.91 Q1499.18 1298.54 1496.78 1297.8 L1496.78 1293.1 Q1498.86 1294.23 1501.08 1294.79 Q1503.3 1295.35 1505.78 1295.35 Q1509.78 1295.35 1512.12 1293.24 Q1514.46 1291.13 1514.46 1287.52 Q1514.46 1283.91 1512.12 1281.8 Q1509.78 1279.7 1505.78 1279.7 Q1503.91 1279.7 1502.03 1280.11 Q1500.18 1280.53 1498.23 1281.41 L1498.23 1264.05 Z" fill="#000000" fill-rule="nonzero" fill-opacity="1" /><path clip-path="url(#clip950)" d="M1538.35 1267.13 Q1534.74 1267.13 1532.91 1270.69 Q1531.1 1274.24 1531.1 1281.36 Q1531.1 1288.47 1532.91 1292.04 Q1534.74 1295.58 1538.35 1295.58 Q1541.98 1295.58 1543.79 1292.04 Q1545.62 1288.47 1545.62 1281.36 Q1545.62 1274.24 1543.79 1270.69 Q1541.98 1267.13 1538.35 1267.13 M1538.35 1263.42 Q1544.16 1263.42 1547.21 1268.03 Q1550.29 1272.61 1550.29 1281.36 Q1550.29 1290.09 1547.21 1294.7 Q1544.16 1299.28 1538.35 1299.28 Q1532.54 1299.28 1529.46 1294.7 Q1526.4 1290.09 1526.4 1281.36 Q1526.4 1272.61 1529.46 1268.03 Q1532.54 1263.42 1538.35 1263.42 Z" fill="#000000" fill-rule="nonzero" fill-opacity="1" /><path clip-path="url(#clip950)" d="M1586.68 1273.15 L1576.1 1283.77 L1586.68 1294.35 L1583.93 1297.15 L1573.3 1286.53 L1562.68 1297.15 L1559.95 1294.35 L1570.5 1283.77 L1559.95 1273.15 L1562.68 1270.35 L1573.3 1280.97 L1583.93 1270.35 L1586.68 1273.15 Z" fill="#000000" fill-rule="nonzero" fill-opacity="1" /><path clip-path="url(#clip950)" d="M1599.04 1294.67 L1606.68 1294.67 L1606.68 1268.31 L1598.37 1269.98 L1598.37 1265.72 L1606.64 1264.05 L1611.31 1264.05 L1611.31 1294.67 L1618.95 1294.67 L1618.95 1298.61 L1599.04 1298.61 L1599.04 1294.67 Z" fill="#000000" fill-rule="nonzero" fill-opacity="1" /><path clip-path="url(#clip950)" d="M1638.4 1267.13 Q1634.78 1267.13 1632.96 1270.69 Q1631.15 1274.24 1631.15 1281.36 Q1631.15 1288.47 1632.96 1292.04 Q1634.78 1295.58 1638.4 1295.58 Q1642.03 1295.58 1643.83 1292.04 Q1645.66 1288.47 1645.66 1281.36 Q1645.66 1274.24 1643.83 1270.69 Q1642.03 1267.13 1638.4 1267.13 M1638.4 1263.42 Q1644.21 1263.42 1647.26 1268.03 Q1650.34 1272.61 1650.34 1281.36 Q1650.34 1290.09 1647.26 1294.7 Q1644.21 1299.28 1638.4 1299.28 Q1632.58 1299.28 1629.51 1294.7 Q1626.45 1290.09 1626.45 1281.36 Q1626.45 1272.61 1629.51 1268.03 Q1632.58 1263.42 1638.4 1263.42 Z" fill="#000000" fill-rule="nonzero" fill-opacity="1" /><path clip-path="url(#clip950)" d="M1663.02 1246.43 L1653.42 1261.42 L1663.02 1261.42 L1663.02 1246.43 M1662.02 1243.12 L1666.8 1243.12 L1666.8 1261.42 L1670.8 1261.42 L1670.8 1264.58 L1666.8 1264.58 L1666.8 1271.2 L1663.02 1271.2 L1663.02 1264.58 L1650.34 1264.58 L1650.34 1260.91 L1662.02 1243.12 Z" fill="#000000" fill-rule="nonzero" fill-opacity="1" /><path clip-path="url(#clip950)" d="M1905.42 1294.67 L1913.06 1294.67 L1913.06 1268.31 L1904.75 1269.98 L1904.75 1265.72 L1913.01 1264.05 L1917.69 1264.05 L1917.69 1294.67 L1925.33 1294.67 L1925.33 1298.61 L1905.42 1298.61 L1905.42 1294.67 Z" fill="#000000" fill-rule="nonzero" fill-opacity="1" /><path clip-path="url(#clip950)" d="M1934.77 1292.73 L1939.66 1292.73 L1939.66 1298.61 L1934.77 1298.61 L1934.77 1292.73 Z" fill="#000000" fill-rule="nonzero" fill-opacity="1" /><path clip-path="url(#clip950)" d="M1959.84 1267.13 Q1956.23 1267.13 1954.4 1270.69 Q1952.6 1274.24 1952.6 1281.36 Q1952.6 1288.47 1954.4 1292.04 Q1956.23 1295.58 1959.84 1295.58 Q1963.48 1295.58 1965.28 1292.04 Q1967.11 1288.47 1967.11 1281.36 Q1967.11 1274.24 1965.28 1270.69 Q1963.48 1267.13 1959.84 1267.13 M1959.84 1263.42 Q1965.65 1263.42 1968.71 1268.03 Q1971.79 1272.61 1971.79 1281.36 Q1971.79 1290.09 1968.71 1294.7 Q1965.65 1299.28 1959.84 1299.28 Q1954.03 1299.28 1950.95 1294.7 Q1947.9 1290.09 1947.9 1281.36 Q1947.9 1272.61 1950.95 1268.03 Q1954.03 1263.42 1959.84 1263.42 Z" fill="#000000" fill-rule="nonzero" fill-opacity="1" /><path clip-path="url(#clip950)" d="M1990 1267.13 Q1986.39 1267.13 1984.56 1270.69 Q1982.76 1274.24 1982.76 1281.36 Q1982.76 1288.47 1984.56 1292.04 Q1986.39 1295.58 1990 1295.58 Q1993.64 1295.58 1995.44 1292.04 Q1997.27 1288.47 1997.27 1281.36 Q1997.27 1274.24 1995.44 1270.69 Q1993.64 1267.13 1990 1267.13 M1990 1263.42 Q1995.81 1263.42 1998.87 1268.03 Q2001.95 1272.61 2001.95 1281.36 Q2001.95 1290.09 1998.87 1294.7 Q1995.81 1299.28 1990 1299.28 Q1984.19 1299.28 1981.12 1294.7 Q1978.06 1290.09 1978.06 1281.36 Q1978.06 1272.61 1981.12 1268.03 Q1984.19 1263.42 1990 1263.42 Z" fill="#000000" fill-rule="nonzero" fill-opacity="1" /><path clip-path="url(#clip950)" d="M2038.34 1273.15 L2027.76 1283.77 L2038.34 1294.35 L2035.58 1297.15 L2024.96 1286.53 L2014.33 1297.15 L2011.6 1294.35 L2022.16 1283.77 L2011.6 1273.15 L2014.33 1270.35 L2024.96 1280.97 L2035.58 1270.35 L2038.34 1273.15 Z" fill="#000000" fill-rule="nonzero" fill-opacity="1" /><path clip-path="url(#clip950)" d="M2050.7 1294.67 L2058.34 1294.67 L2058.34 1268.31 L2050.03 1269.98 L2050.03 1265.72 L2058.29 1264.05 L2062.97 1264.05 L2062.97 1294.67 L2070.61 1294.67 L2070.61 1298.61 L2050.7 1298.61 L2050.7 1294.67 Z" fill="#000000" fill-rule="nonzero" fill-opacity="1" /><path clip-path="url(#clip950)" d="M2090.05 1267.13 Q2086.44 1267.13 2084.61 1270.69 Q2082.8 1274.24 2082.8 1281.36 Q2082.8 1288.47 2084.61 1292.04 Q2086.44 1295.58 2090.05 1295.58 Q2093.68 1295.58 2095.49 1292.04 Q2097.32 1288.47 2097.32 1281.36 Q2097.32 1274.24 2095.49 1270.69 Q2093.68 1267.13 2090.05 1267.13 M2090.05 1263.42 Q2095.86 1263.42 2098.92 1268.03 Q2101.99 1272.61 2101.99 1281.36 Q2101.99 1290.09 2098.92 1294.7 Q2095.86 1299.28 2090.05 1299.28 Q2084.24 1299.28 2081.16 1294.7 Q2078.11 1290.09 2078.11 1281.36 Q2078.11 1272.61 2081.16 1268.03 Q2084.24 1263.42 2090.05 1263.42 Z" fill="#000000" fill-rule="nonzero" fill-opacity="1" /><path clip-path="url(#clip950)" d="M2103.18 1243.12 L2118.09 1243.12 L2118.09 1246.32 L2106.66 1246.32 L2106.66 1253.2 Q2107.49 1252.92 2108.31 1252.79 Q2109.14 1252.64 2109.97 1252.64 Q2114.67 1252.64 2117.42 1255.21 Q2120.16 1257.79 2120.16 1262.19 Q2120.16 1266.72 2117.34 1269.24 Q2114.52 1271.74 2109.39 1271.74 Q2107.62 1271.74 2105.77 1271.44 Q2103.95 1271.14 2101.99 1270.54 L2101.99 1266.72 Q2103.69 1267.64 2105.49 1268.1 Q2107.3 1268.55 2109.31 1268.55 Q2112.56 1268.55 2114.46 1266.84 Q2116.36 1265.12 2116.36 1262.19 Q2116.36 1259.26 2114.46 1257.55 Q2112.56 1255.83 2109.31 1255.83 Q2107.79 1255.83 2106.26 1256.17 Q2104.76 1256.51 2103.18 1257.23 L2103.18 1243.12 Z" fill="#000000" fill-rule="nonzero" fill-opacity="1" /><polyline clip-path="url(#clip952)" style="stroke:#000000; stroke-linecap:round; stroke-linejoin:round; stroke-width:2; stroke-opacity:0.1; fill:none" points="153.718,1222.85 2064.76,1222.85 "/>
<polyline clip-path="url(#clip952)" style="stroke:#000000; stroke-linecap:round; stroke-linejoin:round; stroke-width:2; stroke-opacity:0.1; fill:none" points="153.718,987.732 2064.76,987.732 "/>
<polyline clip-path="url(#clip952)" style="stroke:#000000; stroke-linecap:round; stroke-linejoin:round; stroke-width:2; stroke-opacity:0.1; fill:none" points="153.718,752.61 2064.76,752.61 "/>
<polyline clip-path="url(#clip952)" style="stroke:#000000; stroke-linecap:round; stroke-linejoin:round; stroke-width:2; stroke-opacity:0.1; fill:none" points="153.718,517.488 2064.76,517.488 "/>
<polyline clip-path="url(#clip952)" style="stroke:#000000; stroke-linecap:round; stroke-linejoin:round; stroke-width:2; stroke-opacity:0.1; fill:none" points="153.718,282.366 2064.76,282.366 "/>
<polyline clip-path="url(#clip952)" style="stroke:#000000; stroke-linecap:round; stroke-linejoin:round; stroke-width:2; stroke-opacity:0.1; fill:none" points="153.718,47.2441 2064.76,47.2441 "/>
<polyline clip-path="url(#clip950)" style="stroke:#000000; stroke-linecap:round; stroke-linejoin:round; stroke-width:4; stroke-opacity:1; fill:none" points="153.718,1222.85 153.718,47.2441 "/>
<polyline clip-path="url(#clip950)" style="stroke:#000000; stroke-linecap:round; stroke-linejoin:round; stroke-width:4; stroke-opacity:1; fill:none" points="153.718,1222.85 172.616,1222.85 "/>
<polyline clip-path="url(#clip950)" style="stroke:#000000; stroke-linecap:round; stroke-linejoin:round; stroke-width:4; stroke-opacity:1; fill:none" points="153.718,987.732 172.616,987.732 "/>
<polyline clip-path="url(#clip950)" style="stroke:#000000; stroke-linecap:round; stroke-linejoin:round; stroke-width:4; stroke-opacity:1; fill:none" points="153.718,752.61 172.616,752.61 "/>
<polyline clip-path="url(#clip950)" style="stroke:#000000; stroke-linecap:round; stroke-linejoin:round; stroke-width:4; stroke-opacity:1; fill:none" points="153.718,517.488 172.616,517.488 "/>
<polyline clip-path="url(#clip950)" style="stroke:#000000; stroke-linecap:round; stroke-linejoin:round; stroke-width:4; stroke-opacity:1; fill:none" points="153.718,282.366 172.616,282.366 "/>
<polyline clip-path="url(#clip950)" style="stroke:#000000; stroke-linecap:round; stroke-linejoin:round; stroke-width:4; stroke-opacity:1; fill:none" points="153.718,47.2441 172.616,47.2441 "/>
<path clip-path="url(#clip950)" d="M64.8626 1208.65 Q61.2515 1208.65 59.4228 1212.22 Q57.6173 1215.76 57.6173 1222.89 Q57.6173 1230 59.4228 1233.56 Q61.2515 1237.1 64.8626 1237.1 Q68.4969 1237.1 70.3024 1233.56 Q72.1311 1230 72.1311 1222.89 Q72.1311 1215.76 70.3024 1212.22 Q68.4969 1208.65 64.8626 1208.65 M64.8626 1204.95 Q70.6728 1204.95 73.7283 1209.56 Q76.807 1214.14 76.807 1222.89 Q76.807 1231.62 73.7283 1236.22 Q70.6728 1240.81 64.8626 1240.81 Q59.0525 1240.81 55.9738 1236.22 Q52.9182 1231.62 52.9182 1222.89 Q52.9182 1214.14 55.9738 1209.56 Q59.0525 1204.95 64.8626 1204.95 Z" fill="#000000" fill-rule="nonzero" fill-opacity="1" /><path clip-path="url(#clip950)" d="M85.0245 1234.25 L89.9088 1234.25 L89.9088 1240.13 L85.0245 1240.13 L85.0245 1234.25 Z" fill="#000000" fill-rule="nonzero" fill-opacity="1" /><path clip-path="url(#clip950)" d="M110.094 1208.65 Q106.483 1208.65 104.654 1212.22 Q102.849 1215.76 102.849 1222.89 Q102.849 1230 104.654 1233.56 Q106.483 1237.1 110.094 1237.1 Q113.728 1237.1 115.534 1233.56 Q117.362 1230 117.362 1222.89 Q117.362 1215.76 115.534 1212.22 Q113.728 1208.65 110.094 1208.65 M110.094 1204.95 Q115.904 1204.95 118.96 1209.56 Q122.038 1214.14 122.038 1222.89 Q122.038 1231.62 118.96 1236.22 Q115.904 1240.81 110.094 1240.81 Q104.284 1240.81 101.205 1236.22 Q98.1495 1231.62 98.1495 1222.89 Q98.1495 1214.14 101.205 1209.56 Q104.284 1204.95 110.094 1204.95 Z" fill="#000000" fill-rule="nonzero" fill-opacity="1" /><path clip-path="url(#clip950)" d="M66.4598 973.531 Q62.8487 973.531 61.02 977.095 Q59.2145 980.637 59.2145 987.767 Q59.2145 994.873 61.02 998.438 Q62.8487 1001.98 66.4598 1001.98 Q70.0941 1001.98 71.8996 998.438 Q73.7283 994.873 73.7283 987.767 Q73.7283 980.637 71.8996 977.095 Q70.0941 973.531 66.4598 973.531 M66.4598 969.827 Q72.27 969.827 75.3255 974.433 Q78.4042 979.017 78.4042 987.767 Q78.4042 996.493 75.3255 1001.1 Q72.27 1005.68 66.4598 1005.68 Q60.6497 1005.68 57.571 1001.1 Q54.5154 996.493 54.5154 987.767 Q54.5154 979.017 57.571 974.433 Q60.6497 969.827 66.4598 969.827 Z" fill="#000000" fill-rule="nonzero" fill-opacity="1" /><path clip-path="url(#clip950)" d="M86.6218 999.132 L91.506 999.132 L91.506 1005.01 L86.6218 1005.01 L86.6218 999.132 Z" fill="#000000" fill-rule="nonzero" fill-opacity="1" /><path clip-path="url(#clip950)" d="M105.719 1001.08 L122.038 1001.08 L122.038 1005.01 L100.094 1005.01 L100.094 1001.08 Q102.756 998.322 107.339 993.693 Q111.946 989.04 113.126 987.697 Q115.372 985.174 116.251 983.438 Q117.154 981.679 117.154 979.989 Q117.154 977.234 115.21 975.498 Q113.288 973.762 110.186 973.762 Q107.987 973.762 105.534 974.526 Q103.103 975.29 100.325 976.841 L100.325 972.119 Q103.149 970.984 105.603 970.406 Q108.057 969.827 110.094 969.827 Q115.464 969.827 118.659 972.512 Q121.853 975.197 121.853 979.688 Q121.853 981.818 121.043 983.739 Q120.256 985.637 118.149 988.23 Q117.571 988.901 114.469 992.118 Q111.367 995.313 105.719 1001.08 Z" fill="#000000" fill-rule="nonzero" fill-opacity="1" /><path clip-path="url(#clip950)" d="M64.3765 738.409 Q60.7654 738.409 58.9367 741.973 Q57.1312 745.515 57.1312 752.645 Q57.1312 759.751 58.9367 763.316 Q60.7654 766.858 64.3765 766.858 Q68.0107 766.858 69.8163 763.316 Q71.645 759.751 71.645 752.645 Q71.645 745.515 69.8163 741.973 Q68.0107 738.409 64.3765 738.409 M64.3765 734.705 Q70.1867 734.705 73.2422 739.311 Q76.3209 743.895 76.3209 752.645 Q76.3209 761.372 73.2422 765.978 Q70.1867 770.561 64.3765 770.561 Q58.5664 770.561 55.4877 765.978 Q52.4321 761.372 52.4321 752.645 Q52.4321 743.895 55.4877 739.311 Q58.5664 734.705 64.3765 734.705 Z" fill="#000000" fill-rule="nonzero" fill-opacity="1" /><path clip-path="url(#clip950)" d="M84.5384 764.01 L89.4227 764.01 L89.4227 769.89 L84.5384 769.89 L84.5384 764.01 Z" fill="#000000" fill-rule="nonzero" fill-opacity="1" /><path clip-path="url(#clip950)" d="M112.455 739.404 L100.649 757.853 L112.455 757.853 L112.455 739.404 M111.228 735.33 L117.108 735.33 L117.108 757.853 L122.038 757.853 L122.038 761.742 L117.108 761.742 L117.108 769.89 L112.455 769.89 L112.455 761.742 L96.8532 761.742 L96.8532 757.228 L111.228 735.33 Z" fill="#000000" fill-rule="nonzero" fill-opacity="1" /><path clip-path="url(#clip950)" d="M64.7006 503.287 Q61.0895 503.287 59.2608 506.852 Q57.4552 510.393 57.4552 517.523 Q57.4552 524.629 59.2608 528.194 Q61.0895 531.736 64.7006 531.736 Q68.3348 531.736 70.1404 528.194 Q71.9691 524.629 71.9691 517.523 Q71.9691 510.393 70.1404 506.852 Q68.3348 503.287 64.7006 503.287 M64.7006 499.583 Q70.5107 499.583 73.5663 504.189 Q76.645 508.773 76.645 517.523 Q76.645 526.25 73.5663 530.856 Q70.5107 535.439 64.7006 535.439 Q58.8904 535.439 55.8117 530.856 Q52.7562 526.25 52.7562 517.523 Q52.7562 508.773 55.8117 504.189 Q58.8904 499.583 64.7006 499.583 Z" fill="#000000" fill-rule="nonzero" fill-opacity="1" /><path clip-path="url(#clip950)" d="M84.8625 528.888 L89.7467 528.888 L89.7467 534.768 L84.8625 534.768 L84.8625 528.888 Z" fill="#000000" fill-rule="nonzero" fill-opacity="1" /><path clip-path="url(#clip950)" d="M110.511 515.625 Q107.362 515.625 105.511 517.777 Q103.682 519.93 103.682 523.68 Q103.682 527.407 105.511 529.583 Q107.362 531.736 110.511 531.736 Q113.659 531.736 115.487 529.583 Q117.339 527.407 117.339 523.68 Q117.339 519.93 115.487 517.777 Q113.659 515.625 110.511 515.625 M119.793 500.972 L119.793 505.231 Q118.034 504.398 116.228 503.958 Q114.446 503.518 112.686 503.518 Q108.057 503.518 105.603 506.643 Q103.173 509.768 102.825 516.088 Q104.191 514.074 106.251 513.009 Q108.311 511.921 110.788 511.921 Q115.997 511.921 119.006 515.092 Q122.038 518.24 122.038 523.68 Q122.038 529.004 118.89 532.222 Q115.742 535.439 110.511 535.439 Q104.515 535.439 101.344 530.856 Q98.1726 526.25 98.1726 517.523 Q98.1726 509.328 102.061 504.467 Q105.95 499.583 112.501 499.583 Q114.26 499.583 116.043 499.93 Q117.848 500.277 119.793 500.972 Z" fill="#000000" fill-rule="nonzero" fill-opacity="1" /><path clip-path="url(#clip950)" d="M64.9552 268.165 Q61.3441 268.165 59.5154 271.73 Q57.7099 275.271 57.7099 282.401 Q57.7099 289.507 59.5154 293.072 Q61.3441 296.614 64.9552 296.614 Q68.5894 296.614 70.395 293.072 Q72.2237 289.507 72.2237 282.401 Q72.2237 275.271 70.395 271.73 Q68.5894 268.165 64.9552 268.165 M64.9552 264.461 Q70.7654 264.461 73.8209 269.068 Q76.8996 273.651 76.8996 282.401 Q76.8996 291.128 73.8209 295.734 Q70.7654 300.317 64.9552 300.317 Q59.1451 300.317 56.0664 295.734 Q53.0108 291.128 53.0108 282.401 Q53.0108 273.651 56.0664 269.068 Q59.1451 264.461 64.9552 264.461 Z" fill="#000000" fill-rule="nonzero" fill-opacity="1" /><path clip-path="url(#clip950)" d="M85.1171 293.766 L90.0014 293.766 L90.0014 299.646 L85.1171 299.646 L85.1171 293.766 Z" fill="#000000" fill-rule="nonzero" fill-opacity="1" /><path clip-path="url(#clip950)" d="M110.186 283.234 Q106.853 283.234 104.932 285.017 Q103.034 286.799 103.034 289.924 Q103.034 293.049 104.932 294.831 Q106.853 296.614 110.186 296.614 Q113.52 296.614 115.441 294.831 Q117.362 293.026 117.362 289.924 Q117.362 286.799 115.441 285.017 Q113.543 283.234 110.186 283.234 M105.511 281.243 Q102.501 280.503 100.811 278.442 Q99.1448 276.382 99.1448 273.419 Q99.1448 269.276 102.085 266.868 Q105.048 264.461 110.186 264.461 Q115.348 264.461 118.288 266.868 Q121.228 269.276 121.228 273.419 Q121.228 276.382 119.538 278.442 Q117.872 280.503 114.885 281.243 Q118.265 282.03 120.14 284.322 Q122.038 286.614 122.038 289.924 Q122.038 294.947 118.96 297.632 Q115.904 300.317 110.186 300.317 Q104.469 300.317 101.39 297.632 Q98.3347 294.947 98.3347 289.924 Q98.3347 286.614 100.233 284.322 Q102.131 282.03 105.511 281.243 M103.798 273.859 Q103.798 276.544 105.464 278.049 Q107.154 279.554 110.186 279.554 Q113.196 279.554 114.885 278.049 Q116.598 276.544 116.598 273.859 Q116.598 271.174 114.885 269.669 Q113.196 268.165 110.186 268.165 Q107.154 268.165 105.464 269.669 Q103.798 271.174 103.798 273.859 Z" fill="#000000" fill-rule="nonzero" fill-opacity="1" /><path clip-path="url(#clip950)" d="M55.6728 60.5889 L63.3117 60.5889 L63.3117 34.2233 L55.0016 35.89 L55.0016 31.6308 L63.2654 29.9641 L67.9413 29.9641 L67.9413 60.5889 L75.5802 60.5889 L75.5802 64.5241 L55.6728 64.5241 L55.6728 60.5889 Z" fill="#000000" fill-rule="nonzero" fill-opacity="1" /><path clip-path="url(#clip950)" d="M85.0245 58.6445 L89.9088 58.6445 L89.9088 64.5241 L85.0245 64.5241 L85.0245 58.6445 Z" fill="#000000" fill-rule="nonzero" fill-opacity="1" /><path clip-path="url(#clip950)" d="M110.094 33.0428 Q106.483 33.0428 104.654 36.6076 Q102.849 40.1492 102.849 47.2788 Q102.849 54.3853 104.654 57.9501 Q106.483 61.4917 110.094 61.4917 Q113.728 61.4917 115.534 57.9501 Q117.362 54.3853 117.362 47.2788 Q117.362 40.1492 115.534 36.6076 Q113.728 33.0428 110.094 33.0428 M110.094 29.3391 Q115.904 29.3391 118.96 33.9456 Q122.038 38.5289 122.038 47.2788 Q122.038 56.0056 118.96 60.6121 Q115.904 65.1954 110.094 65.1954 Q104.284 65.1954 101.205 60.6121 Q98.1495 56.0056 98.1495 47.2788 Q98.1495 38.5289 101.205 33.9456 Q104.284 29.3391 110.094 29.3391 Z" fill="#000000" fill-rule="nonzero" fill-opacity="1" /><polyline clip-path="url(#clip952)" style="stroke:#009af9; stroke-linecap:round; stroke-linejoin:round; stroke-width:4; stroke-opacity:1; fill:none" points="207.804,282.319 209.609,280.457 211.414,279.769 213.218,277.733 215.023,276.198 216.828,274.929 218.632,272.46 220.437,271.102 222.242,269.944 224.046,268.552 225.851,266.006 227.656,264.939 229.46,263.668 231.265,263.148 233.07,262.351 234.874,260.208 236.679,259.046 238.484,258.354 240.288,256.091 242.093,254.639 243.898,252.868 245.702,251.202 247.507,250.786 249.312,250.576 251.116,250.334 252.921,247.927 254.726,246.213 256.53,245.218 258.335,244.078 260.14,243.692 261.944,241.974 263.749,240.717 265.554,240.347 267.358,239.018 269.163,237.851 270.968,237.852 272.772,235.926 274.577,234.112 276.382,232.761 278.186,232.587 279.991,231.658 281.796,229.82 283.6,230.158 285.405,228.899 287.21,227.403 289.014,227.407 290.819,227.064 292.624,226.332 294.428,225.1 296.233,224.343 298.038,224.083 299.842,223.869 301.647,223.141 303.452,221.737 305.256,221.833 307.061,221.27 308.866,220.991 310.67,219.837 312.475,218.779 314.28,218.067 316.084,217.952 317.889,216.666 319.694,216.046 321.498,213.65 323.303,212.267 325.108,210.166 326.912,208.354 328.717,207.817 330.522,207.616 332.326,207.615 334.131,207.647 335.936,207.233 337.74,205.937 339.545,204.944 341.35,204.308 343.154,204.457 344.959,203.549 346.764,202.566 348.568,202.706 350.373,201.448 352.178,201.475 353.983,199.881 355.787,198.481 357.592,198.226 359.397,196.637 361.201,195.751 363.006,194.197 364.811,193.495 366.615,192.574 368.42,192.561 370.225,191.775 372.029,190.117 373.834,189.316 375.639,188.584 377.443,187.197 379.248,185.561 381.053,184.702 382.857,184.69 384.662,183.348 386.467,182.433 388.271,181.606 390.076,181.193 391.881,180.488 393.685,178.841 395.49,177.091 397.295,175.843 399.099,176.175 400.904,174.751 402.709,174.264 404.513,172.782 406.318,171.762 408.123,171.317 409.927,170.513 411.732,170.767 413.537,169.616 415.341,169.392 417.146,168.359 418.951,166.983 420.755,166.668 422.56,166.979 424.365,167.012 426.169,166.922 427.974,166.594 429.779,166.795 431.583,166.27 433.388,165.832 435.193,165.553 436.997,164.4 438.802,163.416 440.607,162.242 442.411,162.058 444.216,161.475 446.021,160.43 447.825,159.193 449.63,158.013 451.435,157.787 453.239,156.898 455.044,156.958 456.849,156.876 458.653,156.515 460.458,154.86 462.263,153.58 464.067,153.771 465.872,154.106 467.677,153.564 469.481,152.578 471.286,151.577 473.091,151.176 474.895,151.715 476.7,150.806 478.505,149.709 480.309,149.297 482.114,148.667 483.919,148.011 485.723,146.758 487.528,146.638 489.333,146.305 491.137,146.148 492.942,145.628 494.747,144.652 496.551,143.464 498.356,142.714 500.161,141.476 501.965,142.129 503.77,141.382 505.575,141.118 507.379,141.597 509.184,140.876 510.989,140.65 512.794,141.392 514.598,140.869 516.403,140.252 518.208,141.196 520.012,140.684 521.817,141.151 523.622,139.994 525.426,138.947 527.231,138.327 529.036,138.175 530.84,137.622 532.645,136.869 534.45,136.036 536.254,135.36 538.059,135.462 539.864,134.452 541.668,134.823 543.473,134.283 545.278,133.431 547.082,133.618 548.887,133.552 550.692,132.891 552.496,131.519 554.301,131.164 556.106,130.007 557.91,129.091 559.715,128.529 561.52,128.348 563.324,127.913 565.129,127.205 566.934,127.021 568.738,126.172 570.543,125.52 572.348,125.847 574.152,124.794 575.957,123.957 577.762,122.96 579.566,122.226 581.371,122.113 583.176,121.337 584.98,120.986 586.785,120.527 588.59,120.299 590.394,119.644 592.199,118.958 594.004,119.425 595.808,119.269 597.613,119.567 599.418,118.822 601.222,118.114 603.027,117.101 604.832,116.422 606.636,116.252 608.441,117.235 610.246,117.31 612.05,116.704 613.855,115.632 615.66,114.255 617.464,114.115 619.269,113.486 621.074,112.779 622.878,112.844 624.683,112.994 626.488,113.129 628.292,112.498 630.097,111.579 631.902,111.287 633.706,110.448 635.511,110.078 637.316,109.471 639.12,108.939 640.925,108.273 642.73,107.561 644.534,106.862 646.339,105.872 648.144,104.865 649.948,103.907 651.753,103.697 653.558,102.815 655.362,102.687 657.167,102.189 658.972,102.026 660.776,101.371 662.581,101.068 664.386,100.614 666.19,100.004 667.995,99.9434 669.8,99.4463 671.604,99.4049 673.409,99.3288 675.214,98.5056 677.019,97.7702 678.823,97.897 680.628,97.3764 682.433,97.2627 684.237,96.6702 686.042,96.1157 687.847,96.1242 689.651,95.7705 691.456,95.1651 693.261,95.0902 695.065,94.2269 696.87,94.6929 698.675,95.3474 700.479,94.8053 702.284,94.3417 704.089,94.376 705.893,93.801 707.698,94.0116 709.503,93.9678 711.307,93.3213 713.112,92.9067 714.917,92.3132 716.721,92.1022 718.526,91.7924 720.331,91.353 722.135,90.5733 723.94,90.6127 725.745,89.7614 727.549,89.9272 729.354,89.7831 731.159,89.0375 732.963,89.8013 734.768,89.5584 736.573,89.7471 738.377,90.2766 740.182,90.1176 741.987,89.7444 743.791,89.1535 745.596,88.7467 747.401,88.9891 749.205,88.5758 751.01,88.4356 752.815,87.8712 754.619,87.752 756.424,87.4171 758.229,86.9965 760.033,86.7148 761.838,86.5663 763.643,86.0687 765.447,86.385 767.252,86.2595 769.057,85.7262 770.861,85.4991 772.666,85.4174 774.471,85.1558 776.275,84.3956 778.08,84.6093 779.885,84.2963 781.689,83.6028 783.494,83.5836 785.299,83.1272 787.103,82.736 788.908,82.7099 790.713,82.659 792.517,81.9814 794.322,81.7321 796.127,80.9913 797.931,80.6488 799.736,80.4602 801.541,80.214 803.345,79.9843 805.15,79.8196 806.955,79.6721 808.759,79.7047 810.564,79.3072 812.369,78.7036 814.173,78.3924 815.978,78.7325 817.783,78.2827 819.587,78.3124 821.392,77.7462 823.197,77.6563 825.001,77.2718 826.806,76.9028 828.611,76.5046 830.415,76.2129 832.22,75.6663 834.025,75.5663 835.83,75.2455 837.634,74.9753 839.439,74.6488 841.244,74.6365 843.048,74.1057 844.853,73.6419 846.658,73.8214 848.462,73.8705 850.267,73.391 852.072,73.3704 853.876,73.1272 855.681,72.8449 857.486,73.3223 859.29,73.1177 861.095,72.6705 862.9,72.446 864.704,72.3883 866.509,72.375 868.314,72.3383 870.118,72.5365 871.923,72.7619 873.728,72.9481 875.532,72.8667 877.337,73.32 879.142,73.2444 880.946,73.1554 882.751,72.6319 884.556,72.179 886.36,72.0116 888.165,72.1933 889.97,71.7349 891.774,71.417 893.579,71.1518 895.384,71.3888 897.188,71.1338 898.993,70.8301 900.798,70.8193 902.602,70.6534 904.407,70.2438 906.212,69.7874 908.016,69.3787 909.821,68.9269 911.626,68.7244 913.43,68.4547 915.235,68.5056 917.04,68.064 918.844,68.1237 920.649,67.9794 922.454,67.8469 924.258,67.668 926.063,67.6992 927.868,67.4824 929.672,67.5472 931.477,67.1565 933.282,67.6773 935.086,67.309 936.891,66.921 938.696,66.7956 940.5,66.6812 942.305,66.5362 944.11,66.3583 945.914,65.9987 947.719,66.1719 949.524,66.4719 951.328,66.0933 953.133,65.6449 954.938,66.0051 956.742,65.9067 958.547,65.7618 960.352,65.3392 962.156,65.4542 963.961,65.5982 965.766,65.2141 967.57,65.4047 969.375,65.4707 971.18,65.3278 972.984,65.2412 974.789,65.7881 976.594,65.6429 978.398,65.4783 980.203,65.1494 982.008,65.0294 983.812,65.1609 985.617,65.0843 987.422,64.7441 989.226,64.3964 991.031,64.2839 992.836,63.9382 994.64,63.6453 996.445,63.8256 998.25,63.7201 1000.05,63.6403 1001.86,63.3364 1003.66,63.4948 1005.47,63.402 1007.27,63.5085 1009.08,63.1997 1010.88,62.8465 1012.69,63.0273 1014.49,63.167 1016.3,63.4936 1018.1,63.1787 1019.91,62.8676 1021.71,63.501 1023.52,63.2129 1025.32,63.4071 1027.12,63.3135 1028.93,63.6467 1030.73,63.3001 1032.54,63.6776 1034.34,63.3269 1036.15,62.9673 1037.95,62.89 1039.76,62.5603 1041.56,62.7448 1043.37,62.6459 1045.17,62.3161 1046.98,62.2895 1048.78,62.0038 1050.59,61.9438 1052.39,61.9179 1054.19,61.6466 1056,61.83 1057.8,61.5544 1059.61,61.2842 1061.41,60.9881 1063.22,60.7289 1065.02,60.8697 1066.83,60.7844 1068.63,60.7329 1070.44,60.9533 1072.24,60.8973 1074.05,60.6225 1075.85,60.5881 1077.66,60.3471 1079.46,60.0482 1081.26,59.805 1083.07,59.7427 1084.87,59.6838 1086.68,59.6626 1088.48,59.6842 1090.29,59.7563 1092.09,59.4718 1093.9,59.1983 1095.7,59.0232 1097.51,58.8019 1099.31,58.834 1101.12,58.5973 1102.92,58.3849 1104.73,58.4126 1106.53,58.6629 1108.33,58.492 1110.14,58.7138 1111.94,58.5041 1113.75,58.2698 1115.55,58.0933 1117.36,57.8529 1119.16,57.6151 1120.97,57.649 1122.77,57.6487 1124.58,57.9645 1126.38,58.2157 1128.19,57.9672 1129.99,57.7859 1131.8,57.8206 1133.6,57.8418 1135.4,57.6527 1137.21,57.684 1139.01,57.4742 1140.82,57.7054 1142.62,57.4643 1144.43,57.9345 1146.23,57.751 1148.04,57.7182 1149.84,57.5284 1151.65,57.306 1153.45,57.5694 1155.26,57.3812 1157.06,57.1891 1158.87,57.0101 1160.67,57.2877 1162.47,57.7536 1164.28,58.0175 1166.08,58.3437 1167.89,58.1298 1169.69,58.1333 1171.5,57.8961 1173.3,57.7136 1175.11,57.9577 1176.91,58.2277 1178.72,57.9951 1180.52,57.7732 1182.33,57.5709 1184.13,57.8479 1185.94,57.8661 1187.74,57.641 1189.54,57.4572 1191.35,57.2808 1193.15,57.0881 1194.96,56.8549 1196.76,56.6474 1198.57,56.4928 1200.37,56.3437 1202.18,56.1677 1203.98,56.2289 1205.79,56.0316 1207.59,56.0516 1209.4,55.8802 1211.2,55.939 1213.01,56.0098 1214.81,56.0675 1216.61,55.9082 1218.42,55.7386 1220.22,55.8071 1222.03,55.8457 1223.83,55.6729 1225.64,55.4395 1227.44,55.2755 1229.25,55.1012 1231.05,54.964 1232.86,55.032 1234.66,55.3645 1236.47,55.2278 1238.27,55.0835 1240.08,55.1697 1241.88,55.2257 1243.69,55.0225 1245.49,55.0974 1247.29,55.3737 1249.1,55.2337 1250.9,55.0821 1252.71,54.9244 1254.51,55.037 1256.32,54.8906 1258.12,54.7558 1259.93,54.6099 1261.73,54.4678 1263.54,54.363 1265.34,54.2315 1267.15,54.5837 1268.95,54.4653 1270.76,54.795 1272.56,54.8813 1274.36,54.9569 1276.17,54.812 1277.97,54.6343 1279.78,54.4904 1281.58,54.5744 1283.39,54.4115 1285.19,54.5136 1287,54.6148 1288.8,54.4962 1290.61,54.5708 1292.41,54.4509 1294.22,54.5285 1296.02,54.3869 1297.83,54.5061 1299.63,54.3526 1301.43,54.2175 1303.24,54.0921 1305.04,53.9512 1306.85,54.0378 1308.65,53.9096 1310.46,53.8022 1312.26,53.6682 1314.07,53.7873 1315.87,53.677 1317.68,53.5525 1319.48,53.4553 1321.29,53.3244 1323.09,53.2065 1324.9,53.1067 1326.7,52.9958 1328.5,53.109 1330.31,53.4388 1332.11,53.3287 1333.92,53.4401 1335.72,53.3124 1337.53,53.1619 1339.33,53.5165 1341.14,53.392 1342.94,53.2756 1344.75,53.1263 1346.55,53.245 1348.36,53.1495 1350.16,53.2785 1351.97,53.1522 1353.77,53.0627 1355.57,53.1604 1357.38,53.0726 1359.18,53.1972 1360.99,53.0976 1362.79,52.9817 1364.6,52.8869 1366.4,53.001 1368.21,53.3524 1370.01,53.2561 1371.82,53.1424 1373.62,53.0342 1375.43,52.8805 1377.23,52.7909 1379.04,52.7126 1380.84,52.869 1382.64,52.9766 1384.45,53.0886 1386.25,52.9826 1388.06,53.0943 1389.86,52.9652 1391.67,52.8318 1393.47,52.7345 1395.28,52.8753 1397.08,53.0007 1398.89,53.0922 1400.69,52.9951 1402.5,53.1445 1404.3,53.2495 1406.11,53.1382 1407.91,52.9828 1409.71,52.8693 1411.52,52.7589 1413.32,53.0901 1415.13,52.9734 1416.93,53.0618 1418.74,53.1786 1420.54,53.0756 1422.35,53.209 1424.15,53.086 1425.96,52.9659 1427.76,52.8461 1429.57,52.7689 1431.37,52.673 1433.18,52.5644 1434.98,52.4556 1436.78,52.3572 1438.59,52.255 1440.39,52.1535 1442.2,52.098 1444,51.972 1445.81,51.9004 1447.61,51.7832 1449.42,52.1607 1451.22,52.0346 1453.03,51.9242 1454.83,52.5171 1456.64,52.4091 1458.44,52.3337 1460.25,52.2236 1462.05,52.1309 1463.85,52.0348 1465.66,51.9286 1467.46,52.044 1469.27,51.9508 1471.07,51.8653 1472.88,51.7645 1474.68,51.6996 1476.49,51.6131 1478.29,51.7562 1480.1,51.6216 1481.9,51.5337 1483.71,51.4813 1485.51,51.4091 1487.32,51.3031 1489.12,51.4771 1490.92,51.4058 1492.73,51.5365 1494.53,51.4614 1496.34,51.3705 1498.14,51.5463 1499.95,51.707 1501.75,51.8429 1503.56,51.7587 1505.36,51.8866 1507.17,51.8 1508.97,51.9436 1510.78,51.8453 1512.58,51.7473 1514.39,51.6411 1516.19,51.792 1517.99,51.6955 1519.8,51.6225 1521.6,51.5486 1523.41,51.4865 1525.21,51.3973 1527.02,51.3359 1528.82,51.2702 1530.63,51.6737 1532.43,51.576 1534.24,51.4839 1536.04,51.4036 1537.85,51.3311 1539.65,51.4973 1541.46,51.4021 1543.26,51.3217 1545.06,51.4666 1546.87,51.3967 1548.67,51.3209 1550.48,51.2246 1552.28,51.1425 1554.09,51.048 1555.89,50.9742 1557.7,50.9023 1559.5,50.8221 1561.31,50.7559 1563.11,50.6776 1564.92,50.6135 1566.72,50.5591 1568.53,50.4641 1570.33,50.4255 1572.14,50.3523 1573.94,50.2883 1575.74,50.2376 1577.55,50.1722 1579.35,50.0953 1581.16,50.0346 1582.96,49.967 1584.77,49.9128 1586.57,49.868 1588.38,49.8025 1590.18,49.9638 1591.99,50.1409 1593.79,50.0814 1595.6,50.2572 1597.4,50.2003 1599.21,50.1326 1601.01,50.3132 1602.81,50.5016 1604.62,50.4305 1606.42,50.5918 1608.23,50.5214 1610.03,50.6804 1611.84,50.6133 1613.64,50.5448 1615.45,50.4925 1617.25,50.4366 1619.06,50.372 1620.86,50.5204 1622.67,50.442 1624.47,50.6181 1626.28,50.5772 1628.08,50.5321 1629.88,50.486 1631.69,50.4299 1633.49,50.3663 1635.3,50.2894 1637.1,50.2359 1638.91,50.1922 1640.71,50.3811 1642.52,50.3347 1644.32,50.2515 1646.13,50.4144 1647.93,50.3321 1649.74,50.2789 1651.54,50.233 1653.35,50.1776 1655.15,50.1236 1656.95,50.0751 1658.76,50.0259 1660.56,49.9748 1662.37,49.9213 1664.17,49.8681 1665.98,49.8035 1667.78,49.7374 1669.59,49.6716 1671.39,49.6158 1673.2,49.5723 1675,49.518 1676.81,49.4695 1678.61,49.4214 1680.42,49.3795 1682.22,49.3401 1684.02,49.3036 1685.83,49.2646 1687.63,49.2317 1689.44,49.2094 1691.24,49.1558 1693.05,49.1192 1694.85,49.3207 1696.66,49.277 1698.46,49.2336 1700.27,49.1953 1702.07,49.1649 1703.88,49.1324 1705.68,49.0869 1707.49,49.0443 1709.29,49.4889 1711.09,49.4264 1712.9,49.387 1714.7,49.3471 1716.51,49.3157 1718.31,49.2852 1720.12,49.2475 1721.92,49.2194 1723.73,49.1892 1725.53,49.1368 1727.34,49.1012 1729.14,49.0639 1730.95,49.0196 1732.75,48.9747 1734.56,48.9441 1736.36,48.9127 1738.16,48.8753 1739.97,48.8354 1741.77,48.8011 1743.58,49.0061 1745.38,48.9701 1747.19,49.1773 1748.99,49.1387 1750.8,49.0903 1752.6,49.0518 1754.41,49.0067 1756.21,49.2028 1758.02,49.3893 1759.82,49.5869 1761.63,49.5407 1763.43,49.4767 1765.23,49.4242 1767.04,49.3869 1768.84,49.5714 1770.65,49.4996 1772.45,49.453 1774.26,49.4045 1776.06,49.369 1777.87,49.3438 1779.67,49.3102 1781.48,49.2727 1783.28,49.2221 1785.09,49.176 1786.89,49.1433 1788.7,49.1018 1790.5,49.059 1792.3,49.0242 1794.11,48.9973 1795.91,48.96 1797.72,48.9159 1799.52,49.1012 1801.33,49.3001 1803.13,49.2347 1804.94,49.1954 1806.74,49.1491 1808.55,49.3383 1810.35,49.5292 1812.16,49.4836 1813.96,49.4365 1815.77,49.3949 1817.57,49.3689 1819.37,49.3292 1821.18,49.2922 1822.98,49.2426 1824.79,49.1931 1826.59,49.3779 1828.4,49.3443 1830.2,49.5175 1832.01,49.475 1833.81,49.4373 1835.62,49.37 1837.42,49.3228 1839.23,49.295 1841.03,49.2706 1842.84,49.4694 1844.64,49.6754 1846.44,49.6346 1848.25,49.5938 1850.05,49.5553 1851.86,49.4896 1853.66,49.4584 1855.47,49.3845 1857.27,49.35 1859.08,49.3038 1860.88,49.2649 1862.69,49.2291 1864.49,49.1722 1866.3,49.1359 1868.1,49.1053 1869.91,49.043 1871.71,49.0127 1873.51,48.9738 1875.32,49.1816 1877.12,49.3822 1878.93,49.3366 1880.73,49.2993 1882.54,49.2511 1884.34,49.2088 1886.15,49.4062 1887.95,49.3733 1889.76,49.347 1891.56,49.51 1893.37,49.4612 1895.17,49.4125 1896.98,49.6036 1898.78,49.5614 1900.59,49.4949 1902.39,49.4643 1904.19,49.4162 1906,49.5806 1907.8,49.5341 1909.61,49.495 1911.41,49.6952 1913.22,49.6492 1915.02,49.6209 1916.83,49.5793 1918.63,49.5314 1920.44,49.5049 1922.24,49.4773 1924.05,49.4341 1925.85,49.3793 1927.66,49.3409 1929.46,49.3029 1931.26,49.2706 1933.07,49.211 1934.87,49.1667 1936.68,49.335 1938.48,49.2672 1940.29,49.2345 1942.09,49.4223 1943.9,49.3943 1945.7,49.3651 1947.51,49.3034 1949.31,49.2623 1951.12,49.2287 1952.92,49.1756 1954.73,49.1379 1956.53,49.1075 1958.33,49.0817 1960.14,49.0658 1961.94,49.0233 1963.75,48.9856 1965.55,48.9548 1967.36,48.9188 1969.16,48.8718 1970.97,48.8464 1972.77,48.8145 1974.58,48.7957 1976.38,48.7533 1978.19,48.7008 1979.99,48.6784 1981.8,48.6599 1983.6,48.6435 1985.4,48.6279 1987.21,48.6103 1989.01,48.5966 1990.82,48.5745 1992.62,48.5488 1994.43,48.5329 1996.23,48.5069 1998.04,48.4815 1999.84,48.456 2001.65,48.4444 2003.45,48.4096 2005.26,48.3789 2007.06,48.3481 2008.87,48.3032 2010.67,48.2915 "/>
</svg>
