<?xml version="1.0" encoding="UTF-8"?>
<svg xmlns="http://www.w3.org/2000/svg"
     xmlns:xlink="http://www.w3.org/1999/xlink"
     version="1.2"
     width="100mm" height="100mm" viewBox="0 0 100 100"
     stroke="none"
     fill="#000000"
     stroke-width="0.3"
     font-size="3.88"
>
<defs>
  <marker id="arrow" markerWidth="15" markerHeight="7" refX="5" refY="3.5" orient="auto" markerUnits="strokeWidth">
    <path d="M0,0 L15,3.5 L0,7 z" stroke="context-stroke" fill="context-stroke"/>
  </marker>
</defs>
<g fill="#000000" fill-opacity="0.000" id="img-a2a4c039-1">
  <g transform="translate(50,50)">
    <path d="M-50,-50 L50,-50 50,50 -50,50  z" class="primitive"/>
  </g>
</g>
<g stroke-width="0.95" stroke="#D3D3D3" id="img-a2a4c039-2">
</g>
<g stroke-width="0.95" stroke="#D3D3D3" id="img-a2a4c039-3">
  <g transform="translate(24.03,34.5)">
    <path fill="none" d="M-6.93,-2.09 L6.93,2.09 " class="primitive"/>
  </g>
  <g transform="translate(23.21,48.29)">
    <path fill="none" d="M-7.67,-13.94 L7.67,13.94 " class="primitive"/>
  </g>
  <g transform="translate(21.69,19.9)">
    <path fill="none" d="M-5.91,8.83 L5.91,-8.83 " class="primitive"/>
  </g>
  <g transform="translate(21.75,52.22)">
    <path fill="none" d="M-10.24,12.16 L10.24,-12.16 " class="primitive"/>
  </g>
  <g transform="translate(20.93,66.01)">
    <path fill="none" d="M-8.26,0.64 L8.26,-0.64 " class="primitive"/>
  </g>
  <g transform="translate(8.86,79.28)">
    <path fill="none" d="M0.39,-9.09 L-0.39,9.09 " class="primitive"/>
  </g>
  <g transform="translate(45.07,27.54)">
    <path fill="none" d="M-8.52,7.78 L8.52,-7.78 " class="primitive"/>
  </g>
  <g transform="translate(47.33,51.07)">
    <path fill="none" d="M-10.92,-11.18 L10.92,11.18 " class="primitive"/>
  </g>
  <g transform="translate(31.77,22.94)">
    <path fill="none" d="M1.82,11.35 L-1.82,-11.35 " class="primitive"/>
  </g>
  <g transform="translate(20.4,78.39)">
    <path fill="none" d="M9.85,-10.84 L-9.85,10.84 " class="primitive"/>
  </g>
  <g transform="translate(51.07,57)">
    <path fill="none" d="M-15.58,6.79 L15.58,-6.79 " class="primitive"/>
  </g>
  <g transform="translate(46.51,64.86)">
    <path fill="none" d="M-10.74,0.19 L10.74,-0.19 " class="primitive"/>
  </g>
  <g transform="translate(80.66,58.49)">
    <path fill="none" d="M8.52,7.43 L-8.52,-7.43 " class="primitive"/>
  </g>
  <g transform="translate(76.11,66.34)">
    <path fill="none" d="M12.29,1.37 L-12.29,-1.37 " class="primitive"/>
  </g>
  <g transform="translate(62.84,33.22)">
    <path fill="none" d="M-5.51,-12.66 L5.51,12.66 " class="primitive"/>
  </g>
  <g transform="translate(42.72,12.94)">
    <path fill="none" d="M10.18,3.53 L-10.18,-3.53 " class="primitive"/>
  </g>
  <g transform="translate(65.1,56.75)">
    <path fill="none" d="M2.91,-5.01 L-2.91,5.01 " class="primitive"/>
  </g>
</g>
<g fill="#D3D3D3" id="img-a2a4c039-4">
</g>
<g fill="#D3D3D3" id="img-a2a4c039-5">
</g>
<g font-size="4" fill="#000000" id="img-a2a4c039-6">
</g>
<g stroke-width="0" stroke="#000000" stroke-opacity="0.000" fill="#40E0D0" id="img-a2a4c039-7">
  <g transform="translate(13.95,31.47)">
    <circle cx="0" cy="0" r="3.16" class="primitive"/>
  </g>
  <g transform="translate(9.39,66.9)">
    <circle cx="0" cy="0" r="3.16" class="primitive"/>
  </g>
  <g transform="translate(34.11,37.54)">
    <circle cx="0" cy="0" r="3.16" class="primitive"/>
  </g>
  <g transform="translate(32.47,65.11)">
    <circle cx="0" cy="0" r="3.16" class="primitive"/>
  </g>
  <g transform="translate(91.67,68.08)">
    <circle cx="0" cy="0" r="3.16" class="primitive"/>
  </g>
  <g transform="translate(8.33,91.67)">
    <circle cx="0" cy="0" r="3.16" class="primitive"/>
  </g>
  <g transform="translate(56.02,17.54)">
    <circle cx="0" cy="0" r="3.16" class="primitive"/>
  </g>
  <g transform="translate(69.66,48.9)">
    <circle cx="0" cy="0" r="3.16" class="primitive"/>
  </g>
  <g transform="translate(60.55,64.61)">
    <circle cx="0" cy="0" r="3.16" class="primitive"/>
  </g>
  <g transform="translate(29.43,8.33)">
    <circle cx="0" cy="0" r="3.16" class="primitive"/>
  </g>
</g>
<g font-family="Helvetica" font-size="4" fill="#000000" id="img-a2a4c039-8">
  <g transform="translate(13.95,31.47)">
    <g class="primitive">
      <text text-anchor="middle" dy="0.35em">1</text>
    </g>
  </g>
  <g transform="translate(9.39,66.9)">
    <g class="primitive">
      <text text-anchor="middle" dy="0.35em">2</text>
    </g>
  </g>
  <g transform="translate(34.11,37.54)">
    <g class="primitive">
      <text text-anchor="middle" dy="0.35em">3</text>
    </g>
  </g>
  <g transform="translate(32.47,65.11)">
    <g class="primitive">
      <text text-anchor="middle" dy="0.35em">4</text>
    </g>
  </g>
  <g transform="translate(91.67,68.08)">
    <g class="primitive">
      <text text-anchor="middle" dy="0.35em">5</text>
    </g>
  </g>
  <g transform="translate(8.33,91.67)">
    <g class="primitive">
      <text text-anchor="middle" dy="0.35em">6</text>
    </g>
  </g>
  <g transform="translate(56.02,17.54)">
    <g class="primitive">
      <text text-anchor="middle" dy="0.35em">7</text>
    </g>
  </g>
  <g transform="translate(69.66,48.9)">
    <g class="primitive">
      <text text-anchor="middle" dy="0.35em">8</text>
    </g>
  </g>
  <g transform="translate(60.55,64.61)">
    <g class="primitive">
      <text text-anchor="middle" dy="0.35em">9</text>
    </g>
  </g>
  <g transform="translate(29.43,8.33)">
    <g class="primitive">
      <text text-anchor="middle" dy="0.35em">10</text>
    </g>
  </g>
</g>
<g font-family="Helvetica" font-size="4" fill="#000000" id="img-a2a4c039-9">
  <g transform="translate(50,0)">
    <g class="primitive">
      <text text-anchor="middle" dy="0.35em"></text>
    </g>
  </g>
</g>
</svg>
