<?xml version="1.0" encoding="utf-8"?>
<svg xmlns="http://www.w3.org/2000/svg" xmlns:xlink="http://www.w3.org/1999/xlink" width="528" height="336" viewBox="0 0 2112 1344">
<defs>
  <clipPath id="clip720">
    <rect x="0" y="0" width="2112" height="1344"/>
  </clipPath>
</defs>
<path clip-path="url(#clip720)" d="M0 1344 L2112 1344 L2112 0 L0 0  Z" fill="#ffffff" fill-rule="evenodd" fill-opacity="1"/>
<defs>
  <clipPath id="clip721">
    <rect x="422" y="0" width="1479" height="1344"/>
  </clipPath>
</defs>
<path clip-path="url(#clip720)" d="M200.081 1173.47 L1897.17 1173.47 L1897.17 120.723 L200.081 120.723  Z" fill="#ffffff" fill-rule="evenodd" fill-opacity="1"/>
<defs>
  <clipPath id="clip722">
    <rect x="200" y="120" width="1698" height="1054"/>
  </clipPath>
</defs>
<polyline clip-path="url(#clip722)" style="stroke:#000000; stroke-linecap:round; stroke-linejoin:round; stroke-width:2; stroke-opacity:0.1; fill:none" points="248.112,1173.47 248.112,120.723 "/>
<polyline clip-path="url(#clip722)" style="stroke:#000000; stroke-linecap:round; stroke-linejoin:round; stroke-width:2; stroke-opacity:0.1; fill:none" points="568.318,1173.47 568.318,120.723 "/>
<polyline clip-path="url(#clip722)" style="stroke:#000000; stroke-linecap:round; stroke-linejoin:round; stroke-width:2; stroke-opacity:0.1; fill:none" points="888.524,1173.47 888.524,120.723 "/>
<polyline clip-path="url(#clip722)" style="stroke:#000000; stroke-linecap:round; stroke-linejoin:round; stroke-width:2; stroke-opacity:0.1; fill:none" points="1208.73,1173.47 1208.73,120.723 "/>
<polyline clip-path="url(#clip722)" style="stroke:#000000; stroke-linecap:round; stroke-linejoin:round; stroke-width:2; stroke-opacity:0.1; fill:none" points="1528.94,1173.47 1528.94,120.723 "/>
<polyline clip-path="url(#clip722)" style="stroke:#000000; stroke-linecap:round; stroke-linejoin:round; stroke-width:2; stroke-opacity:0.1; fill:none" points="1849.14,1173.47 1849.14,120.723 "/>
<polyline clip-path="url(#clip720)" style="stroke:#000000; stroke-linecap:round; stroke-linejoin:round; stroke-width:4; stroke-opacity:1; fill:none" points="200.081,1173.47 1897.17,1173.47 "/>
<polyline clip-path="url(#clip720)" style="stroke:#000000; stroke-linecap:round; stroke-linejoin:round; stroke-width:4; stroke-opacity:1; fill:none" points="248.112,1173.47 248.112,1154.57 "/>
<polyline clip-path="url(#clip720)" style="stroke:#000000; stroke-linecap:round; stroke-linejoin:round; stroke-width:4; stroke-opacity:1; fill:none" points="568.318,1173.47 568.318,1154.57 "/>
<polyline clip-path="url(#clip720)" style="stroke:#000000; stroke-linecap:round; stroke-linejoin:round; stroke-width:4; stroke-opacity:1; fill:none" points="888.524,1173.47 888.524,1154.57 "/>
<polyline clip-path="url(#clip720)" style="stroke:#000000; stroke-linecap:round; stroke-linejoin:round; stroke-width:4; stroke-opacity:1; fill:none" points="1208.73,1173.47 1208.73,1154.57 "/>
<polyline clip-path="url(#clip720)" style="stroke:#000000; stroke-linecap:round; stroke-linejoin:round; stroke-width:4; stroke-opacity:1; fill:none" points="1528.94,1173.47 1528.94,1154.57 "/>
<polyline clip-path="url(#clip720)" style="stroke:#000000; stroke-linecap:round; stroke-linejoin:round; stroke-width:4; stroke-opacity:1; fill:none" points="1849.14,1173.47 1849.14,1154.57 "/>
<path clip-path="url(#clip720)" d="M225.496 1202.09 Q221.885 1202.09 220.056 1205.65 Q218.251 1209.19 218.251 1216.32 Q218.251 1223.43 220.056 1226.99 Q221.885 1230.53 225.496 1230.53 Q229.131 1230.53 230.936 1226.99 Q232.765 1223.43 232.765 1216.32 Q232.765 1209.19 230.936 1205.65 Q229.131 1202.09 225.496 1202.09 M225.496 1198.38 Q231.306 1198.38 234.362 1202.99 Q237.441 1207.57 237.441 1216.32 Q237.441 1225.05 234.362 1229.65 Q231.306 1234.24 225.496 1234.24 Q219.686 1234.24 216.607 1229.65 Q213.552 1225.05 213.552 1216.32 Q213.552 1207.57 216.607 1202.99 Q219.686 1198.38 225.496 1198.38 Z" fill="#000000" fill-rule="nonzero" fill-opacity="1" /><path clip-path="url(#clip720)" d="M245.658 1227.69 L250.542 1227.69 L250.542 1233.57 L245.658 1233.57 L245.658 1227.69 Z" fill="#000000" fill-rule="nonzero" fill-opacity="1" /><path clip-path="url(#clip720)" d="M270.728 1202.09 Q267.116 1202.09 265.288 1205.65 Q263.482 1209.19 263.482 1216.32 Q263.482 1223.43 265.288 1226.99 Q267.116 1230.53 270.728 1230.53 Q274.362 1230.53 276.167 1226.99 Q277.996 1223.43 277.996 1216.32 Q277.996 1209.19 276.167 1205.65 Q274.362 1202.09 270.728 1202.09 M270.728 1198.38 Q276.538 1198.38 279.593 1202.99 Q282.672 1207.57 282.672 1216.32 Q282.672 1225.05 279.593 1229.65 Q276.538 1234.24 270.728 1234.24 Q264.917 1234.24 261.839 1229.65 Q258.783 1225.05 258.783 1216.32 Q258.783 1207.57 261.839 1202.99 Q264.917 1198.38 270.728 1198.38 Z" fill="#000000" fill-rule="nonzero" fill-opacity="1" /><path clip-path="url(#clip720)" d="M546.316 1202.09 Q542.705 1202.09 540.876 1205.65 Q539.071 1209.19 539.071 1216.32 Q539.071 1223.43 540.876 1226.99 Q542.705 1230.53 546.316 1230.53 Q549.95 1230.53 551.756 1226.99 Q553.584 1223.43 553.584 1216.32 Q553.584 1209.19 551.756 1205.65 Q549.95 1202.09 546.316 1202.09 M546.316 1198.38 Q552.126 1198.38 555.182 1202.99 Q558.26 1207.57 558.26 1216.32 Q558.26 1225.05 555.182 1229.65 Q552.126 1234.24 546.316 1234.24 Q540.506 1234.24 537.427 1229.65 Q534.372 1225.05 534.372 1216.32 Q534.372 1207.57 537.427 1202.99 Q540.506 1198.38 546.316 1198.38 Z" fill="#000000" fill-rule="nonzero" fill-opacity="1" /><path clip-path="url(#clip720)" d="M566.478 1227.69 L571.362 1227.69 L571.362 1233.57 L566.478 1233.57 L566.478 1227.69 Z" fill="#000000" fill-rule="nonzero" fill-opacity="1" /><path clip-path="url(#clip720)" d="M582.357 1229.63 L589.996 1229.63 L589.996 1203.27 L581.686 1204.93 L581.686 1200.67 L589.95 1199.01 L594.626 1199.01 L594.626 1229.63 L602.265 1229.63 L602.265 1233.57 L582.357 1233.57 L582.357 1229.63 Z" fill="#000000" fill-rule="nonzero" fill-opacity="1" /><path clip-path="url(#clip720)" d="M866.707 1202.09 Q863.096 1202.09 861.267 1205.65 Q859.462 1209.19 859.462 1216.32 Q859.462 1223.43 861.267 1226.99 Q863.096 1230.53 866.707 1230.53 Q870.341 1230.53 872.147 1226.99 Q873.976 1223.43 873.976 1216.32 Q873.976 1209.19 872.147 1205.65 Q870.341 1202.09 866.707 1202.09 M866.707 1198.38 Q872.517 1198.38 875.573 1202.99 Q878.652 1207.57 878.652 1216.32 Q878.652 1225.05 875.573 1229.65 Q872.517 1234.24 866.707 1234.24 Q860.897 1234.24 857.818 1229.65 Q854.763 1225.05 854.763 1216.32 Q854.763 1207.57 857.818 1202.99 Q860.897 1198.38 866.707 1198.38 Z" fill="#000000" fill-rule="nonzero" fill-opacity="1" /><path clip-path="url(#clip720)" d="M886.869 1227.69 L891.753 1227.69 L891.753 1233.57 L886.869 1233.57 L886.869 1227.69 Z" fill="#000000" fill-rule="nonzero" fill-opacity="1" /><path clip-path="url(#clip720)" d="M905.966 1229.63 L922.286 1229.63 L922.286 1233.57 L900.341 1233.57 L900.341 1229.63 Q903.003 1226.88 907.587 1222.25 Q912.193 1217.59 913.374 1216.25 Q915.619 1213.73 916.499 1211.99 Q917.401 1210.23 917.401 1208.54 Q917.401 1205.79 915.457 1204.05 Q913.536 1202.32 910.434 1202.32 Q908.235 1202.32 905.781 1203.08 Q903.351 1203.84 900.573 1205.4 L900.573 1200.67 Q903.397 1199.54 905.851 1198.96 Q908.304 1198.38 910.341 1198.38 Q915.712 1198.38 918.906 1201.07 Q922.1 1203.75 922.1 1208.24 Q922.1 1210.37 921.29 1212.29 Q920.503 1214.19 918.397 1216.78 Q917.818 1217.46 914.716 1220.67 Q911.614 1223.87 905.966 1229.63 Z" fill="#000000" fill-rule="nonzero" fill-opacity="1" /><path clip-path="url(#clip720)" d="M1186.44 1202.09 Q1182.83 1202.09 1181 1205.65 Q1179.19 1209.19 1179.19 1216.32 Q1179.19 1223.43 1181 1226.99 Q1182.83 1230.53 1186.44 1230.53 Q1190.07 1230.53 1191.88 1226.99 Q1193.71 1223.43 1193.71 1216.32 Q1193.71 1209.19 1191.88 1205.65 Q1190.07 1202.09 1186.44 1202.09 M1186.44 1198.38 Q1192.25 1198.38 1195.3 1202.99 Q1198.38 1207.57 1198.38 1216.32 Q1198.38 1225.05 1195.3 1229.65 Q1192.25 1234.24 1186.44 1234.24 Q1180.63 1234.24 1177.55 1229.65 Q1174.49 1225.05 1174.49 1216.32 Q1174.49 1207.57 1177.55 1202.99 Q1180.63 1198.38 1186.44 1198.38 Z" fill="#000000" fill-rule="nonzero" fill-opacity="1" /><path clip-path="url(#clip720)" d="M1206.6 1227.69 L1211.49 1227.69 L1211.49 1233.57 L1206.6 1233.57 L1206.6 1227.69 Z" fill="#000000" fill-rule="nonzero" fill-opacity="1" /><path clip-path="url(#clip720)" d="M1235.84 1214.93 Q1239.19 1215.65 1241.07 1217.92 Q1242.97 1220.19 1242.97 1223.52 Q1242.97 1228.64 1239.45 1231.44 Q1235.93 1234.24 1229.45 1234.24 Q1227.27 1234.24 1224.96 1233.8 Q1222.67 1233.38 1220.21 1232.53 L1220.21 1228.01 Q1222.16 1229.15 1224.47 1229.72 Q1226.79 1230.3 1229.31 1230.3 Q1233.71 1230.3 1236 1228.57 Q1238.31 1226.83 1238.31 1223.52 Q1238.31 1220.46 1236.16 1218.75 Q1234.03 1217.02 1230.21 1217.02 L1226.18 1217.02 L1226.18 1213.17 L1230.4 1213.17 Q1233.85 1213.17 1235.67 1211.81 Q1237.5 1210.42 1237.5 1207.83 Q1237.5 1205.16 1235.61 1203.75 Q1233.73 1202.32 1230.21 1202.32 Q1228.29 1202.32 1226.09 1202.73 Q1223.89 1203.15 1221.25 1204.03 L1221.25 1199.86 Q1223.92 1199.12 1226.23 1198.75 Q1228.57 1198.38 1230.63 1198.38 Q1235.95 1198.38 1239.05 1200.81 Q1242.16 1203.22 1242.16 1207.34 Q1242.16 1210.21 1240.51 1212.2 Q1238.87 1214.17 1235.84 1214.93 Z" fill="#000000" fill-rule="nonzero" fill-opacity="1" /><path clip-path="url(#clip720)" d="M1506.08 1202.09 Q1502.47 1202.09 1500.64 1205.65 Q1498.83 1209.19 1498.83 1216.32 Q1498.83 1223.43 1500.64 1226.99 Q1502.47 1230.53 1506.08 1230.53 Q1509.71 1230.53 1511.52 1226.99 Q1513.35 1223.43 1513.35 1216.32 Q1513.35 1209.19 1511.52 1205.65 Q1509.71 1202.09 1506.08 1202.09 M1506.08 1198.38 Q1511.89 1198.38 1514.94 1202.99 Q1518.02 1207.57 1518.02 1216.32 Q1518.02 1225.05 1514.94 1229.65 Q1511.89 1234.24 1506.08 1234.24 Q1500.27 1234.24 1497.19 1229.65 Q1494.13 1225.05 1494.13 1216.32 Q1494.13 1207.57 1497.19 1202.99 Q1500.27 1198.38 1506.08 1198.38 Z" fill="#000000" fill-rule="nonzero" fill-opacity="1" /><path clip-path="url(#clip720)" d="M1526.24 1227.69 L1531.12 1227.69 L1531.12 1233.57 L1526.24 1233.57 L1526.24 1227.69 Z" fill="#000000" fill-rule="nonzero" fill-opacity="1" /><path clip-path="url(#clip720)" d="M1554.16 1203.08 L1542.35 1221.53 L1554.16 1221.53 L1554.16 1203.08 M1552.93 1199.01 L1558.81 1199.01 L1558.81 1221.53 L1563.74 1221.53 L1563.74 1225.42 L1558.81 1225.42 L1558.81 1233.57 L1554.16 1233.57 L1554.16 1225.42 L1538.55 1225.42 L1538.55 1220.9 L1552.93 1199.01 Z" fill="#000000" fill-rule="nonzero" fill-opacity="1" /><path clip-path="url(#clip720)" d="M1827.02 1202.09 Q1823.41 1202.09 1821.59 1205.65 Q1819.78 1209.19 1819.78 1216.32 Q1819.78 1223.43 1821.59 1226.99 Q1823.41 1230.53 1827.02 1230.53 Q1830.66 1230.53 1832.46 1226.99 Q1834.29 1223.43 1834.29 1216.32 Q1834.29 1209.19 1832.46 1205.65 Q1830.66 1202.09 1827.02 1202.09 M1827.02 1198.38 Q1832.84 1198.38 1835.89 1202.99 Q1838.97 1207.57 1838.97 1216.32 Q1838.97 1225.05 1835.89 1229.65 Q1832.84 1234.24 1827.02 1234.24 Q1821.21 1234.24 1818.14 1229.65 Q1815.08 1225.05 1815.08 1216.32 Q1815.08 1207.57 1818.14 1202.99 Q1821.21 1198.38 1827.02 1198.38 Z" fill="#000000" fill-rule="nonzero" fill-opacity="1" /><path clip-path="url(#clip720)" d="M1847.19 1227.69 L1852.07 1227.69 L1852.07 1233.57 L1847.19 1233.57 L1847.19 1227.69 Z" fill="#000000" fill-rule="nonzero" fill-opacity="1" /><path clip-path="url(#clip720)" d="M1862.3 1199.01 L1880.66 1199.01 L1880.66 1202.94 L1866.58 1202.94 L1866.58 1211.41 Q1867.6 1211.07 1868.62 1210.9 Q1869.64 1210.72 1870.66 1210.72 Q1876.45 1210.72 1879.83 1213.89 Q1883.21 1217.06 1883.21 1222.48 Q1883.21 1228.06 1879.73 1231.16 Q1876.26 1234.24 1869.94 1234.24 Q1867.77 1234.24 1865.5 1233.87 Q1863.25 1233.5 1860.84 1232.76 L1860.84 1228.06 Q1862.93 1229.19 1865.15 1229.75 Q1867.37 1230.3 1869.85 1230.3 Q1873.85 1230.3 1876.19 1228.2 Q1878.53 1226.09 1878.53 1222.48 Q1878.53 1218.87 1876.19 1216.76 Q1873.85 1214.65 1869.85 1214.65 Q1867.97 1214.65 1866.1 1215.07 Q1864.25 1215.49 1862.3 1216.37 L1862.3 1199.01 Z" fill="#000000" fill-rule="nonzero" fill-opacity="1" /><path clip-path="url(#clip720)" d="M756.935 1283.84 Q755.948 1283.27 754.77 1283.01 Q753.625 1282.73 752.224 1282.73 Q747.259 1282.73 744.585 1285.97 Q741.944 1289.19 741.944 1295.24 L741.944 1314.01 L736.055 1314.01 L736.055 1278.37 L741.944 1278.37 L741.944 1283.9 Q743.79 1280.66 746.75 1279.1 Q749.71 1277.51 753.943 1277.51 Q754.548 1277.51 755.28 1277.6 Q756.012 1277.67 756.903 1277.83 L756.935 1283.84 Z" fill="#000000" fill-rule="nonzero" fill-opacity="1" /><path clip-path="url(#clip720)" d="M792.137 1294.73 L792.137 1297.59 L765.21 1297.59 Q765.592 1303.64 768.839 1306.82 Q772.117 1309.97 777.942 1309.97 Q781.315 1309.97 784.466 1309.14 Q787.649 1308.32 790.768 1306.66 L790.768 1312.2 Q787.617 1313.54 784.307 1314.24 Q780.997 1314.94 777.591 1314.94 Q769.061 1314.94 764.064 1309.97 Q759.099 1305.01 759.099 1296.54 Q759.099 1287.79 763.81 1282.66 Q768.552 1277.51 776.573 1277.51 Q783.766 1277.51 787.936 1282.15 Q792.137 1286.77 792.137 1294.73 M786.281 1293.01 Q786.217 1288.2 783.575 1285.34 Q780.965 1282.47 776.637 1282.47 Q771.735 1282.47 768.775 1285.24 Q765.847 1288.01 765.401 1293.04 L786.281 1293.01 Z" fill="#000000" fill-rule="nonzero" fill-opacity="1" /><path clip-path="url(#clip720)" d="M798.344 1278.37 L804.2 1278.37 L811.521 1306.18 L818.809 1278.37 L825.716 1278.37 L833.037 1306.18 L840.326 1278.37 L846.182 1278.37 L836.856 1314.01 L829.949 1314.01 L822.279 1284.8 L814.576 1314.01 L807.669 1314.01 L798.344 1278.37 Z" fill="#000000" fill-rule="nonzero" fill-opacity="1" /><path clip-path="url(#clip720)" d="M855.062 1278.37 L860.919 1278.37 L860.919 1314.01 L855.062 1314.01 L855.062 1278.37 M855.062 1264.49 L860.919 1264.49 L860.919 1271.91 L855.062 1271.91 L855.062 1264.49 Z" fill="#000000" fill-rule="nonzero" fill-opacity="1" /><path clip-path="url(#clip720)" d="M893.829 1283.84 Q892.843 1283.27 891.665 1283.01 Q890.519 1282.73 889.119 1282.73 Q884.153 1282.73 881.48 1285.97 Q878.838 1289.19 878.838 1295.24 L878.838 1314.01 L872.95 1314.01 L872.95 1278.37 L878.838 1278.37 L878.838 1283.9 Q880.684 1280.66 883.644 1279.1 Q886.604 1277.51 890.837 1277.51 Q891.442 1277.51 892.174 1277.6 Q892.906 1277.67 893.797 1277.83 L893.829 1283.84 Z" fill="#000000" fill-rule="nonzero" fill-opacity="1" /><path clip-path="url(#clip720)" d="M899.972 1278.37 L905.829 1278.37 L905.829 1314.01 L899.972 1314.01 L899.972 1278.37 M899.972 1264.49 L905.829 1264.49 L905.829 1271.91 L899.972 1271.91 L899.972 1264.49 Z" fill="#000000" fill-rule="nonzero" fill-opacity="1" /><path clip-path="url(#clip720)" d="M947.715 1292.5 L947.715 1314.01 L941.859 1314.01 L941.859 1292.69 Q941.859 1287.63 939.885 1285.11 Q937.912 1282.6 933.965 1282.6 Q929.223 1282.6 926.485 1285.62 Q923.748 1288.65 923.748 1293.87 L923.748 1314.01 L917.86 1314.01 L917.86 1278.37 L923.748 1278.37 L923.748 1283.9 Q925.849 1280.69 928.682 1279.1 Q931.546 1277.51 935.27 1277.51 Q941.413 1277.51 944.564 1281.33 Q947.715 1285.11 947.715 1292.5 Z" fill="#000000" fill-rule="nonzero" fill-opacity="1" /><path clip-path="url(#clip720)" d="M982.854 1295.78 Q982.854 1289.41 980.212 1285.91 Q977.602 1282.41 972.86 1282.41 Q968.149 1282.41 965.507 1285.91 Q962.897 1289.41 962.897 1295.78 Q962.897 1302.11 965.507 1305.61 Q968.149 1309.11 972.86 1309.11 Q977.602 1309.11 980.212 1305.61 Q982.854 1302.11 982.854 1295.78 M988.71 1309.59 Q988.71 1318.69 984.668 1323.12 Q980.626 1327.57 972.287 1327.57 Q969.199 1327.57 966.462 1327.1 Q963.725 1326.65 961.147 1325.7 L961.147 1320 Q963.725 1321.4 966.239 1322.07 Q968.754 1322.74 971.364 1322.74 Q977.125 1322.74 979.989 1319.71 Q982.854 1316.72 982.854 1310.64 L982.854 1307.74 Q981.039 1310.9 978.207 1312.46 Q975.374 1314.01 971.427 1314.01 Q964.871 1314.01 960.86 1309.02 Q956.85 1304.02 956.85 1295.78 Q956.85 1287.5 960.86 1282.5 Q964.871 1277.51 971.427 1277.51 Q975.374 1277.51 978.207 1279.07 Q981.039 1280.63 982.854 1283.78 L982.854 1278.37 L988.71 1278.37 L988.71 1309.59 Z" fill="#000000" fill-rule="nonzero" fill-opacity="1" /><path clip-path="url(#clip720)" d="M1027.16 1308.67 L1027.16 1327.57 L1021.27 1327.57 L1021.27 1278.37 L1027.16 1278.37 L1027.16 1283.78 Q1029.01 1280.59 1031.81 1279.07 Q1034.64 1277.51 1038.55 1277.51 Q1045.05 1277.51 1049.09 1282.66 Q1053.16 1287.82 1053.16 1296.22 Q1053.16 1304.63 1049.09 1309.78 Q1045.05 1314.94 1038.55 1314.94 Q1034.64 1314.94 1031.81 1313.41 Q1029.01 1311.85 1027.16 1308.67 M1047.08 1296.22 Q1047.08 1289.76 1044.41 1286.1 Q1041.77 1282.41 1037.12 1282.41 Q1032.47 1282.41 1029.8 1286.1 Q1027.16 1289.76 1027.16 1296.22 Q1027.16 1302.68 1029.8 1306.38 Q1032.47 1310.04 1037.12 1310.04 Q1041.77 1310.04 1044.41 1306.38 Q1047.08 1302.68 1047.08 1296.22 Z" fill="#000000" fill-rule="nonzero" fill-opacity="1" /><path clip-path="url(#clip720)" d="M1083.53 1283.84 Q1082.54 1283.27 1081.36 1283.01 Q1080.22 1282.73 1078.82 1282.73 Q1073.85 1282.73 1071.18 1285.97 Q1068.54 1289.19 1068.54 1295.24 L1068.54 1314.01 L1062.65 1314.01 L1062.65 1278.37 L1068.54 1278.37 L1068.54 1283.9 Q1070.38 1280.66 1073.34 1279.1 Q1076.3 1277.51 1080.54 1277.51 Q1081.14 1277.51 1081.87 1277.6 Q1082.6 1277.67 1083.5 1277.83 L1083.53 1283.84 Z" fill="#000000" fill-rule="nonzero" fill-opacity="1" /><path clip-path="url(#clip720)" d="M1102.05 1282.47 Q1097.34 1282.47 1094.6 1286.16 Q1091.87 1289.83 1091.87 1296.22 Q1091.87 1302.62 1094.57 1306.31 Q1097.31 1309.97 1102.05 1309.97 Q1106.73 1309.97 1109.47 1306.28 Q1112.2 1302.59 1112.2 1296.22 Q1112.2 1289.89 1109.47 1286.2 Q1106.73 1282.47 1102.05 1282.47 M1102.05 1277.51 Q1109.69 1277.51 1114.05 1282.47 Q1118.41 1287.44 1118.41 1296.22 Q1118.41 1304.98 1114.05 1309.97 Q1109.69 1314.94 1102.05 1314.94 Q1094.38 1314.94 1090.02 1309.97 Q1085.69 1304.98 1085.69 1296.22 Q1085.69 1287.44 1090.02 1282.47 Q1094.38 1277.51 1102.05 1277.51 Z" fill="#000000" fill-rule="nonzero" fill-opacity="1" /><path clip-path="url(#clip720)" d="M1153.71 1296.22 Q1153.71 1289.76 1151.04 1286.1 Q1148.39 1282.41 1143.75 1282.41 Q1139.1 1282.41 1136.43 1286.1 Q1133.78 1289.76 1133.78 1296.22 Q1133.78 1302.68 1136.43 1306.38 Q1139.1 1310.04 1143.75 1310.04 Q1148.39 1310.04 1151.04 1306.38 Q1153.71 1302.68 1153.71 1296.22 M1133.78 1283.78 Q1135.63 1280.59 1138.43 1279.07 Q1141.26 1277.51 1145.18 1277.51 Q1151.67 1277.51 1155.71 1282.66 Q1159.79 1287.82 1159.79 1296.22 Q1159.79 1304.63 1155.71 1309.78 Q1151.67 1314.94 1145.18 1314.94 Q1141.26 1314.94 1138.43 1313.41 Q1135.63 1311.85 1133.78 1308.67 L1133.78 1314.01 L1127.9 1314.01 L1127.9 1264.49 L1133.78 1264.49 L1133.78 1283.78 Z" fill="#000000" fill-rule="nonzero" fill-opacity="1" /><path clip-path="url(#clip720)" d="M1185.7 1296.1 Q1178.6 1296.1 1175.86 1297.72 Q1173.12 1299.34 1173.12 1303.26 Q1173.12 1306.38 1175.16 1308.22 Q1177.23 1310.04 1180.76 1310.04 Q1185.63 1310.04 1188.56 1306.6 Q1191.52 1303.13 1191.52 1297.4 L1191.52 1296.1 L1185.7 1296.1 M1197.38 1293.68 L1197.38 1314.01 L1191.52 1314.01 L1191.52 1308.6 Q1189.52 1311.85 1186.52 1313.41 Q1183.53 1314.94 1179.2 1314.94 Q1173.73 1314.94 1170.48 1311.88 Q1167.27 1308.79 1167.27 1303.64 Q1167.27 1297.62 1171.28 1294.57 Q1175.32 1291.51 1183.31 1291.51 L1191.52 1291.51 L1191.52 1290.94 Q1191.52 1286.9 1188.85 1284.7 Q1186.21 1282.47 1181.4 1282.47 Q1178.34 1282.47 1175.45 1283.2 Q1172.55 1283.94 1169.88 1285.4 L1169.88 1279.99 Q1173.09 1278.75 1176.12 1278.14 Q1179.14 1277.51 1182 1277.51 Q1189.74 1277.51 1193.56 1281.52 Q1197.38 1285.53 1197.38 1293.68 Z" fill="#000000" fill-rule="nonzero" fill-opacity="1" /><path clip-path="url(#clip720)" d="M1235.03 1296.22 Q1235.03 1289.76 1232.36 1286.1 Q1229.72 1282.41 1225.07 1282.41 Q1220.42 1282.41 1217.75 1286.1 Q1215.11 1289.76 1215.11 1296.22 Q1215.11 1302.68 1217.75 1306.38 Q1220.42 1310.04 1225.07 1310.04 Q1229.72 1310.04 1232.36 1306.38 Q1235.03 1302.68 1235.03 1296.22 M1215.11 1283.78 Q1216.95 1280.59 1219.75 1279.07 Q1222.59 1277.51 1226.5 1277.51 Q1232.99 1277.51 1237.04 1282.66 Q1241.11 1287.82 1241.11 1296.22 Q1241.11 1304.63 1237.04 1309.78 Q1232.99 1314.94 1226.5 1314.94 Q1222.59 1314.94 1219.75 1313.41 Q1216.95 1311.85 1215.11 1308.67 L1215.11 1314.01 L1209.22 1314.01 L1209.22 1264.49 L1215.11 1264.49 L1215.11 1283.78 Z" fill="#000000" fill-rule="nonzero" fill-opacity="1" /><path clip-path="url(#clip720)" d="M1250.82 1278.37 L1256.67 1278.37 L1256.67 1314.01 L1250.82 1314.01 L1250.82 1278.37 M1250.82 1264.49 L1256.67 1264.49 L1256.67 1271.91 L1250.82 1271.91 L1250.82 1264.49 Z" fill="#000000" fill-rule="nonzero" fill-opacity="1" /><path clip-path="url(#clip720)" d="M1268.93 1264.49 L1274.78 1264.49 L1274.78 1314.01 L1268.93 1314.01 L1268.93 1264.49 Z" fill="#000000" fill-rule="nonzero" fill-opacity="1" /><path clip-path="url(#clip720)" d="M1287.04 1278.37 L1292.9 1278.37 L1292.9 1314.01 L1287.04 1314.01 L1287.04 1278.37 M1287.04 1264.49 L1292.9 1264.49 L1292.9 1271.91 L1287.04 1271.91 L1287.04 1264.49 Z" fill="#000000" fill-rule="nonzero" fill-opacity="1" /><path clip-path="url(#clip720)" d="M1310.94 1268.25 L1310.94 1278.37 L1323.01 1278.37 L1323.01 1282.92 L1310.94 1282.92 L1310.94 1302.27 Q1310.94 1306.63 1312.12 1307.87 Q1313.33 1309.11 1316.99 1309.11 L1323.01 1309.11 L1323.01 1314.01 L1316.99 1314.01 Q1310.21 1314.01 1307.63 1311.5 Q1305.05 1308.95 1305.05 1302.27 L1305.05 1282.92 L1300.76 1282.92 L1300.76 1278.37 L1305.05 1278.37 L1305.05 1268.25 L1310.94 1268.25 Z" fill="#000000" fill-rule="nonzero" fill-opacity="1" /><path clip-path="url(#clip720)" d="M1345.54 1317.32 Q1343.06 1323.69 1340.7 1325.63 Q1338.35 1327.57 1334.4 1327.57 L1329.72 1327.57 L1329.72 1322.67 L1333.16 1322.67 Q1335.58 1322.67 1336.91 1321.53 Q1338.25 1320.38 1339.87 1316.12 L1340.92 1313.44 L1326.51 1278.37 L1332.71 1278.37 L1343.85 1306.25 L1354.99 1278.37 L1361.2 1278.37 L1345.54 1317.32 Z" fill="#000000" fill-rule="nonzero" fill-opacity="1" /><polyline clip-path="url(#clip720)" style="stroke:#000000; stroke-linecap:round; stroke-linejoin:round; stroke-width:4; stroke-opacity:1; fill:none" points="200.081,1173.47 200.081,120.723 "/>
<polyline clip-path="url(#clip720)" style="stroke:#000000; stroke-linecap:round; stroke-linejoin:round; stroke-width:4; stroke-opacity:1; fill:none" points="200.081,1143.68 218.979,1143.68 "/>
<polyline clip-path="url(#clip720)" style="stroke:#000000; stroke-linecap:round; stroke-linejoin:round; stroke-width:4; stroke-opacity:1; fill:none" points="200.081,943.362 218.979,943.362 "/>
<polyline clip-path="url(#clip720)" style="stroke:#000000; stroke-linecap:round; stroke-linejoin:round; stroke-width:4; stroke-opacity:1; fill:none" points="200.081,743.047 218.979,743.047 "/>
<polyline clip-path="url(#clip720)" style="stroke:#000000; stroke-linecap:round; stroke-linejoin:round; stroke-width:4; stroke-opacity:1; fill:none" points="200.081,542.733 218.979,542.733 "/>
<polyline clip-path="url(#clip720)" style="stroke:#000000; stroke-linecap:round; stroke-linejoin:round; stroke-width:4; stroke-opacity:1; fill:none" points="200.081,342.419 218.979,342.419 "/>
<polyline clip-path="url(#clip720)" style="stroke:#000000; stroke-linecap:round; stroke-linejoin:round; stroke-width:4; stroke-opacity:1; fill:none" points="200.081,142.105 218.979,142.105 "/>
<path clip-path="url(#clip720)" d="M156.457 1129.47 Q152.846 1129.47 151.017 1133.04 Q149.211 1136.58 149.211 1143.71 Q149.211 1150.82 151.017 1154.38 Q152.846 1157.92 156.457 1157.92 Q160.091 1157.92 161.896 1154.38 Q163.725 1150.82 163.725 1143.71 Q163.725 1136.58 161.896 1133.04 Q160.091 1129.47 156.457 1129.47 M156.457 1125.77 Q162.267 1125.77 165.322 1130.38 Q168.401 1134.96 168.401 1143.71 Q168.401 1152.44 165.322 1157.04 Q162.267 1161.63 156.457 1161.63 Q150.646 1161.63 147.568 1157.04 Q144.512 1152.44 144.512 1143.71 Q144.512 1134.96 147.568 1130.38 Q150.646 1125.77 156.457 1125.77 Z" fill="#000000" fill-rule="nonzero" fill-opacity="1" /><path clip-path="url(#clip720)" d="M117.105 956.707 L124.744 956.707 L124.744 930.341 L116.434 932.008 L116.434 927.748 L124.698 926.082 L129.373 926.082 L129.373 956.707 L137.012 956.707 L137.012 960.642 L117.105 960.642 L117.105 956.707 Z" fill="#000000" fill-rule="nonzero" fill-opacity="1" /><path clip-path="url(#clip720)" d="M156.457 929.16 Q152.846 929.16 151.017 932.725 Q149.211 936.267 149.211 943.396 Q149.211 950.503 151.017 954.068 Q152.846 957.609 156.457 957.609 Q160.091 957.609 161.896 954.068 Q163.725 950.503 163.725 943.396 Q163.725 936.267 161.896 932.725 Q160.091 929.16 156.457 929.16 M156.457 925.457 Q162.267 925.457 165.322 930.063 Q168.401 934.646 168.401 943.396 Q168.401 952.123 165.322 956.73 Q162.267 961.313 156.457 961.313 Q150.646 961.313 147.568 956.73 Q144.512 952.123 144.512 943.396 Q144.512 934.646 147.568 930.063 Q150.646 925.457 156.457 925.457 Z" fill="#000000" fill-rule="nonzero" fill-opacity="1" /><path clip-path="url(#clip720)" d="M120.323 756.392 L136.642 756.392 L136.642 760.327 L114.698 760.327 L114.698 756.392 Q117.36 753.638 121.943 749.008 Q126.549 744.355 127.73 743.013 Q129.975 740.49 130.855 738.753 Q131.758 736.994 131.758 735.304 Q131.758 732.55 129.813 730.814 Q127.892 729.078 124.79 729.078 Q122.591 729.078 120.137 729.841 Q117.707 730.605 114.929 732.156 L114.929 727.434 Q117.753 726.3 120.207 725.721 Q122.66 725.142 124.698 725.142 Q130.068 725.142 133.262 727.828 Q136.457 730.513 136.457 735.003 Q136.457 737.133 135.647 739.054 Q134.859 740.953 132.753 743.545 Q132.174 744.216 129.072 747.434 Q125.971 750.628 120.323 756.392 Z" fill="#000000" fill-rule="nonzero" fill-opacity="1" /><path clip-path="url(#clip720)" d="M156.457 728.846 Q152.846 728.846 151.017 732.411 Q149.211 735.953 149.211 743.082 Q149.211 750.189 151.017 753.753 Q152.846 757.295 156.457 757.295 Q160.091 757.295 161.896 753.753 Q163.725 750.189 163.725 743.082 Q163.725 735.953 161.896 732.411 Q160.091 728.846 156.457 728.846 M156.457 725.142 Q162.267 725.142 165.322 729.749 Q168.401 734.332 168.401 743.082 Q168.401 751.809 165.322 756.415 Q162.267 760.999 156.457 760.999 Q150.646 760.999 147.568 756.415 Q144.512 751.809 144.512 743.082 Q144.512 734.332 147.568 729.749 Q150.646 725.142 156.457 725.142 Z" fill="#000000" fill-rule="nonzero" fill-opacity="1" /><path clip-path="url(#clip720)" d="M130.461 541.379 Q133.818 542.097 135.693 544.365 Q137.591 546.634 137.591 549.967 Q137.591 555.083 134.072 557.884 Q130.554 560.684 124.073 560.684 Q121.897 560.684 119.582 560.245 Q117.29 559.828 114.836 558.971 L114.836 554.458 Q116.781 555.592 119.096 556.171 Q121.41 556.749 123.934 556.749 Q128.332 556.749 130.623 555.013 Q132.938 553.277 132.938 549.967 Q132.938 546.911 130.785 545.198 Q128.656 543.462 124.836 543.462 L120.809 543.462 L120.809 539.62 L125.022 539.62 Q128.471 539.62 130.299 538.254 Q132.128 536.865 132.128 534.273 Q132.128 531.611 130.23 530.198 Q128.355 528.763 124.836 528.763 Q122.915 528.763 120.716 529.18 Q118.517 529.597 115.878 530.476 L115.878 526.31 Q118.54 525.569 120.855 525.199 Q123.193 524.828 125.253 524.828 Q130.577 524.828 133.679 527.259 Q136.781 529.666 136.781 533.786 Q136.781 536.657 135.137 538.648 Q133.494 540.615 130.461 541.379 Z" fill="#000000" fill-rule="nonzero" fill-opacity="1" /><path clip-path="url(#clip720)" d="M156.457 528.532 Q152.846 528.532 151.017 532.097 Q149.211 535.638 149.211 542.768 Q149.211 549.874 151.017 553.439 Q152.846 556.981 156.457 556.981 Q160.091 556.981 161.896 553.439 Q163.725 549.874 163.725 542.768 Q163.725 535.638 161.896 532.097 Q160.091 528.532 156.457 528.532 M156.457 524.828 Q162.267 524.828 165.322 529.435 Q168.401 534.018 168.401 542.768 Q168.401 551.495 165.322 556.101 Q162.267 560.684 156.457 560.684 Q150.646 560.684 147.568 556.101 Q144.512 551.495 144.512 542.768 Q144.512 534.018 147.568 529.435 Q150.646 524.828 156.457 524.828 Z" fill="#000000" fill-rule="nonzero" fill-opacity="1" /><path clip-path="url(#clip720)" d="M129.142 329.213 L117.336 347.662 L129.142 347.662 L129.142 329.213 M127.915 325.139 L133.795 325.139 L133.795 347.662 L138.725 347.662 L138.725 351.551 L133.795 351.551 L133.795 359.699 L129.142 359.699 L129.142 351.551 L113.54 351.551 L113.54 347.037 L127.915 325.139 Z" fill="#000000" fill-rule="nonzero" fill-opacity="1" /><path clip-path="url(#clip720)" d="M156.457 328.218 Q152.846 328.218 151.017 331.782 Q149.211 335.324 149.211 342.454 Q149.211 349.56 151.017 353.125 Q152.846 356.666 156.457 356.666 Q160.091 356.666 161.896 353.125 Q163.725 349.56 163.725 342.454 Q163.725 335.324 161.896 331.782 Q160.091 328.218 156.457 328.218 M156.457 324.514 Q162.267 324.514 165.322 329.12 Q168.401 333.704 168.401 342.454 Q168.401 351.18 165.322 355.787 Q162.267 360.37 156.457 360.37 Q150.646 360.37 147.568 355.787 Q144.512 351.18 144.512 342.454 Q144.512 333.704 147.568 329.12 Q150.646 324.514 156.457 324.514 Z" fill="#000000" fill-rule="nonzero" fill-opacity="1" /><path clip-path="url(#clip720)" d="M116.341 124.825 L134.697 124.825 L134.697 128.76 L120.623 128.76 L120.623 137.232 Q121.642 136.885 122.66 136.723 Q123.679 136.537 124.698 136.537 Q130.485 136.537 133.864 139.709 Q137.244 142.88 137.244 148.297 Q137.244 153.875 133.772 156.977 Q130.299 160.056 123.98 160.056 Q121.804 160.056 119.535 159.686 Q117.29 159.315 114.883 158.574 L114.883 153.875 Q116.966 155.01 119.188 155.565 Q121.41 156.121 123.887 156.121 Q127.892 156.121 130.23 154.014 Q132.568 151.908 132.568 148.297 Q132.568 144.686 130.23 142.579 Q127.892 140.473 123.887 140.473 Q122.012 140.473 120.137 140.889 Q118.286 141.306 116.341 142.186 L116.341 124.825 Z" fill="#000000" fill-rule="nonzero" fill-opacity="1" /><path clip-path="url(#clip720)" d="M156.457 127.903 Q152.846 127.903 151.017 131.468 Q149.211 135.01 149.211 142.139 Q149.211 149.246 151.017 152.811 Q152.846 156.352 156.457 156.352 Q160.091 156.352 161.896 152.811 Q163.725 149.246 163.725 142.139 Q163.725 135.01 161.896 131.468 Q160.091 127.903 156.457 127.903 M156.457 124.2 Q162.267 124.2 165.322 128.806 Q168.401 133.389 168.401 142.139 Q168.401 150.866 165.322 155.473 Q162.267 160.056 156.457 160.056 Q150.646 160.056 147.568 155.473 Q144.512 150.866 144.512 142.139 Q144.512 133.389 147.568 128.806 Q150.646 124.2 156.457 124.2 Z" fill="#000000" fill-rule="nonzero" fill-opacity="1" /><path clip-path="url(#clip720)" d="M49.6847 1089.83 Q49.6847 1096.93 51.3079 1099.67 Q52.9312 1102.4 56.8461 1102.4 Q59.9653 1102.4 61.8114 1100.37 Q63.6256 1098.3 63.6256 1094.77 Q63.6256 1089.9 60.1881 1086.97 Q56.7188 1084.01 50.9897 1084.01 L49.6847 1084.01 L49.6847 1089.83 M47.2657 1078.15 L67.6042 1078.15 L67.6042 1084.01 L62.1933 1084.01 Q65.4398 1086.01 66.9994 1089 Q68.5272 1092 68.5272 1096.32 Q68.5272 1101.8 65.4716 1105.05 Q62.3843 1108.26 57.2281 1108.26 Q51.2125 1108.26 48.1569 1104.25 Q45.1014 1100.21 45.1014 1092.22 L45.1014 1084.01 L44.5285 1084.01 Q40.4862 1084.01 38.2901 1086.68 Q36.0621 1089.32 36.0621 1094.13 Q36.0621 1097.18 36.7941 1100.08 Q37.5262 1102.98 38.9903 1105.65 L33.5795 1105.65 Q32.3381 1102.44 31.7334 1099.41 Q31.0968 1096.39 31.0968 1093.52 Q31.0968 1085.79 35.1072 1081.97 Q39.1176 1078.15 47.2657 1078.15 Z" fill="#000000" fill-rule="nonzero" fill-opacity="1" /><path clip-path="url(#clip720)" d="M31.9562 1070.29 L31.9562 1064.08 L61.875 1052.94 L31.9562 1041.8 L31.9562 1035.6 L67.6042 1048.96 L67.6042 1056.92 L31.9562 1070.29 Z" fill="#000000" fill-rule="nonzero" fill-opacity="1" /><path clip-path="url(#clip720)" d="M48.3161 997.02 L51.1806 997.02 L51.1806 1023.95 Q57.2281 1023.56 60.4109 1020.32 Q63.5619 1017.04 63.5619 1011.22 Q63.5619 1007.84 62.7344 1004.69 Q61.9069 1001.51 60.2518 998.388 L65.7899 998.388 Q67.1267 1001.54 67.827 1004.85 Q68.5272 1008.16 68.5272 1011.57 Q68.5272 1020.1 63.5619 1025.09 Q58.5967 1030.06 50.1303 1030.06 Q41.3774 1030.06 36.2531 1025.35 Q31.0968 1020.6 31.0968 1012.58 Q31.0968 1005.39 35.7438 1001.22 Q40.3589 997.02 48.3161 997.02 M46.5973 1002.88 Q41.7912 1002.94 38.9266 1005.58 Q36.0621 1008.19 36.0621 1012.52 Q36.0621 1017.42 38.8312 1020.38 Q41.6002 1023.31 46.6292 1023.76 L46.5973 1002.88 Z" fill="#000000" fill-rule="nonzero" fill-opacity="1" /><path clip-path="url(#clip720)" d="M37.4307 966.751 Q36.8578 967.738 36.6032 968.915 Q36.3167 970.061 36.3167 971.461 Q36.3167 976.427 39.5632 979.1 Q42.7779 981.742 48.8253 981.742 L67.6042 981.742 L67.6042 987.63 L31.9562 987.63 L31.9562 981.742 L37.4944 981.742 Q34.2479 979.896 32.6883 976.936 Q31.0968 973.976 31.0968 969.743 Q31.0968 969.138 31.1923 968.406 Q31.256 967.674 31.4151 966.783 L37.4307 966.751 Z" fill="#000000" fill-rule="nonzero" fill-opacity="1" /><path clip-path="url(#clip720)" d="M49.6847 944.407 Q49.6847 951.505 51.3079 954.242 Q52.9312 956.979 56.8461 956.979 Q59.9653 956.979 61.8114 954.942 Q63.6256 952.874 63.6256 949.341 Q63.6256 944.471 60.1881 941.543 Q56.7188 938.583 50.9897 938.583 L49.6847 938.583 L49.6847 944.407 M47.2657 932.726 L67.6042 932.726 L67.6042 938.583 L62.1933 938.583 Q65.4398 940.588 66.9994 943.58 Q68.5272 946.572 68.5272 950.9 Q68.5272 956.375 65.4716 959.621 Q62.3843 962.836 57.2281 962.836 Q51.2125 962.836 48.1569 958.826 Q45.1014 954.783 45.1014 946.794 L45.1014 938.583 L44.5285 938.583 Q40.4862 938.583 38.2901 941.256 Q36.0621 943.898 36.0621 948.704 Q36.0621 951.76 36.7941 954.656 Q37.5262 957.552 38.9903 960.226 L33.5795 960.226 Q32.3381 957.011 31.7334 953.988 Q31.0968 950.964 31.0968 948.099 Q31.0968 940.365 35.1072 936.546 Q39.1176 932.726 47.2657 932.726 Z" fill="#000000" fill-rule="nonzero" fill-opacity="1" /><path clip-path="url(#clip720)" d="M49.3664 897.206 Q43.0007 897.206 39.4996 899.847 Q35.9984 902.457 35.9984 907.2 Q35.9984 911.91 39.4996 914.552 Q43.0007 917.162 49.3664 917.162 Q55.7003 917.162 59.2014 914.552 Q62.7026 911.91 62.7026 907.2 Q62.7026 902.457 59.2014 899.847 Q55.7003 897.206 49.3664 897.206 M63.18 891.349 Q72.283 891.349 76.7071 895.391 Q81.1631 899.434 81.1631 907.773 Q81.1631 910.86 80.6857 913.597 Q80.2401 916.334 79.2852 918.913 L73.5879 918.913 Q74.9884 916.334 75.6568 913.82 Q76.3252 911.306 76.3252 908.696 Q76.3252 902.935 73.3015 900.07 Q70.3096 897.206 64.2303 897.206 L61.3339 897.206 Q64.485 899.02 66.0446 901.852 Q67.6042 904.685 67.6042 908.632 Q67.6042 915.189 62.6071 919.199 Q57.61 923.209 49.3664 923.209 Q41.091 923.209 36.0939 919.199 Q31.0968 915.189 31.0968 908.632 Q31.0968 904.685 32.6564 901.852 Q34.216 899.02 37.3671 897.206 L31.9562 897.206 L31.9562 891.349 L63.18 891.349 Z" fill="#000000" fill-rule="nonzero" fill-opacity="1" /><path clip-path="url(#clip720)" d="M48.3161 848.794 L51.1806 848.794 L51.1806 875.721 Q57.2281 875.339 60.4109 872.093 Q63.5619 868.814 63.5619 862.99 Q63.5619 859.616 62.7344 856.465 Q61.9069 853.282 60.2518 850.163 L65.7899 850.163 Q67.1267 853.314 67.827 856.624 Q68.5272 859.934 68.5272 863.34 Q68.5272 871.87 63.5619 876.867 Q58.5967 881.832 50.1303 881.832 Q41.3774 881.832 36.2531 877.122 Q31.0968 872.379 31.0968 864.358 Q31.0968 857.165 35.7438 852.996 Q40.3589 848.794 48.3161 848.794 M46.5973 854.651 Q41.7912 854.714 38.9266 857.356 Q36.0621 859.966 36.0621 864.295 Q36.0621 869.196 38.8312 872.156 Q41.6002 875.085 46.6292 875.53 L46.5973 854.651 Z" fill="#000000" fill-rule="nonzero" fill-opacity="1" /><path clip-path="url(#clip720)" d="M37.3671 795.004 L18.079 795.004 L18.079 789.148 L67.6042 789.148 L67.6042 795.004 L62.257 795.004 Q65.4398 796.85 66.9994 799.683 Q68.5272 802.484 68.5272 806.431 Q68.5272 812.892 63.371 816.966 Q58.2147 821.008 49.812 821.008 Q41.4093 821.008 36.2531 816.966 Q31.0968 812.892 31.0968 806.431 Q31.0968 802.484 32.6564 799.683 Q34.1842 796.85 37.3671 795.004 M49.812 814.961 Q56.2732 814.961 59.9653 812.319 Q63.6256 809.645 63.6256 804.998 Q63.6256 800.351 59.9653 797.678 Q56.2732 795.004 49.812 795.004 Q43.3508 795.004 39.6905 797.678 Q35.9984 800.351 35.9984 804.998 Q35.9984 809.645 39.6905 812.319 Q43.3508 814.961 49.812 814.961 Z" fill="#000000" fill-rule="nonzero" fill-opacity="1" /><path clip-path="url(#clip720)" d="M48.3161 746.593 L51.1806 746.593 L51.1806 773.52 Q57.2281 773.138 60.4109 769.891 Q63.5619 766.613 63.5619 760.788 Q63.5619 757.415 62.7344 754.264 Q61.9069 751.081 60.2518 747.962 L65.7899 747.962 Q67.1267 751.113 67.827 754.423 Q68.5272 757.733 68.5272 761.139 Q68.5272 769.669 63.5619 774.666 Q58.5967 779.631 50.1303 779.631 Q41.3774 779.631 36.2531 774.92 Q31.0968 770.178 31.0968 762.157 Q31.0968 754.964 35.7438 750.794 Q40.3589 746.593 48.3161 746.593 M46.5973 752.449 Q41.7912 752.513 38.9266 755.155 Q36.0621 757.765 36.0621 762.093 Q36.0621 766.995 38.8312 769.955 Q41.6002 772.883 46.6292 773.329 L46.5973 752.449 Z" fill="#000000" fill-rule="nonzero" fill-opacity="1" /><path clip-path="url(#clip720)" d="M49.3664 713.523 Q43.0007 713.523 39.4996 716.165 Q35.9984 718.775 35.9984 723.517 Q35.9984 728.228 39.4996 730.87 Q43.0007 733.48 49.3664 733.48 Q55.7003 733.48 59.2014 730.87 Q62.7026 728.228 62.7026 723.517 Q62.7026 718.775 59.2014 716.165 Q55.7003 713.523 49.3664 713.523 M63.18 707.667 Q72.283 707.667 76.7071 711.709 Q81.1631 715.751 81.1631 724.09 Q81.1631 727.177 80.6857 729.915 Q80.2401 732.652 79.2852 735.23 L73.5879 735.23 Q74.9884 732.652 75.6568 730.138 Q76.3252 727.623 76.3252 725.013 Q76.3252 719.252 73.3015 716.388 Q70.3096 713.523 64.2303 713.523 L61.3339 713.523 Q64.485 715.337 66.0446 718.17 Q67.6042 721.003 67.6042 724.949 Q67.6042 731.506 62.6071 735.517 Q57.61 739.527 49.3664 739.527 Q41.091 739.527 36.0939 735.517 Q31.0968 731.506 31.0968 724.949 Q31.0968 721.003 32.6564 718.17 Q34.216 715.337 37.3671 713.523 L31.9562 713.523 L31.9562 707.667 L63.18 707.667 Z" fill="#000000" fill-rule="nonzero" fill-opacity="1" /><path clip-path="url(#clip720)" d="M37.4307 674.947 Q36.8578 675.934 36.6032 677.111 Q36.3167 678.257 36.3167 679.657 Q36.3167 684.623 39.5632 687.296 Q42.7779 689.938 48.8253 689.938 L67.6042 689.938 L67.6042 695.826 L31.9562 695.826 L31.9562 689.938 L37.4944 689.938 Q34.2479 688.092 32.6883 685.132 Q31.0968 682.172 31.0968 677.939 Q31.0968 677.334 31.1923 676.602 Q31.256 675.87 31.4151 674.979 L37.4307 674.947 Z" fill="#000000" fill-rule="nonzero" fill-opacity="1" /><path clip-path="url(#clip720)" d="M48.3161 639.745 L51.1806 639.745 L51.1806 666.671 Q57.2281 666.289 60.4109 663.043 Q63.5619 659.765 63.5619 653.94 Q63.5619 650.566 62.7344 647.415 Q61.9069 644.232 60.2518 641.113 L65.7899 641.113 Q67.1267 644.264 67.827 647.574 Q68.5272 650.884 68.5272 654.29 Q68.5272 662.82 63.5619 667.817 Q58.5967 672.783 50.1303 672.783 Q41.3774 672.783 36.2531 668.072 Q31.0968 663.329 31.0968 655.309 Q31.0968 648.115 35.7438 643.946 Q40.3589 639.745 48.3161 639.745 M46.5973 645.601 Q41.7912 645.665 38.9266 648.306 Q36.0621 650.916 36.0621 655.245 Q36.0621 660.147 38.8312 663.107 Q41.6002 666.035 46.6292 666.48 L46.5973 645.601 Z" fill="#000000" fill-rule="nonzero" fill-opacity="1" /><path clip-path="url(#clip720)" d="M48.3161 599.641 L51.1806 599.641 L51.1806 626.567 Q57.2281 626.186 60.4109 622.939 Q63.5619 619.661 63.5619 613.836 Q63.5619 610.462 62.7344 607.311 Q61.9069 604.128 60.2518 601.009 L65.7899 601.009 Q67.1267 604.16 67.827 607.47 Q68.5272 610.781 68.5272 614.186 Q68.5272 622.716 63.5619 627.713 Q58.5967 632.679 50.1303 632.679 Q41.3774 632.679 36.2531 627.968 Q31.0968 623.225 31.0968 615.205 Q31.0968 608.011 35.7438 603.842 Q40.3589 599.641 48.3161 599.641 M46.5973 605.497 Q41.7912 605.561 38.9266 608.202 Q36.0621 610.812 36.0621 615.141 Q36.0621 620.043 38.8312 623.003 Q41.6002 625.931 46.6292 626.377 L46.5973 605.497 Z" fill="#000000" fill-rule="nonzero" fill-opacity="1" /><path clip-path="url(#clip720)" d="M18.1426 555.24 Q25.4632 559.505 32.6246 561.574 Q39.786 563.642 47.1384 563.642 Q54.4908 563.642 61.7159 561.574 Q68.9091 559.473 76.1979 555.24 L76.1979 560.332 Q68.7182 565.107 61.4931 567.494 Q54.268 569.849 47.1384 569.849 Q40.0406 569.849 32.8474 567.494 Q25.6542 565.138 18.1426 560.332 L18.1426 555.24 Z" fill="#000000" fill-rule="nonzero" fill-opacity="1" /><path clip-path="url(#clip720)" d="M49.812 518.287 Q43.3508 518.287 39.6905 520.96 Q35.9984 523.602 35.9984 528.249 Q35.9984 532.896 39.6905 535.57 Q43.3508 538.211 49.812 538.211 Q56.2732 538.211 59.9653 535.57 Q63.6256 532.896 63.6256 528.249 Q63.6256 523.602 59.9653 520.96 Q56.2732 518.287 49.812 518.287 M37.3671 538.211 Q34.1842 536.365 32.6564 533.565 Q31.0968 530.732 31.0968 526.817 Q31.0968 520.324 36.2531 516.282 Q41.4093 512.208 49.812 512.208 Q58.2147 512.208 63.371 516.282 Q68.5272 520.324 68.5272 526.817 Q68.5272 530.732 66.9994 533.565 Q65.4398 536.365 62.257 538.211 L67.6042 538.211 L67.6042 544.1 L18.079 544.1 L18.079 538.211 L37.3671 538.211 Z" fill="#000000" fill-rule="nonzero" fill-opacity="1" /><path clip-path="url(#clip720)" d="M18.079 502.5 L18.079 496.643 L67.6042 496.643 L67.6042 502.5 L18.079 502.5 Z" fill="#000000" fill-rule="nonzero" fill-opacity="1" /><path clip-path="url(#clip720)" d="M53.5359 484.994 L31.9562 484.994 L31.9562 479.138 L53.3131 479.138 Q58.3739 479.138 60.9202 477.164 Q63.4346 475.191 63.4346 471.244 Q63.4346 466.502 60.4109 463.765 Q57.3872 460.995 52.1673 460.995 L31.9562 460.995 L31.9562 455.139 L67.6042 455.139 L67.6042 460.995 L62.1296 460.995 Q65.3762 463.128 66.9676 465.961 Q68.5272 468.762 68.5272 472.486 Q68.5272 478.628 64.7078 481.811 Q60.8883 484.994 53.5359 484.994 M31.0968 470.258 L31.0968 470.258 Z" fill="#000000" fill-rule="nonzero" fill-opacity="1" /><path clip-path="url(#clip720)" d="M48.3161 412.584 L51.1806 412.584 L51.1806 439.511 Q57.2281 439.129 60.4109 435.883 Q63.5619 432.604 63.5619 426.78 Q63.5619 423.406 62.7344 420.255 Q61.9069 417.072 60.2518 413.953 L65.7899 413.953 Q67.1267 417.104 67.827 420.414 Q68.5272 423.724 68.5272 427.13 Q68.5272 435.66 63.5619 440.657 Q58.5967 445.622 50.1303 445.622 Q41.3774 445.622 36.2531 440.912 Q31.0968 436.169 31.0968 428.148 Q31.0968 420.955 35.7438 416.786 Q40.3589 412.584 48.3161 412.584 M46.5973 418.441 Q41.7912 418.504 38.9266 421.146 Q36.0621 423.756 36.0621 428.085 Q36.0621 432.986 38.8312 435.946 Q41.6002 438.875 46.6292 439.32 L46.5973 418.441 Z" fill="#000000" fill-rule="nonzero" fill-opacity="1" /><path clip-path="url(#clip720)" d="M33.3248 356.598 L38.7993 356.598 Q37.4307 359.08 36.7623 361.595 Q36.0621 364.078 36.0621 366.624 Q36.0621 372.321 39.6905 375.472 Q43.2872 378.623 49.812 378.623 Q56.3369 378.623 59.9653 375.472 Q63.5619 372.321 63.5619 366.624 Q63.5619 364.078 62.8935 361.595 Q62.1933 359.08 60.8247 356.598 L66.2355 356.598 Q67.3814 359.049 67.9543 361.69 Q68.5272 364.3 68.5272 367.26 Q68.5272 375.313 63.4664 380.056 Q58.4057 384.798 49.812 384.798 Q41.091 384.798 36.0939 380.024 Q31.0968 375.218 31.0968 366.878 Q31.0968 364.173 31.6697 361.595 Q32.2108 359.017 33.3248 356.598 Z" fill="#000000" fill-rule="nonzero" fill-opacity="1" /><path clip-path="url(#clip720)" d="M53.5359 347.017 L31.9562 347.017 L31.9562 341.161 L53.3131 341.161 Q58.3739 341.161 60.9202 339.188 Q63.4346 337.214 63.4346 333.268 Q63.4346 328.525 60.4109 325.788 Q57.3872 323.019 52.1673 323.019 L31.9562 323.019 L31.9562 317.162 L67.6042 317.162 L67.6042 323.019 L62.1296 323.019 Q65.3762 325.151 66.9676 327.984 Q68.5272 330.785 68.5272 334.509 Q68.5272 340.652 64.7078 343.835 Q60.8883 347.017 53.5359 347.017 M31.0968 332.281 L31.0968 332.281 Z" fill="#000000" fill-rule="nonzero" fill-opacity="1" /><path clip-path="url(#clip720)" d="M37.4307 284.443 Q36.8578 285.429 36.6032 286.607 Q36.3167 287.753 36.3167 289.153 Q36.3167 294.118 39.5632 296.792 Q42.7779 299.434 48.8253 299.434 L67.6042 299.434 L67.6042 305.322 L31.9562 305.322 L31.9562 299.434 L37.4944 299.434 Q34.2479 297.588 32.6883 294.628 Q31.0968 291.668 31.0968 287.434 Q31.0968 286.83 31.1923 286.098 Q31.256 285.366 31.4151 284.474 L37.4307 284.443 Z" fill="#000000" fill-rule="nonzero" fill-opacity="1" /><path clip-path="url(#clip720)" d="M31.9562 282.501 L31.9562 276.294 L61.875 265.154 L31.9562 254.015 L31.9562 247.808 L67.6042 261.176 L67.6042 269.133 L31.9562 282.501 Z" fill="#000000" fill-rule="nonzero" fill-opacity="1" /><path clip-path="url(#clip720)" d="M48.3161 209.232 L51.1806 209.232 L51.1806 236.159 Q57.2281 235.777 60.4109 232.53 Q63.5619 229.252 63.5619 223.427 Q63.5619 220.053 62.7344 216.902 Q61.9069 213.72 60.2518 210.6 L65.7899 210.6 Q67.1267 213.751 67.827 217.062 Q68.5272 220.372 68.5272 223.777 Q68.5272 232.307 63.5619 237.305 Q58.5967 242.27 50.1303 242.27 Q41.3774 242.27 36.2531 237.559 Q31.0968 232.817 31.0968 224.796 Q31.0968 217.603 35.7438 213.433 Q40.3589 209.232 48.3161 209.232 M46.5973 215.088 Q41.7912 215.152 38.9266 217.794 Q36.0621 220.404 36.0621 224.732 Q36.0621 229.634 38.8312 232.594 Q41.6002 235.522 46.6292 235.968 L46.5973 215.088 Z" fill="#000000" fill-rule="nonzero" fill-opacity="1" /><path clip-path="url(#clip720)" d="M18.1426 200.543 L18.1426 195.45 Q25.6542 190.676 32.8474 188.32 Q40.0406 185.933 47.1384 185.933 Q54.268 185.933 61.4931 188.32 Q68.7182 190.676 76.1979 195.45 L76.1979 200.543 Q68.9091 196.309 61.7159 194.241 Q54.4908 192.14 47.1384 192.14 Q39.786 192.14 32.6246 194.241 Q25.4632 196.309 18.1426 200.543 Z" fill="#000000" fill-rule="nonzero" fill-opacity="1" /><path clip-path="url(#clip720)" d="M652.834 12.096 L691.074 12.096 L691.074 18.9825 L661.017 18.9825 L661.017 36.8875 L689.819 36.8875 L689.819 43.7741 L661.017 43.7741 L661.017 65.6895 L691.803 65.6895 L691.803 72.576 L652.834 72.576 L652.834 12.096 Z" fill="#000000" fill-rule="nonzero" fill-opacity="1" /><path clip-path="url(#clip720)" d="M731.219 34.1734 Q729.963 33.4443 728.464 33.1202 Q727.006 32.7556 725.223 32.7556 Q718.904 32.7556 715.501 36.8875 Q712.139 40.9789 712.139 48.6757 L712.139 72.576 L704.645 72.576 L704.645 27.2059 L712.139 27.2059 L712.139 34.2544 Q714.489 30.1225 718.256 28.1376 Q722.023 26.1121 727.411 26.1121 Q728.181 26.1121 729.112 26.2337 Q730.044 26.3147 731.178 26.5172 L731.219 34.1734 Z" fill="#000000" fill-rule="nonzero" fill-opacity="1" /><path clip-path="url(#clip720)" d="M767.434 34.0924 L767.434 9.54393 L774.888 9.54393 L774.888 72.576 L767.434 72.576 L767.434 65.7705 Q765.084 69.8214 761.479 71.8063 Q757.914 73.7508 752.891 73.7508 Q744.668 73.7508 739.483 67.1883 Q734.338 60.6258 734.338 49.9314 Q734.338 39.2371 739.483 32.6746 Q744.668 26.1121 752.891 26.1121 Q757.914 26.1121 761.479 28.0971 Q765.084 30.0415 767.434 34.0924 M742.035 49.9314 Q742.035 58.1548 745.397 62.8538 Q748.8 67.5124 754.714 67.5124 Q760.628 67.5124 764.031 62.8538 Q767.434 58.1548 767.434 49.9314 Q767.434 41.7081 764.031 37.0496 Q760.628 32.3505 754.714 32.3505 Q748.8 32.3505 745.397 37.0496 Q742.035 41.7081 742.035 49.9314 Z" fill="#000000" fill-rule="nonzero" fill-opacity="1" /><path clip-path="url(#clip720)" d="M819.853 6.22219 L827.063 6.22219 L817.017 21.4536 L811.548 21.4536 L819.853 6.22219 M806.323 6.22219 L813.209 6.22219 L804.176 21.4536 L798.626 21.4536 L806.323 6.22219 M807.821 32.4315 Q801.826 32.4315 798.342 37.1306 Q794.858 41.7891 794.858 49.9314 Q794.858 58.0738 798.302 62.7728 Q801.786 67.4314 807.821 67.4314 Q813.776 67.4314 817.26 62.7323 Q820.744 58.0333 820.744 49.9314 Q820.744 41.8701 817.26 37.1711 Q813.776 32.4315 807.821 32.4315 M807.821 26.1121 Q817.544 26.1121 823.093 32.4315 Q828.643 38.7509 828.643 49.9314 Q828.643 61.0714 823.093 67.4314 Q817.544 73.7508 807.821 73.7508 Q798.059 73.7508 792.509 67.4314 Q787 61.0714 787 49.9314 Q787 38.7509 792.509 32.4315 Q798.059 26.1121 807.821 26.1121 Z" fill="#000000" fill-rule="nonzero" fill-opacity="1" /><path clip-path="url(#clip720)" d="M869.922 28.5427 L869.922 35.5912 Q866.762 33.9709 863.359 33.1607 Q859.956 32.3505 856.311 32.3505 Q850.761 32.3505 847.966 34.0519 Q845.211 35.7533 845.211 39.156 Q845.211 41.7486 847.196 43.2475 Q849.181 44.7058 855.176 46.0426 L857.728 46.6097 Q865.668 48.3111 868.99 51.4303 Q872.352 54.509 872.352 60.0587 Q872.352 66.3781 867.329 70.0644 Q862.347 73.7508 853.597 73.7508 Q849.951 73.7508 845.981 73.0216 Q842.051 72.3329 837.677 70.9151 L837.677 63.2184 Q841.808 65.3654 845.819 66.4591 Q849.829 67.5124 853.759 67.5124 Q859.025 67.5124 861.86 65.73 Q864.696 63.9071 864.696 60.6258 Q864.696 57.5877 862.63 55.9673 Q860.605 54.3469 853.678 52.8481 L851.085 52.2405 Q844.158 50.7821 841.079 47.7845 Q838.001 44.7463 838.001 39.4801 Q838.001 33.0797 842.538 29.5959 Q847.075 26.1121 855.419 26.1121 Q859.551 26.1121 863.197 26.7198 Q866.843 27.3274 869.922 28.5427 Z" fill="#000000" fill-rule="nonzero" fill-opacity="1" /><path clip-path="url(#clip720)" d="M880.454 46.5287 L902.288 46.5287 L902.288 53.1722 L880.454 53.1722 L880.454 46.5287 Z" fill="#000000" fill-rule="nonzero" fill-opacity="1" /><path clip-path="url(#clip720)" d="M943.162 44.2197 Q945.795 45.1109 948.266 48.0275 Q950.778 50.9442 953.289 56.0483 L961.594 72.576 L952.803 72.576 L945.066 57.061 Q942.068 50.9847 939.233 48.9997 Q936.438 47.0148 931.576 47.0148 L922.664 47.0148 L922.664 72.576 L914.482 72.576 L914.482 12.096 L932.954 12.096 Q943.324 12.096 948.428 16.4305 Q953.532 20.7649 953.532 29.5149 Q953.532 35.2267 950.859 38.994 Q948.226 42.7613 943.162 44.2197 M922.664 18.8205 L922.664 40.2903 L932.954 40.2903 Q938.868 40.2903 941.866 37.5762 Q944.904 34.8216 944.904 29.5149 Q944.904 24.2082 941.866 21.5346 Q938.868 18.8205 932.954 18.8205 L922.664 18.8205 Z" fill="#000000" fill-rule="nonzero" fill-opacity="1" /><path clip-path="url(#clip720)" d="M1006.88 48.0275 L1006.88 51.6733 L972.612 51.6733 Q973.098 59.3701 977.23 63.421 Q981.403 67.4314 988.816 67.4314 Q993.11 67.4314 997.12 66.3781 Q1001.17 65.3249 1005.14 63.2184 L1005.14 70.267 Q1001.13 71.9684 996.918 72.8596 Q992.705 73.7508 988.37 73.7508 Q977.514 73.7508 971.154 67.4314 Q964.834 61.1119 964.834 50.3365 Q964.834 39.1965 970.83 32.6746 Q976.866 26.1121 987.074 26.1121 Q996.229 26.1121 1001.54 32.0264 Q1006.88 37.9003 1006.88 48.0275 M999.429 45.84 Q999.348 39.7232 995.986 36.0774 Q992.664 32.4315 987.155 32.4315 Q980.916 32.4315 977.149 35.9558 Q973.422 39.4801 972.855 45.8805 L999.429 45.84 M992.259 6.22219 L1000.32 6.22219 L987.114 21.4536 L980.916 21.4536 L992.259 6.22219 Z" fill="#000000" fill-rule="nonzero" fill-opacity="1" /><path clip-path="url(#clip720)" d="M1056.83 45.1919 L1056.83 72.576 L1049.38 72.576 L1049.38 45.4349 Q1049.38 38.994 1046.87 35.7938 Q1044.35 32.5936 1039.33 32.5936 Q1033.29 32.5936 1029.81 36.4419 Q1026.33 40.2903 1026.33 46.9338 L1026.33 72.576 L1018.83 72.576 L1018.83 27.2059 L1026.33 27.2059 L1026.33 34.2544 Q1029 30.163 1032.61 28.1376 Q1036.25 26.1121 1040.99 26.1121 Q1048.81 26.1121 1052.82 30.9732 Q1056.83 35.7938 1056.83 45.1919 Z" fill="#000000" fill-rule="nonzero" fill-opacity="1" /><path clip-path="url(#clip720)" d="M1090.57 76.7889 Q1087.41 84.8907 1084.42 87.3618 Q1081.42 89.8329 1076.4 89.8329 L1070.44 89.8329 L1070.44 83.5945 L1074.82 83.5945 Q1077.9 83.5945 1079.6 82.1361 Q1081.3 80.6778 1083.36 75.2496 L1084.7 71.8468 L1066.35 27.2059 L1074.25 27.2059 L1088.43 62.6918 L1102.61 27.2059 L1110.5 27.2059 L1090.57 76.7889 Z" fill="#000000" fill-rule="nonzero" fill-opacity="1" /><path clip-path="url(#clip720)" d="M1120.79 27.2059 L1128.25 27.2059 L1128.25 72.576 L1120.79 72.576 L1120.79 27.2059 M1120.79 9.54393 L1128.25 9.54393 L1128.25 18.9825 L1120.79 18.9825 L1120.79 9.54393 Z" fill="#000000" fill-rule="nonzero" fill-opacity="1" /><path clip-path="url(#clip720)" d="M1200.07 49.3643 Q1200.07 41.2625 1196.71 36.8065 Q1193.39 32.3505 1187.35 32.3505 Q1181.36 32.3505 1177.99 36.8065 Q1174.67 41.2625 1174.67 49.3643 Q1174.67 57.4256 1177.99 61.8816 Q1181.36 66.3376 1187.35 66.3376 Q1193.39 66.3376 1196.71 61.8816 Q1200.07 57.4256 1200.07 49.3643 M1207.52 66.9452 Q1207.52 78.5308 1202.38 84.1616 Q1197.23 89.8329 1186.62 89.8329 Q1182.69 89.8329 1179.21 89.2252 Q1175.72 88.6581 1172.44 87.4428 L1172.44 80.1917 Q1175.72 81.9741 1178.92 82.8248 Q1182.12 83.6755 1185.45 83.6755 Q1192.78 83.6755 1196.42 79.8271 Q1200.07 76.0193 1200.07 68.282 L1200.07 64.5957 Q1197.76 68.6061 1194.16 70.5911 Q1190.55 72.576 1185.53 72.576 Q1177.18 72.576 1172.08 66.2161 Q1166.97 59.8562 1166.97 49.3643 Q1166.97 38.832 1172.08 32.472 Q1177.18 26.1121 1185.53 26.1121 Q1190.55 26.1121 1194.16 28.0971 Q1197.76 30.082 1200.07 34.0924 L1200.07 27.2059 L1207.52 27.2059 L1207.52 66.9452 Z" fill="#000000" fill-rule="nonzero" fill-opacity="1" /><path clip-path="url(#clip720)" d="M1249.17 34.1734 Q1247.91 33.4443 1246.41 33.1202 Q1244.95 32.7556 1243.17 32.7556 Q1236.85 32.7556 1233.45 36.8875 Q1230.09 40.9789 1230.09 48.6757 L1230.09 72.576 L1222.59 72.576 L1222.59 27.2059 L1230.09 27.2059 L1230.09 34.2544 Q1232.44 30.1225 1236.2 28.1376 Q1239.97 26.1121 1245.36 26.1121 Q1246.13 26.1121 1247.06 26.2337 Q1247.99 26.3147 1249.13 26.5172 L1249.17 34.1734 Z" fill="#000000" fill-rule="nonzero" fill-opacity="1" /><path clip-path="url(#clip720)" d="M1277.6 49.7694 Q1268.57 49.7694 1265.09 51.8354 Q1261.6 53.9013 1261.6 58.8839 Q1261.6 62.8538 1264.2 65.2034 Q1266.83 67.5124 1271.33 67.5124 Q1277.52 67.5124 1281.25 63.1374 Q1285.02 58.7219 1285.02 51.4303 L1285.02 49.7694 L1277.6 49.7694 M1292.47 46.6907 L1292.47 72.576 L1285.02 72.576 L1285.02 65.6895 Q1282.47 69.8214 1278.66 71.8063 Q1274.85 73.7508 1269.34 73.7508 Q1262.37 73.7508 1258.24 69.8619 Q1254.15 65.9325 1254.15 59.3701 Q1254.15 51.7138 1259.25 47.825 Q1264.4 43.9361 1274.57 43.9361 L1285.02 43.9361 L1285.02 43.2069 Q1285.02 38.0623 1281.62 35.2672 Q1278.25 32.4315 1272.14 32.4315 Q1268.25 32.4315 1264.56 33.3632 Q1260.87 34.295 1257.47 36.1584 L1257.47 29.2718 Q1261.56 27.692 1265.41 26.9223 Q1269.26 26.1121 1272.91 26.1121 Q1282.75 26.1121 1287.61 31.2163 Q1292.47 36.3204 1292.47 46.6907 Z" fill="#000000" fill-rule="nonzero" fill-opacity="1" /><path clip-path="url(#clip720)" d="M1315.04 65.7705 L1315.04 89.8329 L1307.54 89.8329 L1307.54 27.2059 L1315.04 27.2059 L1315.04 34.0924 Q1317.38 30.0415 1320.95 28.0971 Q1324.55 26.1121 1329.54 26.1121 Q1337.8 26.1121 1342.95 32.6746 Q1348.13 39.2371 1348.13 49.9314 Q1348.13 60.6258 1342.95 67.1883 Q1337.8 73.7508 1329.54 73.7508 Q1324.55 73.7508 1320.95 71.8063 Q1317.38 69.8214 1315.04 65.7705 M1340.39 49.9314 Q1340.39 41.7081 1336.99 37.0496 Q1333.63 32.3505 1327.71 32.3505 Q1321.8 32.3505 1318.4 37.0496 Q1315.04 41.7081 1315.04 49.9314 Q1315.04 58.1548 1318.4 62.8538 Q1321.8 67.5124 1327.71 67.5124 Q1333.63 67.5124 1336.99 62.8538 Q1340.39 58.1548 1340.39 49.9314 Z" fill="#000000" fill-rule="nonzero" fill-opacity="1" /><path clip-path="url(#clip720)" d="M1398.2 45.1919 L1398.2 72.576 L1390.75 72.576 L1390.75 45.4349 Q1390.75 38.994 1388.23 35.7938 Q1385.72 32.5936 1380.7 32.5936 Q1374.66 32.5936 1371.18 36.4419 Q1367.7 40.2903 1367.7 46.9338 L1367.7 72.576 L1360.2 72.576 L1360.2 9.54393 L1367.7 9.54393 L1367.7 34.2544 Q1370.37 30.163 1373.98 28.1376 Q1377.62 26.1121 1382.36 26.1121 Q1390.18 26.1121 1394.19 30.9732 Q1398.2 35.7938 1398.2 45.1919 Z" fill="#000000" fill-rule="nonzero" fill-opacity="1" /><path clip-path="url(#clip720)" d="M1441.99 28.5427 L1441.99 35.5912 Q1438.83 33.9709 1435.43 33.1607 Q1432.03 32.3505 1428.38 32.3505 Q1422.83 32.3505 1420.03 34.0519 Q1417.28 35.7533 1417.28 39.156 Q1417.28 41.7486 1419.26 43.2475 Q1421.25 44.7058 1427.25 46.0426 L1429.8 46.6097 Q1437.74 48.3111 1441.06 51.4303 Q1444.42 54.509 1444.42 60.0587 Q1444.42 66.3781 1439.4 70.0644 Q1434.42 73.7508 1425.67 73.7508 Q1422.02 73.7508 1418.05 73.0216 Q1414.12 72.3329 1409.75 70.9151 L1409.75 63.2184 Q1413.88 65.3654 1417.89 66.4591 Q1421.9 67.5124 1425.83 67.5124 Q1431.09 67.5124 1433.93 65.73 Q1436.76 63.9071 1436.76 60.6258 Q1436.76 57.5877 1434.7 55.9673 Q1432.67 54.3469 1425.75 52.8481 L1423.15 52.2405 Q1416.23 50.7821 1413.15 47.7845 Q1410.07 44.7463 1410.07 39.4801 Q1410.07 33.0797 1414.61 29.5959 Q1419.14 26.1121 1427.49 26.1121 Q1431.62 26.1121 1435.27 26.7198 Q1438.91 27.3274 1441.99 28.5427 Z" fill="#000000" fill-rule="nonzero" fill-opacity="1" /><polyline clip-path="url(#clip722)" style="stroke:#00bfff; stroke-linecap:round; stroke-linejoin:round; stroke-width:8; stroke-opacity:1; fill:none" points="248.112,1143.68 280.133,1126.45 312.153,1102.01 344.174,1081.98 376.194,1065.95 408.215,1042.32 440.236,1029.5 472.256,1015.47 504.277,999.049 536.297,966.999 568.318,930.942 600.339,926.535 632.359,902.898 664.38,874.053 696.401,854.823 728.421,840 760.442,821.571 792.462,801.139 824.483,782.309 856.504,762.278 888.524,744.249 920.545,727.423 952.566,709.795 984.586,721.814 1016.61,670.934 1048.63,646.496 1080.65,622.458 1112.67,593.613 1144.69,582.796 1176.71,571.178 1208.73,528.711 1240.75,509.882 1272.77,515.49 1304.79,504.273 1336.81,447.384 1368.83,464.21 1400.85,428.554 1432.87,423.746 1464.9,370.463 1496.92,379.677 1528.94,364.854 1560.96,340.416 1592.98,315.577 1625,291.539 1657.02,275.113 1689.04,243.063 1721.06,215.82 1753.08,209.811 1785.1,199.795 1817.12,192.984 1849.14,150.518 "/>
<polyline clip-path="url(#clip720)" style="stroke:#000000; stroke-linecap:round; stroke-linejoin:round; stroke-width:4; stroke-opacity:1; fill:none" points="1897.17,1173.47 1897.17,120.723 "/>
<polyline clip-path="url(#clip720)" style="stroke:#000000; stroke-linecap:round; stroke-linejoin:round; stroke-width:4; stroke-opacity:1; fill:none" points="1897.17,1143.68 1878.28,1143.68 "/>
<polyline clip-path="url(#clip720)" style="stroke:#000000; stroke-linecap:round; stroke-linejoin:round; stroke-width:4; stroke-opacity:1; fill:none" points="1897.17,944.365 1878.28,944.365 "/>
<polyline clip-path="url(#clip720)" style="stroke:#000000; stroke-linecap:round; stroke-linejoin:round; stroke-width:4; stroke-opacity:1; fill:none" points="1897.17,745.054 1878.28,745.054 "/>
<polyline clip-path="url(#clip720)" style="stroke:#000000; stroke-linecap:round; stroke-linejoin:round; stroke-width:4; stroke-opacity:1; fill:none" points="1897.17,545.742 1878.28,545.742 "/>
<polyline clip-path="url(#clip720)" style="stroke:#000000; stroke-linecap:round; stroke-linejoin:round; stroke-width:4; stroke-opacity:1; fill:none" points="1897.17,346.431 1878.28,346.431 "/>
<polyline clip-path="url(#clip720)" style="stroke:#000000; stroke-linecap:round; stroke-linejoin:round; stroke-width:4; stroke-opacity:1; fill:none" points="1897.17,147.12 1878.28,147.12 "/>
<path clip-path="url(#clip720)" d="M1940.8 1129.47 Q1937.19 1129.47 1935.36 1133.04 Q1933.55 1136.58 1933.55 1143.71 Q1933.55 1150.82 1935.36 1154.38 Q1937.19 1157.92 1940.8 1157.92 Q1944.43 1157.92 1946.24 1154.38 Q1948.07 1150.82 1948.07 1143.71 Q1948.07 1136.58 1946.24 1133.04 Q1944.43 1129.47 1940.8 1129.47 M1940.8 1125.77 Q1946.61 1125.77 1949.66 1130.38 Q1952.74 1134.96 1952.74 1143.71 Q1952.74 1152.44 1949.66 1157.04 Q1946.61 1161.63 1940.8 1161.63 Q1934.99 1161.63 1931.91 1157.04 Q1928.85 1152.44 1928.85 1143.71 Q1928.85 1134.96 1931.91 1130.38 Q1934.99 1125.77 1940.8 1125.77 Z" fill="#000000" fill-rule="nonzero" fill-opacity="1" /><path clip-path="url(#clip720)" d="M1960.96 1155.08 L1965.84 1155.08 L1965.84 1160.96 L1960.96 1160.96 L1960.96 1155.08 Z" fill="#000000" fill-rule="nonzero" fill-opacity="1" /><path clip-path="url(#clip720)" d="M1986.03 1129.47 Q1982.42 1129.47 1980.59 1133.04 Q1978.78 1136.58 1978.78 1143.71 Q1978.78 1150.82 1980.59 1154.38 Q1982.42 1157.92 1986.03 1157.92 Q1989.66 1157.92 1991.47 1154.38 Q1993.3 1150.82 1993.3 1143.71 Q1993.3 1136.58 1991.47 1133.04 Q1989.66 1129.47 1986.03 1129.47 M1986.03 1125.77 Q1991.84 1125.77 1994.9 1130.38 Q1997.97 1134.96 1997.97 1143.71 Q1997.97 1152.44 1994.9 1157.04 Q1991.84 1161.63 1986.03 1161.63 Q1980.22 1161.63 1977.14 1157.04 Q1974.08 1152.44 1974.08 1143.71 Q1974.08 1134.96 1977.14 1130.38 Q1980.22 1125.77 1986.03 1125.77 Z" fill="#000000" fill-rule="nonzero" fill-opacity="1" /><path clip-path="url(#clip720)" d="M1940.8 930.164 Q1937.19 930.164 1935.36 933.728 Q1933.55 937.27 1933.55 944.4 Q1933.55 951.506 1935.36 955.071 Q1937.19 958.612 1940.8 958.612 Q1944.43 958.612 1946.24 955.071 Q1948.07 951.506 1948.07 944.4 Q1948.07 937.27 1946.24 933.728 Q1944.43 930.164 1940.8 930.164 M1940.8 926.46 Q1946.61 926.46 1949.66 931.066 Q1952.74 935.65 1952.74 944.4 Q1952.74 953.126 1949.66 957.733 Q1946.61 962.316 1940.8 962.316 Q1934.99 962.316 1931.91 957.733 Q1928.85 953.126 1928.85 944.4 Q1928.85 935.65 1931.91 931.066 Q1934.99 926.46 1940.8 926.46 Z" fill="#000000" fill-rule="nonzero" fill-opacity="1" /><path clip-path="url(#clip720)" d="M1960.96 955.765 L1965.84 955.765 L1965.84 961.645 L1960.96 961.645 L1960.96 955.765 Z" fill="#000000" fill-rule="nonzero" fill-opacity="1" /><path clip-path="url(#clip720)" d="M1976.84 957.71 L1984.48 957.71 L1984.48 931.344 L1976.17 933.011 L1976.17 928.751 L1984.43 927.085 L1989.11 927.085 L1989.11 957.71 L1996.75 957.71 L1996.75 961.645 L1976.84 961.645 L1976.84 957.71 Z" fill="#000000" fill-rule="nonzero" fill-opacity="1" /><path clip-path="url(#clip720)" d="M1940.8 730.852 Q1937.19 730.852 1935.36 734.417 Q1933.55 737.959 1933.55 745.088 Q1933.55 752.195 1935.36 755.76 Q1937.19 759.301 1940.8 759.301 Q1944.43 759.301 1946.24 755.76 Q1948.07 752.195 1948.07 745.088 Q1948.07 737.959 1946.24 734.417 Q1944.43 730.852 1940.8 730.852 M1940.8 727.149 Q1946.61 727.149 1949.66 731.755 Q1952.74 736.338 1952.74 745.088 Q1952.74 753.815 1949.66 758.422 Q1946.61 763.005 1940.8 763.005 Q1934.99 763.005 1931.91 758.422 Q1928.85 753.815 1928.85 745.088 Q1928.85 736.338 1931.91 731.755 Q1934.99 727.149 1940.8 727.149 Z" fill="#000000" fill-rule="nonzero" fill-opacity="1" /><path clip-path="url(#clip720)" d="M1960.96 756.454 L1965.84 756.454 L1965.84 762.334 L1960.96 762.334 L1960.96 756.454 Z" fill="#000000" fill-rule="nonzero" fill-opacity="1" /><path clip-path="url(#clip720)" d="M1980.06 758.398 L1996.38 758.398 L1996.38 762.334 L1974.43 762.334 L1974.43 758.398 Q1977.09 755.644 1981.68 751.014 Q1986.28 746.362 1987.46 745.019 Q1989.71 742.496 1990.59 740.76 Q1991.49 739 1991.49 737.311 Q1991.49 734.556 1989.55 732.82 Q1987.63 731.084 1984.52 731.084 Q1982.33 731.084 1979.87 731.848 Q1977.44 732.612 1974.66 734.162 L1974.66 729.44 Q1977.49 728.306 1979.94 727.727 Q1982.4 727.149 1984.43 727.149 Q1989.8 727.149 1993 729.834 Q1996.19 732.519 1996.19 737.01 Q1996.19 739.139 1995.38 741.061 Q1994.59 742.959 1992.49 745.551 Q1991.91 746.223 1988.81 749.44 Q1985.71 752.635 1980.06 758.398 Z" fill="#000000" fill-rule="nonzero" fill-opacity="1" /><path clip-path="url(#clip720)" d="M1940.8 531.541 Q1937.19 531.541 1935.36 535.106 Q1933.55 538.648 1933.55 545.777 Q1933.55 552.884 1935.36 556.448 Q1937.19 559.99 1940.8 559.99 Q1944.43 559.99 1946.24 556.448 Q1948.07 552.884 1948.07 545.777 Q1948.07 538.648 1946.24 535.106 Q1944.43 531.541 1940.8 531.541 M1940.8 527.837 Q1946.61 527.837 1949.66 532.444 Q1952.74 537.027 1952.74 545.777 Q1952.74 554.504 1949.66 559.11 Q1946.61 563.694 1940.8 563.694 Q1934.99 563.694 1931.91 559.11 Q1928.85 554.504 1928.85 545.777 Q1928.85 537.027 1931.91 532.444 Q1934.99 527.837 1940.8 527.837 Z" fill="#000000" fill-rule="nonzero" fill-opacity="1" /><path clip-path="url(#clip720)" d="M1960.96 557.143 L1965.84 557.143 L1965.84 563.022 L1960.96 563.022 L1960.96 557.143 Z" fill="#000000" fill-rule="nonzero" fill-opacity="1" /><path clip-path="url(#clip720)" d="M1990.2 544.388 Q1993.55 545.106 1995.43 547.374 Q1997.33 549.643 1997.33 552.976 Q1997.33 558.092 1993.81 560.893 Q1990.29 563.694 1983.81 563.694 Q1981.63 563.694 1979.32 563.254 Q1977.02 562.837 1974.57 561.981 L1974.57 557.467 Q1976.52 558.601 1978.83 559.18 Q1981.15 559.759 1983.67 559.759 Q1988.07 559.759 1990.36 558.022 Q1992.67 556.286 1992.67 552.976 Q1992.67 549.921 1990.52 548.208 Q1988.39 546.472 1984.57 546.472 L1980.54 546.472 L1980.54 542.629 L1984.76 542.629 Q1988.21 542.629 1990.03 541.263 Q1991.86 539.874 1991.86 537.282 Q1991.86 534.62 1989.96 533.208 Q1988.09 531.773 1984.57 531.773 Q1982.65 531.773 1980.45 532.189 Q1978.25 532.606 1975.61 533.486 L1975.61 529.319 Q1978.27 528.578 1980.59 528.208 Q1982.93 527.837 1984.99 527.837 Q1990.31 527.837 1993.41 530.268 Q1996.52 532.675 1996.52 536.796 Q1996.52 539.666 1994.87 541.657 Q1993.23 543.624 1990.2 544.388 Z" fill="#000000" fill-rule="nonzero" fill-opacity="1" /><path clip-path="url(#clip720)" d="M1940.8 332.23 Q1937.19 332.23 1935.36 335.795 Q1933.55 339.336 1933.55 346.466 Q1933.55 353.572 1935.36 357.137 Q1937.19 360.679 1940.8 360.679 Q1944.43 360.679 1946.24 357.137 Q1948.07 353.572 1948.07 346.466 Q1948.07 339.336 1946.24 335.795 Q1944.43 332.23 1940.8 332.23 M1940.8 328.526 Q1946.61 328.526 1949.66 333.133 Q1952.74 337.716 1952.74 346.466 Q1952.74 355.193 1949.66 359.799 Q1946.61 364.383 1940.8 364.383 Q1934.99 364.383 1931.91 359.799 Q1928.85 355.193 1928.85 346.466 Q1928.85 337.716 1931.91 333.133 Q1934.99 328.526 1940.8 328.526 Z" fill="#000000" fill-rule="nonzero" fill-opacity="1" /><path clip-path="url(#clip720)" d="M1960.96 357.832 L1965.84 357.832 L1965.84 363.711 L1960.96 363.711 L1960.96 357.832 Z" fill="#000000" fill-rule="nonzero" fill-opacity="1" /><path clip-path="url(#clip720)" d="M1988.88 333.225 L1977.07 351.674 L1988.88 351.674 L1988.88 333.225 M1987.65 329.151 L1993.53 329.151 L1993.53 351.674 L1998.46 351.674 L1998.46 355.563 L1993.53 355.563 L1993.53 363.711 L1988.88 363.711 L1988.88 355.563 L1973.27 355.563 L1973.27 351.049 L1987.65 329.151 Z" fill="#000000" fill-rule="nonzero" fill-opacity="1" /><path clip-path="url(#clip720)" d="M1940.8 132.919 Q1937.19 132.919 1935.36 136.484 Q1933.55 140.025 1933.55 147.155 Q1933.55 154.261 1935.36 157.826 Q1937.19 161.368 1940.8 161.368 Q1944.43 161.368 1946.24 157.826 Q1948.07 154.261 1948.07 147.155 Q1948.07 140.025 1946.24 136.484 Q1944.43 132.919 1940.8 132.919 M1940.8 129.215 Q1946.61 129.215 1949.66 133.822 Q1952.74 138.405 1952.74 147.155 Q1952.74 155.882 1949.66 160.488 Q1946.61 165.071 1940.8 165.071 Q1934.99 165.071 1931.91 160.488 Q1928.85 155.882 1928.85 147.155 Q1928.85 138.405 1931.91 133.822 Q1934.99 129.215 1940.8 129.215 Z" fill="#000000" fill-rule="nonzero" fill-opacity="1" /><path clip-path="url(#clip720)" d="M1960.96 158.521 L1965.84 158.521 L1965.84 164.4 L1960.96 164.4 L1960.96 158.521 Z" fill="#000000" fill-rule="nonzero" fill-opacity="1" /><path clip-path="url(#clip720)" d="M1976.08 129.84 L1994.43 129.84 L1994.43 133.775 L1980.36 133.775 L1980.36 142.247 Q1981.38 141.9 1982.4 141.738 Q1983.41 141.553 1984.43 141.553 Q1990.22 141.553 1993.6 144.724 Q1996.98 147.896 1996.98 153.312 Q1996.98 158.891 1993.51 161.993 Q1990.03 165.071 1983.71 165.071 Q1981.54 165.071 1979.27 164.701 Q1977.02 164.331 1974.62 163.59 L1974.62 158.891 Q1976.7 160.025 1978.92 160.581 Q1981.15 161.136 1983.62 161.136 Q1987.63 161.136 1989.96 159.03 Q1992.3 156.923 1992.3 153.312 Q1992.3 149.701 1989.96 147.595 Q1987.63 145.488 1983.62 145.488 Q1981.75 145.488 1979.87 145.905 Q1978.02 146.321 1976.08 147.201 L1976.08 129.84 Z" fill="#000000" fill-rule="nonzero" fill-opacity="1" /><path clip-path="url(#clip720)" d="M2069.24 1119.83 Q2069.24 1126.93 2070.87 1129.67 Q2072.49 1132.4 2076.41 1132.4 Q2079.52 1132.4 2081.37 1130.37 Q2083.19 1128.3 2083.19 1124.76 Q2083.19 1119.89 2079.75 1116.97 Q2076.28 1114.01 2070.55 1114.01 L2069.24 1114.01 L2069.24 1119.83 M2066.83 1108.15 L2087.16 1108.15 L2087.16 1114.01 L2081.75 1114.01 Q2085 1116.01 2086.56 1119 Q2088.09 1121.99 2088.09 1126.32 Q2088.09 1131.8 2085.03 1135.04 Q2081.94 1138.26 2076.79 1138.26 Q2070.77 1138.26 2067.72 1134.25 Q2064.66 1130.21 2064.66 1122.22 L2064.66 1114.01 L2064.09 1114.01 Q2060.05 1114.01 2057.85 1116.68 Q2055.62 1119.32 2055.62 1124.13 Q2055.62 1127.18 2056.35 1130.08 Q2057.09 1132.98 2058.55 1135.65 L2053.14 1135.65 Q2051.9 1132.43 2051.29 1129.41 Q2050.66 1126.39 2050.66 1123.52 Q2050.66 1115.79 2054.67 1111.97 Q2058.68 1108.15 2066.83 1108.15 Z" fill="#000000" fill-rule="nonzero" fill-opacity="1" /><path clip-path="url(#clip720)" d="M2051.52 1100.29 L2051.52 1094.08 L2081.43 1082.94 L2051.52 1071.8 L2051.52 1065.59 L2087.16 1078.96 L2087.16 1086.92 L2051.52 1100.29 Z" fill="#000000" fill-rule="nonzero" fill-opacity="1" /><path clip-path="url(#clip720)" d="M2067.88 1027.02 L2070.74 1027.02 L2070.74 1053.95 Q2076.79 1053.56 2079.97 1050.32 Q2083.12 1047.04 2083.12 1041.21 Q2083.12 1037.84 2082.29 1034.69 Q2081.47 1031.51 2079.81 1028.39 L2085.35 1028.39 Q2086.69 1031.54 2087.39 1034.85 Q2088.09 1038.16 2088.09 1041.56 Q2088.09 1050.09 2083.12 1055.09 Q2078.16 1060.06 2069.69 1060.06 Q2060.94 1060.06 2055.81 1055.35 Q2050.66 1050.6 2050.66 1042.58 Q2050.66 1035.39 2055.3 1031.22 Q2059.92 1027.02 2067.88 1027.02 M2066.16 1032.87 Q2061.35 1032.94 2058.49 1035.58 Q2055.62 1038.19 2055.62 1042.52 Q2055.62 1047.42 2058.39 1050.38 Q2061.16 1053.31 2066.19 1053.75 L2066.16 1032.87 Z" fill="#000000" fill-rule="nonzero" fill-opacity="1" /><path clip-path="url(#clip720)" d="M2056.99 996.749 Q2056.42 997.736 2056.16 998.914 Q2055.88 1000.06 2055.88 1001.46 Q2055.88 1006.43 2059.12 1009.1 Q2062.34 1011.74 2068.39 1011.74 L2087.16 1011.74 L2087.16 1017.63 L2051.52 1017.63 L2051.52 1011.74 L2057.05 1011.74 Q2053.81 1009.89 2052.25 1006.93 Q2050.66 1003.97 2050.66 999.741 Q2050.66 999.136 2050.75 998.404 Q2050.82 997.672 2050.97 996.781 L2056.99 996.749 Z" fill="#000000" fill-rule="nonzero" fill-opacity="1" /><path clip-path="url(#clip720)" d="M2069.24 974.406 Q2069.24 981.503 2070.87 984.241 Q2072.49 986.978 2076.41 986.978 Q2079.52 986.978 2081.37 984.941 Q2083.19 982.872 2083.19 979.339 Q2083.19 974.469 2079.75 971.541 Q2076.28 968.581 2070.55 968.581 L2069.24 968.581 L2069.24 974.406 M2066.83 962.725 L2087.16 962.725 L2087.16 968.581 L2081.75 968.581 Q2085 970.586 2086.56 973.578 Q2088.09 976.57 2088.09 980.899 Q2088.09 986.373 2085.03 989.62 Q2081.94 992.834 2076.79 992.834 Q2070.77 992.834 2067.72 988.824 Q2064.66 984.782 2064.66 976.793 L2064.66 968.581 L2064.09 968.581 Q2060.05 968.581 2057.85 971.255 Q2055.62 973.896 2055.62 978.702 Q2055.62 981.758 2056.35 984.654 Q2057.09 987.551 2058.55 990.224 L2053.14 990.224 Q2051.9 987.01 2051.29 983.986 Q2050.66 980.962 2050.66 978.098 Q2050.66 970.363 2054.67 966.544 Q2058.68 962.725 2066.83 962.725 Z" fill="#000000" fill-rule="nonzero" fill-opacity="1" /><path clip-path="url(#clip720)" d="M2068.93 927.204 Q2062.56 927.204 2059.06 929.846 Q2055.56 932.456 2055.56 937.198 Q2055.56 941.909 2059.06 944.55 Q2062.56 947.16 2068.93 947.16 Q2075.26 947.16 2078.76 944.55 Q2082.26 941.909 2082.26 937.198 Q2082.26 932.456 2078.76 929.846 Q2075.26 927.204 2068.93 927.204 M2082.74 921.347 Q2091.84 921.347 2096.27 925.39 Q2100.72 929.432 2100.72 937.771 Q2100.72 940.858 2100.25 943.596 Q2099.8 946.333 2098.84 948.911 L2093.15 948.911 Q2094.55 946.333 2095.22 943.818 Q2095.88 941.304 2095.88 938.694 Q2095.88 932.933 2092.86 930.068 Q2089.87 927.204 2083.79 927.204 L2080.89 927.204 Q2084.04 929.018 2085.6 931.851 Q2087.16 934.684 2087.16 938.63 Q2087.16 945.187 2082.17 949.197 Q2077.17 953.208 2068.93 953.208 Q2060.65 953.208 2055.65 949.197 Q2050.66 945.187 2050.66 938.63 Q2050.66 934.684 2052.22 931.851 Q2053.78 929.018 2056.93 927.204 L2051.52 927.204 L2051.52 921.347 L2082.74 921.347 Z" fill="#000000" fill-rule="nonzero" fill-opacity="1" /><path clip-path="url(#clip720)" d="M2067.88 878.793 L2070.74 878.793 L2070.74 905.72 Q2076.79 905.338 2079.97 902.091 Q2083.12 898.813 2083.12 892.988 Q2083.12 889.614 2082.29 886.463 Q2081.47 883.281 2079.81 880.161 L2085.35 880.161 Q2086.69 883.312 2087.39 886.623 Q2088.09 889.933 2088.09 893.338 Q2088.09 901.868 2083.12 906.865 Q2078.16 911.831 2069.69 911.831 Q2060.94 911.831 2055.81 907.12 Q2050.66 902.378 2050.66 894.357 Q2050.66 887.164 2055.3 882.994 Q2059.92 878.793 2067.88 878.793 M2066.16 884.649 Q2061.35 884.713 2058.49 887.355 Q2055.62 889.965 2055.62 894.293 Q2055.62 899.195 2058.39 902.155 Q2061.16 905.083 2066.19 905.529 L2066.16 884.649 Z" fill="#000000" fill-rule="nonzero" fill-opacity="1" /><path clip-path="url(#clip720)" d="M2052.88 822.806 L2058.36 822.806 Q2056.99 825.289 2056.32 827.803 Q2055.62 830.286 2055.62 832.832 Q2055.62 838.53 2059.25 841.681 Q2062.85 844.832 2069.37 844.832 Q2075.9 844.832 2079.52 841.681 Q2083.12 838.53 2083.12 832.832 Q2083.12 830.286 2082.45 827.803 Q2081.75 825.289 2080.38 822.806 L2085.8 822.806 Q2086.94 825.257 2087.51 827.899 Q2088.09 830.509 2088.09 833.469 Q2088.09 841.521 2083.03 846.264 Q2077.97 851.006 2069.37 851.006 Q2060.65 851.006 2055.65 846.232 Q2050.66 841.426 2050.66 833.087 Q2050.66 830.382 2051.23 827.803 Q2051.77 825.225 2052.88 822.806 Z" fill="#000000" fill-rule="nonzero" fill-opacity="1" /><path clip-path="url(#clip720)" d="M2037.64 812.621 L2037.64 806.765 L2087.16 806.765 L2087.16 812.621 L2037.64 812.621 Z" fill="#000000" fill-rule="nonzero" fill-opacity="1" /><path clip-path="url(#clip720)" d="M2073.1 795.115 L2051.52 795.115 L2051.52 789.259 L2072.87 789.259 Q2077.93 789.259 2080.48 787.286 Q2082.99 785.312 2082.99 781.366 Q2082.99 776.623 2079.97 773.886 Q2076.95 771.117 2071.73 771.117 L2051.52 771.117 L2051.52 765.26 L2087.16 765.26 L2087.16 771.117 L2081.69 771.117 Q2084.94 773.249 2086.53 776.082 Q2088.09 778.883 2088.09 782.607 Q2088.09 788.75 2084.27 791.933 Q2080.45 795.115 2073.1 795.115 M2050.66 780.379 L2050.66 780.379 Z" fill="#000000" fill-rule="nonzero" fill-opacity="1" /><path clip-path="url(#clip720)" d="M2052.57 730.472 L2058.1 730.472 Q2056.83 732.954 2056.19 735.628 Q2055.56 738.302 2055.56 741.166 Q2055.56 745.527 2056.89 747.723 Q2058.23 749.887 2060.91 749.887 Q2062.94 749.887 2064.12 748.328 Q2065.27 746.768 2066.32 742.057 L2066.76 740.052 Q2068.1 733.814 2070.55 731.204 Q2072.97 728.562 2077.33 728.562 Q2082.29 728.562 2085.19 732.509 Q2088.09 736.424 2088.09 743.299 Q2088.09 746.163 2087.51 749.282 Q2086.97 752.37 2085.86 755.807 L2079.81 755.807 Q2081.5 752.561 2082.36 749.41 Q2083.19 746.259 2083.19 743.171 Q2083.19 739.034 2081.78 736.806 Q2080.35 734.578 2077.77 734.578 Q2075.39 734.578 2074.11 736.201 Q2072.84 737.792 2071.66 743.235 L2071.19 745.272 Q2070.04 750.715 2067.68 753.134 Q2065.3 755.553 2061.16 755.553 Q2056.13 755.553 2053.39 751.988 Q2050.66 748.423 2050.66 741.866 Q2050.66 738.62 2051.13 735.755 Q2051.61 732.891 2052.57 730.472 Z" fill="#000000" fill-rule="nonzero" fill-opacity="1" /><path clip-path="url(#clip720)" d="M2041.39 713.443 L2051.52 713.443 L2051.52 701.38 L2056.07 701.38 L2056.07 713.443 L2075.42 713.443 Q2079.78 713.443 2081.02 712.266 Q2082.26 711.056 2082.26 707.396 L2082.26 701.38 L2087.16 701.38 L2087.16 707.396 Q2087.16 714.176 2084.65 716.754 Q2082.1 719.332 2075.42 719.332 L2056.07 719.332 L2056.07 723.629 L2051.52 723.629 L2051.52 719.332 L2041.39 719.332 L2041.39 713.443 Z" fill="#000000" fill-rule="nonzero" fill-opacity="1" /><path clip-path="url(#clip720)" d="M2067.88 663.186 L2070.74 663.186 L2070.74 690.113 Q2076.79 689.731 2079.97 686.485 Q2083.12 683.206 2083.12 677.382 Q2083.12 674.008 2082.29 670.857 Q2081.47 667.674 2079.81 664.555 L2085.35 664.555 Q2086.69 667.706 2087.39 671.016 Q2088.09 674.326 2088.09 677.732 Q2088.09 686.262 2083.12 691.259 Q2078.16 696.224 2069.69 696.224 Q2060.94 696.224 2055.81 691.514 Q2050.66 686.771 2050.66 678.75 Q2050.66 671.557 2055.3 667.388 Q2059.92 663.186 2067.88 663.186 M2066.16 669.043 Q2061.35 669.106 2058.49 671.748 Q2055.62 674.358 2055.62 678.687 Q2055.62 683.588 2058.39 686.548 Q2061.16 689.477 2066.19 689.922 L2066.16 669.043 Z" fill="#000000" fill-rule="nonzero" fill-opacity="1" /><path clip-path="url(#clip720)" d="M2056.99 632.917 Q2056.42 633.904 2056.16 635.082 Q2055.88 636.227 2055.88 637.628 Q2055.88 642.593 2059.12 645.267 Q2062.34 647.909 2068.39 647.909 L2087.16 647.909 L2087.16 653.797 L2051.52 653.797 L2051.52 647.909 L2057.05 647.909 Q2053.81 646.062 2052.25 643.102 Q2050.66 640.142 2050.66 635.909 Q2050.66 635.304 2050.75 634.572 Q2050.82 633.84 2050.97 632.949 L2056.99 632.917 Z" fill="#000000" fill-rule="nonzero" fill-opacity="1" /><path clip-path="url(#clip720)" d="M2051.52 626.774 L2051.52 620.918 L2087.16 620.918 L2087.16 626.774 L2051.52 626.774 M2037.64 626.774 L2037.64 620.918 L2045.05 620.918 L2045.05 626.774 L2037.64 626.774 Z" fill="#000000" fill-rule="nonzero" fill-opacity="1" /><path clip-path="url(#clip720)" d="M2065.65 579.032 L2087.16 579.032 L2087.16 584.888 L2065.84 584.888 Q2060.78 584.888 2058.26 586.861 Q2055.75 588.835 2055.75 592.782 Q2055.75 597.524 2058.77 600.261 Q2061.8 602.998 2067.02 602.998 L2087.16 602.998 L2087.16 608.887 L2051.52 608.887 L2051.52 602.998 L2057.05 602.998 Q2053.84 600.898 2052.25 598.065 Q2050.66 595.2 2050.66 591.477 Q2050.66 585.334 2054.48 582.183 Q2058.26 579.032 2065.65 579.032 Z" fill="#000000" fill-rule="nonzero" fill-opacity="1" /><path clip-path="url(#clip720)" d="M2068.93 543.893 Q2062.56 543.893 2059.06 546.535 Q2055.56 549.145 2055.56 553.887 Q2055.56 558.598 2059.06 561.239 Q2062.56 563.849 2068.93 563.849 Q2075.26 563.849 2078.76 561.239 Q2082.26 558.598 2082.26 553.887 Q2082.26 549.145 2078.76 546.535 Q2075.26 543.893 2068.93 543.893 M2082.74 538.036 Q2091.84 538.036 2096.27 542.079 Q2100.72 546.121 2100.72 554.46 Q2100.72 557.547 2100.25 560.285 Q2099.8 563.022 2098.84 565.6 L2093.15 565.6 Q2094.55 563.022 2095.22 560.507 Q2095.88 557.993 2095.88 555.383 Q2095.88 549.622 2092.86 546.757 Q2089.87 543.893 2083.79 543.893 L2080.89 543.893 Q2084.04 545.707 2085.6 548.54 Q2087.16 551.373 2087.16 555.319 Q2087.16 561.876 2082.17 565.886 Q2077.17 569.897 2068.93 569.897 Q2060.65 569.897 2055.65 565.886 Q2050.66 561.876 2050.66 555.319 Q2050.66 551.373 2052.22 548.54 Q2053.78 545.707 2056.93 543.893 L2051.52 543.893 L2051.52 538.036 L2082.74 538.036 Z" fill="#000000" fill-rule="nonzero" fill-opacity="1" /><path clip-path="url(#clip720)" d="M2037.7 491.185 Q2045.02 495.45 2052.18 497.519 Q2059.35 499.588 2066.7 499.588 Q2074.05 499.588 2081.28 497.519 Q2088.47 495.418 2095.76 491.185 L2095.76 496.277 Q2088.28 501.052 2081.05 503.439 Q2073.83 505.794 2066.7 505.794 Q2059.6 505.794 2052.41 503.439 Q2045.21 501.083 2037.7 496.277 L2037.7 491.185 Z" fill="#000000" fill-rule="nonzero" fill-opacity="1" /><path clip-path="url(#clip720)" d="M2056.99 459.165 Q2056.42 460.152 2056.16 461.33 Q2055.88 462.475 2055.88 463.876 Q2055.88 468.841 2059.12 471.515 Q2062.34 474.157 2068.39 474.157 L2087.16 474.157 L2087.16 480.045 L2051.52 480.045 L2051.52 474.157 L2057.05 474.157 Q2053.81 472.311 2052.25 469.35 Q2050.66 466.39 2050.66 462.157 Q2050.66 461.552 2050.75 460.82 Q2050.82 460.088 2050.97 459.197 L2056.99 459.165 Z" fill="#000000" fill-rule="nonzero" fill-opacity="1" /><path clip-path="url(#clip720)" d="M2067.88 423.963 L2070.74 423.963 L2070.74 450.89 Q2076.79 450.508 2079.97 447.261 Q2083.12 443.983 2083.12 438.158 Q2083.12 434.785 2082.29 431.634 Q2081.47 428.451 2079.81 425.332 L2085.35 425.332 Q2086.69 428.483 2087.39 431.793 Q2088.09 435.103 2088.09 438.509 Q2088.09 447.039 2083.12 452.036 Q2078.16 457.001 2069.69 457.001 Q2060.94 457.001 2055.81 452.29 Q2050.66 447.548 2050.66 439.527 Q2050.66 432.334 2055.3 428.164 Q2059.92 423.963 2067.88 423.963 M2066.16 429.819 Q2061.35 429.883 2058.49 432.525 Q2055.62 435.135 2055.62 439.463 Q2055.62 444.365 2058.39 447.325 Q2061.16 450.253 2066.19 450.699 L2066.16 429.819 Z" fill="#000000" fill-rule="nonzero" fill-opacity="1" /><path clip-path="url(#clip720)" d="M2056.93 390.893 L2037.64 390.893 L2037.64 385.037 L2087.16 385.037 L2087.16 390.893 L2081.82 390.893 Q2085 392.739 2086.56 395.572 Q2088.09 398.373 2088.09 402.32 Q2088.09 408.781 2082.93 412.855 Q2077.77 416.897 2069.37 416.897 Q2060.97 416.897 2055.81 412.855 Q2050.66 408.781 2050.66 402.32 Q2050.66 398.373 2052.22 395.572 Q2053.74 392.739 2056.93 390.893 M2069.37 410.85 Q2075.83 410.85 2079.52 408.208 Q2083.19 405.534 2083.19 400.887 Q2083.19 396.24 2079.52 393.567 Q2075.83 390.893 2069.37 390.893 Q2062.91 390.893 2059.25 393.567 Q2055.56 396.24 2055.56 400.887 Q2055.56 405.534 2059.25 408.208 Q2062.91 410.85 2069.37 410.85 Z" fill="#000000" fill-rule="nonzero" fill-opacity="1" /><path clip-path="url(#clip720)" d="M2052.88 326.599 L2058.36 326.599 Q2056.99 329.082 2056.32 331.597 Q2055.62 334.079 2055.62 336.625 Q2055.62 342.323 2059.25 345.474 Q2062.85 348.625 2069.37 348.625 Q2075.9 348.625 2079.52 345.474 Q2083.12 342.323 2083.12 336.625 Q2083.12 334.079 2082.45 331.597 Q2081.75 329.082 2080.38 326.599 L2085.8 326.599 Q2086.94 329.05 2087.51 331.692 Q2088.09 334.302 2088.09 337.262 Q2088.09 345.315 2083.03 350.057 Q2077.97 354.8 2069.37 354.8 Q2060.65 354.8 2055.65 350.025 Q2050.66 345.219 2050.66 336.88 Q2050.66 334.175 2051.23 331.597 Q2051.77 329.018 2052.88 326.599 Z" fill="#000000" fill-rule="nonzero" fill-opacity="1" /><path clip-path="url(#clip720)" d="M2073.1 317.019 L2051.52 317.019 L2051.52 311.163 L2072.87 311.163 Q2077.93 311.163 2080.48 309.189 Q2082.99 307.216 2082.99 303.269 Q2082.99 298.527 2079.97 295.789 Q2076.95 293.02 2071.73 293.02 L2051.52 293.02 L2051.52 287.164 L2087.16 287.164 L2087.16 293.02 L2081.69 293.02 Q2084.94 295.153 2086.53 297.986 Q2088.09 300.787 2088.09 304.51 Q2088.09 310.653 2084.27 313.836 Q2080.45 317.019 2073.1 317.019 M2050.66 302.282 L2050.66 302.282 Z" fill="#000000" fill-rule="nonzero" fill-opacity="1" /><path clip-path="url(#clip720)" d="M2056.99 254.444 Q2056.42 255.431 2056.16 256.609 Q2055.88 257.754 2055.88 259.155 Q2055.88 264.12 2059.12 266.794 Q2062.34 269.435 2068.39 269.435 L2087.16 269.435 L2087.16 275.324 L2051.52 275.324 L2051.52 269.435 L2057.05 269.435 Q2053.81 267.589 2052.25 264.629 Q2050.66 261.669 2050.66 257.436 Q2050.66 256.831 2050.75 256.099 Q2050.82 255.367 2050.97 254.476 L2056.99 254.444 Z" fill="#000000" fill-rule="nonzero" fill-opacity="1" /><path clip-path="url(#clip720)" d="M2051.52 252.503 L2051.52 246.296 L2081.43 235.156 L2051.52 224.016 L2051.52 217.81 L2087.16 231.178 L2087.16 239.135 L2051.52 252.503 Z" fill="#000000" fill-rule="nonzero" fill-opacity="1" /><path clip-path="url(#clip720)" d="M2067.88 179.233 L2070.74 179.233 L2070.74 206.16 Q2076.79 205.778 2079.97 202.532 Q2083.12 199.254 2083.12 193.429 Q2083.12 190.055 2082.29 186.904 Q2081.47 183.721 2079.81 180.602 L2085.35 180.602 Q2086.69 183.753 2087.39 187.063 Q2088.09 190.373 2088.09 193.779 Q2088.09 202.309 2083.12 207.306 Q2078.16 212.271 2069.69 212.271 Q2060.94 212.271 2055.81 207.561 Q2050.66 202.818 2050.66 194.798 Q2050.66 187.604 2055.3 183.435 Q2059.92 179.233 2067.88 179.233 M2066.16 185.09 Q2061.35 185.153 2058.49 187.795 Q2055.62 190.405 2055.62 194.734 Q2055.62 199.635 2058.39 202.596 Q2061.16 205.524 2066.19 205.969 L2066.16 185.09 Z" fill="#000000" fill-rule="nonzero" fill-opacity="1" /><path clip-path="url(#clip720)" d="M2037.7 170.544 L2037.7 165.452 Q2045.21 160.677 2052.41 158.322 Q2059.6 155.935 2066.7 155.935 Q2073.83 155.935 2081.05 158.322 Q2088.28 160.677 2095.76 165.452 L2095.76 170.544 Q2088.47 166.311 2081.28 164.242 Q2074.05 162.141 2066.7 162.141 Q2059.35 162.141 2052.18 164.242 Q2045.02 166.311 2037.7 170.544 Z" fill="#000000" fill-rule="nonzero" fill-opacity="1" /><path clip-path="url(#clip720)" d="M652.834 12.096 L691.074 12.096 L691.074 18.9825 L661.017 18.9825 L661.017 36.8875 L689.819 36.8875 L689.819 43.7741 L661.017 43.7741 L661.017 65.6895 L691.803 65.6895 L691.803 72.576 L652.834 72.576 L652.834 12.096 Z" fill="#000000" fill-rule="nonzero" fill-opacity="1" /><path clip-path="url(#clip720)" d="M731.219 34.1734 Q729.963 33.4443 728.464 33.1202 Q727.006 32.7556 725.223 32.7556 Q718.904 32.7556 715.501 36.8875 Q712.139 40.9789 712.139 48.6757 L712.139 72.576 L704.645 72.576 L704.645 27.2059 L712.139 27.2059 L712.139 34.2544 Q714.489 30.1225 718.256 28.1376 Q722.023 26.1121 727.411 26.1121 Q728.181 26.1121 729.112 26.2337 Q730.044 26.3147 731.178 26.5172 L731.219 34.1734 Z" fill="#000000" fill-rule="nonzero" fill-opacity="1" /><path clip-path="url(#clip720)" d="M767.434 34.0924 L767.434 9.54393 L774.888 9.54393 L774.888 72.576 L767.434 72.576 L767.434 65.7705 Q765.084 69.8214 761.479 71.8063 Q757.914 73.7508 752.891 73.7508 Q744.668 73.7508 739.483 67.1883 Q734.338 60.6258 734.338 49.9314 Q734.338 39.2371 739.483 32.6746 Q744.668 26.1121 752.891 26.1121 Q757.914 26.1121 761.479 28.0971 Q765.084 30.0415 767.434 34.0924 M742.035 49.9314 Q742.035 58.1548 745.397 62.8538 Q748.8 67.5124 754.714 67.5124 Q760.628 67.5124 764.031 62.8538 Q767.434 58.1548 767.434 49.9314 Q767.434 41.7081 764.031 37.0496 Q760.628 32.3505 754.714 32.3505 Q748.8 32.3505 745.397 37.0496 Q742.035 41.7081 742.035 49.9314 Z" fill="#000000" fill-rule="nonzero" fill-opacity="1" /><path clip-path="url(#clip720)" d="M819.853 6.22219 L827.063 6.22219 L817.017 21.4536 L811.548 21.4536 L819.853 6.22219 M806.323 6.22219 L813.209 6.22219 L804.176 21.4536 L798.626 21.4536 L806.323 6.22219 M807.821 32.4315 Q801.826 32.4315 798.342 37.1306 Q794.858 41.7891 794.858 49.9314 Q794.858 58.0738 798.302 62.7728 Q801.786 67.4314 807.821 67.4314 Q813.776 67.4314 817.26 62.7323 Q820.744 58.0333 820.744 49.9314 Q820.744 41.8701 817.26 37.1711 Q813.776 32.4315 807.821 32.4315 M807.821 26.1121 Q817.544 26.1121 823.093 32.4315 Q828.643 38.7509 828.643 49.9314 Q828.643 61.0714 823.093 67.4314 Q817.544 73.7508 807.821 73.7508 Q798.059 73.7508 792.509 67.4314 Q787 61.0714 787 49.9314 Q787 38.7509 792.509 32.4315 Q798.059 26.1121 807.821 26.1121 Z" fill="#000000" fill-rule="nonzero" fill-opacity="1" /><path clip-path="url(#clip720)" d="M869.922 28.5427 L869.922 35.5912 Q866.762 33.9709 863.359 33.1607 Q859.956 32.3505 856.311 32.3505 Q850.761 32.3505 847.966 34.0519 Q845.211 35.7533 845.211 39.156 Q845.211 41.7486 847.196 43.2475 Q849.181 44.7058 855.176 46.0426 L857.728 46.6097 Q865.668 48.3111 868.99 51.4303 Q872.352 54.509 872.352 60.0587 Q872.352 66.3781 867.329 70.0644 Q862.347 73.7508 853.597 73.7508 Q849.951 73.7508 845.981 73.0216 Q842.051 72.3329 837.677 70.9151 L837.677 63.2184 Q841.808 65.3654 845.819 66.4591 Q849.829 67.5124 853.759 67.5124 Q859.025 67.5124 861.86 65.73 Q864.696 63.9071 864.696 60.6258 Q864.696 57.5877 862.63 55.9673 Q860.605 54.3469 853.678 52.8481 L851.085 52.2405 Q844.158 50.7821 841.079 47.7845 Q838.001 44.7463 838.001 39.4801 Q838.001 33.0797 842.538 29.5959 Q847.075 26.1121 855.419 26.1121 Q859.551 26.1121 863.197 26.7198 Q866.843 27.3274 869.922 28.5427 Z" fill="#000000" fill-rule="nonzero" fill-opacity="1" /><path clip-path="url(#clip720)" d="M880.454 46.5287 L902.288 46.5287 L902.288 53.1722 L880.454 53.1722 L880.454 46.5287 Z" fill="#000000" fill-rule="nonzero" fill-opacity="1" /><path clip-path="url(#clip720)" d="M943.162 44.2197 Q945.795 45.1109 948.266 48.0275 Q950.778 50.9442 953.289 56.0483 L961.594 72.576 L952.803 72.576 L945.066 57.061 Q942.068 50.9847 939.233 48.9997 Q936.438 47.0148 931.576 47.0148 L922.664 47.0148 L922.664 72.576 L914.482 72.576 L914.482 12.096 L932.954 12.096 Q943.324 12.096 948.428 16.4305 Q953.532 20.7649 953.532 29.5149 Q953.532 35.2267 950.859 38.994 Q948.226 42.7613 943.162 44.2197 M922.664 18.8205 L922.664 40.2903 L932.954 40.2903 Q938.868 40.2903 941.866 37.5762 Q944.904 34.8216 944.904 29.5149 Q944.904 24.2082 941.866 21.5346 Q938.868 18.8205 932.954 18.8205 L922.664 18.8205 Z" fill="#000000" fill-rule="nonzero" fill-opacity="1" /><path clip-path="url(#clip720)" d="M1006.88 48.0275 L1006.88 51.6733 L972.612 51.6733 Q973.098 59.3701 977.23 63.421 Q981.403 67.4314 988.816 67.4314 Q993.11 67.4314 997.12 66.3781 Q1001.17 65.3249 1005.14 63.2184 L1005.14 70.267 Q1001.13 71.9684 996.918 72.8596 Q992.705 73.7508 988.37 73.7508 Q977.514 73.7508 971.154 67.4314 Q964.834 61.1119 964.834 50.3365 Q964.834 39.1965 970.83 32.6746 Q976.866 26.1121 987.074 26.1121 Q996.229 26.1121 1001.54 32.0264 Q1006.88 37.9003 1006.88 48.0275 M999.429 45.84 Q999.348 39.7232 995.986 36.0774 Q992.664 32.4315 987.155 32.4315 Q980.916 32.4315 977.149 35.9558 Q973.422 39.4801 972.855 45.8805 L999.429 45.84 M992.259 6.22219 L1000.32 6.22219 L987.114 21.4536 L980.916 21.4536 L992.259 6.22219 Z" fill="#000000" fill-rule="nonzero" fill-opacity="1" /><path clip-path="url(#clip720)" d="M1056.83 45.1919 L1056.83 72.576 L1049.38 72.576 L1049.38 45.4349 Q1049.38 38.994 1046.87 35.7938 Q1044.35 32.5936 1039.33 32.5936 Q1033.29 32.5936 1029.81 36.4419 Q1026.33 40.2903 1026.33 46.9338 L1026.33 72.576 L1018.83 72.576 L1018.83 27.2059 L1026.33 27.2059 L1026.33 34.2544 Q1029 30.163 1032.61 28.1376 Q1036.25 26.1121 1040.99 26.1121 Q1048.81 26.1121 1052.82 30.9732 Q1056.83 35.7938 1056.83 45.1919 Z" fill="#000000" fill-rule="nonzero" fill-opacity="1" /><path clip-path="url(#clip720)" d="M1090.57 76.7889 Q1087.41 84.8907 1084.42 87.3618 Q1081.42 89.8329 1076.4 89.8329 L1070.44 89.8329 L1070.44 83.5945 L1074.82 83.5945 Q1077.9 83.5945 1079.6 82.1361 Q1081.3 80.6778 1083.36 75.2496 L1084.7 71.8468 L1066.35 27.2059 L1074.25 27.2059 L1088.43 62.6918 L1102.61 27.2059 L1110.5 27.2059 L1090.57 76.7889 Z" fill="#000000" fill-rule="nonzero" fill-opacity="1" /><path clip-path="url(#clip720)" d="M1120.79 27.2059 L1128.25 27.2059 L1128.25 72.576 L1120.79 72.576 L1120.79 27.2059 M1120.79 9.54393 L1128.25 9.54393 L1128.25 18.9825 L1120.79 18.9825 L1120.79 9.54393 Z" fill="#000000" fill-rule="nonzero" fill-opacity="1" /><path clip-path="url(#clip720)" d="M1200.07 49.3643 Q1200.07 41.2625 1196.71 36.8065 Q1193.39 32.3505 1187.35 32.3505 Q1181.36 32.3505 1177.99 36.8065 Q1174.67 41.2625 1174.67 49.3643 Q1174.67 57.4256 1177.99 61.8816 Q1181.36 66.3376 1187.35 66.3376 Q1193.39 66.3376 1196.71 61.8816 Q1200.07 57.4256 1200.07 49.3643 M1207.52 66.9452 Q1207.52 78.5308 1202.38 84.1616 Q1197.23 89.8329 1186.62 89.8329 Q1182.69 89.8329 1179.21 89.2252 Q1175.72 88.6581 1172.44 87.4428 L1172.44 80.1917 Q1175.72 81.9741 1178.92 82.8248 Q1182.12 83.6755 1185.45 83.6755 Q1192.78 83.6755 1196.42 79.8271 Q1200.07 76.0193 1200.07 68.282 L1200.07 64.5957 Q1197.76 68.6061 1194.16 70.5911 Q1190.55 72.576 1185.53 72.576 Q1177.18 72.576 1172.08 66.2161 Q1166.97 59.8562 1166.97 49.3643 Q1166.97 38.832 1172.08 32.472 Q1177.18 26.1121 1185.53 26.1121 Q1190.55 26.1121 1194.16 28.0971 Q1197.76 30.082 1200.07 34.0924 L1200.07 27.2059 L1207.52 27.2059 L1207.52 66.9452 Z" fill="#000000" fill-rule="nonzero" fill-opacity="1" /><path clip-path="url(#clip720)" d="M1249.17 34.1734 Q1247.91 33.4443 1246.41 33.1202 Q1244.95 32.7556 1243.17 32.7556 Q1236.85 32.7556 1233.45 36.8875 Q1230.09 40.9789 1230.09 48.6757 L1230.09 72.576 L1222.59 72.576 L1222.59 27.2059 L1230.09 27.2059 L1230.09 34.2544 Q1232.44 30.1225 1236.2 28.1376 Q1239.97 26.1121 1245.36 26.1121 Q1246.13 26.1121 1247.06 26.2337 Q1247.99 26.3147 1249.13 26.5172 L1249.17 34.1734 Z" fill="#000000" fill-rule="nonzero" fill-opacity="1" /><path clip-path="url(#clip720)" d="M1277.6 49.7694 Q1268.57 49.7694 1265.09 51.8354 Q1261.6 53.9013 1261.6 58.8839 Q1261.6 62.8538 1264.2 65.2034 Q1266.83 67.5124 1271.33 67.5124 Q1277.52 67.5124 1281.25 63.1374 Q1285.02 58.7219 1285.02 51.4303 L1285.02 49.7694 L1277.6 49.7694 M1292.47 46.6907 L1292.47 72.576 L1285.02 72.576 L1285.02 65.6895 Q1282.47 69.8214 1278.66 71.8063 Q1274.85 73.7508 1269.34 73.7508 Q1262.37 73.7508 1258.24 69.8619 Q1254.15 65.9325 1254.15 59.3701 Q1254.15 51.7138 1259.25 47.825 Q1264.4 43.9361 1274.57 43.9361 L1285.02 43.9361 L1285.02 43.2069 Q1285.02 38.0623 1281.62 35.2672 Q1278.25 32.4315 1272.14 32.4315 Q1268.25 32.4315 1264.56 33.3632 Q1260.87 34.295 1257.47 36.1584 L1257.47 29.2718 Q1261.56 27.692 1265.41 26.9223 Q1269.26 26.1121 1272.91 26.1121 Q1282.75 26.1121 1287.61 31.2163 Q1292.47 36.3204 1292.47 46.6907 Z" fill="#000000" fill-rule="nonzero" fill-opacity="1" /><path clip-path="url(#clip720)" d="M1315.04 65.7705 L1315.04 89.8329 L1307.54 89.8329 L1307.54 27.2059 L1315.04 27.2059 L1315.04 34.0924 Q1317.38 30.0415 1320.95 28.0971 Q1324.55 26.1121 1329.54 26.1121 Q1337.8 26.1121 1342.95 32.6746 Q1348.13 39.2371 1348.13 49.9314 Q1348.13 60.6258 1342.95 67.1883 Q1337.8 73.7508 1329.54 73.7508 Q1324.55 73.7508 1320.95 71.8063 Q1317.38 69.8214 1315.04 65.7705 M1340.39 49.9314 Q1340.39 41.7081 1336.99 37.0496 Q1333.63 32.3505 1327.71 32.3505 Q1321.8 32.3505 1318.4 37.0496 Q1315.04 41.7081 1315.04 49.9314 Q1315.04 58.1548 1318.4 62.8538 Q1321.8 67.5124 1327.71 67.5124 Q1333.63 67.5124 1336.99 62.8538 Q1340.39 58.1548 1340.39 49.9314 Z" fill="#000000" fill-rule="nonzero" fill-opacity="1" /><path clip-path="url(#clip720)" d="M1398.2 45.1919 L1398.2 72.576 L1390.75 72.576 L1390.75 45.4349 Q1390.75 38.994 1388.23 35.7938 Q1385.72 32.5936 1380.7 32.5936 Q1374.66 32.5936 1371.18 36.4419 Q1367.7 40.2903 1367.7 46.9338 L1367.7 72.576 L1360.2 72.576 L1360.2 9.54393 L1367.7 9.54393 L1367.7 34.2544 Q1370.37 30.163 1373.98 28.1376 Q1377.62 26.1121 1382.36 26.1121 Q1390.18 26.1121 1394.19 30.9732 Q1398.2 35.7938 1398.2 45.1919 Z" fill="#000000" fill-rule="nonzero" fill-opacity="1" /><path clip-path="url(#clip720)" d="M1441.99 28.5427 L1441.99 35.5912 Q1438.83 33.9709 1435.43 33.1607 Q1432.03 32.3505 1428.38 32.3505 Q1422.83 32.3505 1420.03 34.0519 Q1417.28 35.7533 1417.28 39.156 Q1417.28 41.7486 1419.26 43.2475 Q1421.25 44.7058 1427.25 46.0426 L1429.8 46.6097 Q1437.74 48.3111 1441.06 51.4303 Q1444.42 54.509 1444.42 60.0587 Q1444.42 66.3781 1439.4 70.0644 Q1434.42 73.7508 1425.67 73.7508 Q1422.02 73.7508 1418.05 73.0216 Q1414.12 72.3329 1409.75 70.9151 L1409.75 63.2184 Q1413.88 65.3654 1417.89 66.4591 Q1421.9 67.5124 1425.83 67.5124 Q1431.09 67.5124 1433.93 65.73 Q1436.76 63.9071 1436.76 60.6258 Q1436.76 57.5877 1434.7 55.9673 Q1432.67 54.3469 1425.75 52.8481 L1423.15 52.2405 Q1416.23 50.7821 1413.15 47.7845 Q1410.07 44.7463 1410.07 39.4801 Q1410.07 33.0797 1414.61 29.5959 Q1419.14 26.1121 1427.49 26.1121 Q1431.62 26.1121 1435.27 26.7198 Q1438.91 27.3274 1441.99 28.5427 Z" fill="#000000" fill-rule="nonzero" fill-opacity="1" /><polyline clip-path="url(#clip722)" style="stroke:#fa8072; stroke-linecap:round; stroke-linejoin:round; stroke-width:8; stroke-opacity:1; fill:none" points="248.112,1143.68 280.133,1143.68 312.153,1143.68 344.174,1045.68 376.194,1116.86 408.215,1046.65 440.236,1032.79 472.256,1028.13 504.277,994.214 536.297,967.19 568.318,922.26 600.339,899.711 632.359,913.416 664.38,872.61 696.401,838.134 728.421,864.067 760.442,826.026 792.462,800.1 824.483,765.556 856.504,757.707 888.524,747.432 920.545,725.691 952.566,714.376 984.586,730.364 1016.61,654.809 1048.63,636.482 1080.65,620.035 1112.67,575.21 1144.69,581.569 1176.71,579.328 1208.73,520.89 1240.75,513.22 1272.77,509.284 1304.79,503.456 1336.81,450.759 1368.83,458.178 1400.85,412.346 1432.87,405.661 1464.9,366.527 1496.92,366.926 1528.94,368.69 1560.96,333.981 1592.98,313.203 1625,290.776 1657.02,266.623 1689.04,239.79 1721.06,213.158 1753.08,209.467 1785.1,197.719 1817.12,186.268 1849.14,150.518 "/>
</svg>
